$MeshFormat
2.2 0 8
$EndMeshFormat
$Nodes
297
1 0.01285958103835583 0.06920807063579559 -0.008855288848280907
2 0.01286082249134779 0.06889896839857101 0.008970871567726135
3 0.01286894734948874 0.06676124781370163 -0.01291348971426487
4 0.01286933850497007 0.06665237993001938 0.01284403540194035
5 0.01288270018994808 0.06314142048358917 0.01454690005630255
6 0.01288687717169523 0.06202567741274834 -0.01497462578117847
7 0.01298623625189066 0.03588815778493881 -0.01489866897463799
8 0.01300036907196045 0.03217217326164246 0.01416708342730999
9 0.01301098149269819 0.02935863845050335 -0.01182879507541656
10 0.01301287207752466 0.02887252531945705 0.01085901260375977
11 0.01301602739840746 0.0280462522059679 -0.009054959751665592
12 0.01301634311676025 0.02795216627418995 0.008753302507102489
13 0.0129971681162715 0.03299979865550995 -0.01415048819035292
14 0.01387547701597214 0.06502099335193634 -0.01415020879358053
15 0.01387407723814249 0.06539600342512131 0.01394214201718569
16 0.01385879516601562 0.06943662464618683 -0.00682504428550601
17 0.01385879516601562 0.06943619251251221 0.006484351586550474
18 0.01386292465031147 0.06834689527750015 0.01103024836629629
19 0.01386346854269505 0.06818118691444397 -0.01131482236087322
20 0.01388800144195557 0.06174669042229652 0.01499902456998825
21 0.01388859748840332 0.06157657876610756 -0.01500083692371845
22 0.01399016287177801 0.03483976423740387 -0.01493706647306681
23 0.01399034261703491 0.03479877114295959 0.01493354979902506
24 0.01400395575910807 0.03120392560958862 -0.01353245787322521
25 0.01400923822075129 0.02983228862285614 0.01236805971711874
26 0.01401280332356691 0.02889882773160934 -0.01110692415386438
27 0.01401650905609131 0.02791229076683521 0.008588709868490696
28 0.01401656214147806 0.02789078839123249 -0.006537121254950762
29 0.01392496470361948 0.05201174691319466 -0.002886431524530053
30 0.01292781997472048 0.05125713720917702 0.0008288843091577291
31 0.01289763394743204 0.05920030549168587 -0.0003009652718901634
32 0.01397696044296026 0.0383191779255867 -0.002024676185101271
33 0.01298802997916937 0.03541354462504387 0.001417540828697383
34 0.01293867360800505 0.04840347915887833 0.01489068381488323
35 0.01393887586891651 0.04834894463419914 0.01475522108376026
36 0.01293900795280933 0.04830822721123695 -0.01500075310468674
37 0.01393833570182323 0.04848431423306465 -0.01500074937939644
38 0.01395743526518345 0.04346087202429771 0.008049393072724342
39 0.01388921029865742 0.06142709776759148 -0.002440218348056078
40 0.0130158681422472 0.02808819338679314 6.495798879768699e-05
41 0.01395780127495527 0.04336456954479218 -0.008390204049646854
42 0.01291586644947529 0.05439886078238487 -0.009350186213850975
43 0.01393208838999271 0.05013543739914894 0.007040318101644516
44 0.01285874843597412 0.06943255662918091 -0.001038137008436024
45 0.01295905373990536 0.04303972795605659 0.009191820397973061
46 0.01296255458146334 0.04211685433983803 -0.005846228916198015
47 0.01299105398356915 0.03461630642414093 -0.007969161495566368
48 0.01288581266999245 0.06231164932250977 0.008328568190336227
49 0.01389417238533497 0.06012005358934402 0.006301651708781719
50 0.01390800811350346 0.05647101998329163 -0.008642083033919334
51 0.01385925244539976 0.069316066801548 0.0005538197001442313
52 0.01398444641381502 0.03634797781705856 0.008202632889151573
53 0.0129104983061552 0.05581564456224442 0.007794325239956379
54 0.01293655764311552 0.04895780608057976 -0.006877035833895206
55 0.01295897737145424 0.0430583730340004 0.001920005888678133
56 0.01401669345796108 0.02785615064203739 0.001116082072257996
57 0.01290871854871511 0.05628342553973198 -0.003720750100910664
58 0.01293402817100286 0.04962395504117012 0.007775028236210346
59 0.01398248411715031 0.03686442598700523 -0.009333977475762367
60 0.01394093316048384 0.04780654236674309 0.002543881069868803
61 0.01389127690345049 0.06088270992040634 0.0007489679846912622
62 0.01391378045082092 0.05495705828070641 0.01000872813165188
63 0.01397420931607485 0.03904399648308754 0.01152271684259176
64 0.01387370284646749 0.06551074981689453 -0.002114076633006334
65 0.01298969890922308 0.03497419506311417 -0.002474341075867414
66 0.01291230320930481 0.05535121634602547 0.01468131225556135
67 0.01292057614773512 0.05316326394677162 -0.00416808994486928
68 0.01287319511175156 0.0656312108039856 0.002988220192492008
69 0.01399454101920128 0.03368948772549629 0.003183558117598295
70 0.01286007836461067 0.06908267736434937 0.004089808091521263
71 0.0128930639475584 0.06040085852146149 -0.008380690589547157
72 0.01391462329775095 0.05473582074046135 0.01499888952821493
73 0.01396489888429642 0.04149599745869637 0.01477588433772326
74 0.01300309970974922 0.03144797682762146 -0.004073289688676596
75 0.01387795899063349 0.06438982486724854 0.001966339768841863
76 0.01298285368829966 0.0367777906358242 0.01451670471578836
77 0.01395147945731878 0.04502929747104645 -0.002656933385878801
78 0.01399845164269209 0.03265979140996933 -0.007819175720214844
79 0.01298811007291079 0.03539386764168739 0.009350701235234737
80 0.01291204337030649 0.05539935454726219 -0.01500074472278357
81 0.01296278834342957 0.04205453395843506 -0.01500076148658991
82 0.01391346659511328 0.05503044649958611 -0.01500079315155745
83 0.01396320480853319 0.0419381819665432 -0.01500070560723543
84 0.01393303088843822 0.0498875230550766 -0.008518530987203121
85 0.0130161065608263 0.02802273072302341 -0.004602894186973572
86 0.01301630306988955 0.02797394059598446 0.004308219533413649
87 0.01294681802392006 0.0462583489716053 0.004753280431032181
88 0.01289236545562744 0.06058686599135399 0.004476699512451887
89 0.01394826360046864 0.04587741196155548 0.01139478664845228
90 0.01388157065957785 0.06343899667263031 -0.008307195268571377
91 0.01391379442065954 0.05495306476950645 0.003020694013684988
92 0.01297774631530046 0.0381225049495697 0.01203738618642092
93 0.01294413954019547 0.04696264863014221 -0.003988815937191248
94 0.01289531216025352 0.05981099605560303 -0.00422671576961875
95 0.01399822439998388 0.03271973505616188 -0.002777323592454195
96 0.01287431828677654 0.06533537805080414 -0.004458792973309755
97 0.01395239494740963 0.04478784650564194 -0.01113448664546013
98 0.01390791404992342 0.05650176107883453 -0.002897173166275024
99 0.01400067284703255 0.03207492083311081 0.008055955171585083
100 0.01293202582746744 0.0501503013074398 -0.0032237668056041
101 0.01287481281906366 0.06520431488752365 -0.007948858663439751
102 0.01291786599904299 0.05387656763195992 0.003991709556430578
103 0.01294357050210238 0.04711258411407471 0.001336346613243222
104 0.01393710076808929 0.04881613701581955 0.010096057318151
105 0.01396846771240234 0.04055581614375114 -0.005510211922228336
106 0.01392317190766335 0.05247766897082329 -0.01182141620665789
107 0.01389830280095339 0.05902379751205444 -0.01182145997881889
108 0.01292318943887949 0.05247806757688522 0.01104826480150223
109 0.01392762921750546 0.0513102188706398 0.002667615655809641
110 0.01396232470870018 0.04217328503727913 0.0001320112205576152
111 0.01400580536574125 0.03072322718799114 0.005299972370266914
112 0.01300159469246864 0.0318443700671196 0.005263335537165403
113 0.012904386036098 0.05742358043789864 0.003557887859642506
114 0.01295291818678379 0.04464708641171455 -0.0105295367538929
115 0.01399735640734434 0.03294840827584267 0.01084692869335413
116 0.01292752847075462 0.0513295978307724 -0.01212042663246393
117 0.01296116597950459 0.04248244315385818 -0.002261596033349633
118 0.01397323235869408 0.03929924592375755 -0.01206394471228123
119 0.01291071716696024 0.05575765296816826 0.0007039198535494506
120 0.01297490485012531 0.0388672910630703 -0.002596962032839656
121 0.01387925166636705 0.06404992192983627 0.01021262444555759
122 0.01297304593026638 0.03935286030173302 -0.01088808756321669
123 0.01294886413961649 0.04572160542011261 0.01204125210642815
124 0.01297284848988056 0.03940967470407486 0.009263721294701099
125 0.01391471829265356 0.05471036583185196 0.006727111991494894
126 0.01289683021605015 0.05942119657993317 0.01483621168881655
127 0.01290271990001202 0.05785426869988441 -0.01174363773316145
128 0.01297829486429691 0.03797432035207748 -0.007595227565616369
129 0.01293658465147018 0.04894470050930977 -0.01084134262055159
130 0.01285981852561235 0.06914839893579483 -0.005012467503547668
131 0.01287835650146008 0.06427281349897385 -0.0005097399116493762
132 0.01297253649681807 0.03949055075645447 0.005210697650909424
133 0.0139720756560564 0.03960563242435455 0.002904430730268359
134 0.01395739242434502 0.04347247630357742 0.002787061268463731
135 0.01288469042629004 0.06260617822408676 -0.003067573765292764
136 0.01289547607302666 0.05977373197674751 0.01144564524292946
137 0.01300077047199011 0.03206099569797516 0.0003712313482537866
138 0.0129866199567914 0.03578483685851097 0.005131930112838745
139 0.0138965854421258 0.05948541313409805 0.01100478041917086
140 0.01401652209460735 0.02790691517293453 0.00480725197121501
141 0.01401654817163944 0.02789616398513317 -0.002755663357675076
142 0.01390492636710405 0.05728831142187119 0.007905560545623302
143 0.01394180953502655 0.04757591709494591 -0.005467847920954227
144 0.0129738999530673 0.03913168609142303 0.001162289641797543
145 0.01388043537735939 0.06373755633831024 0.005739017389714718
146 0.01296398788690567 0.04174657911062241 0.01481565088033676
147 0.01288113184273243 0.06353744119405746 -0.01034126989543438
148 0.01399117149412632 0.03457695618271828 -0.005613204091787338
149 0.01397935301065445 0.03768933564424515 -0.005650246515870094
150 0.01398882735520601 0.0351945273578167 0.0119625199586153
151 0.01291059795767069 0.05579380691051483 0.01175583526492119
152 0.01396105624735355 0.04250892251729965 0.01138660218566656
153 0.01295746304094791 0.04345701262354851 0.005677555687725544
154 0.0129369767382741 0.04885035753250122 0.01142009999603033
155 0.01385879516601562 0.06943650543689728 -0.003167089307680726
156 0.01393366791307926 0.04971982166171074 -0.0001896621251944453
157 0.01299072522670031 0.03470412641763687 -0.01129798498004675
158 0.01392813958227634 0.05117732658982277 0.01277643069624901
159 0.01300394907593727 0.03122608363628387 0.009249011985957623
160 0.01298026740550995 0.03745681792497635 0.007118574343621731
161 0.01296690292656422 0.04097064584493637 -0.008327963761985302
162 0.01295760460197926 0.04341862350702286 -0.007725610863417387
163 0.01299752667546272 0.03291468694806099 0.002873274264857173
164 0.01396991871297359 0.0401734821498394 0.007867395877838135
165 0.01388096623122692 0.06359805911779404 -0.003990608267486095
166 0.01393869146704674 0.04839703440666199 -0.002650866750627756
167 0.01391430478543043 0.05481879413127899 -0.005411253776401281
168 0.01286733336746693 0.06717329472303391 -0.006546900607645512
169 0.01292515825480223 0.05196186155080795 0.01489396393299103
170 0.01286052819341421 0.06896456331014633 0.006469062529504299
171 0.01389933377504349 0.0587613433599472 -0.005868660751730204
172 0.01297499891370535 0.03884247317910194 -0.005225089844316244
173 0.01287073083221912 0.06627479195594788 -0.01002498064190149
174 0.01293228566646576 0.05008208379149437 0.004466834012418985
175 0.01296866871416569 0.04050801694393158 -0.004310597665607929
176 0.01392096001654863 0.05306719243526459 0.01139257941395044
177 0.01295200642198324 0.04489344358444214 0.01487850397825241
178 0.0139939459040761 0.0338459424674511 -0.01165972370654345
179 0.01389897242188454 0.05885649099946022 -0.002338482532650232
180 0.01294989418238401 0.04544828087091446 -0.006782483775168657
181 0.01389241497963667 0.0605832077562809 -0.009200171567499638
182 0.01394421886652708 0.04694119468331337 0.00738007016479969
183 0.01391664892435074 0.05420156568288803 -0.00298587023280561
184 0.01288564782589674 0.06235428154468536 0.001634069834835827
185 0.01286407373845577 0.06803391873836517 -0.01080888416618109
186 0.01396579761058092 0.04125897958874702 -0.00262970058247447
187 0.0139010576531291 0.05830837786197662 0.01499895844608545
188 0.0139636667445302 0.04181963950395584 -0.01053335703909397
189 0.0129049988463521 0.05726001039147377 -0.008597093634307384
190 0.01287405658513308 0.0654057115316391 0.008469208143651485
191 0.01397612504661083 0.03853655233979225 -0.01498750410974026
192 0.01292666140943766 0.05155517160892487 -0.01500074937939644
193 0.01291908603161573 0.05355530604720116 -0.001709178905002773
194 0.01289080921560526 0.06098776310682297 -0.01223576162010431
195 0.0139714740216732 0.03976406529545784 -0.008237589150667191
196 0.01292340643703938 0.05241884663701057 0.007062339223921299
197 0.01344606745988131 0.03709229826927185 0.01499882154166698
198 0.01288287620991468 0.06309107691049576 0.01182403042912483
199 0.01395196467638016 0.04490423947572708 0.01495810318738222
200 0.01397754997014999 0.03816726058721542 0.01494173426181078
201 0.01298486068844795 0.0362473800778389 -0.004868839401751757
202 0.0130080571398139 0.03014336153864861 -0.006302172783762217
203 0.01300861872732639 0.02999023534357548 0.002541350899264216
204 0.01286870054900646 0.06681400537490845 0.006258585024625063
205 0.01309731043875217 0.03109338693320751 -0.01313418336212635
206 0.01294748112559319 0.04608429595828056 0.008356636390089989
207 0.01387958601117134 0.06396157294511795 0.008043266832828522
208 0.01297127455472946 0.03982234746217728 -0.006661052815616131
209 0.01300250086933374 0.03160466253757477 -0.008759258314967155
210 0.01398308295756578 0.03670690581202507 0.0009955464629456401
211 0.01289946027100086 0.05871251598000526 -0.01498768478631973
212 0.01392664294689894 0.05157139524817467 0.01498258952051401
213 0.01386982295662165 0.06653221696615219 0.008082498796284199
214 0.0139514310285449 0.04504193365573883 0.005547142121940851
215 0.01297476701438427 0.03890391439199448 -0.01462504453957081
216 0.01394623145461082 0.04641126841306686 -0.00812828354537487
217 0.01392504200339317 0.0519835501909256 -0.01495392713695765
218 0.01392086502164602 0.05309126526117325 -0.007774102501571178
219 0.01390001736581326 0.05857069790363312 -0.01500081643462181
220 0.01287761051207781 0.06447392702102661 0.0103056887164712
221 0.01391073688864708 0.05575073137879372 -0.01182143855839968
222 0.01391812134534121 0.05381376668810844 1.378724573442014e-05
223 0.01388767641037703 0.06183123216032982 -0.005643404088914394
224 0.01290199253708124 0.05805310606956482 -0.006290935911238194
225 0.01386912539601326 0.06671597063541412 0.004727511666715145
226 0.01392439380288124 0.05216171592473984 0.005407432559877634
227 0.01293693669140339 0.04885813221335411 -0.001244335784576833
228 0.01387589797377586 0.06493282318115234 -0.005966716911643744
229 0.01387047953903675 0.06635905802249908 -0.008284351788461208
230 0.01392839476466179 0.05110680684447289 -0.005741057451814413
231 0.01295024156570435 0.0453571155667305 -0.000893137592356652
232 0.01400466449558735 0.03102367930114269 0.002393931150436401
233 0.01400760468095541 0.03024950809776783 -0.0004529468715190887
234 0.01298044342547655 0.03740951418876648 -0.01287156529724598
235 0.01400739327073097 0.03030526265501976 -0.004657222423702478
236 0.01390743907541037 0.056627556681633 0.01269246451556683
237 0.01396460551768541 0.04157270491123199 0.005464913789182901
238 0.01386833656579256 0.06692395359277725 -0.005102715454995632
239 0.01296729501336813 0.04086972028017044 -0.0005929279141128063
240 0.01398325245827436 0.03666186705231667 -0.01229934021830559
241 0.01292995549738407 0.05069763213396072 0.01292791124433279
242 0.01286749076098204 0.06713214516639709 0.001120322616770864
243 0.01385879516601562 0.06943628937005997 0.00348760886117816
244 0.0129932789131999 0.03403526172041893 0.01168499700725079
245 0.01399626303464174 0.03323619812726974 0.0001430569536751136
246 0.01291452255100012 0.05474832653999329 -0.01192364189773798
247 0.01296289172023535 0.04203152656555176 0.01237004529684782
248 0.0139843774959445 0.03636593371629715 0.00353762274608016
249 0.01390423066914082 0.05747140198945999 0.005134829320013523
250 0.01390520296990871 0.05721558630466461 -9.138469613390043e-05
251 0.01289630495011806 0.05955024436116219 0.00756137864664197
252 0.01400324329733849 0.03139775991439819 -0.01058996561914682
253 0.01398174650967121 0.03705925121903419 0.01293437927961349
254 0.01291323360055685 0.05509359762072563 -0.006558256223797798
255 0.01394771318882704 0.04602120816707611 -4.752343011205085e-05
256 0.0139559144154191 0.04386156052350998 -0.00544978491961956
257 0.01397862005978823 0.0378822386264801 0.005443670321255922
258 0.01287937443703413 0.06400536745786667 0.005608173087239265
259 0.01296508777886629 0.04145070165395737 0.007075665052980185
260 0.01395660825073719 0.04367925599217415 0.01313258521258831
261 0.01398773491382599 0.03548192605376244 -0.002305485541000962
262 0.01288330275565386 0.06296794861555099 -0.006510145962238312
263 0.01388463471084833 0.06263270974159241 0.01253895368427038
264 0.01294448040425777 0.04687033593654633 -0.008792624808847904
265 0.01288760267198086 0.06183991953730583 -0.0002869928139261901
266 0.01389449834823608 0.06003446131944656 0.003476569661870599
267 0.0139375003054738 0.04871045798063278 0.004898563958704472
268 0.01399960927665234 0.03236660361289978 0.01376835163682699
269 0.01292671728879213 0.05154493451118469 -0.008529074490070343
270 0.01292084809392691 0.05309140309691429 -0.006801104173064232
271 0.01300645247101784 0.03056580014526844 -0.002096123993396759
272 0.0130086001008749 0.03000102750957012 0.006783997174352407
273 0.01286733523011208 0.06717304140329361 -0.002237663138657808
274 0.01287772133946419 0.06444272398948669 -0.01386855263262987
275 0.01386753376573324 0.06713515520095825 0.002045388799160719
276 0.01298163086175919 0.03709728643298149 -0.0005048771854490042
277 0.01285984553396702 0.06914401054382324 0.001426885952241719
278 0.01298083737492561 0.0373065397143364 0.003264606930315495
279 0.01399241667240858 0.03424887731671333 0.005643338430672884
280 0.01392445899546146 0.052144855260849 0.008975203149020672
281 0.01388722658157349 0.06194939836859703 0.008296129293739796
282 0.01397192757576704 0.03964465856552124 7.775363337714225e-05
283 0.01292730402201414 0.05139264836907387 -0.005603898782283068
284 0.01295424345880747 0.04430393502116203 -0.004670894704759121
285 0.01300713419914246 0.03038531728088856 0.01237170863896608
286 0.01394045818597078 0.04792848974466324 -0.0101411584764719
287 0.01299554295837879 0.03343689814209938 0.007030939683318138
288 0.01388660352677107 0.06211338564753532 0.003745557740330696
289 0.01299732271581888 0.03296815603971481 -0.005813602358102798
290 0.01316976640373468 0.05338146910071373 0.01381793618202209
291 0.01386081986129284 0.06889566034078598 0.00877134595066309
292 0.01299161184579134 0.03447498008608818 0.01434189360588789
293 0.01297409646213055 0.03908059746026993 0.01469151489436626
294 0.01387972291558981 0.06391973048448563 -0.0114738941192627
295 0.01391691621392965 0.05413203313946724 0.01283414289355278
296 0.01286508049815893 0.0677756741642952 0.01090745348483324
297 0.01301603298634291 0.02804463542997837 -0.006460770033299923
$EndNodes
$Elements
764
1 4 2 0 1 142 49 249 251
2 4 2 0 1 294 6 14 21
3 4 2 0 1 14 274 6 294
4 4 2 0 1 296 213 18 121
5 4 2 0 1 121 198 15 4
6 4 2 0 1 289 65 95 148
7 4 2 0 1 233 137 95 271
8 4 2 0 1 216 264 114 180
9 4 2 0 1 238 96 64 273
10 4 2 0 1 113 53 102 249
11 4 2 0 1 258 184 68 75
12 4 2 0 1 279 69 112 138
13 4 2 0 1 278 257 248 133
14 4 2 0 1 117 256 77 186
15 4 2 0 1 247 146 293 73
16 4 2 0 1 79 92 244 150
17 4 2 0 1 264 114 286 216
18 4 2 0 1 188 97 83 114
19 4 2 0 1 124 52 63 79
20 4 2 0 1 79 52 63 150
21 4 2 0 1 122 81 114 83
22 4 2 0 1 106 84 269 116
23 4 2 0 1 82 246 80 116
24 4 2 0 1 148 289 235 95
25 4 2 0 1 65 33 245 261
26 4 2 0 1 65 120 276 32
27 4 2 0 1 118 83 191 215
28 4 2 0 1 118 122 83 215
29 4 2 0 1 118 188 83 122
30 4 2 0 1 148 289 65 201
31 4 2 0 1 59 128 47 148
32 4 2 0 1 121 207 190 213
33 4 2 0 1 113 53 249 251
34 4 2 0 1 230 100 67 283
35 4 2 0 1 183 193 57 67
36 4 2 0 1 55 134 237 133
37 4 2 0 1 278 133 248 210
38 4 2 0 1 184 131 68 75
39 4 2 0 1 79 115 99 52
40 4 2 0 1 247 73 293 63
41 4 2 0 1 63 73 293 200
42 4 2 0 1 161 188 114 41
43 4 2 0 1 228 262 165 96
44 4 2 0 1 174 87 60 267
45 4 2 0 1 93 166 231 77
46 4 2 0 1 257 160 138 52
47 4 2 0 1 62 142 53 139
48 4 2 0 1 77 93 256 284
49 4 2 0 1 69 232 163 245
50 4 2 0 1 125 249 102 53
51 4 2 0 1 108 62 280 53
52 4 2 0 1 108 62 151 295
53 4 2 0 1 85 74 235 202
54 4 2 0 1 111 112 203 86
55 4 2 0 1 68 275 242 70
56 4 2 0 1 124 63 92 79
57 4 2 0 1 107 181 194 127
58 4 2 0 1 145 48 281 207
59 4 2 0 1 75 275 68 225
60 4 2 0 1 88 251 249 49
61 4 2 0 1 74 289 235 202
62 4 2 0 1 62 139 151 236
63 4 2 0 1 79 244 115 150
64 4 2 0 1 247 260 177 73
65 4 2 0 1 247 177 146 73
66 4 2 0 1 117 284 231 77
67 4 2 0 1 219 127 211 80
68 4 2 0 1 247 63 293 92
69 4 2 0 1 122 81 83 215
70 4 2 0 1 107 221 127 82
71 4 2 0 1 219 127 80 82
72 4 2 0 1 97 37 83 114
73 4 2 0 1 64 131 61 75
74 4 2 0 1 64 131 39 61
75 4 2 0 1 171 167 57 224
76 4 2 0 1 79 115 159 99
77 4 2 0 1 279 111 112 69
78 4 2 0 1 112 287 159 99
79 4 2 0 1 29 193 67 100
80 4 2 0 1 250 113 119 91
81 4 2 0 1 58 43 174 196
82 4 2 0 1 226 91 109 102
83 4 2 0 1 227 231 93 166
84 4 2 0 1 164 124 160 52
85 4 2 0 1 160 132 124 164
86 4 2 0 1 160 124 79 52
87 4 2 0 1 58 206 104 154
88 4 2 0 1 162 161 114 41
89 4 2 0 1 46 161 41 105
90 4 2 0 1 161 208 128 195
91 4 2 0 1 46 161 162 41
92 4 2 0 1 41 180 162 46
93 4 2 0 1 69 245 163 33
94 4 2 0 1 138 69 163 33
95 4 2 0 1 228 96 165 64
96 4 2 0 1 255 231 166 77
97 4 2 0 1 165 96 135 64
98 4 2 0 1 157 122 128 59
99 4 2 0 1 65 271 74 95
100 4 2 0 1 157 128 47 59
101 4 2 0 1 289 65 74 95
102 4 2 0 1 228 168 101 96
103 4 2 0 1 202 78 28 209
104 4 2 0 1 107 181 294 194
105 4 2 0 1 21 107 294 194
106 4 2 0 1 204 170 2 17
107 4 2 0 1 82 106 246 116
108 4 2 0 1 153 55 237 132
109 4 2 0 1 233 95 235 271
110 4 2 0 1 82 221 246 106
111 4 2 0 1 74 271 235 95
112 4 2 0 1 289 74 235 95
113 4 2 0 1 55 133 237 132
114 4 2 0 1 144 55 132 133
115 4 2 0 1 219 107 127 82
116 4 2 0 1 69 232 112 163
117 4 2 0 1 232 203 112 163
118 4 2 0 1 105 175 172 120
119 4 2 0 1 149 172 201 120
120 4 2 0 1 149 105 172 120
121 4 2 0 1 115 25 159 99
122 4 2 0 1 159 25 27 99
123 4 2 0 1 47 59 178 157
124 4 2 0 1 267 60 174 109
125 4 2 0 1 247 152 73 63
126 4 2 0 1 294 3 173 19
127 4 2 0 1 3 294 173 147
128 4 2 0 1 173 3 185 19
129 4 2 0 1 31 184 266 61
130 4 2 0 1 88 31 184 266
131 4 2 0 1 252 205 209 157
132 4 2 0 1 105 46 172 175
133 4 2 0 1 46 105 186 175
134 4 2 0 1 46 186 117 175
135 4 2 0 1 231 77 110 117
136 4 2 0 1 231 77 255 110
137 4 2 0 1 99 272 112 111
138 4 2 0 1 140 203 86 111
139 4 2 0 1 266 88 113 249
140 4 2 0 1 176 62 280 108
141 4 2 0 1 176 62 108 295
142 4 2 0 1 71 90 147 262
143 4 2 0 1 250 61 179 31
144 4 2 0 1 39 179 94 171
145 4 2 0 1 98 250 179 31
146 4 2 0 1 39 179 31 94
147 4 2 0 1 290 72 295 66
148 4 2 0 1 229 90 101 294
149 4 2 0 1 229 294 101 173
150 4 2 0 1 84 54 269 129
151 4 2 0 1 165 135 39 64
152 4 2 0 1 106 84 116 286
153 4 2 0 1 82 116 80 192
154 4 2 0 1 82 106 116 217
155 4 2 0 1 135 131 39 64
156 4 2 0 1 284 77 117 256
157 4 2 0 1 223 135 39 165
158 4 2 0 1 179 61 39 31
159 4 2 0 1 59 122 118 240
160 4 2 0 1 59 195 118 122
161 4 2 0 1 29 222 183 193
162 4 2 0 1 188 114 83 122
163 4 2 0 1 222 102 109 91
164 4 2 0 1 222 91 119 102
165 4 2 0 1 111 232 112 69
166 4 2 0 1 173 185 1 19
167 4 2 0 1 286 264 129 114
168 4 2 0 1 37 114 36 81
169 4 2 0 1 114 97 286 216
170 4 2 0 1 114 81 37 83
171 4 2 0 1 29 193 183 67
172 4 2 0 1 177 260 199 73
173 4 2 0 1 113 249 102 91
174 4 2 0 1 125 91 102 249
175 4 2 0 1 29 67 183 167
176 4 2 0 1 164 52 63 124
177 4 2 0 1 257 164 160 52
178 4 2 0 1 58 206 87 182
179 4 2 0 1 87 182 267 58
180 4 2 0 1 181 90 147 71
181 4 2 0 1 45 152 247 124
182 4 2 0 1 174 87 267 58
183 4 2 0 1 62 142 125 53
184 4 2 0 1 196 280 125 53
185 4 2 0 1 39 94 135 223
186 4 2 0 1 126 20 136 5
187 4 2 0 1 50 71 127 189
188 4 2 0 1 127 181 194 71
189 4 2 0 1 127 50 181 71
190 4 2 0 1 141 271 85 40
191 4 2 0 1 137 233 95 245
192 4 2 0 1 86 203 56 40
193 4 2 0 1 296 121 18 4
194 4 2 0 1 48 121 190 220
195 4 2 0 1 272 112 111 86
196 4 2 0 1 226 125 91 102
197 4 2 0 1 205 178 24 13
198 4 2 0 1 205 178 13 157
199 4 2 0 1 121 48 190 207
200 4 2 0 1 258 48 145 207
201 4 2 0 1 48 258 190 207
202 4 2 0 1 284 93 231 77
203 4 2 0 1 59 195 128 149
204 4 2 0 1 122 195 128 59
205 4 2 0 1 144 55 133 110
206 4 2 0 1 55 110 144 239
207 4 2 0 1 79 63 92 150
208 4 2 0 1 253 197 76 23
209 4 2 0 1 127 221 246 82
210 4 2 0 1 127 246 80 82
211 4 2 0 1 253 200 197 23
212 4 2 0 1 26 9 252 24
213 4 2 0 1 84 129 116 286
214 4 2 0 1 55 153 134 87
215 4 2 0 1 55 134 103 87
216 4 2 0 1 103 87 60 174
217 4 2 0 1 48 139 281 121
218 4 2 0 1 121 15 18 4
219 4 2 0 1 30 103 60 174
220 4 2 0 1 96 131 64 273
221 4 2 0 1 131 242 68 75
222 4 2 0 1 75 275 242 68
223 4 2 0 1 159 10 12 27
224 4 2 0 1 98 31 94 57
225 4 2 0 1 207 48 281 121
226 4 2 0 1 79 150 115 52
227 4 2 0 1 161 46 208 105
228 4 2 0 1 105 46 208 172
229 4 2 0 1 195 161 208 105
230 4 2 0 1 278 132 257 133
231 4 2 0 1 229 294 173 19
232 4 2 0 1 79 244 159 115
233 4 2 0 1 229 173 1 19
234 4 2 0 1 247 152 260 73
235 4 2 0 1 135 265 39 131
236 4 2 0 1 91 249 250 113
237 4 2 0 1 39 31 135 94
238 4 2 0 1 154 89 104 35
239 4 2 0 1 154 89 35 123
240 4 2 0 1 251 136 53 139
241 4 2 0 1 123 89 35 199
242 4 2 0 1 48 198 121 220
243 4 2 0 1 136 121 48 198
244 4 2 0 1 139 126 136 151
245 4 2 0 1 48 121 136 139
246 4 2 0 1 136 263 139 121
247 4 2 0 1 58 182 43 104
248 4 2 0 1 58 206 182 104
249 4 2 0 1 65 137 95 245
250 4 2 0 1 206 89 182 104
251 4 2 0 1 252 209 47 157
252 4 2 0 1 209 78 252 47
253 4 2 0 1 78 178 252 47
254 4 2 0 1 47 178 252 157
255 4 2 0 1 222 102 119 30
256 4 2 0 1 193 222 119 30
257 4 2 0 1 272 140 86 111
258 4 2 0 1 55 110 134 133
259 4 2 0 1 251 139 53 142
260 4 2 0 1 166 93 143 77
261 4 2 0 1 93 143 77 256
262 4 2 0 1 120 144 276 32
263 4 2 0 1 278 144 132 133
264 4 2 0 1 75 258 225 68
265 4 2 0 1 75 258 288 145
266 4 2 0 1 75 258 145 225
267 4 2 0 1 171 224 71 50
268 4 2 0 1 224 50 189 71
269 4 2 0 1 294 90 101 147
270 4 2 0 1 139 236 126 151
271 4 2 0 1 236 126 66 187
272 4 2 0 1 123 35 154 34
273 4 2 0 1 59 128 148 149
274 4 2 0 1 148 128 47 201
275 4 2 0 1 105 208 149 172
276 4 2 0 1 149 128 148 201
277 4 2 0 1 183 193 98 57
278 4 2 0 1 222 91 250 119
279 4 2 0 1 167 67 57 254
280 4 2 0 1 262 228 101 96
281 4 2 0 1 108 62 53 151
282 4 2 0 1 151 139 53 136
283 4 2 0 1 139 53 62 151
284 4 2 0 1 112 159 272 99
285 4 2 0 1 153 38 206 45
286 4 2 0 1 158 176 280 108
287 4 2 0 1 96 130 273 238
288 4 2 0 1 156 29 30 222
289 4 2 0 1 157 59 178 240
290 4 2 0 1 240 122 157 59
291 4 2 0 1 35 104 154 158
292 4 2 0 1 35 158 154 34
293 4 2 0 1 159 10 27 25
294 4 2 0 1 132 133 237 257
295 4 2 0 1 124 152 63 164
296 4 2 0 1 169 72 290 66
297 4 2 0 1 241 158 154 108
298 4 2 0 1 100 93 143 166
299 4 2 0 1 227 93 100 166
300 4 2 0 1 98 183 57 167
301 4 2 0 1 241 158 108 169
302 4 2 0 1 90 181 223 71
303 4 2 0 1 223 94 71 171
304 4 2 0 1 179 98 94 171
305 4 2 0 1 148 65 95 261
306 4 2 0 1 148 201 65 261
307 4 2 0 1 201 120 65 32
308 4 2 0 1 149 120 201 32
309 4 2 0 1 149 201 261 32
310 4 2 0 1 24 178 22 13
311 4 2 0 1 45 164 152 124
312 4 2 0 1 132 259 124 164
313 4 2 0 1 41 180 114 162
314 4 2 0 1 181 50 171 71
315 4 2 0 1 107 50 181 127
316 4 2 0 1 87 214 60 267
317 4 2 0 1 61 131 184 75
318 4 2 0 1 288 61 184 75
319 4 2 0 1 199 35 123 34
320 4 2 0 1 123 34 177 199
321 4 2 0 1 117 110 55 239
322 4 2 0 1 175 105 186 120
323 4 2 0 1 175 186 117 120
324 4 2 0 1 209 252 28 11
325 4 2 0 1 289 78 202 209
326 4 2 0 1 41 97 188 114
327 4 2 0 1 195 161 188 122
328 4 2 0 1 161 114 188 122
329 4 2 0 1 50 189 127 42
330 4 2 0 1 273 155 44 51
331 4 2 0 1 121 190 296 213
332 4 2 0 1 258 68 204 225
333 4 2 0 1 220 121 296 4
334 4 2 0 1 82 116 192 217
335 4 2 0 1 294 90 147 181
336 4 2 0 1 161 195 41 105
337 4 2 0 1 161 188 41 195
338 4 2 0 1 108 280 196 53
339 4 2 0 1 113 102 119 91
340 4 2 0 1 24 9 252 205
341 4 2 0 1 252 178 24 205
342 4 2 0 1 198 263 121 15
343 4 2 0 1 136 121 198 263
344 4 2 0 1 230 67 270 283
345 4 2 0 1 230 54 283 269
346 4 2 0 1 183 67 57 167
347 4 2 0 1 218 230 269 84
348 4 2 0 1 297 202 28 11
349 4 2 0 1 289 47 78 209
350 4 2 0 1 202 209 28 11
351 4 2 0 1 203 233 56 40
352 4 2 0 1 213 204 2 17
353 4 2 0 1 190 204 2 213
354 4 2 0 1 206 89 123 45
355 4 2 0 1 253 293 76 197
356 4 2 0 1 92 63 293 253
357 4 2 0 1 63 200 293 253
358 4 2 0 1 252 9 11 209
359 4 2 0 1 209 252 78 28
360 4 2 0 1 202 78 235 28
361 4 2 0 1 65 245 95 261
362 4 2 0 1 278 133 210 144
363 4 2 0 1 252 9 209 205
364 4 2 0 1 35 212 158 34
365 4 2 0 1 116 129 36 37
366 4 2 0 1 106 286 116 37
367 4 2 0 1 37 129 36 114
368 4 2 0 1 286 129 116 37
369 4 2 0 1 286 129 37 114
370 4 2 0 1 2 291 18 213
371 4 2 0 1 87 214 153 134
372 4 2 0 1 114 97 216 41
373 4 2 0 1 217 116 36 37
374 4 2 0 1 50 254 42 218
375 4 2 0 1 106 50 42 218
376 4 2 0 1 194 107 127 219
377 4 2 0 1 34 212 158 169
378 4 2 0 1 220 198 121 4
379 4 2 0 1 107 50 127 221
380 4 2 0 1 221 50 42 106
381 4 2 0 1 127 50 42 221
382 4 2 0 1 114 37 286 97
383 4 2 0 1 131 265 39 61
384 4 2 0 1 118 122 215 234
385 4 2 0 1 217 106 116 37
386 4 2 0 1 217 116 192 36
387 4 2 0 1 29 222 193 30
388 4 2 0 1 183 222 98 193
389 4 2 0 1 98 94 171 57
390 4 2 0 1 167 57 224 254
391 4 2 0 1 94 57 224 171
392 4 2 0 1 225 275 68 70
393 4 2 0 1 54 84 143 216
394 4 2 0 1 230 143 54 84
395 4 2 0 1 21 294 6 194
396 4 2 0 1 196 125 102 53
397 4 2 0 1 196 125 226 102
398 4 2 0 1 43 267 174 226
399 4 2 0 1 195 208 149 105
400 4 2 0 1 122 161 128 195
401 4 2 0 1 115 8 25 268
402 4 2 0 1 115 8 285 25
403 4 2 0 1 119 113 250 31
404 4 2 0 1 29 30 100 156
405 4 2 0 1 30 227 100 156
406 4 2 0 1 278 138 248 257
407 4 2 0 1 278 132 138 257
408 4 2 0 1 258 207 145 213
409 4 2 0 1 258 48 49 145
410 4 2 0 1 228 262 223 165
411 4 2 0 1 238 96 228 64
412 4 2 0 1 187 20 139 126
413 4 2 0 1 139 20 136 126
414 4 2 0 1 16 229 1 19
415 4 2 0 1 229 168 101 228
416 4 2 0 1 168 228 229 238
417 4 2 0 1 167 67 270 230
418 4 2 0 1 194 127 211 219
419 4 2 0 1 174 109 30 102
420 4 2 0 1 232 203 163 137
421 4 2 0 1 111 203 112 232
422 4 2 0 1 206 38 214 182
423 4 2 0 1 203 137 233 40
424 4 2 0 1 56 233 141 40
425 4 2 0 1 137 203 233 232
426 4 2 0 1 33 137 65 245
427 4 2 0 1 122 234 118 240
428 4 2 0 1 240 234 157 122
429 4 2 0 1 191 234 215 7
430 4 2 0 1 141 235 28 85
431 4 2 0 1 295 236 66 72
432 4 2 0 1 72 236 66 187
433 4 2 0 1 153 134 237 55
434 4 2 0 1 153 206 214 87
435 4 2 0 1 153 214 38 237
436 4 2 0 1 186 239 120 32
437 4 2 0 1 120 239 144 32
438 4 2 0 1 144 110 133 282
439 4 2 0 1 239 110 144 282
440 4 2 0 1 239 186 282 32
441 4 2 0 1 157 240 22 7
442 4 2 0 1 240 191 22 7
443 4 2 0 1 157 240 178 22
444 4 2 0 1 240 234 191 7
445 4 2 0 1 7 234 157 240
446 4 2 0 1 132 237 259 164
447 4 2 0 1 153 237 259 132
448 4 2 0 1 294 181 147 194
449 4 2 0 1 194 181 147 71
450 4 2 0 1 34 158 154 241
451 4 2 0 1 34 158 241 169
452 4 2 0 1 45 89 123 152
453 4 2 0 1 124 152 247 63
454 4 2 0 1 45 152 123 247
455 4 2 0 1 280 62 125 53
456 4 2 0 1 174 226 102 196
457 4 2 0 1 43 280 226 196
458 4 2 0 1 242 51 277 70
459 4 2 0 1 150 253 76 23
460 4 2 0 1 150 292 8 23
461 4 2 0 1 150 63 92 253
462 4 2 0 1 225 70 68 204
463 4 2 0 1 244 292 8 150
464 4 2 0 1 244 8 115 150
465 4 2 0 1 244 8 285 115
466 4 2 0 1 265 131 184 61
467 4 2 0 1 113 88 266 31
468 4 2 0 1 140 203 56 86
469 4 2 0 1 140 56 203 232
470 4 2 0 1 232 56 203 233
471 4 2 0 1 33 69 245 210
472 4 2 0 1 137 232 245 163
473 4 2 0 1 33 137 245 163
474 4 2 0 1 230 100 54 143
475 4 2 0 1 29 100 230 166
476 4 2 0 1 156 100 29 166
477 4 2 0 1 246 106 42 116
478 4 2 0 1 246 221 42 106
479 4 2 0 1 127 221 42 246
480 4 2 0 1 103 255 156 60
481 4 2 0 1 227 103 255 156
482 4 2 0 1 93 180 256 284
483 4 2 0 1 143 54 216 180
484 4 2 0 1 180 143 93 256
485 4 2 0 1 180 216 256 41
486 4 2 0 1 138 279 69 248
487 4 2 0 1 33 248 69 210
488 4 2 0 1 33 138 69 248
489 4 2 0 1 206 89 154 123
490 4 2 0 1 251 139 142 49
491 4 2 0 1 142 251 249 53
492 4 2 0 1 266 88 249 49
493 4 2 0 1 41 216 114 180
494 4 2 0 1 229 101 1 173
495 4 2 0 1 48 139 251 49
496 4 2 0 1 48 136 251 139
497 4 2 0 1 294 3 14 274
498 4 2 0 1 168 16 1 130
499 4 2 0 1 229 16 1 168
500 4 2 0 1 120 149 105 32
501 4 2 0 1 120 105 186 32
502 4 2 0 1 253 200 293 197
503 4 2 0 1 167 67 254 270
504 4 2 0 1 50 167 254 218
505 4 2 0 1 254 50 42 189
506 4 2 0 1 58 182 267 43
507 4 2 0 1 174 58 267 43
508 4 2 0 1 98 167 57 171
509 4 2 0 1 54 264 84 216
510 4 2 0 1 84 54 129 264
511 4 2 0 1 181 171 223 71
512 4 2 0 1 46 41 256 105
513 4 2 0 1 256 180 41 46
514 4 2 0 1 88 258 49 288
515 4 2 0 1 266 88 49 288
516 4 2 0 1 288 258 49 145
517 4 2 0 1 244 92 76 150
518 4 2 0 1 132 257 164 160
519 4 2 0 1 138 52 279 257
520 4 2 0 1 138 132 160 257
521 4 2 0 1 236 151 66 126
522 4 2 0 1 207 258 190 213
523 4 2 0 1 140 232 203 111
524 4 2 0 1 259 153 45 38
525 4 2 0 1 259 45 164 38
526 4 2 0 1 259 45 124 164
527 4 2 0 1 152 89 123 260
528 4 2 0 1 123 89 199 260
529 4 2 0 1 247 152 123 260
530 4 2 0 1 65 33 261 276
531 4 2 0 1 201 65 261 32
532 4 2 0 1 33 210 261 276
533 4 2 0 1 250 266 31 113
534 4 2 0 1 156 222 30 109
535 4 2 0 1 29 100 67 230
536 4 2 0 1 29 67 167 230
537 4 2 0 1 230 100 143 166
538 4 2 0 1 138 160 79 52
539 4 2 0 1 223 94 262 71
540 4 2 0 1 90 71 223 262
541 4 2 0 1 147 90 101 262
542 4 2 0 1 26 11 252 9
543 4 2 0 1 118 195 188 122
544 4 2 0 1 263 20 15 5
545 4 2 0 1 136 20 263 5
546 4 2 0 1 136 20 139 263
547 4 2 0 1 125 142 249 53
548 4 2 0 1 216 54 264 180
549 4 2 0 1 84 264 286 216
550 4 2 0 1 286 84 129 264
551 4 2 0 1 113 88 251 249
552 4 2 0 1 135 31 39 265
553 4 2 0 1 265 31 39 61
554 4 2 0 1 31 265 184 61
555 4 2 0 1 233 137 271 40
556 4 2 0 1 233 271 141 40
557 4 2 0 1 196 43 174 226
558 4 2 0 1 154 104 58 108
559 4 2 0 1 58 43 196 280
560 4 2 0 1 104 43 58 280
561 4 2 0 1 153 38 214 206
562 4 2 0 1 247 63 92 124
563 4 2 0 1 236 187 139 126
564 4 2 0 1 198 15 4 5
565 4 2 0 1 242 131 64 75
566 4 2 0 1 155 273 64 51
567 4 2 0 1 273 131 64 242
568 4 2 0 1 150 8 268 23
569 4 2 0 1 45 38 152 164
570 4 2 0 1 149 201 148 261
571 4 2 0 1 39 94 223 171
572 4 2 0 1 94 224 71 171
573 4 2 0 1 148 47 78 289
574 4 2 0 1 148 47 289 201
575 4 2 0 1 55 110 255 134
576 4 2 0 1 84 269 218 106
577 4 2 0 1 270 269 218 230
578 4 2 0 1 99 27 272 111
579 4 2 0 1 27 140 12 272
580 4 2 0 1 27 140 272 111
581 4 2 0 1 272 159 27 99
582 4 2 0 1 159 27 12 272
583 4 2 0 1 255 231 227 166
584 4 2 0 1 218 270 254 42
585 4 2 0 1 218 270 42 269
586 4 2 0 1 84 269 116 129
587 4 2 0 1 213 225 204 17
588 4 2 0 1 225 70 204 17
589 4 2 0 1 273 130 44 155
590 4 2 0 1 206 89 104 154
591 4 2 0 1 254 167 270 218
592 4 2 0 1 167 230 270 218
593 4 2 0 1 274 294 3 147
594 4 2 0 1 115 285 159 25
595 4 2 0 1 244 285 159 115
596 4 2 0 1 238 96 168 228
597 4 2 0 1 287 99 112 279
598 4 2 0 1 99 111 112 279
599 4 2 0 1 173 294 101 147
600 4 2 0 1 242 75 64 275
601 4 2 0 1 2 213 18 296
602 4 2 0 1 296 190 2 213
603 4 2 0 1 242 51 44 277
604 4 2 0 1 275 51 70 243
605 4 2 0 1 275 51 242 70
606 4 2 0 1 158 280 104 108
607 4 2 0 1 158 104 154 108
608 4 2 0 1 21 194 6 211
609 4 2 0 1 294 274 6 194
610 4 2 0 1 117 231 55 110
611 4 2 0 1 55 231 255 110
612 4 2 0 1 287 279 112 138
613 4 2 0 1 259 237 38 164
614 4 2 0 1 153 237 38 259
615 4 2 0 1 137 232 233 245
616 4 2 0 1 135 94 262 223
617 4 2 0 1 149 128 201 172
618 4 2 0 1 190 258 204 213
619 4 2 0 1 145 48 49 281
620 4 2 0 1 48 139 49 281
621 4 2 0 1 33 144 210 276
622 4 2 0 1 144 239 282 32
623 4 2 0 1 225 258 145 213
624 4 2 0 1 204 213 258 225
625 4 2 0 1 85 235 28 202
626 4 2 0 1 138 69 112 163
627 4 2 0 1 29 30 193 100
628 4 2 0 1 230 100 283 54
629 4 2 0 1 242 273 44 51
630 4 2 0 1 273 242 64 51
631 4 2 0 1 51 242 64 275
632 4 2 0 1 148 289 78 235
633 4 2 0 1 254 50 189 224
634 4 2 0 1 247 260 123 177
635 4 2 0 1 123 260 199 177
636 4 2 0 1 198 5 263 15
637 4 2 0 1 136 263 198 5
638 4 2 0 1 153 214 237 134
639 4 2 0 1 21 107 194 219
640 4 2 0 1 21 194 211 219
641 4 2 0 1 287 79 99 52
642 4 2 0 1 138 79 287 52
643 4 2 0 1 52 99 287 279
644 4 2 0 1 52 279 287 138
645 4 2 0 1 287 79 159 99
646 4 2 0 1 87 206 214 182
647 4 2 0 1 87 214 267 182
648 4 2 0 1 229 1 101 168
649 4 2 0 1 16 168 229 238
650 4 2 0 1 16 130 238 155
651 4 2 0 1 168 16 130 238
652 4 2 0 1 118 234 215 191
653 4 2 0 1 240 234 118 191
654 4 2 0 1 61 184 266 288
655 4 2 0 1 179 98 31 94
656 4 2 0 1 98 119 31 57
657 4 2 0 1 204 70 170 17
658 4 2 0 1 171 167 224 50
659 4 2 0 1 167 254 224 50
660 4 2 0 1 180 216 143 256
661 4 2 0 1 46 256 186 105
662 4 2 0 1 96 131 135 64
663 4 2 0 1 135 262 96 165
664 4 2 0 1 223 262 135 165
665 4 2 0 1 149 208 128 172
666 4 2 0 1 195 208 128 149
667 4 2 0 1 74 271 85 235
668 4 2 0 1 141 235 85 271
669 4 2 0 1 233 235 141 271
670 4 2 0 1 158 176 108 295
671 4 2 0 1 212 72 295 290
672 4 2 0 1 169 158 108 290
673 4 2 0 1 169 72 212 290
674 4 2 0 1 194 294 274 147
675 4 2 0 1 115 8 268 150
676 4 2 0 1 108 280 58 196
677 4 2 0 1 104 280 58 108
678 4 2 0 1 202 289 235 78
679 4 2 0 1 93 54 143 180
680 4 2 0 1 100 93 54 143
681 4 2 0 1 33 210 245 261
682 4 2 0 1 92 293 76 253
683 4 2 0 1 150 92 76 253
684 4 2 0 1 155 238 64 273
685 4 2 0 1 238 130 273 155
686 4 2 0 1 96 168 130 238
687 4 2 0 1 227 103 231 255
688 4 2 0 1 26 11 28 252
689 4 2 0 1 2 17 291 213
690 4 2 0 1 156 227 100 166
691 4 2 0 1 255 227 156 166
692 4 2 0 1 222 102 30 109
693 4 2 0 1 33 278 248 210
694 4 2 0 1 33 144 278 210
695 4 2 0 1 144 133 210 282
696 4 2 0 1 33 138 248 278
697 4 2 0 1 290 66 295 151
698 4 2 0 1 295 236 151 66
699 4 2 0 1 13 157 22 7
700 4 2 0 1 157 178 13 22
701 4 2 0 1 132 257 237 164
702 4 2 0 1 150 76 292 23
703 4 2 0 1 244 76 292 150
704 4 2 0 1 258 288 184 75
705 4 2 0 1 239 186 110 282
706 4 2 0 1 78 59 178 47
707 4 2 0 1 59 47 78 148
708 4 2 0 1 138 279 248 257
709 4 2 0 1 90 262 223 228
710 4 2 0 1 90 229 101 228
711 4 2 0 1 262 90 101 228
712 4 2 0 1 252 178 205 157
713 4 2 0 1 19 3 14 294
714 4 2 0 1 174 226 109 102
715 4 2 0 1 117 186 110 239
716 4 2 0 1 117 77 110 186
717 4 2 0 1 158 295 108 290
718 4 2 0 1 290 295 108 151
719 4 2 0 1 62 236 151 295
720 4 2 0 1 193 222 98 119
721 4 2 0 1 46 256 117 186
722 4 2 0 1 46 284 117 256
723 4 2 0 1 284 180 256 46
724 4 2 0 1 103 134 60 87
725 4 2 0 1 87 60 214 134
726 4 2 0 1 55 255 103 134
727 4 2 0 1 103 55 231 255
728 4 2 0 1 103 60 134 255
729 4 2 0 1 85 202 28 297
730 4 2 0 1 12 272 140 86
731 4 2 0 1 117 239 120 186
732 4 2 0 1 190 121 296 220
733 4 2 0 1 65 276 261 32
734 4 2 0 1 276 210 261 32
735 4 2 0 1 210 144 282 32
736 4 2 0 1 276 144 210 32
737 4 2 0 1 60 156 30 109
738 4 2 0 1 30 103 156 60
739 4 2 0 1 30 103 227 156
740 4 2 0 1 174 60 30 109
741 4 2 0 1 193 119 98 57
742 4 2 0 1 225 275 70 243
743 4 2 0 1 225 243 70 17
744 4 2 0 1 267 109 174 226
745 4 2 0 1 113 249 250 266
746 4 2 0 1 266 61 250 31
747 4 2 0 1 88 266 184 288
748 4 2 0 1 258 88 184 288
749 4 2 0 1 88 48 49 258
750 4 2 0 1 88 48 251 49
751 4 2 0 1 270 283 269 230
752 4 2 0 1 230 54 269 84
753 4 2 0 1 98 119 250 31
754 4 2 0 1 222 119 250 98
755 4 2 0 1 137 271 65 95
756 4 2 0 1 280 125 226 196
757 4 2 0 1 159 285 10 25
758 4 2 0 1 158 212 295 290
759 4 2 0 1 169 212 158 290
760 4 2 0 1 45 38 89 152
761 4 2 0 1 206 38 89 45
762 4 2 0 1 206 38 182 89
763 4 2 0 1 106 269 42 116
764 4 2 0 1 218 269 42 106
$EndElements
