$MeshFormat
2.2 0 8
$EndMeshFormat
$Nodes
542
1 0.001766443252563477 0.06738745421171188 0.001600154908373952
2 0.002013460267335176 0.06713137030601501 0.007646151352673769
3 0.001835520728491247 0.06452398002147675 0.009698301553726196
4 0.001783924526534975 0.06507700681686401 -0.009351587854325771
5 0.001789116067811847 0.06143149361014366 -0.01069982536137104
6 0.00189305015373975 0.06039920076727867 0.01046735420823097
7 0.001956868916749954 0.06703078001737595 -0.005280212499201298
8 0.001994882244616747 0.03918549045920372 0.0102362185716629
9 0.001877260161563754 0.03825774416327477 -0.01016070693731308
10 0.001885713776573539 0.03606428578495979 0.00863191019743681
11 0.001887318561784923 0.03550855442881584 -0.00792328268289566
12 0.001891139079816639 0.03459040075540543 -0.005271280184388161
13 0.001891253865323961 0.03461657837033272 0.005568811669945717
14 0.002859106287360191 0.06938759237527847 -0.005149614531546831
15 0.002846688497811556 0.0685291588306427 0.008186367340385914
16 0.00270319078117609 0.06812111288309097 -0.008476627059280872
17 0.002637303899973631 0.06690666079521179 0.009895725175738335
18 0.002863232512027025 0.0693909078836441 0.005060648545622826
19 0.002831367077305913 0.06668058782815933 -0.01057823654264212
20 0.002693513873964548 0.06571874022483826 -0.0006179070333018899
21 0.002877134829759598 0.06460998207330704 0.01194848585873842
22 0.002733520697802305 0.06495001912117004 -0.006881888024508953
23 0.002723649377003312 0.06514637172222137 0.00672423979267478
24 0.002676429925486445 0.06364951282739639 -0.01200250908732414
25 0.002883196109905839 0.06222141534090042 0.008573639206588268
26 0.002818991197273135 0.06304794549942017 -0.008427352644503117
27 0.00282865553162992 0.05944853276014328 -0.01257480960339308
28 0.00272288965061307 0.06067837402224541 -0.008990339934825897
29 0.002835181308910251 0.06112947687506676 0.01258811168372631
30 0.002902326406911016 0.05793232843279839 0.008699403144419193
31 0.002698716940358281 0.04899419844150543 -0.01226796396076679
32 0.002948403358459473 0.04581365361809731 0.008699152618646622
33 0.00267014792189002 0.04697258025407791 0.01219004951417446
34 0.002920435275882483 0.04098939523100853 -0.01261493191123009
35 0.002801598981022835 0.03962956368923187 -0.00887702964246273
36 0.002796731423586607 0.03943253681063652 0.0122485002502799
37 0.002773253712803125 0.03775182738900185 -0.01178369671106339
38 0.002966585103422403 0.03893496841192245 0.008396003395318985
39 0.002981081604957581 0.03724810853600502 0.006953178904950619
40 0.002981875091791153 0.03718426451086998 -0.006841114256531
41 0.002805347554385662 0.03623105585575104 0.004621942993253469
42 0.002982382895424962 0.03654175996780396 -0.004153682384639978
43 0.002933456329628825 0.03601536154747009 0.01118303649127483
44 0.002886401955038309 0.03481497243046761 -0.009982508607208729
45 0.002991914749145508 0.03284820914268494 0.006916315760463476
46 0.002914841286838055 0.03282817080616951 -0.006045905873179436
47 0.002630338538438082 0.03323353081941605 0.003137220395728946
48 0.004327178001403809 0.06803330779075623 0.009530259296298027
49 0.004349112510681152 0.06803199648857117 -0.009547023102641106
50 0.004358768463134766 0.06940087676048279 -0.00252473121508956
51 0.004660001024603844 0.0691777765750885 0.002658591605722904
52 0.004290658980607986 0.0694006085395813 -0.0002945720043499023
53 0.004361391067504883 0.06876453757286072 -0.008180886507034302
54 0.004368185997009277 0.06703087687492371 -0.01074446551501751
55 0.004374027252197266 0.06540092825889587 -0.002512211445719004
56 0.004374053794890642 0.06539630889892578 0.00286957947537303
57 0.004374265670776367 0.0653584897518158 0.005716062616556883
58 0.004374387674033642 0.0653061717748642 -0.006231656298041344
59 0.004375584423542023 0.06499806791543961 -0.01215745508670807
60 0.004376411437988281 0.06540080904960632 -8.470378816127777e-07
61 0.004376695025712252 0.06470635533332825 0.01231870893388987
62 0.004379350692033768 0.06420343369245529 -0.007982918061316013
63 0.004037036560475826 0.06414249539375305 0.007846364751458168
64 0.00438367947936058 0.0629117488861084 -0.01288351789116859
65 0.004385507665574551 0.06256435811519623 0.01261159777641296
66 0.004387140274047852 0.06201395764946938 0.009004419669508934
67 0.004387259483337402 0.06201479211449623 -0.009000804275274277
68 0.004387855529785156 0.06081828847527504 0.01304334029555321
69 0.004396915435791016 0.06081316247582436 -0.01304798573255539
70 0.004783014301210642 0.05807550624012947 -0.009133525192737579
71 0.004400968551635742 0.0582941509783268 0.009044155478477478
72 0.004400968551635742 0.0582941509783268 0.01304415240883827
73 0.004409074783325195 0.06080612912774086 0.009048232808709145
74 0.0044097900390625 0.06080589070916176 -0.009050237014889717
75 0.004431724548339844 0.05021128430962563 -0.01304584741592407
76 0.004431724548339844 0.05021128430962563 -0.00904584676027298
77 0.004431724548339844 0.05021128430962563 0.009044155478477478
78 0.004431724548339844 0.05021128430962563 0.01304415240883827
79 0.004441261291503906 0.04768917337059975 -0.01304584741592407
80 0.004583128727972507 0.04777180030941963 -0.009078550152480602
81 0.004441261291503906 0.04768917337059975 0.009044155478477478
82 0.004441261291503906 0.04768917337059975 0.01304415240883827
83 0.00445091724395752 0.04516706243157387 -0.01304584927856922
84 0.004696486052125692 0.04502652585506439 -0.009291947819292545
85 0.00445091724395752 0.04516706243157387 0.009044155478477478
86 0.00445091724395752 0.04516706243157387 0.01304415427148342
87 0.004768488928675652 0.03694126009941101 0.01243756432086229
88 0.004473090171813965 0.03938731551170349 0.009028326719999313
89 0.004473447799682617 0.0393814742565155 -0.00903661921620369
90 0.004477620124816895 0.03836807608604431 0.01291707158088684
91 0.004477739334106445 0.03184947371482849 0.005926403682678938
92 0.004749990068376064 0.0373741053044796 0.008863462135195732
93 0.004280244000256062 0.0375879667699337 -0.008232545107603073
94 0.004484891891479492 0.03623566031455994 -0.006860731635242701
95 0.004485249519348145 0.0318513810634613 -0.005927309859544039
96 0.004485845565795898 0.03599926829338074 0.006248145829886198
97 0.004486441612243652 0.03581652045249939 -0.004040942061692476
98 0.004352184943854809 0.03588118776679039 0.004223208408802748
99 0.004486560821533203 0.03837701678276062 -0.01294524408876896
100 0.004489255137741566 0.03511811420321465 -0.01144635770469904
101 0.004911821335554123 0.03523744270205498 0.01158452220261097
102 0.004495013505220413 0.03356684371829033 0.009924942627549171
103 0.004500269889831543 0.032216876745224 0.007552062626928091
104 0.004500389099121094 0.03221210837364197 -0.007543887477368116
105 0.004501581192016602 0.03181657195091248 -0.004040942993015051
106 0.004501581192016602 0.03181657195091248 0.004039246123284101
107 0.004819218069314957 0.03841320425271988 0.008941106498241425
108 0.004684773273766041 0.03572344779968262 0.005296817515045404
109 0.004581395536661148 0.03846527263522148 -0.009057497605681419
110 0.005091249942779541 0.03573861718177795 -0.006484616082161665
111 0.006824315525591373 0.06530957669019699 0.006946314126253128
112 0.007992061786353588 0.06541056931018829 0.005875513888895512
113 0.00746794743463397 0.069190613925457 -0.003965659067034721
114 0.007890998385846615 0.03896557912230492 0.009835699573159218
115 0.008690790273249149 0.03005664423108101 -0.003965542186051607
116 0.007240902166813612 0.03876683115959167 -0.009966936893761158
117 0.006807471625506878 0.06718545407056808 0.006716576404869556
118 0.00637434609234333 0.06514109671115875 -0.006951079703867435
119 0.00773940421640873 0.06418430805206299 -0.008712177164852619
120 0.007636538241058588 0.03391440585255623 -0.004239053931087255
121 0.007431704085320234 0.06652245670557022 -0.01190647203475237
122 0.007694046944379807 0.06927386671304703 0.007119635120034218
123 0.008067785762250423 0.03065437637269497 -0.007710601668804884
124 0.008411961607635021 0.06304191797971725 -0.009624766185879707
125 0.008089406415820122 0.03409315273165703 0.00401697400957346
126 0.007878799922764301 0.06868657469749451 0.008478322997689247
127 0.006969204638153315 0.03416617214679718 -0.006298563908785582
128 0.007557542994618416 0.03457187116146088 0.007672083098441362
129 0.008360255509614944 0.06548217684030533 -0.005825792904943228
130 0.008473848924040794 0.02991663105785847 0.004093946889042854
131 0.007408803794533014 0.06427322328090668 0.008718542754650116
132 0.007723596412688494 0.06544874608516693 0.003832491813227534
133 0.008220449090003967 0.0345592312514782 -0.007899347692728043
134 0.008502173237502575 0.03275483474135399 0.0120864063501358
135 0.008216237649321556 0.03794753924012184 0.01357853133231401
136 0.007636994123458862 0.06174132600426674 0.009929237887263298
137 0.008439812809228897 0.06255685538053513 -0.01377664320170879
138 0.008227336220443249 0.03559454530477524 -0.009523339569568634
139 0.00801363680511713 0.06405229121446609 0.01309631485491991
140 0.008911802433431149 0.03513543307781219 0.009683351032435894
141 0.01133537292480469 0.0654275119304657 0.005251734983175993
142 0.0113372802734375 0.06542739272117615 -0.005250479560345411
143 0.01135754585266113 0.06941398978233337 -0.007447301875799894
144 0.01135802268981934 0.06940492987632751 0.007425857242196798
145 0.01135873794555664 0.06942746043205261 -0.004040941130369902
146 0.01136165205389261 0.06866461783647537 0.01005923841148615
147 0.01107986457645893 0.06711183488368988 -0.01217450294643641
148 0.01136696338653564 0.06708511710166931 0.01231096498668194
149 0.01137328147888184 0.0654275119304657 -0.006051178555935621
150 0.01137387752532959 0.06542858481407166 0.00604023365303874
151 0.01137399673461914 0.06542739272117615 -0.004040941130369902
152 0.01137399673461914 0.06542739272117615 0.004039246123284101
153 0.01137673854827881 0.06462809443473816 -0.009066600352525711
154 0.01137709617614746 0.06463894248008728 0.009059363976120949
155 0.01137828826904297 0.0639394223690033 -0.01426512934267521
156 0.01137912273406982 0.06393620371818542 0.01425276882946491
157 0.01091162115335464 0.06913422048091888 0.005576410330832005
158 0.01138222217559814 0.06293961405754089 0.01037291437387466
159 0.01138318050652742 0.06289848685264587 -0.01054122857749462
160 0.01089664455503225 0.06575311720371246 0.01326856575906277
161 0.01140677928924561 0.05680141225457191 -0.01465584896504879
162 0.01140677928924561 0.05680141225457191 -0.0106558483093977
163 0.01140677928924561 0.05680141225457191 0.0106541533023119
164 0.01140677928924561 0.05680141225457191 0.01465415768325329
165 0.0114142894744873 0.06564947962760925 -0.01346615701913834
166 0.01141631603240967 0.05427930131554604 -0.01465584896504879
167 0.01141631603240967 0.05427930131554604 -0.01065584644675255
168 0.01141631603240967 0.05427930131554604 0.0106541533023119
169 0.01141631603240967 0.05427930131554604 0.01465415395796299
170 0.01142585277557373 0.05175719037652016 -0.01465584896504879
171 0.01142585277557373 0.05175719037652016 -0.01065584644675255
172 0.01142585277557373 0.05175719037652016 0.0106541533023119
173 0.01142585277557373 0.05175719037652016 0.01465415395796299
174 0.01145660877227783 0.04367432370781898 -0.01465584896504879
175 0.01145660877227783 0.04367432370781898 -0.01065584644675255
176 0.01145660877227783 0.04367432370781898 0.0106541533023119
177 0.01130348443984985 0.0437619574368 0.01431275624781847
178 0.011466383934021 0.04115221276879311 -0.0106558408588171
179 0.01146876811981201 0.04115066304802895 0.01065472699701786
180 0.01147091388702393 0.03971526026725769 -0.01065566018223763
181 0.01147162914276123 0.03970798850059509 0.0106541346758604
182 0.01175685692578554 0.03877578303217888 -0.01471681986004114
183 0.01147506572306156 0.03879005834460258 0.01465043798089027
184 0.01147449016571045 0.03378424048423767 -0.009655913338065147
185 0.01112841907888651 0.04100962355732918 -0.01424712408334017
186 0.01170912478119135 0.03508377820253372 -0.01049436535686255
187 0.01148664951324463 0.04114053025841713 0.01465868204832077
188 0.01148831844329834 0.03519818186759949 0.01045144908130169
189 0.01148663368076086 0.03577014431357384 -0.01445482857525349
190 0.0113622797653079 0.03295787051320076 0.008460169658064842
191 0.0114929536357522 0.03408337756991386 0.01415011286735535
192 0.01125225238502026 0.03217165917158127 0.01072427537292242
193 0.01149594783782959 0.03284654021263123 -0.008366752415895462
194 0.011496901512146 0.03246328234672546 -8.461065590381622e-07
195 0.01149904727935791 0.03246232867240906 -0.002520405221730471
196 0.01149916648864746 0.03246220946311951 0.002517709042876959
197 0.01149954088032246 0.03241459280252457 0.005662552081048489
198 0.01093988679349422 0.0323648564517498 0.01324323751032352
199 0.01151108741760254 0.02921840734779835 -0.01005618087947369
200 0.01151132583618164 0.02922234125435352 0.01006717048585415
201 0.01151204109191895 0.0284633357077837 -8.470378816127777e-07
202 0.01151433028280735 0.02847279235720634 0.006270890589803457
203 0.01151442527770996 0.02846214361488819 -0.002529723104089499
204 0.01159614324569702 0.02842368371784687 0.002771916566416621
205 0.01151514053344727 0.03052851743996143 -0.01203839480876923
206 0.0115196704864502 0.03053292818367481 0.01203656569123268
207 0.01286048255860806 0.06897236406803131 -0.006760554388165474
208 0.01285895146429539 0.06937918066978455 -0.000124406855320558
209 0.01285902690142393 0.06935911625623703 0.007909021340310574
210 0.01286156475543976 0.06868136674165726 -0.01041286252439022
211 0.0128672057762742 0.06717734038829803 0.01256309635937214
212 0.01287231035530567 0.06586937606334686 -0.01362626161426306
213 0.01287246868014336 0.06580527871847153 0.006045522168278694
214 0.01287240814417601 0.06582139432430267 -0.005078291054815054
215 0.01287264749407768 0.06576528400182724 -0.008035195060074329
216 0.01287681609392166 0.06466463208198547 0.009307077154517174
217 0.01288071367889643 0.06365142017602921 -0.01057729870080948
218 0.01287829875946045 0.06428489089012146 0.01448005065321922
219 0.01288235187530518 0.06321713328361511 0.01058494485914707
220 0.01288821641355753 0.0616927295923233 -0.01498847175389528
221 0.01289146021008492 0.06080570444464684 -0.01136734522879124
222 0.01290855463594198 0.05632973089814186 0.01500044390559196
223 0.01291439775377512 0.05478862300515175 0.01144443545490503
224 0.01290956698358059 0.056046262383461 -0.01139908749610186
225 0.01294565107673407 0.04656457155942917 -0.01491771265864372
226 0.01296259462833405 0.04208505526185036 0.01499915309250355
227 0.01296377182006836 0.04180524125695229 -0.01100084744393826
228 0.01298550330102444 0.0332464873790741 0.01010897196829319
229 0.01298119686543941 0.03720605373382568 -0.01099834125488997
230 0.01298813801258802 0.03538169711828232 0.01098561938852072
231 0.01298811286687851 0.03537403792142868 0.01495665404945612
232 0.01298643928021193 0.03579727560281754 -0.01496657356619835
233 0.01299524214118719 0.03345958516001701 -0.0106344185769558
234 0.01300060749053955 0.03210374712944031 0.008720122277736664
235 0.0129992850124836 0.03230028226971626 -0.01420585438609123
236 0.01300191879272461 0.03174838423728943 0.003470814786851406
237 0.01300363335758448 0.03130169585347176 -0.0072376006282866
238 0.01300247572362423 0.03149249404668808 0.01380419172346592
239 0.01300966087728739 0.02972649224102497 -0.01209687441587448
240 0.01301297452300787 0.02886201813817024 0.01107346080243587
241 0.01301717758178711 0.02774569019675255 -0.00718165747821331
242 0.01301709190011024 0.0277512613683939 0.006269881967455149
243 0.01301717758178711 0.02774382568895817 0.0005353445303626359
244 0.006005098577588797 0.06539144366979599 -0.009620132856070995
245 0.009626339189708233 0.06705757975578308 0.007259278558194637
246 0.005453432910144329 0.06463982909917831 0.007639145944267511
247 0.001856180257163942 0.04377200081944466 0.01068937312811613
248 0.002963270526379347 0.0418851375579834 -0.008670630864799023
249 0.004494369029998779 0.03378269076347351 -0.00961954053491354
250 0.004718665033578873 0.03681603074073792 -0.01227508671581745
251 0.004342574626207352 0.06704821437597275 0.0107636759057641
252 0.01136867050081491 0.06680797040462494 0.008226770907640457
253 0.006214711349457502 0.06139226630330086 -0.01115715224295855
254 0.007184470072388649 0.03744311630725861 0.009531037881970406
255 0.01291879918426275 0.05363520234823227 -0.01454794406890869
256 0.009612083435058594 0.06609907746315002 0.009989988058805466
257 0.003509344765916467 0.03498508408665657 -0.008034992963075638
258 0.004488133359700441 0.03541840612888336 -0.008986370638012886
259 0.006388276349753141 0.06643310934305191 -0.009089131839573383
260 0.005932608153671026 0.05993430316448212 -0.01170133519917727
261 0.01138763036578894 0.06183300912380219 -0.01257291063666344
262 0.006090480834245682 0.05984388664364815 0.01163443084806204
263 0.006877317558974028 0.03557274863123894 0.01281918119639158
264 0.01294159051030874 0.04763023927807808 0.01110364869236946
265 0.006363455671817064 0.06146562844514847 0.0114735085517168
266 0.006804616190493107 0.03407823294401169 0.01180238276720047
267 0.007845617830753326 0.03592046350240707 0.01154568325728178
268 0.001868728781118989 0.0664348229765892 -0.007635942194610834
269 0.007927767001092434 0.03385167941451073 0.002056724624708295
270 0.002934787888079882 0.04939348250627518 -0.008698754012584686
271 0.006439908407628536 0.0394449271261692 -0.01155389565974474
272 0.001845056307502091 0.0467633344233036 -0.01069745421409607
273 0.01293807290494442 0.04855694621801376 -0.01112490054219961
274 0.001833639689721167 0.04970843344926834 0.01067334692925215
275 0.008199436590075493 0.03386945649981499 -0.001901533687487245
276 0.008222459815442562 0.03034808300435543 -0.001895937602967024
277 0.01079859863966703 0.06414844840764999 0.009976356290280819
278 0.008017431944608688 0.03037552535533905 0.002012552926316857
279 0.01285888720303774 0.06939605623483658 0.003531252732500434
280 0.007559806108474731 0.0652487576007843 0.00842977873980999
281 0.002922892570495605 0.05252322927117348 0.008699291385710239
282 0.006245046854019165 0.03414708375930786 -0.01178099308162928
283 0.006277316715568304 0.0379992313683033 0.01127174403518438
284 0.007994532585144043 0.03053590841591358 0.007996787317097187
285 0.01293198578059673 0.05015340447425842 0.01499988418072462
286 0.008001744747161865 0.03294089436531067 -0.01186679396778345
287 0.00800776481628418 0.03137031197547913 -0.009791141375899315
288 0.008009970188140869 0.03137490153312683 0.00979431439191103
289 0.002851563040167093 0.03285180404782295 -0.001742724562063813
290 0.002017427934333682 0.04163222387433052 0.01097490452229977
291 0.007724774535745382 0.04329347983002663 -0.009963680990040302
292 0.00289803883060813 0.05241077393293381 0.0126533405855298
293 0.005896218586713076 0.06539440900087357 0.009575466625392437
294 0.007779494393616915 0.04577871784567833 0.0118007892742753
295 0.007764013018459082 0.04962443560361862 0.01198216993361712
296 0.008159380406141281 0.05238237231969833 0.01181446108967066
297 0.01089497935026884 0.03387082740664482 0.009369343519210815
298 0.008732731454074383 0.06504141539335251 -0.01046764384955168
299 0.01290383748710155 0.05757862329483032 -0.01499205362051725
300 0.01137173175811768 0.0658593475818634 -0.01069253496825695
301 0.008680570870637894 0.03452326357364655 0.01294752396643162
302 0.008335850201547146 0.03473516553640366 -0.01300008501857519
303 0.007325803395360708 0.0672607347369194 -0.007924617268145084
304 0.007843449711799622 0.06941410899162292 0.002009675838053226
305 0.01295802276581526 0.04330489039421082 0.01142546162009239
306 0.009797194972634315 0.06599240750074387 -0.009930399246513844
307 0.007936992682516575 0.04317199066281319 0.01384412311017513
308 0.004488325677812099 0.03531878069043159 0.0002776123874355108
309 0.007818332873284817 0.04323989525437355 -0.01381865236908197
310 0.00641149515286088 0.066604845225811 0.009275610558688641
311 0.007852952927350998 0.0588352382183075 0.01351328659802675
312 0.007893981412053108 0.04319655895233154 0.009969824925065041
313 0.007706393022090197 0.04582055285573006 -0.01363800652325153
314 0.007264722604304552 0.04607332125306129 0.01369212847203016
315 0.008275684900581837 0.05607666820287704 0.01393338851630688
316 0.008021455258131027 0.05622216314077377 -0.0098767364397645
317 0.007907625287771225 0.04570538923144341 0.009839673526585102
318 0.008067336864769459 0.05619590729475021 0.009885573759675026
319 0.007938866503536701 0.04972627386450768 -0.01385207194834948
320 0.007624141871929169 0.04954297095537186 0.01377783063799143
321 0.007834251038730145 0.05219300836324692 -0.01383015606552362
322 0.002760509261861444 0.06921045482158661 0.0001014483787002973
323 0.007924020290374756 0.05224529281258583 0.01384915318340063
324 0.007814814336597919 0.05218168720602989 -0.01016582734882832
325 0.007933557033538818 0.04972318187355995 0.009849154390394688
326 0.008050159551203251 0.0523187592625618 0.009878230281174183
327 0.008073633536696434 0.05870897322893143 -0.01360885892063379
328 0.009724978357553482 0.04214870929718018 0.01244695112109184
329 0.00779310567304492 0.05886948481202126 0.01022552140057087
330 0.007547896821051836 0.05900990590453148 -0.009853113442659378
331 0.008419197052717209 0.05599453672766685 -0.01381869148463011
332 0.00446458300575614 0.05430110916495323 -0.01305700372904539
333 0.008019869215786457 0.04572306200861931 -0.009867197833955288
334 0.006353312637656927 0.03667470440268517 -0.0089982058852911
335 0.004416346549987793 0.05425271764397621 -0.00904584676027298
336 0.004416346549987793 0.05425271764397621 0.009044155478477478
337 0.0044161775149405 0.05429717153310776 0.01291886530816555
338 0.01144079025834799 0.04783154651522636 -0.0142741035670042
339 0.01144123077392578 0.04771575704216957 -0.01065584644675255
340 0.01144151668995619 0.04764058440923691 0.0106541533023119
341 0.001891185063868761 0.0346008874475956 -0.0009289112640544772
342 0.01144113298505545 0.04774152860045433 0.01426979433745146
343 0.01300191879272461 0.03175041079521179 -0.00210518972016871
344 0.007809036411345005 0.06493152678012848 -0.008188533596694469
345 0.004501581192016602 0.03181657195091248 -0.0003180947969667614
346 0.01137399673461914 0.06542739272117615 -8.475050208289758e-07
347 0.007557203061878681 0.06541289389133453 -0.00183729431591928
348 0.008134735748171806 0.06555737555027008 0.002169354818761349
349 0.004469594918191433 0.04027732461690903 -0.01177358068525791
350 0.008122911676764488 0.04983346536755562 -0.01019865926355124
351 0.01135873794555664 0.06942746043205261 -0.000513566134031862
352 0.004487091675400734 0.03565417975187302 0.009209896437823772
353 0.004377424716949463 0.06465089321136475 -0.009978753514587879
354 0.00640473235398531 0.03576458618044853 -0.01274169236421585
355 0.005124842282384634 0.06518926471471786 0.006471632048487663
356 0.01296981424093246 0.0401858277618885 -0.01499250065535307
357 0.01287314761430025 0.06562743335962296 0.00149245688226074
358 0.007822985760867596 0.06908848881721497 -0.001998838502913713
359 0.006357906851917505 0.0368274487555027 -0.01106428634375334
360 0.002874493366107345 0.06539178639650345 0.002871010918170214
361 0.002907165791839361 0.05667763575911522 -0.008700847625732422
362 0.008434626273810863 0.06321915239095688 0.01006321329623461
363 0.01297615095973015 0.03852104395627975 0.01487566251307726
364 0.008286187425255775 0.03787896782159805 -0.01391094364225864
365 0.01289745792746544 0.05925088003277779 0.01140467263758183
366 0.002853081794455647 0.04484924301505089 -0.008756589144468307
367 0.006358605809509754 0.05133355408906937 -0.01169029530137777
368 0.006366646848618984 0.0354137122631073 -0.01054426655173302
369 0.001888800878077745 0.04322385042905807 -0.01075196545571089
370 0.005886428989470005 0.03787896782159805 -0.01125360000878572
371 0.00803265068680048 0.06184889376163483 -0.009842604398727417
372 0.006068657618016005 0.0372343547642231 -0.0130290724337101
373 0.007411458063870668 0.06209302693605423 0.01363602373749018
374 0.009715171530842781 0.05076084285974503 -0.01226152386516333
375 0.007982134819030762 0.03975430503487587 0.01378787681460381
376 0.001814051764085889 0.05486720055341721 0.01065941993147135
377 0.01139450073242188 0.05987051501870155 0.01051353383809328
378 0.007934196852147579 0.03964570909738541 -0.01384388376027346
379 0.01287484355270863 0.06515447050333023 0.01132443733513355
380 0.009268569760024548 0.06527327001094818 0.01095765642821789
381 0.005492748692631721 0.03814979642629623 -0.008904400281608105
382 0.002923779655247927 0.05217138677835464 -0.01269934233278036
383 0.003118722466751933 0.06296730041503906 0.01052049268037081
384 0.007400497794151306 0.06648222357034683 0.01183789689093828
385 0.008107171393930912 0.03683792054653168 -0.01005731150507927
386 0.007899582386016846 0.06412979960441589 -0.01321425102651119
387 0.01294665597379208 0.04628641530871391 0.01499953400343657
388 0.002981608966365457 0.03654378280043602 0.0003277422219980508
389 0.004381853621453047 0.06337694078683853 0.01064215041697025
390 0.01147198304533958 0.03233010321855545 -0.01354201789945364
391 0.00777578167617321 0.0674295574426651 0.01067835465073586
392 0.004609186667948961 0.06663887947797775 0.007873892784118652
393 0.01292408257722855 0.05223260074853897 -0.01100084744393826
394 0.008217650465667248 0.06735672056674957 -0.01079419814050198
395 0.009261586703360081 0.0648362934589386 0.008537926711142063
396 0.003258111886680126 0.03983132913708687 -0.01062967907637358
397 0.01148766186088324 0.03545259311795235 0.0125901848077774
398 0.01151275634765625 0.02884027548134327 -0.006292952224612236
399 0.005928437691181898 0.06703092902898788 0.008269846439361572
400 0.01299580000340939 0.03334929421544075 0.01252703089267015
401 0.002808231394737959 0.04485316202044487 -0.01243800856173038
402 0.01035246346145868 0.06396467238664627 -0.009508256800472736
403 0.004423820413649082 0.05228859186172485 -0.01086126267910004
404 0.006179801188409328 0.06734172999858856 -0.001046303426846862
405 0.005899675656110048 0.03719720616936684 0.01067473366856575
406 0.007856220006942749 0.06930822879076004 -0.007081156596541405
407 0.009402347728610039 0.04233343526721001 -0.01195847522467375
408 0.001870887936092913 0.05493491515517235 -0.01059527415782213
409 0.01143354177474976 0.04973647370934486 -0.01265584770590067
410 0.007855653762817383 0.06541416049003601 -0.003881345503032207
411 0.0114485202357173 0.04580013826489449 -0.01290502119809389
412 0.002830920973792672 0.04301179572939873 0.01246540527790785
413 0.01149392127990723 0.03377512097358704 0.01198507938534021
414 0.007762132678180933 0.06890439242124557 -0.008638723753392696
415 0.009406117722392082 0.06410036981105804 0.01153633557260036
416 0.004408750217407942 0.05624909698963165 -0.01077060680836439
417 0.001891177496872842 0.03461879119277 0.002743873046711087
418 0.008282741531729698 0.04028197005391121 0.009922593832015991
419 0.008143001236021519 0.04019422084093094 -0.0100669227540493
420 0.002717126859351993 0.05513456091284752 -0.01234367862343788
421 0.001989567652344704 0.06697895377874374 0.004671063274145126
422 0.005609381012618542 0.06256042420864105 0.01124990917742252
423 0.007623802870512009 0.03820896148681641 -0.01199975330382586
424 0.007528298068791628 0.06926688551902771 0.004141611512750387
425 0.004375186283141375 0.06530763208866119 0.008861732669174671
426 0.0129825146868825 0.03686023131012917 0.01284965686500072
427 0.006385743618011475 0.06695856899023056 -0.006750144530087709
428 0.002917764242738485 0.0498465895652771 0.01267160195857286
429 0.009614859707653522 0.04046935215592384 0.01222571264952421
430 0.008988035842776299 0.04024376347661018 -0.01220933813601732
431 0.0114489272236824 0.04569308832287788 0.01256201881915331
432 0.01150572579354048 0.0307265892624855 -0.005338189657777548
433 0.01301717758178711 0.02774479426443577 -0.003473602700978518
434 0.001843815785832703 0.04702837020158768 0.01068058237433434
435 0.01297260913997889 0.03947271034121513 0.01115515641868114
436 0.01289119385182858 0.0609055757522583 0.01474242471158504
437 0.003663906129077077 0.03859725221991539 0.00964772142469883
438 0.006430186331272125 0.06257034838199615 -0.009607518091797829
439 0.01137171313166618 0.06598509103059769 0.0103246197104454
440 0.007463853806257248 0.0653005987405777 0.01024881284683943
441 0.006525945384055376 0.06139140948653221 -0.009540649130940437
442 0.007158054504543543 0.06310205161571503 0.01097281463444233
443 0.004985811188817024 0.06666222959756851 0.008746140636503696
444 0.009177174419164658 0.06760135293006897 -0.006167448125779629
445 0.01139253377914429 0.06037041917443275 -0.014460489153862
446 0.01139314472675323 0.06036886945366859 0.01433069631457329
447 0.006162375211715698 0.04869159683585167 -0.01126555912196636
448 0.004776233341544867 0.03905130550265312 -0.01069758273661137
449 0.01100169215351343 0.06327072530984879 -0.01219518855214119
450 0.009596732445061207 0.04473872110247612 -0.01194882113486528
451 0.009774874895811081 0.05332328006625175 -0.01229313854128122
452 0.0044739437289536 0.03916910663247108 0.01102694496512413
453 0.004386323504149914 0.0622892864048481 0.01080886274576187
454 0.004484171513468027 0.03645937517285347 -0.01008033473044634
455 0.006468270439654589 0.03982666879892349 0.00950048491358757
456 0.004373729228973389 0.06566628813743591 -0.009272760711610317
457 0.004418086260557175 0.06645572930574417 -0.00840460043400526
458 0.004499757196754217 0.03766389191150665 -0.01067820377647877
459 0.004368185997009277 0.06695380806922913 -0.007329424377530813
460 0.004460696130990982 0.04259760305285454 -0.01119047030806541
461 0.004463050980120897 0.04198161512613297 0.01112052425742149
462 0.01293338462710381 0.04979430511593819 -0.01481961365789175
463 0.004444697871804237 0.06078575178980827 0.01106082461774349
464 0.01147997379302979 0.03745308518409729 0.01055279187858105
465 0.004624714143574238 0.03555767610669136 -0.005350554827600718
466 0.006229963153600693 0.03940470144152641 0.01128665171563625
467 0.004379130434244871 0.06240879371762276 -0.01095531787723303
468 0.01287057809531689 0.06632745265960693 -0.01054353266954422
469 0.004633736331015825 0.03635638952255249 0.01028029900044203
470 0.003390120575204492 0.06153521314263344 0.01049975119531155
471 0.01297498680651188 0.03883142396807671 -0.01298484764993191
472 0.002791255712509155 0.0418967567384243 0.009011932648718357
473 0.01288284827023745 0.06307639926671982 -0.01279572490602732
474 0.008037387393414974 0.0661008358001709 0.0094306580722332
475 0.007830879651010036 0.06201322004199028 0.0116259315982461
476 0.004497440997511148 0.05839093402028084 -0.01306816097348928
477 0.01088337693363428 0.06480707973241806 -0.01148720737546682
478 0.004498550668358803 0.03772078454494476 0.01058947667479515
479 0.009045657701790333 0.06579308211803436 -0.006695413962006569
480 0.009114905260503292 0.06426933407783508 0.009402754716575146
481 0.01287579722702503 0.06494497507810593 -0.01182429399341345
482 0.006275057792663574 0.0652778148651123 -0.006158784031867981
483 0.003325272351503372 0.0402303971350193 0.01020479202270508
484 0.004465077072381973 0.04144656658172607 -0.01303454488515854
485 0.009727033786475658 0.06238514557480812 0.01015456113964319
486 0.005936799105256796 0.06604280322790146 -0.00764129776507616
487 0.002842332003638148 0.04873446375131607 0.00887187197804451
488 0.001940523274242878 0.05797078087925911 -0.01044828630983829
489 0.009173741564154625 0.0365004874765873 0.009978653863072395
490 0.009280139580368996 0.06508558988571167 -0.0088182482868433
491 0.01295116450637579 0.04511755704879761 -0.01100084744393826
492 0.009138998575508595 0.06376864016056061 -0.01110719051212072
493 0.006181555334478617 0.03974918276071548 -0.009562172926962376
494 0.00611213268712163 0.06129254400730133 0.009431231766939163
495 0.003345663659274578 0.0437309592962265 0.0106354346498847
496 0.003321192460134625 0.03688402846455574 0.009247218258678913
497 0.00271043973043561 0.05684257671236992 0.01233385130763054
498 0.004466888960450888 0.04102418571710587 -0.01025463826954365
499 0.008013343438506126 0.06614412367343903 -0.009491365402936935
500 0.003520664526149631 0.03870328515768051 -0.01002747286111116
501 0.01300875097513199 0.02995466999709606 -0.004590601194649935
502 0.003229065099731088 0.03657052293419838 -0.009000832214951515
503 0.008322685956954956 0.06474562734365463 0.009768798016011715
504 0.009644459933042526 0.06242221221327782 -0.01050474401563406
505 0.001827481668442488 0.05137160047888756 -0.01069819927215576
506 0.005613101646304131 0.06417280435562134 0.008202516473829746
507 0.009491724893450737 0.06266872584819794 0.01202548015862703
508 0.006814818829298019 0.0375400073826313 -0.009650230407714844
509 0.01139510609209538 0.05986849218606949 -0.0106410626322031
510 0.01295795384794474 0.04331692308187485 -0.01491337083280087
511 0.01143985614180565 0.06947018951177597 -0.005808435380458832
512 0.002859138185158372 0.06939490139484406 -0.002133213682100177
513 0.01299501117318869 0.03356466069817543 0.01466477569192648
514 0.005905076861381531 0.03756547346711159 -0.01006271131336689
515 0.005576211493462324 0.03838981315493584 -0.009778049774467945
516 0.005733276251703501 0.06513427942991257 -0.007769505959004164
517 0.002787168836221099 0.06520092487335205 -0.003981426823884249
518 0.01173841953277588 0.0323619656264782 -0.005721181631088257
519 0.004461390431970358 0.04247772321105003 -0.009041559882462025
520 0.004366878420114517 0.06729190051555634 -0.004599785897880793
521 0.004461777396500111 0.04233622178435326 0.009036403149366379
522 0.001996528822928667 0.06781120598316193 -0.002385674742981791
523 0.009057252667844296 0.06740698963403702 0.006153726484626532
524 0.004360079765319824 0.06908270716667175 -0.005352809093892574
525 0.01300191879272461 0.03175142407417297 -0.00489319209009409
526 0.01285894028842449 0.06938124448060989 -0.004059567116200924
527 0.01136213541030884 0.06825229525566101 -0.009882885962724686
528 0.004378229845315218 0.06430903077125549 0.009825840592384338
529 0.002989149885252118 0.03439657390117645 0.00908213946968317
530 0.006695486139506102 0.0364384725689888 0.009089100174605846
531 0.01287388801574707 0.06543273478746414 -0.001478838152252138
532 0.008203937672078609 0.03364675119519234 0.006809838581830263
533 0.006336302496492863 0.06280816346406937 -0.01128854602575302
534 0.00888415053486824 0.0338209830224514 -0.007000243291258812
535 0.01158599741756916 0.03653313219547272 0.01448139082640409
536 0.00659744581207633 0.06266162544488907 0.009875657968223095
537 0.002920857165008783 0.05306699872016907 -0.008700847625732422
538 0.004429960623383522 0.06874562799930573 0.00818232074379921
539 0.0113663524389267 0.06743138283491135 0.001880989875644445
540 0.004465279635041952 0.04139500111341476 0.01303990464657545
541 0.01140847429633141 0.06947425752878189 0.004032058175653219
542 0.008759177289903164 0.06561779975891113 0.006688019726425409
$EndNodes
$Elements
1226
1 4 2 0 1 443 48 392 17
2 4 2 0 1 135 114 418 181
3 4 2 0 1 279 152 213 541
4 4 2 0 1 511 207 214 149
5 4 2 0 1 3 528 383 25
6 4 2 0 1 460 369 84 401
7 4 2 0 1 408 420 335 403
8 4 2 0 1 293 246 310 280
9 4 2 0 1 51 18 1 421
10 4 2 0 1 147 306 394 477
11 4 2 0 1 291 84 333 83
12 4 2 0 1 78 274 281 77
13 4 2 0 1 164 223 365 222
14 4 2 0 1 478 36 43 87
15 4 2 0 1 95 104 46 110
16 4 2 0 1 23 421 56 360
17 4 2 0 1 203 115 201 195
18 4 2 0 1 236 243 242 204
19 4 2 0 1 201 130 204 196
20 4 2 0 1 141 152 132 157
21 4 2 0 1 163 365 164 223
22 4 2 0 1 10 39 38 496
23 4 2 0 1 523 150 245 542
24 4 2 0 1 154 150 252 213
25 4 2 0 1 467 27 64 69
26 4 2 0 1 194 115 275 195
27 4 2 0 1 169 173 168 223
28 4 2 0 1 219 218 379 156
29 4 2 0 1 164 163 223 168
30 4 2 0 1 168 173 172 223
31 4 2 0 1 223 164 169 222
32 4 2 0 1 169 164 223 168
33 4 2 0 1 156 379 219 158
34 4 2 0 1 150 523 141 542
35 4 2 0 1 278 130 201 196
36 4 2 0 1 154 158 219 379
37 4 2 0 1 542 523 117 126
38 4 2 0 1 216 213 154 252
39 4 2 0 1 213 141 150 157
40 4 2 0 1 252 209 216 213
41 4 2 0 1 62 456 457 244
42 4 2 0 1 516 259 344 244
43 4 2 0 1 344 516 244 119
44 4 2 0 1 322 1 20 51
45 4 2 0 1 150 144 252 213
46 4 2 0 1 214 142 145 511
47 4 2 0 1 144 209 213 157
48 4 2 0 1 214 145 151 531
49 4 2 0 1 213 141 157 152
50 4 2 0 1 541 157 424 132
51 4 2 0 1 214 149 142 511
52 4 2 0 1 151 145 214 142
53 4 2 0 1 235 205 239 233
54 4 2 0 1 509 161 299 224
55 4 2 0 1 451 321 374 324
56 4 2 0 1 210 215 207 143
57 4 2 0 1 165 481 449 155
58 4 2 0 1 207 215 214 149
59 4 2 0 1 175 227 178 185
60 4 2 0 1 214 145 531 526
61 4 2 0 1 195 343 201 203
62 4 2 0 1 191 535 231 397
63 4 2 0 1 175 185 178 407
64 4 2 0 1 227 185 180 178
65 4 2 0 1 356 182 232 471
66 4 2 0 1 180 185 227 471
67 4 2 0 1 97 308 341 289
68 4 2 0 1 534 123 133 193
69 4 2 0 1 523 245 126 542
70 4 2 0 1 343 203 433 243
71 4 2 0 1 196 236 201 194
72 4 2 0 1 196 236 204 201
73 4 2 0 1 38 92 496 39
74 4 2 0 1 126 144 245 523
75 4 2 0 1 202 234 200 242
76 4 2 0 1 200 234 240 242
77 4 2 0 1 234 202 197 236
78 4 2 0 1 240 192 234 200
79 4 2 0 1 200 190 234 202
80 4 2 0 1 176 312 179 328
81 4 2 0 1 223 173 222 169
82 4 2 0 1 168 296 173 169
83 4 2 0 1 317 312 176 294
84 4 2 0 1 496 529 43 10
85 4 2 0 1 130 106 91 125
86 4 2 0 1 43 101 102 352
87 4 2 0 1 147 477 394 121
88 4 2 0 1 113 55 347 404
89 4 2 0 1 81 33 85 82
90 4 2 0 1 44 258 249 100
91 4 2 0 1 404 50 113 55
92 4 2 0 1 495 412 33 247
93 4 2 0 1 134 140 266 267
94 4 2 0 1 6 463 30 73
95 4 2 0 1 216 252 154 439
96 4 2 0 1 439 209 216 252
97 4 2 0 1 125 108 106 91
98 4 2 0 1 9 35 396 369
99 4 2 0 1 93 502 9 458
100 4 2 0 1 9 396 34 369
101 4 2 0 1 252 144 146 209
102 4 2 0 1 32 33 85 81
103 4 2 0 1 86 33 82 85
104 4 2 0 1 137 69 253 64
105 4 2 0 1 20 56 51 1
106 4 2 0 1 69 74 253 467
107 4 2 0 1 467 69 64 253
108 4 2 0 1 401 83 84 460
109 4 2 0 1 395 503 280 131
110 4 2 0 1 175 407 291 450
111 4 2 0 1 256 277 154 439
112 4 2 0 1 256 277 395 154
113 4 2 0 1 156 158 219 446
114 4 2 0 1 219 365 446 158
115 4 2 0 1 219 365 436 446
116 4 2 0 1 94 11 257 46
117 4 2 0 1 257 11 44 46
118 4 2 0 1 2 18 15 538
119 4 2 0 1 313 291 450 333
120 4 2 0 1 104 257 44 46
121 4 2 0 1 93 35 500 9
122 4 2 0 1 34 498 396 349
123 4 2 0 1 35 500 9 396
124 4 2 0 1 53 14 16 459
125 4 2 0 1 272 270 366 80
126 4 2 0 1 448 500 109 89
127 4 2 0 1 3 63 25 23
128 4 2 0 1 250 99 37 458
129 4 2 0 1 458 99 37 448
130 4 2 0 1 223 264 285 172
131 4 2 0 1 143 444 479 149
132 4 2 0 1 13 96 39 10
133 4 2 0 1 496 96 529 10
134 4 2 0 1 467 24 5 4
135 4 2 0 1 151 410 347 113
136 4 2 0 1 16 459 457 53
137 4 2 0 1 530 254 405 267
138 4 2 0 1 30 463 71 73
139 4 2 0 1 62 457 516 244
140 4 2 0 1 73 6 25 30
141 4 2 0 1 244 49 259 121
142 4 2 0 1 1 51 322 18
143 4 2 0 1 168 296 326 172
144 4 2 0 1 52 322 20 51
145 4 2 0 1 260 476 69 327
146 4 2 0 1 260 476 70 27
147 4 2 0 1 260 70 74 27
148 4 2 0 1 261 159 221 217
149 4 2 0 1 509 159 221 261
150 4 2 0 1 140 254 530 267
151 4 2 0 1 172 296 173 168
152 4 2 0 1 425 23 3 2
153 4 2 0 1 23 63 425 3
154 4 2 0 1 72 262 68 311
155 4 2 0 1 71 262 73 463
156 4 2 0 1 72 262 71 463
157 4 2 0 1 57 23 421 56
158 4 2 0 1 240 228 234 192
159 4 2 0 1 263 101 87 267
160 4 2 0 1 21 17 528 3
161 4 2 0 1 400 192 228 240
162 4 2 0 1 453 383 389 66
163 4 2 0 1 383 470 66 453
164 4 2 0 1 78 337 336 292
165 4 2 0 1 168 315 164 163
166 4 2 0 1 163 315 318 168
167 4 2 0 1 168 315 169 164
168 4 2 0 1 61 251 528 21
169 4 2 0 1 373 68 65 422
170 4 2 0 1 65 422 68 463
171 4 2 0 1 104 287 133 123
172 4 2 0 1 15 17 2 48
173 4 2 0 1 17 251 21 528
174 4 2 0 1 266 263 301 267
175 4 2 0 1 260 476 27 69
176 4 2 0 1 104 133 110 127
177 4 2 0 1 260 27 74 69
178 4 2 0 1 187 177 305 328
179 4 2 0 1 123 133 104 127
180 4 2 0 1 27 467 74 69
181 4 2 0 1 45 96 529 102
182 4 2 0 1 529 96 352 102
183 4 2 0 1 88 452 437 107
184 4 2 0 1 212 473 155 220
185 4 2 0 1 299 255 224 166
186 4 2 0 1 91 108 103 532
187 4 2 0 1 192 228 234 190
188 4 2 0 1 181 183 464 435
189 4 2 0 1 464 183 535 426
190 4 2 0 1 464 183 426 435
191 4 2 0 1 146 209 439 252
192 4 2 0 1 146 209 211 439
193 4 2 0 1 431 387 264 342
194 4 2 0 1 264 431 342 340
195 4 2 0 1 192 190 234 200
196 4 2 0 1 208 351 346 539
197 4 2 0 1 208 351 539 541
198 4 2 0 1 72 262 463 68
199 4 2 0 1 463 68 29 72
200 4 2 0 1 354 368 282 302
201 4 2 0 1 377 158 446 365
202 4 2 0 1 149 207 143 511
203 4 2 0 1 207 215 149 143
204 4 2 0 1 228 190 192 297
205 4 2 0 1 511 444 143 149
206 4 2 0 1 532 297 128 288
207 4 2 0 1 525 343 195 501
208 4 2 0 1 137 449 492 504
209 4 2 0 1 137 449 477 492
210 4 2 0 1 8 36 43 478
211 4 2 0 1 452 36 8 478
212 4 2 0 1 285 342 173 172
213 4 2 0 1 134 188 413 192
214 4 2 0 1 107 466 88 452
215 4 2 0 1 87 283 90 135
216 4 2 0 1 452 283 107 466
217 4 2 0 1 301 188 413 134
218 4 2 0 1 134 267 301 188
219 4 2 0 1 134 140 267 188
220 4 2 0 1 358 52 113 404
221 4 2 0 1 228 188 297 192
222 4 2 0 1 373 265 68 422
223 4 2 0 1 373 422 65 139
224 4 2 0 1 13 45 96 10
225 4 2 0 1 100 368 282 354
226 4 2 0 1 391 380 256 148
227 4 2 0 1 391 380 474 256
228 4 2 0 1 104 94 257 46
229 4 2 0 1 104 94 258 257
230 4 2 0 1 46 110 104 94
231 4 2 0 1 300 481 147 468
232 4 2 0 1 46 465 110 94
233 4 2 0 1 477 300 481 147
234 4 2 0 1 477 147 306 300
235 4 2 0 1 175 407 450 174
236 4 2 0 1 300 468 147 527
237 4 2 0 1 12 94 40 42
238 4 2 0 1 71 329 73 262
239 4 2 0 1 117 355 112 111
240 4 2 0 1 383 3 25 6
241 4 2 0 1 105 275 120 97
242 4 2 0 1 115 275 276 194
243 4 2 0 1 506 246 293 131
244 4 2 0 1 293 384 440 391
245 4 2 0 1 194 196 269 278
246 4 2 0 1 49 457 53 16
247 4 2 0 1 316 476 70 330
248 4 2 0 1 131 246 293 280
249 4 2 0 1 26 467 5 4
250 4 2 0 1 19 49 16 457
251 4 2 0 1 4 467 353 26
252 4 2 0 1 115 276 201 194
253 4 2 0 1 130 269 125 196
254 4 2 0 1 72 329 262 311
255 4 2 0 1 329 72 71 318
256 4 2 0 1 367 350 324 76
257 4 2 0 1 461 412 36 540
258 4 2 0 1 86 495 85 461
259 4 2 0 1 24 5 27 467
260 4 2 0 1 20 522 55 7
261 4 2 0 1 58 520 7 55
262 4 2 0 1 58 7 517 55
263 4 2 0 1 522 520 55 7
264 4 2 0 1 517 7 20 55
265 4 2 0 1 374 319 321 170
266 4 2 0 1 79 83 333 80
267 4 2 0 1 371 504 492 124
268 4 2 0 1 96 103 102 45
269 4 2 0 1 151 142 113 145
270 4 2 0 1 477 306 402 153
271 4 2 0 1 499 490 119 298
272 4 2 0 1 302 186 286 390
273 4 2 0 1 186 184 138 286
274 4 2 0 1 137 253 371 533
275 4 2 0 1 123 287 193 199
276 4 2 0 1 251 443 48 310
277 4 2 0 1 251 310 48 391
278 4 2 0 1 190 288 200 192
279 4 2 0 1 289 46 97 105
280 4 2 0 1 46 289 97 12
281 4 2 0 1 251 443 310 293
282 4 2 0 1 251 293 310 391
283 4 2 0 1 277 160 379 439
284 4 2 0 1 532 108 103 128
285 4 2 0 1 439 379 277 154
286 4 2 0 1 154 379 216 439
287 4 2 0 1 128 108 103 96
288 4 2 0 1 72 329 71 262
289 4 2 0 1 45 47 108 91
290 4 2 0 1 106 47 91 108
291 4 2 0 1 106 108 98 47
292 4 2 0 1 41 47 108 13
293 4 2 0 1 13 47 108 45
294 4 2 0 1 108 41 98 47
295 4 2 0 1 328 294 307 177
296 4 2 0 1 6 470 463 73
297 4 2 0 1 497 29 463 6
298 4 2 0 1 79 83 313 333
299 4 2 0 1 81 85 294 82
300 4 2 0 1 177 307 314 294
301 4 2 0 1 294 86 82 85
302 4 2 0 1 497 72 463 29
303 4 2 0 1 82 77 78 295
304 4 2 0 1 173 323 295 320
305 4 2 0 1 295 77 81 82
306 4 2 0 1 296 323 173 169
307 4 2 0 1 296 295 325 172
308 4 2 0 1 172 295 173 296
309 4 2 0 1 116 271 515 493
310 4 2 0 1 250 370 99 458
311 4 2 0 1 109 500 35 89
312 4 2 0 1 89 500 35 396
313 4 2 0 1 523 112 141 542
314 4 2 0 1 126 523 117 122
315 4 2 0 1 167 331 316 162
316 4 2 0 1 166 331 162 161
317 4 2 0 1 240 238 400 206
318 4 2 0 1 371 124 533 438
319 4 2 0 1 67 353 467 26
320 4 2 0 1 281 336 292 78
321 4 2 0 1 439 209 379 216
322 4 2 0 1 77 336 281 78
323 4 2 0 1 536 422 136 442
324 4 2 0 1 37 250 454 100
325 4 2 0 1 454 37 100 44
326 4 2 0 1 266 101 263 267
327 4 2 0 1 337 72 71 497
328 4 2 0 1 454 381 93 334
329 4 2 0 1 477 386 165 137
330 4 2 0 1 44 454 258 100
331 4 2 0 1 137 449 165 477
332 4 2 0 1 349 448 37 99
333 4 2 0 1 484 349 34 99
334 4 2 0 1 201 243 343 236
335 4 2 0 1 194 236 201 343
336 4 2 0 1 403 76 335 537
337 4 2 0 1 55 60 347 404
338 4 2 0 1 345 289 97 105
339 4 2 0 1 97 308 289 345
340 4 2 0 1 43 101 352 469
341 4 2 0 1 223 285 173 172
342 4 2 0 1 106 108 125 98
343 4 2 0 1 19 24 353 4
344 4 2 0 1 19 59 54 353
345 4 2 0 1 188 140 297 134
346 4 2 0 1 192 188 297 134
347 4 2 0 1 51 18 57 538
348 4 2 0 1 388 308 341 97
349 4 2 0 1 409 273 171 339
350 4 2 0 1 409 393 462 170
351 4 2 0 1 411 273 339 175
352 4 2 0 1 67 467 74 28
353 4 2 0 1 27 28 74 467
354 4 2 0 1 250 354 359 100
355 4 2 0 1 336 337 71 497
356 4 2 0 1 244 54 49 121
357 4 2 0 1 458 454 514 381
358 4 2 0 1 439 209 211 379
359 4 2 0 1 335 361 70 416
360 4 2 0 1 113 347 151 358
361 4 2 0 1 113 358 151 145
362 4 2 0 1 211 160 148 439
363 4 2 0 1 314 86 82 294
364 4 2 0 1 41 47 13 417
365 4 2 0 1 316 331 327 162
366 4 2 0 1 47 98 106 308
367 4 2 0 1 81 85 317 294
368 4 2 0 1 292 274 281 78
369 4 2 0 1 376 274 281 292
370 4 2 0 1 163 315 311 318
371 4 2 0 1 47 308 106 345
372 4 2 0 1 60 51 304 52
373 4 2 0 1 350 367 319 447
374 4 2 0 1 132 60 304 348
375 4 2 0 1 320 78 295 82
376 4 2 0 1 132 60 56 304
377 4 2 0 1 132 304 541 348
378 4 2 0 1 52 20 60 51
379 4 2 0 1 60 56 51 20
380 4 2 0 1 132 348 541 152
381 4 2 0 1 325 77 81 295
382 4 2 0 1 326 296 325 172
383 4 2 0 1 477 306 394 298
384 4 2 0 1 477 298 394 121
385 4 2 0 1 244 259 344 499
386 4 2 0 1 64 59 24 353
387 4 2 0 1 410 55 347 113
388 4 2 0 1 113 142 151 410
389 4 2 0 1 88 461 483 452
390 4 2 0 1 151 346 531 145
391 4 2 0 1 208 539 279 541
392 4 2 0 1 454 381 334 514
393 4 2 0 1 486 118 303 427
394 4 2 0 1 370 116 271 515
395 4 2 0 1 370 271 448 515
396 4 2 0 1 274 33 78 428
397 4 2 0 1 507 415 139 156
398 4 2 0 1 415 160 139 156
399 4 2 0 1 140 530 266 267
400 4 2 0 1 236 196 204 197
401 4 2 0 1 372 99 250 370
402 4 2 0 1 333 84 80 83
403 4 2 0 1 305 387 264 431
404 4 2 0 1 266 530 101 267
405 4 2 0 1 94 11 502 257
406 4 2 0 1 12 11 40 94
407 4 2 0 1 124 533 492 371
408 4 2 0 1 56 60 51 304
409 4 2 0 1 452 478 437 107
410 4 2 0 1 56 304 51 424
411 4 2 0 1 107 283 452 478
412 4 2 0 1 87 283 452 90
413 4 2 0 1 283 466 452 90
414 4 2 0 1 452 36 478 87
415 4 2 0 1 495 247 33 32
416 4 2 0 1 461 290 412 495
417 4 2 0 1 461 412 290 36
418 4 2 0 1 452 36 87 90
419 4 2 0 1 275 115 105 120
420 4 2 0 1 264 176 431 340
421 4 2 0 1 115 105 276 275
422 4 2 0 1 62 457 58 516
423 4 2 0 1 125 130 106 269
424 4 2 0 1 278 269 106 130
425 4 2 0 1 519 248 366 369
426 4 2 0 1 147 468 212 210
427 4 2 0 1 40 502 9 93
428 4 2 0 1 379 218 211 160
429 4 2 0 1 93 9 40 35
430 4 2 0 1 40 11 9 502
431 4 2 0 1 317 85 312 294
432 4 2 0 1 85 86 312 294
433 4 2 0 1 286 186 205 390
434 4 2 0 1 330 476 260 327
435 4 2 0 1 330 476 70 260
436 4 2 0 1 225 273 462 338
437 4 2 0 1 31 75 382 403
438 4 2 0 1 264 340 342 172
439 4 2 0 1 382 403 505 31
440 4 2 0 1 403 75 76 31
441 4 2 0 1 31 505 270 76
442 4 2 0 1 403 505 31 76
443 4 2 0 1 302 186 385 138
444 4 2 0 1 264 285 172 342
445 4 2 0 1 302 138 385 368
446 4 2 0 1 354 302 385 368
447 4 2 0 1 411 273 175 491
448 4 2 0 1 174 411 175 491
449 4 2 0 1 522 322 20 52
450 4 2 0 1 380 277 256 439
451 4 2 0 1 380 277 480 256
452 4 2 0 1 434 247 32 33
453 4 2 0 1 281 274 487 77
454 4 2 0 1 380 160 277 439
455 4 2 0 1 113 404 347 358
456 4 2 0 1 129 118 482 427
457 4 2 0 1 29 21 65 383
458 4 2 0 1 175 178 291 407
459 4 2 0 1 61 21 389 65
460 4 2 0 1 247 290 495 412
461 4 2 0 1 495 33 85 32
462 4 2 0 1 86 33 85 495
463 4 2 0 1 199 239 237 241
464 4 2 0 1 495 33 412 86
465 4 2 0 1 205 239 193 199
466 4 2 0 1 61 528 389 21
467 4 2 0 1 39 96 496 10
468 4 2 0 1 355 23 246 425
469 4 2 0 1 425 355 2 392
470 4 2 0 1 355 425 2 23
471 4 2 0 1 94 46 12 11
472 4 2 0 1 42 341 97 388
473 4 2 0 1 4 24 353 467
474 4 2 0 1 382 75 332 403
475 4 2 0 1 21 383 389 65
476 4 2 0 1 21 528 389 383
477 4 2 0 1 161 509 162 224
478 4 2 0 1 305 431 264 176
479 4 2 0 1 299 509 221 445
480 4 2 0 1 305 177 431 176
481 4 2 0 1 284 190 288 200
482 4 2 0 1 299 509 224 221
483 4 2 0 1 388 98 47 308
484 4 2 0 1 133 287 193 123
485 4 2 0 1 116 271 419 430
486 4 2 0 1 116 271 493 419
487 4 2 0 1 48 392 2 538
488 4 2 0 1 48 399 392 538
489 4 2 0 1 111 117 392 399
490 4 2 0 1 246 392 399 111
491 4 2 0 1 70 28 74 27
492 4 2 0 1 425 443 17 251
493 4 2 0 1 17 443 48 251
494 4 2 0 1 425 392 2 17
495 4 2 0 1 392 48 2 17
496 4 2 0 1 246 443 392 425
497 4 2 0 1 460 498 34 349
498 4 2 0 1 97 341 12 289
499 4 2 0 1 142 129 444 149
500 4 2 0 1 463 68 65 29
501 4 2 0 1 396 37 9 34
502 4 2 0 1 349 37 34 99
503 4 2 0 1 488 28 70 27
504 4 2 0 1 37 349 34 396
505 4 2 0 1 447 75 319 79
506 4 2 0 1 360 1 56 20
507 4 2 0 1 79 75 31 447
508 4 2 0 1 134 266 301 267
509 4 2 0 1 230 464 188 397
510 4 2 0 1 359 354 368 100
511 4 2 0 1 514 334 508 381
512 4 2 0 1 256 277 480 395
513 4 2 0 1 16 7 268 459
514 4 2 0 1 268 16 457 4
515 4 2 0 1 16 268 457 459
516 4 2 0 1 42 12 97 341
517 4 2 0 1 146 211 148 439
518 4 2 0 1 129 444 479 427
519 4 2 0 1 450 291 175 333
520 4 2 0 1 450 291 309 407
521 4 2 0 1 450 309 174 407
522 4 2 0 1 167 451 171 324
523 4 2 0 1 167 451 166 393
524 4 2 0 1 519 366 84 369
525 4 2 0 1 399 117 392 538
526 4 2 0 1 246 392 443 399
527 4 2 0 1 420 416 476 27
528 4 2 0 1 399 117 538 126
529 4 2 0 1 408 537 505 403
530 4 2 0 1 435 187 226 305
531 4 2 0 1 226 183 187 435
532 4 2 0 1 435 183 363 226
533 4 2 0 1 359 354 385 368
534 4 2 0 1 467 74 253 67
535 4 2 0 1 67 467 533 253
536 4 2 0 1 494 73 463 66
537 4 2 0 1 138 186 286 302
538 4 2 0 1 187 181 429 179
539 4 2 0 1 429 181 418 179
540 4 2 0 1 436 365 222 446
541 4 2 0 1 66 463 453 470
542 4 2 0 1 463 73 470 66
543 4 2 0 1 178 430 185 180
544 4 2 0 1 178 419 430 180
545 4 2 0 1 190 297 532 288
546 4 2 0 1 288 284 532 190
547 4 2 0 1 41 47 417 388
548 4 2 0 1 149 215 527 143
549 4 2 0 1 378 364 182 430
550 4 2 0 1 101 405 87 267
551 4 2 0 1 426 535 231 363
552 4 2 0 1 283 114 107 466
553 4 2 0 1 107 114 455 466
554 4 2 0 1 405 92 478 107
555 4 2 0 1 87 469 405 101
556 4 2 0 1 179 187 305 328
557 4 2 0 1 445 261 221 220
558 4 2 0 1 220 155 445 261
559 4 2 0 1 509 261 221 445
560 4 2 0 1 56 51 421 57
561 4 2 0 1 18 421 51 57
562 4 2 0 1 408 488 361 416
563 4 2 0 1 156 218 379 160
564 4 2 0 1 487 33 77 274
565 4 2 0 1 82 77 33 78
566 4 2 0 1 33 77 81 32
567 4 2 0 1 82 77 81 33
568 4 2 0 1 274 33 77 78
569 4 2 0 1 277 160 156 379
570 4 2 0 1 235 186 205 233
571 4 2 0 1 232 186 189 235
572 4 2 0 1 135 418 466 375
573 4 2 0 1 235 186 390 205
574 4 2 0 1 420 408 416 488
575 4 2 0 1 189 186 390 235
576 4 2 0 1 233 235 186 232
577 4 2 0 1 449 217 473 481
578 4 2 0 1 261 159 217 449
579 4 2 0 1 254 92 530 405
580 4 2 0 1 373 265 422 475
581 4 2 0 1 147 527 468 210
582 4 2 0 1 527 215 468 210
583 4 2 0 1 422 136 265 494
584 4 2 0 1 164 365 446 222
585 4 2 0 1 163 446 164 365
586 4 2 0 1 254 92 405 107
587 4 2 0 1 416 70 476 27
588 4 2 0 1 488 416 27 70
589 4 2 0 1 212 481 147 165
590 4 2 0 1 165 477 481 147
591 4 2 0 1 147 481 212 468
592 4 2 0 1 247 290 472 495
593 4 2 0 1 471 182 232 189
594 4 2 0 1 462 273 393 409
595 4 2 0 1 227 180 471 229
596 4 2 0 1 426 464 397 535
597 4 2 0 1 384 160 380 148
598 4 2 0 1 272 366 369 84
599 4 2 0 1 413 188 230 228
600 4 2 0 1 362 507 415 139
601 4 2 0 1 261 217 221 473
602 4 2 0 1 507 362 475 139
603 4 2 0 1 507 277 156 158
604 4 2 0 1 176 294 328 177
605 4 2 0 1 261 217 473 449
606 4 2 0 1 294 328 312 176
607 4 2 0 1 370 99 448 271
608 4 2 0 1 242 202 234 236
609 4 2 0 1 328 177 305 176
610 4 2 0 1 180 185 471 182
611 4 2 0 1 180 182 471 189
612 4 2 0 1 179 328 305 176
613 4 2 0 1 292 376 497 336
614 4 2 0 1 153 217 300 468
615 4 2 0 1 477 153 217 300
616 4 2 0 1 175 227 185 174
617 4 2 0 1 175 185 407 174
618 4 2 0 1 185 471 356 227
619 4 2 0 1 162 161 224 166
620 4 2 0 1 356 510 185 227
621 4 2 0 1 162 166 224 167
622 4 2 0 1 66 453 463 422
623 4 2 0 1 277 156 158 379
624 4 2 0 1 301 413 198 134
625 4 2 0 1 423 271 370 116
626 4 2 0 1 22 4 62 26
627 4 2 0 1 457 4 62 22
628 4 2 0 1 4 353 456 62
629 4 2 0 1 430 271 423 116
630 4 2 0 1 180 430 423 116
631 4 2 0 1 425 355 392 246
632 4 2 0 1 4 353 62 26
633 4 2 0 1 4 457 62 456
634 4 2 0 1 293 391 440 474
635 4 2 0 1 293 131 280 440
636 4 2 0 1 316 327 330 162
637 4 2 0 1 503 440 280 131
638 4 2 0 1 237 199 241 398
639 4 2 0 1 391 380 440 474
640 4 2 0 1 459 14 16 7
641 4 2 0 1 199 193 398 237
642 4 2 0 1 182 378 430 185
643 4 2 0 1 316 327 476 330
644 4 2 0 1 299 161 166 224
645 4 2 0 1 58 7 520 459
646 4 2 0 1 459 457 58 22
647 4 2 0 1 7 459 58 22
648 4 2 0 1 459 14 7 520
649 4 2 0 1 39 96 92 496
650 4 2 0 1 420 408 505 403
651 4 2 0 1 335 420 416 332
652 4 2 0 1 300 217 481 468
653 4 2 0 1 313 83 291 333
654 4 2 0 1 400 413 228 192
655 4 2 0 1 153 215 217 468
656 4 2 0 1 63 246 425 293
657 4 2 0 1 425 528 3 63
658 4 2 0 1 294 307 312 328
659 4 2 0 1 88 38 483 472
660 4 2 0 1 187 135 429 181
661 4 2 0 1 429 135 418 181
662 4 2 0 1 330 70 74 260
663 4 2 0 1 159 217 449 477
664 4 2 0 1 458 381 93 454
665 4 2 0 1 381 109 458 93
666 4 2 0 1 38 8 483 472
667 4 2 0 1 292 337 336 497
668 4 2 0 1 296 78 77 295
669 4 2 0 1 295 323 173 296
670 4 2 0 1 409 393 170 171
671 4 2 0 1 409 273 393 171
672 4 2 0 1 451 170 393 171
673 4 2 0 1 283 114 466 135
674 4 2 0 1 49 259 121 394
675 4 2 0 1 88 437 38 107
676 4 2 0 1 88 483 38 437
677 4 2 0 1 419 116 430 180
678 4 2 0 1 457 54 49 244
679 4 2 0 1 336 376 281 292
680 4 2 0 1 38 483 8 437
681 4 2 0 1 430 364 182 180
682 4 2 0 1 182 430 180 185
683 4 2 0 1 457 49 259 244
684 4 2 0 1 19 49 457 54
685 4 2 0 1 367 75 319 447
686 4 2 0 1 367 75 321 319
687 4 2 0 1 447 75 31 76
688 4 2 0 1 447 75 76 367
689 4 2 0 1 303 406 444 143
690 4 2 0 1 414 406 303 143
691 4 2 0 1 303 444 479 143
692 4 2 0 1 403 420 335 332
693 4 2 0 1 420 382 332 403
694 4 2 0 1 198 400 191 513
695 4 2 0 1 530 405 101 267
696 4 2 0 1 401 369 84 272
697 4 2 0 1 80 83 84 401
698 4 2 0 1 312 86 307 294
699 4 2 0 1 405 469 530 101
700 4 2 0 1 451 374 171 324
701 4 2 0 1 374 350 171 324
702 4 2 0 1 3 528 21 383
703 4 2 0 1 451 170 166 393
704 4 2 0 1 374 170 451 171
705 4 2 0 1 21 3 383 29
706 4 2 0 1 8 437 496 38
707 4 2 0 1 282 368 286 302
708 4 2 0 1 38 437 496 92
709 4 2 0 1 38 92 107 437
710 4 2 0 1 457 16 19 4
711 4 2 0 1 261 473 221 220
712 4 2 0 1 41 98 47 388
713 4 2 0 1 166 255 393 170
714 4 2 0 1 209 541 279 213
715 4 2 0 1 443 246 310 293
716 4 2 0 1 13 41 39 96
717 4 2 0 1 425 246 443 293
718 4 2 0 1 461 495 412 86
719 4 2 0 1 425 443 251 293
720 4 2 0 1 251 384 293 391
721 4 2 0 1 303 118 479 427
722 4 2 0 1 58 427 457 459
723 4 2 0 1 427 479 129 118
724 4 2 0 1 17 425 3 2
725 4 2 0 1 87 478 405 469
726 4 2 0 1 469 478 43 87
727 4 2 0 1 490 402 119 298
728 4 2 0 1 44 104 258 257
729 4 2 0 1 67 26 467 28
730 4 2 0 1 467 26 5 28
731 4 2 0 1 22 457 58 62
732 4 2 0 1 467 5 27 28
733 4 2 0 1 374 367 321 319
734 4 2 0 1 321 374 324 367
735 4 2 0 1 423 364 378 430
736 4 2 0 1 423 364 430 180
737 4 2 0 1 250 100 359 454
738 4 2 0 1 359 100 368 454
739 4 2 0 1 103 284 91 532
740 4 2 0 1 461 290 483 36
741 4 2 0 1 461 483 290 472
742 4 2 0 1 361 28 70 488
743 4 2 0 1 181 187 435 179
744 4 2 0 1 268 4 457 22
745 4 2 0 1 22 268 459 457
746 4 2 0 1 185 182 356 471
747 4 2 0 1 204 243 201 236
748 4 2 0 1 56 51 1 421
749 4 2 0 1 293 440 280 474
750 4 2 0 1 440 503 280 474
751 4 2 0 1 237 193 239 199
752 4 2 0 1 384 380 440 391
753 4 2 0 1 253 74 441 67
754 4 2 0 1 64 353 24 467
755 4 2 0 1 499 298 119 121
756 4 2 0 1 289 308 341 47
757 4 2 0 1 394 298 499 121
758 4 2 0 1 388 308 47 341
759 4 2 0 1 244 259 499 121
760 4 2 0 1 345 308 289 47
761 4 2 0 1 259 499 121 394
762 4 2 0 1 499 244 121 119
763 4 2 0 1 451 393 167 171
764 4 2 0 1 442 422 475 139
765 4 2 0 1 140 489 267 188
766 4 2 0 1 442 475 362 139
767 4 2 0 1 230 188 413 397
768 4 2 0 1 7 268 459 22
769 4 2 0 1 443 17 392 425
770 4 2 0 1 443 392 48 399
771 4 2 0 1 372 99 370 271
772 4 2 0 1 378 99 372 271
773 4 2 0 1 66 422 494 536
774 4 2 0 1 311 315 72 318
775 4 2 0 1 318 329 72 311
776 4 2 0 1 307 86 314 294
777 4 2 0 1 52 50 113 404
778 4 2 0 1 50 20 60 52
779 4 2 0 1 404 50 60 52
780 4 2 0 1 20 50 522 52
781 4 2 0 1 313 83 309 291
782 4 2 0 1 435 464 230 426
783 4 2 0 1 500 448 396 89
784 4 2 0 1 435 183 426 363
785 4 2 0 1 37 250 458 454
786 4 2 0 1 452 540 36 90
787 4 2 0 1 350 367 374 319
788 4 2 0 1 323 78 295 320
789 4 2 0 1 473 155 261 449
790 4 2 0 1 198 400 513 238
791 4 2 0 1 206 238 400 198
792 4 2 0 1 295 78 323 296
793 4 2 0 1 449 217 481 477
794 4 2 0 1 156 219 436 446
795 4 2 0 1 156 219 218 436
796 4 2 0 1 165 147 121 477
797 4 2 0 1 296 295 77 325
798 4 2 0 1 326 296 77 325
799 4 2 0 1 67 62 353 26
800 4 2 0 1 421 1 56 360
801 4 2 0 1 357 539 208 346
802 4 2 0 1 279 539 208 357
803 4 2 0 1 368 138 286 302
804 4 2 0 1 357 346 208 531
805 4 2 0 1 32 33 77 487
806 4 2 0 1 487 434 32 33
807 4 2 0 1 237 432 525 518
808 4 2 0 1 398 193 432 237
809 4 2 0 1 343 203 501 433
810 4 2 0 1 488 361 416 70
811 4 2 0 1 29 383 65 470
812 4 2 0 1 247 472 32 495
813 4 2 0 1 383 470 453 65
814 4 2 0 1 65 422 463 453
815 4 2 0 1 68 265 463 422
816 4 2 0 1 470 463 65 29
817 4 2 0 1 521 472 495 32
818 4 2 0 1 521 495 85 32
819 4 2 0 1 93 458 454 502
820 4 2 0 1 502 93 258 454
821 4 2 0 1 456 54 457 244
822 4 2 0 1 19 353 54 456
823 4 2 0 1 19 457 456 54
824 4 2 0 1 19 353 456 4
825 4 2 0 1 19 457 4 456
826 4 2 0 1 458 448 500 109
827 4 2 0 1 458 515 448 109
828 4 2 0 1 232 233 229 186
829 4 2 0 1 477 300 306 153
830 4 2 0 1 477 300 217 481
831 4 2 0 1 34 498 460 369
832 4 2 0 1 129 444 149 479
833 4 2 0 1 459 427 457 53
834 4 2 0 1 435 187 305 179
835 4 2 0 1 442 422 136 475
836 4 2 0 1 442 136 362 475
837 4 2 0 1 283 466 90 135
838 4 2 0 1 466 375 90 135
839 4 2 0 1 496 469 352 92
840 4 2 0 1 478 92 405 469
841 4 2 0 1 405 92 530 469
842 4 2 0 1 469 92 496 478
843 4 2 0 1 65 383 389 453
844 4 2 0 1 426 183 535 363
845 4 2 0 1 470 6 29 383
846 4 2 0 1 470 463 453 65
847 4 2 0 1 373 475 422 139
848 4 2 0 1 467 24 64 27
849 4 2 0 1 409 338 170 462
850 4 2 0 1 250 454 359 458
851 4 2 0 1 338 273 409 339
852 4 2 0 1 220 155 261 473
853 4 2 0 1 528 66 25 63
854 4 2 0 1 253 441 533 67
855 4 2 0 1 67 441 533 438
856 4 2 0 1 251 528 17 425
857 4 2 0 1 15 538 48 2
858 4 2 0 1 399 538 48 126
859 4 2 0 1 293 280 310 474
860 4 2 0 1 475 265 422 136
861 4 2 0 1 449 481 473 155
862 4 2 0 1 212 481 155 473
863 4 2 0 1 449 481 165 477
864 4 2 0 1 478 283 452 87
865 4 2 0 1 479 303 427 444
866 4 2 0 1 503 480 131 395
867 4 2 0 1 223 285 222 173
868 4 2 0 1 396 89 498 35
869 4 2 0 1 396 35 498 369
870 4 2 0 1 498 519 369 248
871 4 2 0 1 482 118 58 427
872 4 2 0 1 484 460 34 349
873 4 2 0 1 88 483 437 452
874 4 2 0 1 483 290 8 36
875 4 2 0 1 198 400 413 191
876 4 2 0 1 384 380 391 148
877 4 2 0 1 362 136 485 475
878 4 2 0 1 380 439 256 148
879 4 2 0 1 368 138 385 334
880 4 2 0 1 492 533 386 137
881 4 2 0 1 288 103 128 532
882 4 2 0 1 103 284 532 288
883 4 2 0 1 423 271 430 378
884 4 2 0 1 502 11 44 257
885 4 2 0 1 249 258 44 104
886 4 2 0 1 408 361 537 335
887 4 2 0 1 457 427 58 486
888 4 2 0 1 58 118 486 427
889 4 2 0 1 452 461 483 36
890 4 2 0 1 452 483 8 36
891 4 2 0 1 220 445 299 221
892 4 2 0 1 206 198 192 134
893 4 2 0 1 6 29 463 470
894 4 2 0 1 3 425 17 528
895 4 2 0 1 246 425 23 63
896 4 2 0 1 149 215 153 527
897 4 2 0 1 153 468 300 527
898 4 2 0 1 153 215 468 527
899 4 2 0 1 496 96 92 352
900 4 2 0 1 306 153 490 402
901 4 2 0 1 490 306 402 298
902 4 2 0 1 191 397 231 400
903 4 2 0 1 426 464 230 397
904 4 2 0 1 30 497 71 463
905 4 2 0 1 497 376 6 30
906 4 2 0 1 371 533 492 137
907 4 2 0 1 449 159 492 504
908 4 2 0 1 159 402 492 504
909 4 2 0 1 11 44 9 502
910 4 2 0 1 502 44 9 37
911 4 2 0 1 502 37 454 44
912 4 2 0 1 44 502 258 454
913 4 2 0 1 44 257 258 502
914 4 2 0 1 160 211 379 439
915 4 2 0 1 380 148 160 439
916 4 2 0 1 83 460 34 484
917 4 2 0 1 423 372 370 271
918 4 2 0 1 423 378 372 271
919 4 2 0 1 458 502 9 37
920 4 2 0 1 458 37 454 502
921 4 2 0 1 93 458 9 500
922 4 2 0 1 112 542 117 111
923 4 2 0 1 132 304 424 541
924 4 2 0 1 8 496 43 10
925 4 2 0 1 8 478 43 496
926 4 2 0 1 43 469 352 496
927 4 2 0 1 469 496 43 478
928 4 2 0 1 496 352 43 529
929 4 2 0 1 49 53 303 414
930 4 2 0 1 49 53 457 303
931 4 2 0 1 483 8 290 472
932 4 2 0 1 498 89 396 448
933 4 2 0 1 12 94 42 465
934 4 2 0 1 96 45 529 10
935 4 2 0 1 120 465 105 97
936 4 2 0 1 94 12 46 465
937 4 2 0 1 496 96 352 529
938 4 2 0 1 12 465 42 97
939 4 2 0 1 12 465 97 46
940 4 2 0 1 487 274 434 33
941 4 2 0 1 500 37 9 396
942 4 2 0 1 37 448 396 500
943 4 2 0 1 105 465 120 95
944 4 2 0 1 240 400 192 206
945 4 2 0 1 206 400 192 198
946 4 2 0 1 198 400 192 413
947 4 2 0 1 27 28 5 488
948 4 2 0 1 461 290 495 472
949 4 2 0 1 239 193 233 205
950 4 2 0 1 287 205 184 193
951 4 2 0 1 193 205 184 233
952 4 2 0 1 186 184 286 205
953 4 2 0 1 53 14 459 524
954 4 2 0 1 516 62 244 119
955 4 2 0 1 53 427 457 303
956 4 2 0 1 53 406 427 303
957 4 2 0 1 414 53 303 406
958 4 2 0 1 107 455 88 466
959 4 2 0 1 413 397 400 230
960 4 2 0 1 230 397 400 426
961 4 2 0 1 521 472 461 495
962 4 2 0 1 521 461 85 495
963 4 2 0 1 191 397 400 413
964 4 2 0 1 470 383 25 6
965 4 2 0 1 25 470 6 73
966 4 2 0 1 458 448 37 500
967 4 2 0 1 500 458 9 37
968 4 2 0 1 395 474 280 503
969 4 2 0 1 256 480 503 395
970 4 2 0 1 498 89 248 35
971 4 2 0 1 498 248 369 35
972 4 2 0 1 413 188 228 192
973 4 2 0 1 8 38 496 10
974 4 2 0 1 8 478 496 437
975 4 2 0 1 88 472 461 521
976 4 2 0 1 88 483 461 472
977 4 2 0 1 497 463 30 6
978 4 2 0 1 497 72 71 463
979 4 2 0 1 288 206 200 192
980 4 2 0 1 200 206 240 192
981 4 2 0 1 1 322 20 522
982 4 2 0 1 258 257 94 502
983 4 2 0 1 94 11 40 502
984 4 2 0 1 474 380 503 256
985 4 2 0 1 380 480 503 256
986 4 2 0 1 357 152 539 346
987 4 2 0 1 539 152 279 541
988 4 2 0 1 279 152 539 357
989 4 2 0 1 362 507 485 277
990 4 2 0 1 507 485 475 362
991 4 2 0 1 440 380 503 474
992 4 2 0 1 368 334 385 359
993 4 2 0 1 454 359 334 368
994 4 2 0 1 256 474 395 503
995 4 2 0 1 63 246 293 506
996 4 2 0 1 305 226 387 177
997 4 2 0 1 452 478 8 437
998 4 2 0 1 501 203 241 433
999 4 2 0 1 498 89 519 248
1000 4 2 0 1 274 428 78 292
1001 4 2 0 1 213 209 541 157
1002 4 2 0 1 137 504 492 371
1003 4 2 0 1 504 402 492 124
1004 4 2 0 1 522 322 52 512
1005 4 2 0 1 498 448 396 349
1006 4 2 0 1 397 535 231 426
1007 4 2 0 1 400 397 231 426
1008 4 2 0 1 236 204 242 202
1009 4 2 0 1 272 505 270 31
1010 4 2 0 1 401 272 84 80
1011 4 2 0 1 463 422 265 494
1012 4 2 0 1 66 422 463 494
1013 4 2 0 1 501 343 195 203
1014 4 2 0 1 501 398 241 203
1015 4 2 0 1 501 203 195 432
1016 4 2 0 1 492 386 477 137
1017 4 2 0 1 398 432 203 501
1018 4 2 0 1 158 507 277 485
1019 4 2 0 1 507 475 373 139
1020 4 2 0 1 457 427 486 303
1021 4 2 0 1 510 174 185 227
1022 4 2 0 1 516 457 259 244
1023 4 2 0 1 194 343 201 195
1024 4 2 0 1 336 497 71 30
1025 4 2 0 1 359 454 334 514
1026 4 2 0 1 245 144 150 523
1027 4 2 0 1 213 144 252 209
1028 4 2 0 1 253 441 371 533
1029 4 2 0 1 122 144 523 157
1030 4 2 0 1 126 144 523 122
1031 4 2 0 1 195 115 275 120
1032 4 2 0 1 306 490 499 298
1033 4 2 0 1 163 377 446 365
1034 4 2 0 1 156 277 507 415
1035 4 2 0 1 507 415 277 362
1036 4 2 0 1 191 400 231 513
1037 4 2 0 1 458 454 359 514
1038 4 2 0 1 359 334 508 514
1039 4 2 0 1 457 58 516 486
1040 4 2 0 1 516 118 486 58
1041 4 2 0 1 437 483 8 452
1042 4 2 0 1 493 448 109 89
1043 4 2 0 1 115 95 105 120
1044 4 2 0 1 515 448 493 271
1045 4 2 0 1 181 183 435 187
1046 4 2 0 1 255 462 393 170
1047 4 2 0 1 515 448 109 493
1048 4 2 0 1 477 159 217 153
1049 4 2 0 1 52 50 522 512
1050 4 2 0 1 458 370 448 515
1051 4 2 0 1 34 369 460 401
1052 4 2 0 1 401 83 460 34
1053 4 2 0 1 396 498 34 369
1054 4 2 0 1 55 520 522 50
1055 4 2 0 1 50 14 522 512
1056 4 2 0 1 272 270 80 31
1057 4 2 0 1 31 83 80 401
1058 4 2 0 1 401 272 80 31
1059 4 2 0 1 510 225 174 491
1060 4 2 0 1 336 376 497 30
1061 4 2 0 1 30 376 281 336
1062 4 2 0 1 529 352 43 102
1063 4 2 0 1 157 152 541 213
1064 4 2 0 1 237 432 518 193
1065 4 2 0 1 460 519 84 369
1066 4 2 0 1 46 105 95 465
1067 4 2 0 1 237 193 233 239
1068 4 2 0 1 110 127 465 95
1069 4 2 0 1 97 105 46 465
1070 4 2 0 1 460 519 369 498
1071 4 2 0 1 57 18 421 2
1072 4 2 0 1 2 23 421 57
1073 4 2 0 1 236 197 204 202
1074 4 2 0 1 494 422 136 536
1075 4 2 0 1 520 14 50 524
1076 4 2 0 1 278 196 269 130
1077 4 2 0 1 449 159 477 492
1078 4 2 0 1 159 402 477 492
1079 4 2 0 1 186 184 205 233
1080 4 2 0 1 2 538 57 18
1081 4 2 0 1 542 112 117 523
1082 4 2 0 1 541 157 132 152
1083 4 2 0 1 144 157 150 523
1084 4 2 0 1 523 141 157 150
1085 4 2 0 1 431 177 387 342
1086 4 2 0 1 305 177 387 431
1087 4 2 0 1 524 14 459 520
1088 4 2 0 1 522 14 520 7
1089 4 2 0 1 520 14 522 50
1090 4 2 0 1 214 511 526 207
1091 4 2 0 1 229 186 180 189
1092 4 2 0 1 213 152 279 357
1093 4 2 0 1 444 303 427 406
1094 4 2 0 1 132 304 56 424
1095 4 2 0 1 528 25 3 63
1096 4 2 0 1 66 383 25 470
1097 4 2 0 1 335 408 416 420
1098 4 2 0 1 525 432 195 518
1099 4 2 0 1 525 501 195 432
1100 4 2 0 1 114 418 466 135
1101 4 2 0 1 183 187 181 135
1102 4 2 0 1 293 474 310 391
1103 4 2 0 1 272 366 84 80
1104 4 2 0 1 477 402 159 153
1105 4 2 0 1 143 215 527 210
1106 4 2 0 1 298 477 306 402
1107 4 2 0 1 344 490 119 499
1108 4 2 0 1 394 306 499 298
1109 4 2 0 1 195 115 201 194
1110 4 2 0 1 510 174 227 491
1111 4 2 0 1 351 346 145 208
1112 4 2 0 1 526 511 214 145
1113 4 2 0 1 145 346 531 208
1114 4 2 0 1 389 528 66 383
1115 4 2 0 1 383 3 6 29
1116 4 2 0 1 25 528 383 66
1117 4 2 0 1 411 174 338 225
1118 4 2 0 1 225 273 338 411
1119 4 2 0 1 225 273 411 491
1120 4 2 0 1 174 225 411 491
1121 4 2 0 1 190 197 234 202
1122 4 2 0 1 142 444 511 149
1123 4 2 0 1 208 526 531 145
1124 4 2 0 1 533 64 386 137
1125 4 2 0 1 408 361 335 416
1126 4 2 0 1 127 123 133 534
1127 4 2 0 1 445 161 299 509
1128 4 2 0 1 461 540 36 452
1129 4 2 0 1 420 382 403 505
1130 4 2 0 1 417 47 341 388
1131 4 2 0 1 344 244 499 119
1132 4 2 0 1 505 537 270 76
1133 4 2 0 1 537 505 403 76
1134 4 2 0 1 537 408 335 403
1135 4 2 0 1 45 96 108 13
1136 4 2 0 1 316 331 476 327
1137 4 2 0 1 407 185 309 174
1138 4 2 0 1 438 441 533 371
1139 4 2 0 1 137 253 533 64
1140 4 2 0 1 253 467 533 64
1141 4 2 0 1 313 291 309 450
1142 4 2 0 1 313 309 174 450
1143 4 2 0 1 451 321 166 170
1144 4 2 0 1 321 170 451 374
1145 4 2 0 1 374 350 324 367
1146 4 2 0 1 162 331 327 161
1147 4 2 0 1 315 311 164 163
1148 4 2 0 1 166 331 167 162
1149 4 2 0 1 511 406 143 444
1150 4 2 0 1 277 160 415 156
1151 4 2 0 1 364 378 372 423
1152 4 2 0 1 338 273 462 409
1153 4 2 0 1 338 273 339 411
1154 4 2 0 1 226 177 305 187
1155 4 2 0 1 187 135 375 429
1156 4 2 0 1 328 307 187 177
1157 4 2 0 1 175 491 227 174
1158 4 2 0 1 255 393 224 166
1159 4 2 0 1 22 7 517 58
1160 4 2 0 1 379 158 277 154
1161 4 2 0 1 154 219 216 379
1162 4 2 0 1 447 76 31 80
1163 4 2 0 1 80 447 79 31
1164 4 2 0 1 447 76 80 350
1165 4 2 0 1 134 413 198 192
1166 4 2 0 1 447 367 76 350
1167 4 2 0 1 420 332 476 416
1168 4 2 0 1 420 416 27 488
1169 4 2 0 1 400 413 230 228
1170 4 2 0 1 392 355 2 538
1171 4 2 0 1 55 20 60 50
1172 4 2 0 1 55 50 60 404
1173 4 2 0 1 55 50 522 20
1174 4 2 0 1 111 117 399 126
1175 4 2 0 1 392 117 355 538
1176 4 2 0 1 126 122 117 538
1177 4 2 0 1 111 117 355 392
1178 4 2 0 1 166 393 224 167
1179 4 2 0 1 165 481 155 212
1180 4 2 0 1 269 98 106 125
1181 4 2 0 1 25 66 470 73
1182 4 2 0 1 79 31 83 80
1183 4 2 0 1 31 76 270 80
1184 4 2 0 1 375 135 418 429
1185 4 2 0 1 114 418 455 466
1186 4 2 0 1 189 471 180 229
1187 4 2 0 1 229 471 232 189
1188 4 2 0 1 461 86 412 540
1189 4 2 0 1 35 93 500 109
1190 4 2 0 1 109 93 500 458
1191 4 2 0 1 246 355 392 111
1192 4 2 0 1 449 137 165 155
1193 4 2 0 1 91 103 108 45
1194 4 2 0 1 45 103 108 96
1195 4 2 0 1 538 355 2 57
1196 4 2 0 1 57 355 2 23
1197 4 2 0 1 142 511 113 145
1198 4 2 0 1 192 288 297 190
1199 4 2 0 1 258 502 94 93
1200 4 2 0 1 94 502 40 93
1201 4 2 0 1 318 163 329 311
1202 4 2 0 1 237 398 241 501
1203 4 2 0 1 237 501 525 432
1204 4 2 0 1 264 387 285 342
1205 4 2 0 1 398 432 501 237
1206 4 2 0 1 194 196 278 201
1207 4 2 0 1 343 243 201 203
1208 4 2 0 1 359 334 385 508
1209 4 2 0 1 232 229 189 186
1210 4 2 0 1 353 59 24 19
1211 4 2 0 1 133 184 193 287
1212 4 2 0 1 205 193 287 199
1213 4 2 0 1 95 104 127 123
1214 4 2 0 1 110 127 95 104
1215 4 2 0 1 95 110 46 465
1216 4 2 0 1 37 349 396 448
1217 4 2 0 1 458 99 448 370
1218 4 2 0 1 126 111 117 542
1219 4 2 0 1 96 108 13 41
1220 4 2 0 1 156 507 373 139
1221 4 2 0 1 536 136 362 442
1222 4 2 0 1 150 144 213 157
1223 4 2 0 1 140 254 267 489
1224 4 2 0 1 437 478 496 92
1225 4 2 0 1 101 469 43 87
1226 4 2 0 1 437 92 107 478
$EndElements
