# File exported by Houdini 21.0.440 (www.sidefx.com)
# 80 points
# 280 vertices
# 62 primitives
# Bounds: [0.0600000024, 0.00999999791, -0.0399999991] to [0.140000001, 0.160503656, 0.0399999991]
g 
v 0.140000001 0.159999996 0
v 0.138042256 0.159999996 -0.0123606799
v 0.132360682 0.159999996 -0.0235114079
v 0.123511411 0.159999996 -0.0323606804
v 0.112360679 0.159999996 -0.0380422585
v 0.100000001 0.159999996 -0.0399999991
v 0.0876393169 0.159999996 -0.0380422585
v 0.0764885992 0.159999996 -0.0323606804
v 0.0676393211 0.159999996 -0.023511406
v 0.0619577393 0.159999996 -0.0123606715
v 0.0600000024 0.159999996 3.49691098e-09
v 0.061957743 0.159999996 0.0123606781
v 0.0676393211 0.159999996 0.0235114135
v 0.0764885992 0.159999996 0.0323606841
v 0.0876393169 0.159999996 0.0380422585
v 0.100000001 0.159999996 0.0399999991
v 0.112360686 0.159999996 0.0380422585
v 0.123511419 0.159999996 0.0323606692
v 0.132360697 0.159999996 0.0235113967
v 0.138042256 0.159999996 0.0123606771
v 0.125 0.00999999791 0
v 0.123776414 0.00999999791 -0.00772542506
v 0.12022543 0.00999999791 -0.0146946311
v 0.114694633 0.00999999791 -0.0202254262
v 0.107725427 0.00999999791 -0.0237764139
v 0.100000001 0.00999999791 -0.0250000004
v 0.0922745764 0.00999999791 -0.023776412
v 0.0853053704 0.00999999791 -0.0202254262
v 0.0797745734 0.00999999791 -0.0146946302
v 0.076223582 0.00999999791 -0.00772541994
v 0.075000003 0.00999999791 2.1855695e-09
v 0.0762235895 0.00999999791 0.0077254246
v 0.0797745734 0.00999999791 0.0146946339
v 0.0853053778 0.00999999791 0.020225428
v 0.0922745764 0.00999999791 0.023776412
v 0.100000001 0.00999999791 0.0250000004
v 0.107725427 0.00999999791 0.023776412
v 0.11469464 0.00999999791 0.0202254206
v 0.12022543 0.00999999791 0.0146946236
v 0.123776414 0.00999999791 0.00772542367
v 0.120475061 0.0149999978 -8.64865471e-11
v 0.119472943 0.0149999978 -0.00632714294
v 0.116564676 0.0149999978 -0.0120349405
v 0.112034939 0.0149999978 -0.0165646747
v 0.106327146 0.0149999978 -0.0194729418
v 0.100000001 0.0149999978 -0.0204750635
v 0.0936728567 0.0149999978 -0.0194729399
v 0.0879650638 0.0149999978 -0.0165646747
v 0.0834353268 0.0149999978 -0.0120349377
v 0.0805270523 0.0149999969 -0.00632713828
v 0.0795249417 0.0149999978 9.09893383e-10
v 0.0805270597 0.0149999978 0.00632714294
v 0.0834353268 0.0149999969 0.0120349424
v 0.0879650712 0.0149999978 0.0165646747
v 0.0936728567 0.0149999978 0.0194729418
v 0.100000001 0.0149999978 0.0204750635
v 0.106327146 0.0149999978 0.0194729399
v 0.112034947 0.0149999978 0.0165646691
v 0.116564676 0.0149999978 0.012034934
v 0.119472943 0.0149999978 0.00632714247
v 0.134963408 0.160503656 -1.145345e-10
v 0.133252174 0.160503656 -0.0108042881
v 0.128285989 0.160503656 -0.0205509737
v 0.120550975 0.160503656 -0.0282859914
v 0.11080429 0.160503656 -0.0332521759
v 0.100000001 0.160503656 -0.0349634066
v 0.0891957134 0.160503656 -0.0332521759
v 0.0794490352 0.160503656 -0.0282859914
v 0.0717140064 0.160503656 -0.0205509719
v 0.0667478219 0.160503656 -0.0108042797
v 0.0650365949 0.160503656 2.08431894e-09
v 0.0667478293 0.160503656 0.0108042862
v 0.0717140064 0.160503656 0.0205509774
v 0.0794490352 0.160503656 0.0282859951
v 0.0891957134 0.160503656 0.0332521759
v 0.100000001 0.160503656 0.0349634066
v 0.11080429 0.160503656 0.0332521759
v 0.120550983 0.160503656 0.0282859821
v 0.128286004 0.160503656 0.0205509644
v 0.133252174 0.160503656 0.0108042862
g 
f 21 40 39 38 37 36 35 34 33 32 31 30 29 28 27 26 25 24 23 22
f 1 21 22 2
f 2 22 23 3
f 3 23 24 4
f 4 24 25 5
f 5 25 26 6
f 6 26 27 7
f 7 27 28 8
f 8 28 29 9
f 9 29 30 10
f 10 30 31 11
f 11 31 32 12
f 12 32 33 13
f 13 33 34 14
f 14 34 35 15
f 15 35 36 16
f 16 36 37 17
f 17 37 38 18
f 18 38 39 19
f 19 39 40 20
f 20 40 21 1
f 41 42 43 44 45 46 47 48 49 50 51 52 53 54 55 56 57 58 59 60
f 61 62 42 41
f 62 63 43 42
f 63 64 44 43
f 64 65 45 44
f 65 66 46 45
f 66 67 47 46
f 67 68 48 47
f 68 69 49 48
f 69 70 50 49
f 70 71 51 50
f 71 72 52 51
f 72 73 53 52
f 73 74 54 53
f 74 75 55 54
f 75 76 56 55
f 76 77 57 56
f 77 78 58 57
f 78 79 59 58
f 79 80 60 59
f 80 61 41 60
f 1 2 62 61
f 2 3 63 62
f 3 4 64 63
f 4 5 65 64
f 5 6 66 65
f 6 7 67 66
f 7 8 68 67
f 8 9 69 68
f 9 10 70 69
f 10 11 71 70
f 11 12 72 71
f 12 13 73 72
f 13 14 74 73
f 14 15 75 74
f 15 16 76 75
f 16 17 77 76
f 17 18 78 77
f 18 19 79 78
f 19 20 80 79
f 20 1 61 80
