$MeshFormat
2.2 0 8
$EndMeshFormat
$Nodes
382
1 0.06042326241731644 0.1582925915718079 0.001594346947968006
2 0.06195773929357529 0.1599999964237213 -0.01236067153513432
3 0.06221389770507812 0.1599999964237213 0.01286340784281492
4 0.0652439147233963 0.1599742323160172 0.0009761102264747024
5 0.06674782186746597 0.1605036556720734 -0.01080427970737219
6 0.06657536327838898 0.1600976288318634 0.009460124187171459
7 0.06777345389127731 0.1583419889211655 -0.02341395057737827
8 0.06763932108879089 0.1599999964237213 0.02351141348481178
9 0.07094458490610123 0.1605036556720734 -0.01904089562594891
10 0.07130083441734314 0.158464789390564 0.01929840631783009
11 0.07500000298023224 0.009999997913837433 2.185569503154738e-09
12 0.07648859918117523 0.1599999964237213 -0.03236068040132523
13 0.07648859918117523 0.1599999964237213 0.03236068412661552
14 0.07829046249389648 0.009999997913837433 -0.0117818983271718
15 0.07768496125936508 0.009999997913837433 0.0105935363098979
16 0.08251959085464478 0.1592854261398315 -0.02971605397760868
17 0.08050039410591125 0.1587331742048264 0.02862626500427723
18 0.08002599328756332 0.01499999780207872 -0.003163568675518036
19 0.08133402466773987 0.01753267832100391 0.008459550328552723
20 0.08343532681465149 0.01499999780207872 -0.01203493773937225
21 0.08530537039041519 0.009999997913837433 -0.02022542618215084
22 0.08410987257957458 0.01041587349027395 0.0190880186855793
23 0.08763931691646576 0.1599999964237213 -0.03804225847125053
24 0.08763931691646576 0.1599999964237213 0.03804225847125053
25 0.09143812954425812 0.1605036556720734 -0.03360734134912491
26 0.08919571340084076 0.1605036556720734 0.03325217589735985
27 0.09081896394491196 0.01499999780207872 0.01801880821585655
28 0.09302326291799545 0.009999997913837433 -0.02389499172568321
29 0.09227457642555237 0.009999997913837433 0.02377641201019287
30 0.09367285668849945 0.01499999780207872 -0.01947293989360332
31 0.1007677242159843 0.03006353974342346 0.02185340039432049
32 0.1000000014901161 0.1599999964237213 0.03999999910593033
33 0.1031635701656342 0.01499999780207872 -0.01997400261461735
34 0.1026768535375595 0.009999997913837433 -0.02457602880895138
35 0.1038627102971077 0.009999997913837433 0.02438820712268353
36 0.1063271462917328 0.01499999780207872 0.01947293989360332
37 0.107288122177124 0.1591476649045944 -0.03367406129837036
38 0.1027302220463753 0.1591677516698837 0.03439795970916748
39 0.1106751635670662 0.01985348202288151 -0.01779323630034924
40 0.1133204251527786 0.01499999780207872 0.01510150637477636
41 0.1056056022644043 0.1599999964237213 -0.0391121581196785
42 0.1123242825269699 0.1588220447301865 0.03793022781610489
43 0.1148575320839882 0.009999997913837433 -0.0188958216458559
44 0.1146946400403976 0.009999997913837433 0.02022542059421539
45 0.1180188059806824 0.01499999780207872 -0.009181041270494461
46 0.1194729432463646 0.01499999780207872 0.006327142473310232
47 0.1224639937281609 0.009999997913837433 0.0098767951130867
48 0.1213448718190193 0.02453716658055782 0.0005041092517785728
49 0.1205509752035141 0.1605036556720734 -0.02828599140048027
50 0.1184676960110664 0.1605036556720734 0.02934747003018856
51 0.1237901747226715 0.01014468353241682 -0.007729895878583193
52 0.1234986707568169 0.1597832888364792 -0.03234314918518066
53 0.1235114187002182 0.1599999964237213 0.03236066922545433
54 0.1259340792894363 0.0198204331099987 0.0003028283244930208
55 0.1290486454963684 0.1605036556720734 0.01905418932437897
56 0.1323606818914413 0.1599999964237213 -0.02351140789687634
57 0.1323606967926025 0.1599999964237213 0.02351139672100544
58 0.1311094015836716 0.1595165878534317 -0.01479589380323887
59 0.1332521736621857 0.1605036556720734 0.01080428622663021
60 0.1349634081125259 0.1605036556720734 -1.145344999398112e-10
61 0.1376145035028458 0.1587488949298859 -0.01292802020907402
62 0.1378776133060455 0.1582688838243484 0.01230718288570642
63 0.1400000005960464 0.1599999964237213 0
64 0.1242296397686005 0.05663556605577469 -0.002470157574862242
65 0.1167670488357544 0.1323177963495255 -0.0271028894931078
66 0.08514655381441116 0.03529084101319313 0.01656830683350563
67 0.0725736990571022 0.1384802609682083 -0.01746728643774986
68 0.1333927065134048 0.1137928664684296 -0.01143326237797737
69 0.1326733827590942 0.08822112530469894 0.0009390465565957129
70 0.1200671344995499 0.0826098620891571 0.02499508298933506
71 0.07970611751079559 0.0971144363284111 0.02679432928562164
72 0.1173780858516693 0.128183975815773 0.02633526362478733
73 0.1043815836310387 0.1356739401817322 0.03179704397916794
74 0.08554761111736298 0.08684003353118896 -0.02326250448822975
75 0.08000914752483368 0.0926550030708313 0.01940939016640186
76 0.07509669661521912 0.06782172620296478 -0.01809330470860004
77 0.1073369234800339 0.06677033752202988 0.02446797303855419
78 0.07788417488336563 0.07559366524219513 -0.01426658313721418
79 0.07207836210727692 0.06836991757154465 0.01228875480592251
80 0.08568704128265381 0.1119197979569435 0.02610181458294392
81 0.1260583251714706 0.08209851384162903 -0.01893247477710247
82 0.09699390083551407 0.1130794957280159 0.02976508624851704
83 0.0924404188990593 0.07867029309272766 0.03066970780491829
84 0.1181798949837685 0.0655384361743927 -0.02449778653681278
85 0.09519483894109726 0.1180407330393791 -0.02997415140271187
86 0.106347069144249 0.1195070445537567 -0.02987594343721867
87 0.1364351958036423 0.1256063878536224 0.000792024249676615
88 0.1249412447214127 0.04620305821299553 -0.01331554539501667
89 0.1077104434370995 0.1023369878530502 0.02766690962016582
90 0.131405845284462 0.1358567476272583 0.006966451648622751
91 0.110856682062149 0.1113294959068298 0.03341341763734818
92 0.08758198469877243 0.05728715285658836 -0.02103707194328308
93 0.08340461552143097 0.1207720190286636 -0.02591594867408276
94 0.1168542876839638 0.0546768344938755 -0.01726377010345459
95 0.06521804630756378 0.1257190853357315 -0.01130133401602507
96 0.06487216055393219 0.1190201416611671 0.004887910094112158
97 0.07696256041526794 0.1246888190507889 0.02081822603940964
98 0.1050946786999702 0.0324060469865799 0.02643368579447269
99 0.1057638302445412 0.07397026568651199 0.03048412501811981
100 0.07460416853427887 0.08315625041723251 0.009467477910220623
101 0.1087091863155365 0.05125807225704193 -0.02226134017109871
102 0.1267312616109848 0.1226038262248039 -0.01539208274334669
103 0.08129238337278366 0.0769183486700058 0.02555960789322853
104 0.1241587325930595 0.1106362268328667 -0.02481821551918983
105 0.06785198301076889 0.1503876298666 0.01077987533062696
106 0.06993436068296432 0.1232423633337021 0.007497709710150957
107 0.07332520931959152 0.1289546191692352 0.02486087195575237
108 0.08249527215957642 0.1390041559934616 -0.02746504917740822
109 0.08220073580741882 0.05617735534906387 0.02357084676623344
110 0.127035841345787 0.09345417469739914 0.007899734191596508
111 0.117218092083931 0.05612444132566452 0.01710130646824837
112 0.1172758862376213 0.04548848792910576 0.02260120958089828
113 0.09523331373929977 0.09693922847509384 -0.03293895348906517
114 0.1197495758533478 0.08603515475988388 0.01872995123267174
115 0.1277456283569336 0.03745628893375397 8.673617379884035e-19
116 0.1260095685720444 0.05498767271637917 0.01313000544905663
117 0.07356883585453033 0.03538849577307701 0.006993617862462997
118 0.07644881308078766 0.04089012742042542 0.01488782931119204
119 0.0725596696138382 0.1043021604418755 0.01003576256334782
120 0.07741458714008331 0.1091381385922432 0.01910739205777645
121 0.1312078833580017 0.1076141223311424 0.0143769858404994
122 0.1294089108705521 0.1123007908463478 -0.004765388090163469
123 0.08142842352390289 0.09908650070428848 -0.02812533639371395
124 0.09731488674879074 0.1267522126436234 -0.03624993935227394
125 0.1282459199428558 0.0797700360417366 0.01413250155746937
126 0.08079675585031509 0.046694565564394 -0.01372243743389845
127 0.09667933732271194 0.1040094941854477 0.0338750071823597
128 0.115578331053257 0.03806117549538612 0.01622874289751053
129 0.1292343139648438 0.1129171326756477 0.006255175452679396
130 0.120312936604023 0.1055842041969299 0.02795834094285965
131 0.07516516745090485 0.06454632431268692 -0.003622440388426185
132 0.07475386559963226 0.03279133141040802 -0.009799357503652573
133 0.07239936292171478 0.03776116669178009 -0.001107902731746435
134 0.1096590906381607 0.09410770982503891 0.03188091889023781
135 0.08881800621747971 0.08193211257457733 0.02438712865114212
136 0.06606300920248032 0.151339516043663 -0.0007191926124505699
137 0.1074162796139717 0.08367086946964264 0.02613825350999832
138 0.1299905776977539 0.0718211829662323 -0.007523057051002979
139 0.1249387785792351 0.0280858501791954 -0.009378860704600811
140 0.1178308799862862 0.06335695832967758 0.02454208768904209
141 0.1250620931386948 0.09388281404972076 -0.01244618743658066
142 0.108368456363678 0.04050838202238083 -0.02672540582716465
143 0.1063130795955658 0.1053225621581078 -0.03456820920109749
144 0.08737523108720779 0.1302951127290726 -0.03461488708853722
145 0.09498970955610275 0.0586448460817337 0.02402739226818085
146 0.1289203315973282 0.1410602033138275 -0.01509398780763149
147 0.06749062985181808 0.124358244240284 0.01546547561883926
148 0.07844236493110657 0.1276091933250427 -0.02976562641561031
149 0.09162089228630066 0.03519089892506599 0.02619196847081184
150 0.09682127833366394 0.07056804746389389 -0.02550471946597099
151 0.08985786139965057 0.04071789234876633 -0.02036779932677746
152 0.0889929011464119 0.09575688093900681 0.0260021947324276
153 0.078313909471035 0.04461514577269554 0.008399112150073051
154 0.1162065863609314 0.07576238363981247 -0.02084415405988693
155 0.1251165270805359 0.1110845953226089 0.01606578566133976
156 0.1213723942637444 0.04336639493703842 0.008744264021515846
157 0.1345468759536743 0.1077872589230537 0.001463835360482335
158 0.1064334884285927 0.05224606022238731 0.02820564061403275
159 0.1271453052759171 0.08471228182315826 -0.001712719560600817
160 0.1011453196406364 0.1345286816358566 0.03727146610617638
161 0.09310143440961838 0.05819230899214745 0.0287266056984663
162 0.117928721010685 0.1356223076581955 -0.0325029157102108
163 0.09011279791593552 0.09607583284378052 0.03204160183668137
164 0.07629024982452393 0.06574340164661407 0.009004456922411919
165 0.08996204286813736 0.1329300403594971 0.035703144967556
166 0.1065342947840691 0.1019058153033257 -0.02809367142617702
167 0.1165405735373497 0.03108694963157177 -0.02132491953670979
168 0.07756868749856949 0.04151050373911858 -0.004315449390560389
169 0.07008009403944016 0.06547483056783676 -0.003962354734539986
170 0.1228311881422997 0.04070394113659859 -0.001283677876926959
171 0.09801757335662842 0.08584962785243988 0.02721584029495716
172 0.1069518700242043 0.1202586591243744 0.02971328981220722
173 0.07539308816194534 0.05355607718229294 -0.01557141449302435
174 0.07045827060937881 0.08822967112064362 0.01342976558953524
175 0.1254452466964722 0.05954254791140556 -0.01522848196327686
176 0.1155751496553421 0.02766756154596806 0.02173524163663387
177 0.09954643249511719 0.0422074981033802 -0.02261131629347801
178 0.08536837249994278 0.1168515235185623 0.03210210800170898
179 0.0787937343120575 0.08361193537712097 -0.02399591915309429
180 0.108005166053772 0.1338288336992264 -0.03611498698592186
181 0.08342980593442917 0.07109054923057556 -0.02604171819984913
182 0.1088135167956352 0.07612049579620361 -0.03021612577140331
183 0.07016109675168991 0.1176193505525589 -0.005394148640334606
184 0.07530760765075684 0.1049836501479149 -0.01557652465999126
185 0.117360383272171 0.09338385611772537 -0.0221412368118763
186 0.122703492641449 0.0678941085934639 -0.01144526340067387
187 0.07435700297355652 0.1225120425224304 -0.01750803738832474
188 0.1058074235916138 0.0303158201277256 -0.02108031138777733
189 0.1074998676776886 0.06650300323963165 -0.02391448803246021
190 0.1214314922690392 0.1199279800057411 0.02884332649409771
191 0.06771165132522583 0.09680964052677155 -0.00879260990768671
192 0.1272953301668167 0.1158605366945267 0.02241135388612747
193 0.07285596430301666 0.1159959435462952 -0.0225815549492836
194 0.08161748945713043 0.0377308614552021 -0.02041099593043327
195 0.08723480999469757 0.03084728121757507 -0.0165976881980896
196 0.09115835279226303 0.1431459933519363 -0.03691421821713448
197 0.1382175981998444 0.1428031921386719 0.0003960121248383075
198 0.06358788907527924 0.142859548330307 -0.01183100324124098
199 0.1014105603098869 0.1428832113742828 -0.03806490823626518
200 0.1168757006525993 0.1366631388664246 0.03315483033657074
201 0.0694076344370842 0.08166711777448654 -0.009940054267644882
202 0.06859945505857468 0.1326878815889359 -0.005007670260965824
203 0.09517791122198105 0.02701982669532299 -0.0259382389485836
204 0.08458103984594345 0.1038484275341034 -0.02464737184345722
205 0.09602822363376617 0.04403965547680855 -0.02777489647269249
206 0.0834113210439682 0.03785264864563942 0.02222183346748352
207 0.09532750397920609 0.08972212672233582 -0.02717537432909012
208 0.07160500437021255 0.1346302181482315 -0.02393343299627304
209 0.1173507049679756 0.0493546649813652 -0.02306642197072506
210 0.131199061870575 0.08789687603712082 -0.01004282757639885
211 0.07470393925905228 0.08306576311588287 0.01982983574271202
212 0.1263016611337662 0.09538789093494415 0.02054539322853088
213 0.1056272760033607 0.0256281141191721 -0.02567153982818127
214 0.07231484353542328 0.04744420573115349 -0.006687930319458246
215 0.1282588839530945 0.05198551341891289 -0.005932838190346956
216 0.1200736239552498 0.04015655443072319 -0.0105978948995471
217 0.102372832596302 0.009999997913837433 0.0004604272544384003
218 0.08290594071149826 0.06208795309066772 0.0180547721683979
219 0.1240987256169319 0.06916065514087677 0.008981336839497089
220 0.09217900782823563 0.1010174155235291 -0.02780141495168209
221 0.1365279704332352 0.1390956193208694 -0.008723056875169277
222 0.08094096183776855 0.1359053999185562 0.03195837140083313
223 0.1274140030145645 0.1352631896734238 -0.02500283718109131
224 0.08402322977781296 0.0525834932923317 -0.02429255843162537
225 0.07333416491746902 0.08302704989910126 -0.003680512774735689
226 0.1330283731222153 0.1435256600379944 -0.01861687935888767
227 0.06699508428573608 0.09395141154527664 0.002463791752234101
228 0.09426870942115784 0.075297512114048 -0.03062200173735619
229 0.1347334086894989 0.1349781155586243 0.01341097615659237
230 0.09201109409332275 0.1376492530107498 0.03142239153385162
231 0.1191342249512672 0.1445180922746658 0.02724339812994003
232 0.1128349378705025 0.1201323196291924 -0.03338124603033066
233 0.1280516237020493 0.09769680351018906 -0.01841392181813717
234 0.076468326151371 0.1133081912994385 0.02581848949193954
235 0.1317040026187897 0.1370467245578766 -0.005832051392644644
236 0.1190786883234978 0.08738487213850021 -0.02656981907784939
237 0.1264213174581528 0.1281313747167587 0.01719780638813972
238 0.1297934204339981 0.06304508447647095 0.003226846223697066
239 0.08454839885234833 0.08399952203035355 -0.02804264053702354
240 0.07285273820161819 0.09296486526727676 -0.0191593486815691
241 0.1275593340396881 0.1445275396108627 0.01851622015237808
242 0.08125831186771393 0.03066270053386688 -0.01115531846880913
243 0.1068181023001671 0.05845427885651588 -0.02876554615795612
244 0.08106926828622818 0.1465061902999878 -0.03319884836673737
245 0.1166781485080719 0.1065775901079178 0.024307020008564
246 0.1319267600774765 0.09569776803255081 0.01037362962961197
247 0.09251904487609863 0.03669573739171028 0.020949462428689
248 0.1055920869112015 0.08481281995773315 -0.02654088847339153
249 0.0706377699971199 0.1453090906143188 0.02445782907307148
250 0.09989384561777115 0.08972912281751633 0.03295609727501869
251 0.1290577501058578 0.1377831697463989 0.02371109649538994
252 0.07038940489292145 0.1040034741163254 0.01672631129622459
253 0.06441231817007065 0.1361944079399109 0.01199898775666952
254 0.0624978132545948 0.1388826966285706 0.002437612041831017
255 0.09256674349308014 0.06101957336068153 -0.02892464399337769
256 0.08153447508811951 0.1395623385906219 0.0270371101796627
257 0.1065662577748299 0.08988852798938751 -0.03246678411960602
258 0.1231782808899879 0.05653897672891617 0.008053584024310112
259 0.09891232848167419 0.1192690804600716 0.03557323664426804
260 0.09521773457527161 0.140318900346756 -0.03219609707593918
261 0.1230383515357971 0.06879876554012299 0.01906254515051842
262 0.07859326899051666 0.02454761788249016 0.0155411260202527
263 0.1229968965053558 0.1462455689907074 -0.02385698445141315
264 0.09484855085611343 0.01499999780207872 0.0006378650432452559
265 0.1226035431027412 0.0273878201842308 0.01381016243249178
266 0.08530373126268387 0.1154697388410568 -0.03191599994897842
267 0.108755849301815 0.04021525010466576 0.02101867087185383
268 0.0716661661863327 0.09998507797718048 -0.003810403868556023
269 0.07871207594871521 0.06054207310080528 -0.01263080351054668
270 0.1065388470888138 0.137711226940155 -0.03165822848677635
271 0.07305813580751419 0.1436290442943573 0.01927018910646439
272 0.0865647941827774 0.07206359505653381 -0.02214978821575642
273 0.1252865344285965 0.1052699685096741 -0.01447249110788107
274 0.118191733956337 0.07038097083568573 0.01811053231358528
275 0.09263696521520615 0.009999997913837433 0.01544557139277458
276 0.07118377089500427 0.05235178768634796 0.002645109780132771
277 0.06852930784225464 0.07925853878259659 0.002873761346563697
278 0.1120275855064392 0.1457327306270599 -0.0303884744644165
279 0.09815605729818344 0.04368922486901283 0.02303970605134964
280 0.07420177012681961 0.0541176050901413 0.01335548888891935
281 0.07411777973175049 0.02403958886861801 0.003294115420430899
282 0.1258558332920074 0.07177147269248962 -0.00171841774135828
283 0.08586053550243378 0.02391647733747959 0.02205094695091248
284 0.07600575685501099 0.08866259455680847 -0.01341110747307539
285 0.09594206511974335 0.01499999780207872 -0.009404856711626053
286 0.0799155980348587 0.03061226569116116 0.008509156294167042
287 0.1216036602854729 0.05369375646114349 -0.01052758563309908
288 0.09909805655479431 0.04529917985200882 0.0275801457464695
289 0.08748321980237961 0.02188206650316715 -0.02265223115682602
290 0.09617728739976883 0.1468033641576767 0.03807487711310387
291 0.08066412061452866 0.02324627712368965 -0.01743442192673683
292 0.1330668926239014 0.1020532101392746 -0.007187734358012676
293 0.06904035061597824 0.1356348991394043 0.009112017229199409
294 0.1117671653628349 0.1478111445903778 -0.0358075350522995
295 0.09684467315673828 0.1493646502494812 0.0333544984459877
296 0.09660964459180832 0.02860374748706818 -0.02104212902486324
297 0.1330677270889282 0.1268617063760757 -0.01491427700966597
298 0.09759281575679779 0.09917928278446198 0.02847584895789623
299 0.08218889683485031 0.07577933371067047 0.01924198865890503
300 0.09001261740922928 0.08849316835403442 -0.03126747161149979
301 0.1142028272151947 0.1174114868044853 0.02676409110426903
302 0.09233094751834869 0.009999997913837433 -0.01508449390530586
303 0.1172628775238991 0.02775881811976433 0.0117782624438405
304 0.09620543569326401 0.07183527201414108 0.02553336322307587
305 0.1308487504720688 0.1256380826234818 -0.004059456754475832
306 0.08334607630968094 0.126065120100975 0.0264703668653965
307 0.08292661607265472 0.04991282150149345 0.01638207398355007
308 0.09033164381980896 0.009999997913837433 -0.005660735536366701
309 0.0980403795838356 0.05551445484161377 -0.02394833415746689
310 0.1283374726772308 0.09871154278516769 -0.002986844861879945
311 0.1302273273468018 0.1485154181718826 0.01322053465992212
312 0.1069073379039764 0.1447883397340775 0.03738481923937798
313 0.1282954216003418 0.04931940510869026 0.004018782638013363
314 0.1204736530780792 0.02038493566215038 -0.01589697599411011
315 0.06637575477361679 0.1115279421210289 -0.009650885127484798
316 0.08889845758676529 0.009999997913837433 0.005335305351763964
317 0.09461025893688202 0.02354121021926403 0.02550046890974045
318 0.1219623684883118 0.0981261283159256 0.01756085082888603
319 0.1256293803453445 0.1238177791237831 -0.02518876455724239
320 0.06763734668493271 0.1475387811660767 -0.00826968252658844
321 0.07622969895601273 0.05324852094054222 -0.003240901743993163
322 0.07059977203607559 0.1166709363460541 0.01989508233964443
323 0.07239256799221039 0.146212711930275 -0.0263388454914093
324 0.1110381409525871 0.02760762348771095 0.01806008815765381
325 0.08588457107543945 0.1484479606151581 0.03586761653423309
326 0.1247382387518883 0.0421462208032608 0.01283137779682875
327 0.09030773490667343 0.04547138884663582 0.02112170867621899
328 0.06186605989933014 0.1498256325721741 -0.005357992835342884
329 0.1217505037784576 0.1478348225355148 0.03190938010811806
330 0.1353067457675934 0.1475699096918106 0.01502518821507692
331 0.0786224827170372 0.0282818116247654 -0.002652168972417712
332 0.1244256049394608 0.0824306309223175 -0.01121446676552296
333 0.1332234591245651 0.1495976001024246 0.004129111766815186
334 0.06600160151720047 0.1062585860490799 0.003961602225899696
335 0.09421831369400024 0.1259764134883881 0.03060967102646828
336 0.09908427298069 0.08471295237541199 -0.03232625871896744
337 0.1018003448843956 0.009999997913837433 -0.0120802391320467
338 0.1079060658812523 0.05253797397017479 0.02267047204077244
339 0.1092984899878502 0.02042473666369915 -0.0232441071420908
340 0.1200981289148331 0.1459261029958725 -0.0325397327542305
341 0.07285648584365845 0.1037482246756554 -0.02071534655988216
342 0.1200336068868637 0.02733149006962776 -0.007898138836026192
343 0.1314310729503632 0.07612195611000061 0.001143536996096373
344 0.1197395920753479 0.09932714700698853 -0.0275568813085556
345 0.08615668118000031 0.1473739892244339 0.03025447949767113
346 0.1277521252632141 0.1491174548864365 -0.02659989334642887
347 0.07851076126098633 0.1470161974430084 0.03195176273584366
348 0.1271338909864426 0.06684533506631851 0.01350310817360878
349 0.08542247861623764 0.01499999780207872 0.007427619770169258
350 0.108022540807724 0.01499999780207872 0.003151625394821167
351 0.0920015275478363 0.129038468003273 -0.03056346625089645
352 0.132594957947731 0.1223317086696625 0.01485662627965212
353 0.07652216404676437 0.02139566466212273 -0.0107906274497509
354 0.1116876602172852 0.1243632137775421 0.03443481400609016
355 0.07641765475273132 0.149013563990593 0.02316775918006897
356 0.11204694211483 0.009999997913837433 -0.004613528028130531
357 0.132725864648819 0.1487463563680649 -0.006735651288181543
358 0.08203462511301041 0.0671757310628891 -0.01789108850061893
359 0.118647575378418 0.07725145667791367 -0.02566618286073208
360 0.1057589873671532 0.01499999780207872 -0.007058294489979744
361 0.1056636348366737 0.02128330990672112 0.02523129992187023
362 0.1007995530962944 0.15011927485466 -0.03290170803666115
363 0.1249387413263321 0.08181115239858627 0.01007319241762161
364 0.08941556513309479 0.0473514199256897 0.02646011114120483
365 0.131161242723465 0.1492303460836411 0.02320653945207596
366 0.08777771890163422 0.02532564662396908 0.01711358688771725
367 0.06314472109079361 0.1475193947553635 0.01197500620037317
368 0.1058604866266251 0.1489135175943375 0.03288112580776215
369 0.1165304332971573 0.06521961092948914 -0.01905396208167076
370 0.113019697368145 0.09396767616271973 0.02387836575508118
371 0.115235909819603 0.1079793944954872 -0.02969321236014366
372 0.07491876929998398 0.1501974910497665 -0.02232229895889759
373 0.1262876987457275 0.1278849989175797 0.02509855665266514
374 0.1166632175445557 0.1112130954861641 -0.0248262919485569
375 0.0807323083281517 0.0871242880821228 0.02642510086297989
376 0.09885986149311066 0.06575621664524078 0.03039504215121269
377 0.1151740849018097 0.02868210710585117 -0.01532850228250027
378 0.114170528948307 0.04139336943626404 -0.01809999905526638
379 0.08860693871974945 0.1492612808942795 -0.03171126544475555
380 0.08866222947835922 0.06820710003376007 0.02838813699781895
381 0.1192970350384712 0.09477479010820389 0.0272777397185564
382 0.0676548182964325 0.112844206392765 0.01328274235129356
$EndNodes
$Elements
1075
1 4 2 0 1 375 135 75 152
2 4 2 0 1 238 282 343 138
3 4 2 0 1 168 133 132 331
4 4 2 0 1 182 336 228 248
5 4 2 0 1 126 168 132 242
6 4 2 0 1 81 359 154 236
7 4 2 0 1 106 293 96 147
8 4 2 0 1 108 208 67 323
9 4 2 0 1 113 166 207 257
10 4 2 0 1 21 302 20 14
11 4 2 0 1 143 166 371 86
12 4 2 0 1 233 344 273 104
13 4 2 0 1 241 90 229 237
14 4 2 0 1 48 46 45 51
15 4 2 0 1 360 217 350 264
16 4 2 0 1 51 46 54 48
17 4 2 0 1 361 35 27 36
18 4 2 0 1 19 349 27 15
19 4 2 0 1 35 275 29 27
20 4 2 0 1 245 190 301 91
21 4 2 0 1 158 140 112 338
22 4 2 0 1 337 285 33 30
23 4 2 0 1 375 135 299 75
24 4 2 0 1 93 193 187 148
25 4 2 0 1 136 293 105 254
26 4 2 0 1 3 1 4 105
27 4 2 0 1 4 105 6 3
28 4 2 0 1 165 335 259 178
29 4 2 0 1 306 178 234 80
30 4 2 0 1 65 319 232 162
31 4 2 0 1 121 110 212 155
32 4 2 0 1 266 85 124 351
33 4 2 0 1 75 174 71 252
34 4 2 0 1 85 124 86 143
35 4 2 0 1 86 232 180 65
36 4 2 0 1 198 95 67 202
37 4 2 0 1 202 95 96 254
38 4 2 0 1 92 76 358 181
39 4 2 0 1 92 255 309 205
40 4 2 0 1 187 95 208 193
41 4 2 0 1 297 102 305 235
42 4 2 0 1 136 105 4 1
43 4 2 0 1 232 65 162 180
44 4 2 0 1 116 258 111 219
45 4 2 0 1 69 210 159 310
46 4 2 0 1 175 215 138 64
47 4 2 0 1 28 34 30 302
48 4 2 0 1 103 109 218 380
49 4 2 0 1 91 172 301 89
50 4 2 0 1 82 127 89 91
51 4 2 0 1 288 149 364 279
52 4 2 0 1 290 230 325 345
53 4 2 0 1 223 65 319 102
54 4 2 0 1 151 205 194 224
55 4 2 0 1 177 92 309 205
56 4 2 0 1 93 266 193 148
57 4 2 0 1 102 319 223 297
58 4 2 0 1 89 127 298 134
59 4 2 0 1 149 327 279 247
60 4 2 0 1 152 83 135 171
61 4 2 0 1 109 307 280 218
62 4 2 0 1 94 287 175 186
63 4 2 0 1 338 279 267 288
64 4 2 0 1 123 240 179 74
65 4 2 0 1 235 297 87 305
66 4 2 0 1 178 306 234 107
67 4 2 0 1 209 167 378 142
68 4 2 0 1 205 101 177 142
69 4 2 0 1 167 188 378 142
70 4 2 0 1 378 377 167 216
71 4 2 0 1 45 43 33 39
72 4 2 0 1 97 293 107 271
73 4 2 0 1 244 323 108 372
74 4 2 0 1 210 141 159 310
75 4 2 0 1 108 244 144 148
76 4 2 0 1 156 265 303 48
77 4 2 0 1 306 107 178 222
78 4 2 0 1 140 116 112 111
79 4 2 0 1 112 156 128 111
80 4 2 0 1 111 338 112 140
81 4 2 0 1 112 156 326 265
82 4 2 0 1 185 236 257 344
83 4 2 0 1 265 156 303 128
84 4 2 0 1 112 265 176 128
85 4 2 0 1 128 267 176 112
86 4 2 0 1 129 87 122 305
87 4 2 0 1 120 119 252 382
88 4 2 0 1 227 252 119 334
89 4 2 0 1 119 268 227 334
90 4 2 0 1 322 120 252 382
91 4 2 0 1 120 252 234 322
92 4 2 0 1 212 246 125 110
93 4 2 0 1 109 206 118 307
94 4 2 0 1 187 184 315 193
95 4 2 0 1 195 242 126 194
96 4 2 0 1 151 194 126 224
97 4 2 0 1 183 202 187 95
98 4 2 0 1 75 252 71 120
99 4 2 0 1 180 232 86 124
100 4 2 0 1 89 127 134 91
101 4 2 0 1 144 351 124 260
102 4 2 0 1 155 237 352 129
103 4 2 0 1 237 251 352 229
104 4 2 0 1 293 253 254 96
105 4 2 0 1 190 72 354 200
106 4 2 0 1 97 147 107 293
107 4 2 0 1 203 205 194 151
108 4 2 0 1 195 194 126 151
109 4 2 0 1 203 151 177 205
110 4 2 0 1 380 145 376 161
111 4 2 0 1 154 369 84 186
112 4 2 0 1 156 265 115 326
113 4 2 0 1 102 146 235 297
114 4 2 0 1 93 266 148 144
115 4 2 0 1 221 146 226 297
116 4 2 0 1 48 115 54 139
117 4 2 0 1 121 110 157 246
118 4 2 0 1 318 130 155 245
119 4 2 0 1 134 130 89 91
120 4 2 0 1 212 155 130 192
121 4 2 0 1 380 103 299 218
122 4 2 0 1 122 292 157 310
123 4 2 0 1 112 265 128 156
124 4 2 0 1 111 338 267 112
125 4 2 0 1 98 112 267 158
126 4 2 0 1 288 161 158 145
127 4 2 0 1 169 131 321 269
128 4 2 0 1 133 281 132 331
129 4 2 0 1 145 380 109 161
130 4 2 0 1 149 327 206 364
131 4 2 0 1 83 152 135 375
132 4 2 0 1 34 30 337 33
133 4 2 0 1 163 250 152 127
134 4 2 0 1 83 375 163 152
135 4 2 0 1 380 145 299 304
136 4 2 0 1 135 83 304 171
137 4 2 0 1 218 164 79 299
138 4 2 0 1 161 145 288 364
139 4 2 0 1 70 99 137 77
140 4 2 0 1 137 171 304 99
141 4 2 0 1 137 274 114 70
142 4 2 0 1 138 282 332 186
143 4 2 0 1 19 15 11 349
144 4 2 0 1 286 153 118 66
145 4 2 0 1 261 116 140 111
146 4 2 0 1 111 77 140 274
147 4 2 0 1 140 99 70 77
148 4 2 0 1 93 148 187 108
149 4 2 0 1 351 108 260 144
150 4 2 0 1 221 146 235 357
151 4 2 0 1 58 146 263 226
152 4 2 0 1 245 91 301 89
153 4 2 0 1 148 193 187 208
154 4 2 0 1 150 248 189 182
155 4 2 0 1 101 243 205 309
156 4 2 0 1 71 152 120 80
157 4 2 0 1 224 126 173 194
158 4 2 0 1 184 341 315 193
159 4 2 0 1 284 240 191 184
160 4 2 0 1 166 344 374 185
161 4 2 0 1 227 201 191 225
162 4 2 0 1 173 126 132 194
163 4 2 0 1 212 192 121 155
164 4 2 0 1 352 129 157 121
165 4 2 0 1 220 166 207 113
166 4 2 0 1 220 143 166 113
167 4 2 0 1 160 73 290 312
168 4 2 0 1 110 159 310 69
169 4 2 0 1 139 170 115 216
170 4 2 0 1 115 48 156 170
171 4 2 0 1 10 105 8 3
172 4 2 0 1 3 105 6 10
173 4 2 0 1 91 172 354 301
174 4 2 0 1 259 127 82 91
175 4 2 0 1 276 169 131 321
176 4 2 0 1 269 169 173 321
177 4 2 0 1 211 100 79 174
178 4 2 0 1 227 277 100 174
179 4 2 0 1 65 319 162 223
180 4 2 0 1 214 169 276 321
181 4 2 0 1 168 214 126 132
182 4 2 0 1 168 133 331 153
183 4 2 0 1 81 175 138 186
184 4 2 0 1 230 325 165 290
185 4 2 0 1 179 181 78 76
186 4 2 0 1 205 243 101 142
187 4 2 0 1 177 101 205 309
188 4 2 0 1 336 248 182 257
189 4 2 0 1 259 73 165 160
190 4 2 0 1 354 259 172 91
191 4 2 0 1 172 82 259 335
192 4 2 0 1 103 299 375 135
193 4 2 0 1 165 73 290 160
194 4 2 0 1 158 145 338 288
195 4 2 0 1 202 106 96 183
196 4 2 0 1 202 96 95 183
197 4 2 0 1 66 149 283 366
198 4 2 0 1 237 251 241 231
199 4 2 0 1 55 53 50 231
200 4 2 0 1 75 119 252 120
201 4 2 0 1 230 222 335 165
202 4 2 0 1 139 48 170 342
203 4 2 0 1 69 246 110 125
204 4 2 0 1 46 356 47 350
205 4 2 0 1 372 198 67 320
206 4 2 0 1 67 198 323 208
207 4 2 0 1 155 301 190 237
208 4 2 0 1 187 202 67 95
209 4 2 0 1 188 167 213 142
210 4 2 0 1 177 188 203 142
211 4 2 0 1 188 39 339 167
212 4 2 0 1 30 203 33 34
213 4 2 0 1 30 203 34 28
214 4 2 0 1 177 101 188 142
215 4 2 0 1 203 142 205 177
216 4 2 0 1 167 39 377 188
217 4 2 0 1 88 216 115 215
218 4 2 0 1 84 101 94 189
219 4 2 0 1 150 189 243 182
220 4 2 0 1 189 243 182 84
221 4 2 0 1 199 180 270 124
222 4 2 0 1 236 248 257 182
223 4 2 0 1 151 92 177 205
224 4 2 0 1 239 181 74 179
225 4 2 0 1 196 260 362 379
226 4 2 0 1 144 108 196 244
227 4 2 0 1 330 90 197 229
228 4 2 0 1 197 90 235 87
229 4 2 0 1 184 268 191 284
230 4 2 0 1 310 157 122 129
231 4 2 0 1 157 129 87 122
232 4 2 0 1 198 202 67 320
233 4 2 0 1 320 254 198 202
234 4 2 0 1 173 169 214 321
235 4 2 0 1 220 113 123 266
236 4 2 0 1 351 260 270 124
237 4 2 0 1 270 180 278 65
238 4 2 0 1 180 65 162 278
239 4 2 0 1 373 72 200 251
240 4 2 0 1 199 260 362 196
241 4 2 0 1 227 225 191 268
242 4 2 0 1 268 225 191 284
243 4 2 0 1 237 229 352 90
244 4 2 0 1 155 192 237 190
245 4 2 0 1 237 72 373 251
246 4 2 0 1 237 352 192 155
247 4 2 0 1 123 341 240 184
248 4 2 0 1 240 191 184 341
249 4 2 0 1 194 203 195 289
250 4 2 0 1 139 216 167 377
251 4 2 0 1 220 204 266 123
252 4 2 0 1 377 342 139 216
253 4 2 0 1 94 216 88 287
254 4 2 0 1 169 225 131 78
255 4 2 0 1 227 277 201 225
256 4 2 0 1 100 277 227 225
257 4 2 0 1 131 225 169 164
258 4 2 0 1 284 225 201 78
259 4 2 0 1 169 79 276 164
260 4 2 0 1 268 315 183 184
261 4 2 0 1 334 315 183 268
262 4 2 0 1 194 126 132 242
263 4 2 0 1 209 94 88 175
264 4 2 0 1 84 209 94 101
265 4 2 0 1 249 10 8 13
266 4 2 0 1 347 249 355 256
267 4 2 0 1 347 222 249 256
268 4 2 0 1 121 110 129 157
269 4 2 0 1 115 48 265 156
270 4 2 0 1 228 74 207 300
271 4 2 0 1 228 239 181 74
272 4 2 0 1 83 103 375 135
273 4 2 0 1 75 211 71 174
274 4 2 0 1 318 155 130 212
275 4 2 0 1 33 203 213 34
276 4 2 0 1 273 185 233 141
277 4 2 0 1 263 146 65 223
278 4 2 0 1 132 214 133 168
279 4 2 0 1 173 214 132 126
280 4 2 0 1 216 115 215 170
281 4 2 0 1 215 64 313 238
282 4 2 0 1 186 138 81 332
283 4 2 0 1 73 368 200 231
284 4 2 0 1 231 73 72 200
285 4 2 0 1 154 182 248 236
286 4 2 0 1 111 267 128 112
287 4 2 0 1 98 112 176 267
288 4 2 0 1 233 236 185 344
289 4 2 0 1 98 31 267 324
290 4 2 0 1 74 204 220 123
291 4 2 0 1 300 74 220 123
292 4 2 0 1 153 117 286 118
293 4 2 0 1 149 66 283 206
294 4 2 0 1 207 248 336 257
295 4 2 0 1 220 113 300 123
296 4 2 0 1 108 323 67 372
297 4 2 0 1 312 160 73 200
298 4 2 0 1 381 130 89 134
299 4 2 0 1 381 130 245 89
300 4 2 0 1 69 292 210 310
301 4 2 0 1 92 205 224 255
302 4 2 0 1 334 227 191 268
303 4 2 0 1 200 231 329 251
304 4 2 0 1 200 231 368 42
305 4 2 0 1 92 126 269 173
306 4 2 0 1 46 51 54 47
307 4 2 0 1 87 235 221 297
308 4 2 0 1 120 234 71 80
309 4 2 0 1 120 252 71 234
310 4 2 0 1 156 112 116 111
311 4 2 0 1 221 297 235 146
312 4 2 0 1 145 307 109 218
313 4 2 0 1 218 380 109 145
314 4 2 0 1 82 178 80 127
315 4 2 0 1 130 91 245 89
316 4 2 0 1 98 317 149 31
317 4 2 0 1 317 149 31 366
318 4 2 0 1 366 149 283 317
319 4 2 0 1 348 125 219 261
320 4 2 0 1 256 107 97 306
321 4 2 0 1 256 107 222 249
322 4 2 0 1 226 263 223 146
323 4 2 0 1 212 110 318 155
324 4 2 0 1 114 212 125 110
325 4 2 0 1 65 223 162 263
326 4 2 0 1 207 336 228 300
327 4 2 0 1 243 228 255 150
328 4 2 0 1 158 145 77 338
329 4 2 0 1 207 248 228 336
330 4 2 0 1 210 233 141 310
331 4 2 0 1 295 230 73 290
332 4 2 0 1 165 230 290 73
333 4 2 0 1 230 335 222 306
334 4 2 0 1 182 228 243 150
335 4 2 0 1 197 90 87 229
336 4 2 0 1 330 241 229 251
337 4 2 0 1 105 8 249 10
338 4 2 0 1 105 249 367 253
339 4 2 0 1 67 95 198 208
340 4 2 0 1 84 369 154 189
341 4 2 0 1 152 250 171 298
342 4 2 0 1 74 239 179 123
343 4 2 0 1 228 300 239 74
344 4 2 0 1 306 222 230 256
345 4 2 0 1 184 183 187 315
346 4 2 0 1 184 123 193 204
347 4 2 0 1 5 136 4 1
348 4 2 0 1 90 305 235 87
349 4 2 0 1 87 235 197 221
350 4 2 0 1 147 293 253 107
351 4 2 0 1 70 99 134 137
352 4 2 0 1 241 251 365 231
353 4 2 0 1 330 90 229 241
354 4 2 0 1 185 248 257 236
355 4 2 0 1 332 154 81 186
356 4 2 0 1 251 352 373 237
357 4 2 0 1 238 219 258 116
358 4 2 0 1 332 210 81 141
359 4 2 0 1 238 64 258 219
360 4 2 0 1 1 136 2 5
361 4 2 0 1 355 256 345 347
362 4 2 0 1 249 107 271 256
363 4 2 0 1 293 202 254 320
364 4 2 0 1 222 256 347 345
365 4 2 0 1 345 347 222 325
366 4 2 0 1 256 230 345 222
367 4 2 0 1 325 230 165 222
368 4 2 0 1 345 222 230 325
369 4 2 0 1 242 168 132 331
370 4 2 0 1 195 291 242 194
371 4 2 0 1 194 242 132 291
372 4 2 0 1 78 201 284 179
373 4 2 0 1 198 254 95 202
374 4 2 0 1 243 142 209 101
375 4 2 0 1 254 1 136 328
376 4 2 0 1 75 119 174 252
377 4 2 0 1 227 174 119 252
378 4 2 0 1 285 217 360 264
379 4 2 0 1 285 308 217 264
380 4 2 0 1 212 121 246 110
381 4 2 0 1 271 107 97 256
382 4 2 0 1 176 265 303 128
383 4 2 0 1 128 267 324 176
384 4 2 0 1 98 176 324 267
385 4 2 0 1 99 83 250 171
386 4 2 0 1 105 271 249 253
387 4 2 0 1 134 250 171 99
388 4 2 0 1 96 202 254 293
389 4 2 0 1 245 190 155 301
390 4 2 0 1 348 125 238 219
391 4 2 0 1 343 125 219 238
392 4 2 0 1 149 247 31 366
393 4 2 0 1 366 247 66 149
394 4 2 0 1 260 108 196 144
395 4 2 0 1 237 251 231 72
396 4 2 0 1 241 229 251 237
397 4 2 0 1 124 260 199 196
398 4 2 0 1 199 270 260 124
399 4 2 0 1 284 201 191 240
400 4 2 0 1 191 225 201 284
401 4 2 0 1 308 316 217 264
402 4 2 0 1 243 255 205 309
403 4 2 0 1 105 253 367 254
404 4 2 0 1 90 197 235 333
405 4 2 0 1 218 307 280 164
406 4 2 0 1 273 185 374 344
407 4 2 0 1 273 374 104 344
408 4 2 0 1 136 254 105 1
409 4 2 0 1 207 257 336 113
410 4 2 0 1 116 156 111 258
411 4 2 0 1 238 258 313 116
412 4 2 0 1 238 64 313 258
413 4 2 0 1 144 260 124 196
414 4 2 0 1 217 350 264 27
415 4 2 0 1 99 83 171 304
416 4 2 0 1 217 40 350 36
417 4 2 0 1 134 171 137 99
418 4 2 0 1 259 82 127 178
419 4 2 0 1 213 142 203 188
420 4 2 0 1 124 143 85 266
421 4 2 0 1 276 280 118 153
422 4 2 0 1 92 181 358 272
423 4 2 0 1 150 255 181 228
424 4 2 0 1 238 343 282 219
425 4 2 0 1 232 143 86 124
426 4 2 0 1 236 154 182 359
427 4 2 0 1 194 289 195 291
428 4 2 0 1 122 68 87 157
429 4 2 0 1 210 81 141 233
430 4 2 0 1 274 261 140 111
431 4 2 0 1 261 125 219 274
432 4 2 0 1 261 219 111 274
433 4 2 0 1 118 262 66 206
434 4 2 0 1 286 262 118 117
435 4 2 0 1 58 346 49 56
436 4 2 0 1 153 117 133 286
437 4 2 0 1 153 133 331 286
438 4 2 0 1 117 276 118 153
439 4 2 0 1 264 316 217 27
440 4 2 0 1 200 72 231 251
441 4 2 0 1 195 203 194 151
442 4 2 0 1 296 151 177 203
443 4 2 0 1 108 148 208 244
444 4 2 0 1 108 379 260 196
445 4 2 0 1 381 130 318 245
446 4 2 0 1 70 114 381 212
447 4 2 0 1 226 221 357 146
448 4 2 0 1 58 226 56 61
449 4 2 0 1 370 381 318 245
450 4 2 0 1 212 110 114 318
451 4 2 0 1 92 272 150 181
452 4 2 0 1 150 228 181 74
453 4 2 0 1 217 40 47 350
454 4 2 0 1 263 162 65 278
455 4 2 0 1 58 226 346 56
456 4 2 0 1 346 263 223 226
457 4 2 0 1 201 225 169 78
458 4 2 0 1 78 169 201 76
459 4 2 0 1 269 169 78 76
460 4 2 0 1 92 269 358 76
461 4 2 0 1 169 131 269 78
462 4 2 0 1 116 219 111 261
463 4 2 0 1 81 185 332 141
464 4 2 0 1 266 143 220 113
465 4 2 0 1 86 180 270 65
466 4 2 0 1 46 47 40 350
467 4 2 0 1 204 123 193 266
468 4 2 0 1 244 108 196 379
469 4 2 0 1 374 232 86 65
470 4 2 0 1 249 271 355 256
471 4 2 0 1 105 249 271 10
472 4 2 0 1 272 181 78 74
473 4 2 0 1 272 74 150 181
474 4 2 0 1 102 273 104 68
475 4 2 0 1 273 102 122 68
476 4 2 0 1 275 15 22 27
477 4 2 0 1 276 133 153 117
478 4 2 0 1 169 79 164 277
479 4 2 0 1 277 169 201 225
480 4 2 0 1 164 169 277 225
481 4 2 0 1 188 167 339 213
482 4 2 0 1 177 188 296 203
483 4 2 0 1 138 64 215 238
484 4 2 0 1 162 278 340 294
485 4 2 0 1 270 180 199 278
486 4 2 0 1 180 278 162 294
487 4 2 0 1 81 236 185 233
488 4 2 0 1 141 185 233 81
489 4 2 0 1 98 149 279 31
490 4 2 0 1 149 279 31 247
491 4 2 0 1 175 186 64 138
492 4 2 0 1 267 279 31 98
493 4 2 0 1 182 248 228 150
494 4 2 0 1 281 15 11 19
495 4 2 0 1 238 64 282 138
496 4 2 0 1 138 64 282 186
497 4 2 0 1 238 282 64 219
498 4 2 0 1 66 283 262 366
499 4 2 0 1 283 66 262 206
500 4 2 0 1 27 283 22 29
501 4 2 0 1 179 240 284 74
502 4 2 0 1 74 181 78 179
503 4 2 0 1 262 15 281 19
504 4 2 0 1 78 179 284 74
505 4 2 0 1 48 139 54 51
506 4 2 0 1 51 48 139 45
507 4 2 0 1 20 285 302 30
508 4 2 0 1 262 286 118 66
509 4 2 0 1 286 117 133 281
510 4 2 0 1 286 133 331 281
511 4 2 0 1 102 374 104 273
512 4 2 0 1 289 203 30 28
513 4 2 0 1 289 28 30 21
514 4 2 0 1 276 133 168 153
515 4 2 0 1 214 321 168 126
516 4 2 0 1 214 276 133 168
517 4 2 0 1 263 223 162 340
518 4 2 0 1 334 252 119 382
519 4 2 0 1 119 268 334 183
520 4 2 0 1 98 149 288 279
521 4 2 0 1 158 288 267 98
522 4 2 0 1 267 288 279 98
523 4 2 0 1 14 308 302 20
524 4 2 0 1 122 68 157 292
525 4 2 0 1 292 233 310 273
526 4 2 0 1 374 371 86 232
527 4 2 0 1 293 105 254 253
528 4 2 0 1 105 293 271 253
529 4 2 0 1 32 295 26 38
530 4 2 0 1 345 230 295 290
531 4 2 0 1 268 191 315 184
532 4 2 0 1 334 191 315 268
533 4 2 0 1 33 203 30 296
534 4 2 0 1 298 82 127 89
535 4 2 0 1 152 127 298 82
536 4 2 0 1 102 104 297 68
537 4 2 0 1 277 79 100 174
538 4 2 0 1 329 42 231 200
539 4 2 0 1 42 231 50 53
540 4 2 0 1 274 77 140 70
541 4 2 0 1 70 261 140 274
542 4 2 0 1 125 219 274 363
543 4 2 0 1 299 211 79 103
544 4 2 0 1 211 299 79 100
545 4 2 0 1 300 74 207 220
546 4 2 0 1 207 113 300 220
547 4 2 0 1 300 123 239 74
548 4 2 0 1 354 172 72 301
549 4 2 0 1 203 188 33 213
550 4 2 0 1 33 188 203 296
551 4 2 0 1 28 302 30 21
552 4 2 0 1 285 308 337 217
553 4 2 0 1 303 265 40 46
554 4 2 0 1 176 303 324 128
555 4 2 0 1 380 304 376 145
556 4 2 0 1 242 331 132 353
557 4 2 0 1 281 11 18 19
558 4 2 0 1 163 83 152 250
559 4 2 0 1 152 83 171 250
560 4 2 0 1 15 262 27 19
561 4 2 0 1 15 22 27 262
562 4 2 0 1 153 118 66 307
563 4 2 0 1 122 68 305 87
564 4 2 0 1 102 68 305 122
565 4 2 0 1 328 254 198 320
566 4 2 0 1 136 320 2 5
567 4 2 0 1 136 320 254 328
568 4 2 0 1 195 203 151 296
569 4 2 0 1 30 302 337 285
570 4 2 0 1 11 15 316 349
571 4 2 0 1 285 20 308 18
572 4 2 0 1 229 90 87 352
573 4 2 0 1 129 237 352 90
574 4 2 0 1 92 181 150 255
575 4 2 0 1 92 255 224 181
576 4 2 0 1 311 90 330 241
577 4 2 0 1 374 104 232 319
578 4 2 0 1 121 129 110 155
579 4 2 0 1 314 377 167 39
580 4 2 0 1 165 335 230 73
581 4 2 0 1 259 335 165 73
582 4 2 0 1 172 335 259 73
583 4 2 0 1 59 62 55 330
584 4 2 0 1 365 330 251 241
585 4 2 0 1 365 311 330 241
586 4 2 0 1 42 368 38 50
587 4 2 0 1 368 231 50 42
588 4 2 0 1 368 312 73 200
589 4 2 0 1 215 170 115 313
590 4 2 0 1 115 170 156 313
591 4 2 0 1 150 189 309 243
592 4 2 0 1 189 101 243 84
593 4 2 0 1 43 45 51 314
594 4 2 0 1 314 139 45 51
595 4 2 0 1 96 315 95 183
596 4 2 0 1 316 349 15 27
597 4 2 0 1 316 15 275 27
598 4 2 0 1 30 21 20 289
599 4 2 0 1 302 20 308 285
600 4 2 0 1 98 361 317 31
601 4 2 0 1 361 317 31 27
602 4 2 0 1 27 317 283 29
603 4 2 0 1 306 82 178 80
604 4 2 0 1 319 374 104 102
605 4 2 0 1 102 104 319 297
606 4 2 0 1 131 164 169 276
607 4 2 0 1 97 322 234 107
608 4 2 0 1 370 137 114 70
609 4 2 0 1 97 322 107 147
610 4 2 0 1 244 208 108 323
611 4 2 0 1 31 324 98 361
612 4 2 0 1 98 176 361 324
613 4 2 0 1 321 276 168 153
614 4 2 0 1 276 321 168 214
615 4 2 0 1 105 249 8 367
616 4 2 0 1 105 367 8 3
617 4 2 0 1 313 258 156 116
618 4 2 0 1 313 64 156 258
619 4 2 0 1 139 48 342 45
620 4 2 0 1 62 333 60 63
621 4 2 0 1 62 333 63 197
622 4 2 0 1 235 221 357 197
623 4 2 0 1 16 244 12 23
624 4 2 0 1 244 16 379 23
625 4 2 0 1 37 52 49 294
626 4 2 0 1 294 278 49 37
627 4 2 0 1 180 278 294 199
628 4 2 0 1 112 156 116 326
629 4 2 0 1 156 326 313 116
630 4 2 0 1 327 307 206 109
631 4 2 0 1 247 327 66 149
632 4 2 0 1 328 1 136 2
633 4 2 0 1 2 328 198 320
634 4 2 0 1 136 320 328 2
635 4 2 0 1 240 284 201 179
636 4 2 0 1 139 342 170 216
637 4 2 0 1 88 139 115 216
638 4 2 0 1 48 265 303 46
639 4 2 0 1 46 54 48 265
640 4 2 0 1 290 73 295 312
641 4 2 0 1 329 231 365 251
642 4 2 0 1 53 42 231 329
643 4 2 0 1 305 68 297 87
644 4 2 0 1 102 68 297 305
645 4 2 0 1 262 283 22 27
646 4 2 0 1 333 90 197 330
647 4 2 0 1 200 73 72 354
648 4 2 0 1 200 160 73 354
649 4 2 0 1 354 73 72 172
650 4 2 0 1 160 259 73 354
651 4 2 0 1 73 259 172 354
652 4 2 0 1 332 159 210 141
653 4 2 0 1 361 31 324 36
654 4 2 0 1 294 52 49 340
655 4 2 0 1 263 340 346 223
656 4 2 0 1 340 278 49 294
657 4 2 0 1 278 162 340 263
658 4 2 0 1 62 333 59 60
659 4 2 0 1 333 197 235 357
660 4 2 0 1 322 106 147 97
661 4 2 0 1 32 290 24 26
662 4 2 0 1 295 312 73 368
663 4 2 0 1 26 290 295 32
664 4 2 0 1 96 334 315 183
665 4 2 0 1 40 44 176 361
666 4 2 0 1 35 36 361 44
667 4 2 0 1 335 82 178 306
668 4 2 0 1 360 45 43 33
669 4 2 0 1 30 302 34 337
670 4 2 0 1 106 119 96 183
671 4 2 0 1 92 255 150 309
672 4 2 0 1 243 255 309 150
673 4 2 0 1 339 213 34 33
674 4 2 0 1 43 339 34 33
675 4 2 0 1 281 11 14 18
676 4 2 0 1 123 193 341 184
677 4 2 0 1 23 379 25 16
678 4 2 0 1 246 110 157 69
679 4 2 0 1 153 321 276 164
680 4 2 0 1 276 280 153 164
681 4 2 0 1 12 372 9 7
682 4 2 0 1 12 372 16 9
683 4 2 0 1 244 12 372 16
684 4 2 0 1 7 323 12 372
685 4 2 0 1 244 323 372 12
686 4 2 0 1 314 139 167 377
687 4 2 0 1 270 180 86 124
688 4 2 0 1 85 270 86 124
689 4 2 0 1 56 49 52 346
690 4 2 0 1 49 340 52 346
691 4 2 0 1 278 263 340 49
692 4 2 0 1 110 69 310 157
693 4 2 0 1 310 292 157 69
694 4 2 0 1 210 233 310 292
695 4 2 0 1 365 231 53 55
696 4 2 0 1 365 55 53 57
697 4 2 0 1 329 231 53 365
698 4 2 0 1 363 125 219 343
699 4 2 0 1 343 159 219 363
700 4 2 0 1 378 94 88 209
701 4 2 0 1 209 378 94 101
702 4 2 0 1 216 94 88 378
703 4 2 0 1 59 62 330 333
704 4 2 0 1 321 131 276 164
705 4 2 0 1 67 95 208 187
706 4 2 0 1 108 187 67 208
707 4 2 0 1 138 210 81 332
708 4 2 0 1 332 138 210 159
709 4 2 0 1 37 362 41 294
710 4 2 0 1 310 233 141 273
711 4 2 0 1 32 368 295 38
712 4 2 0 1 32 368 38 42
713 4 2 0 1 312 368 32 42
714 4 2 0 1 290 295 32 312
715 4 2 0 1 295 312 368 32
716 4 2 0 1 71 152 75 120
717 4 2 0 1 58 263 49 346
718 4 2 0 1 263 340 49 346
719 4 2 0 1 24 325 13 17
720 4 2 0 1 325 345 17 26
721 4 2 0 1 75 100 211 174
722 4 2 0 1 75 299 211 100
723 4 2 0 1 137 77 274 70
724 4 2 0 1 217 44 40 36
725 4 2 0 1 217 275 35 27
726 4 2 0 1 109 118 280 307
727 4 2 0 1 307 118 280 153
728 4 2 0 1 357 61 60 63
729 4 2 0 1 60 357 58 61
730 4 2 0 1 333 357 60 63
731 4 2 0 1 116 348 219 261
732 4 2 0 1 116 348 238 219
733 4 2 0 1 57 62 330 55
734 4 2 0 1 311 90 333 330
735 4 2 0 1 55 311 59 330
736 4 2 0 1 78 201 179 76
737 4 2 0 1 19 18 349 11
738 4 2 0 1 316 18 11 349
739 4 2 0 1 237 192 373 190
740 4 2 0 1 373 352 192 237
741 4 2 0 1 2 320 9 5
742 4 2 0 1 9 7 320 2
743 4 2 0 1 7 198 320 2
744 4 2 0 1 352 129 90 87
745 4 2 0 1 129 87 305 90
746 4 2 0 1 269 321 173 126
747 4 2 0 1 173 321 214 126
748 4 2 0 1 290 325 24 26
749 4 2 0 1 17 325 26 24
750 4 2 0 1 331 281 18 19
751 4 2 0 1 286 117 281 262
752 4 2 0 1 286 281 331 19
753 4 2 0 1 187 315 95 193
754 4 2 0 1 315 183 187 95
755 4 2 0 1 93 108 351 144
756 4 2 0 1 30 289 20 195
757 4 2 0 1 195 203 30 289
758 4 2 0 1 195 289 20 291
759 4 2 0 1 30 203 195 296
760 4 2 0 1 83 103 135 380
761 4 2 0 1 218 299 380 145
762 4 2 0 1 356 217 47 350
763 4 2 0 1 197 61 357 63
764 4 2 0 1 333 197 357 63
765 4 2 0 1 243 209 84 101
766 4 2 0 1 217 44 36 35
767 4 2 0 1 299 164 79 100
768 4 2 0 1 287 215 175 64
769 4 2 0 1 287 186 64 175
770 4 2 0 1 218 280 79 164
771 4 2 0 1 276 79 280 164
772 4 2 0 1 331 281 132 353
773 4 2 0 1 146 102 65 223
774 4 2 0 1 338 145 279 288
775 4 2 0 1 381 370 114 70
776 4 2 0 1 114 212 318 381
777 4 2 0 1 134 137 370 70
778 4 2 0 1 381 134 370 70
779 4 2 0 1 309 189 101 243
780 4 2 0 1 271 107 249 253
781 4 2 0 1 271 293 107 253
782 4 2 0 1 260 362 270 199
783 4 2 0 1 362 278 294 37
784 4 2 0 1 357 226 58 61
785 4 2 0 1 62 333 197 330
786 4 2 0 1 311 333 59 330
787 4 2 0 1 185 248 166 257
788 4 2 0 1 176 265 40 303
789 4 2 0 1 176 303 40 324
790 4 2 0 1 308 316 264 18
791 4 2 0 1 285 308 264 18
792 4 2 0 1 264 18 316 349
793 4 2 0 1 144 266 124 351
794 4 2 0 1 93 148 108 144
795 4 2 0 1 85 351 270 124
796 4 2 0 1 113 166 257 143
797 4 2 0 1 185 166 344 257
798 4 2 0 1 14 353 18 20
799 4 2 0 1 353 281 14 18
800 4 2 0 1 291 353 14 20
801 4 2 0 1 195 20 242 291
802 4 2 0 1 291 242 132 353
803 4 2 0 1 199 362 41 23
804 4 2 0 1 41 362 25 23
805 4 2 0 1 362 37 41 25
806 4 2 0 1 362 199 41 294
807 4 2 0 1 290 345 325 26
808 4 2 0 1 26 345 295 290
809 4 2 0 1 187 148 208 108
810 4 2 0 1 317 366 31 27
811 4 2 0 1 27 366 283 317
812 4 2 0 1 335 82 259 178
813 4 2 0 1 65 374 232 319
814 4 2 0 1 319 65 374 102
815 4 2 0 1 190 301 91 354
816 4 2 0 1 13 249 10 355
817 4 2 0 1 10 355 17 13
818 4 2 0 1 249 271 10 355
819 4 2 0 1 58 263 346 226
820 4 2 0 1 46 51 47 356
821 4 2 0 1 46 51 356 45
822 4 2 0 1 45 51 356 43
823 4 2 0 1 67 198 372 323
824 4 2 0 1 226 146 357 58
825 4 2 0 1 375 152 75 71
826 4 2 0 1 375 71 163 152
827 4 2 0 1 375 211 71 75
828 4 2 0 1 358 76 78 181
829 4 2 0 1 358 181 78 272
830 4 2 0 1 358 269 78 76
831 4 2 0 1 217 36 350 27
832 4 2 0 1 217 35 36 27
833 4 2 0 1 164 79 100 277
834 4 2 0 1 100 164 277 225
835 4 2 0 1 154 189 248 182
836 4 2 0 1 356 217 350 360
837 4 2 0 1 337 217 356 360
838 4 2 0 1 176 40 265 44
839 4 2 0 1 44 40 265 47
840 4 2 0 1 40 361 36 44
841 4 2 0 1 72 190 354 301
842 4 2 0 1 154 84 182 359
843 4 2 0 1 154 189 182 84
844 4 2 0 1 75 100 174 119
845 4 2 0 1 227 174 100 119
846 4 2 0 1 137 304 77 99
847 4 2 0 1 99 83 304 376
848 4 2 0 1 301 72 190 237
849 4 2 0 1 42 312 368 200
850 4 2 0 1 241 365 55 231
851 4 2 0 1 57 330 365 55
852 4 2 0 1 55 311 365 241
853 4 2 0 1 55 311 330 365
854 4 2 0 1 14 11 308 18
855 4 2 0 1 36 324 361 40
856 4 2 0 1 361 176 40 324
857 4 2 0 1 307 206 118 66
858 4 2 0 1 149 66 206 327
859 4 2 0 1 327 66 206 307
860 4 2 0 1 92 269 76 173
861 4 2 0 1 76 169 173 269
862 4 2 0 1 337 43 34 33
863 4 2 0 1 362 278 270 199
864 4 2 0 1 80 163 152 127
865 4 2 0 1 82 80 152 127
866 4 2 0 1 163 71 80 152
867 4 2 0 1 110 363 159 69
868 4 2 0 1 114 110 125 363
869 4 2 0 1 363 69 110 125
870 4 2 0 1 288 364 145 279
871 4 2 0 1 364 145 279 327
872 4 2 0 1 145 109 307 327
873 4 2 0 1 366 286 262 66
874 4 2 0 1 286 262 281 19
875 4 2 0 1 115 54 265 48
876 4 2 0 1 94 175 84 186
877 4 2 0 1 209 94 175 84
878 4 2 0 1 364 327 206 109
879 4 2 0 1 145 161 109 364
880 4 2 0 1 145 327 364 109
881 4 2 0 1 110 157 310 129
882 4 2 0 1 29 275 22 27
883 4 2 0 1 377 139 45 314
884 4 2 0 1 156 326 115 313
885 4 2 0 1 158 140 338 77
886 4 2 0 1 111 77 338 140
887 4 2 0 1 207 113 336 300
888 4 2 0 1 166 248 207 257
889 4 2 0 1 343 282 159 138
890 4 2 0 1 343 159 282 219
891 4 2 0 1 364 327 279 149
892 4 2 0 1 29 27 361 35
893 4 2 0 1 29 317 361 27
894 4 2 0 1 158 145 376 77
895 4 2 0 1 158 99 140 77
896 4 2 0 1 335 222 178 165
897 4 2 0 1 306 335 222 178
898 4 2 0 1 74 123 184 204
899 4 2 0 1 284 240 184 74
900 4 2 0 1 240 123 184 74
901 4 2 0 1 151 205 224 92
902 4 2 0 1 151 224 126 92
903 4 2 0 1 92 126 173 224
904 4 2 0 1 13 249 355 347
905 4 2 0 1 355 347 17 13
906 4 2 0 1 325 347 13 17
907 4 2 0 1 262 366 27 19
908 4 2 0 1 366 283 262 27
909 4 2 0 1 105 3 1 367
910 4 2 0 1 362 294 278 199
911 4 2 0 1 343 138 159 69
912 4 2 0 1 69 210 138 159
913 4 2 0 1 273 233 104 68
914 4 2 0 1 292 273 122 68
915 4 2 0 1 292 233 273 68
916 4 2 0 1 221 61 357 197
917 4 2 0 1 221 226 357 61
918 4 2 0 1 233 344 185 273
919 4 2 0 1 184 191 315 341
920 4 2 0 1 70 212 125 114
921 4 2 0 1 369 94 84 186
922 4 2 0 1 84 94 369 189
923 4 2 0 1 292 310 122 273
924 4 2 0 1 376 145 158 161
925 4 2 0 1 376 304 77 145
926 4 2 0 1 99 376 304 77
927 4 2 0 1 100 268 227 119
928 4 2 0 1 100 225 227 268
929 4 2 0 1 85 143 166 220
930 4 2 0 1 266 143 85 220
931 4 2 0 1 196 362 199 23
932 4 2 0 1 94 88 175 287
933 4 2 0 1 88 287 215 175
934 4 2 0 1 14 18 308 20
935 4 2 0 1 245 89 370 381
936 4 2 0 1 89 137 370 134
937 4 2 0 1 381 89 370 134
938 4 2 0 1 204 93 85 266
939 4 2 0 1 220 204 85 266
940 4 2 0 1 285 337 360 217
941 4 2 0 1 33 337 43 360
942 4 2 0 1 150 207 228 74
943 4 2 0 1 207 248 150 228
944 4 2 0 1 371 374 104 232
945 4 2 0 1 371 344 104 374
946 4 2 0 1 48 170 115 139
947 4 2 0 1 196 379 362 23
948 4 2 0 1 362 379 25 23
949 4 2 0 1 244 379 196 23
950 4 2 0 1 105 367 1 254
951 4 2 0 1 9 7 372 320
952 4 2 0 1 190 72 200 373
953 4 2 0 1 237 72 190 373
954 4 2 0 1 234 178 71 80
955 4 2 0 1 163 71 178 80
956 4 2 0 1 217 316 275 27
957 4 2 0 1 11 316 308 18
958 4 2 0 1 114 381 318 370
959 4 2 0 1 306 97 234 107
960 4 2 0 1 256 107 306 222
961 4 2 0 1 103 380 299 135
962 4 2 0 1 83 304 376 380
963 4 2 0 1 135 83 380 304
964 4 2 0 1 93 204 193 266
965 4 2 0 1 31 361 27 36
966 4 2 0 1 163 178 127 80
967 4 2 0 1 314 39 43 45
968 4 2 0 1 45 377 314 39
969 4 2 0 1 45 342 139 377
970 4 2 0 1 188 39 33 339
971 4 2 0 1 33 43 339 39
972 4 2 0 1 188 339 33 213
973 4 2 0 1 120 97 234 80
974 4 2 0 1 97 306 234 80
975 4 2 0 1 371 143 86 232
976 4 2 0 1 166 371 374 344
977 4 2 0 1 344 166 143 257
978 4 2 0 1 69 125 363 343
979 4 2 0 1 343 159 363 69
980 4 2 0 1 158 376 99 77
981 4 2 0 1 155 352 121 129
982 4 2 0 1 352 121 192 155
983 4 2 0 1 185 154 248 236
984 4 2 0 1 185 154 81 332
985 4 2 0 1 81 154 185 236
986 4 2 0 1 167 39 43 314
987 4 2 0 1 339 43 167 39
988 4 2 0 1 21 14 20 291
989 4 2 0 1 21 302 30 20
990 4 2 0 1 167 378 88 209
991 4 2 0 1 216 378 88 167
992 4 2 0 1 88 167 139 216
993 4 2 0 1 125 363 274 114
994 4 2 0 1 261 125 274 70
995 4 2 0 1 125 114 274 70
996 4 2 0 1 138 282 159 332
997 4 2 0 1 175 186 81 84
998 4 2 0 1 81 154 84 186
999 4 2 0 1 81 84 154 359
1000 4 2 0 1 382 106 96 147
1001 4 2 0 1 322 120 382 106
1002 4 2 0 1 382 106 147 322
1003 4 2 0 1 96 382 119 106
1004 4 2 0 1 19 286 262 366
1005 4 2 0 1 289 21 20 291
1006 4 2 0 1 167 377 378 188
1007 4 2 0 1 33 337 360 285
1008 4 2 0 1 108 16 379 244
1009 4 2 0 1 108 244 372 16
1010 4 2 0 1 267 158 112 338
1011 4 2 0 1 267 288 158 338
1012 4 2 0 1 93 193 184 187
1013 4 2 0 1 184 204 193 93
1014 4 2 0 1 152 250 298 127
1015 4 2 0 1 134 127 298 250
1016 4 2 0 1 353 331 18 20
1017 4 2 0 1 242 331 353 20
1018 4 2 0 1 291 242 353 20
1019 4 2 0 1 166 143 371 344
1020 4 2 0 1 166 374 371 86
1021 4 2 0 1 337 302 308 285
1022 4 2 0 1 87 129 157 352
1023 4 2 0 1 85 86 166 143
1024 4 2 0 1 7 198 372 320
1025 4 2 0 1 372 198 7 323
1026 4 2 0 1 209 142 378 101
1027 4 2 0 1 142 188 378 101
1028 4 2 0 1 331 281 353 18
1029 4 2 0 1 88 216 215 287
1030 4 2 0 1 287 170 215 64
1031 4 2 0 1 215 64 170 313
1032 4 2 0 1 170 64 156 313
1033 4 2 0 1 172 82 89 91
1034 4 2 0 1 259 82 172 91
1035 4 2 0 1 85 266 93 351
1036 4 2 0 1 266 93 351 144
1037 4 2 0 1 45 43 356 360
1038 4 2 0 1 134 298 171 250
1039 4 2 0 1 89 298 171 134
1040 4 2 0 1 89 171 137 134
1041 4 2 0 1 307 153 280 164
1042 4 2 0 1 217 47 40 44
1043 4 2 0 1 46 47 54 265
1044 4 2 0 1 46 47 265 40
1045 4 2 0 1 109 280 79 218
1046 4 2 0 1 79 109 218 103
1047 4 2 0 1 299 103 79 218
1048 4 2 0 1 119 183 334 96
1049 4 2 0 1 120 119 382 106
1050 4 2 0 1 334 382 119 96
1051 4 2 0 1 97 120 322 106
1052 4 2 0 1 120 322 234 97
1053 4 2 0 1 147 106 293 97
1054 4 2 0 1 147 293 96 253
1055 4 2 0 1 106 202 96 293
1056 4 2 0 1 355 345 17 347
1057 4 2 0 1 325 345 347 17
1058 4 2 0 1 102 223 146 297
1059 4 2 0 1 226 146 223 297
1060 4 2 0 1 381 318 130 212
1061 4 2 0 1 130 190 155 245
1062 4 2 0 1 130 190 245 91
1063 4 2 0 1 130 155 190 192
1064 4 2 0 1 37 294 41 52
1065 4 2 0 1 45 356 46 350
1066 4 2 0 1 45 356 350 360
1067 4 2 0 1 337 356 43 360
1068 4 2 0 1 103 299 211 375
1069 4 2 0 1 299 211 375 75
1070 4 2 0 1 264 349 316 27
1071 4 2 0 1 216 287 170 215
1072 4 2 0 1 380 304 299 135
1073 4 2 0 1 76 224 181 92
1074 4 2 0 1 76 173 224 92
1075 4 2 0 1 293 320 254 136
$EndElements
