$MeshFormat
2.2 0 8
$EndMeshFormat
$Nodes
548
1 -0.003203745232895017 0.06934406608343124 0.0125630795955658
2 -0.002600220963358879 0.0693545863032341 0.02347273752093315
3 -0.003214351832866669 0.06934390962123871 0.007508209440857172
4 -0.001468387665227056 0.06728479266166687 0.00840328074991703
5 -0.0009463864844292402 0.06659633666276932 0.02508914656937122
6 -0.0008239999879151583 0.06371200084686279 0.008616000413894653
7 0.0009079342125914991 0.0694158747792244 0.006598059087991714
8 0.0009342487319372594 0.0658537819981575 0.02472095005214214
9 6.331803888315335e-05 0.06778120249509811 0.007997924461960793
10 -1.413147492712596e-05 0.06143011152744293 0.0139792300760746
11 0.0008090238552540541 0.06715012341737747 0.01675621047616005
12 0.001051255268976092 0.0656278133392334 0.01266503427177668
13 0.000961276120506227 0.06477875262498856 0.008217142894864082
14 0.02208471111953259 0.01492963638156652 0.01222367584705353
15 0.0009072129614651203 0.06941582262516022 0.01345214247703552
16 0.01172566507011652 0.008175008930265903 0.01847175508737564
17 0.001193000003695488 0.05878899991512299 0.02501199953258038
18 0.001147478818893433 0.05516934022307396 0.008925752714276314
19 0.02345829084515572 0.03229941055178642 0.01308072544634342
20 0.00119387882295996 0.06469523906707764 0.01965473778545856
21 0.0009271237067878246 0.0570983961224556 0.01926304586231709
22 0.0009663657401688397 0.06267382204532623 0.02534715086221695
23 0.001664451090618968 0.06390394270420074 0.01535596698522568
24 0.002249699784442782 0.06218011304736137 0.02323059551417828
25 0.002762077143415809 0.05667994543910027 0.008443553000688553
26 0.002702172612771392 0.06002023443579674 0.02522840350866318
27 0.002558401320129633 0.05076240748167038 0.01347229070961475
28 0.0089677469804883 0.02522207424044609 0.01726870611310005
29 0.00287055317312479 0.06190993264317513 0.009650241583585739
30 0.02150866389274597 0.01127768866717815 0.01588502340018749
31 0.02178091369569302 0.02082066424190998 0.007454414386302233
32 0.002044966211542487 0.06065838038921356 0.008276238106191158
33 0.002164639299735427 0.06240592524409294 0.01183705404400826
34 0.002843096386641264 0.05904411152005196 0.02407642640173435
35 0.002399667166173458 0.05198369547724724 0.02443584799766541
36 0.003012581961229444 0.05756674706935883 0.01716625690460205
37 0.01661130040884018 0.003132253652438521 0.01541404332965612
38 0.01637245900928974 0.007042917422950268 0.01711741648614407
39 0.003191596362739801 0.05445728823542595 0.02460641041398048
40 0.002927682362496853 0.05894530564546585 0.01230881735682487
41 0.003200999926775694 0.04660199955105782 0.009448999539017677
42 0.003233112394809723 0.05981523543596268 0.009935934096574783
43 0.008428538218140602 0.02639681287109852 0.02026114799082279
44 0.003379012225195765 0.05548065528273582 0.02170227654278278
45 0.003790565300732851 0.0597558505833149 0.01825110614299774
46 0.01827755011618137 0.007341078482568264 0.01272670086473227
47 0.02181912399828434 0.01759137213230133 0.02382463589310646
48 -0.000612545816693455 0.06372250616550446 0.02114241570234299
49 0.003588938619941473 0.05537946149706841 0.01564011350274086
50 0.004327719565480947 0.05129954218864441 0.008865625597536564
51 0.002848558127880096 0.0491873137652874 0.0198958981782198
52 0.004476472269743681 0.05116325244307518 0.02422811649739742
53 0.003974498249590397 0.04876038432121277 0.008386893197894096
54 0.02140881679952145 0.005154040642082691 0.0137298833578825
55 0.004378892481327057 0.04350052773952484 0.01891780085861683
56 0.004245417192578316 0.04460538923740387 0.0140864048153162
57 0.008992768824100494 0.02555422484874725 0.02194998040795326
58 0.00531823793426156 0.03974342718720436 0.01325909793376923
59 0.01379698421806097 0.001349053345620632 0.0137900672852993
60 0.004220879636704922 0.04753562062978745 0.02441559545695782
61 0.009085862897336483 0.05961900949478149 0.02012773044407368
62 0.01070690713822842 0.01777081936597824 0.01679827831685543
63 -0.001161865191534162 0.06937969475984573 0.009626623243093491
64 -0.001528370659798384 0.06646866351366043 0.01398286409676075
65 0.02306942827999592 0.02893104031682014 0.01461470685899258
66 0.004303102381527424 0.05241945013403893 0.02288716100156307
67 0.003754941280931234 0.06220481917262077 0.01574978977441788
68 0.004290604498237371 0.04348677396774292 0.02326156385242939
69 0.004778936970978975 0.0599578395485878 0.0140561955049634
70 0.01484202314168215 0.008124889805912971 0.01121616456657648
71 0.02534410730004311 0.05137802287936211 0.02458845637738705
72 0.001742762513458729 0.05393040180206299 0.01636766828596592
73 0.02428440749645233 0.04073404893279076 0.01950899511575699
74 0.004434744827449322 0.05310104042291641 0.01864747703075409
75 0.002120131393894553 0.05237136781215668 0.01966474018990993
76 0.004732770379632711 0.06256053596735001 0.01864438503980637
77 0.005000395234674215 0.05251158401370049 0.01082333084195852
78 0.005543568637222052 0.0462854877114296 0.02203757874667645
79 0.02180007286369801 0.0120718153193593 0.01191611960530281
80 0.004774143453687429 0.06010916456580162 0.02410775981843472
81 0.01082247495651245 0.02613030001521111 0.01886247284710407
82 0.004821837414056063 0.06240074336528778 0.02167502976953983
83 0.02375750057399273 0.03621150180697441 0.007542999926954508
84 0.0209274347871542 0.002041261876001954 0.01691882312297821
85 0.0221087709069252 0.01772881671786308 0.01420912519097328
86 0.005344999954104424 0.05189450085163116 0.016525749117136
87 0.01094873435795307 0.01695377938449383 0.01257007755339146
88 0.005244738887995481 0.04868301376700401 0.01795301027595997
89 0.005417040083557367 0.03973823413252831 0.0236522201448679
90 0.01406812388449907 0.06166904419660568 0.02500060945749283
91 0.004559459630399942 0.05471966415643692 0.01633449643850327
92 0.0162398274987936 0.006852485705167055 0.02090864814817905
93 0.005905542522668839 0.04128672927618027 0.02400703728199005
94 0.001284872647374868 0.05591505020856857 0.01348618231713772
95 0.005348417907953262 0.0494564101099968 0.009984202682971954
96 0.00543932244181633 0.04930061474442482 0.02215307764708996
97 0.02148362249135971 0.008489328436553478 0.01139964256435633
98 0.005097298882901669 0.06045815348625183 0.009032627567648888
99 0.0160101018846035 0.005573602858930826 0.00845008809119463
100 0.005672670900821686 0.04715457931160927 0.01035691983997822
101 0.005688689649105072 0.04775079339742661 0.01346774306148291
102 0.005696086678653955 0.04932697489857674 0.01201469637453556
103 0.01651900075376034 0.01031100004911423 0.02400300092995167
104 0.00989509467035532 0.02746528573334217 0.02000333555042744
105 0.01111464109271765 0.01626064628362656 0.0200632493942976
106 0.02533798292279243 0.05309500172734261 0.02148671820759773
107 -0.001076681190170348 0.06541764736175537 0.01689241081476212
108 0.006071255542337894 0.06078249961137772 0.008023627102375031
109 0.006282763555645943 0.04979128018021584 0.0149535620585084
110 0.005713397171348333 0.03614985942840576 0.02029380202293396
111 0.01336679980158806 0.03081942722201347 0.02337601222097874
112 0.000775999273173511 0.06841602176427841 0.009646298363804817
113 0.00464551942422986 0.04202980175614357 0.009374960325658321
114 0.02247677370905876 0.02229940705001354 0.01683938689529896
115 0.006375872530043125 0.0455503910779953 0.01911349222064018
116 0.00552730867639184 0.04382796958088875 0.02379116602241993
117 0.007955313660204411 0.02845168672502041 0.01718788407742977
118 0.01563441753387451 0.0613822415471077 0.007918748073279858
119 0.02360789477825165 0.03425545617938042 0.01031186245381832
120 0.00572366314008832 0.06155521050095558 0.01794113963842392
121 0.006675814744085073 0.03255980461835861 0.02041148021817207
122 0.01159470807760954 0.01601420156657696 0.02228656411170959
123 0.006105999927967787 0.03613900020718575 0.009095000103116035
124 0.006118753459304571 0.05020687356591225 0.02440590597689152
125 0.0210558008402586 0.03056587278842926 0.01011335756629705
126 0.01570782065391541 0.009505487978458405 0.0213991142809391
127 0.02270659804344177 0.02359936200082302 0.02097493037581444
128 0.008384433574974537 0.05016433820128441 0.01049896329641342
129 0.007372974418103695 0.05001283809542656 0.02032013423740864
130 0.006366301327943802 0.04323957860469818 0.02123632654547691
131 0.009754269383847713 0.02109072543680668 0.01580198109149933
132 0.006867949385195971 0.03338555246591568 0.01488074567168951
133 0.02608045935630798 0.05952639132738113 0.01814139820635319
134 0.003323221346363425 0.04765309020876884 0.01701149716973305
135 0.006423131562769413 0.03893625736236572 0.02391471900045872
136 0.02016271650791168 0.0262876134365797 0.01081831939518452
137 0.01838407479226589 0.0006707691354677081 0.01891105249524117
138 0.01289782393723726 0.01589781418442726 0.02143033966422081
139 0.02054823562502861 0.02578768134117126 0.02255825884640217
140 0.006440999917685986 0.04403400048613548 0.01022499985992908
141 0.01271593756973743 0.004512541461735964 0.01126024220138788
142 0.001377987209707499 0.06095166876912117 0.01872752420604229
143 0.01043175999075174 0.0297741312533617 0.01978618651628494
144 0.02177747339010239 0.0239364355802536 0.007355992682278156
145 0.02290538139641285 0.02446227520704269 0.008710235357284546
146 0.006548000033944845 0.03448599949479103 0.02312799915671349
147 0.01421849988400936 0.0068158945068717 0.02374363504350185
148 0.002195668406784534 0.05178762972354889 0.008694788441061974
149 0.0002145562029909343 0.05937661230564117 0.008745098486542702
150 0.00709300022572279 0.06241099908947945 0.009901000186800957
151 0.02150734513998032 0.007480272557586432 0.01851083524525166
152 0.006874202750623226 0.05220789834856987 0.02306251041591167
153 0.007216950878500938 0.03794148191809654 0.02353976480662823
154 0.02110740356147289 0.03260643780231476 0.009437178261578083
155 0.002730586333200336 0.0499432235956192 0.01647055335342884
156 0.008179837837815285 0.05957865342497826 0.01400068867951632
157 0.01992835476994514 0.01626379415392876 0.01014678739011288
158 0.0124128544703126 0.005696367938071489 0.008489849045872688
159 0.003282552352175117 0.04706582427024841 0.02230177633464336
160 0.0190151035785675 0.004568080417811871 0.01732444018125534
161 0.007264864630997181 0.03843442723155022 0.02008789405226707
162 0.007973227649927139 0.04243722930550575 0.02195330522954464
163 0.01318627595901489 0.01475609093904495 0.009893245063722134
164 0.007949920371174812 0.03623490408062935 0.009304727427661419
165 0.007828617468476295 0.04191816970705986 0.01484647113829851
166 0.01249654777348042 0.03023855574429035 0.02128333225846291
167 0.01316222734749317 0.003906967584043741 0.0230060126632452
168 0.003415521699935198 0.05317046120762825 0.008572799153625965
169 0.007538347039371729 0.02949291095137596 0.02027536369860172
170 0.007232618518173695 0.04028285667300224 0.008651256561279297
171 0.008230196312069893 0.02729141525924206 0.01862970367074013
172 0.00836629793047905 0.0275283195078373 0.0138297863304615
173 0.006821963936090469 0.0626109316945076 0.02350751310586929
174 0.02134859375655651 0.03106475062668324 0.02283351868391037
175 0.00408198731020093 0.0543353259563446 0.0132963890209794
176 0.003506072098389268 0.05282206460833549 0.01584071852266788
177 0.01061694230884314 0.02334108948707581 0.01815921068191528
178 0.007838436402380466 0.05105037614703178 0.009019970893859863
179 0.008116841316223145 0.03728331252932549 0.01583578065037727
180 0.007915282621979713 0.04273552820086479 0.01895135827362537
181 0.008149590343236923 0.03953094407916069 0.01519078109413385
182 0.008177668787539005 0.03918951004743576 0.0117398900911212
183 0.009127410128712654 0.02714225091040134 0.0213067177683115
184 0.01333619188517332 0.01489502843469381 0.01998953148722649
185 0.003325165016576648 0.04798623919487 0.01425159629434347
186 0.008055999875068665 0.02953699976205826 0.009235000237822533
187 0.01038886699825525 0.01945490390062332 0.01862569898366928
188 -0.0003339920658618212 0.06742902845144272 0.01112563628703356
189 0.001917882007546723 0.05260536819696426 0.01133210677653551
190 0.01676074787974358 0.00262082670815289 0.02063814550638199
191 0.01135717891156673 0.06297231465578079 0.009937613271176815
192 0.007501999847590923 0.03177599981427193 0.02323249913752079
193 0.02206350304186344 0.01268329843878746 0.009454719722270966
194 0.02034623734652996 0.01910813897848129 0.02456260658800602
195 0.008367945440113544 0.02902225777506828 0.02321788668632507
196 0.008505486883223057 0.03987408056855202 0.0212963093072176
197 0.008950678631663322 0.03576363250613213 0.01322812493890524
198 0.008436019532382488 0.03381344303488731 0.01984567195177078
199 0.01770998165011406 0.001790813752450049 0.01170377898961306
200 0.0209998469799757 0.02417836338281631 0.009597301483154297
201 0.01964729838073254 0.01382091268897057 0.009905815124511719
202 0.002491693710908294 0.05018527433276176 0.00966547429561615
203 0.0006568349781446159 0.05789892375469208 0.01150217466056347
204 0.008622404187917709 0.03275246173143387 0.02265482023358345
205 0.01210259366780519 0.05175003409385681 0.02441848814487457
206 0.004984491504728794 0.04520586133003235 0.008557670749723911
207 0.009569717571139336 0.02437439933419228 0.009555845521390438
208 3.492432369966991e-05 0.06167985871434212 0.02426894940435886
209 0.01130700670182705 0.06295543909072876 0.02305774576961994
210 0.009679106995463371 0.02568340674042702 0.0229136161506176
211 0.02064879983663559 0.02652285061776638 0.02477345988154411
212 0.008429142646491528 0.06089341640472412 0.02514266781508923
213 0.00885104201734066 0.05998367071151733 0.008894667029380798
214 0.02037842199206352 0.01170161925256252 0.007587076630443335
215 0.009540695697069168 0.04969192296266556 0.01673051528632641
216 0.019710348919034 0.02710559219121933 0.007514941040426493
217 0.01972988061606884 0.01016704645007849 0.01060029864311218
218 0.009253315627574921 0.03532223030924797 0.01734335161745548
219 0.01042063906788826 0.04010451957583427 0.01475972961634398
220 0.0232548788189888 0.02836899086833 0.01069709938019514
221 0.00979334581643343 0.032794289290905 0.01151056028902531
222 0.009669999592006207 0.0301779992878437 0.008821000345051289
223 0.008540071547031403 0.06001708284020424 0.02420988120138645
224 0.009430021978914738 0.04095490649342537 0.009027030318975449
225 0.02212156727910042 0.02092286758124828 0.02208418771624565
226 0.009660406969487667 0.02137593552470207 0.02035907097160816
227 0.02254041284322739 0.02127076499164104 0.01006309781223536
228 0.0106564499437809 0.04977545887231827 0.01299846358597279
229 0.01052100025117397 0.04287400096654892 0.01867399923503399
230 0.008651681244373322 0.06185935065150261 0.02052323333919048
231 0.01992563717067242 -0.002029066672548652 0.01966007798910141
232 0.01004699990153313 0.02146399952471256 0.009727999567985535
233 0.009972999803721905 0.0302290003746748 0.0234409999102354
234 0.01001319475471973 0.02040837518870831 0.01210656110197306
235 0.01021398883312941 0.02921959012746811 0.01700623892247677
236 0.00138967705424875 0.05550096184015274 0.0240523386746645
237 0.01242069434374571 0.02061319909989834 0.02280449494719505
238 0.007081000134348869 0.03283800184726715 0.009165000170469284
239 0.01008414756506681 0.03234339132905006 0.01461192034184933
240 0.01192096527665854 0.01532923150807619 0.01011626236140728
241 0.0117007065564394 0.04019799828529358 0.0118202269077301
242 0.009774601086974144 0.02796999178826809 0.02322071604430676
243 0.005990749225020409 0.0501008927822113 0.008935478515923023
244 0.009397574700415134 0.04059326648712158 0.02415303885936737
245 0.01036684680730104 0.03236670792102814 0.01765806600451469
246 0.01046271249651909 0.05283623933792114 0.02242804504930973
247 0.009552869945764542 0.02387671731412411 0.02178169600665569
248 0.02138335257768631 0.02838397026062012 0.009096099063754082
249 0.01071908418089151 0.01949450373649597 0.009882177226245403
250 0.01071699988096952 0.03358700126409531 0.01564699970185757
251 0.01019933819770813 0.02592064067721367 0.02093145251274109
252 0.008343841880559921 0.02734292298555374 0.02218792960047722
253 0.01802796684205532 0.02561047300696373 0.02376290038228035
254 0.0109839178621769 0.03271090611815453 0.02102690935134888
255 0.02231079153716564 0.03059208393096924 0.02506156079471111
256 0.01040900032967329 0.02985100075602531 0.00963400024920702
257 0.01041499990969896 0.02183800004422665 0.02284800074994564
258 0.01077407412230968 0.02746071666479111 0.01435485575348139
259 0.01047400012612343 0.04969599843025208 0.02418199926614761
260 0.01209039799869061 0.04083487391471863 0.008430827409029007
261 0.00877035316079855 0.02445540018379688 0.01996559277176857
262 0.01093994081020355 0.01889859698712826 0.02249432355165482
263 0.01067099999636412 0.02967399917542934 0.01394500024616718
264 0.01006161794066429 0.04970518872141838 0.02110875770449638
265 0.0104483338072896 0.02737821824848652 0.01055052597075701
266 -0.0008104058797471225 0.06845071166753769 0.007464710623025894
267 0.01158826611936092 0.04219610244035721 0.01458812318742275
268 0.01134105771780014 0.02253522165119648 0.009921504184603691
269 0.01227668672800064 0.0432170107960701 0.02203904278576374
270 0.01347023155540228 0.03017592243850231 0.01843678578734398
271 0.01156836096197367 0.007881024852395058 0.01089388877153397
272 0.01186959631741047 0.008143793791532516 0.0144836800172925
273 0.01152000017464161 0.01016299985349178 0.02121100015938282
274 0.01158499997109175 0.00964799989014864 0.008291999809443951
275 0.01166239846497774 0.05278594046831131 0.009867778979241848
276 0.01171899959445 0.01073199976235628 0.009468999691307545
277 0.01197223551571369 0.02493129298090935 0.01318105962127447
278 0.01186500024050474 0.01749899983406067 0.009457999840378761
279 0.01238809712231159 0.03321673721075058 0.01849130168557167
280 0.01188427489250898 0.0134991854429245 0.01303359400480986
281 0.0114309610798955 0.0230410099029541 0.02071870863437653
282 0.01184814982116222 0.02518652752041817 0.01650208234786987
283 0.01159145403653383 0.00809793546795845 0.02288802526891232
284 0.01244500000029802 0.0102120004594326 0.02353199943900108
285 0.009060949087142944 0.0619293786585331 0.01530222594738007
286 0.0118385711684823 0.01349031180143356 0.01821740530431271
287 0.01120478007942438 0.04003093019127846 0.01956098712980747
288 0.01213193777948618 0.03236768394708633 0.01042122393846512
289 0.0126431668177247 0.01933901757001877 0.02094367891550064
290 0.01230600010603666 0.05992500111460686 0.02431200072169304
291 0.01235300023108721 0.05043400079011917 0.008026000112295151
292 0.01274900045245886 0.04214400053024292 0.02083400078117847
293 0.01236623525619507 0.05209046602249146 0.01676076464354992
294 0.01280117407441139 0.02283575013279915 0.01125568710267544
295 0.01317772641777992 0.02269440144300461 0.01852674223482609
296 0.01247263979166746 0.01314055547118187 0.01025929022580385
297 0.01282156724482775 0.01241684425622225 0.02223674207925797
298 0.01280524116009474 0.02207832783460617 0.01421268843114376
299 0.01490178611129522 0.02084044925868511 0.02241106890141964
300 0.0134241133928299 0.03987064212560654 0.01605930924415588
301 0.01143215876072645 0.06134402751922607 0.007778675761073828
302 0.01363630406558514 0.01981067098677158 0.01705973222851753
303 0.01322129368782043 0.02079876512289047 0.009428279474377632
304 0.01307992823421955 0.01711975783109665 0.01896776631474495
305 0.01355056557804346 0.01984542980790138 0.0117926225066185
306 0.01395388599485159 0.03987746313214302 0.02347705326974392
307 0.01305007562041283 0.04989499971270561 0.01735992170870304
308 0.01384084671735764 0.01736692152917385 0.01540958508849144
309 0.01357199996709824 0.0007730000070296228 0.008465000428259373
310 0.01360689476132393 0.06039948761463165 0.008627580478787422
311 0.01420395541936159 0.01594100706279278 0.01190894190222025
312 0.01401378400623798 0.01208770927041769 0.01515073794871569
313 0.01415420137345791 0.01271149143576622 0.01292716711759567
314 0.01506043132394552 0.01158084440976381 0.02172029204666615
315 0.01350277010351419 0.03037192113697529 0.01150485686957836
316 0.0130244167521596 0.002336238278076053 0.020040238276124
317 0.01434392295777798 0.01572433859109879 0.0174890048801899
318 0.01470559183508158 0.0427185595035553 0.02028816379606724
319 0.01518529374152422 0.02322345227003098 0.01768888346850872
320 0.01439575105905533 0.01141101401299238 0.01235179416835308
321 0.01450755167752504 0.01201318111270666 0.01032848935574293
322 0.01474265474826097 0.01153013668954372 0.01968539692461491
323 0.01473299972712994 -0.0002840000088326633 0.02312400005757809
324 0.01579184643924236 0.05072705075144768 0.01135628018528223
325 0.01486828085035086 0.03014018200337887 0.02192931808531284
326 0.01483453903347254 0.02225746586918831 0.01131206750869751
327 0.01540462486445904 0.01068220008164644 0.01418163441121578
328 0.01510396227240562 0.02054955810308456 0.01994647271931171
329 0.01616145670413971 0.06333232671022415 0.0231470987200737
330 0.01518619060516357 0.01415319927036762 0.01363117713481188
331 0.01468817889690399 0.03226544708013535 0.01742863096296787
332 0.01539434026926756 0.05013514310121536 0.02154919132590294
333 0.01534990966320038 0.02033236250281334 0.01424149330705404
334 0.01413985434919596 0.04223020374774933 0.01729907281696796
335 0.0156675148755312 0.04177097603678703 0.02396323345601559
336 0.01376574859023094 0.04283523559570312 0.01050343923270702
337 0.0145028829574585 0.01029038149863482 0.008256183005869389
338 0.014961002394557 0.03218815475702286 0.01382429618388414
339 0.01544567011296749 0.06263786554336548 0.01114320941269398
340 0.01456199958920479 0.0104780001565814 0.01908200047910213
341 0.01470917463302612 0.06012922152876854 0.0137387877330184
342 0.01596495695412159 0.03326196223497391 0.02148097567260265
343 0.0146059263497591 -0.000160800977027975 0.01785025931894779
344 0.0144065460190177 0.04999346286058426 0.02443617396056652
345 0.01571148820221424 0.02199339866638184 0.01528606191277504
346 0.01461227610707283 0.03102979622781277 0.008727272041141987
347 0.01685154996812344 0.05170794203877449 0.008214897476136684
348 0.01516560465097427 0.06013498827815056 0.01845427230000496
349 0.01678279787302017 0.02045189402997494 0.02006917260587215
350 0.01625600084662437 0.0307219997048378 0.01480000000447035
351 0.01676059886813164 0.0314098559319973 0.02331102639436722
352 0.01655399985611439 0.03399199992418289 0.01849799975752831
353 0.01643180847167969 -0.001714828656986356 0.008646242320537567
354 0.01669598184525967 0.05065298452973366 0.009072078391909599
355 0.01595245487987995 0.0205428134649992 0.01768332719802856
356 0.01663454808294773 0.05253535881638527 0.01964217610657215
357 0.01615931279957294 -0.001870325999334455 0.02137385867536068
358 0.01619011536240578 0.04058578610420227 0.01532947365194559
359 0.01748800091445446 0.05140599980950356 0.02457699924707413
360 0.01649403758347034 0.01099234633147717 0.01152996625751257
361 0.01483319420367479 0.0632401704788208 0.009738014079630375
362 0.01709701679646969 0.01635381951928139 0.02018504403531551
363 0.01662379316985607 -0.001765994471497834 0.01525680813938379
364 0.01754381880164146 0.01035458035767078 0.01879607141017914
365 0.01675110124051571 0.05359458550810814 0.02229033969342709
366 0.01735937781631947 0.01966423541307449 0.01142684835940599
367 0.01623597182333469 0.04258072376251221 0.01437692157924175
368 0.0176487360149622 0.04139555618166924 0.008825404569506645
369 0.0170840248465538 0.01563463360071182 0.02350291609764099
370 0.01768102124333382 0.01470285467803478 0.01194159407168627
371 0.01731299981474876 0.04097000136971474 0.02376499958336353
372 0.01714598573744297 0.01772072724997997 0.009873474016785622
373 0.01733767054975033 0.0114918053150177 0.02301139011979103
374 0.01768875680863857 0.01228986959904432 0.02149582467973232
375 0.01676715351641178 0.03074055723845959 0.01836700178682804
376 0.01758946850895882 0.01942023448646069 0.01632103882730007
377 0.01718810200691223 0.04289901256561279 0.01734191551804543
378 0.01779268868267536 0.01371748372912407 0.02028787136077881
379 0.01765899918973446 0.01488499995321035 0.008258000016212463
380 0.01768783293664455 0.01922376081347466 0.01892413198947906
381 0.01782018505036831 0.02584745548665524 0.01511054020375013
382 0.01788024418056011 0.022101990878582 0.01392700430005789
383 0.01795686408877373 0.01152541767805815 0.01383389998227358
384 0.01782728917896748 0.04334906488656998 0.0216396301984787
385 0.01741725020110607 0.015056605450809 0.01674273051321507
386 0.01864630356431007 0.06322895735502243 0.02095229551196098
387 0.01795623824000359 0.01346009504050016 0.02382130175828934
388 0.01794331707060337 0.02760909125208855 0.02455770038068295
389 0.01742007024586201 0.02107690088450909 0.02260613441467285
390 0.01794947683811188 0.02093243971467018 0.009123789146542549
391 0.01800142042338848 8.289783727377653e-05 0.007871341891586781
392 0.01800585351884365 0.02212188020348549 0.01034770719707012
393 0.01801728643476963 0.01182403415441513 0.008486666716635227
394 0.0175815038383007 0.04090955853462219 0.01274899765849113
395 0.01697119697928429 0.05061309784650803 0.01713087782263756
396 0.01803439669311047 0.02322803437709808 0.02038651145994663
397 0.01811799965798855 0.03062699921429157 0.02075700089335442
398 0.01813399977982044 0.02841800078749657 0.02190200053155422
399 0.01664545759558678 0.04072625562548637 0.01944978535175323
400 0.01810342259705067 0.03053739666938782 0.01209314726293087
401 0.01821951754391193 0.02776103839278221 0.008361746557056904
402 0.01842287182807922 0.03322525694966316 0.01132325083017349
403 0.01811261661350727 0.02361185662448406 0.0229681022465229
404 0.01857596822082996 0.01893717795610428 0.007889250293374062
405 0.01869621872901917 0.03131383657455444 0.008588025346398354
406 0.01844780147075653 0.03680061548948288 0.02022743783891201
407 0.01850544288754463 0.02974602580070496 0.01729208417236805
408 0.01854994706809521 0.03269245103001595 0.01821347139775753
409 0.01849819533526897 0.03608908876776695 0.02291759289801121
410 0.01882299967110157 0.03263299912214279 0.02056900039315224
411 0.01877539604902267 0.02398624084889889 0.007833392359316349
412 0.01840059459209442 0.01949719525873661 0.02419347688555717
413 0.01880155317485332 0.037445068359375 0.01133078616112471
414 0.01860743574798107 0.0525054931640625 0.00930145476013422
415 0.01887249387800694 0.05255302414298058 0.02291625365614891
416 0.01863314583897591 0.03802509605884552 0.008315922692418098
417 0.01943494752049446 0.01039032824337482 0.02415722049772739
418 0.0188829991966486 0.02453199960291386 0.02473499998450279
419 0.0186000894755125 0.03736194223165512 0.01702085509896278
420 0.01894599944353104 0.03739599883556366 0.02536999993026257
421 0.01909976452589035 0.04652683436870575 0.01662503741681576
422 0.01853405125439167 0.00851353257894516 0.007880106568336487
423 0.01920479722321033 0.03575197979807854 0.00737413065508008
424 0.01922717317938805 0.03403300419449806 0.02136279828846455
425 0.01913700066506863 0.04302699863910675 0.01076599955558777
426 0.01918591372668743 0.06152886524796486 0.02454310096800327
427 0.01954557187855244 0.04034001007676125 0.0168650895357132
428 0.01920099928975105 0.06145400181412697 0.008070000447332859
429 0.01921657472848892 -0.00217895838432014 0.0122421020641923
430 0.01906200312077999 0.02993912436068058 0.02430863305926323
431 0.01925200037658215 0.03124099969863892 0.02478400059044361
432 0.01908731274306774 0.04047474265098572 0.01169554051011801
433 0.01947837322950363 0.04328921064734459 0.01436954829841852
434 0.01884719543159008 0.05327101796865463 0.01965626329183578
435 0.01948390156030655 0.05298270657658577 0.01595431379973888
436 0.01918683014810085 0.04641018807888031 0.02335783094167709
437 0.01951870322227478 0.04038006812334061 0.02369712851941586
438 0.02008463628590107 0.04075698927044868 0.007537401281297207
439 0.0196293480694294 0.0435522049665451 0.01833009719848633
440 0.0195639505982399 0.04868359118700027 0.008343388326466084
441 0.01976505666971207 0.05082328617572784 0.01941513083875179
442 0.01974089443683624 0.05106928572058678 0.008791957050561905
443 0.0196129996329546 -0.001844999962486327 0.02312400005757809
444 0.01985027454793453 0.04320250824093819 0.02299184165894985
445 0.01987599954009056 0.05035800114274025 0.0160520002245903
446 0.01962752267718315 0.05121317878365517 0.02395415306091309
447 0.01983186230063438 0.02936862967908382 0.0074684820137918
448 0.0200270414352417 0.05639945343136787 0.01766115427017212
449 0.0200605932623148 0.06127950549125671 0.0223096814006567
450 0.02035154588520527 -0.001665590913034976 0.01645953580737114
451 0.02002893202006817 0.01552010234445333 0.02445399947464466
452 0.02013588696718216 0.04538871347904205 0.007003066129982471
453 0.02041547000408173 0.04694985598325729 0.02568977512419224
454 0.020213408395648 0.05325205251574516 0.02131116576492786
455 0.0203428603708744 0.05029468238353729 0.02196231111884117
456 0.02016773819923401 0.06065970286726952 0.01454541180282831
457 0.02023999951779842 0.05028900131583214 0.0126350000500679
458 0.0200678613036871 0.05298832803964615 0.01229414530098438
459 0.01964091882109642 0.04833602532744408 0.01983239687979221
460 0.02081179991364479 0.03966458886861801 0.02531104534864426
461 0.02021836116909981 -0.001733271987177432 0.008413532748818398
462 0.02017790824174881 0.05644229799509048 0.007245800457894802
463 0.02002924121916294 0.04184252768754959 0.02489951439201832
464 0.02011351101100445 0.05671790242195129 0.02385362610220909
465 0.02037696726620197 0.0568111352622509 0.02099809981882572
466 0.02012757025659084 0.04948361217975616 0.02447460778057575
467 0.02056495472788811 0.02918429486453533 0.02503602020442486
468 0.02088860608637333 0.05961522459983826 0.01061891950666904
469 0.02094068378210068 -0.0003242834645789117 0.02079467475414276
470 0.01991985738277435 0.006449121981859207 0.02392098307609558
471 0.02153877355158329 0.03230365365743637 0.007107739336788654
472 0.02069833874702454 0.002924222266301513 0.007880423218011856
473 0.02052301168441772 0.05365566909313202 0.008940930478274822
474 0.02075821161270142 0.06109484657645226 0.01845751516520977
475 0.02078631334006786 0.06348884105682373 0.009442924521863461
476 0.02108719572424889 0.06119388714432716 0.007473300211131573
477 0.02101959101855755 -0.0005138601991347969 0.01210313756018877
478 0.02092982828617096 0.01437032781541348 0.00744682876393199
479 0.02095722034573555 0.05816751718521118 0.02620542421936989
480 0.02097451314330101 0.06262717396020889 0.01681103184819221
481 0.02150415442883968 0.01145371980965137 0.02318519912660122
482 0.02117389068007469 0.06287340819835663 0.02383187413215637
483 0.02120336145162582 0.06007686629891396 0.02252567745745182
484 0.02150800079107285 0.06320499628782272 0.02008599974215031
485 0.02121665142476559 0.004138603340834379 0.02166503854095936
486 0.02134492807090282 0.009080216288566589 0.008062000386416912
487 0.02101071178913116 0.05213810130953789 0.02532080560922623
488 0.02129640057682991 0.06612825393676758 0.02535238489508629
489 0.02141005173325539 0.06531153619289398 0.02268435060977936
490 0.0213598944246769 0.06734075397253036 0.006322924513369799
491 0.02119560912251472 0.05082524940371513 0.006850498728454113
492 0.02172172628343105 0.06105789914727211 0.02577110566198826
493 0.02219261974096298 0.02282089740037918 0.02419017255306244
494 0.02207324281334877 0.06978525966405869 0.01030452083796263
495 0.02217599935829639 0.06494399905204773 0.02634100057184696
496 0.02218921668827534 0.0175964068621397 0.01922281458973885
497 0.02215240709483624 0.06970980018377304 0.02434154599905014
498 0.02235834486782551 0.01722101867198944 0.009521776810288429
499 0.02282628417015076 0.02830946817994118 0.02430032752454281
500 0.02247135899960995 0.06004293635487556 0.006291796918958426
501 0.02199500799179077 0.04076782241463661 0.006856906227767467
502 0.02278600074350834 0.06818400323390961 0.02649899944663048
503 0.02263199910521507 0.02727100066840649 0.007462000008672476
504 0.02284280024468899 0.06979870051145554 0.006608199793845415
505 0.02368844114243984 0.05511880666017532 0.006321521941572428
506 0.02271208167076111 0.02432516030967236 0.01176903210580349
507 0.02315180748701096 0.02744599431753159 0.02043327689170837
508 0.02343106642365456 0.03721896559000015 0.02493514865636826
509 0.02345620281994343 0.03129984065890312 0.02385600283741951
510 0.02323799952864647 0.03089099936187267 0.007768000010401011
511 0.02353646792471409 0.03308914974331856 0.018775699660182
512 0.02379379980266094 0.0435844361782074 0.02545163221657276
513 0.02426513843238354 0.0471145436167717 0.006990209221839905
514 0.02406933531165123 0.03660325706005096 0.0227412898093462
515 0.02427699975669384 0.0415319986641407 0.007317999843508005
516 0.02439243532717228 0.04202811419963837 0.01350609492510557
517 0.02430654503405094 0.05253348127007484 0.02603335864841938
518 0.02474074438214302 0.04588222503662109 0.0239518228918314
519 0.0249825194478035 0.04942050203680992 0.0166847538203001
520 0.02430679649114609 0.06636645644903183 0.02656328119337559
521 0.02541213482618332 0.05366485938429832 0.007748796604573727
522 0.02515811286866665 0.05034201964735985 0.01064149849116802
523 0.02530793473124504 0.06984169781208038 0.02607064880430698
524 0.0254721250385046 0.06984458118677139 0.007194752339273691
525 0.02425905875861645 0.05955329909920692 0.02638534270226955
526 0.02556530013680458 0.05487857386469841 0.01673745736479759
527 0.02594747021794319 0.05687381699681282 0.0252250898629427
528 0.02576797269284725 0.05698394402861595 0.01060683559626341
529 0.02629799954593182 0.06229199841618538 0.02614999935030937
530 0.0259904470294714 0.06755287945270538 0.005820573773235083
531 0.0257360003888607 0.06076600030064583 0.006310000084340572
532 0.02652358449995518 0.0698629692196846 0.02102912962436676
533 0.02665974199771881 0.06341360509395599 0.013441720046103
534 0.02650680020451546 0.06378534436225891 0.009169599041342735
535 0.02679499983787537 0.068511001765728 0.007691000122576952
536 0.02670451998710632 0.06385523080825806 0.01966735161840916
537 0.02691899612545967 0.06737992167472839 0.0261790007352829
538 -0.002279799431562424 0.06881766021251678 0.01853390410542488
539 0.01770003326237202 0.01877415180206299 0.02126690559089184
540 0.008552034385502338 0.04242707416415215 0.01103104371577501
541 0.02648845314979553 0.06986238062381744 0.01241908315569162
542 0.01520843058824539 0.04018643870949745 0.009572482667863369
543 -0.0007459093467332423 0.06938698887825012 0.02656408585608006
544 0.02220698446035385 0.03267046809196472 0.02531119994819164
545 0.001013019704259932 0.06941766291856766 0.02166762016713619
546 0.002805625321343541 0.05863502994179726 0.02085826173424721
547 0.01557076908648014 0.06231875345110893 0.01920861750841141
548 0.02224468439817429 0.06978826224803925 0.0200289823114872
$EndNodes
$Elements
1493
1 4 2 0 1 92 38 316 16
2 4 2 0 1 156 213 191 310
3 4 2 0 1 483 484 474 449
4 4 2 0 1 407 511 65 19
5 4 2 0 1 445 441 459 519
6 4 2 0 1 22 48 5 8
7 4 2 0 1 380 385 496 362
8 4 2 0 1 96 66 51 35
9 4 2 0 1 203 32 10 42
10 4 2 0 1 86 155 27 109
11 4 2 0 1 295 177 282 131
12 4 2 0 1 131 87 305 62
13 4 2 0 1 501 432 515 425
14 4 2 0 1 454 487 517 465
15 4 2 0 1 132 235 117 172
16 4 2 0 1 148 50 168 77
17 4 2 0 1 501 413 83 432
18 4 2 0 1 463 512 444 436
19 4 2 0 1 73 444 518 439
20 4 2 0 1 272 327 70 320
21 4 2 0 1 75 21 35 44
22 4 2 0 1 484 133 483 474
23 4 2 0 1 390 227 392 366
24 4 2 0 1 142 21 36 546
25 4 2 0 1 107 20 545 48
26 4 2 0 1 324 347 275 414
27 4 2 0 1 400 125 401 405
28 4 2 0 1 513 491 521 505
29 4 2 0 1 19 511 413 408
30 4 2 0 1 256 221 239 315
31 4 2 0 1 280 308 286 312
32 4 2 0 1 284 126 273 314
33 4 2 0 1 352 342 397 410
34 4 2 0 1 186 265 172 207
35 4 2 0 1 95 148 50 53
36 4 2 0 1 389 539 225 412
37 4 2 0 1 502 488 497 520
38 4 2 0 1 465 464 527 483
39 4 2 0 1 219 181 229 165
40 4 2 0 1 534 494 490 475
41 4 2 0 1 468 475 533 534
42 4 2 0 1 428 456 468 475
43 4 2 0 1 86 91 175 176
44 4 2 0 1 485 160 190 38
45 4 2 0 1 137 485 84 160
46 4 2 0 1 190 485 137 160
47 4 2 0 1 514 444 518 73
48 4 2 0 1 518 444 514 512
49 4 2 0 1 413 423 416 438
50 4 2 0 1 442 491 522 440
51 4 2 0 1 370 201 14 79
52 4 2 0 1 295 302 298 345
53 4 2 0 1 402 19 413 408
54 4 2 0 1 400 402 408 19
55 4 2 0 1 407 19 65 400
56 4 2 0 1 400 407 19 408
57 4 2 0 1 397 407 408 511
58 4 2 0 1 501 423 413 438
59 4 2 0 1 340 286 322 312
60 4 2 0 1 489 529 536 520
61 4 2 0 1 125 510 154 19
62 4 2 0 1 437 444 514 427
63 4 2 0 1 37 59 316 272
64 4 2 0 1 450 37 84 199
65 4 2 0 1 343 37 363 59
66 4 2 0 1 343 37 59 316
67 4 2 0 1 298 333 345 302
68 4 2 0 1 522 458 442 457
69 4 2 0 1 61 120 80 230
70 4 2 0 1 45 80 61 120
71 4 2 0 1 456 528 468 533
72 4 2 0 1 456 526 528 533
73 4 2 0 1 458 526 528 456
74 4 2 0 1 458 456 528 468
75 4 2 0 1 380 114 225 496
76 4 2 0 1 508 409 406 424
77 4 2 0 1 270 325 397 342
78 4 2 0 1 516 413 83 119
79 4 2 0 1 516 413 432 83
80 4 2 0 1 345 396 319 355
81 4 2 0 1 123 58 170 113
82 4 2 0 1 19 407 511 408
83 4 2 0 1 381 114 506 65
84 4 2 0 1 294 303 326 305
85 4 2 0 1 536 533 548 532
86 4 2 0 1 533 536 548 480
87 4 2 0 1 247 281 226 261
88 4 2 0 1 81 282 177 28
89 4 2 0 1 177 282 81 281
90 4 2 0 1 390 303 305 326
91 4 2 0 1 24 76 82 45
92 4 2 0 1 156 61 285 120
93 4 2 0 1 394 367 542 358
94 4 2 0 1 440 457 516 522
95 4 2 0 1 440 457 421 516
96 4 2 0 1 425 516 513 440
97 4 2 0 1 440 516 421 425
98 4 2 0 1 513 440 516 522
99 4 2 0 1 183 169 252 195
100 4 2 0 1 141 199 37 59
101 4 2 0 1 160 38 485 151
102 4 2 0 1 38 37 316 272
103 4 2 0 1 383 327 360 46
104 4 2 0 1 360 70 46 327
105 4 2 0 1 284 283 92 147
106 4 2 0 1 92 283 316 167
107 4 2 0 1 209 223 173 230
108 4 2 0 1 452 513 425 501
109 4 2 0 1 381 400 65 125
110 4 2 0 1 381 401 400 125
111 4 2 0 1 485 38 190 92
112 4 2 0 1 456 526 533 133
113 4 2 0 1 526 456 458 448
114 4 2 0 1 448 526 456 465
115 4 2 0 1 526 133 456 465
116 4 2 0 1 75 72 21 74
117 4 2 0 1 21 72 94 36
118 4 2 0 1 72 74 36 21
119 4 2 0 1 97 422 46 217
120 4 2 0 1 217 422 46 360
121 4 2 0 1 30 97 46 217
122 4 2 0 1 48 545 538 5
123 4 2 0 1 48 24 20 8
124 4 2 0 1 24 21 208 48
125 4 2 0 1 30 97 54 46
126 4 2 0 1 169 233 204 192
127 4 2 0 1 217 97 193 79
128 4 2 0 1 183 252 210 195
129 4 2 0 1 391 199 472 99
130 4 2 0 1 1 3 63 4
131 4 2 0 1 3 7 63 266
132 4 2 0 1 78 88 55 51
133 4 2 0 1 75 66 51 74
134 4 2 0 1 309 199 391 99
135 4 2 0 1 485 151 84 160
136 4 2 0 1 156 120 285 67
137 4 2 0 1 547 339 456 341
138 4 2 0 1 547 339 341 285
139 4 2 0 1 480 339 456 547
140 4 2 0 1 285 61 547 230
141 4 2 0 1 62 87 305 308
142 4 2 0 1 530 490 534 504
143 4 2 0 1 385 85 496 30
144 4 2 0 1 385 30 496 378
145 4 2 0 1 16 286 340 272
146 4 2 0 1 437 406 514 508
147 4 2 0 1 15 188 64 1
148 4 2 0 1 12 188 64 15
149 4 2 0 1 483 527 133 536
150 4 2 0 1 125 220 510 19
151 4 2 0 1 46 38 151 30
152 4 2 0 1 383 327 46 38
153 4 2 0 1 38 327 364 383
154 4 2 0 1 30 38 151 364
155 4 2 0 1 5 48 545 8
156 4 2 0 1 208 24 22 17
157 4 2 0 1 151 30 364 481
158 4 2 0 1 378 364 30 481
159 4 2 0 1 1 63 15 188
160 4 2 0 1 423 413 83 501
161 4 2 0 1 370 79 14 30
162 4 2 0 1 217 97 79 30
163 4 2 0 1 370 30 383 79
164 4 2 0 1 383 217 79 30
165 4 2 0 1 455 106 71 519
166 4 2 0 1 485 151 364 481
167 4 2 0 1 470 481 485 364
168 4 2 0 1 427 514 511 73
169 4 2 0 1 51 74 155 75
170 4 2 0 1 453 487 518 466
171 4 2 0 1 85 370 14 30
172 4 2 0 1 396 114 225 380
173 4 2 0 1 376 380 114 396
174 4 2 0 1 396 380 225 539
175 4 2 0 1 218 132 110 179
176 4 2 0 1 198 218 132 110
177 4 2 0 1 58 110 132 179
178 4 2 0 1 158 141 309 99
179 4 2 0 1 126 92 273 340
180 4 2 0 1 441 435 434 454
181 4 2 0 1 84 54 477 199
182 4 2 0 1 54 199 37 46
183 4 2 0 1 54 472 477 199
184 4 2 0 1 118 361 301 310
185 4 2 0 1 455 71 518 519
186 4 2 0 1 518 71 455 517
187 4 2 0 1 157 498 85 14
188 4 2 0 1 400 125 19 65
189 4 2 0 1 363 37 450 199
190 4 2 0 1 199 450 477 84
191 4 2 0 1 143 104 169 235
192 4 2 0 1 464 479 517 525
193 4 2 0 1 382 114 227 506
194 4 2 0 1 376 85 496 385
195 4 2 0 1 119 471 83 510
196 4 2 0 1 83 119 413 423
197 4 2 0 1 30 378 481 496
198 4 2 0 1 290 329 209 90
199 4 2 0 1 496 378 481 451
200 4 2 0 1 470 417 126 103
201 4 2 0 1 126 417 373 103
202 4 2 0 1 470 167 92 190
203 4 2 0 1 92 167 316 190
204 4 2 0 1 38 30 46 383
205 4 2 0 1 94 175 25 40
206 4 2 0 1 94 189 25 175
207 4 2 0 1 427 444 73 439
208 4 2 0 1 514 444 73 427
209 4 2 0 1 516 427 73 439
210 4 2 0 1 70 158 99 141
211 4 2 0 1 63 7 112 266
212 4 2 0 1 70 199 99 46
213 4 2 0 1 141 70 37 199
214 4 2 0 1 141 199 99 70
215 4 2 0 1 37 46 199 70
216 4 2 0 1 393 370 79 201
217 4 2 0 1 518 516 421 519
218 4 2 0 1 516 73 518 439
219 4 2 0 1 439 516 421 518
220 4 2 0 1 10 20 107 48
221 4 2 0 1 10 23 12 107
222 4 2 0 1 64 10 12 107
223 4 2 0 1 23 107 10 20
224 4 2 0 1 422 97 472 486
225 4 2 0 1 422 99 472 46
226 4 2 0 1 117 171 235 169
227 4 2 0 1 516 413 119 19
228 4 2 0 1 494 533 541 548
229 4 2 0 1 541 533 494 535
230 4 2 0 1 535 494 534 533
231 4 2 0 1 533 494 534 475
232 4 2 0 1 533 494 475 480
233 4 2 0 1 199 54 472 46
234 4 2 0 1 54 97 472 46
235 4 2 0 1 99 199 472 46
236 4 2 0 1 97 422 472 46
237 4 2 0 1 121 198 132 110
238 4 2 0 1 121 146 198 110
239 4 2 0 1 376 496 85 114
240 4 2 0 1 376 496 114 380
241 4 2 0 1 228 77 293 275
242 4 2 0 1 128 275 77 228
243 4 2 0 1 128 275 178 77
244 4 2 0 1 10 6 12 33
245 4 2 0 1 10 32 6 33
246 4 2 0 1 400 125 402 19
247 4 2 0 1 125 402 405 400
248 4 2 0 1 470 126 284 103
249 4 2 0 1 284 126 373 103
250 4 2 0 1 322 126 314 273
251 4 2 0 1 314 284 126 373
252 4 2 0 1 396 114 127 225
253 4 2 0 1 396 127 403 225
254 4 2 0 1 493 418 139 403
255 4 2 0 1 498 404 227 31
256 4 2 0 1 396 139 403 127
257 4 2 0 1 396 139 398 403
258 4 2 0 1 403 418 139 253
259 4 2 0 1 396 382 381 114
260 4 2 0 1 381 114 507 396
261 4 2 0 1 37 38 160 46
262 4 2 0 1 46 38 160 151
263 4 2 0 1 84 37 160 54
264 4 2 0 1 132 235 169 117
265 4 2 0 1 169 198 132 121
266 4 2 0 1 235 132 169 245
267 4 2 0 1 312 330 317 322
268 4 2 0 1 62 305 302 308
269 4 2 0 1 525 482 492 495
270 4 2 0 1 298 131 302 295
271 4 2 0 1 51 88 55 134
272 4 2 0 1 134 88 155 51
273 4 2 0 1 509 174 511 507
274 4 2 0 1 465 527 526 133
275 4 2 0 1 465 474 133 456
276 4 2 0 1 133 480 456 474
277 4 2 0 1 402 413 19 119
278 4 2 0 1 381 401 125 136
279 4 2 0 1 401 136 392 411
280 4 2 0 1 381 136 392 401
281 4 2 0 1 70 46 422 360
282 4 2 0 1 217 97 422 486
283 4 2 0 1 401 136 248 125
284 4 2 0 1 111 166 254 342
285 4 2 0 1 450 137 84 37
286 4 2 0 1 343 137 363 37
287 4 2 0 1 357 443 231 137
288 4 2 0 1 137 357 343 363
289 4 2 0 1 131 172 28 282
290 4 2 0 1 131 172 282 277
291 4 2 0 1 493 139 211 499
292 4 2 0 1 211 139 398 499
293 4 2 0 1 451 496 47 481
294 4 2 0 1 37 141 59 272
295 4 2 0 1 272 70 37 141
296 4 2 0 1 271 272 141 70
297 4 2 0 1 10 67 142 45
298 4 2 0 1 142 67 10 20
299 4 2 0 1 24 142 45 546
300 4 2 0 1 48 142 10 20
301 4 2 0 1 142 21 48 10
302 4 2 0 1 486 193 214 217
303 4 2 0 1 393 370 383 79
304 4 2 0 1 217 486 193 97
305 4 2 0 1 270 254 143 166
306 4 2 0 1 227 411 144 31
307 4 2 0 1 381 125 65 136
308 4 2 0 1 498 404 31 478
309 4 2 0 1 200 227 145 506
310 4 2 0 1 227 200 145 144
311 4 2 0 1 396 114 507 127
312 4 2 0 1 533 541 548 532
313 4 2 0 1 329 482 426 449
314 4 2 0 1 290 449 329 426
315 4 2 0 1 518 459 519 421
316 4 2 0 1 547 348 456 474
317 4 2 0 1 474 547 386 480
318 4 2 0 1 155 176 72 74
319 4 2 0 1 95 50 148 77
320 4 2 0 1 94 72 175 49
321 4 2 0 1 27 189 175 77
322 4 2 0 1 147 283 92 167
323 4 2 0 1 92 147 167 470
324 4 2 0 1 228 86 293 77
325 4 2 0 1 157 193 498 14
326 4 2 0 1 54 30 46 151
327 4 2 0 1 492 449 426 482
328 4 2 0 1 410 397 511 174
329 4 2 0 1 174 397 511 507
330 4 2 0 1 398 174 430 467
331 4 2 0 1 431 397 410 174
332 4 2 0 1 174 467 398 499
333 4 2 0 1 507 398 499 174
334 4 2 0 1 70 158 337 99
335 4 2 0 1 308 304 302 62
336 4 2 0 1 385 364 383 30
337 4 2 0 1 383 30 364 38
338 4 2 0 1 378 385 30 364
339 4 2 0 1 302 304 187 62
340 4 2 0 1 507 397 398 174
341 4 2 0 1 376 370 85 385
342 4 2 0 1 125 154 402 19
343 4 2 0 1 402 423 119 154
344 4 2 0 1 154 402 405 125
345 4 2 0 1 385 370 85 30
346 4 2 0 1 402 405 423 154
347 4 2 0 1 19 119 154 402
348 4 2 0 1 158 271 70 274
349 4 2 0 1 75 66 35 51
350 4 2 0 1 159 78 60 68
351 4 2 0 1 86 155 88 74
352 4 2 0 1 386 484 449 474
353 4 2 0 1 137 469 450 84
354 4 2 0 1 370 157 85 14
355 4 2 0 1 370 201 157 14
356 4 2 0 1 366 157 85 370
357 4 2 0 1 372 366 370 157
358 4 2 0 1 70 272 37 38
359 4 2 0 1 70 37 46 38
360 4 2 0 1 70 272 38 327
361 4 2 0 1 70 38 46 327
362 4 2 0 1 382 376 366 85
363 4 2 0 1 376 366 85 370
364 4 2 0 1 240 311 296 163
365 4 2 0 1 364 470 126 92
366 4 2 0 1 126 284 92 470
367 4 2 0 1 470 364 126 417
368 4 2 0 1 16 38 272 340
369 4 2 0 1 340 272 327 38
370 4 2 0 1 16 38 316 272
371 4 2 0 1 312 272 327 340
372 4 2 0 1 441 435 395 356
373 4 2 0 1 92 284 147 470
374 4 2 0 1 166 254 143 233
375 4 2 0 1 166 111 325 342
376 4 2 0 1 6 10 12 64
377 4 2 0 1 188 6 12 64
378 4 2 0 1 248 216 136 401
379 4 2 0 1 216 145 248 136
380 4 2 0 1 506 220 145 136
381 4 2 0 1 425 433 432 516
382 4 2 0 1 175 91 49 176
383 4 2 0 1 125 220 19 65
384 4 2 0 1 125 447 248 401
385 4 2 0 1 28 43 81 171
386 4 2 0 1 410 174 511 424
387 4 2 0 1 424 410 174 431
388 4 2 0 1 55 165 58 56
389 4 2 0 1 161 58 55 181
390 4 2 0 1 58 55 110 161
391 4 2 0 1 55 165 181 58
392 4 2 0 1 86 175 77 27
393 4 2 0 1 359 365 441 356
394 4 2 0 1 155 27 72 176
395 4 2 0 1 487 455 466 446
396 4 2 0 1 487 455 446 415
397 4 2 0 1 295 226 177 131
398 4 2 0 1 226 177 261 281
399 4 2 0 1 131 261 226 177
400 4 2 0 1 281 177 295 226
401 4 2 0 1 359 441 395 356
402 4 2 0 1 517 106 454 465
403 4 2 0 1 106 71 527 517
404 4 2 0 1 106 517 527 465
405 4 2 0 1 71 106 455 517
406 4 2 0 1 106 455 517 454
407 4 2 0 1 511 413 516 19
408 4 2 0 1 154 471 119 510
409 4 2 0 1 441 434 356 365
410 4 2 0 1 404 157 498 366
411 4 2 0 1 366 85 157 498
412 4 2 0 1 404 366 372 157
413 4 2 0 1 94 49 175 40
414 4 2 0 1 94 189 175 72
415 4 2 0 1 4 6 188 64
416 4 2 0 1 365 434 454 441
417 4 2 0 1 131 234 305 87
418 4 2 0 1 508 514 509 424
419 4 2 0 1 544 508 509 424
420 4 2 0 1 209 329 290 547
421 4 2 0 1 547 290 209 230
422 4 2 0 1 483 527 465 133
423 4 2 0 1 483 474 133 465
424 4 2 0 1 190 37 316 38
425 4 2 0 1 343 190 37 316
426 4 2 0 1 190 38 316 92
427 4 2 0 1 190 343 323 316
428 4 2 0 1 190 167 316 323
429 4 2 0 1 81 43 251 104
430 4 2 0 1 210 251 57 183
431 4 2 0 1 210 242 251 183
432 4 2 0 1 184 105 138 304
433 4 2 0 1 286 304 184 317
434 4 2 0 1 386 474 449 547
435 4 2 0 1 160 54 46 151
436 4 2 0 1 160 54 37 46
437 4 2 0 1 343 190 137 37
438 4 2 0 1 190 357 323 343
439 4 2 0 1 190 357 343 137
440 4 2 0 1 6 188 12 13
441 4 2 0 1 189 168 25 77
442 4 2 0 1 370 385 383 30
443 4 2 0 1 25 18 168 189
444 4 2 0 1 451 539 194 47
445 4 2 0 1 194 412 539 451
446 4 2 0 1 101 27 41 185
447 4 2 0 1 187 131 226 295
448 4 2 0 1 285 156 191 341
449 4 2 0 1 280 87 62 308
450 4 2 0 1 308 280 286 62
451 4 2 0 1 302 131 187 295
452 4 2 0 1 422 99 46 70
453 4 2 0 1 141 309 199 59
454 4 2 0 1 363 37 199 59
455 4 2 0 1 199 59 353 363
456 4 2 0 1 141 99 199 309
457 4 2 0 1 391 199 309 353
458 4 2 0 1 304 105 187 62
459 4 2 0 1 1 63 188 4
460 4 2 0 1 199 309 353 59
461 4 2 0 1 63 112 188 4
462 4 2 0 1 455 441 454 106
463 4 2 0 1 77 202 148 95
464 4 2 0 1 453 466 518 436
465 4 2 0 1 94 36 40 10
466 4 2 0 1 203 10 94 40
467 4 2 0 1 40 10 42 203
468 4 2 0 1 455 487 454 415
469 4 2 0 1 455 517 454 487
470 4 2 0 1 62 131 187 302
471 4 2 0 1 169 192 204 121
472 4 2 0 1 544 409 420 508
473 4 2 0 1 382 376 85 114
474 4 2 0 1 382 376 114 396
475 4 2 0 1 297 105 122 138
476 4 2 0 1 184 105 297 138
477 4 2 0 1 297 286 105 184
478 4 2 0 1 362 496 451 378
479 4 2 0 1 362 451 496 539
480 4 2 0 1 47 451 539 496
481 4 2 0 1 514 511 509 424
482 4 2 0 1 509 511 174 424
483 4 2 0 1 424 174 544 431
484 4 2 0 1 544 509 174 424
485 4 2 0 1 70 337 422 99
486 4 2 0 1 422 70 360 337
487 4 2 0 1 173 223 209 212
488 4 2 0 1 290 209 212 90
489 4 2 0 1 24 208 22 48
490 4 2 0 1 121 192 204 146
491 4 2 0 1 121 146 204 198
492 4 2 0 1 382 227 366 392
493 4 2 0 1 191 301 361 310
494 4 2 0 1 161 55 110 89
495 4 2 0 1 4 64 188 1
496 4 2 0 1 185 155 88 109
497 4 2 0 1 27 155 185 109
498 4 2 0 1 86 27 155 176
499 4 2 0 1 151 54 84 160
500 4 2 0 1 109 101 88 185
501 4 2 0 1 484 536 548 489
502 4 2 0 1 27 101 109 185
503 4 2 0 1 86 88 155 109
504 4 2 0 1 155 51 88 74
505 4 2 0 1 75 155 72 74
506 4 2 0 1 190 470 323 443
507 4 2 0 1 443 357 323 190
508 4 2 0 1 470 167 190 323
509 4 2 0 1 372 157 370 379
510 4 2 0 1 411 227 144 200
511 4 2 0 1 392 411 200 227
512 4 2 0 1 136 200 392 411
513 4 2 0 1 200 216 411 136
514 4 2 0 1 201 193 14 79
515 4 2 0 1 465 527 106 526
516 4 2 0 1 201 193 157 14
517 4 2 0 1 157 478 193 201
518 4 2 0 1 370 201 393 379
519 4 2 0 1 157 201 370 379
520 4 2 0 1 357 231 363 137
521 4 2 0 1 72 176 175 49
522 4 2 0 1 493 403 127 225
523 4 2 0 1 443 357 190 137
524 4 2 0 1 404 498 227 366
525 4 2 0 1 390 227 366 404
526 4 2 0 1 160 37 190 38
527 4 2 0 1 137 160 84 37
528 4 2 0 1 190 160 137 37
529 4 2 0 1 30 217 46 383
530 4 2 0 1 383 217 46 360
531 4 2 0 1 217 79 393 383
532 4 2 0 1 360 217 393 383
533 4 2 0 1 125 136 220 65
534 4 2 0 1 166 233 111 254
535 4 2 0 1 140 56 41 58
536 4 2 0 1 140 58 41 113
537 4 2 0 1 235 245 143 270
538 4 2 0 1 530 535 504 534
539 4 2 0 1 92 16 316 283
540 4 2 0 1 283 92 273 284
541 4 2 0 1 283 16 273 92
542 4 2 0 1 223 173 80 212
543 4 2 0 1 230 80 223 173
544 4 2 0 1 80 230 223 61
545 4 2 0 1 271 141 158 70
546 4 2 0 1 194 225 493 47
547 4 2 0 1 389 225 403 412
548 4 2 0 1 396 507 139 127
549 4 2 0 1 225 403 396 389
550 4 2 0 1 296 311 240 87
551 4 2 0 1 366 85 498 227
552 4 2 0 1 340 38 92 16
553 4 2 0 1 245 132 169 198
554 4 2 0 1 149 32 6 10
555 4 2 0 1 231 469 137 443
556 4 2 0 1 248 447 216 401
557 4 2 0 1 493 139 418 211
558 4 2 0 1 418 139 253 211
559 4 2 0 1 268 234 207 232
560 4 2 0 1 382 114 85 227
561 4 2 0 1 382 85 366 227
562 4 2 0 1 428 339 118 310
563 4 2 0 1 118 310 339 361
564 4 2 0 1 236 17 44 21
565 4 2 0 1 39 17 44 236
566 4 2 0 1 156 191 341 310
567 4 2 0 1 285 150 191 156
568 4 2 0 1 213 150 191 301
569 4 2 0 1 363 137 450 37
570 4 2 0 1 86 176 175 27
571 4 2 0 1 450 137 363 231
572 4 2 0 1 164 238 222 221
573 4 2 0 1 164 238 221 197
574 4 2 0 1 123 238 164 197
575 4 2 0 1 197 238 132 123
576 4 2 0 1 80 26 173 24
577 4 2 0 1 362 451 369 378
578 4 2 0 1 362 369 451 539
579 4 2 0 1 412 369 539 451
580 4 2 0 1 227 404 411 31
581 4 2 0 1 390 411 227 404
582 4 2 0 1 96 60 35 159
583 4 2 0 1 96 88 78 51
584 4 2 0 1 216 503 248 145
585 4 2 0 1 27 72 176 175
586 4 2 0 1 72 27 189 175
587 4 2 0 1 398 467 388 211
588 4 2 0 1 136 216 411 401
589 4 2 0 1 528 458 468 462
590 4 2 0 1 397 174 430 398
591 4 2 0 1 397 431 430 174
592 4 2 0 1 248 136 220 125
593 4 2 0 1 136 220 145 248
594 4 2 0 1 493 403 225 412
595 4 2 0 1 493 412 225 194
596 4 2 0 1 134 88 185 155
597 4 2 0 1 411 144 216 200
598 4 2 0 1 145 200 216 144
599 4 2 0 1 493 139 127 403
600 4 2 0 1 25 149 18 203
601 4 2 0 1 146 110 161 198
602 4 2 0 1 161 135 89 146
603 4 2 0 1 146 161 153 198
604 4 2 0 1 110 161 89 146
605 4 2 0 1 146 161 135 153
606 4 2 0 1 268 234 232 249
607 4 2 0 1 268 249 305 234
608 4 2 0 1 305 268 303 249
609 4 2 0 1 428 456 475 339
610 4 2 0 1 302 187 289 295
611 4 2 0 1 328 295 302 289
612 4 2 0 1 211 388 253 418
613 4 2 0 1 94 25 18 203
614 4 2 0 1 94 189 18 25
615 4 2 0 1 81 171 43 104
616 4 2 0 1 104 171 43 169
617 4 2 0 1 403 253 139 398
618 4 2 0 1 253 139 398 211
619 4 2 0 1 211 388 398 253
620 4 2 0 1 447 154 405 125
621 4 2 0 1 154 405 471 447
622 4 2 0 1 77 202 189 148
623 4 2 0 1 235 282 28 172
624 4 2 0 1 172 28 235 117
625 4 2 0 1 117 28 235 171
626 4 2 0 1 28 81 235 171
627 4 2 0 1 235 282 81 28
628 4 2 0 1 168 18 148 189
629 4 2 0 1 226 262 237 257
630 4 2 0 1 189 148 168 77
631 4 2 0 1 27 202 189 77
632 4 2 0 1 278 311 240 163
633 4 2 0 1 240 311 278 87
634 4 2 0 1 468 476 475 534
635 4 2 0 1 534 476 475 490
636 4 2 0 1 423 471 83 119
637 4 2 0 1 289 262 105 122
638 4 2 0 1 187 105 289 262
639 4 2 0 1 104 242 195 183
640 4 2 0 1 104 183 195 169
641 4 2 0 1 233 104 169 143
642 4 2 0 1 210 281 247 251
643 4 2 0 1 210 251 247 57
644 4 2 0 1 145 503 248 220
645 4 2 0 1 510 220 125 248
646 4 2 0 1 249 87 305 234
647 4 2 0 1 243 53 95 50
648 4 2 0 1 183 169 43 252
649 4 2 0 1 183 43 57 252
650 4 2 0 1 226 237 281 257
651 4 2 0 1 289 281 299 295
652 4 2 0 1 289 299 281 237
653 4 2 0 1 281 295 289 226
654 4 2 0 1 289 281 226 237
655 4 2 0 1 33 32 6 13
656 4 2 0 1 33 13 29 32
657 4 2 0 1 50 243 178 77
658 4 2 0 1 50 243 77 95
659 4 2 0 1 295 187 289 226
660 4 2 0 1 251 43 57 183
661 4 2 0 1 251 104 43 183
662 4 2 0 1 251 281 261 81
663 4 2 0 1 251 43 261 57
664 4 2 0 1 28 261 81 43
665 4 2 0 1 81 177 261 28
666 4 2 0 1 131 28 261 177
667 4 2 0 1 217 422 393 214
668 4 2 0 1 423 471 119 154
669 4 2 0 1 423 471 154 405
670 4 2 0 1 157 372 404 379
671 4 2 0 1 468 533 528 534
672 4 2 0 1 393 360 337 422
673 4 2 0 1 217 193 393 79
674 4 2 0 1 393 201 79 193
675 4 2 0 1 201 478 193 393
676 4 2 0 1 193 478 214 393
677 4 2 0 1 214 193 393 217
678 4 2 0 1 235 171 81 104
679 4 2 0 1 81 43 261 251
680 4 2 0 1 261 177 81 281
681 4 2 0 1 296 321 276 337
682 4 2 0 1 233 242 195 104
683 4 2 0 1 233 104 195 169
684 4 2 0 1 360 337 321 393
685 4 2 0 1 281 247 257 210
686 4 2 0 1 226 187 289 262
687 4 2 0 1 237 226 289 262
688 4 2 0 1 289 122 105 138
689 4 2 0 1 174 255 431 467
690 4 2 0 1 174 255 544 431
691 4 2 0 1 169 195 233 192
692 4 2 0 1 183 252 57 210
693 4 2 0 1 169 43 104 183
694 4 2 0 1 235 171 104 169
695 4 2 0 1 3 266 63 4
696 4 2 0 1 63 266 112 4
697 4 2 0 1 4 266 112 9
698 4 2 0 1 510 220 248 503
699 4 2 0 1 510 248 447 503
700 4 2 0 1 242 210 195 183
701 4 2 0 1 337 276 274 70
702 4 2 0 1 70 276 321 337
703 4 2 0 1 70 274 337 158
704 4 2 0 1 233 143 169 254
705 4 2 0 1 6 4 188 13
706 4 2 0 1 4 13 112 188
707 4 2 0 1 13 112 9 4
708 4 2 0 1 242 104 251 183
709 4 2 0 1 251 281 247 261
710 4 2 0 1 251 261 247 57
711 4 2 0 1 289 105 304 138
712 4 2 0 1 302 304 289 187
713 4 2 0 1 187 304 289 105
714 4 2 0 1 216 503 447 248
715 4 2 0 1 201 478 393 379
716 4 2 0 1 478 157 404 379
717 4 2 0 1 157 478 201 379
718 4 2 0 1 255 467 174 499
719 4 2 0 1 413 432 501 438
720 4 2 0 1 354 347 324 414
721 4 2 0 1 505 473 491 521
722 4 2 0 1 505 462 528 500
723 4 2 0 1 513 425 515 516
724 4 2 0 1 521 491 513 522
725 4 2 0 1 522 473 521 491
726 4 2 0 1 442 473 522 491
727 4 2 0 1 347 354 442 414
728 4 2 0 1 440 457 522 442
729 4 2 0 1 293 324 275 435
730 4 2 0 1 473 458 442 522
731 4 2 0 1 442 458 324 457
732 4 2 0 1 275 458 324 414
733 4 2 0 1 456 533 468 475
734 4 2 0 1 480 456 339 475
735 4 2 0 1 441 435 519 445
736 4 2 0 1 448 435 526 454
737 4 2 0 1 125 510 248 447
738 4 2 0 1 505 473 521 528
739 4 2 0 1 458 519 457 522
740 4 2 0 1 435 526 458 448
741 4 2 0 1 439 399 427 444
742 4 2 0 1 119 402 413 423
743 4 2 0 1 519 457 516 421
744 4 2 0 1 438 432 501 425
745 4 2 0 1 430 388 398 467
746 4 2 0 1 368 432 438 425
747 4 2 0 1 433 432 394 425
748 4 2 0 1 510 154 447 125
749 4 2 0 1 399 292 306 318
750 4 2 0 1 241 182 540 224
751 4 2 0 1 381 136 65 506
752 4 2 0 1 400 405 346 402
753 4 2 0 1 452 501 425 438
754 4 2 0 1 513 425 501 515
755 4 2 0 1 336 267 540 241
756 4 2 0 1 229 300 219 267
757 4 2 0 1 437 371 444 399
758 4 2 0 1 350 338 263 270
759 4 2 0 1 224 540 241 336
760 4 2 0 1 294 268 305 234
761 4 2 0 1 472 199 391 461
762 4 2 0 1 77 109 86 27
763 4 2 0 1 404 372 366 390
764 4 2 0 1 312 330 313 280
765 4 2 0 1 429 199 353 363
766 4 2 0 1 429 450 199 363
767 4 2 0 1 322 126 340 364
768 4 2 0 1 382 506 392 381
769 4 2 0 1 392 506 382 227
770 4 2 0 1 349 380 396 539
771 4 2 0 1 194 539 225 47
772 4 2 0 1 270 342 397 375
773 4 2 0 1 493 507 139 499
774 4 2 0 1 518 444 436 439
775 4 2 0 1 322 364 314 126
776 4 2 0 1 437 512 463 460
777 4 2 0 1 387 451 417 481
778 4 2 0 1 519 459 455 441
779 4 2 0 1 244 196 135 89
780 4 2 0 1 134 88 55 56
781 4 2 0 1 308 304 62 286
782 4 2 0 1 352 331 375 342
783 4 2 0 1 358 300 334 367
784 4 2 0 1 399 318 377 334
785 4 2 0 1 399 300 334 358
786 4 2 0 1 436 421 459 518
787 4 2 0 1 421 436 439 518
788 4 2 0 1 437 371 463 444
789 4 2 0 1 419 406 514 437
790 4 2 0 1 444 399 427 437
791 4 2 0 1 407 397 408 375
792 4 2 0 1 306 292 399 300
793 4 2 0 1 352 331 408 375
794 4 2 0 1 367 334 358 377
795 4 2 0 1 182 58 181 165
796 4 2 0 1 384 371 306 399
797 4 2 0 1 318 306 399 384
798 4 2 0 1 342 397 410 431
799 4 2 0 1 396 389 349 539
800 4 2 0 1 244 229 196 162
801 4 2 0 1 351 325 111 342
802 4 2 0 1 126 364 373 417
803 4 2 0 1 387 374 481 373
804 4 2 0 1 299 396 295 281
805 4 2 0 1 417 373 387 481
806 4 2 0 1 114 382 381 506
807 4 2 0 1 349 380 355 396
808 4 2 0 1 302 305 131 298
809 4 2 0 1 340 38 364 92
810 4 2 0 1 306 318 269 384
811 4 2 0 1 234 172 131 277
812 4 2 0 1 340 286 312 272
813 4 2 0 1 349 328 396 355
814 4 2 0 1 349 396 328 389
815 4 2 0 1 397 325 351 342
816 4 2 0 1 314 126 364 373
817 4 2 0 1 328 299 295 289
818 4 2 0 1 328 396 299 389
819 4 2 0 1 89 161 130 196
820 4 2 0 1 287 229 300 219
821 4 2 0 1 304 105 62 286
822 4 2 0 1 286 297 273 322
823 4 2 0 1 92 126 273 284
824 4 2 0 1 267 229 300 334
825 4 2 0 1 258 265 277 172
826 4 2 0 1 355 295 302 328
827 4 2 0 1 295 319 396 355
828 4 2 0 1 328 295 396 355
829 4 2 0 1 364 38 485 92
830 4 2 0 1 239 315 338 263
831 4 2 0 1 196 180 229 181
832 4 2 0 1 244 269 229 162
833 4 2 0 1 287 269 306 292
834 4 2 0 1 78 130 116 68
835 4 2 0 1 328 295 299 396
836 4 2 0 1 132 198 245 218
837 4 2 0 1 239 132 235 245
838 4 2 0 1 198 169 254 204
839 4 2 0 1 100 53 206 41
840 4 2 0 1 312 317 286 322
841 4 2 0 1 305 234 131 298
842 4 2 0 1 340 364 38 327
843 4 2 0 1 355 345 302 295
844 4 2 0 1 330 308 311 280
845 4 2 0 1 345 333 355 302
846 4 2 0 1 330 317 308 312
847 4 2 0 1 312 317 308 286
848 4 2 0 1 272 327 320 312
849 4 2 0 1 390 326 305 366
850 4 2 0 1 333 298 305 302
851 4 2 0 1 265 222 186 256
852 4 2 0 1 280 320 313 312
853 4 2 0 1 151 38 485 364
854 4 2 0 1 37 54 84 199
855 4 2 0 1 472 199 461 477
856 4 2 0 1 70 271 276 274
857 4 2 0 1 305 303 268 294
858 4 2 0 1 350 338 270 331
859 4 2 0 1 131 305 302 62
860 4 2 0 1 140 540 58 170
861 4 2 0 1 265 222 207 186
862 4 2 0 1 241 300 267 219
863 4 2 0 1 182 540 165 219
864 4 2 0 1 287 229 219 181
865 4 2 0 1 197 132 218 179
866 4 2 0 1 182 123 58 170
867 4 2 0 1 197 58 179 182
868 4 2 0 1 179 58 197 132
869 4 2 0 1 101 100 56 41
870 4 2 0 1 56 165 100 101
871 4 2 0 1 56 101 115 165
872 4 2 0 1 334 367 300 267
873 4 2 0 1 29 150 33 42
874 4 2 0 1 102 95 77 128
875 4 2 0 1 101 185 41 56
876 4 2 0 1 98 42 150 29
877 4 2 0 1 77 102 109 27
878 4 2 0 1 77 27 202 95
879 4 2 0 1 98 42 156 150
880 4 2 0 1 29 108 150 98
881 4 2 0 1 42 33 32 10
882 4 2 0 1 102 27 101 109
883 4 2 0 1 189 25 175 77
884 4 2 0 1 243 128 178 77
885 4 2 0 1 203 25 42 40
886 4 2 0 1 69 150 156 42
887 4 2 0 1 266 7 112 9
888 4 2 0 1 69 33 150 42
889 4 2 0 1 45 69 40 10
890 4 2 0 1 108 213 150 98
891 4 2 0 1 348 285 341 156
892 4 2 0 1 107 23 12 11
893 4 2 0 1 142 67 24 45
894 4 2 0 1 24 67 142 20
895 4 2 0 1 24 67 76 45
896 4 2 0 1 228 215 293 86
897 4 2 0 1 51 66 88 74
898 4 2 0 1 35 96 159 51
899 4 2 0 1 67 76 45 120
900 4 2 0 1 152 74 246 129
901 4 2 0 1 120 230 82 80
902 4 2 0 1 26 24 34 17
903 4 2 0 1 61 290 547 230
904 4 2 0 1 290 329 90 426
905 4 2 0 1 44 34 17 39
906 4 2 0 1 152 129 246 264
907 4 2 0 1 129 124 264 152
908 4 2 0 1 35 236 44 21
909 4 2 0 1 96 60 124 52
910 4 2 0 1 546 17 44 34
911 4 2 0 1 545 2 5 543
912 4 2 0 1 442 414 324 458
913 4 2 0 1 106 526 454 465
914 4 2 0 1 21 36 94 10
915 4 2 0 1 411 227 392 390
916 4 2 0 1 336 241 260 542
917 4 2 0 1 326 333 305 366
918 4 2 0 1 345 382 333 326
919 4 2 0 1 345 333 298 326
920 4 2 0 1 80 230 82 173
921 4 2 0 1 314 273 297 322
922 4 2 0 1 273 286 340 16
923 4 2 0 1 197 58 182 123
924 4 2 0 1 170 164 182 123
925 4 2 0 1 491 513 522 440
926 4 2 0 1 476 534 500 490
927 4 2 0 1 364 470 92 485
928 4 2 0 1 56 88 185 134
929 4 2 0 1 477 429 199 461
930 4 2 0 1 518 512 453 436
931 4 2 0 1 514 512 444 437
932 4 2 0 1 360 422 393 217
933 4 2 0 1 425 433 516 421
934 4 2 0 1 156 150 191 213
935 4 2 0 1 129 74 66 152
936 4 2 0 1 483 529 527 536
937 4 2 0 1 483 536 484 482
938 4 2 0 1 484 536 489 482
939 4 2 0 1 239 221 256 186
940 4 2 0 1 462 473 528 458
941 4 2 0 1 88 129 86 74
942 4 2 0 1 466 518 436 455
943 4 2 0 1 408 407 375 350
944 4 2 0 1 288 315 256 346
945 4 2 0 1 292 306 318 269
946 4 2 0 1 292 287 300 306
947 4 2 0 1 519 526 522 458
948 4 2 0 1 459 445 519 421
949 4 2 0 1 441 526 106 519
950 4 2 0 1 22 24 26 17
951 4 2 0 1 312 272 286 280
952 4 2 0 1 432 516 83 515
953 4 2 0 1 92 16 273 340
954 4 2 0 1 273 297 284 314
955 4 2 0 1 291 228 275 128
956 4 2 0 1 150 67 69 156
957 4 2 0 1 356 435 434 441
958 4 2 0 1 516 421 433 439
959 4 2 0 1 280 320 276 321
960 4 2 0 1 291 347 275 324
961 4 2 0 1 69 67 45 156
962 4 2 0 1 366 392 326 382
963 4 2 0 1 15 64 538 1
964 4 2 0 1 239 218 250 197
965 4 2 0 1 239 172 186 256
966 4 2 0 1 437 420 409 508
967 4 2 0 1 420 460 508 437
968 4 2 0 1 461 429 199 353
969 4 2 0 1 276 321 320 70
970 4 2 0 1 321 320 70 360
971 4 2 0 1 271 272 70 276
972 4 2 0 1 269 306 384 335
973 4 2 0 1 109 228 77 86
974 4 2 0 1 428 475 118 339
975 4 2 0 1 339 475 118 361
976 4 2 0 1 21 24 208 17
977 4 2 0 1 156 213 98 150
978 4 2 0 1 191 213 301 310
979 4 2 0 1 152 124 264 205
980 4 2 0 1 241 267 540 219
981 4 2 0 1 241 540 182 219
982 4 2 0 1 408 350 375 331
983 4 2 0 1 341 339 310 191
984 4 2 0 1 501 432 83 515
985 4 2 0 1 140 58 113 170
986 4 2 0 1 131 28 177 282
987 4 2 0 1 72 49 94 36
988 4 2 0 1 539 225 396 389
989 4 2 0 1 381 407 507 65
990 4 2 0 1 307 293 395 228
991 4 2 0 1 435 293 395 356
992 4 2 0 1 420 431 409 544
993 4 2 0 1 518 455 459 436
994 4 2 0 1 8 5 543 545
995 4 2 0 1 25 149 203 32
996 4 2 0 1 221 186 239 132
997 4 2 0 1 115 165 180 55
998 4 2 0 1 287 229 196 244
999 4 2 0 1 196 229 287 181
1000 4 2 0 1 180 196 229 162
1001 4 2 0 1 505 491 473 462
1002 4 2 0 1 406 508 424 514
1003 4 2 0 1 154 447 471 510
1004 4 2 0 1 96 60 159 78
1005 4 2 0 1 264 332 293 246
1006 4 2 0 1 529 482 525 495
1007 4 2 0 1 529 525 482 483
1008 4 2 0 1 479 525 483 492
1009 4 2 0 1 529 483 527 525
1010 4 2 0 1 482 449 483 492
1011 4 2 0 1 483 449 482 484
1012 4 2 0 1 204 146 153 198
1013 4 2 0 1 202 41 53 95
1014 4 2 0 1 102 27 77 95
1015 4 2 0 1 39 66 52 35
1016 4 2 0 1 487 464 517 465
1017 4 2 0 1 263 265 172 256
1018 4 2 0 1 498 478 193 157
1019 4 2 0 1 58 161 179 181
1020 4 2 0 1 464 525 517 527
1021 4 2 0 1 27 41 95 102
1022 4 2 0 1 27 41 202 95
1023 4 2 0 1 41 100 53 95
1024 4 2 0 1 95 202 148 53
1025 4 2 0 1 41 100 95 102
1026 4 2 0 1 331 270 342 254
1027 4 2 0 1 72 74 49 36
1028 4 2 0 1 225 412 539 194
1029 4 2 0 1 482 529 536 489
1030 4 2 0 1 180 161 181 196
1031 4 2 0 1 483 525 482 492
1032 4 2 0 1 482 529 489 495
1033 4 2 0 1 45 67 120 156
1034 4 2 0 1 285 120 61 230
1035 4 2 0 1 228 293 395 324
1036 4 2 0 1 56 165 140 100
1037 4 2 0 1 424 408 406 511
1038 4 2 0 1 514 511 424 406
1039 4 2 0 1 280 330 308 312
1040 4 2 0 1 392 200 506 227
1041 4 2 0 1 487 518 455 517
1042 4 2 0 1 455 466 518 487
1043 4 2 0 1 397 375 352 408
1044 4 2 0 1 397 375 342 352
1045 4 2 0 1 514 511 419 427
1046 4 2 0 1 406 511 419 514
1047 4 2 0 1 130 78 115 55
1048 4 2 0 1 115 88 56 55
1049 4 2 0 1 55 78 159 68
1050 4 2 0 1 60 78 116 68
1051 4 2 0 1 280 330 313 321
1052 4 2 0 1 373 417 364 481
1053 4 2 0 1 481 417 364 470
1054 4 2 0 1 374 364 481 373
1055 4 2 0 1 109 86 215 228
1056 4 2 0 1 143 245 254 270
1057 4 2 0 1 218 132 239 245
1058 4 2 0 1 218 179 110 161
1059 4 2 0 1 61 547 290 348
1060 4 2 0 1 259 332 264 205
1061 4 2 0 1 93 196 244 89
1062 4 2 0 1 93 130 89 68
1063 4 2 0 1 169 254 143 245
1064 4 2 0 1 539 496 225 47
1065 4 2 0 1 336 542 300 241
1066 4 2 0 1 547 348 61 285
1067 4 2 0 1 437 460 508 512
1068 4 2 0 1 520 489 529 495
1069 4 2 0 1 458 473 442 414
1070 4 2 0 1 86 176 155 74
1071 4 2 0 1 11 107 64 12
1072 4 2 0 1 332 293 307 264
1073 4 2 0 1 307 293 228 215
1074 4 2 0 1 264 293 307 215
1075 4 2 0 1 505 531 500 528
1076 4 2 0 1 39 236 44 35
1077 4 2 0 1 35 44 39 66
1078 4 2 0 1 96 52 152 66
1079 4 2 0 1 96 66 88 51
1080 4 2 0 1 196 153 135 161
1081 4 2 0 1 174 431 430 467
1082 4 2 0 1 238 186 222 221
1083 4 2 0 1 238 186 221 132
1084 4 2 0 1 221 186 222 256
1085 4 2 0 1 26 34 24 80
1086 4 2 0 1 129 152 66 96
1087 4 2 0 1 519 106 441 455
1088 4 2 0 1 441 526 435 454
1089 4 2 0 1 230 223 290 209
1090 4 2 0 1 88 109 86 129
1091 4 2 0 1 215 129 86 109
1092 4 2 0 1 391 199 353 461
1093 4 2 0 1 33 6 12 13
1094 4 2 0 1 217 422 214 486
1095 4 2 0 1 205 259 332 344
1096 4 2 0 1 22 208 5 48
1097 4 2 0 1 162 130 180 196
1098 4 2 0 1 163 311 296 321
1099 4 2 0 1 96 52 35 60
1100 4 2 0 1 96 52 124 152
1101 4 2 0 1 96 52 66 35
1102 4 2 0 1 464 527 517 465
1103 4 2 0 1 464 525 527 483
1104 4 2 0 1 406 409 508 437
1105 4 2 0 1 538 15 545 11
1106 4 2 0 1 243 128 77 95
1107 4 2 0 1 496 376 385 380
1108 4 2 0 1 386 480 484 474
1109 4 2 0 1 196 135 89 161
1110 4 2 0 1 196 130 180 161
1111 4 2 0 1 511 516 413 427
1112 4 2 0 1 215 86 129 293
1113 4 2 0 1 129 86 74 246
1114 4 2 0 1 354 324 347 291
1115 4 2 0 1 395 293 435 324
1116 4 2 0 1 324 275 291 228
1117 4 2 0 1 276 272 70 320
1118 4 2 0 1 70 337 321 360
1119 4 2 0 1 206 41 113 140
1120 4 2 0 1 534 504 494 535
1121 4 2 0 1 369 378 451 387
1122 4 2 0 1 223 230 290 61
1123 4 2 0 1 45 61 156 120
1124 4 2 0 1 68 130 55 78
1125 4 2 0 1 280 272 276 320
1126 4 2 0 1 333 326 305 298
1127 4 2 0 1 298 326 305 294
1128 4 2 0 1 150 156 285 67
1129 4 2 0 1 339 191 341 285
1130 4 2 0 1 89 196 130 93
1131 4 2 0 1 528 462 468 476
1132 4 2 0 1 186 132 172 239
1133 4 2 0 1 172 186 256 265
1134 4 2 0 1 276 296 280 321
1135 4 2 0 1 295 131 282 298
1136 4 2 0 1 517 464 487 479
1137 4 2 0 1 526 441 106 454
1138 4 2 0 1 355 376 345 396
1139 4 2 0 1 77 228 102 128
1140 4 2 0 1 27 102 101 41
1141 4 2 0 1 101 100 41 102
1142 4 2 0 1 136 506 392 200
1143 4 2 0 1 381 506 392 136
1144 4 2 0 1 522 526 528 458
1145 4 2 0 1 427 73 511 516
1146 4 2 0 1 24 21 142 546
1147 4 2 0 1 356 365 332 359
1148 4 2 0 1 206 41 140 100
1149 4 2 0 1 44 21 17 546
1150 4 2 0 1 528 505 531 521
1151 4 2 0 1 21 36 44 74
1152 4 2 0 1 126 92 340 364
1153 4 2 0 1 384 377 399 318
1154 4 2 0 1 129 293 86 246
1155 4 2 0 1 482 529 483 536
1156 4 2 0 1 352 397 408 410
1157 4 2 0 1 181 58 182 179
1158 4 2 0 1 545 5 2 538
1159 4 2 0 1 20 8 545 48
1160 4 2 0 1 265 172 207 277
1161 4 2 0 1 277 268 294 234
1162 4 2 0 1 277 268 234 207
1163 4 2 0 1 137 469 84 485
1164 4 2 0 1 182 170 540 224
1165 4 2 0 1 387 378 481 374
1166 4 2 0 1 48 24 142 20
1167 4 2 0 1 511 413 419 427
1168 4 2 0 1 396 507 398 139
1169 4 2 0 1 267 300 336 367
1170 4 2 0 1 367 300 336 542
1171 4 2 0 1 481 364 374 378
1172 4 2 0 1 165 181 229 180
1173 4 2 0 1 540 267 165 219
1174 4 2 0 1 182 165 181 219
1175 4 2 0 1 55 181 165 180
1176 4 2 0 1 22 24 48 8
1177 4 2 0 1 23 67 10 33
1178 4 2 0 1 74 176 91 86
1179 4 2 0 1 44 75 21 74
1180 4 2 0 1 380 496 539 362
1181 4 2 0 1 529 536 520 537
1182 4 2 0 1 23 12 33 10
1183 4 2 0 1 428 341 456 339
1184 4 2 0 1 437 463 512 444
1185 4 2 0 1 514 437 508 512
1186 4 2 0 1 315 338 402 288
1187 4 2 0 1 400 350 338 315
1188 4 2 0 1 70 327 360 320
1189 4 2 0 1 359 395 332 356
1190 4 2 0 1 124 96 152 129
1191 4 2 0 1 545 107 538 11
1192 4 2 0 1 367 358 300 542
1193 4 2 0 1 515 432 516 425
1194 4 2 0 1 112 188 12 15
1195 4 2 0 1 404 478 498 157
1196 4 2 0 1 456 547 474 480
1197 4 2 0 1 174 509 544 255
1198 4 2 0 1 293 332 307 395
1199 4 2 0 1 395 356 293 332
1200 4 2 0 1 473 462 528 505
1201 4 2 0 1 300 336 241 267
1202 4 2 0 1 433 427 432 516
1203 4 2 0 1 437 514 419 427
1204 4 2 0 1 520 488 489 495
1205 4 2 0 1 511 408 406 419
1206 4 2 0 1 173 24 82 80
1207 4 2 0 1 344 205 359 332
1208 4 2 0 1 205 332 246 365
1209 4 2 0 1 293 356 246 332
1210 4 2 0 1 288 402 315 346
1211 4 2 0 1 63 112 15 188
1212 4 2 0 1 508 409 424 544
1213 4 2 0 1 408 410 511 424
1214 4 2 0 1 544 409 424 431
1215 4 2 0 1 162 196 93 130
1216 4 2 0 1 130 55 161 89
1217 4 2 0 1 150 67 33 69
1218 4 2 0 1 165 55 115 56
1219 4 2 0 1 397 342 351 431
1220 4 2 0 1 500 534 528 531
1221 4 2 0 1 490 500 531 534
1222 4 2 0 1 518 453 512 517
1223 4 2 0 1 487 453 518 517
1224 4 2 0 1 399 444 439 384
1225 4 2 0 1 42 32 33 29
1226 4 2 0 1 321 313 280 320
1227 4 2 0 1 394 368 425 432
1228 4 2 0 1 66 74 75 44
1229 4 2 0 1 20 10 23 67
1230 4 2 0 1 390 326 366 392
1231 4 2 0 1 306 287 244 269
1232 4 2 0 1 306 244 335 269
1233 4 2 0 1 180 181 161 55
1234 4 2 0 1 470 443 190 485
1235 4 2 0 1 450 469 137 231
1236 4 2 0 1 540 170 182 58
1237 4 2 0 1 507 407 397 511
1238 4 2 0 1 80 26 212 173
1239 4 2 0 1 507 398 397 407
1240 4 2 0 1 222 221 256 288
1241 4 2 0 1 288 221 315 338
1242 4 2 0 1 288 221 256 315
1243 4 2 0 1 239 331 270 338
1244 4 2 0 1 256 263 315 239
1245 4 2 0 1 290 209 223 212
1246 4 2 0 1 263 315 338 350
1247 4 2 0 1 441 435 526 519
1248 4 2 0 1 345 396 376 382
1249 4 2 0 1 396 381 398 507
1250 4 2 0 1 66 88 74 129
1251 4 2 0 1 493 139 507 127
1252 4 2 0 1 547 341 348 285
1253 4 2 0 1 298 277 294 234
1254 4 2 0 1 298 234 131 277
1255 4 2 0 1 380 496 225 539
1256 4 2 0 1 292 334 300 229
1257 4 2 0 1 334 399 292 300
1258 4 2 0 1 267 219 229 165
1259 4 2 0 1 292 318 399 334
1260 4 2 0 1 270 166 342 254
1261 4 2 0 1 270 166 325 342
1262 4 2 0 1 185 101 88 56
1263 4 2 0 1 292 300 287 229
1264 4 2 0 1 65 381 407 400
1265 4 2 0 1 294 234 305 298
1266 4 2 0 1 36 49 94 40
1267 4 2 0 1 546 21 17 24
1268 4 2 0 1 10 36 45 142
1269 4 2 0 1 10 21 36 142
1270 4 2 0 1 169 198 254 245
1271 4 2 0 1 454 526 448 465
1272 4 2 0 1 522 473 458 528
1273 4 2 0 1 522 521 473 528
1274 4 2 0 1 378 451 387 481
1275 4 2 0 1 322 286 297 184
1276 4 2 0 1 184 286 105 304
1277 4 2 0 1 324 395 457 435
1278 4 2 0 1 439 399 384 377
1279 4 2 0 1 441 435 445 395
1280 4 2 0 1 74 91 176 49
1281 4 2 0 1 540 182 165 58
1282 4 2 0 1 331 254 279 270
1283 4 2 0 1 259 205 264 124
1284 4 2 0 1 246 205 152 264
1285 4 2 0 1 377 427 358 367
1286 4 2 0 1 439 427 399 377
1287 4 2 0 1 408 397 511 410
1288 4 2 0 1 207 172 234 277
1289 4 2 0 1 415 454 441 365
1290 4 2 0 1 359 441 365 415
1291 4 2 0 1 263 258 172 265
1292 4 2 0 1 25 203 94 40
1293 4 2 0 1 336 367 542 368
1294 4 2 0 1 293 264 129 215
1295 4 2 0 1 129 264 293 246
1296 4 2 0 1 19 119 510 154
1297 4 2 0 1 204 169 254 233
1298 4 2 0 1 377 427 399 358
1299 4 2 0 1 358 427 394 367
1300 4 2 0 1 433 427 516 439
1301 4 2 0 1 407 408 400 350
1302 4 2 0 1 400 408 338 350
1303 4 2 0 1 169 143 235 245
1304 4 2 0 1 245 270 235 239
1305 4 2 0 1 172 235 239 132
1306 4 2 0 1 239 263 235 172
1307 4 2 0 1 542 260 336 368
1308 4 2 0 1 336 260 241 224
1309 4 2 0 1 375 270 342 331
1310 4 2 0 1 270 375 350 331
1311 4 2 0 1 484 480 133 474
1312 4 2 0 1 483 484 536 133
1313 4 2 0 1 536 480 133 484
1314 4 2 0 1 408 338 402 400
1315 4 2 0 1 286 184 322 317
1316 4 2 0 1 145 216 503 144
1317 4 2 0 1 239 172 256 263
1318 4 2 0 1 197 132 221 239
1319 4 2 0 1 484 548 536 480
1320 4 2 0 1 315 221 239 338
1321 4 2 0 1 441 415 359 455
1322 4 2 0 1 454 415 441 455
1323 4 2 0 1 449 482 386 329
1324 4 2 0 1 405 447 125 401
1325 4 2 0 1 540 140 58 165
1326 4 2 0 1 120 45 82 76
1327 4 2 0 1 45 80 120 82
1328 4 2 0 1 198 161 218 110
1329 4 2 0 1 456 533 475 480
1330 4 2 0 1 427 516 413 432
1331 4 2 0 1 176 74 49 72
1332 4 2 0 1 519 458 435 526
1333 4 2 0 1 170 140 206 113
1334 4 2 0 1 33 69 67 10
1335 4 2 0 1 69 10 45 67
1336 4 2 0 1 293 324 228 275
1337 4 2 0 1 229 287 269 244
1338 4 2 0 1 396 355 376 380
1339 4 2 0 1 64 107 11 538
1340 4 2 0 1 518 444 512 436
1341 4 2 0 1 398 381 407 507
1342 4 2 0 1 139 507 398 499
1343 4 2 0 1 24 546 34 17
1344 4 2 0 1 24 21 48 142
1345 4 2 0 1 45 80 24 546
1346 4 2 0 1 545 107 48 538
1347 4 2 0 1 239 132 218 197
1348 4 2 0 1 371 384 444 399
1349 4 2 0 1 162 93 116 130
1350 4 2 0 1 55 161 180 130
1351 4 2 0 1 536 533 133 480
1352 4 2 0 1 382 333 366 376
1353 4 2 0 1 345 333 376 355
1354 4 2 0 1 333 366 326 382
1355 4 2 0 1 333 345 376 382
1356 4 2 0 1 89 55 68 130
1357 4 2 0 1 130 55 115 180
1358 4 2 0 1 499 467 398 211
1359 4 2 0 1 509 255 174 499
1360 4 2 0 1 365 205 332 359
1361 4 2 0 1 338 408 331 350
1362 4 2 0 1 197 221 132 238
1363 4 2 0 1 45 36 10 40
1364 4 2 0 1 45 142 36 546
1365 4 2 0 1 449 547 290 329
1366 4 2 0 1 348 547 290 449
1367 4 2 0 1 449 547 474 348
1368 4 2 0 1 329 547 386 449
1369 4 2 0 1 58 165 140 56
1370 4 2 0 1 351 431 430 397
1371 4 2 0 1 96 129 88 66
1372 4 2 0 1 11 107 20 545
1373 4 2 0 1 493 418 403 412
1374 4 2 0 1 324 354 414 442
1375 4 2 0 1 534 500 528 476
1376 4 2 0 1 485 443 190 137
1377 4 2 0 1 469 137 443 485
1378 4 2 0 1 463 512 436 453
1379 4 2 0 1 32 149 203 10
1380 4 2 0 1 58 123 197 132
1381 4 2 0 1 182 123 164 197
1382 4 2 0 1 246 205 264 332
1383 4 2 0 1 44 66 35 75
1384 4 2 0 1 355 319 345 295
1385 4 2 0 1 400 315 338 402
1386 4 2 0 1 400 346 315 402
1387 4 2 0 1 485 92 190 470
1388 4 2 0 1 44 36 21 546
1389 4 2 0 1 102 77 109 228
1390 4 2 0 1 291 178 128 275
1391 4 2 0 1 399 334 377 358
1392 4 2 0 1 386 482 449 484
1393 4 2 0 1 281 226 257 247
1394 4 2 0 1 287 292 229 269
1395 4 2 0 1 55 78 51 159
1396 4 2 0 1 407 511 507 65
1397 4 2 0 1 200 145 216 136
1398 4 2 0 1 136 506 220 65
1399 4 2 0 1 480 456 533 133
1400 4 2 0 1 428 341 339 310
1401 4 2 0 1 78 159 96 51
1402 4 2 0 1 78 55 88 115
1403 4 2 0 1 23 11 107 20
1404 4 2 0 1 457 435 445 519
1405 4 2 0 1 58 110 179 161
1406 4 2 0 1 547 341 456 348
1407 4 2 0 1 433 427 394 432
1408 4 2 0 1 413 511 419 408
1409 4 2 0 1 310 361 191 339
1410 4 2 0 1 249 278 305 87
1411 4 2 0 1 244 93 162 196
1412 4 2 0 1 306 384 335 371
1413 4 2 0 1 42 10 69 33
1414 4 2 0 1 40 42 10 69
1415 4 2 0 1 321 311 296 280
1416 4 2 0 1 296 311 87 280
1417 4 2 0 1 330 311 321 280
1418 4 2 0 1 87 278 305 311
1419 4 2 0 1 308 311 87 305
1420 4 2 0 1 530 534 490 531
1421 4 2 0 1 25 32 203 42
1422 4 2 0 1 494 533 548 480
1423 4 2 0 1 156 348 285 61
1424 4 2 0 1 150 301 213 108
1425 4 2 0 1 305 249 303 278
1426 4 2 0 1 429 199 450 477
1427 4 2 0 1 56 41 100 140
1428 4 2 0 1 98 32 42 29
1429 4 2 0 1 172 282 258 235
1430 4 2 0 1 263 235 172 258
1431 4 2 0 1 34 546 24 80
1432 4 2 0 1 82 80 24 45
1433 4 2 0 1 525 464 479 483
1434 4 2 0 1 11 12 64 15
1435 4 2 0 1 459 455 518 519
1436 4 2 0 1 245 279 254 270
1437 4 2 0 1 331 279 245 270
1438 4 2 0 1 239 263 270 235
1439 4 2 0 1 239 270 263 338
1440 4 2 0 1 239 331 245 270
1441 4 2 0 1 172 258 282 277
1442 4 2 0 1 281 282 295 177
1443 4 2 0 1 11 64 538 15
1444 4 2 0 1 56 88 115 101
1445 4 2 0 1 272 312 320 280
1446 4 2 0 1 528 534 476 468
1447 4 2 0 1 468 475 476 428
1448 4 2 0 1 381 114 65 507
1449 4 2 0 1 362 385 496 378
1450 4 2 0 1 280 308 311 87
1451 4 2 0 1 286 317 308 304
1452 4 2 0 1 506 145 200 136
1453 4 2 0 1 340 286 273 322
1454 4 2 0 1 273 322 126 340
1455 4 2 0 1 169 121 204 198
1456 4 2 0 1 373 374 364 314
1457 4 2 0 1 68 116 93 130
1458 4 2 0 1 507 174 499 509
1459 4 2 0 1 519 457 421 445
1460 4 2 0 1 268 207 277 265
1461 4 2 0 1 298 131 282 277
1462 4 2 0 1 188 13 112 12
1463 4 2 0 1 415 446 359 455
1464 4 2 0 1 528 462 476 500
1465 4 2 0 1 246 356 365 332
1466 4 2 0 1 548 520 536 532
1467 4 2 0 1 537 532 520 523
1468 4 2 0 1 523 548 520 497
1469 4 2 0 1 520 548 523 532
1470 4 2 0 1 523 520 502 497
1471 4 2 0 1 520 548 489 488
1472 4 2 0 1 435 457 324 458
1473 4 2 0 1 275 324 458 435
1474 4 2 0 1 519 435 458 457
1475 4 2 0 1 367 425 394 368
1476 4 2 0 1 440 513 452 491
1477 4 2 0 1 513 440 452 425
1478 4 2 0 1 394 368 542 367
1479 4 2 0 1 394 367 427 433
1480 4 2 0 1 367 425 368 336
1481 4 2 0 1 439 427 377 367
1482 4 2 0 1 516 522 457 519
1483 4 2 0 1 394 367 433 425
1484 4 2 0 1 367 439 427 433
1485 4 2 0 1 395 457 435 445
1486 4 2 0 1 494 534 490 504
1487 4 2 0 1 524 494 504 535
1488 4 2 0 1 535 524 530 504
1489 4 2 0 1 524 494 535 541
1490 4 2 0 1 489 536 548 520
1491 4 2 0 1 520 488 495 502
1492 4 2 0 1 520 488 497 548
1493 4 2 0 1 536 532 520 537
$EndElements
