# File exported by Houdini 21.0.440 (www.sidefx.com)
# 179 points
# 1062 vertices
# 354 primitives
# Bounds: [-0.00309538003, 0.0115, 0.0077070198] to [0.0257701408, 0.0707192272, 0.0233429801]
g 
v 0.0173414648 0.028167855 0.0091929473 0.00241353177 0.304926753 0.578922033
v 0.0173496772 0.0281666219 0.0218570102 0.00384436361 0.304360241 0.578050435
v 0.0171760656 0.0277702343 0.00920683239 0 0.305882365 0.580392182
v 0.0171525609 0.0277467258 0.0218423475 0 0.305882365 0.580392182
v 0.0168427303 0.0275945403 0.00921248179 0 0.305882365 0.580392182
v 0.0168479364 0.0275955573 0.0218370706 0 0.305882365 0.580392182
v 0.0160509516 0.0201036911 0.00947455317 0 0.305882365 0.580392182
v 0.0160856023 0.020092262 0.0215750467 0 0.305882365 0.580392182
v 0.0163733847 0.0198227409 0.00948436558 0 0.305882365 0.580392182
v 0.0163884684 0.0197931323 0.021564601 0 0.305882365 0.580392182
v 0.0164382793 0.0195442308 0.00949409045 0 0.305882365 0.580392182
v 0.0164382793 0.0195442308 0.0215559099 5.05149592e-16 0.305882365 0.580392182
v 0.0153189171 0.020092262 0.00947495084 0 0.305882365 0.580392182
v 0.0153535698 0.0201036911 0.021575449 0 0.305882365 0.580392182
v 0.0149662402 0.0195442308 0.00949409045 0 0.305882365 0.580392182
v 0.0150160519 0.0197931323 0.00948539842 0 0.305882365 0.580392182
v 0.0149662402 0.0195442308 0.0215559099 0 0.305882365 0.580392182
v 0.0150311366 0.0198227409 0.0215656348 0 0.305882365 0.580392182
v 0.0118497303 0.0195442308 0.00949409045 4.07405245e-17 0.305882365 0.580392182
v 0.0118497303 0.0195442308 0.0215559099 -2.13962888e-17 0.305882365 0.580392182
v 0.00963108987 0.0281692296 0.0091928998 0 0.305882365 0.580392182
v 0.00963108987 0.0281692296 0.0218570996 -1.36511522e-16 0.305882365 0.580392182
v 0.012430043 0.0281685144 0.00919292402 0 0.305882365 0.580392182
v 0.0124517698 0.0281692296 0.0218570996 0 0.305882365 0.580392182
v 0.0129323257 0.0275955573 0.00921292789 0 0.305882365 0.580392182
v 0.0129375244 0.0275945403 0.0218375195 0 0.305882365 0.580392182
v 0.0126277059 0.0277467128 0.00920765381 0 0.305882365 0.580392182
v 0.0125337532 0.0278408881 0.0218456369 0 0.305882365 0.580392182
v 0.0154190734 0.0178294834 0.00955396611 0 0.305882365 0.580392182
v 0.0154189635 0.0178262107 0.0214959197 0 0.305882365 0.580392182
v 0.0151421558 0.017971728 0.00954900309 0 0.305882365 0.580392182
v 0.0151186511 0.0179952383 0.0215018168 0 0.305882365 0.580392182
v 0.0149445105 0.0183935147 0.00953427423 0 0.305882365 0.580392182
v 0.0149531374 0.0183933619 0.0215157196 0 0.305882365 0.580392182
v 0.0159855578 0.0178262107 0.00955386553 0 0.305882365 0.580392182
v 0.0159854479 0.0178294834 0.0214960873 0 0.305882365 0.580392182
v 0.0164512638 0.0183928572 0.00953429751 0.00283220946 0.304760993 0.578666985
v 0.0164594743 0.0183916222 0.0215156581 0.00461262697 0.304056048 0.577582479
v 0.0162858702 0.0179952402 0.00954818167 0 0.305882365 0.580392182
v 0.0162623674 0.0179717299 0.0215009972 0 0.305882365 0.580392182
v 0.01214555 0.0183942299 0.00953425001 -8.11717298e-17 0.305882365 0.580392182
v 0.01214555 0.0183942299 0.0215157494 6.59099894e-17 0.305882365 0.580392182
v 0.00742285 0.0488692299 0.00847003981 0 0.305882365 0.580392182
v 0.00750487531 0.0491976403 0.00845857151 0 0.305882365 0.580392182
v 0.00742285 0.0488692299 0.0225799605 0 0.305882365 0.580392182
v 0.00753316237 0.049236577 0.0225927867 0 0.305882365 0.580392182
v 0.00790868327 0.0494440012 0.00844996702 0 0.305882365 0.580392182
v 0.00790886488 0.0494439974 0.0226000324 0 0.305882365 0.580392182
v 0.00430634012 0.0488692299 0.00847003981 -1.75474869e-17 0.305882365 0.580392182
v 0.00430634012 0.0488692299 0.0225799605 0 0.305882365 0.580392182
v 0.00208769995 0.0574942306 0.00816885009 -2.14704919e-17 0.305882365 0.580392182
v 0.00208769995 0.0574942306 0.0228811502 -5.85569494e-17 0.305882365 0.580392182
v 0.00488665234 0.0574935153 0.00816887524 0 0.305882365 0.580392182
v 0.0049083801 0.0574942306 0.0228811502 0 0.305882365 0.580392182
v 0.00539437262 0.056919571 0.00818891823 0 0.305882365 0.580392182
v 0.00539440801 0.0569193177 0.0228610747 0 0.305882365 0.580392182
v 0.00508431904 0.0570717081 0.00818360317 0 0.305882365 0.580392182
v 0.00499036955 0.057165876 0.0228696857 0 0.305882365 0.580392182
v 0.0195130575 0.0569193177 0.00818892755 0 0.305882365 0.580392182
v 0.0195130929 0.056919571 0.022861084 0 0.305882365 0.580392182
v 0.0199990794 0.0574942306 0.00816885009 -8.33443468e-16 0.305882365 0.580392182
v 0.0199171081 0.0571658872 0.00818160642 0 0.305882365 0.580392182
v 0.0200202763 0.0574916229 0.022881059 0.00586231193 0.30356124 0.576821208
v 0.0198231563 0.0570717156 0.0228672102 0 0.305882365 0.580392182
v 0.0186228659 0.0494439974 0.00844996702 0 0.305882365 0.580392182
v 0.0186230466 0.0494440012 0.0226000324 0 0.305882365 0.580392182
v 0.018998567 0.049236577 0.00845721271 0 0.305882365 0.580392182
v 0.019026855 0.0491976403 0.022591427 0 0.305882365 0.580392182
v 0.0191088803 0.0488692299 0.00847003981 -7.8923089e-16 0.305882365 0.580392182
v 0.0191088803 0.0488692299 0.0225799605 0 0.305882365 0.580392182
v 0.016916316 0.0298922863 0.00913272705 0 0.305882365 0.580392182
v 0.0168614276 0.0298927128 0.021917291 0 0.305882365 0.580392182
v 0.0172464512 0.0296476446 0.0219087265 0 0.305882365 0.580392182
v 0.017263582 0.0295977406 0.0091430163 0 0.305882365 0.580392182
v 0.0173284803 0.0293192305 0.00915274024 7.2425441e-16 0.305882365 0.580392182
v 0.0173284803 0.0293192305 0.0218972601 0 0.305882365 0.580392182
v 0.0129188327 0.0298927128 0.00913270935 0 0.305882365 0.580392182
v 0.0128639443 0.0298922881 0.0219172742 0 0.305882365 0.580392182
v 0.0124517698 0.0293192305 0.00915274024 0 0.305882365 0.580392182
v 0.0125338184 0.0296476558 0.0091412738 0 0.305882365 0.580392182
v 0.0124517698 0.0293192305 0.0218972601 0 0.305882365 0.580392182
v 0.0125166848 0.0295977537 0.0219069868 0 0.305882365 0.580392182
v 0.00933527015 0.0293192305 0.00915274024 -3.7513961e-17 0.305882365 0.580392182
v 0.00933527015 0.0293192305 0.0218972601 -3.99524927e-17 0.305882365 0.580392182
v 0.00711661996 0.0379442312 0.00885154959 -4.73763527e-17 0.305882365 0.580392182
v 0.00711661996 0.0379442312 0.0221984498 6.447184e-17 0.305882365 0.580392182
v 0.00993730966 0.0379442312 0.00885154959 0 0.305882365 0.580392182
v 0.00993730966 0.0379442312 0.0221984498 0 0.305882365 0.580392182
v 0.0103493128 0.0373712555 0.00887155812 0 0.305882365 0.580392182
v 0.0104232375 0.0373693965 0.0221783761 0 0.305882365 0.580392182
v 0.010019294 0.0376158766 0.0221869852 0 0.305882365 0.580392182
v 0.0100022014 0.0376657285 0.00886127353 0 0.305882365 0.580392182
v 0.0177327581 0.0373693965 0.00887162425 0 0.305882365 0.580392182
v 0.0177328177 0.0373698696 0.0221783929 0 0.305882365 0.580392182
v 0.0182316732 0.0379428566 0.00885159802 0.0037380557 0.304402322 0.578115165
v 0.0182398837 0.0379416235 0.0221983586 0.00598971266 0.303510815 0.576743603
v 0.0180662684 0.0375452377 0.00886548124 0 0.305882365 0.580392182
v 0.0180427637 0.0375217274 0.0221836977 0 0.305882365 0.580392182
v 0.0178048611 0.0396681949 0.00879134517 0 0.305882365 0.580392182
v 0.0177497827 0.0396684147 0.0222586617 0 0.305882365 0.580392182
v 0.0181366447 0.0394226536 0.0222500768 0 0.305882365 0.580392182
v 0.0181537792 0.0393727459 0.00880166423 0 0.305882365 0.580392182
v 0.0182186905 0.0390942283 0.00881139003 8.26672287e-16 0.305882365 0.580392182
v 0.0182186905 0.0390942283 0.0222386103 0 0.305882365 0.580392182
v 0.0104062175 0.0396684147 0.00879133772 0 0.305882365 0.580392182
v 0.0103511401 0.0396681949 0.0222586542 0 0.305882365 0.580392182
v 0.00993730966 0.0390942283 0.00881139003 0 0.305882365 0.580392182
v 0.0100193564 0.0394226536 0.00879992358 0 0.305882365 0.580392182
v 0.00993730966 0.0390942283 0.0222386103 0 0.305882365 0.580392182
v 0.0100022238 0.0393727496 0.0222483352 0 0.305882365 0.580392182
v 0.00682081003 0.0390942283 0.00881139003 0 0.305882365 0.580392182
v 0.00682081003 0.0390942283 0.0222386103 -1.20693055e-17 0.305882365 0.580392182
v 0.00460215984 0.047719229 0.00851020031 0 0.305882365 0.580392182
v 0.00460215984 0.047719229 0.0225398 -3.06947833e-17 0.305882365 0.580392182
v 0.00740111899 0.0477185138 0.00851022545 0 0.305882365 0.580392182
v 0.00740974629 0.047718361 0.0225397702 0 0.305882365 0.580392182
v 0.0079087941 0.0471446775 0.00853026379 0 0.305882365 0.580392182
v 0.00790883787 0.0471443459 0.0225197244 0 0.305882365 0.580392182
v 0.00759876799 0.0472967289 0.00852495246 0 0.305882365 0.580392182
v 0.00757526373 0.0473202355 0.0225258674 0 0.305882365 0.580392182
v 0.018622892 0.0471443459 0.0085302759 0 0.305882365 0.580392182
v 0.0186229367 0.0471446775 0.0225197356 0 0.305882365 0.580392182
v 0.0191218667 0.0477178544 0.00851024874 0.00365494052 0.304435223 0.578165829
v 0.0191300791 0.0477166213 0.0225397088 0.00584920216 0.303566426 0.576829195
v 0.0189564526 0.0473202169 0.00852430798 0 0.305882365 0.580392182
v 0.0189329535 0.047296714 0.0225258656 0 0.305882365 0.580392182
v 0.0049083801 0.0586442314 0.0081286896 0 0.305882365 0.580392182
v 0.00499042403 0.0589726493 0.00811721664 0 0.305882365 0.580392182
v 0.0049083801 0.0586442314 0.0229213107 0 0.305882365 0.580392182
v 0.00497329235 0.058922749 0.0229310393 0 0.305882365 0.580392182
v 0.0051453202 0.0591093488 0.0229375605 0 0.305882365 0.580392182
v 0.00539428229 0.0592190586 0.00810861588 0 0.305882365 0.580392182
v 0.00539442385 0.0592190549 0.0229413845 0 0.305882365 0.580392182
v 0.00179188 0.0586442314 0.0081286896 0 0.305882365 0.580392182
v 0.00179188 0.0586442314 0.0229213107 -6.71278243e-17 0.305882365 0.580392182
v -0.000574679987 0.067844227 0.0078074201 2.84857246e-17 0.305882365 0.580392182
v -0.000574679987 0.067844227 0.0232425798 4.56749282e-17 0.305882365 0.580392182
v 0.0237761792 0.0678442195 0.0078074201 2.49825459e-16 0.305882365 0.580392182
v 0.0237761792 0.0678442195 0.0232425798 2.26959275e-16 0.305882365 0.580392182
v 0.0195130408 0.0592190549 0.00810861681 0 0.305882365 0.580392182
v 0.0195131823 0.0592190586 0.0229413845 0 0.305882365 0.580392182
v 0.0197621491 0.0591093488 0.00811243989 0 0.305882365 0.580392182
v 0.0197621491 0.0591093488 0.0229375605 0 0.305882365 0.580392182
v 0.0199341867 0.0589227378 0.00811896101 0 0.305882365 0.580392182
v 0.0199492704 0.0588931292 0.0229300056 0 0.305882365 0.580392182
v 0.0199990794 0.0586442314 0.0081286896 0 0.305882365 0.580392182
v 0.0199990794 0.0586442314 0.0229213107 9.02091571e-16 0.305882365 0.580392182
v -0.00309538003 0.0707192272 0.0077070198 -5.03817182e-17 0.305882365 0.580392182
v 0.0257701408 0.0707192272 0.0077070198 0 0.305882365 0.580392182
v -0.00309538003 0.0707192272 0.0233429801 -2.4701734e-17 0.305882365 0.580392182
v 0.0257701408 0.0707192272 0.0233429801 0 0.305882365 0.580392182
v 0.0184308793 0.0281692296 0.0218570996 0.405273765 0.145418644 0.333524913
v 0.0184308793 0.0281692296 0.0091928998 0.386274517 0.152941182 0.345098019
v 0.0176454093 0.0195442308 0.0215559099 0.299625397 0.18724896 0.397879213
v 0.0176454093 0.0195442308 0.00949409045 0.515032709 0.101960778 0.266666681
v 0.0175406802 0.0183942299 0.0215157494 0.398278058 0.148188546 0.337786287
v 0.0175406802 0.0183942299 0.00953425001 0.331092417 0.17478992 0.378711492
v 0.0139189819 0.0115 0.00977499969 0.351158649 0.166844919 0.366488367
v 0.0139189828 0.0115 0.0212750006 0.386274487 0.152941167 0.345098048
v 0.0211014803 0.0574942306 0.0228811502 0.400607437 0.147266209 0.336367339
v 0.0211014803 0.0574942306 0.00816885009 0.386274517 0.152941182 0.345098048
v 0.0203160103 0.0488692299 0.0225799605 0.295443326 0.188904792 0.400426716
v 0.0203160103 0.0488692299 0.00847003981 0.515032709 0.101960786 0.266666651
v 0.0193210803 0.0379442312 0.0221984498 0.401824296 0.146784425 0.335626096
v 0.0193210803 0.0379442312 0.00885154959 0.386274517 0.152941182 0.345098048
v 0.0185356103 0.0293192305 0.0218972601 0.298871934 0.187547281 0.398338228
v 0.0185356103 0.0293192305 0.00915274024 0.515032709 0.101960786 0.266666651
v 0.0202112794 0.047719229 0.0225398 0.401824534 0.14678432 0.335625947
v 0.0202112794 0.047719229 0.00851020031 0.386274517 0.152941182 0.345098019
v 0.0194258094 0.0390942283 0.0222386103 0.295443505 0.188904732 0.400426567
v 0.0194258094 0.0390942283 0.00881139003 0.515032709 0.101960801 0.266666681
v 0.0236600339 0.0665688589 0.0231980532 0.354037911 0.165704891 0.36473453
v 0.0212062094 0.0586442314 0.0229213107 0.301805943 0.186385587 0.396550953
v 0.0212062094 0.0586442314 0.0081286896 0.49162215 0.111229941 0.280926913
v 0.0253921691 0.0665688589 0.00785196386 0.380520523 0.155219421 0.34860304
v 0.0253921691 0.0665688589 0.0231980458 0.343355149 0.169934645 0.371241838
v 0.0121378228 0.0115 0.0212750006 0.351158619 0.166844934 0.366488457
v 0.0236600395 0.0665688589 0.00785194151 0.382197589 0.15455538 0.347581387
v 0.0121378293 0.0115 0.00977499969 0.386274487 0.152941182 0.345098048
vn 1.01341558 -0.125033945 0
vn 1.02960265 -0.104893707 0
vn 0.7367149 -0.692079484 0
vn 0.7367149 -0.692079484 0
vn 1.02960265 -0.104893707 0
vn 0.695843995 -0.733166456 0
vn 0.7367149 -0.692079484 0
vn 0.695843995 -0.733166456 0
vn 0.093144536 -0.996583879 0
vn 0.093144536 -0.996583879 0
vn 0.695843995 -0.733166456 0
vn 0.100481175 -0.994899392 0
vn 0.271618128 0.972193301 0
vn 0.34308815 0.953136981 0
vn 0.886803865 0.472166777 0
vn 0.886803865 0.472166777 0
vn 0.34308815 0.953136981 0
vn 0.913643062 0.414866716 0
vn 0.886803865 0.472166777 0
vn 0.913643062 0.414866716 0
vn 0.987700164 0.156359866 0
vn 0.987700164 0.156359866 0
vn 0.913643062 0.414866716 0
vn 0.987700105 0.156359866 0
vn -0.343089044 0.953136444 0
vn -0.271617085 0.972193599 0
vn 0.271618128 0.972193301 0
vn 0.271618128 0.972193301 0
vn -0.271617085 0.972193599 0
vn 0.34308815 0.953136981 0
vn -0.987699389 0.156364948 0
vn -0.98769927 0.156364918 0
vn -0.913642466 0.414867997 0
vn -0.913642466 0.414867997 0
vn -0.98769927 0.156364918 0
vn -0.886803031 0.472167939 0
vn -0.913642466 0.414867997 0
vn -0.886803031 0.472167939 0
vn -0.343089044 0.953136444 0
vn -0.343089044 0.953136444 0
vn -0.886803031 0.472167939 0
vn -0.271617085 0.972193599 0
vn 0 1 0
vn 0 1 0
vn 0 1 0
vn 0 1 0
vn 0 1 0
vn 0 1 0
vn 0.968471706 0.249123573 0
vn 0.968471646 0.249123588 0
vn 0.968471706 0.249123558 0
vn 0.968471706 0.249123558 0
vn 0.968471646 0.249123588 0
vn 0.968471646 0.249123544 0
vn 0 -1 0
vn 0 -1 0
vn 0 -1 0
vn 0 -1 0
vn 0 -1 0
vn 0 -1 0
vn -0.100482054 -0.99489975 0
vn -0.0931475535 -0.99658376 0
vn -0.695829451 -0.733175933 0
vn -0.695829451 -0.733175933 0
vn -0.0931475535 -0.99658376 0
vn -0.861580431 -0.537465453 0
vn -0.695829451 -0.733175933 0
vn -0.861580431 -0.537465453 0
vn -1.03042555 -0.102779038 0
vn -1.03042555 -0.102779038 0
vn -0.861580431 -0.537465453 0
vn -0.987688661 -0.156432867 0
vn -0.100482054 -0.99489975 0
vn 0.093144536 -0.996583879 0
vn -0.0931475535 -0.99658376 0
vn -0.0931475535 -0.99658376 0
vn 0.093144536 -0.996583879 0
vn 0.100481175 -0.994899392 0
vn -0.203060985 -0.980569124 0
vn -0.190921217 -0.986127079 0
vn -0.695848465 -0.733162463 0
vn -0.695848465 -0.733162463 0
vn -0.190921217 -0.986127079 0
vn -0.736720264 -0.692073643 0
vn -0.695848465 -0.733162463 0
vn -0.736720264 -0.692073643 0
vn -1.03043997 -0.102721162 0
vn -1.03043997 -0.102721162 0
vn -0.736720264 -0.692073643 0
vn -1.01359153 -0.124514006 0
vn -0.203060985 -0.980569124 0
vn 0.190922692 -0.986126661 0
vn -0.190921217 -0.986127079 0
vn -0.190921217 -0.986127079 0
vn 0.190922692 -0.986126661 0
vn 0.203062698 -0.980568647 0
vn 1.01341617 -0.125030801 0
vn 1.02960241 -0.104891986 0
vn 0.736722827 -0.692070782 0
vn 0.736722827 -0.692070782 0
vn 1.02960241 -0.104891986 0
vn 0.695852876 -0.733158708 0
vn 0.736722827 -0.692070782 0
vn 0.695852876 -0.733158708 0
vn 0.190922692 -0.986126661 0
vn 0.190922692 -0.986126661 0
vn 0.695852876 -0.733158708 0
vn 0.203062698 -0.980568647 0
vn 0 -1 0
vn 0 -1 0
vn 0 -1 0
vn 0 -1 0
vn 0 -1 0
vn 0 -1 0
vn -0.987699211 0.156365842 0
vn -0.987699211 0.156365857 0
vn -0.857958555 0.543937624 0
vn -0.857958555 0.543937624 0
vn -0.987699211 0.156365857 0
vn -0.80779475 0.622156262 0
vn -0.857958555 0.543937624 0
vn -0.80779475 0.622156262 0
vn -0.0876548141 0.996701658 0
vn -0.0876548141 0.996701658 0
vn -0.80779475 0.622156262 0
vn -0.0831384063 0.99659276 0
vn 0 1 0
vn 0 1 0
vn 0 1 0
vn 0 1 0
vn 0 1 0
vn 0 1 0
vn 0.968471766 0.249123499 0
vn 0.968471766 0.249123469 0
vn 0.968471766 0.249123499 0
vn 0.968471766 0.249123499 0
vn 0.968471766 0.249123469 0
vn 0.968471706 0.249123484 0
vn 0 -1 0
vn 0 -1 0
vn 0 -1 0
vn 0 -1 0
vn 0 -1 0
vn 0 -1 0
vn -0.0848222673 -0.996400952 0
vn -0.0828114226 -0.996816993 0
vn -0.695821822 -0.733182132 0
vn -0.695821822 -0.733182132 0
vn -0.0828114226 -0.996816993 0
vn -0.861568928 -0.537483871 0
vn -0.695821822 -0.733182132 0
vn -0.861568928 -0.537483871 0
vn -1.03042805 -0.102775276 0
vn -1.03042805 -0.102775276 0
vn -0.861568928 -0.537483871 0
vn -0.987688661 -0.156432852 0
vn -0.0848222673 -0.996400952 0
vn 0.0828073919 -0.99681741 0
vn -0.0828114226 -0.996816993 0
vn -0.0828114226 -0.996816993 0
vn 0.0828073919 -0.99681741 0
vn 0.0848180726 -0.99640137 0
vn 0.987697363 -0.156377301 0
vn 1.02960217 -0.104892097 0
vn 0.861582994 -0.53746599 0
vn 0.861582994 -0.53746599 0
vn 1.02960217 -0.104892097 0
vn 0.695832014 -0.73317498 0
vn 0.861582994 -0.53746599 0
vn 0.695832014 -0.73317498 0
vn 0.0828073919 -0.99681741 0
vn 0.0828073919 -0.99681741 0
vn 0.695832014 -0.73317498 0
vn 0.0848180726 -0.99640137 0
vn 0.0831379145 0.99659282 0
vn 0.0876545385 0.996701717 0
vn 0.807796359 0.622154713 0
vn 0.807796359 0.622154713 0
vn 0.0876545385 0.996701717 0
vn 0.857958138 0.543938577 0
vn 0.807796359 0.622154713 0
vn 0.857958138 0.543938577 0
vn 0.987698793 0.15636839 0
vn 0.987698793 0.15636839 0
vn 0.857958138 0.543938577 0
vn 0.987698793 0.156368375 0
vn -0.0876548141 0.996701658 0
vn -0.0831384063 0.99659276 0
vn 0.0831379145 0.99659282 0
vn 0.0831379145 0.99659282 0
vn -0.0831384063 0.99659276 0
vn 0.0876545385 0.996701717 0
vn 0.114182107 0.994002163 0
vn 0.106867909 0.99475956 0
vn 0.857949853 0.543950915 0
vn 0.114182107 0.994002163 0
vn 0.857949853 0.543950915 0
vn 0.886802077 0.472168684 0
vn 0.886802077 0.472168684 0
vn 0.857949853 0.543950915 0
vn 0.987698555 0.156369984 0
vn 0.987698555 0.156369984 0
vn 0.857949853 0.543950915 0
vn 0.987698495 0.156369984 0
vn -0.106870793 0.994759321 0
vn -0.114185274 0.994001985 0
vn 0.114182107 0.994002163 0
vn 0.114182107 0.994002163 0
vn -0.114185274 0.994001985 0
vn 0.106867909 0.99475956 0
vn -0.987689793 0.15642558 0
vn -0.987689734 0.15642558 0
vn -0.857934356 0.543968499 0
vn -0.857934356 0.543968499 0
vn -0.987689734 0.15642558 0
vn -0.886787355 0.47219348 0
vn -0.857934356 0.543968499 0
vn -0.886787355 0.47219348 0
vn -0.114185274 0.994001985 0
vn -0.857934356 0.543968499 0
vn -0.114185274 0.994001985 0
vn -0.106870793 0.994759321 0
vn 0 1 0
vn 0 1 0
vn 0 1 0
vn 0 1 0
vn 0 1 0
vn 0 1 0
vn 0.968471467 0.249124587 0
vn 0.968471408 0.249124542 0
vn 0.968471467 0.249124587 0
vn 0.968471467 0.249124587 0
vn 0.968471408 0.249124542 0
vn 0.968471467 0.249124572 0
vn 0 -1 0
vn 0 -1 0
vn 0 -1 0
vn 0 -1 0
vn 0 -1 0
vn 0 -1 0
vn -0.113093764 -0.993790567 0
vn -0.086600177 -0.996733844 0
vn -0.861570597 -0.537472546 0
vn -0.113093764 -0.993790567 0
vn -0.861570597 -0.537472546 0
vn -0.889863551 -0.466015607 0
vn -0.889863551 -0.466015607 0
vn -0.861570597 -0.537472546 0
vn -0.987688661 -0.156432867 0
vn -0.987688661 -0.156432867 0
vn -0.861570597 -0.537472546 0
vn -0.987688541 -0.156432837 0
vn -0.113093764 -0.993790567 0
vn 0.0865962282 -0.996734262 0
vn -0.086600177 -0.996733844 0
vn -0.086600177 -0.996733844 0
vn 0.0865962282 -0.996734262 0
vn 0.0902357176 -0.995955944 0
vn 1.0134058 -0.125088975 0
vn 1.02959216 -0.104946449 0
vn 0.736720204 -0.692069948 0
vn 0.736720204 -0.692069948 0
vn 1.02959216 -0.104946449 0
vn 0.695846617 -0.73316139 0
vn 0.736720204 -0.692069948 0
vn 0.695846617 -0.73316139 0
vn 0.0865962282 -0.996734262 0
vn 0.0865962282 -0.996734262 0
vn 0.695846617 -0.73316139 0
vn 0.0902357176 -0.995955944 0
vn 0.0982297361 0.995377243 0
vn 0.094446443 0.995779395 0
vn 0.857937753 0.543963909 0
vn 0.0982297361 0.995377243 0
vn 0.857937753 0.543963909 0
vn 0.886794269 0.472182244 0
vn 0.886794269 0.472182244 0
vn 0.857937753 0.543963909 0
vn 0.987690866 0.156418905 0
vn 0.987690866 0.156418905 0
vn 0.857937753 0.543963909 0
vn 0.987690866 0.15641892 0
vn -0.094449535 0.995779157 0
vn -0.0982332304 0.995376885 0
vn 0.0982297361 0.995377243 0
vn 0.0982297361 0.995377243 0
vn -0.0982332304 0.995376885 0
vn 0.094446443 0.995779395 0
vn -0.987689972 0.156423941 0
vn -0.987690091 0.156423956 0
vn -0.857937217 0.543963313 0
vn -0.857937217 0.543963313 0
vn -0.987690091 0.156423956 0
vn -0.886790633 0.472187757 0
vn -0.857937217 0.543963313 0
vn -0.886790633 0.472187757 0
vn -0.0982332304 0.995376885 0
vn -0.857937217 0.543963313 0
vn -0.0982332304 0.995376885 0
vn -0.094449535 0.995779157 0
vn 0 1 0
vn 0 1 0
vn 0 1 0
vn 0 1 0
vn 0 1 0
vn 0 1 0
vn 0.968471467 0.249124482 0
vn 0.968471408 0.249124527 0
vn 0.968471467 0.249124542 0
vn 0.968471467 0.249124542 0
vn 0.968471408 0.249124527 0
vn 0.968471408 0.249124557 0
vn 0 -1 0
vn 0 -1 0
vn 0 -1 0
vn 0 -1 0
vn 0 -1 0
vn 0 -1 0
vn -0.0866951048 -0.99624753 0
vn -0.0841033533 -0.996789813 0
vn -0.695848346 -0.733163238 0
vn -0.695848346 -0.733163238 0
vn -0.0841033533 -0.996789813 0
vn -0.736715734 -0.692079365 0
vn -0.695848346 -0.733163238 0
vn -0.736715734 -0.692079365 0
vn -1.03044307 -0.102719605 0
vn -1.03044307 -0.102719605 0
vn -0.736715734 -0.692079365 0
vn -1.0135932 -0.124514095 0
vn -0.0866951048 -0.99624753 0
vn 0.0841031447 -0.996789873 0
vn -0.0841033533 -0.996789813 0
vn -0.0841033533 -0.996789813 0
vn 0.0841031447 -0.996789873 0
vn 0.0866945833 -0.996247709 0
vn 1.01341462 -0.125035748 0
vn 1.02960098 -0.104896761 0
vn 0.73669678 -0.692099214 0
vn 0.73669678 -0.692099214 0
vn 1.02960098 -0.104896761 0
vn 0.695830643 -0.733177781 0
vn 0.73669678 -0.692099214 0
vn 0.695830643 -0.733177781 0
vn 0.0841031447 -0.996789873 0
vn 0.0841031447 -0.996789873 0
vn 0.695830643 -0.733177781 0
vn 0.0866945833 -0.996247709 0
vn -0.987689912 0.156424627 0
vn -0.987689972 0.156424642 0
vn -0.857941329 0.54395622 0
vn -0.857941329 0.54395622 0
vn -0.987689972 0.156424642 0
vn -0.88679117 0.472186446 0
vn -0.857941329 0.54395622 0
vn -0.88679117 0.472186446 0
vn -0.586271524 0.810114622 0
vn -0.857941329 0.54395622 0
vn -0.586271524 0.810114622 0
vn -0.0855284706 0.996753931 0
vn -0.0855284706 0.996753931 0
vn -0.586271524 0.810114622 0
vn -0.0820120573 0.9966712 0
vn 0 1 0
vn 0 1 0
vn 0 1 0
vn 0 1 0
vn 0 1 0
vn 0 1 0
vn 0.968471408 0.249124661 0
vn 0.968471467 0.249124646 0
vn 0.968471408 0.249124661 0
vn 0.968471408 0.249124661 0
vn 0.968471467 0.249124646 0
vn 0.968471467 0.249124691 0
vn -3.05967887e-07 -1 4.09945074e-16
vn -3.05967916e-07 -1 0
vn -3.05967916e-07 -1 0
vn -3.05967916e-07 -1 0
vn -3.05967916e-07 -1 0
vn -3.05967887e-07 -1 -2.97651778e-17
vn 0.0820083246 0.996671557 0
vn 0.0855246931 0.996754348 0
vn 0.586269855 0.810115874 0
vn 0.586269855 0.810115874 0
vn 0.0855246931 0.996754348 0
vn 0.586269796 0.810115874 0
vn 0.586269855 0.810115874 0
vn 0.586269796 0.810115874 0
vn 0.886804402 0.472163856 0
vn 0.886804402 0.472163856 0
vn 0.586269796 0.810115874 0
vn 0.913644016 0.414863139 0
vn 0.886804402 0.472163856 0
vn 0.913644016 0.414863139 0
vn 0.987699807 0.15636149 0
vn 0.987699807 0.15636149 0
vn 0.913644016 0.414863139 0
vn 0.987699926 0.15636152 0
vn -0.0855284706 0.996753931 0
vn -0.0820120573 0.9966712 0
vn 0.0820083246 0.996671557 0
vn 0.0820083246 0.996671557 0
vn -0.0820120573 0.9966712 0
vn 0.0855246931 0.996754348 0
vn 0 1 0
vn 5.49954868e-17 1 0
vn 0 1 2.03995987e-16
vn 0 1 2.03995987e-16
vn 5.49954868e-17 1 0
vn 0 1 0
vn 9.55571977e-06 -0.0348983854 0.9993909
vn 2.88928401e-08 -0.0348900631 0.999391139
vn -4.65330743e-07 -0.0348998979 0.999390781
vn 3.47303186e-09 -0.0348898955 0.999391198
vn 0 -0.0348971635 0.9993909
vn 5.57743037e-22 -0.0348971598 0.9993909
vn 3.47303186e-09 -0.0348898955 0.999391198
vn 5.57743037e-22 -0.0348971598 0.9993909
vn -4.65330743e-07 -0.0348998979 0.999390781
vn 3.47303186e-09 -0.0348898955 0.999391198
vn -4.65330743e-07 -0.0348998979 0.999390781
vn 2.88928401e-08 -0.0348900631 0.999391139
vn -1.26769123e-06 -0.0349000916 0.999390841
vn 1.46234343e-05 -0.0348971449 0.999390841
vn -2.12656487e-20 -0.0348908491 0.999391079
vn -1.26769123e-06 -0.0349000916 0.999390841
vn -2.12656487e-20 -0.0348908491 0.999391079
vn -8.48757864e-09 -0.0348890126 0.999391198
vn -1.26769123e-06 -0.0349000916 0.999390841
vn -8.48757864e-09 -0.0348890126 0.999391198
vn 0 -0.0348971635 0.9993909
vn 2.82845986e-06 -0.0348974727 0.99939096
vn -9.43337654e-05 -0.0349008702 0.999390841
vn 2.25519689e-05 -0.0348974727 0.99939096
vn 2.82845986e-06 -0.0348974727 0.99939096
vn 2.25519689e-05 -0.0348974727 0.99939096
vn -8.44833539e-06 -0.0349027626 0.999390662
vn 2.82845986e-06 -0.0348974727 0.99939096
vn -8.44833539e-06 -0.0349027626 0.999390662
vn -1.64208104e-05 -0.0349001177 0.999390781
vn 2.82845986e-06 -0.0348974727 0.99939096
vn -1.64208104e-05 -0.0349001177 0.999390781
vn 3.74027513e-05 -0.0349084325 0.999390543
vn -8.91951731e-06 -0.0349028297 0.999390662
vn 8.85885402e-06 -0.0349028446 0.999390662
vn 1.60730524e-05 -0.0349000469 0.999390841
vn -8.91951731e-06 -0.0349028297 0.999390662
vn 1.60730524e-05 -0.0349000469 0.999390841
vn -1.60728123e-05 -0.0349000655 0.999390841
vn -8.91951731e-06 -0.0349028297 0.999390662
vn -1.60728123e-05 -0.0349000655 0.999390841
vn 3.75351055e-06 -0.0348978117 0.99939096
vn 1.01348805e-05 -0.034899842 0.999390781
vn -3.68631845e-05 -0.0348933414 0.999391019
vn -8.77121147e-06 -0.0349017456 0.999390781
vn 1.01348805e-05 -0.034899842 0.999390781
vn -8.77121147e-06 -0.0349017456 0.999390781
vn 1.61307689e-05 -0.0348996297 0.9993909
vn 8.47270712e-06 -0.0349027328 0.999390662
vn -2.39480432e-05 -0.0348924212 0.999391139
vn -1.67206435e-05 -0.0348969474 0.9993909
vn 8.47270712e-06 -0.0349027328 0.999390662
vn -1.67206435e-05 -0.0348969474 0.9993909
vn 1.65906931e-05 -0.034900073 0.999390781
vn 8.47270712e-06 -0.0349027328 0.999390662
vn 1.65906931e-05 -0.034900073 0.999390781
vn -1.64208104e-05 -0.0349001177 0.999390781
vn 8.47270712e-06 -0.0349027328 0.999390662
vn -1.64208104e-05 -0.0349001177 0.999390781
vn -8.44833539e-06 -0.0349027626 0.999390662
vn 3.75351055e-06 -0.0348978117 0.99939096
vn -1.60728123e-05 -0.0349000655 0.999390841
vn 3.59831356e-05 -0.0349074826 0.999390543
vn 8.85885402e-06 -0.0349028446 0.999390662
vn -2.52981336e-05 -0.0348924547 0.999391079
vn -6.07191532e-06 -0.0348994099 0.999390781
vn 8.85885402e-06 -0.0349028446 0.999390662
vn -6.07191532e-06 -0.0348994099 0.999390781
vn 1.60730524e-05 -0.0349000469 0.999390841
vn 3.28068586e-06 -0.0348986872 0.999390781
vn -9.47816952e-05 -0.0349009745 0.999390781
vn 2.15223354e-05 -0.0348991863 0.999390841
vn 3.28068586e-06 -0.0348986872 0.999390781
vn 2.15223354e-05 -0.0348991863 0.999390841
vn -1.05444215e-05 -0.0348994844 0.999390841
vn 3.75351055e-06 -0.0348978117 0.99939096
vn 0.000168917701 -0.0349008664 0.999390841
vn -2.8402319e-05 -0.034901794 0.999390781
vn 3.75351055e-06 -0.0348978117 0.99939096
vn -2.8402319e-05 -0.034901794 0.999390781
vn -8.00382713e-06 -0.0349062495 0.999390543
vn 3.75351055e-06 -0.0348978117 0.99939096
vn -8.00382713e-06 -0.0349062495 0.999390543
vn -8.91951731e-06 -0.0349028297 0.999390662
vn -2.52981336e-05 -0.0348924547 0.999391079
vn 8.85885402e-06 -0.0349028446 0.999390662
vn 8.00386806e-06 -0.0349062532 0.999390543
vn -2.52981336e-05 -0.0348924547 0.999391079
vn 8.00386806e-06 -0.0349062532 0.999390543
vn 3.04586138e-05 -0.0349015296 0.999390781
vn -2.52981336e-05 -0.0348924547 0.999391079
vn 3.04586138e-05 -0.0349015296 0.999390781
vn -0.000168846556 -0.0349008664 0.999390781
vn -2.52981336e-05 -0.0348924547 0.999391079
vn -0.000168846556 -0.0349008664 0.999390781
vn -3.15563989e-06 -0.0349005535 0.999390781
vn -2.52981336e-05 -0.0348924547 0.999391079
vn -3.15563989e-06 -0.0349005535 0.999390781
vn 2.90437929e-05 -0.0348932184 0.999391079
vn -2.39480432e-05 -0.0348924212 0.999391139
vn 8.47270712e-06 -0.0349027328 0.999390662
vn -2.5409312e-05 -0.0348975062 0.9993909
vn -2.39480432e-05 -0.0348924212 0.999391139
vn -2.5409312e-05 -0.0348975062 0.9993909
vn 9.43353662e-05 -0.0349008664 0.999390781
vn -2.39480432e-05 -0.0348924212 0.999391139
vn 9.43353662e-05 -0.0349008664 0.999390781
vn -2.71716181e-06 -0.0349004269 0.999390781
vn -2.39480432e-05 -0.0348924212 0.999391139
vn -2.71716181e-06 -0.0349004269 0.999390781
vn 2.42800143e-05 -0.0348946564 0.99939096
vn -3.68631845e-05 -0.0348933414 0.999391019
vn 1.01348805e-05 -0.034899842 0.999390781
vn -2.07927296e-05 -0.0349004231 0.999390841
vn -3.68631845e-05 -0.0348933414 0.999391019
vn -2.07927296e-05 -0.0349004231 0.999390841
vn 9.47784938e-05 -0.0349009745 0.999390781
vn -3.68631845e-05 -0.0348933414 0.999391019
vn 9.47784938e-05 -0.0349009745 0.999390781
vn -1.99731994e-06 -0.0349002928 0.999390841
vn -3.68631845e-05 -0.0348933414 0.999391019
vn -1.99731994e-06 -0.0349002928 0.999390841
vn 2.09140708e-05 -0.034895625 0.999391019
vn 0 -0.0348971635 0.9993909
vn -8.48757864e-09 -0.0348890126 0.999391198
vn 0 -0.0348971635 0.9993909
vn -1.63193708e-05 -0.0349000618 0.999390841
vn 1.01348805e-05 -0.034899842 0.999390781
vn 1.61307689e-05 -0.0348996297 0.9993909
vn 1.01348805e-05 -0.034899842 0.999390781
vn -1.63193708e-05 -0.0349000618 0.999390841
vn -1.05444215e-05 -0.0348994844 0.999390841
vn -1.05444215e-05 -0.0348994844 0.999390841
vn -1.63193708e-05 -0.0349000618 0.999390841
vn 2.21532118e-05 -0.0349001326 0.999390841
vn -1.05444215e-05 -0.0348994844 0.999390841
vn 2.21532118e-05 -0.0349001326 0.999390841
vn 3.28068586e-06 -0.0348986872 0.999390781
vn 0 -0.0349007957 0.999390721
vn 0 -0.0348899625 0.999391198
vn 3.47303186e-09 -0.0348898955 0.999391198
vn 0 -0.0349007957 0.999390721
vn 3.47303186e-09 -0.0348898955 0.999391198
vn 2.88928401e-08 -0.0348900631 0.999391139
vn 0 -0.0348899625 0.999391198
vn 0 -0.0349007957 0.999390721
vn 0 -0.0349424481 0.99938935
vn 0 -0.0348899625 0.999391198
vn 0 -0.0349424481 0.99938935
vn 0 -0.0349546038 0.999388874
vn 0 -0.0349077359 0.999390543
vn -8.48757864e-09 -0.0348890126 0.999391198
vn -2.12656487e-20 -0.0348908491 0.999391079
vn -8.48757864e-09 -0.0348890126 0.999391198
vn 0 -0.0349077359 0.999390543
vn 0 -0.034898337 0.999390781
vn 0 -0.034898337 0.999390781
vn 0 -0.0349077359 0.999390543
vn 0 -0.0349500328 0.999389112
vn 0 -0.034898337 0.999390781
vn 0 -0.0349500328 0.999389112
vn 0 -0.0349858627 0.999387801
vn 0 -0.0349102989 0.999390483
vn 0 -0.0349165834 0.999390244
vn 0 -0.0348969363 0.9993909
vn 0 -0.0348969363 0.9993909
vn 0 -0.0349165834 0.999390244
vn 0 -0.0349038802 0.999390721
vn 0 -0.0348969363 0.9993909
vn 0 -0.0349038802 0.999390721
vn 0 -0.0348971635 0.9993909
vn 0 -0.0348969363 0.9993909
vn 0 -0.0348971635 0.9993909
vn 0 -0.0348971635 0.9993909
vn 0 -0.0349221304 0.999390006
vn 0 -0.0349293686 0.999389827
vn 0 -0.0349036679 0.999390662
vn 0 -0.0349221304 0.999390006
vn 0 -0.0349036679 0.999390662
vn 0 -0.0349019319 0.999390781
vn 0 -0.0349019319 0.999390781
vn 0 -0.0349036679 0.999390662
vn 5.57743037e-22 -0.0348971598 0.9993909
vn 0 -0.0349019319 0.999390781
vn 5.57743037e-22 -0.0348971598 0.9993909
vn 0 -0.0348971635 0.9993909
vn 1.51205143e-07 -0.0348995514 -0.999390781
vn 1.98199448e-08 -0.0348911807 -0.999391139
vn 4.34115873e-06 -0.0348989367 -0.999390841
vn -1.54423696e-10 -0.0348910578 -0.999391198
vn 1.98199448e-08 -0.0348911807 -0.999391139
vn 1.51205143e-07 -0.0348995514 -0.999390781
vn -1.54423696e-10 -0.0348910578 -0.999391198
vn 1.51205143e-07 -0.0348995514 -0.999390781
vn 0 -0.0348966047 -0.9993909
vn -1.54423696e-10 -0.0348910578 -0.999391198
vn 0 -0.0348966047 -0.9993909
vn -7.8431747e-22 -0.0348966047 -0.9993909
vn -2.01797803e-07 -0.034899652 -0.999390841
vn 5.91721813e-22 -0.0348949805 -0.999391019
vn -2.15913354e-09 -0.0348904692 -0.999391198
vn -2.01797803e-07 -0.034899652 -0.999390841
vn -2.15913354e-09 -0.0348904692 -0.999391198
vn 1.45586254e-08 -0.0348906554 -0.999391139
vn -2.01797803e-07 -0.034899652 -0.999390841
vn 1.45586254e-08 -0.0348906554 -0.999391139
vn 6.49299955e-06 -0.0348983966 -0.999390841
vn 3.78466939e-06 -0.0348972306 -0.99939096
vn 3.95331044e-05 -0.0349071696 -0.999390543
vn -1.88943286e-05 -0.0349005088 -0.999390781
vn 3.78466939e-06 -0.0348972306 -0.99939096
vn -1.88943286e-05 -0.0349005088 -0.999390781
vn -6.28609996e-06 -0.0349024683 -0.999390662
vn 3.78466939e-06 -0.0348972306 -0.99939096
vn -6.28609996e-06 -0.0349024683 -0.999390662
vn -4.80510389e-05 -0.0349005535 -0.999390781
vn 3.78466939e-06 -0.0348972306 -0.99939096
vn -4.80510389e-05 -0.0349005535 -0.999390781
vn 0.000165876118 -0.0349008664 -0.999390781
vn -9.06849436e-06 -0.034903042 -0.999390662
vn 2.23532084e-06 -0.03489751 -0.9993909
vn -1.86586294e-05 -0.034900412 -0.999390841
vn -9.06849436e-06 -0.034903042 -0.999390662
vn -1.86586294e-05 -0.034900412 -0.999390841
vn 1.85864428e-05 -0.0349004492 -0.999390781
vn -9.06849436e-06 -0.034903042 -0.999390662
vn 1.85864428e-05 -0.0349004492 -0.999390781
vn 8.96108395e-06 -0.0349030197 -0.999390662
vn 8.24590097e-06 -0.0349003449 -0.999390781
vn 1.76229933e-05 -0.0348995291 -0.9993909
vn 9.52805385e-06 -0.0349031985 -0.999390662
vn 8.24590097e-06 -0.0349003449 -0.999390781
vn 9.52805385e-06 -0.0349031985 -0.999390662
vn -3.6078065e-05 -0.0348929092 -0.999391079
vn 6.37359608e-06 -0.0349024385 -0.999390662
vn -6.28609996e-06 -0.0349024683 -0.999390662
vn -1.88943286e-05 -0.0349005088 -0.999390781
vn 6.37359608e-06 -0.0349024385 -0.999390662
vn -1.88943286e-05 -0.0349005088 -0.999390781
vn 1.9138517e-05 -0.034900479 -0.999390781
vn 6.37359608e-06 -0.0349024385 -0.999390662
vn 1.9138517e-05 -0.034900479 -0.999390781
vn -2.14670872e-05 -0.0348960981 -0.99939096
vn 6.37359608e-06 -0.0349024385 -0.999390662
vn -2.14670872e-05 -0.0348960981 -0.99939096
vn -3.04624573e-05 -0.0348906256 -0.999391079
vn 2.23532084e-06 -0.03489751 -0.9993909
vn 9.7876582e-06 -0.0348958336 -0.999390841
vn -1.86586294e-05 -0.034900412 -0.999390841
vn 8.96108395e-06 -0.0349030197 -0.999390662
vn 1.85864428e-05 -0.0349004492 -0.999390781
vn -1.85301851e-05 -0.0348960236 -0.9993909
vn 8.96108395e-06 -0.0349030197 -0.999390662
vn -1.85301851e-05 -0.0348960236 -0.9993909
vn -2.97953047e-05 -0.0348907486 -0.999391139
vn 3.31015781e-06 -0.0348984078 -0.999390781
vn -6.92261074e-06 -0.0348992571 -0.999390841
vn 1.25860643e-05 -0.0349002779 -0.999390841
vn 3.31015781e-06 -0.0348984078 -0.999390781
vn 1.25860643e-05 -0.0349002779 -0.999390841
vn -6.97536743e-05 -0.0349001698 -0.999390781
vn 2.23532084e-06 -0.03489751 -0.9993909
vn -9.06849436e-06 -0.034903042 -0.999390662
vn -8.00382713e-06 -0.0349062495 -0.999390543
vn 2.23532084e-06 -0.03489751 -0.9993909
vn -8.00382713e-06 -0.0349062495 -0.999390543
vn -3.05116264e-05 -0.0349015482 -0.999390781
vn 2.23532084e-06 -0.03489751 -0.9993909
vn -3.05116264e-05 -0.0349015482 -0.999390781
vn 0.000168917701 -0.0349008664 -0.999390841
vn -2.97953047e-05 -0.0348907486 -0.999391139
vn 2.90437929e-05 -0.0348932184 -0.999391079
vn -1.99455576e-06 -0.0349003188 -0.999390781
vn -2.97953047e-05 -0.0348907486 -0.999391139
vn -1.99455576e-06 -0.0349003188 -0.999390781
vn -0.000168846556 -0.0349008664 -0.999390781
vn -2.97953047e-05 -0.0348907486 -0.999391139
vn -0.000168846556 -0.0349008664 -0.999390781
vn 4.86524686e-06 -0.0349010341 -0.999390781
vn -2.97953047e-05 -0.0348907486 -0.999391139
vn 4.86524686e-06 -0.0349010341 -0.999390781
vn 8.96108395e-06 -0.0349030197 -0.999390662
vn -3.04624573e-05 -0.0348906256 -0.999391079
vn 2.42800143e-05 -0.0348946564 -0.99939096
vn -2.71716181e-06 -0.0349004231 -0.999390781
vn -3.04624573e-05 -0.0348906256 -0.999391079
vn -2.71716181e-06 -0.0349004231 -0.999390781
vn -0.000165878941 -0.0349008664 -0.999390781
vn -3.04624573e-05 -0.0348906256 -0.999391079
vn -0.000165878941 -0.0349008664 -0.999390781
vn 4.66652491e-05 -0.0349011756 -0.999390781
vn -3.04624573e-05 -0.0348906256 -0.999391079
vn 4.66652491e-05 -0.0349011756 -0.999390781
vn 6.37359608e-06 -0.0349024385 -0.999390662
vn -3.6078065e-05 -0.0348929092 -0.999391079
vn 9.98430005e-06 -0.0348975845 -0.999390841
vn -2.17030242e-06 -0.0349000916 -0.999390841
vn -3.6078065e-05 -0.0348929092 -0.999391079
vn -2.17030242e-06 -0.0349000916 -0.999390841
vn 6.97513096e-05 -0.0349001661 -0.999390781
vn -3.6078065e-05 -0.0348929092 -0.999391079
vn 6.97513096e-05 -0.0349001661 -0.999390781
vn -1.63602363e-05 -0.0348984934 -0.9993909
vn -3.6078065e-05 -0.0348929092 -0.999391079
vn -1.63602363e-05 -0.0348984934 -0.9993909
vn 8.24590097e-06 -0.0349003449 -0.999390781
vn 0 -0.0348949805 -0.999391019
vn -2.15913354e-09 -0.0348904692 -0.999391198
vn 5.91721813e-22 -0.0348949805 -0.999391019
vn 1.76229933e-05 -0.0348995291 -0.9993909
vn 8.24590097e-06 -0.0349003449 -0.999390781
vn -1.88199865e-05 -0.0349004492 -0.999390841
vn -1.88199865e-05 -0.0349004492 -0.999390841
vn 8.24590097e-06 -0.0349003449 -0.999390781
vn -6.92261074e-06 -0.0348992571 -0.999390841
vn -1.88199865e-05 -0.0349004492 -0.999390841
vn -6.92261074e-06 -0.0348992571 -0.999390841
vn 2.51597812e-05 -0.0349007621 -0.999390781
vn 2.51597812e-05 -0.0349007621 -0.999390781
vn -6.92261074e-06 -0.0348992571 -0.999390841
vn 3.31015781e-06 -0.0348984078 -0.999390781
vn 1.98199448e-08 -0.0348911807 -0.999391139
vn -1.54423696e-10 -0.0348910578 -0.999391198
vn 0 -0.0349034667 -0.999390602
vn 0 -0.0349034667 -0.999390602
vn -1.54423696e-10 -0.0348910578 -0.999391198
vn 0 -0.0348997004 -0.999390841
vn 0 -0.0349034667 -0.999390602
vn 0 -0.0348997004 -0.999390841
vn 0 -0.0349195898 -0.999390125
vn 0 -0.0349195898 -0.999390125
vn 0 -0.0348997004 -0.999390841
vn 0 -0.0349572673 -0.999388814
vn 1.45586254e-08 -0.0348906554 -0.999391139
vn -2.15913354e-09 -0.0348904692 -0.999391198
vn 0 -0.0349024571 -0.999390662
vn 0 -0.0349024571 -0.999390662
vn -2.15913354e-09 -0.0348904692 -0.999391198
vn 0 -0.0348984972 -0.999390841
vn 0 -0.0349024571 -0.999390662
vn 0 -0.0348984972 -0.999390841
vn 0 -0.0349592194 -0.999388754
vn 0 -0.0349592194 -0.999388754
vn 0 -0.0348984972 -0.999390841
vn 0 -0.0350073799 -0.999387026
vn 0 -0.034882322 -0.999391437
vn 0 -0.0349155515 -0.999390244
vn 0 -0.0348912552 -0.999391139
vn 0 -0.0348912552 -0.999391139
vn 0 -0.0349155515 -0.999390244
vn 0 -0.0349041522 -0.999390662
vn 0 -0.0348912552 -0.999391139
vn 0 -0.0349041522 -0.999390662
vn 5.91721813e-22 -0.0348949805 -0.999391019
vn 5.91721813e-22 -0.0348949805 -0.999391019
vn 0 -0.0349041522 -0.999390662
vn 0 -0.0348949805 -0.999391019
vn 0 -0.0349373445 -0.999389529
vn 0 -0.0349193513 -0.999390125
vn 0 -0.034907084 -0.999390543
vn 0 -0.034907084 -0.999390543
vn 0 -0.0349193513 -0.999390125
vn 0 -0.0349055193 -0.999390662
vn 0 -0.034907084 -0.999390543
vn 0 -0.0349055193 -0.999390662
vn 0 -0.0348966047 -0.9993909
vn 0 -0.0348966047 -0.9993909
vn 0 -0.0349055193 -0.999390662
vn -7.8431747e-22 -0.0348966047 -0.9993909
vn 0 -1 0
vn 0 -1 0
vn 0 -1 0
vn 0 -1 0
vn 0 -1 0
vn 0 -1 0
vn 0 1 0
vn 0 1 0
vn 0 1 0
vn 0 1 0
vn 0 1 0
vn 0 1 0
vn 0 -1 0
vn 0 -1 0
vn 0 -1 0
vn 0 -1 0
vn 0 -1 0
vn 0 -1 0
vn 0.968471646 0.24912414 0
vn 0.967394888 0.253236115 0
vn 0.967394769 0.253236085 0
vn 0.967394769 0.253236085 0
vn 0.968471587 0.249124125 2.67279795e-20
vn 0.968471646 0.24912414 0
vn 0 -1 0
vn 0 -1 0
vn 0 -1 0
vn 0 -1 0
vn 0 -1 0
vn 0 -1 0
vn 0 1 0
vn 0 1 0
vn 0 1 0
vn 0 1 0
vn 0 1 0
vn 0 1 0
vn 0 -1 0
vn 0 -1 0
vn 0 -1 0
vn 0 -1 0
vn 0 -1 0
vn 0 -1 0
vn 0 1 0
vn 0 1 0
vn 0 1 0
vn 0 1 0
vn 0 1 0
vn 0 1 0
vn 0 -1 0
vn 0 -1 0
vn 0 -1 0
vn 0 -1 0
vn 0 -1 0
vn 0 -1 0
vn 0 1 0
vn 0 1 0
vn 0 1 0
vn 0 1 0
vn 0 1 0
vn 0 1 0
vn -0.995878935 0.0906931907 -3.47441322e-23
vn -0.995878875 0.0906931832 0
vn -0.995878875 0.0906931758 0
vn -0.995878935 0.0906931832 0
vn -0.995878935 0.0906931907 -3.47441322e-23
vn -0.995878875 0.0906931758 0
vn 0 1 0
vn 0 1 0
vn 0 1 0
vn 0 1 0
vn 0 1 0
vn 0 1 0
vn 0.995878696 -0.0906938314 -4.92417271e-08
vn 0.995878816 -0.0906939507 1.61692533e-15
vn 0.995878637 -0.0906937644 5.50341817e-09
vn 0.995878637 -0.0906937644 5.50341817e-09
vn 0.995878816 -0.0906939507 1.61692533e-15
vn 0.995878816 -0.0906938836 5.38322418e-08
vn -0.957908094 -0.286682308 0.000131618377
vn -0.968471587 -0.249123871 0
vn -0.953525722 -0.300446928 -0.000497002737
vn -0.968471587 -0.249123871 0
vn -0.95699054 -0.289564282 0
vn -0.968471646 -0.249123871 0
vn 3.47303186e-09 -0.0348898955 0.999391198
vn 8.53422364e-07 -0.0348919295 0.999391139
vn 0 -0.0348971635 0.9993909
vn 9.34498246e-07 -0.034898337 0.999390841
vn 0 -0.0348971635 0.9993909
vn 8.53422364e-07 -0.0348919295 0.999391139
vn 2.82845986e-06 -0.0348974727 0.99939096
vn 4.04979437e-05 -0.0348978117 0.999390841
vn -9.43337654e-05 -0.0349008702 0.999390841
vn -5.35075633e-05 -0.0349010266 0.999390841
vn -9.43337654e-05 -0.0349008702 0.999390841
vn 4.04979437e-05 -0.0348978117 0.999390841
vn -1.82282588e-06 -0.0348991826 0.999390662
vn 1.47658848e-05 -0.034901388 0.999390841
vn 9.55571977e-06 -0.0348983854 0.9993909
vn -4.65330743e-07 -0.0348998979 0.999390781
vn -8.76064078e-05 -0.0349180438 0.999389648
vn 9.55571977e-06 -0.0348983854 0.9993909
vn 1.46234343e-05 -0.0348971449 0.999390841
vn 2.51809142e-05 -0.0349004418 0.999390841
vn -4.65330743e-07 -0.0348998979 0.999390781
vn -1.26769123e-06 -0.0349000916 0.999390841
vn -0.000142627745 -0.0349315144 0.999390662
vn 1.46234343e-05 -0.0348971449 0.999390841
vn 2.09140708e-05 -0.034895625 0.999391019
vn 3.40450715e-05 -0.0348982923 0.99939096
vn -1.26769123e-06 -0.0349000916 0.999390841
vn -1.99731994e-06 -0.0349002928 0.999390841
vn -0.00020846563 -0.0349476747 0.999389589
vn 2.09140708e-05 -0.034895625 0.999391019
vn 2.42800143e-05 -0.0348946564 0.99939096
vn 3.91633803e-05 -0.0348968357 0.999390781
vn -1.99731994e-06 -0.0349002928 0.999390841
vn -2.71716181e-06 -0.0349004269 0.999390781
vn -0.00025469606 -0.0349597111 0.999388993
vn 2.42800143e-05 -0.0348946564 0.99939096
vn 2.90437929e-05 -0.0348932184 0.999391079
vn 4.29968786e-05 -0.0348954611 0.9993909
vn -2.71716181e-06 -0.0349004269 0.999390781
vn -3.15563989e-06 -0.0349005535 0.999390781
vn -0.000296071812 -0.0349727683 0.99938786
vn 2.90437929e-05 -0.0348932184 0.999391079
vn -1.91788672e-06 -0.0349043906 0.999390602
vn 7.6913775e-06 -0.0349082462 0.999390483
vn -3.15563989e-06 -0.0349005535 0.999390781
vn 2.2252168e-06 -0.0349004231 0.999390841
vn 5.69227677e-06 -0.0349033475 0.999390662
vn -1.91788672e-06 -0.0349043906 0.999390602
vn -5.5809589e-05 -0.0349005722 0.999390721
vn -9.47816952e-05 -0.0349009745 0.999390781
vn 4.00049757e-05 -0.0348984823 0.999390721
vn 3.28068586e-06 -0.0348986872 0.999390781
vn 4.00049757e-05 -0.0348984823 0.999390721
vn -9.47816952e-05 -0.0349009745 0.999390781
vn 9.95448354e-05 -0.0349006616 0.999390781
vn 0.000168917701 -0.0349008664 0.999390841
vn -6.00900821e-05 -0.0348977894 0.9993909
vn -6.00900821e-05 -0.0348977894 0.9993909
vn 0.000168917701 -0.0349008664 0.999390841
vn 3.75351055e-06 -0.0348978117 0.99939096
vn 0 -0.0348971635 0.9993909
vn -8.48757864e-09 -0.0348890126 0.999391198
vn -5.70645307e-06 -0.0349009037 0.999390781
vn -5.21135962e-06 -0.0348942652 0.999391019
vn -5.70645307e-06 -0.0349009037 0.999390781
vn -8.48757864e-09 -0.0348890126 0.999391198
vn -7.8431747e-22 -0.0348966047 -0.9993909
vn 6.28052362e-07 -0.0348931029 -0.999391139
vn -1.54423696e-10 -0.0348910578 -0.999391198
vn 6.28052362e-07 -0.0348931029 -0.999391139
vn -7.8431747e-22 -0.0348966047 -0.9993909
vn 6.87717943e-07 -0.0348979011 -0.999390841
vn 0.000165876118 -0.0349008664 -0.999390781
vn -5.67251009e-05 -0.0348975025 -0.9993909
vn 3.78466939e-06 -0.0348972306 -0.99939096
vn -5.67251009e-05 -0.0348975025 -0.9993909
vn 0.000165876118 -0.0349008664 -0.999390781
vn 9.98365722e-05 -0.0349010266 -0.999390721
vn -1.87656383e-06 -0.0349043533 -0.999390662
vn -6.69259407e-06 -0.0348959938 -0.99939096
vn 2.26041766e-06 -0.0349004343 -0.999390841
vn -8.147058e-06 -0.0348997749 -0.9993909
vn -1.87656383e-06 -0.0349043533 -0.999390662
vn -1.99455576e-06 -0.0349003188 -0.999390781
vn -0.000299242151 -0.0349617377 -0.999388039
vn -1.99455576e-06 -0.0349003188 -0.999390781
vn 2.90437929e-05 -0.0348932184 -0.999391079
vn -2.71716181e-06 -0.0349004231 -0.999390781
vn 2.97042061e-05 -0.0348866284 -0.999391377
vn 2.90437929e-05 -0.0348932184 -0.999391079
vn 2.42800143e-05 -0.0348946564 -0.99939096
vn -0.000261367619 -0.0349492393 -0.999389231
vn -2.71716181e-06 -0.0349004231 -0.999390781
vn -2.17030242e-06 -0.0349000916 -0.999390841
vn 2.32359562e-05 -0.0348887779 -0.999391079
vn 2.42800143e-05 -0.0348946564 -0.99939096
vn 9.98430005e-06 -0.0348975845 -0.999390841
vn -0.000122267767 -0.0349186696 -0.999390125
vn -2.17030242e-06 -0.0349000916 -0.999390841
vn -2.01797803e-07 -0.034899652 -0.999390841
vn 4.40782378e-06 -0.0348926112 -0.999391079
vn 9.98430005e-06 -0.0348975845 -0.999390841
vn 6.49299955e-06 -0.0348983966 -0.999390841
vn -7.10734166e-05 -0.0349069759 -0.9993909
vn -2.01797803e-07 -0.034899652 -0.999390841
vn 1.51205143e-07 -0.0348995514 -0.999390781
vn -3.96466248e-07 -0.0348937437 -0.999390841
vn 6.49299955e-06 -0.0348983966 -0.999390841
vn 4.34115873e-06 -0.0348989367 -0.999390841
vn -4.75953966e-05 -0.0349009484 -0.999390602
vn 1.51205143e-07 -0.0348995514 -0.999390781
vn 4.34115873e-06 -0.0348989367 -0.999390841
vn -5.34510125e-09 -0.0348988771 -0.999390841
vn -1.52638847e-06 -0.034895286 -0.999390841
vn 3.02874996e-05 -0.0348983593 -0.999390841
vn -6.97536743e-05 -0.0349001698 -0.999390781
vn -4.09882196e-05 -0.0348999985 -0.999390721
vn -6.97536743e-05 -0.0349001698 -0.999390781
vn 3.02874996e-05 -0.0348983593 -0.999390841
vn 3.31015781e-06 -0.0348984078 -0.999390781
vn -6.1118837e-05 -0.0348973274 -0.999390841
vn 0.000168917701 -0.0349008664 -0.999390841
vn 9.95448354e-05 -0.034900669 -0.999390781
vn 2.23532084e-06 -0.03489751 -0.9993909
vn 0.000168917701 -0.0349008664 -0.999390841
vn -6.1118837e-05 -0.0348973274 -0.999390841
vn -2.15371892e-06 -0.0348982513 -0.9993909
vn -2.15913354e-09 -0.0348904692 -0.999391198
vn 0 -0.0348949805 -0.999391019
vn -2.15913354e-09 -0.0348904692 -0.999391198
vn -2.15371892e-06 -0.0348982513 -0.9993909
vn -1.96686165e-06 -0.034894906 -0.999391019
vn -0.0232056435 -1.02118838 1.23633557e-08
vn 0 -1 0
vn -0.0798242241 -0.91257596 0
vn -0.0798242241 -0.91257596 0
vn 0 -1 0
vn 2.31288741e-15 -1 0
vn 0.995878816 -0.0906936824 1.19981266e-07
vn 0.995878816 -0.0906935632 8.83249299e-07
vn 0.995878875 -0.0906936899 -1.19981294e-07
vn 0.995878875 -0.0906936899 -1.19981294e-07
vn 0.995878816 -0.0906935632 8.83249299e-07
vn 0.995878875 -0.0906935781 -8.83252824e-07
vn 0.995878875 -0.0906937197 5.23992696e-07
vn 0.995878756 -0.0906942636 -8.2285942e-06
vn 0.995878875 -0.0906936973 -5.23992298e-07
vn 0.995878875 -0.0906936973 -5.23992298e-07
vn 0.995878756 -0.0906942636 -8.2285942e-06
vn 0.995878816 -0.0906942561 8.22866332e-06
vn 0 -1 0
vn 0 -1 0
vn 0 -1 0
vn 0 -1 0
vn 0 -1 0
vn 0 -1 0
vn 0.995878875 -0.0906938687 -8.23969799e-07
vn 0.995878875 -0.0906936973 5.82423718e-06
vn 0.995878875 -0.0906938687 8.23970026e-07
vn 0.995878875 -0.0906938687 8.23970026e-07
vn 0.995878875 -0.0906936973 5.82423718e-06
vn 0.995878875 -0.0906937048 -5.82423718e-06
vn 0.995878816 -0.0906937271 1.10843951e-06
vn 0.995878756 -0.0906939507 -1.82837884e-05
vn 0.995878875 -0.0906937271 -1.10843951e-06
vn 0.995878875 -0.0906937271 -1.10843951e-06
vn 0.995878756 -0.0906939507 -1.82837884e-05
vn 0.995878816 -0.0906939432 1.82837903e-05
vn 0.995878875 -0.0906936899 8.50433253e-07
vn 0.995878875 -0.0906937048 4.17310588e-07
vn 0.995878875 -0.0906936973 -8.5043348e-07
vn 0.995878875 -0.0906936973 -8.5043348e-07
vn 0.995878875 -0.0906937048 4.17310588e-07
vn 0.995878816 -0.0906937048 -4.17315789e-07
vn -1.91788672e-06 -0.0349043906 0.999390602
vn 0.995878816 -0.0906939507 1.61692533e-15
vn 5.49954868e-17 1 0
vn -3.05967887e-07 -1 -2.97651778e-17
vn 2.31288741e-15 -1 0
vn 0.995878816 -0.0906939507 1.61692533e-15
vn -3.05967887e-07 -1 -2.97651778e-17
vn -0.0798242241 -0.91257596 0
vn 2.31288741e-15 -1 0
vn -3.05967887e-07 -1 -2.97651778e-17
vn 0.995878816 -0.0906939507 1.61692533e-15
vn -1.91788672e-06 -0.0349043906 0.999390602
vn -3.05967887e-07 -1 4.09945074e-16
vn 2.26041766e-06 -0.0349004343 -0.999390841
vn 0 1 2.03995987e-16
vn -3.05967887e-07 -1 4.09945074e-16
vn 0 1 2.03995987e-16
vn -0.995878935 0.0906931907 -3.47441322e-23
vn -0.995878935 0.0906931907 -3.47441322e-23
vn 0.995878696 -0.0906939581 -5.3057795e-07
vn -0.0232056435 -1.02118838 1.23633557e-08
vn -0.995878935 0.0906931907 -3.47441322e-23
vn 0 1 2.03995987e-16
vn 0.995878696 -0.0906939581 -5.3057795e-07
g 
f 1//1 2//2 3//3
f 3//4 2//5 4//6
f 3//7 4//8 5//9
f 5//10 4//11 6//12
f 7//13 8//14 9//15
f 9//16 8//17 10//18
f 9//19 10//20 11//21
f 11//22 10//23 12//24
f 13//25 14//26 7//27
f 7//28 14//29 8//30
f 15//31 17//32 16//33
f 16//34 17//35 18//36
f 16//37 18//38 13//39
f 13//40 18//41 14//42
f 19//43 20//44 15//45
f 15//46 20//47 17//48
f 19//49 21//50 20//51
f 20//52 21//53 22//54
f 21//55 23//56 22//57
f 22//58 23//59 24//60
f 25//61 26//62 27//63
f 27//64 26//65 28//66
f 27//67 28//68 23//69
f 23//70 28//71 24//72
f 25//73 5//74 26//75
f 26//76 5//77 6//78
f 29//79 30//80 31//81
f 31//82 30//83 32//84
f 31//85 32//86 33//87
f 33//88 32//89 34//90
f 29//91 35//92 30//93
f 30//94 35//95 36//96
f 37//97 38//98 39//99
f 39//100 38//101 40//102
f 39//103 40//104 35//105
f 35//106 40//107 36//108
f 41//109 33//110 42//111
f 42//112 33//113 34//114
f 43//115 45//116 44//117
f 44//118 45//119 46//120
f 44//121 46//122 47//123
f 47//124 46//125 48//126
f 49//127 50//128 43//129
f 43//130 50//131 45//132
f 49//133 51//134 50//135
f 50//136 51//137 52//138
f 51//139 53//140 52//141
f 52//142 53//143 54//144
f 55//145 56//146 57//147
f 57//148 56//149 58//150
f 57//151 58//152 53//153
f 53//154 58//155 54//156
f 55//157 59//158 56//159
f 56//160 59//161 60//162
f 61//163 63//164 62//165
f 62//166 63//167 64//168
f 62//169 64//170 59//171
f 59//172 64//173 60//174
f 65//175 66//176 67//177
f 67//178 66//179 68//180
f 67//181 68//182 69//183
f 69//184 68//185 70//186
f 47//187 48//188 65//189
f 65//190 48//191 66//192
f 71//193 72//194 73//195
f 71//196 73//197 74//198
f 74//199 73//200 75//201
f 75//202 73//203 76//204
f 77//205 78//206 71//207
f 71//208 78//209 72//210
f 79//211 81//212 80//213
f 80//214 81//215 82//216
f 80//217 82//218 78//219
f 80//220 78//221 77//222
f 83//223 84//224 79//225
f 79//226 84//227 81//228
f 83//229 85//230 84//231
f 84//232 85//233 86//234
f 85//235 87//236 86//237
f 86//238 87//239 88//240
f 89//241 90//242 91//243
f 89//244 91//245 92//246
f 92//247 91//248 87//249
f 87//250 91//251 88//252
f 89//253 93//254 90//255
f 90//256 93//257 94//258
f 95//259 96//260 97//261
f 97//262 96//263 98//264
f 97//265 98//266 93//267
f 93//268 98//269 94//270
f 99//271 100//272 101//273
f 99//274 101//275 102//276
f 102//277 101//278 103//279
f 103//280 101//281 104//282
f 105//283 106//284 99//285
f 99//286 106//287 100//288
f 107//289 109//290 108//291
f 108//292 109//293 110//294
f 108//295 110//296 106//297
f 108//298 106//299 105//300
f 111//301 112//302 107//303
f 107//304 112//305 109//306
f 111//307 113//308 112//309
f 112//310 113//311 114//312
f 113//313 115//314 114//315
f 114//316 115//317 116//318
f 117//319 118//320 119//321
f 119//322 118//323 120//324
f 119//325 120//326 115//327
f 115//328 120//329 116//330
f 117//331 121//332 118//333
f 118//334 121//335 122//336
f 123//337 124//338 125//339
f 125//340 124//341 126//342
f 125//343 126//344 121//345
f 121//346 126//347 122//348
f 127//349 129//350 128//351
f 128//352 129//353 130//354
f 128//355 130//356 131//357
f 128//358 131//359 132//360
f 132//361 131//362 133//363
f 134//364 135//365 127//366
f 127//367 135//368 129//369
f 134//370 136//371 135//372
f 135//373 136//374 137//375
f 136//376 138//377 137//378
f 137//379 138//380 139//381
f 140//382 141//383 142//384
f 142//385 141//386 143//387
f 142//388 143//389 144//390
f 144//391 143//392 145//393
f 144//394 145//395 146//396
f 146//397 145//398 147//399
f 132//400 133//401 140//402
f 140//403 133//404 141//405
f 148//406 150//407 149//408
f 149//409 150//410 151//411
f 42//412 34//413 20//414
f 38//415 12//416 17//417
f 38//418 17//419 20//420
f 38//421 20//422 34//423
f 84//424 22//425 24//426
f 84//427 24//428 2//429
f 84//430 2//431 81//432
f 124//433 70//434 68//435
f 124//436 68//437 66//438
f 124//439 66//440 122//441
f 124//442 122//443 126//444
f 141//445 133//446 56//447
f 141//448 56//449 60//450
f 141//451 60//452 63//453
f 106//454 88//455 91//456
f 106//457 91//458 90//459
f 48//460 116//461 120//462
f 48//463 120//464 118//465
f 48//466 118//467 122//468
f 48//469 122//470 66//471
f 63//472 60//473 64//474
f 133//475 54//476 58//477
f 133//478 58//479 56//480
f 96//481 104//482 101//483
f 96//484 101//485 100//486
f 63//487 147//488 145//489
f 63//490 145//491 143//492
f 63//493 143//494 141//495
f 54//496 133//497 131//498
f 54//499 131//500 130//501
f 54//502 130//503 129//504
f 54//505 129//506 135//507
f 54//508 135//509 52//510
f 116//511 48//512 46//513
f 116//514 46//515 45//516
f 116//517 45//518 50//519
f 116//520 50//521 114//522
f 88//523 106//524 110//525
f 88//526 110//527 109//528
f 88//529 109//530 112//531
f 88//532 112//533 86//534
f 81//535 2//536 76//537
f 94//538 106//539 90//540
f 106//541 94//542 100//543
f 100//544 94//545 98//546
f 100//547 98//548 96//549
f 32//550 40//551 38//552
f 32//553 38//554 34//555
f 40//556 32//557 30//558
f 40//559 30//560 36//561
f 28//562 2//563 24//564
f 2//565 28//566 4//567
f 4//568 28//569 26//570
f 4//571 26//572 6//573
f 72//574 78//575 73//576
f 73//577 78//578 82//579
f 73//580 82//581 81//582
f 73//583 81//584 76//585
f 8//586 14//587 18//588
f 8//589 18//590 10//591
f 10//592 18//593 17//594
f 10//595 17//596 12//597
f 19//598 33//599 41//600
f 37//601 33//602 19//603
f 37//604 19//605 15//606
f 37//607 15//608 11//609
f 83//610 79//611 1//612
f 83//613 1//614 23//615
f 83//616 23//617 21//618
f 123//619 125//620 121//621
f 123//622 121//623 65//624
f 123//625 65//626 67//627
f 123//628 67//629 69//630
f 140//631 61//632 59//633
f 140//634 59//635 55//636
f 140//637 55//638 132//639
f 105//640 89//641 92//642
f 105//643 92//644 87//645
f 47//646 65//647 121//648
f 47//649 121//650 117//651
f 47//652 117//653 119//654
f 47//655 119//656 115//657
f 61//658 62//659 59//660
f 132//661 55//662 57//663
f 132//664 57//665 53//666
f 95//667 99//668 102//669
f 95//670 102//671 103//672
f 61//673 140//674 142//675
f 61//676 142//677 144//678
f 61//679 144//680 146//681
f 53//682 51//683 134//684
f 53//685 134//686 127//687
f 53//688 127//689 128//690
f 53//691 128//692 132//693
f 115//694 113//695 49//696
f 115//697 49//698 43//699
f 115//700 43//701 44//702
f 115//703 44//704 47//705
f 87//706 85//707 111//708
f 87//709 111//710 107//711
f 87//712 107//713 108//714
f 87//715 108//716 105//717
f 75//718 1//719 79//720
f 89//721 105//722 93//723
f 93//724 105//725 99//726
f 93//727 99//728 97//729
f 97//730 99//731 95//732
f 33//733 37//734 31//735
f 31//736 37//737 39//738
f 31//739 39//740 29//741
f 29//742 39//743 35//744
f 23//745 1//746 27//747
f 27//748 1//749 3//750
f 27//751 3//752 25//753
f 25//754 3//755 5//756
f 77//757 71//758 80//759
f 80//760 71//761 74//762
f 80//763 74//764 79//765
f 79//766 74//767 75//768
f 13//769 7//770 16//771
f 16//772 7//773 9//774
f 16//775 9//776 15//777
f 15//778 9//779 11//780
f 2//781 1//782 152//783
f 1//784 153//785 152//786
f 12//787 154//788 11//789
f 155//790 11//791 154//792
f 38//793 37//794 156//795
f 37//796 157//797 156//798
f 42//799 159//800 158//801
f 158//802 41//803 42//804
f 63//805 61//806 160//807
f 61//808 161//809 160//810
f 70//811 162//812 69//813
f 163//814 69//815 162//816
f 96//817 95//818 164//819
f 95//820 165//821 164//822
f 166//823 75//824 76//825
f 166//826 167//827 75//828
f 124//829 123//830 168//831
f 123//832 169//833 168//834
f 170//835 103//836 104//837
f 170//838 171//839 103//840
f 138//841 178//842 172//843
f 139//844 138//845 172//846
f 147//847 173//848 146//849
f 174//850 146//851 173//852
f 149//853 151//854 175//855
f 175//856 151//857 176//858
f 177//859 148//860 179//861
f 148//862 177//863 150//864
f 38//865 156//866 12//867
f 154//868 12//869 156//870
f 124//871 168//872 70//873
f 162//874 70//875 168//876
f 177//877 159//878 42//879
f 20//880 177//881 42//882
f 22//883 177//884 20//885
f 84//886 177//887 22//888
f 86//889 177//890 84//891
f 112//892 177//893 86//894
f 114//895 177//896 112//897
f 50//898 177//899 114//900
f 52//901 177//902 50//903
f 135//904 177//905 52//906
f 137//907 177//908 135//909
f 150//910 177//911 137//912
f 170//913 104//914 164//915
f 96//916 164//917 104//918
f 173//919 147//920 160//921
f 160//922 147//923 63//924
f 76//925 2//926 166//927
f 152//928 166//929 2//930
f 11//931 157//932 37//933
f 157//934 11//935 155//936
f 69//937 169//938 123//939
f 169//940 69//941 163//942
f 136//943 179//944 148//945
f 179//946 136//947 134//948
f 179//949 134//950 51//951
f 49//952 179//953 51//954
f 113//955 179//956 49//957
f 111//958 179//959 113//960
f 85//961 179//962 111//963
f 83//964 179//965 85//966
f 21//967 179//968 83//969
f 19//970 179//971 21//972
f 41//973 179//974 19//975
f 41//976 158//977 179//978
f 165//979 103//980 171//981
f 103//982 165//983 95//984
f 161//985 146//986 174//987
f 61//988 146//989 161//990
f 167//991 1//992 75//993
f 1//994 167//995 153//996
f 178//997 175//998 172//999
f 172//1000 175//1001 176//1002
f 154//1003 156//1004 155//1005
f 155//1006 156//1007 157//1008
f 166//1009 152//1010 167//1011
f 167//1012 152//1013 153//1014
f 177//1015 158//1016 159//1017
f 179//1018 158//1019 177//1020
f 173//1021 160//1022 174//1023
f 174//1024 160//1025 161//1026
f 162//1027 168//1028 163//1029
f 163//1030 168//1031 169//1032
f 170//1033 164//1034 171//1035
f 171//1036 164//1037 165//1038
f 137//1039 151//1040 150//1041
f 139//1042 176//1043 151//1044
f 139//1045 172//1046 176//1047
f 139//1048 151//1049 137//1050
f 136//1051 148//1052 149//1053
f 136//1054 149//1055 138//1056
f 138//1057 175//1058 178//1059
f 138//1060 149//1061 175//1062
