# File exported by Houdini 21.0.440 (www.sidefx.com)
# 818 points
# 4694 vertices
# 1511 primitives
# Bounds: [-0.000224416741, 0.0698415339, -0.000122504891] to [0.0338393301, 0.128075227, 0.0330993012]
g 
v 0.00538299885 0.0817971081 0.0329976119
v 0.00419650553 0.0768728033 0.0330457389
v 0.00391209172 0.0999990776 0.0201295409
v 0.0166408792 0.100003004 0.0242393836
v 0.0162690617 0.121188767 0.0261702947
v 0.0161686391 0.117038608 0.0265173186
v 0.0154605452 0.11838273 0.0251638442
v 0.0185926147 0.127319559 0.0265224706
v 0.0224391632 0.122654222 0.0265257172
v 0.0179059971 0.113601558 0.0264827833
v 0.0237167645 0.123765461 0.012062612
v 0.0241411813 0.125919446 0.015266859
v 0.0240799598 0.12643604 0.0182215851
v 0.0235747229 0.126955852 0.0074300929
v 0.0235758591 0.126914367 0.0159639679
v 0.0146318823 0.0926537439 0.0330090038
v 0.0130534368 0.0807592645 0.0329908431
v 0.0218925998 0.0808908939 0.0330056362
v 0.0260354523 0.08626315 0.00502179423
v 0.0248736311 0.0936172828 0.00501349475
v 0.0199549254 0.0812664926 0.00500422902
v 0.0134962182 0.0909968689 0.00501230778
v 0.0257652216 0.105006963 0.0178197064
v 0.0241809301 0.10495346 0.0180663895
v 0.0266493186 0.10539788 0.0139281023
v 0.0257004779 0.104959562 0.0064071021
v 0.0266633239 0.105349533 0.00769384578
v 0.0286373124 0.0999223739 0.0125139365
v 0.0295154229 0.100208901 0.0134235835
v 0.025574429 0.0999868661 0.0129321627
v 0.000690289831 0.0757662877 0.0329598375
v 0.000101576385 0.0710947886 0.0326092616
v 0.000623946369 0.0902684554 0.0330209807
v 0.00158703362 0.0710375234 0.0330993012
v 0.00471868599 0.0739715174 0.0329746976
v 0.000946845335 0.0837920532 -3.81996142e-05
v 0.00410644244 0.0871581584 5.11709186e-06
v 0.006570403 0.0879199207 -1.37539282e-05
v 0.0298023652 0.0801921263 0.0284312069
v 0.0299236868 0.0855404213 0.0289023537
v 0.0293110646 0.0819884017 0.0280980598
v 0.0299419966 0.0756456628 0.0321082622
v 0.0299484786 0.0888992548 0.0312788635
v 0.000836540363 0.0756078362 -7.821279e-05
v 0.00274717738 0.0714381412 -0.000122504891
v 0.00435673492 0.0756500661 6.21148429e-05
v 0.00012760282 0.0822422951 0.000208213547
v 5.66663111e-05 0.0712851658 0.000162320692
v 0.00462229596 0.0996654183 1.89975999e-05
v 0.0117421839 0.101124965 -3.8937892e-06
v -0.000175693582 0.0774440765 0.0318189152
v 0.0280107353 0.0851775035 0.0279616099
v 0.0250248797 0.078698054 0.0279444028
v 0.0250979923 0.0938962922 0.0280020908
v 0.0166444592 0.0882894993 0.0280122943
v 0.0277742129 0.0894040614 -5.90978707e-05
v 0.0216693003 0.0866247416 1.13760461e-05
v 0.00758218858 0.0993328169 0.0280118622
v 0.000762263488 0.099789761 0.0275900718
v 0.00378610846 0.0936460122 0.0279791672
v 0.0149644306 0.0989308432 0.028042499
v 0.0124977473 0.0947946757 0.0279886946
v 0.0202800576 0.0729168132 -6.73657196e-05
v 0.0175769143 0.0763399675 -1.84371711e-05
v 0.012516316 0.0709609836 -4.95268141e-05
v 0.0112153646 0.0788799748 -7.1673212e-06
v 0.0117790047 0.100049414 0.032995522
v 0.0289232731 0.0999767035 0.0272669662
v 0.0189659745 0.100000441 0.0154623408
v 0.0299281441 0.104361609 0.0156192994
v 0.0298592616 0.100914195 0.0188382268
v 0.0174650326 0.105036549 0.0311495755
v 0.0100321565 0.105008088 0.0323229842
v 0.0237438921 0.104383685 0.0330098681
v 0.00763985794 0.10475795 0.0328168087
v 0.0113050714 0.110353023 0.0102475453
v 0.0130149741 0.112043902 0.0216505714
v -0.000172600834 0.0877020061 0.00253379042
v -0.00011181934 0.0866326019 0.000771876134
v 1.89037073e-05 0.0939692706 0.000312427233
v 0.0312707089 0.111748904 0.0123399384
v 0.0325665176 0.11804039 0.0169601217
v 0.0297017135 0.096427165 0.0327764936
v 0.0291114058 0.0946284384 0.033023715
v 0.0299723279 0.100296177 0.0318509787
v 0.0296657439 0.0815833956 0.0327457488
v -0.000129002889 0.099408865 0.000884782407
v 0.00047903927 0.0938183963 2.4589699e-06
v -2.78448388e-05 0.0973696411 0.00435675308
v -0.000161109914 0.0921347812 0.00375283696
v 1.48650884e-06 0.0894381404 0.00454187021
v 0.000512761821 0.0927733928 0.00497577619
v 0.029234523 0.0849642977 0.000107031927
v 0.0298083369 0.0910912305 0.000677320408
v 0.0288898833 0.103952251 -6.10827192e-05
v 0.0299319234 0.0830956399 0.032266289
v 0.0288214013 0.0777424499 0.0330219045
v 0.000438890624 0.104874127 0.0146949571
v -0.000100841025 0.104309723 0.0139445169
v 0.00101878284 0.105040066 0.0194737073
v 0.000575473125 0.105031967 0.00637193723
v 0.00288967998 0.105021887 0.0202793367
v 0.000232312712 0.104793139 0.0215914417
v 0.0205519181 0.108598448 0.0196379554
v 0.0199630372 0.105852865 0.0147995651
v 0.0199538954 0.105883747 0.0235770531
v 0.0200786926 0.105236858 0.019964017
v 0.0258920696 0.0809720457 -1.78727441e-05
v 0.0302794389 0.122121632 0.0205539651
v 0.0304663125 0.123146333 0.0152481869
v 0.0304055586 0.122926213 0.0225012247
v 0.0294615086 0.118105531 0.019830225
v 0.029635556 0.119057298 0.013831595
v 0.0103556328 0.104891889 0.000465423422
v 0.021634521 0.104564756 0.000155031637
v 0.0207215715 0.105040699 0.00136726827
v 0.0113846892 0.104310162 8.69623364e-06
v 0.0223086905 0.10381712 -4.1071271e-05
v 0.0293112937 0.104889087 0.000497310946
v 0.0291977506 0.117153808 0.00860590115
v 0.0292197354 0.116862066 0.00699825585
v 0.0293017738 0.117220588 0.011673484
v 0.0279882997 0.111004531 0.0136060705
v 0.0283087119 0.111723855 0.00681263907
v 0.0300686359 0.119146399 0.0065269554
v 0.0276293904 0.109501995 0.00853936747
v 0.0287234373 0.111324199 0.00644401927
v 0.0298836771 0.091880545 0.00418107118
v 0.0299745537 0.0883955061 0.00314342836
v 0.0293901954 0.0872601047 0.00484261289
v 0.029036263 0.0748399496 0.0279511083
v 0.025700191 0.0727904961 0.0279266015
v 0.0218157992 0.0711841807 0.0279102959
v 0.0185252801 0.0702661201 0.0282591358
v 0.0224401038 0.0699955449 0.0290197078
v 0.0295183491 0.0704555884 0.0282254945
v 0.0289017614 0.0699179769 0.0291860271
v 0.0134267807 0.0699349791 0.0292963609
v 0.0229866058 0.0699711666 0.0319599435
v 0.00931160804 0.069984816 0.00101535139
v 0.018307697 0.0699495301 0.00338112004
v 0.0102271233 0.0703285486 0.000195405839
v 0.0133886579 0.0700008199 0.00418298645
v 0.00831339229 0.0702825189 0.00482784957
v 0.0269431248 0.105832644 0.0257314816
v 0.0281540174 0.111258492 0.0262326524
v 0.0277742222 0.109978154 0.02189379
v 0.0065097441 0.105535768 0.0187197886
v 0.0056245923 0.105057061 0.0154150566
v 0.00587225659 0.105186783 0.0279053673
v 0.00839546882 0.107471049 0.0161240846
v 0.00964211021 0.108758144 0.0274276771
v 0.030277757 0.107028715 0.0129420813
v 0.00616907328 0.0793580934 -2.23271272e-05
v 0.0274407379 0.085877277 0.0330243297
v 0.00413839053 0.0826501921 0.028002277
v 0.000625390036 0.0897555873 0.0279629473
v 0.000752291759 0.0832995847 0.0279928725
v 0.0113681806 0.0809883326 0.028006766
v 0.00662411842 0.0871798843 0.0279741082
v 7.25782286e-07 0.0877536833 0.0283112824
v 0.0299547724 0.09356305 0.00176148373
v 0.0295807067 0.0963887796 0.000162939294
v -7.21097676e-05 0.104075506 0.0243926086
v 0.000540918962 0.104863934 0.0285970829
v 0.000720780517 0.0817959383 0.00501519488
v 0.000152791385 0.0805608705 0.004814927
v 0.0206517708 0.104976557 0.0177704357
v -0.000153498186 0.100903518 0.0122153191
v 4.05541032e-05 0.104847312 0.00548367016
v 4.39591313e-05 0.100355029 0.0132355914
v 0.000243174669 0.100220427 0.0223912708
v 0.000792838691 0.099956505 0.0121069998
v 0.00107464718 0.0999637395 0.0236860458
v 0.0313555859 0.11488951 0.0064902124
v 0.0312047917 0.111673146 0.00683100289
v 0.00987410266 0.0774841756 -4.69030892e-05
v 0.0284561981 0.0894178301 0.00503430236
v 0.029675955 0.0990050361 0.00479837041
v 0.0297101699 0.0805669278 0.00478236005
v 0.0299327318 0.0814168081 0.00420599477
v 0.028642904 0.0709503517 0.00503782509
v 0.0138617493 0.0809111744 0.00499167433
v 0.014238405 0.0958019197 0.00498829689
v 0.0296112243 0.0914771631 0.0282023232
v 0.0302804559 0.108725816 0.0264276862
v 0.0332374983 0.124206729 0.0265352298
v 0.0322839878 0.117442481 0.0263427477
v 0.0310646277 0.110676549 0.0257840939
v 0.032275714 0.11647065 0.0258510839
v 0.0290014576 0.109867215 0.0265789516
v 0.0274604112 0.105744354 0.0264647584
v 0.0295315944 0.10581103 0.00663873879
v 0.0283924248 0.105646662 0.00642020069
v 0.00756068155 0.0731536224 0.0039105243
v 0.00855546538 0.073526226 0.000831490674
v 0.00911610201 0.0741127282 0.00440331735
v 0.00825670268 0.0728977621 0.00476196734
v 0.0334645547 0.124908157 0.0194980241
v 0.0338393301 0.12444932 0.0140606454
v 0.0315293185 0.125342458 0.0256221611
v 0.032037273 0.125234291 0.0141326198
v 0.0309454929 0.125037402 0.017132666
v 0.0314976946 0.125316024 0.00724981539
v 0.0336837694 0.123992078 0.006728685
v 0.0325500108 0.117733583 0.00711330632
v 0.00449570687 0.10495761 0.00566513604
v 0.00379050523 0.104960755 0.0146141909
v 0.00665513938 0.105690978 0.00940608513
v 0.0298980232 0.101429366 0.00770487403
v 0.0155113703 0.100045301 0.0267065447
v 0.000671936607 0.0999935567 0.0266858637
v 0.0141402436 0.0998758376 0.0276129413
v 0.0163349416 0.100003734 0.00848047342
v -0.000177643655 0.0754109025 0.000853162259
v -0.000118241762 0.0782324523 0.00422072643
v 0.0301328152 0.106175691 0.0228673778
v 0.0249098577 0.100427538 -4.82031965e-06
v 0.00316641736 0.0961022899 0.0329916887
v 4.7132442e-05 0.081923604 0.0327701159
v 1.24243195e-06 0.0974686444 0.0326795541
v -0.000150262335 0.101216152 0.00328219426
v -0.000133254216 0.0990242362 0.00371869444
v 0.000151399174 0.10447827 0.000229833677
v 0.012572906 0.104045734 0.0330301523
v 0.0195103455 0.12386103 0.0220291615
v 0.0191561915 0.124696016 0.0242379997
v 0.0197215658 0.123544671 0.0234539434
v 0.0194312558 0.122680053 0.0204500165
v 0.0190028418 0.123411402 0.0195460077
v 0.0191247817 0.124856301 0.0206131916
v 0.0192470793 0.125261515 0.0227322001
v 0.0152653437 0.0710098445 0.0279569849
v 0.0169095453 0.123116404 0.0264199208
v 0.0165308695 0.122277021 0.0261310562
v 0.0169278085 0.124284722 0.0255244132
v 0.0171885528 0.127338454 0.0254862364
v 0.0177327022 0.127893746 0.0261905193
v 0.021285357 0.116419032 0.0265163947
v 0.0225738119 0.119735584 0.0262512583
v 0.0214494616 0.114207871 0.026304679
v 0.0228313357 0.120029159 0.0258294586
v 0.022151228 0.116114929 0.0255519357
v 0.0192315653 0.116794087 0.00650110003
v 0.0203929748 0.123594806 0.00650657481
v 0.0161165092 0.117759272 0.00647483347
v 0.0159498733 0.119852416 0.00666411081
v 0.0216442179 0.113929711 0.0177370906
v 0.022860609 0.119668409 0.0178136565
v 0.022585839 0.118521914 0.0113291899
v 0.00102465658 0.105068289 0.0321731977
v 0.00412875181 0.104979835 0.0282898583
v -4.35776892e-05 0.0764179304 0.0287415422
v 0.000458776252 0.0761822909 0.0281622522
v -0.000152369525 0.0888578892 0.0288666356
v -0.000155833273 0.0713124275 0.0291099008
v 0.00511057395 0.0892204046 0.00501846569
v 0.0039685457 0.0795465186 0.00500699878
v 0.00790221058 0.0935490951 -4.52138775e-05
v 0.0190354381 0.0751136392 0.027980255
v 0.0202554278 0.078913644 0.0279615279
v 0.00437334599 0.0698907152 0.0307487659
v 0.000752644148 0.0702155381 0.0283481348
v 0.0180425402 0.0703960285 0.0048023453
v 0.0127963303 0.0866486579 -2.85567075e-05
v 0.00976358727 0.0854140967 -1.00850275e-06
v 0.017238887 0.076937452 0.00504883705
v 0.0145699987 0.0709877461 0.00503653893
v -0.000170735293 0.104060069 0.00226270407
v 0.0253781304 0.104781941 0.032828629
v 0.025858121 0.105049849 0.0322032981
v 0.0173777211 0.0998070464 0.00525991153
v 0.0159185175 0.100053616 0.00582661433
v 0.0109003913 0.0993488729 0.00506235939
v 0.0202309247 0.0984039307 0.0049340371
v 0.00830832217 0.0925921351 0.0050487523
v 0.00322036189 0.0961356312 0.0049962732
v 0.000621498446 0.0984903947 0.00496227667
v 0.000635433011 0.0999935865 0.00597383408
v 0.0203365311 0.104981981 0.00371188228
v 0.000860875123 0.104648508 0.000149651838
v 0.00979667995 0.0830735192 0.00502728904
v 0.0297965817 0.0788707286 0.000524730363
v 0.0299792308 0.0770237371 0.00126941223
v 0.0286085047 0.074933067 1.39191127e-06
v 0.0295511205 0.0710966513 0.000280201784
v 0.0300143976 0.0714380294 0.0037525571
v 0.029606929 0.0712528005 0.00470403722
v 0.0211474039 0.127423719 0.0160697773
v 0.017938789 0.128075227 0.0163078662
v 0.0175379794 0.127972141 0.0133162811
v 0.0288969856 0.0931379795 0.0279473625
v 0.0021249752 0.0762899369 0.0279120356
v 0.012572011 0.0921302959 -2.1967895e-05
v 0.00652424013 0.105013497 0.00191854581
v 0.0131539805 0.104956724 0.00400889851
v 0.00631330395 0.10503874 0.0035912625
v 0.0141209541 0.0700102597 0.0322452597
v 0.00449993368 0.0699495971 0.00383443944
v 0.00220362144 0.0698503256 0.00223461445
v 0.0010141175 0.0701465979 0.0045257071
v 0.000811665202 0.0701088682 0.000865243899
v 0.00030664471 0.0990094841 0.0280671064
v -0.000137141498 0.0957332775 0.0305131935
v 0.029886594 0.104156569 0.0321222059
v 0.0289872754 0.0995577499 0.0279188976
v 0.0185862351 0.0725410804 0.00508575188
v 0.010355765 0.0739737451 0.00503619295
v 0.0185269229 0.0745345876 0.00495261746
v 0.0218467694 0.0708053261 0.00500804884
v 0.0270267967 0.106071569 0.00743017811
v 0.0269859899 0.105839536 0.0214039702
v 0.00734398095 0.105166569 0.00432014791
v 0.0138438568 0.105239004 0.00480540283
v 0.0218466725 0.0776531771 7.83462474e-06
v 0.0190620869 0.0763288885 4.24062164e-05
v 0.0272852052 0.0755487829 -8.17462278e-05
v 0.014134841 0.113498829 0.0234293584
v 0.0140608037 0.11331173 0.0162877794
v 0.0146734575 0.114586927 0.0177658182
v 0.0150527256 0.116413839 0.0208467562
v 0.020949211 0.110458061 0.00928523485
v 0.00808972027 0.0859952867 0.0330200344
v 0.0119189257 0.0867239833 0.0330165885
v 0.0334483683 0.122250222 0.0137985814
v 0.0338070802 0.124142177 0.0260671657
v 0.00571091613 0.0882474855 0.0330328308
v 0.0292543136 0.100080982 0.0219700355
v 0.0329691172 0.119916707 0.0192058403
v 0.033462204 0.122186176 0.0211461373
v 0.0124143735 0.0903590918 0.0329826213
v 0.0180435851 0.127297685 0.00647040037
v 0.0308450088 0.124872632 0.00705121085
v 0.000677606964 0.102605909 0.033060167
v 0.0290723164 0.11632926 0.0202632155
v 0.0264651664 0.105112992 0.0270377211
v 0.0209076069 0.104984701 0.010934839
v 0.0214058869 0.10495577 0.0075186044
v 0.0200311467 0.105214037 0.00511355465
v 0.0199417304 0.105980977 0.0108784549
v 0.0081224069 0.0846480653 0.00501683634
v 0.00686515123 0.0889519006 0.004869428
v 0.00761498418 0.0882261321 0.00443421025
v 0.00751110632 0.0896092206 0.00446594181
v 0.00994612556 0.0730893239 0.0279602129
v 0.006997474 0.0710074082 0.0279129818
v 0.0143405925 0.113234624 0.0278833397
v 0.00763759064 0.105597802 0.0280129761
v 0.0128916632 0.108773299 0.0280072708
v 0.0135523994 0.105682582 0.0279477481
v -0.000210797007 0.102440476 0.0195105728
v -0.000132772751 0.0947258621 0.032074824
v 0.0286778659 0.0998881981 0.00576910796
v 6.85110535e-06 0.10059417 0.0274521168
v 0.0296153612 0.0979459062 0.0283015072
v 0.0298913214 0.0995332897 0.0291181784
v 0.0249358863 0.0776415616 0.00503585348
v 0.0210703388 0.0782424808 0.00502432557
v 0.0134585965 0.112566985 0.00588553445
v 0.0144919772 0.113958396 0.00734159071
v 0.0193710849 0.122813106 0.0244650207
v 0.0219464377 0.122017309 0.0243353546
v 0.0228208099 0.122888692 0.0234024264
v 0.0193749499 0.121799953 0.0246430542
v 0.0210738834 0.12748237 0.0257653017
v 0.0112165818 0.0912906751 0.00496079912
v 0.0122248605 0.0883565471 0.00494211866
v 0.0106067499 0.0907877088 0.00466955965
v 0.0306849238 0.120074265 0.0265587177
v 0.0310484879 0.124891207 0.0263604783
v 0.0290148873 0.116089217 0.0257898141
v 0.0305629242 0.123812839 0.0257789921
v 0.0124292318 0.0904372409 0.0279730037
v 0.018612206 0.0705939755 1.74798733e-05
v 0.00719727576 0.0722801462 0.00498734182
v 0.00839267578 0.0710181817 0.00508795958
v 0.00361401262 0.0721328631 0.00512003526
v 0.0222169664 0.0768200383 0.00394494273
v 0.0234228726 0.0764092579 0.00386856659
v 0.0231510997 0.0769157261 0.00463969819
v 0.0202399176 0.0769819468 0.00487041799
v 0.0093684392 0.0909462646 0.0285339486
v 0.00840229727 0.0906428993 0.0283280034
v 0.00822731853 0.0906094909 0.0323286839
v 0.0105765797 0.0904863328 0.0322938114
v 0.0076170247 0.089801535 0.0287525561
v 0.0336014256 0.124811351 0.00711245369
v 0.0180702303 0.128071278 0.00724369707
v 0.0302872043 0.121900089 0.0121529093
v 0.0109497719 0.0705511048 0.0329014957
v 0.0228843875 0.0703205094 0.0327642597
v 0.0202122778 0.105037257 0.0281662568
v 0.0109763667 0.109776407 0.00520845456
v 0.00814500358 0.105928361 0.00500269793
v 0.00917161442 0.10828314 0.00603434956
v 0.00752463611 0.106170371 0.00541793276
v 0.0134404683 0.106016099 0.00505828951
v 0.0247078687 0.076141797 0.0281873979
v 0.0296278782 0.100182548 0.00551984459
v 0.0298300032 0.104414597 0.0275638234
v 0.0297970884 0.100387245 0.0279442575
v 0.00514873071 0.0700884163 0.0323151499
v 0.0289717931 0.104146689 0.0330485888
v 0.000692739792 0.0995186642 0.00522952341
v 0.0130158644 0.0727672726 0.0330167599
v 0.0225480311 0.118245058 0.0214824602
v 0.00791159458 0.0783788636 0.0279618967
v 0.0249660946 0.0772361457 -3.90057503e-05
v 0.0248601772 0.078359358 0.0330299698
v 0.0149451019 0.116073646 0.0103616975
v 0.010040177 0.0762367845 0.0279836841
v 0.00772094447 0.0777744278 0.0329342782
v 0.00890528969 0.086590223 0.0280580427
v -2.26734683e-05 0.100216039 0.00513057085
v 0.00477504684 0.0766617134 0.00499671837
v 0.0071168947 0.0715822354 0.0330921635
v 0.0104217744 0.0735762566 0.033026509
v 0.00642684801 0.0730156824 0.0328493565
v 0.0178699903 0.0712163523 0.0330587626
v 0.007331172 0.0909184888 0.0330129899
v 0.0224880539 0.0699141398 0.00192139181
v 0.0211134721 0.0701523796 0.000424652564
v 0.0289473105 0.0701647922 0.00461911131
v 0.0289815292 0.0713514015 0.027947193
v 0.0190245099 0.0759108365 0.0330285579
v 0.0214062836 0.0778122544 0.032969337
v 0.0296595097 0.103668138 0.000219033624
v 0.0267238319 0.07490848 0.00507885823
v 0.00749473926 0.0777900964 0.00496634888
v 0.0232671052 0.121865213 0.0133545501
v 0.0287676975 0.105104618 0.00198394526
v 0.0115821986 0.0900258422 0.00022291491
v 0.0297166817 0.119664207 0.0076324963
v 0.0301722512 0.121857882 0.00853274018
v 0.0301381312 0.119389169 0.00837473851
v 0.0298260171 0.117872462 0.00918937195
v 0.023861846 0.126842707 0.0256388001
v 0.0241539814 0.125844151 0.0256351661
v 0.0185159836 0.128003374 0.0243762508
v 0.0238809939 0.126344353 0.0264366195
v 0.00525868637 0.0723671019 0.0278957542
v 0.0134750344 0.105073191 0.0282968413
v 0.00796166062 0.0733261406 0.03229893
v 0.00944557227 0.0745074525 0.0326105244
v 0.0192455444 0.111907765 0.0280470364
v 0.0153790647 0.109224588 0.0050040991
v 0.000968066452 0.0706116259 9.8741024e-05
v 0.028052453 0.0698415339 0.00305727008
v 0.0286387205 0.0701162964 0.000841787783
v 0.0286600292 0.0706902221 0.000110894733
v 0.0249181502 0.0709547475 0.0330960341
v 0.0283167884 0.0698746443 0.0311311688
v 0.0289649237 0.0701898336 0.03251753
v 0.0295347273 0.070898369 0.0329347216
v -0.000105424515 0.0996854752 0.0282234624
v 0.000835824641 0.105067901 0.00123320229
v 0.0103214374 0.0739409849 6.8812119e-06
v 0.00778843556 0.0718930736 -6.23401866e-05
v 0.0291304588 0.116667069 0.0232289527
v 0.00816892646 0.104966544 0.0292677637
v 0.0187739599 0.123610944 0.0255631991
v -0.000224416741 0.102461331 0.0272762757
v 0.0082520647 0.0908779278 0.00463666627
v 0.0260793138 0.0755354464 0.0330053307
v 0.0211819876 0.116052948 0.00646766555
v 0.0225561354 0.122297175 0.00646692608
v 0.0239663329 0.126434013 0.00666299183
v 0.0228500012 0.119801924 0.00700674299
v 0.0240732785 0.125364602 0.00741239777
v 0.0166701861 0.123850897 0.0068654702
v 0.0165239181 0.122084245 0.00683309836
v 0.0152797094 0.117961235 0.00736270938
v 0.000267799158 0.0707573518 0.00470767077
v -0.000160378811 0.0721534938 0.00405325741
v 0.0188752487 0.105880365 0.00502500078
v 0.0185166914 0.121586114 0.0260007847
v 0.0181651302 0.119833931 0.0254546702
v 0.0160304196 0.119689725 0.0250145607
v 0.028871635 0.0990818217 0.00498807337
v 0.0299195964 0.103709862 0.00651124539
v 0.03214572 0.116046764 0.00980543066
v 0.0102076409 0.0775426775 0.00502630183
v 0.0199082475 0.105970919 0.00555104576
v 0.0211368836 0.111129008 0.00545035303
v 0.0172722563 0.127511516 0.0162343271
v 0.0172549356 0.127616823 0.0111475075
v 0.0172256585 0.127444863 0.0202471707
v 0.0225038305 0.11861971 0.0232633669
v 0.0149229448 0.113705769 0.00648533925
v 0.0207176879 0.112450883 0.00643857569
v 0.0326825939 0.118720226 0.0247581769
v 0.0323034748 0.117403865 0.0241305679
v 0.03258821 0.119914852 0.0243527181
v 0.0332541838 0.121254243 0.0239272565
v 0.0332232751 0.12103489 0.00846126117
v 0.032269977 0.117277816 0.00890870672
v 0.0327359401 0.119596675 0.00838422775
v 0.0321506709 0.118177801 0.00854509417
v 0.023651015 0.123573259 0.0203217901
v 0.0301324334 0.119909227 0.0203063544
v 0.0298989806 0.117983803 0.0209185053
v 0.0220158156 0.119024366 0.022553077
v 0.0231377911 0.104958646 0.027839452
v 0.0112260208 0.0874465853 0.0328030474
v 0.000149318133 0.104487039 0.0327467099
v 0.00906832796 0.0909409299 0.0325680934
v 0.0225536469 0.118209012 0.00936861709
v 0.00670969719 0.0765650645 0.000970592781
v 0.00794479344 0.0766915306 0.000644500717
v 0.00657251244 0.0767702833 0.0045590559
v 0.00569601078 0.0756738409 0.0014461152
v 0.0055216169 0.0759113058 0.00450438494
v 0.0240318812 0.0756634772 0.00389251369
v 0.0238535833 0.0763731524 0.000452776847
v 0.0230264552 0.0769466162 0.000555842125
v 0.0241943225 0.0743725896 0.00403459556
v 0.0242576618 0.075647898 0.000371991744
v -0.000198537382 0.0712765977 0.0317580737
v 0.00816053525 0.0911197737 0.000224658957
v 0.0299297739 0.103978202 0.00105112302
v 0.0155599108 0.119117074 0.0134239094
v 0.029815685 0.0709247291 0.00110155542
v 0.0224790964 0.117673427 0.00758369081
v 0.0212386772 0.112137862 0.00675265864
v 0.000720954849 0.0703321621 0.0327803269
v 0.00509685837 0.0733309761 0.000101589882
v 0.00891733542 0.0728252307 0.000132619476
v 0.00834895391 0.0732930377 0.028426392
v 0.00729916431 0.0729651079 0.0283677485
v 0.0185435135 0.121697322 0.0189095885
v 0.0247229673 0.0755139962 0.0047598239
v 0.00759710744 0.0730299875 0.00064473378
v 0.00638547819 0.0734012052 0.00453326479
v 0.0063634729 0.0732301846 0.000475721958
v 0.0112501336 0.0910178795 0.0328492634
v 0.00922810752 0.0746000782 0.000883407774
v 0.00896626152 0.0760492235 0.000801151502
v 0.00806601252 0.0768316537 0.00431306381
v 0.00923337042 0.0767735764 0.0048623574
v 0.0323969275 0.117164962 0.0130342338
v 0.00741664274 0.0887794048 0.000443378027
v 0.00788891781 0.0877378955 0.000442271965
v 0.00574225001 0.074078083 0.00118916656
v 0.00560712069 0.0742960647 0.00387960649
v 0.0297200438 0.119451411 0.0252860673
v 0.0299302414 0.118631184 0.0243047234
v 0.0301930904 0.119990833 0.0243655555
v 0.00106637017 0.0699315369 0.0294746459
v 0.0329917036 0.120263018 0.0127764046
v 0.0225931238 0.123011619 0.0220753234
v 0.00875300728 0.085975565 0.0049051214
v 0.0214154869 0.0766871721 0.0325104631
v 0.0225222092 0.0768606067 0.0324302316
v 0.0107715009 0.0864767879 0.00492086727
v 0.0242181607 0.0721057802 0.00510113221
v -0.000190058418 0.102625735 0.0322451033
v 0.0253613871 0.0727567449 0.033015307
v 0.0066935732 0.105666012 0.0275613125
v 0.0244559422 0.0716499686 -0.000120466764
v 0.0160253495 0.120362282 0.00739923771
v 0.0223848335 0.0778576061 0.0281645656
v 0.0073196562 0.0902635306 0.0280393995
v 0.00488136429 0.0773039162 0.0279875342
v 0.00634165853 0.105421394 0.00559976697
v 0.0148315113 0.113237165 0.00518692425
v 0.0161716547 0.112462752 0.00496526435
v 0.0215560533 0.0727040842 0.00485886028
v 0.000793021405 0.103772782 -8.03053408e-05
v 0.00795344915 0.0902338177 0.000940660597
v 0.0225823019 0.0729961991 0.000293417688
v 0.0210915878 0.0733739585 0.00036698184
v 0.0217840299 0.0731802657 0.00410558004
v 0.0232426748 0.0732588992 0.00415021414
v 0.0105667105 0.0905782506 0.0284328256
v 0.0116904303 0.087466687 0.0279875435
v 0.0170787182 0.125371858 0.0243945159
v 0.0331220292 0.124199182 0.00644170027
v 0.0199268777 0.105483361 0.0270396676
v 0.0254505184 0.0748772696 0.0280683227
v 0.000722232042 0.07092686 0.0280710049
v 0.0199518129 0.0758073553 0.0046080309
v 0.0209778249 0.0763211474 0.00418646587
v 0.0206156969 0.07553038 0.00350021012
v 0.0206773244 0.0746379569 0.00319808302
v 0.0201585609 0.0739222243 0.00457427977
v 0.0212338287 0.0763042197 0.00140818115
v 0.020725105 0.0754664317 0.00121700356
v 0.0204953179 0.0743396729 0.000711548375
v 0.0213483404 0.0766663328 0.000635317178
v 0.0210154038 0.0738545731 0.0031235842
v 0.0292151961 0.0701714829 0.00247915182
v 0.0298981853 0.105115063 0.0263182838
v 0.0292142332 0.104965612 0.0276533384
v 0.0294574313 0.105530769 0.0265933201
v 0.0198828075 0.0749852359 0.000226631149
v 0.0252885185 0.0745938569 2.18901787e-05
v 0.0236899406 0.073724471 0.000619593891
v 0.024137659 0.0734707266 0.0325713679
v 0.0225651264 0.0730999559 0.0323872603
v 0.023577746 0.0735342503 0.0315637402
v 0.0242324788 0.0745313391 0.0321648344
v 0.0249087792 0.0750600249 0.0327876061
v 0.0227030292 0.0726443529 0.0329113528
v 0.0208278093 0.073190026 0.0329909995
v 0.0238194503 0.0738609061 0.0289822891
v 0.0229091551 0.0731067061 0.0285404176
v 0.0242184289 0.074640885 0.0287830345
v 0.0240294263 0.075543195 0.0291862097
v 0.0237439126 0.0762305483 0.0319068953
v 0.0239837207 0.0767862722 0.0327291898
v 0.00790916476 0.0871028528 0.0327185504
v 0.00715031289 0.089314118 0.0327406935
v 0.00749588897 0.0891494974 0.0319827609
v 0.00785473268 0.0879403129 0.0319560505
v 0.00873676874 0.0872147381 0.0318910815
v 0.00754350238 0.0883429945 0.0283652637
v 0.0085839089 0.0872459263 0.0287514124
v 0.0102819623 0.0873132348 0.032267984
v 0.0100609725 0.087220937 0.0285869632
v 0.020470975 0.0745341852 0.0322861262
v 0.0207079761 0.0759172514 0.0319993533
v 0.0206169579 0.0759072229 0.0284957234
v 0.0200572293 0.0754249692 0.0328110494
v 0.0214882772 0.0766587332 0.0287279915
v 0.0211261082 0.0735306665 0.0322967544
v 0.0214836244 0.0732927173 0.0287018139
v 0.00514684385 0.0764808282 0.0328854732
v 0.00553322351 0.0741483346 0.0324180946
v 0.00610489259 0.0766059607 0.0323912166
v 0.0079375701 0.0768780038 0.0322100595
v 0.00551040145 0.0753628835 0.0320383757
v 0.00655272789 0.0734309629 0.032253515
v 0.00564122805 0.0749347508 0.0292848349
v 0.0058399234 0.0760644823 0.0292551462
v 0.00599803636 0.0737661794 0.0291108619
v 0.00909564085 0.0742091686 0.0292089637
v 0.0178964548 0.118291333 0.0228785668
v 0.018107757 0.119191952 0.0201428235
v 0.0188012924 0.11993777 0.0214075726
v 0.0176671799 0.118626349 0.0210805386
v 0.0180190597 0.120252445 0.0192849971
v 0.0160780419 0.118701138 0.023268329
v 0.0160656031 0.11919713 0.0206375699
v 0.0188181512 0.119733959 0.0232786313
v 0.0192599464 0.119722828 0.0222062115
v 0.0218257476 0.119561404 0.0237336736
v 0.0190309398 0.120436095 0.0242746696
v 0.0176548325 0.118713342 0.0241711754
v 0.0147953536 0.115219451 0.0254697669
v 0.015502736 0.118549667 0.0216971654
v 0.0185071006 0.12099456 0.00697599165
v 0.0187775325 0.122470282 0.00702239107
v 0.0170580782 0.123916142 0.0073223263
v 0.0190791115 0.12431255 0.00802369043
v 0.0190370474 0.120784096 0.00859552901
v 0.0194030385 0.12269967 0.00872729998
v 0.0186203271 0.119721457 0.00911921263
v 0.0181373935 0.1189854 0.00859371759
v 0.0196111314 0.121867947 0.00850501284
v 0.0191571508 0.119732916 0.00972875301
v 0.0175261348 0.118891396 0.00845533237
v 0.0159952343 0.1188614 0.00900913402
v 0.0194343459 0.123464949 0.012311724
v 0.0188304409 0.123033032 0.0138834808
v 0.0192120541 0.121563345 0.0126536712
v 0.019847665 0.12286038 0.012168766
v 0.0182523187 0.119992107 0.0134194568
v 0.0180673543 0.121466853 0.0140918745
v 0.0189364217 0.120489232 0.0122824805
v 0.022294458 0.12032979 0.0123498971
v 0.0228255186 0.121917471 0.0124067916
v 0.0227650125 0.119700164 0.0124776131
v 0.0229785033 0.122747339 0.0116764484
v 0.02024059 0.123601921 0.0105497744
v 0.0228950698 0.123085491 0.0101978667
v 0.0195961967 0.123664863 0.00977342296
v 0.0193617325 0.125236735 0.0102139497
v 0.0193423331 0.125171274 0.0115373489
v 0.0176452193 0.127901211 0.00665774522
v 0.0169046763 0.126148522 0.0083161816
v 0.0172020849 0.125409454 0.00862031709
v 0.0170452446 0.125852346 0.0127364993
v 0.0172311272 0.125786334 0.0104890158
v 0.032816723 0.120543942 0.00925372262
v 0.032851316 0.121022679 0.0107318098
v 0.030218184 0.120658837 0.00880663842
v 0.0305173509 0.121388704 0.00975011196
v 0.0325341299 0.120464295 0.0120013794
v 0.0305563454 0.121066354 0.0119574107
v 0.0328597724 0.121069804 0.0218648724
v 0.0328722484 0.120166555 0.0201569069
v 0.0325127356 0.120199353 0.0207682159
v 0.0314919353 0.120421834 0.0209797546
v 0.0317531526 0.120991096 0.0221634656
v 0.0324874744 0.120756216 0.0232419521
v 0.0320032276 0.118982516 0.0205450095
v 0.0304397475 0.121162549 0.0209768061
v 0.0307119563 0.121439256 0.0225611478
v 0.0303232465 0.121277034 0.0237030331
v 0.0336241275 0.124792762 0.025962919
v 0.022491822 0.120219305 0.0246257037
v 0.0230129641 0.121905982 0.0245991722
v 0.0236246679 0.123304121 0.0238504391
v 0.023159042 0.122667499 0.00931200851
v 0.0235982686 0.123328075 0.00900818035
v 0.0322157778 0.117448546 0.0116960108
v 0.0319255255 0.116977789 0.0104961088
v 0.0323966332 0.118926935 0.0125697106
v 0.0300214645 0.11925339 0.0126038855
v 0.0299059041 0.118034787 0.0116218617
v 0.0296824276 0.117582612 0.0104019521
v 0.0166422576 0.123521894 0.0191228669
v 0.0160011202 0.12131273 0.0179161727
v 0.0170907937 0.12537618 0.0209261514
v 0.016968077 0.126510337 0.0235575661
v 0.0172807388 0.12580888 0.0228496715
v 0.0183593351 0.1235153 0.0192272868
v 0.0164367389 0.121984601 0.0188928936
v 0.0165531766 0.123857938 0.0145206889
v 0.0164722521 0.122410148 0.0141381063
v 0.0229166485 0.0725634992 0.0280911811
v 0.0236936603 0.0765831247 0.028556766
v 0.0225095768 0.0768058002 0.0289006066
v 0.0234655533 0.0762951225 0.0300148875
v 0.0205790494 0.0744065046 0.0286160465
v 0.0207776576 0.0732880458 0.0281204078
v 0.0197034534 0.0763296261 0.0280507151
v 0.0297850873 0.0708187744 0.0321519524
v 0.029994702 0.0719878748 0.0298078805
v 0.0102613689 0.0912654027 0.0280458704
v 0.00930331182 0.092139937 7.24461643e-05
v 0.00923425891 0.0909115002 0.00124838506
v 0.0100596882 0.0909248069 0.000621188548
v 0.00855573174 0.0906496793 0.00369956903
v 0.0100544421 0.0907269344 0.00393151958
v 0.0110653369 0.0898789167 0.000937536766
v 0.0110696023 0.0898356363 0.00422904873
v -7.1614515e-05 0.070915997 0.000942580285
v 0.00116093375 0.0707964227 0.0049701808
v 0.00401113974 0.0742662624 0.00505726691
v 0.0206822176 0.111927323 0.0050871186
v 0.00646050461 0.0773821324 0.000187662183
v 0.00532963453 0.0755237713 0.000588496274
v 0.0110391779 0.0870647058 0.000265345821
v 0.0111452918 0.0883878693 0.00108672457
v 0.0103522902 0.0875313208 0.00141180505
v 0.00912410486 0.0871435329 0.00104009907
v 0.0089772949 0.0867462829 0.000261356297
v 0.0111374343 0.0883498937 0.00383076677
v 0.00925611146 0.0871604681 0.0037618042
v 0.0104874158 0.0872337222 0.00436359737
v 0.0242603291 0.0734664351 0.00482150773
v 0.0207116678 0.111949511 0.0278423987
v 0.0211908482 0.111618832 0.0268272515
v 0.0196005087 0.105547592 0.027890468
v 0.0207289308 0.112358086 0.0267500766
v 0.0150890565 0.112632774 0.0280383676
v 0.0144972056 0.113577902 0.0267409384
v 0.00560729578 0.073585175 0.0281411204
v 0.00529453019 0.0760036483 0.0283184536
v 8.87663628e-05 0.0704699382 0.031491518
v 0.029709436 0.104419574 0.00587165402
v 0.0300329924 0.105841495 0.00726624904
v 0.0293094143 0.104891717 0.00569807971
v 0.0280892793 0.105092309 0.00551205501
v 0.0318953395 0.117812678 0.0208819229
v 0.0159921013 0.120213419 0.0195323266
v 0.0150292339 0.113849312 0.026573021
v 0.00920603145 0.0757617578 0.00434948131
v 0.00756918872 0.0773075223 0.0282588098
v 0.00902550016 0.076271601 0.0283807497
v 0.00690814899 0.0768473148 0.0291615631
v 0.00817721244 0.0767107829 0.0292621385
v 0.00902379584 0.076129131 0.0325310268
v 0.00916913524 0.0755558684 0.0293745864
v 0.00954023004 0.0744399428 0.0282893386
v 0.0187531542 0.124343179 0.0132052014
v 0.0173318516 0.125388071 0.0120275775
v 0.0170788281 0.124125585 0.0135407839
v 0.0299379583 0.100202829 0.00421535317
v 0.0272020549 0.105359294 0.00666423468
v 0.0227755886 0.121499598 0.00846451893
v 0.023033496 0.120859496 0.00794754084
v 0.0102309203 0.0759747475 0.0330309942
v 0.0227162801 0.120179139 0.0201521777
v 0.022267092 0.119325116 0.0213659555
v 0.0218952168 0.120154783 0.0206991117
v 0.0221330877 0.121304385 0.0204852745
v 0.0232598484 0.122819871 0.0207115766
v 0.0223462638 0.122399054 0.0209632497
v 0.0190355554 0.120901525 0.0204385817
v 0.0179035384 0.118348323 0.0111849681
v 0.0187670514 0.11976321 0.0113515183
v 0.0224201325 0.119391151 0.00909103453
v 0.0220906995 0.119321145 0.0114498138
v 0.0222104043 0.118928507 0.0103359073
v 0.0110845082 0.0881020948 0.0283581894
v 0.0115100397 0.0897199959 0.0282148812
v 0.01127104 0.089326635 0.028885955
v 0.0322244465 0.116478242 0.0225517824
v 0.0324579664 0.117612764 0.0205035117
v 0.0318174437 0.117164969 0.021837946
v 0.0316951498 0.117108241 0.0231522322
v 0.0296155456 0.117417499 0.022952212
v 0.00849213451 0.0872502327 0.004269836
v 0.0114753684 0.0885800123 0.0045698504
v 0.0289143156 0.104939848 0.0325404443
v 0.0161332283 0.118802577 0.0114411311
v 0.016052315 0.119707018 0.0131663922
v 0.0156198982 0.118536696 0.00961788278
v 0.0163368788 0.120898932 0.0138979033
v 0.0224966072 0.120111093 0.00856124889
v 0.0311846174 0.124799259 0.00653068209
v 0.00529146846 0.0740249157 0.00478404807
v 0.00960482471 0.0759706274 0.000158556446
v 0.0113377813 0.0892229751 0.032421194
v 0.0110524092 0.088120684 0.0321078375
v 0.023214031 0.125797331 0.00646018563
g 
f 8 6 10 9
f 13 14 15
f 23 26 24
f 23 25 27
f 31 34 33
f 34 2 33
f 34 35 2
f 44 46 45
f 44 48 47 36
f 44 36 37
f 52 55 54
f 52 53 55
f 58 61 60
f 60 61 62
f 63 65 64
f 65 66 64
f 30 4 69
f 30 68 4
f 73 75 74
f 83 84 86
f 79 87 80
f 79 78 87
f 89 90 91
f 89 91 92
f 56 95 93
f 96 42 43
f 98 100 101
f 98 99 100
f 100 99 103
f 106 107 105
f 109 110 112
f 110 113 112
f 114 116 115
f 114 115 118 117
f 115 116 119
f 120 123 122
f 121 125 124
f 121 126 120
f 52 41 131
f 52 131 53
f 131 41 39
f 134 133 136
f 134 136 137 135
f 148 149 150
f 155 97 84
f 84 97 86
f 86 96 83
f 156 160 159
f 94 93 163
f 103 165 100
f 103 164 165
f 166 91 167
f 99 98 170
f 171 173 172
f 171 172 169
f 173 174 172
f 124 125 127
f 66 57 64
f 130 179 178
f 130 128 179
f 180 130 178
f 180 181 130
f 180 178 182
f 40 85 43
f 186 188 187
f 186 189 190 188
f 187 191 186
f 176 193 175
f 175 194 127
f 175 193 194
f 195 197 196
f 195 198 197
f 202 204 201
f 201 204 203
f 127 125 175
f 175 205 176
f 205 206 176
f 70 71 210
f 211 3 4
f 211 212 3
f 211 213 59
f 78 79 215
f 216 90 78
f 90 216 167
f 90 167 91
f 79 47 215
f 217 70 153
f 218 50 118
f 33 221 220
f 216 78 215
f 78 222 87
f 78 90 223
f 78 223 222
f 87 224 80
f 226 228 227
f 226 230 229
f 226 232 231
f 226 227 232
f 234 237 236 235
f 234 8 238
f 234 238 237
f 239 9 10
f 239 241 242 240
f 248 250 249
f 165 251 100
f 100 251 102
f 102 251 252
f 253 256 255
f 256 51 255
f 166 258 257
f 159 55 261
f 159 261 260
f 143 264 144
f 135 137 138
f 138 137 139
f 66 265 57
f 99 170 269
f 74 270 73
f 74 225 67
f 272 274 275
f 276 184 277
f 184 278 277
f 16 17 18
f 183 21 22
f 183 22 282
f 283 285 93
f 283 284 286
f 283 286 285
f 284 181 287
f 287 181 180 288
f 181 129 128
f 181 128 130
f 55 53 261
f 254 158 293
f 158 161 157
f 114 295 116
f 114 117 281
f 295 296 116
f 295 297 296
f 138 298 262
f 299 144 301
f 299 300 140
f 140 300 302
f 108 57 56
f 161 303 157
f 161 255 303
f 305 83 85
f 93 94 283
f 268 307 267 183
f 268 264 310
f 268 310 307
f 264 268 144
f 311 25 312
f 311 312 123
f 296 280 116
f 64 57 315
f 64 315 316
f 149 148 209
f 93 285 317
f 153 81 189
f 153 189 217
f 318 320 319
f 318 319 77
f 320 318 321
f 323 1 17
f 17 324 323
f 71 328 29
f 325 330 329 82
f 220 31 33
f 220 32 31
f 220 51 32
f 244 246 245
f 245 246 332
f 246 247 332
f 208 101 102
f 101 100 102
f 101 170 98
f 67 225 334
f 75 225 74
f 161 158 254
f 161 254 253 255
f 168 105 107
f 337 24 338
f 337 339 168
f 168 339 105
f 339 340 105
f 341 257 258
f 342 343 344
f 233 346 345
f 347 152 348
f 348 350 349
f 123 120 126
f 282 341 258
f 351 99 169
f 304 51 352
f 273 30 214
f 4 68 211
f 3 174 173
f 172 354 169
f 273 279 272
f 214 3 173
f 3 214 69
f 210 71 29
f 214 30 69
f 105 104 106
f 355 356 40
f 355 292 306
f 355 185 292
f 355 40 185
f 292 52 54
f 19 21 357
f 21 358 357
f 157 156 293 158
f 319 320 360
f 359 76 77
f 359 77 319
f 91 166 92
f 228 362 361
f 361 227 228
f 289 290 365
f 96 86 42
f 125 121 333
f 366 367 22
f 366 368 367
f 22 184 276
f 66 154 37
f 370 372 371
f 374 142 65
f 126 121 124
f 198 375 376
f 375 377 376
f 62 54 55
f 40 356 85
f 378 379 380
f 378 380 381
f 380 358 381
f 380 357 358
f 382 384 383
f 383 384 386
f 76 152 77
f 209 148 151
f 202 199 387
f 304 255 51
f 43 42 40
f 312 25 336
f 80 88 79
f 298 138 139
f 298 391 390
f 107 392 168
f 104 322 248
f 312 147 123
f 147 312 145
f 393 394 396 395
f 88 49 36
f 36 49 37
f 33 334 221
f 334 33 219
f 47 79 88
f 47 88 36
f 146 371 145
f 288 180 182
f 284 129 181
f 101 208 207
f 68 29 328
f 28 68 30
f 29 399 210
f 29 28 353 399
f 211 59 212
f 213 58 59
f 273 214 173
f 273 173 279
f 213 306 61
f 140 141 299
f 298 402 262
f 83 96 43
f 16 18 155
f 403 74 155 84
f 403 84 83
f 272 353 273
f 276 277 257
f 184 275 278
f 278 275 274
f 278 274 404
f 274 272 279
f 277 92 257
f 257 92 166
f 50 117 118
f 37 38 66
f 37 259 38
f 33 1 219
f 147 335 123
f 335 113 123
f 83 43 85
f 317 408 108
f 317 56 93
f 317 108 56
f 155 18 409
f 320 321 410
f 159 233 411
f 159 160 413
f 222 414 169
f 222 169 269
f 169 99 269
f 258 415 282
f 215 47 48
f 390 402 298
f 416 417 418
f 390 419 416
f 419 405 416
f 219 420 16
f 67 219 16
f 233 345 411
f 299 141 143
f 299 143 144
f 143 141 423
f 143 423 310 264
f 141 140 421
f 139 391 298
f 136 133 424
f 134 346 233
f 134 138 263
f 134 263 346
f 340 322 104
f 208 149 207
f 113 335 112
f 230 226 231
f 18 425 426
f 57 294 50
f 50 218 57
f 56 218 95
f 56 57 218
f 95 427 163
f 296 314 339 280
f 12 430 11
f 33 2 1
f 74 16 155
f 61 58 213
f 69 4 3
f 49 294 259
f 274 279 404
f 29 68 28
f 26 431 280
f 49 50 294
f 433 435 434
f 433 120 436 435
f 120 433 121
f 94 162 283
f 162 129 284
f 428 182 19
f 428 19 357
f 157 60 156
f 437 438 13
f 365 238 8 440
f 238 365 439
f 15 437 13
f 437 15 289 365
f 182 178 19
f 313 394 314
f 313 314 296
f 294 57 265
f 416 405 417
f 417 443 418
f 417 444 443
f 390 391 419
f 374 422 142
f 302 447 142 140
f 141 448 423
f 141 421 448
f 421 422 449 448
f 449 422 450
f 452 453 391 139
f 452 139 137
f 453 454 451 391
f 134 135 138
f 421 140 422
f 140 142 422
f 255 455 303
f 170 101 456
f 40 39 185
f 185 39 292
f 39 41 292
f 163 93 95
f 65 458 457
f 61 54 62
f 5 6 234
f 234 235 5
f 6 8 234
f 268 308 376
f 376 144 268
f 239 240 9
f 147 459 335
f 123 126 311
f 371 459 147
f 371 147 145
f 336 25 23
f 442 460 72
f 361 461 227
f 60 157 303
f 327 1 323
f 219 1 327
f 80 224 88
f 351 164 99
f 164 103 99
f 333 110 111
f 111 110 109
f 20 275 184
f 366 22 276
f 366 276 463 368
f 283 162 284
f 82 189 81
f 97 454 86
f 86 454 42
f 155 409 464
f 18 426 409
f 244 466 465
f 467 465 466
f 467 469 468
f 466 244 245
f 247 470 332
f 247 471 470
f 191 369 192
f 369 370 146 192
f 370 371 146
f 199 200 387
f 199 202 201
f 277 278 92
f 169 354 462 351
f 462 164 351
f 167 473 166
f 167 216 474 473
f 92 278 89
f 67 16 74
f 151 148 152
f 314 397 475
f 314 475 339
f 90 89 223
f 187 369 191
f 16 324 17
f 16 331 324
f 476 461 361
f 476 235 236 461
f 476 477 235
f 477 5 235
f 477 478 5
f 24 337 168
f 152 76 151
f 395 209 76
f 20 184 22
f 20 19 479
f 479 275 20
f 19 20 22 21
f 394 397 314
f 397 394 446
f 171 169 414
f 171 414 279 173
f 350 348 442
f 352 51 220 221
f 338 24 26
f 353 30 273
f 30 353 28
f 68 213 211
f 68 306 213
f 271 72 73 270
f 292 41 52
f 210 480 70
f 151 76 209
f 176 206 81
f 206 481 81
f 306 54 61
f 183 282 482
f 282 429 482
f 183 267 21
f 21 267 358
f 105 340 104
f 339 483 340
f 340 483 484 322
f 291 486 485
f 289 388 290
f 15 388 289
f 439 290 238
f 290 487 237 238
f 243 242 241
f 132 424 133
f 132 131 424
f 244 490 489 246
f 190 491 494
f 206 497 496
f 206 495 497
f 497 498 496
f 12 499 249
f 112 500 109
f 112 501 500
f 328 71 401
f 243 488 242
f 243 406 488
f 488 406 502
f 503 72 271
f 323 324 504
f 218 118 95
f 260 233 159
f 165 164 505
f 384 382 506
f 322 507 248
f 508 509 510
f 508 510 512 511
f 379 515 514 513
f 379 378 515
f 513 514 517 516
f 51 518 32
f 518 51 256
f 49 259 37
f 8 9 440
f 410 360 320
f 276 257 342
f 287 522 284
f 284 522 286
f 507 322 524 523
f 390 416 34 525
f 390 525 402
f 349 350 445
f 85 356 401
f 356 355 401
f 60 303 58
f 142 45 65
f 65 45 458
f 458 526 527
f 345 346 441
f 345 441 529 528
f 357 380 531
f 532 534 533 195
f 195 196 532
f 331 16 535
f 66 177 154
f 447 45 142
f 178 479 19
f 178 179 479
f 290 291 487
f 63 64 316
f 376 308 198
f 206 496 481
f 460 73 72
f 509 537 538
f 429 539 482
f 397 446 475
f 81 540 82
f 343 541 344
f 195 533 198
f 533 543 544
f 313 296 297
f 199 326 200
f 307 309 267
f 545 547 546
f 3 212 174
f 263 138 548
f 325 82 549
f 493 494 491
f 550 363 228 226
f 361 362 364
f 222 269 87
f 341 342 257
f 419 17 405
f 17 425 18
f 361 364 476
f 102 252 208
f 208 252 150 149
f 121 433 333
f 300 299 301
f 422 374 450
f 426 552 553
f 282 551 341
f 12 249 430
f 26 280 338
f 24 168 503
f 468 490 467
f 310 555 307
f 475 484 483
f 462 455 556
f 452 137 453
f 451 97 557
f 348 152 558
f 25 311 27
f 131 39 136
f 326 330 325
f 38 541 542
f 305 85 70 400
f 285 286 450
f 285 450 559 317
f 35 34 416
f 247 560 471
f 57 108 315
f 294 265 432
f 371 372 545
f 219 67 334
f 293 156 563
f 395 564 209
f 395 396 564
f 76 359 395
f 394 393 565
f 394 565 566
f 435 436 498
f 493 491 546 547
f 155 464 97
f 221 556 352
f 307 555 567
f 395 359 393
f 49 568 50
f 50 568 117
f 117 568 281
f 510 509 538
f 570 63 571
f 570 571 572
f 570 572 573
f 572 567 573
f 382 574 385
f 55 575 373
f 55 373 62
f 70 401 71
f 461 236 576 227
f 175 577 205
f 66 266 265
f 268 183 482 308
f 442 72 392
f 131 579 53
f 293 580 254
f 293 441 580
f 441 346 580
f 346 263 580
f 365 290 439
f 300 301 302
f 526 534 532 527
f 429 510 538
f 429 282 415
f 429 415 510
f 581 583 582
f 581 585 584 583
f 581 309 585
f 581 381 267 309
f 581 582 381
f 582 586 378
f 582 583 587 586
f 582 378 381
f 587 583 584
f 587 584 588
f 586 589 378
f 585 590 584
f 585 572 590
f 585 567 572
f 585 309 307 567
f 381 358 267
f 423 287 288
f 423 288 182
f 522 287 423 591
f 448 591 423
f 423 182 310
f 182 555 310
f 182 428 555
f 114 456 295
f 295 456 207
f 224 456 281
f 224 281 568
f 456 114 281
f 224 269 170
f 224 170 456
f 101 207 456
f 269 224 87
f 224 568 88
f 88 568 49
f 592 400 70 217
f 592 594 593 400
f 592 217 189
f 592 189 186 594
f 186 191 594
f 336 192 145
f 336 594 192
f 336 503 593
f 336 593 594
f 503 271 593
f 146 145 192
f 192 594 191
f 316 315 589
f 316 589 595
f 589 586 587 595
f 378 589 515
f 515 589 315
f 517 408 596
f 517 514 408
f 517 596 597
f 514 515 315 408
f 315 108 408
f 598 600 599
f 598 601 600
f 598 557 602 601
f 598 599 603 557
f 451 557 603
f 451 604 419
f 451 603 604
f 451 419 391
f 600 606 599
f 600 601 607 605
f 606 600 605
f 601 608 607
f 601 609 608
f 601 602 609
f 602 557 464
f 464 610 602
f 557 97 464
f 323 611 327
f 611 612 327
f 611 614 613 612
f 611 615 614
f 612 420 327
f 612 384 420
f 612 613 384
f 614 616 613
f 614 615 617
f 613 616 386
f 617 616 614
f 611 618 615
f 611 323 618
f 615 618 619
f 618 323 504
f 620 622 621
f 623 620 621
f 623 426 425
f 623 552 426
f 623 621 552
f 621 624 552
f 604 603 599 625
f 625 620 623 604
f 623 425 604
f 425 17 419
f 425 419 604
f 35 628 627 2
f 629 412 2 627
f 629 630 412
f 627 631 629
f 418 632 628 35
f 418 443 632
f 418 35 416
f 628 631 627
f 631 634 629
f 631 628 635 633
f 628 632 635
f 632 529 635
f 632 443 529
f 443 444 636 528
f 637 639 638
f 637 638 640
f 640 643 642 637
f 640 638 643
f 644 645 639
f 644 647 646
f 644 639 637
f 637 477 644
f 477 647 644
f 477 637 648
f 648 642 478
f 648 478 477
f 648 637 642
f 7 478 642
f 7 642 650
f 643 650 642
f 651 652 471
f 652 653 471
f 471 653 470
f 653 652 654
f 655 656 652
f 655 652 651
f 655 651 658 657
f 655 659 656
f 657 660 655
f 651 661 658
f 560 662 661
f 560 661 651
f 651 471 560
f 560 247 472
f 663 665 664
f 663 666 665
f 664 665 667
f 664 667 668
f 665 669 667
f 665 670 669
f 665 671 670
f 670 671 430
f 670 430 672
f 665 666 673 671
f 671 11 430
f 671 673 11
f 666 674 673
f 666 663 674
f 673 674 675
f 676 674 663
f 676 663 677
f 676 677 654
f 663 664 678
f 332 470 679
f 470 680 679
f 388 679 486
f 388 291 290
f 291 388 486
f 680 486 679
f 680 470 681
f 681 470 653
f 486 680 682
f 680 683 682
f 684 495 325 685
f 684 497 495
f 686 684 687
f 435 686 434
f 497 684 686
f 497 686 435
f 497 435 498
f 687 389 434
f 687 434 686
f 684 685 687
f 685 549 688
f 685 325 549
f 685 689 687
f 495 200 325
f 495 205 200
f 205 387 200
f 205 495 206
f 690 691 330
f 690 692 691
f 690 694 693 692
f 690 695 694
f 690 330 494 695
f 330 326 494
f 330 691 329
f 691 692 696
f 692 693 696
f 697 500 693
f 697 693 694 698
f 697 109 500
f 697 698 109
f 693 500 696
f 694 695 698
f 698 699 109
f 109 699 111
f 494 493 695
f 695 493 699 698
f 190 494 326
f 190 326 188
f 326 199 700
f 701 362 702
f 701 242 646
f 701 702 242
f 702 703 242
f 702 363 703
f 702 362 363
f 362 701 364
f 701 647 364
f 701 646 647
f 242 488 646
f 488 502 646
f 646 502 644
f 249 672 430
f 673 675 11
f 704 705 11
f 704 11 675
f 11 705 469
f 706 481 707
f 706 540 481
f 706 708 540
f 706 707 710 709
f 706 709 708
f 122 709 710
f 122 710 711
f 122 113 709
f 711 120 122
f 711 436 120
f 710 707 711
f 122 123 113
f 711 707 496 436
f 496 498 436
f 280 339 338
f 339 475 483
f 338 339 337
f 487 713 712
f 487 712 714
f 487 485 713
f 714 715 487
f 714 716 715
f 714 712 717
f 485 719 713
f 719 682 720
f 719 485 486
f 719 486 682
f 291 485 487
f 579 131 132
f 579 607 398
f 579 606 605 607
f 579 132 721 606
f 579 398 53
f 398 608 722
f 398 722 561 53
f 722 724 723
f 722 723 561
f 722 608 724
f 398 607 608
f 721 132 133
f 590 571 588 584
f 590 572 571
f 625 626 725 620
f 626 721 726
f 626 726 725
f 726 133 260
f 726 721 133
f 625 599 606 626
f 725 726 727
f 626 606 721
f 454 453 728
f 137 728 453
f 454 97 451
f 42 728 729
f 42 454 728
f 42 729 40
f 729 136 39 40
f 729 728 136
f 728 137 136
f 286 522 449 450
f 522 591 449
f 591 448 449
f 562 616 160
f 562 386 616
f 562 60 62
f 62 730 562
f 562 730 383
f 562 160 60
f 160 156 60
f 413 160 616
f 413 617 619
f 413 616 617
f 383 386 562
f 730 382 383
f 730 574 382
f 259 731 519
f 519 732 569
f 519 733 732
f 519 731 733
f 519 38 259
f 731 259 294
f 519 569 541
f 519 541 38
f 569 732 734
f 734 732 735
f 732 733 735
f 432 736 733 731
f 432 731 294
f 733 736 737 735
f 334 505 221
f 334 225 75 505
f 505 556 221
f 556 505 462
f 462 505 164
f 556 304 352
f 251 165 505
f 251 73 252
f 251 505 75
f 251 75 73
f 48 447 302 738
f 473 301 739
f 473 474 738
f 473 738 302 301
f 738 474 215
f 738 215 48
f 474 216 215
f 473 739 166
f 739 377 166
f 739 301 144 376
f 739 376 377
f 484 475 741
f 524 322 484
f 524 484 490
f 484 741 490
f 490 741 565
f 524 468 523
f 524 490 468
f 490 465 467
f 244 465 490
f 46 154 742
f 46 742 743
f 46 44 37 154
f 742 508 511 743
f 742 509 508
f 265 266 744
f 744 746 745
f 744 748 747 746
f 744 266 748
f 265 744 432
f 744 745 432
f 432 745 736
f 746 749 745
f 746 747 750
f 746 750 751
f 746 751 749
f 748 542 747
f 748 38 542
f 748 266 38
f 379 513 531 380
f 531 428 357
f 531 513 516
f 428 531 752
f 428 752 555
f 752 531 516
f 752 516 573
f 516 597 573
f 573 567 752
f 516 517 597
f 401 355 306
f 401 306 68
f 306 292 54
f 401 70 85
f 401 68 328
f 578 754 755
f 578 106 754
f 754 756 753
f 754 243 241 756
f 753 755 754
f 753 445 755
f 757 445 753 347
f 757 349 445
f 753 756 347
f 347 756 758
f 756 241 10
f 565 489 490
f 566 565 741
f 566 741 475
f 566 475 446
f 529 759 635
f 759 760 633 635
f 441 759 529
f 529 443 528
f 759 441 293
f 408 317 596
f 239 10 241
f 243 754 406
f 406 754 248
f 248 754 106
f 106 104 248
f 525 548 262 402
f 525 32 761
f 525 34 32
f 548 138 262
f 263 256 580
f 548 761 263
f 548 525 761
f 761 32 518
f 761 518 256
f 263 761 256
f 32 34 31
f 372 370 203 333
f 372 333 111
f 370 369 187
f 372 111 545
f 201 203 370
f 700 187 326
f 199 201 700
f 187 700 201 370
f 326 187 188
f 540 708 549
f 708 688 549
f 709 689 708
f 688 708 689
f 389 113 110
f 689 709 113 389
f 707 481 496
f 481 540 81
f 762 480 520
f 762 193 763 480
f 762 764 194 193
f 520 119 764
f 520 764 762
f 119 520 427
f 119 427 95
f 119 431 764
f 764 431 765
f 431 26 765
f 431 116 280
f 431 119 116
f 119 95 115
f 95 118 115
f 500 501 696
f 696 501 766
f 478 7 5
f 7 649 5
f 7 650 321 649
f 767 713 650
f 767 650 643
f 713 321 650
f 588 571 63 595
f 588 595 587
f 595 63 316
f 559 65 63
f 559 374 65
f 63 570 559
f 349 757 348
f 348 757 347
f 347 758 152
f 758 649 318
f 758 768 649
f 758 77 152
f 77 758 318
f 758 10 768
f 392 755 350
f 392 578 755
f 392 350 442
f 350 755 445
f 578 392 107
f 578 107 106
f 392 503 168
f 503 392 72
f 198 308 197
f 197 308 539 769
f 197 536 196
f 197 769 536
f 769 537 536
f 539 538 769
f 539 429 538
f 769 538 537
f 539 308 482
f 555 752 567
f 573 597 570
f 411 771 770
f 411 407 159
f 411 770 407
f 770 563 407
f 770 773 772
f 770 771 773
f 770 772 634 760
f 770 760 563
f 760 759 563
f 760 634 633
f 159 407 563 156
f 772 630 629
f 772 629 634
f 773 630 772
f 773 775 774
f 773 771 775
f 775 771 776
f 771 411 776
f 677 663 678
f 664 777 678
f 683 681 677
f 683 677 678
f 678 778 683
f 683 778 682
f 677 681 654
f 682 778 779
f 678 777 778
f 778 777 779
f 664 720 779
f 664 779 777
f 779 720 682
f 520 480 780
f 480 210 780
f 480 763 70
f 763 153 70
f 176 763 193
f 763 176 81 153
f 765 194 764
f 765 781 194
f 781 26 27
f 781 765 26
f 781 27 311
f 194 781 127
f 736 745 749
f 736 749 737
f 715 237 487
f 715 716 576
f 715 576 237
f 576 236 237
f 776 636 775
f 776 528 636
f 776 345 528
f 776 411 345
f 636 444 775
f 775 444 774
f 564 297 207
f 564 313 297
f 564 396 313
f 396 394 313
f 209 564 207 149
f 207 297 295
f 414 404 279
f 414 89 278 404
f 414 223 89
f 414 222 223
f 704 656 782
f 782 783 705 704
f 704 675 674 676
f 704 676 656
f 782 656 659
f 705 783 468
f 12 11 469
f 705 468 469
f 12 469 467 13
f 774 630 773
f 412 630 774
f 417 774 444
f 417 412 774
f 417 784 412
f 412 784 1
f 784 417 405 17
f 785 249 499
f 785 406 249
f 785 786 406
f 785 787 786
f 785 788 787
f 785 499 789
f 785 789 788
f 789 790 788
f 789 550 790
f 249 406 248
f 406 786 502
f 645 502 786
f 645 644 502
f 639 791 530 638
f 786 787 791 639
f 786 639 645
f 787 788 229 791
f 638 530 641
f 530 791 230
f 230 791 229
f 788 790 229
f 242 440 240
f 499 438 703
f 703 438 242
f 242 438 440
f 703 789 499
f 703 363 550 789
f 228 363 362
f 793 667 669
f 792 667 793
f 793 657 792
f 793 660 657
f 792 658 661
f 792 657 658
f 793 669 795
f 795 669 670
f 793 796 660
f 793 795 796
f 159 413 575
f 797 575 619
f 797 799 798
f 797 798 373 575
f 575 413 619
f 575 55 159
f 619 618 797
f 619 617 615
f 440 438 437
f 240 440 9
f 440 437 365
f 189 82 800
f 800 82 801
f 801 766 802 800
f 800 802 803
f 800 492 190
f 800 803 492
f 803 802 804
f 804 545 546
f 804 459 545
f 804 546 803
f 803 546 492
f 802 501 804
f 802 766 501
f 804 501 112 459
f 112 335 459
f 696 766 801 691
f 801 329 691
f 82 329 801
f 551 342 341
f 551 554 805
f 554 751 750
f 554 750 805
f 751 554 806 749
f 554 551 282
f 367 368 737 806
f 806 554 367
f 367 282 22
f 554 282 367
f 219 327 420
f 506 420 384
f 384 613 386
f 506 535 420
f 305 403 83
f 807 403 305
f 403 270 74
f 305 400 593 807
f 270 807 271
f 270 403 807
f 271 807 593
f 808 809 792
f 808 810 521
f 808 521 809
f 792 809 667
f 809 811 667
f 809 521 811
f 521 810 472
f 667 811 668
f 668 811 720
f 668 720 664
f 811 521 720
f 521 719 720
f 719 521 713
f 521 321 713
f 521 410 321
f 410 521 472
f 647 476 364
f 647 477 476
f 794 796 507
f 794 507 783
f 523 783 507
f 783 812 794
f 250 795 670 672
f 250 796 795
f 248 507 250
f 796 250 507
f 660 796 794
f 794 812 655
f 660 794 655
f 655 812 782 659
f 783 782 812
f 783 523 468
f 27 26 23
f 311 127 781
f 124 127 311
f 124 311 126
f 649 321 318
f 649 768 5
f 768 6 5
f 768 10 6
f 758 756 10
f 136 424 131
f 254 580 256 253
f 2 412 1
f 810 662 560 472
f 661 662 792
f 792 662 808
f 808 662 810
f 360 410 472
f 360 472 247
f 561 723 624
f 561 261 53
f 561 624 727 261
f 727 624 622
f 727 260 261
f 727 622 725
f 622 624 621
f 622 620 725
f 552 624 723 553
f 723 724 553
f 460 442 150
f 150 252 460
f 150 348 558
f 150 442 348
f 73 460 252
f 150 558 148
f 152 148 558
f 438 12 13
f 438 499 12
f 229 790 550 226
f 638 641 767 643
f 389 687 689
f 389 110 434
f 689 685 688
f 596 570 597
f 596 559 570
f 596 317 559
f 559 450 374
f 45 447 44
f 447 48 44
f 45 46 526
f 699 547 545
f 699 545 111
f 699 493 547
f 326 325 200
f 540 549 82
f 189 800 190
f 492 491 190
f 492 546 491
f 387 205 577
f 813 333 204
f 813 204 387 577
f 387 204 202
f 204 333 203
f 359 360 489
f 359 489 565
f 393 359 565
f 246 489 360 247
f 360 359 319
f 526 46 743 543
f 526 543 534
f 543 743 511
f 526 458 45
f 533 534 543
f 543 511 544
f 676 654 656
f 656 654 652
f 371 545 459
f 718 530 717 712
f 530 718 767 641
f 530 230 717
f 718 712 713
f 718 713 767
f 714 717 231
f 231 717 230
f 231 716 714
f 231 232 716
f 232 227 576 716
f 399 353 479 179
f 399 780 210
f 399 179 780
f 179 128 780
f 129 780 128
f 129 162 780
f 479 272 275
f 272 479 353
f 162 520 780
f 162 94 520
f 427 520 94 163
f 672 249 250
f 566 446 394
f 342 551 343
f 551 805 343
f 805 750 542
f 805 542 343
f 542 750 747
f 542 541 343
f 544 814 533
f 814 375 533
f 814 740 375
f 512 415 740 814
f 512 510 415
f 512 814 544
f 544 511 512
f 375 198 533
f 377 375 740
f 740 166 377
f 737 749 806
f 735 737 368
f 527 532 196
f 527 457 458
f 527 196 536
f 457 527 815
f 65 457 177
f 815 527 536
f 815 536 537
f 457 815 177
f 553 724 609
f 610 553 609
f 610 609 602
f 610 409 426 553
f 610 464 409
f 609 724 608
f 463 276 342
f 463 344 734
f 463 342 344
f 463 734 735 368
f 569 734 344
f 344 541 569
f 66 38 266
f 509 815 537
f 509 742 177 815
f 66 65 177
f 177 742 154
f 293 563 759
f 633 634 631
f 17 1 784
f 726 260 727
f 260 133 233
f 233 133 134
f 535 385 816 331
f 504 324 331 816
f 504 816 817
f 504 817 618
f 816 385 574 799
f 799 797 817 816
f 817 797 618
f 798 730 373
f 798 799 574
f 798 574 730
f 385 506 382
f 506 385 535
f 535 16 420
f 373 730 62
f 174 212 172
f 354 212 59
f 354 172 212
f 354 455 462
f 354 59 303 455
f 556 455 304
f 304 455 255
f 58 303 59
f 433 434 333
f 333 813 125
f 333 434 110
f 415 258 740
f 740 258 166
f 467 466 818
f 467 14 13
f 14 467 679 388
f 388 15 14
f 467 818 332 679
f 466 245 332 818
f 336 23 24 503
f 336 145 312
f 813 175 125
f 175 813 577
f 653 654 681
f 681 683 680
