# File exported by Houdini 20.5.410 (www.sidefx.com)
# 184 points
# 368 vertices
# 184 primitives
# Bounds: [-0.0199999996, -0.200000003, 0] to [0.0199999996, 0.200000003, 0]
g 
v 0.0199999996 0 0
v 0.0199714825 -0.00435087364 0
v 0.0199429654 -0.00870174728 0
v 0.0199144483 -0.01305262 0
v 0.0198859312 -0.0174034946 0
v 0.0198574141 -0.0217543654 0
v 0.019828897 -0.02610524 0
v 0.0197438337 -0.0303816684 0
v 0.0196587704 -0.0346580967 0
v 0.0195737071 -0.0389345251 0
v 0.019488642 -0.0432109535 0
v 0.0194035787 -0.0474873781 0
v 0.0193185154 -0.0517638102 0
v 0.0191503298 -0.0567183867 0
v 0.0189821441 -0.0616729669 0
v 0.0188139603 -0.0666275397 0
v 0.0186457746 -0.0715821162 0
v 0.0184775889 -0.0765366927 0
v 0.018246172 -0.0812293589 0
v 0.018014757 -0.0859220177 0
v 0.0177833401 -0.0906146765 0
v 0.017551925 -0.0953073353 0
v 0.0173205081 -0.100000001 0
v 0.01702982 -0.104350455 0
v 0.0167391319 -0.108700916 0
v 0.0164484419 -0.11305137 0
v 0.0161577538 -0.117401831 0
v 0.0158670656 -0.121752284 0
v 0.0154358335 -0.126669556 0
v 0.0150046004 -0.13158682 0
v 0.0145733673 -0.136504099 0
v 0.0141421352 -0.141421363 0
v 0.013650408 -0.145733684 0
v 0.0131586809 -0.150046021 0
v 0.0126669547 -0.154358357 0
v 0.0121752275 -0.158670679 0
v 0.011450151 -0.163515478 0
v 0.0107250754 -0.168360293 0
v 0.00999999885 -0.173205093 0
v 0.00921788905 -0.17706202 0
v 0.00843577832 -0.180918977 0
v 0.00765366852 -0.184775904 0
v 0.00641502487 -0.188980535 0
v 0.00517638121 -0.193185166 0
v 0.00389345177 -0.195737064 0
v 0.00261052256 -0.198288977 0
v -8.74227746e-10 -0.200000003 0
v -0.00261052419 -0.198288977 0
v -0.00389345363 -0.195737064 0
v -0.00517638307 -0.193185166 0
v -0.00641502626 -0.188980535 0
v -0.00765366992 -0.184775904 0
v -0.00843577925 -0.180918962 0
v -0.00921789091 -0.17706202 0
v -0.0100000007 -0.173205078 0
v -0.0107250782 -0.168360263 0
v -0.011450151 -0.163515478 0
v -0.0121752284 -0.158670664 0
v -0.0126669556 -0.154358342 0
v -0.0131586818 -0.150046021 0
v -0.013650408 -0.145733684 0
v -0.0141421352 -0.141421363 0
v -0.0145733673 -0.136504099 0
v -0.0150046004 -0.13158682 0
v -0.0154358335 -0.126669556 0
v -0.0158670656 -0.121752284 0
v -0.0161577556 -0.117401816 0
v -0.0164484419 -0.113051385 0
v -0.0167391319 -0.108700916 0
v -0.0170298181 -0.104350485 0
v -0.0173205081 -0.100000016 0
v -0.017551925 -0.0953073278 0
v -0.0177833419 -0.0906146839 0
v -0.0180147588 -0.0859219879 0
v -0.0182461757 -0.081229344 0
v -0.0184775926 -0.0765366554 0
v -0.0186457783 -0.071582064 0
v -0.0188139621 -0.0666275173 0
v -0.0189821478 -0.0616729222 0
v -0.0191503316 -0.0567183793 0
v -0.0193185173 -0.0517637841 0
v -0.0194035806 -0.0474873707 0
v -0.0194886439 -0.0432109125 0
v -0.0195737071 -0.038934499 0
v -0.0196587704 -0.0346580893 0
v -0.0197438337 -0.0303816274 0
v -0.019828897 -0.0261052158 0
v -0.0198574141 -0.0217543598 0
v -0.0198859312 -0.0174034555 0
v -0.0199144483 -0.0130525995 0
v -0.0199429654 -0.00870174356 0
v -0.0199714825 -0.00435083918 0
v -0.0199999996 1.7484556e-08 0
v -0.0199714825 0.00435087364 0
v -0.0199429654 0.00870177988 0
v -0.0199144483 0.0130526358 0
v -0.0198859312 0.0174034908 0
v -0.0198574141 0.0217543971 0
v -0.019828897 0.026105253 0
v -0.0197438337 0.0303816646 0
v -0.0196587685 0.0346581228 0
v -0.0195737071 0.0389345326 0
v -0.0194886439 0.043210946 0
v -0.0194035787 0.0474874042 0
v -0.0193185154 0.0517638139 0
v -0.0191503298 0.0567184091 0
v -0.0189821459 0.061672952 0
v -0.0188139584 0.0666275471 0
v -0.0186457746 0.0715820938 0
v -0.0184775889 0.0765366852 0
v -0.018246172 0.0812293738 0
v -0.0180147551 0.0859220177 0
v -0.0177833382 0.0906147063 0
v -0.0175519213 0.0953073502 0
v -0.0173205044 0.100000039 0
v -0.0170298144 0.104350515 0
v -0.0167391282 0.108700946 0
v -0.01644844 0.113051414 0
v -0.0161577538 0.117401846 0
v -0.0158670638 0.121752322 0
v -0.0154358307 0.126669586 0
v -0.0150045976 0.13158685 0
v -0.0145733654 0.136504114 0
v -0.0141421324 0.141421378 0
v -0.0136504062 0.145733699 0
v -0.0131586809 0.150046021 0
v -0.0126669556 0.154358327 0
v -0.0121752294 0.158670649 0
v -0.011450151 0.163515478 0
v -0.0107250763 0.168360263 0
v -0.00999999791 0.173205093 0
v -0.00921788905 0.17706202 0
v -0.00843577087 0.180919006 0
v -0.00765366247 0.184775934 0
v -0.00641502067 0.18898055 0
v -0.00517637935 0.19318518 0
v -0.00389344897 0.195737079 0
v -0.00261051836 0.198288977 0
v 2.38497611e-10 0.200000003 0
v 0.00261052814 0.198288962 0
v 0.00389345409 0.195737064 0
v 0.00517638028 0.193185166 0
v 0.00641502626 0.18898052 0
v 0.00765367178 0.184775889 0
v 0.00843577739 0.180918977 0
v 0.00921789184 0.177062005 0
v 0.00999999791 0.173205093 0
v 0.0107250726 0.168360293 0
v 0.0114501556 0.163515449 0
v 0.0121752303 0.158670649 0
v 0.0126669575 0.154358312 0
v 0.0131586846 0.150045976 0
v 0.0136504127 0.14573364 0
v 0.0141421398 0.141421303 0
v 0.014573372 0.136504054 0
v 0.0150046032 0.13158679 0
v 0.0154358353 0.126669526 0
v 0.0158670675 0.121752277 0
v 0.0161577575 0.117401794 0
v 0.0164484475 0.113051318 0
v 0.0167391319 0.108700916 0
v 0.0170298219 0.10435044 0
v 0.0173205119 0.0999999568 0
v 0.0175519288 0.0953072831 0
v 0.0177833457 0.0906146094 0
v 0.018014757 0.0859220326 0
v 0.0182461739 0.0812293589 0
v 0.0184775908 0.0765366852 0
v 0.0186457764 0.0715820864 0
v 0.0188139621 0.0666274801 0
v 0.0189821459 0.0616729744 0
v 0.0191503316 0.0567183718 0
v 0.0193185173 0.0517637692 0
v 0.0194035806 0.0474873148 0
v 0.0194886439 0.0432109609 0
v 0.0195737071 0.0389345065 0
v 0.0196587704 0.034658052 0
v 0.0197438337 0.0303816982 0
v 0.019828897 0.0261052456 0
v 0.0198574141 0.0217543375 0
v 0.0198859312 0.01740353 0
v 0.0199144483 0.0130526228 0
v 0.0199429654 0.00870171562 0
v 0.0199714825 0.0043509081 0
g 
l 2 1
l 3 2
l 4 3
l 5 4
l 6 5
l 7 6
l 8 7
l 9 8
l 10 9
l 11 10
l 12 11
l 13 12
l 14 13
l 15 14
l 16 15
l 17 16
l 18 17
l 19 18
l 20 19
l 21 20
l 22 21
l 23 22
l 24 23
l 25 24
l 26 25
l 27 26
l 28 27
l 29 28
l 30 29
l 31 30
l 32 31
l 33 32
l 34 33
l 35 34
l 36 35
l 37 36
l 38 37
l 39 38
l 40 39
l 41 40
l 42 41
l 43 42
l 44 43
l 45 44
l 46 45
l 47 46
l 48 47
l 49 48
l 50 49
l 51 50
l 52 51
l 53 52
l 54 53
l 55 54
l 56 55
l 57 56
l 58 57
l 59 58
l 60 59
l 61 60
l 62 61
l 63 62
l 64 63
l 65 64
l 66 65
l 67 66
l 68 67
l 69 68
l 70 69
l 71 70
l 72 71
l 73 72
l 74 73
l 75 74
l 76 75
l 77 76
l 78 77
l 79 78
l 80 79
l 81 80
l 82 81
l 83 82
l 84 83
l 85 84
l 86 85
l 87 86
l 88 87
l 89 88
l 90 89
l 91 90
l 92 91
l 93 92
l 94 93
l 95 94
l 96 95
l 97 96
l 98 97
l 99 98
l 100 99
l 101 100
l 102 101
l 103 102
l 104 103
l 105 104
l 106 105
l 107 106
l 108 107
l 109 108
l 110 109
l 111 110
l 112 111
l 113 112
l 114 113
l 115 114
l 116 115
l 117 116
l 118 117
l 119 118
l 120 119
l 121 120
l 122 121
l 123 122
l 124 123
l 125 124
l 126 125
l 127 126
l 128 127
l 129 128
l 130 129
l 131 130
l 132 131
l 133 132
l 134 133
l 135 134
l 136 135
l 137 136
l 138 137
l 139 138
l 140 139
l 141 140
l 142 141
l 143 142
l 144 143
l 145 144
l 146 145
l 147 146
l 148 147
l 149 148
l 150 149
l 151 150
l 152 151
l 153 152
l 154 153
l 155 154
l 156 155
l 157 156
l 158 157
l 159 158
l 160 159
l 161 160
l 162 161
l 163 162
l 164 163
l 165 164
l 166 165
l 167 166
l 168 167
l 169 168
l 170 169
l 171 170
l 172 171
l 173 172
l 174 173
l 175 174
l 176 175
l 177 176
l 178 177
l 179 178
l 180 179
l 181 180
l 182 181
l 183 182
l 184 183
l 1 184
