# File exported by Houdini 21.0.440 (www.sidefx.com)
# 117 points
# 690 vertices
# 230 primitives
# Bounds: [0.0128587484, 0.0277434308, -0.0150008369] to [0.0140171051, 0.0694366395, 0.0149991419]
g 
v 0.0130137205 0.0286501367 -0.0107179787
v 0.0140140057 0.0285829026 -0.0105753895
v 0.0130153894 0.0282181222 -0.00973047875
v 0.0140151978 0.0282423217 -0.00977884047
v 0.0140162706 0.0279894788 -0.00897114165
v 0.0130163431 0.0279622991 -0.00887561217
v 0.0140167475 0.0278365333 -0.00821404718
v 0.0130169392 0.0277864654 -0.00788326934
v 0.0140171051 0.0277477223 -0.00735414913
v 0.0130171776 0.0277434308 -0.00714046182
v 0.0129877329 0.0354946554 -0.0150007699
v 0.0139882565 0.0353438556 -0.0150006618
v 0.0140117407 0.0291779954 -0.0115766134
v 0.0130110979 0.0293273646 -0.0117918216
v 0.0140098333 0.0296596009 -0.0121944435
v 0.0130089521 0.0299051721 -0.0124749243
v 0.0140080452 0.0301561076 -0.0127277933
v 0.0130069256 0.0304473359 -0.013000166
v 0.0140049458 0.0309422929 -0.0134062562
v 0.0130041838 0.0311413724 -0.0135502238
v 0.0140014887 0.0318586528 -0.0139978919
v 0.013002038 0.0317159593 -0.0139155015
v 0.0129995346 0.0323804319 -0.0142644569
v 0.0139985085 0.0326643884 -0.0143863764
v 0.0129957199 0.0333939493 -0.0146557093
v 0.0139958858 0.0333491266 -0.0146356486
v 0.013992548 0.034208864 -0.0148574729
v 0.0129915476 0.0344801843 -0.0149071049
v 0.0138885975 0.0615765788 -0.0150008369
v 0.0128879547 0.0617341734 -0.0150007363
v 0.0128746033 0.0652593076 -0.0140339397
v 0.0138759613 0.0648936927 -0.0142177083
v 0.0128777027 0.064455241 -0.0144107919
v 0.0138782263 0.0643211305 -0.0144656599
v 0.012881279 0.063493222 -0.0147396084
v 0.0138810873 0.0635530651 -0.0147213452
v 0.0138851404 0.0624972321 -0.0149379894
v 0.0128850937 0.0625080764 -0.0149314161
v 0.0128587484 0.069432348 -0.0073955548
v 0.0138587952 0.0694366395 -0.00734102121
v 0.0138735771 0.0655202568 -0.0138854757
v 0.0128712654 0.0661365688 -0.0134782773
v 0.0138708353 0.0662460029 -0.0133971982
v 0.0138683319 0.0669054687 -0.0128489714
v 0.012868762 0.0668109357 -0.0129277967
v 0.0128663778 0.0674333274 -0.0122978315
v 0.0138657093 0.0676159561 -0.0120888073
v 0.0128641129 0.0680303276 -0.0115376879
v 0.0138634443 0.0681873262 -0.0113064181
v 0.0128623247 0.0684948862 -0.0107655656
v 0.0138616562 0.068662256 -0.0104422998
v 0.0128610134 0.068851918 -0.0100077223
v 0.0138604641 0.068983525 -0.00966859981
v 0.0128598213 0.0691450536 -0.00914410688
v 0.0138595104 0.0692335069 -0.00880979188
v 0.0128591061 0.0693329275 -0.00828303397
v 0.0138590336 0.0693580806 -0.00813611224
v 0.0138587952 0.0694361627 0.00739386072
v 0.0128587484 0.0694328249 0.00733932806
v 0.0128623247 0.0685031116 0.0107484385
v 0.0138616562 0.0686636865 0.010436438
v 0.0128610134 0.0688297451 0.010060491
v 0.0138605833 0.0689438283 0.00977323204
v 0.0128599405 0.0691272914 0.00920088962
v 0.0138597488 0.0691646039 0.00907878205
v 0.0128592253 0.0693214834 0.00836562552
v 0.0138591528 0.0693367422 0.00828134082
v 0.01288867 0.0615727641 0.0149991419
v 0.0138880014 0.0617466904 0.0149990246
v 0.0138630867 0.0683062971 0.0111063421
v 0.0128641129 0.0680316389 0.0115314275
v 0.0138647556 0.0678595006 0.0117732901
v 0.0128661394 0.0674793422 0.0122434422
v 0.0138667822 0.0673054159 0.0124446489
v 0.0128688812 0.0667819679 0.0129591767
v 0.0138690472 0.0667162836 0.0130125228
v 0.0138709545 0.0662179887 0.0134164114
v 0.0128720999 0.0659329593 0.0136198141
v 0.0138731003 0.0656515062 0.0138014089
v 0.0128747225 0.0652168691 0.0140501522
v 0.0138761997 0.0648411214 0.0142477807
v 0.0128771067 0.0646043718 0.0143471826
v 0.0138798952 0.0638726652 0.0146225821
v 0.0128797293 0.0639183223 0.0146054737
v 0.0128821135 0.0632972419 0.0147822704
v 0.0138825178 0.0631775558 0.0148100853
v 0.0128854513 0.0624152161 0.0149446297
v 0.0138852596 0.0624729134 0.0149343926
v 0.0139883757 0.035313338 0.0149985161
v 0.0129879713 0.0354337394 0.0149990246
v 0.0130003691 0.0321721733 0.0141670834
v 0.0140002966 0.0321854055 0.0141673181
v 0.0139974356 0.0329403579 0.0144938491
v 0.0129959583 0.0333048999 0.0146238841
v 0.0139950514 0.0335752666 0.0147003327
v 0.0129933357 0.0340071619 0.0148105677
v 0.0139923096 0.0342842042 0.0148685835
v 0.0129907131 0.0347075164 0.0149343926
v 0.0130171776 0.0277439076 0.00735245412
v 0.0140171051 0.0277476031 0.00736984191
v 0.0140032768 0.0313840806 0.0137097072
v 0.0130038261 0.0312566459 0.0136276968
v 0.0140058994 0.0307178218 0.0132237729
v 0.0130063295 0.0306025464 0.0131326467
v 0.0140082836 0.0300901849 0.0126652718
v 0.0130082369 0.0300820787 0.0126543697
v 0.0130106211 0.0294747073 0.0119800437
v 0.0140110254 0.0293496568 0.0118118506
v 0.0130131245 0.0288175065 0.0110181514
v 0.014013052 0.0288184602 0.0110045765
v 0.0140142441 0.0285231788 0.010440018
v 0.0130146742 0.0283794124 0.0101345181
v 0.014015317 0.0282258708 0.00974134356
v 0.0130158663 0.028071614 0.00929425284
v 0.0140162706 0.0279838759 0.00893924944
v 0.01301682 0.0278327186 0.00821235217
v 0.0140167475 0.0278407056 0.0082381703
vt 0 0 0
vn -0.000342988758 -0.88368088 -0.468089581
vn 0.00636363402 -0.893392086 -0.449232906
vn 0.00114650698 -0.939157248 -0.343485475
vn 0.00114650698 -0.939157248 -0.343485475
vn 0.00636363402 -0.893392086 -0.449232906
vn 0.00585916685 -0.937492073 -0.347957462
vn 0.00114650698 -0.939157248 -0.343485475
vn 0.00585916685 -0.937492073 -0.347957462
vn 0.00577462837 -0.968518913 -0.24887307
vn 0.00114650698 -0.939157248 -0.343485475
vn 0.00577462837 -0.968518913 -0.24887307
vn -0.00155296433 -0.972573102 -0.232592449
vn -0.00155296433 -0.972573102 -0.232592449
vn 0.00577462837 -0.968518913 -0.24887307
vn 0.00624765828 -0.988140404 -0.153425664
vn -0.00155296433 -0.972573102 -0.232592449
vn 0.00624765828 -0.988140404 -0.153425664
vn -0.00205037999 -0.99325633 -0.115921713
vn -0.00205037999 -0.99325633 -0.115921713
vn 0.00624765828 -0.988140404 -0.153425664
vn 0.00552292122 -0.99881655 -0.0483218171
vn -0.00205037999 -0.99325633 -0.115921713
vn 0.00552292122 -0.99881655 -0.0483218171
vn -0.00107795373 -0.999685347 -0.0250595268
vn 0.00636363402 -0.893392086 -0.449232906
vn -0.000342988758 -0.88368088 -0.468089581
vn 0.0059766192 -0.8266415 -0.562697172
vn 0.0059766192 -0.8266415 -0.562697172
vn -0.000342988758 -0.88368088 -0.468089581
vn -0.00363700185 -0.805397511 -0.592723787
vn 0.0059766192 -0.8266415 -0.562697172
vn -0.00363700185 -0.805397511 -0.592723787
vn 0.0077355504 -0.760576785 -0.64920181
vn 0.0077355504 -0.760576785 -0.64920181
vn -0.00363700185 -0.805397511 -0.592723787
vn -0.00267378078 -0.730655074 -0.682741523
vn 0.0077355504 -0.760576785 -0.64920181
vn -0.00267378078 -0.730655074 -0.682741523
vn 0.00888607744 -0.694640934 -0.71930182
vn 0.00888607744 -0.694640934 -0.71930182
vn -0.00267378078 -0.730655074 -0.682741523
vn -0.00130169117 -0.659700394 -0.751527548
vn 0.00888607744 -0.694640934 -0.71930182
vn -0.00130169117 -0.659700394 -0.751527548
vn 0.00778884254 -0.59924835 -0.800525248
vn 0.00778884254 -0.59924835 -0.800525248
vn -0.00130169117 -0.659700394 -0.751527548
vn 0.0012686199 -0.574727833 -0.81834358
vn 0.00778884254 -0.59924835 -0.800525248
vn 0.0012686199 -0.574727833 -0.81834358
vn 0.00782115199 -0.489290148 -0.872085989
vn 0.00782115199 -0.489290148 -0.872085989
vn 0.0012686199 -0.574727833 -0.81834358
vn 0.000906129833 -0.504784763 -0.863244712
vn 0.00782115199 -0.489290148 -0.872085989
vn 0.000906129833 -0.504784763 -0.863244712
vn -0.00328043243 -0.414883912 -0.90986836
vn 0.00782115199 -0.489290148 -0.872085989
vn -0.00328043243 -0.414883912 -0.90986836
vn 0.0029917378 -0.385384083 -0.922751427
vn 0.0029917378 -0.385384083 -0.922751427
vn -0.00328043243 -0.414883912 -0.90986836
vn -0.00425145635 -0.293428242 -0.955971599
vn 0.0029917378 -0.385384083 -0.922751427
vn -0.00425145635 -0.293428242 -0.955971599
vn 0.00580031658 -0.297811836 -0.95460695
vn 0.00580031658 -0.297811836 -0.95460695
vn -0.00425145635 -0.293428242 -0.955971599
vn 0.00466184923 -0.19108513 -0.981562495
vn 0.00466184923 -0.19108513 -0.981562495
vn -0.00425145635 -0.293428242 -0.955971599
vn -0.00427162927 -0.157847941 -0.987454236
vn 0.00466184923 -0.19108513 -0.981562495
vn -0.00427162927 -0.157847941 -0.987454236
vn 0.000428651663 -0.0596111007 -0.998221576
vn 0.000428651663 -0.0596111007 -0.998221576
vn -0.00427162927 -0.157847941 -0.987454236
vn -0.00615477748 -0.0415536612 -0.999117315
vn 0.0047219554 0.0306187328 -0.999520004
vn 0.000428651663 -0.0596111007 -0.998221576
vn 0.00106784469 0.0437345579 -0.99904269
vn 0.00106784469 0.0437345579 -0.99904269
vn 0.000428651663 -0.0596111007 -0.998221576
vn -0.00615477748 -0.0415536612 -0.999117315
vn -0.00810358301 0.479831994 -0.877323031
vn 0.00141954212 0.431507945 -0.902107954
vn -0.00735744601 0.373996109 -0.927401066
vn -0.00735744601 0.373996109 -0.927401066
vn 0.00141954212 0.431507945 -0.902107954
vn -0.00144031656 0.355182648 -0.934795856
vn -0.00735744601 0.373996109 -0.927401066
vn -0.00144031656 0.355182648 -0.934795856
vn -0.00214950647 0.256423205 -0.966562271
vn -0.00214950647 0.256423205 -0.966562271
vn -0.00144031656 0.355182648 -0.934795856
vn 0.00200899597 0.261039853 -0.965325892
vn -0.00214950647 0.256423205 -0.966562271
vn 0.00200899597 0.261039853 -0.965325892
vn 0.00229586964 0.136183456 -0.990680993
vn -0.00214950647 0.256423205 -0.966562271
vn 0.00229586964 0.136183456 -0.990680993
vn -0.0049797222 0.140828952 -0.990021408
vn -0.0049797222 0.140828952 -0.990021408
vn 0.00229586964 0.136183456 -0.990680993
vn 0.00106784469 0.0437345579 -0.99904269
vn 0.00106784469 0.0437345579 -0.99904269
vn 0.00229586964 0.136183456 -0.990680993
vn 0.0047219554 0.0306187328 -0.999520004
vn 0.00141954212 0.431507945 -0.902107954
vn -0.00810358301 0.479831994 -0.877323031
vn 0.00128669746 0.515306175 -0.857005179
vn 0.00128669746 0.515306175 -0.857005179
vn -0.00810358301 0.479831994 -0.877323031
vn -0.00395649998 0.587656021 -0.809101284
vn 0.00128669746 0.515306175 -0.857005179
vn -0.00395649998 0.587656021 -0.809101284
vn -0.00129532593 0.602918267 -0.797801852
vn -0.00129532593 0.602918267 -0.797801852
vn -0.00395649998 0.587656021 -0.809101284
vn -0.00184435991 0.683410466 -0.730031967
vn -0.00184435991 0.683410466 -0.730031967
vn -0.00395649998 0.587656021 -0.809101284
vn -0.00478910375 0.669794381 -0.742531121
vn -0.00184435991 0.683410466 -0.730031967
vn -0.00478910375 0.669794381 -0.742531121
vn -0.00676035415 0.749050319 -0.662478685
vn -0.00184435991 0.683410466 -0.730031967
vn -0.00676035415 0.749050319 -0.662478685
vn 0.00277746492 0.770861924 -0.63699615
vn 0.00277746492 0.770861924 -0.63699615
vn -0.00676035415 0.749050319 -0.662478685
vn -0.00813112222 0.822672367 -0.568457663
vn 0.00277746492 0.770861924 -0.63699615
vn -0.00813112222 0.822672367 -0.568457663
vn 0.00285976124 0.844093084 -0.53618902
vn 0.00285976124 0.844093084 -0.53618902
vn -0.00813112222 0.822672367 -0.568457663
vn -0.00764854113 0.881874919 -0.47142148
vn 0.00285976124 0.844093084 -0.53618902
vn -0.00764854113 0.881874919 -0.47142148
vn 0.00313469442 0.901412606 -0.43295005
vn 0.00313469442 0.901412606 -0.43295005
vn -0.00764854113 0.881874919 -0.47142148
vn -0.00884354301 0.92694819 -0.375085086
vn 0.00313469442 0.901412606 -0.43295005
vn -0.00884354301 0.92694819 -0.375085086
vn 0.00197815825 0.943382859 -0.331700325
vn 0.00197815825 0.943382859 -0.331700325
vn -0.00884354301 0.92694819 -0.375085086
vn -0.00903909933 0.963403404 -0.267903417
vn 0.00197815825 0.943382859 -0.331700325
vn -0.00903909933 0.963403404 -0.267903417
vn 5.78073377e-05 0.973476529 -0.22878693
vn 5.78073377e-05 0.973476529 -0.22878693
vn -0.00903909933 0.963403404 -0.267903417
vn -0.00872184429 0.98694545 -0.160818338
vn 5.78073377e-05 0.973476529 -0.22878693
vn -0.00872184429 0.98694545 -0.160818338
vn -0.000945064414 0.990217209 -0.139531329
vn -0.000945064414 0.990217209 -0.139531329
vn -0.00872184429 0.98694545 -0.160818338
vn -0.0043955436 0.998487115 -0.0548106059
vn -0.000945064414 0.990217209 -0.139531329
vn -0.0043955436 0.998487115 -0.0548106059
vn -0.0016738103 0.998868227 -0.0475342199
vn -0.00551246479 0.99837184 0.0567753538
vn -0.0016738103 0.998868227 -0.0475342199
vn -0.00619802624 0.998619795 0.052153416
vn -0.00619802624 0.998619795 0.052153416
vn -0.0016738103 0.998868227 -0.0475342199
vn -0.0043955436 0.998487115 -0.0548106059
vn -0.0092527708 0.881717861 0.471686274
vn 0.00194872555 0.902479768 0.430727869
vn -0.00836953055 0.925199091 0.379389763
vn -0.00836953055 0.925199091 0.379389763
vn 0.00194872555 0.902479768 0.430727869
vn -0.000525459822 0.938748181 0.34460339
vn -0.00836953055 0.925199091 0.379389763
vn -0.000525459822 0.938748181 0.34460339
vn -0.0082353754 0.961122811 0.275998384
vn -0.0082353754 0.961122811 0.275998384
vn -0.000525459822 0.938748181 0.34460339
vn -0.000576443796 0.966336906 0.257279336
vn -0.0082353754 0.961122811 0.275998384
vn -0.000576443796 0.966336906 0.257279336
vn -0.0055560586 0.985795379 0.167859212
vn -0.0055560586 0.985795379 0.167859212
vn -0.000576443796 0.966336906 0.257279336
vn -0.00169116724 0.98732847 0.158680767
vn -0.0055560586 0.985795379 0.167859212
vn -0.00169116724 0.98732847 0.158680767
vn -0.00551246479 0.99837184 0.0567753538
vn -0.0055560586 0.985795379 0.167859212
vn -0.00551246479 0.99837184 0.0567753538
vn -0.00619802624 0.998619795 0.052153416
vn 0.00194872555 0.902479768 0.430727869
vn -0.0092527708 0.881717861 0.471686274
vn 0.000539267436 0.858003616 0.513643265
vn 0.000539267436 0.858003616 0.513643265
vn -0.0092527708 0.881717861 0.471686274
vn -0.00859704614 0.824385226 0.565963686
vn 0.000539267436 0.858003616 0.513643265
vn -0.00859704614 0.824385226 0.565963686
vn 0.00217359373 0.801304817 0.598252356
vn 0.00217359373 0.801304817 0.598252356
vn -0.00859704614 0.824385226 0.565963686
vn -0.00906085409 0.755432963 0.655163288
vn 0.00217359373 0.801304817 0.598252356
vn -0.00906085409 0.755432963 0.655163288
vn 0.00016944755 0.733421862 0.679773688
vn 0.00016944755 0.733421862 0.679773688
vn -0.00906085409 0.755432963 0.655163288
vn -0.00747146783 0.666752994 0.745241344
vn 0.00016944755 0.733421862 0.679773688
vn -0.00747146783 0.666752994 0.745241344
vn 0.00334880804 0.660663843 0.750674427
vn 0.00334880804 0.660663843 0.750674427
vn -0.00747146783 0.666752994 0.745241344
vn -0.00132199493 0.598702371 0.800970554
vn -0.00132199493 0.598702371 0.800970554
vn -0.00747146783 0.666752994 0.745241344
vn -0.00827169605 0.564718723 0.825241983
vn -0.00132199493 0.598702371 0.800970554
vn -0.00827169605 0.564718723 0.825241983
vn 0.00339017855 0.522639692 0.852546871
vn 0.00339017855 0.522639692 0.852546871
vn -0.00827169605 0.564718723 0.825241983
vn -0.00666839583 0.477181703 0.878779352
vn 0.00339017855 0.522639692 0.852546871
vn -0.00666839583 0.477181703 0.878779352
vn 0.00322059751 0.422482699 0.906365216
vn 0.00322059751 0.422482699 0.906365216
vn -0.00666839583 0.477181703 0.878779352
vn -0.0037110073 0.390560597 0.920569718
vn 0.00322059751 0.422482699 0.906365216
vn -0.0037110073 0.390560597 0.920569718
vn 0.00278986618 0.310210228 0.950663984
vn 0.00278986618 0.310210228 0.950663984
vn -0.0037110073 0.390560597 0.920569718
vn -0.00187389285 0.314633101 0.949211538
vn 0.00278986618 0.310210228 0.950663984
vn -0.00187389285 0.314633101 0.949211538
vn -0.00301375776 0.228532851 0.973531485
vn 0.00278986618 0.310210228 0.950663984
vn -0.00301375776 0.228532851 0.973531485
vn 0.000586124253 0.215627879 0.976475477
vn 0.000586124253 0.215627879 0.976475477
vn -0.00301375776 0.228532851 0.973531485
vn -0.00405998575 0.124501973 0.992211103
vn 0.000586124253 0.215627879 0.976475477
vn -0.00405998575 0.124501973 0.992211103
vn 0.00248474441 0.132799506 0.99113977
vn 0.00248474441 0.132799506 0.99113977
vn -0.00405998575 0.124501973 0.992211103
vn -0.00105618779 0.0432644747 0.999063134
vn -0.00105618779 0.0432644747 0.999063134
vn -0.00405998575 0.124501973 0.992211103
vn -0.00489822309 0.028818626 0.999572635
vn 0.00208492461 -0.0598655418 0.998204231
vn -0.00105618779 0.0432644747 0.999063134
vn -0.0044200737 -0.0409088098 0.999153137
vn -0.0044200737 -0.0409088098 0.999153137
vn -0.00105618779 0.0432644747 0.999063134
vn -0.00489822309 0.028818626 0.999572635
vn -0.00336831971 -0.444379389 0.89583236
vn 0.0057028546 -0.446830839 0.894600332
vn 0.000233150713 -0.356008917 0.934482455
vn -0.00336831971 -0.444379389 0.89583236
vn 0.000233150713 -0.356008917 0.934482455
vn -0.00561287533 -0.312786132 0.949807107
vn -0.00561287533 -0.312786132 0.949807107
vn 0.000233150713 -0.356008917 0.934482455
vn 0.00629823375 -0.269233167 0.963054478
vn -0.00561287533 -0.312786132 0.949807107
vn 0.00629823375 -0.269233167 0.963054478
vn -0.00363246398 -0.217104599 0.976141512
vn -0.00363246398 -0.217104599 0.976141512
vn 0.00629823375 -0.269233167 0.963054478
vn 0.0057322979 -0.179682374 0.983708084
vn -0.00363246398 -0.217104599 0.976141512
vn 0.0057322979 -0.179682374 0.983708084
vn -0.00289966795 -0.131474763 0.991315305
vn -0.00289966795 -0.131474763 0.991315305
vn 0.0057322979 -0.179682374 0.983708084
vn 0.00208492461 -0.0598655418 0.998204231
vn -0.00289966795 -0.131474763 0.991315305
vn 0.00208492461 -0.0598655418 0.998204231
vn -0.0044200737 -0.0409088098 0.999153137
vn 0.0057028546 -0.446830839 0.894600332
vn -0.00336831971 -0.444379389 0.89583236
vn 0.00400075875 -0.542243123 0.840212107
vn 0.00400075875 -0.542243123 0.840212107
vn -0.00336831971 -0.444379389 0.89583236
vn -0.00158430298 -0.557496488 0.830177784
vn 0.00400075875 -0.542243123 0.840212107
vn -0.00158430298 -0.557496488 0.830177784
vn 0.00591208925 -0.627529919 0.778569996
vn 0.00591208925 -0.627529919 0.778569996
vn -0.00158430298 -0.557496488 0.830177784
vn -0.000140455304 -0.641178906 0.767391443
vn 0.00591208925 -0.627529919 0.778569996
vn -0.000140455304 -0.641178906 0.767391443
vn 0.00599293411 -0.710355401 0.703817666
vn 0.00599293411 -0.710355401 0.703817666
vn -0.000140455304 -0.641178906 0.767391443
vn -0.00190552766 -0.710854053 0.703337014
vn 0.00599293411 -0.710355401 0.703817666
vn -0.00190552766 -0.710854053 0.703337014
vn 0.000815649983 -0.78408289 0.620655596
vn 0.00599293411 -0.710355401 0.703817666
vn 0.000815649983 -0.78408289 0.620655596
vn 0.00639907643 -0.799136281 0.601115823
vn 0.00639907643 -0.799136281 0.601115823
vn 0.000815649983 -0.78408289 0.620655596
vn -0.00102395541 -0.862807333 0.505531907
vn 0.00639907643 -0.799136281 0.601115823
vn -0.00102395541 -0.862807333 0.505531907
vn 0.00770246703 -0.862001479 0.506847203
vn 0.00770246703 -0.862001479 0.506847203
vn -0.00102395541 -0.862807333 0.505531907
vn 0.00531187234 -0.902972698 0.429665178
vn 0.00531187234 -0.902972698 0.429665178
vn -0.00102395541 -0.862807333 0.505531907
vn -0.00314775039 -0.918606937 0.395160079
vn 0.00531187234 -0.902972698 0.429665178
vn -0.00314775039 -0.918606937 0.395160079
vn 0.00900716428 -0.939571738 0.342233539
vn 0.00900716428 -0.939571738 0.342233539
vn -0.00314775039 -0.918606937 0.395160079
vn -0.00209054979 -0.959789395 0.280713409
vn 0.00900716428 -0.939571738 0.342233539
vn -0.00209054979 -0.959789395 0.280713409
vn 0.00511796772 -0.97084862 0.239638418
vn 0.00511796772 -0.97084862 0.239638418
vn -0.00209054979 -0.959789395 0.280713409
vn 0.000498665322 -0.987844884 0.155441493
vn 0.00511796772 -0.97084862 0.239638418
vn 0.000498665322 -0.987844884 0.155441493
vn 0.00302587077 -0.988153636 0.15343824
vn 0.00302587077 -0.988153636 0.15343824
vn 0.000498665322 -0.987844884 0.155441493
vn 0.00370499352 -0.998652458 0.0517644025
vn 0.00302587077 -0.988153636 0.15343824
vn 0.00370499352 -0.998652458 0.0517644025
vn 0.00276445062 -0.998537898 0.0539854392
vn 0.00552292122 -0.99881655 -0.0483218171
vn 0.00276445062 -0.998537898 0.0539854392
vn -0.00107795373 -0.999685347 -0.0250595268
vn -0.00107795373 -0.999685347 -0.0250595268
vn 0.00276445062 -0.998537898 0.0539854392
vn 0.00370499352 -0.998652458 0.0517644025
vn 0.999992788 0.00379977026 -2.53176012e-07
vn 0.999992788 0.0037999386 -4.59774242e-07
vn 0.999992788 0.0037993202 -2.5762364e-07
vn 0.999992788 0.00379945571 -3.99695139e-08
vn 0.999992788 0.003799567 -1.52692735e-07
vn 0.999992728 0.00379956723 3.62799994e-07
vn 0.999992728 0.00379956723 3.62799994e-07
vn 0.999992847 0.00380104571 2.0965565e-06
vn 0.999992728 0.0037993819 -4.99976579e-07
vn 0.999992788 0.00379945571 -3.99695139e-08
vn 0.999992847 0.00379775465 1.8470605e-06
vn 0.999992788 0.00379933673 1.4317024e-07
vn 0.999992788 0.00379945571 -3.99695139e-08
vn 0.999992788 0.00379933673 1.4317024e-07
vn 0.999992788 0.003799567 -1.52692735e-07
vn 0.999992728 0.00379983732 4.28140396e-07
vn 0.999992788 0.0037993202 -2.5762364e-07
vn 0.999992788 0.0037999386 -4.59774242e-07
vn 0.999992728 0.00379983732 4.28140396e-07
vn 0.999992788 0.0037999386 -4.59774242e-07
vn 0.999992788 0.003799567 -1.52692735e-07
vn 0.999992788 0.003799567 -1.52692735e-07
vn 0.999992788 0.0037999386 -4.59774242e-07
vn 0.999992788 0.00379953859 8.84394922e-08
vn 0.999992788 0.003799567 -1.52692735e-07
vn 0.999992788 0.00379953859 8.84394922e-08
vn 0.999992728 0.00379956723 3.62799994e-07
vn 0.999992728 0.00379956723 3.62799994e-07
vn 0.999992788 0.00379980821 3.0215071e-07
vn 0.999992788 0.00379939913 -1.6287764e-07
vn 0.999992728 0.00379956723 3.62799994e-07
vn 0.999992788 0.00379939913 -1.6287764e-07
vn 0.999992728 0.00379935489 -1.58283399e-07
vn 0.999992788 0.0037993202 -2.5762364e-07
vn 0.999992728 0.00379983732 4.28140396e-07
vn 0.999992788 0.00380045851 9.77474201e-07
vn 0.999992788 0.0037999386 -4.59774242e-07
vn 0.999992788 0.00379977026 -2.53176012e-07
vn 0.999992847 0.00380056282 -1.42710223e-06
vn 0.999992788 0.00379953859 8.84394922e-08
vn 0.999992788 0.00379980821 3.0215071e-07
vn 0.999992728 0.00379956723 3.62799994e-07
vn 0.999992788 0.0037993202 -2.5762364e-07
vn 0.999992847 0.00379852997 -1.19500555e-06
vn 0.999992728 0.00380151183 3.22578785e-06
vn 0.999992788 0.00380037073 -1.46361253e-06
vn 0.999992788 0.00379935792 2.64777412e-07
vn 0.999992788 0.00379945571 -3.99695139e-08
vn 0.999992788 0.00379945571 -3.99695139e-08
vn 0.999992788 0.00379935792 2.64777412e-07
vn 0.999992728 0.00380011671 -8.62953982e-07
vn 0.999992788 0.00379945571 -3.99695139e-08
vn 0.999992788 0.00380111695 -2.2823383e-06
vn 0.999992847 0.00379775465 1.8470605e-06
vn 0.999992788 0.0037979777 -1.75566117e-06
vn 0.999992788 0.00379989622 5.91702985e-07
vn 0.999992788 0.0037993202 -2.5762364e-07
vn 0.999992788 0.00379989622 5.91702985e-07
vn 0.999992847 0.00379852997 -1.19500555e-06
vn 0.999992788 0.0037993202 -2.5762364e-07
vn 0.999992788 0.0037993202 -2.5762364e-07
vn 0.999992788 0.00379827153 -2.17918205e-06
vn 0.999992788 0.00379987783 8.25241955e-07
vn 0.999992847 0.00378859835 4.53807479e-06
vn 0.999992847 0.00380056282 -1.42710223e-06
vn 0.999992728 0.00380579359 -2.68537519e-06
vn 0.999992728 0.00379956723 3.62799994e-07
vn 0.999992847 0.00379812368 -2.74609192e-06
vn 0.999992788 0.00379880657 -1.36942424e-06
vn 0.999992788 0.00379945571 -3.99695139e-08
vn 0.999992788 0.00379845523 2.45581327e-06
vn 0.999992788 0.00380037073 -1.46361253e-06
vn 0.999992788 0.00379945571 -3.99695139e-08
vn 0.999992728 0.00380011671 -8.62953982e-07
vn 0.999992788 0.00380111695 -2.2823383e-06
vn 0.999992788 0.0037993202 -2.5762364e-07
vn 0.999992788 0.00380045851 9.77474201e-07
vn 0.999992788 0.0037979777 -1.75566117e-06
vn 0.999992847 0.00380056282 -1.42710223e-06
vn 0.999992788 0.00379977026 -2.53176012e-07
vn 0.999992847 0.00380060892 -1.02370416e-06
vn 0.999992847 0.00380056282 -1.42710223e-06
vn 0.999992847 0.00380060892 -1.02370416e-06
vn 0.999992728 0.00379902334 5.15153317e-07
vn 0.999992728 0.00379902334 5.15153317e-07
vn 0.999992788 0.00379903009 5.14747683e-07
vn 0.999992847 0.00380056282 -1.42710223e-06
vn 0.999992788 0.00379965408 2.38105375e-08
vn 0.999992788 0.00380014372 -4.09205683e-07
vn 0.999992847 0.00380056282 -1.42710223e-06
vn 0.999992847 0.00380056282 -1.42710223e-06
vn 0.999992788 0.00380014372 -4.09205683e-07
vn 0.999992788 0.00379412668 3.51105564e-06
vn 0.999992728 0.00380364875 -2.57644774e-06
vn 0.999992728 0.00380579359 -2.68537519e-06
vn 0.999992788 0.00378483301 7.61998581e-06
vn 0.999992728 0.00379956723 3.62799994e-07
vn 0.999992728 0.0038020194 7.48009188e-06
vn 0.999992847 0.00379895093 -3.0471972e-06
vn 0.999992788 0.00379845523 2.45581327e-06
vn 0.999992788 0.00379945571 -3.99695139e-08
vn 0.999992788 0.00379952416 -3.332554e-07
vn 0.999992788 0.00379952416 -3.332554e-07
vn 0.999992788 0.00379993906 -1.01834564e-06
vn 0.999992788 0.00379845523 2.45581327e-06
vn 0.999992788 0.00379852764 -2.18525247e-06
vn 0.999992788 0.0037993202 -2.5762364e-07
vn 0.999992788 0.00379900425 -1.08014012e-06
vn 0.999992788 0.00379903009 5.14747683e-07
vn 0.999992788 0.00379965408 2.38105375e-08
vn 0.999992847 0.00380056282 -1.42710223e-06
vn 0.999992847 0.00380056282 -1.42710223e-06
vn 0.999992788 0.00379412668 3.51105564e-06
vn 0.999992788 0.00379776536 1.46526963e-06
vn 0.999992847 0.00380056282 -1.42710223e-06
vn 0.999992788 0.00379776536 1.46526963e-06
vn 0.999992728 0.00380579359 -2.68537519e-06
vn 0.999992728 0.00379956723 3.62799994e-07
vn 0.999992788 0.00379880657 -1.36942424e-06
vn 0.999992728 0.0037988585 -1.11909708e-06
vn 0.999992788 0.0037993202 -2.5762364e-07
vn 0.999992728 0.00380151183 3.22578785e-06
vn 0.999992788 0.00379827153 -2.17918205e-06
vn 0.999992728 0.00379956723 3.62799994e-07
vn 0.999992728 0.0037988585 -1.11909708e-06
vn 0.999992728 0.0038020194 7.48009188e-06
vn 0.999992847 0.00379895093 -3.0471972e-06
vn 0.999992788 0.00379245146 -2.11028055e-05
vn 0.999992788 0.00380197773 1.0126797e-05
vn 0.999992847 0.00379809062 3.4798602e-06
vn 0.999992788 0.00379952416 -3.332554e-07
vn 0.999992728 0.00380352233 -1.74951856e-05
vn 0.999992788 0.00379905431 3.39876152e-07
vn 0.999992788 0.00379729993 5.36030211e-06
vn 0.999992788 0.00379952416 -3.332554e-07
vn 0.999992788 0.00379729993 5.36030211e-06
vn 0.999992788 0.00379993906 -1.01834564e-06
vn 0.999992788 0.00379952416 -3.332554e-07
vn 0.999992788 0.0037993202 -2.5762364e-07
vn 0.999992788 0.00379987783 8.25241955e-07
vn 0.999992788 0.00379900425 -1.08014012e-06
vn 0.999992788 0.00379852764 -2.18525247e-06
vn 0.999992788 0.00379900425 -1.08014012e-06
vn 0.999992728 0.003801496 4.21420054e-06
vn 0.999992847 0.00380261987 8.57601481e-06
vn 0.999992788 0.00379852764 -2.18525247e-06
vn 0.999992669 0.00379806943 -4.12390864e-06
vn 0.999992728 0.00380579359 -2.68537519e-06
vn 0.999992728 0.00380364875 -2.57644774e-06
vn 0.999992847 0.00378859835 4.53807479e-06
vn 0.999992728 0.00379956723 3.62799994e-07
vn 0.999992728 0.00379935489 -1.58283399e-07
vn 0.999992847 0.00380104571 2.0965565e-06
vn 0.999992728 0.0037993819 -4.99976579e-07
vn 0.999992847 0.00379812368 -2.74609192e-06
vn 0.999992728 0.00379956723 3.62799994e-07
vn 0.999992847 0.00379895093 -3.0471972e-06
vn 0.999992788 0.00380197773 1.0126797e-05
vn 0.999992728 0.00379956723 3.62799994e-07
vn 0.999992847 0.00379809062 3.4798602e-06
vn 0.999992788 0.00379905431 3.39876152e-07
vn 0.999992788 0.00379952416 -3.332554e-07
vn 0.999992728 0.003801496 4.21420054e-06
vn 0.999992669 0.00379806943 -4.12390864e-06
vn 0.999992788 0.00379852764 -2.18525247e-06
vn 0.999992788 0.00379795372 -2.85140374e-07
vn 0.999992788 0.00378483301 7.61998581e-06
vn 0.999992728 0.00380579359 -2.68537519e-06
vn 0.999992669 0.00380076072 4.04409911e-06
vn 0.999992847 0.00380261987 8.57601481e-06
vn 0.999992669 0.00379806943 -4.12390864e-06
vn 0.999992669 0.00380076072 4.04409911e-06
vn 0.999992669 0.00379806943 -4.12390864e-06
vn 0.999992788 0.00379656395 -5.04681975e-06
vn -0.999992788 -0.00379938306 1.62162578e-07
vn -0.999992788 -0.00379929435 1.26201499e-07
vn -0.999992788 -0.00379957329 2.38273131e-07
vn -0.999992728 -0.00379982288 3.94279056e-07
vn -0.999992788 -0.00379953044 7.87305439e-08
vn -0.999992728 -0.00379990623 4.32527429e-07
vn -0.999992788 -0.00379953044 7.87305439e-08
vn -0.999992788 -0.00379948295 -6.33470449e-08
vn -0.999992788 -0.00379929435 1.26201499e-07
vn -0.999992788 -0.00379929435 1.26201499e-07
vn -0.999992788 -0.00379948295 -6.33470449e-08
vn -0.999992728 -0.00379933883 -1.12297954e-07
vn -0.999992788 -0.00379929435 1.26201499e-07
vn -0.999992728 -0.00379933883 -1.12297954e-07
vn -0.999992788 -0.00379957329 2.38273131e-07
vn -0.999992788 -0.00379768969 -1.91541722e-06
vn -0.999992788 -0.0038005067 1.19658353e-06
vn -0.999992728 -0.00379990623 4.32527429e-07
vn -0.999992847 -0.00379964942 -2.52639893e-07
vn -0.999992788 -0.00379948295 -6.33470449e-08
vn -0.999992788 -0.003799567 -4.09969886e-07
vn -0.999992788 -0.003799567 -4.09969886e-07
vn -0.999992788 -0.00379948295 -6.33470449e-08
vn -0.999992728 -0.00379982288 3.94279056e-07
vn -0.999992728 -0.00379982288 3.94279056e-07
vn -0.999992788 -0.00379948295 -6.33470449e-08
vn -0.999992788 -0.00379953044 7.87305439e-08
vn -0.999992788 -0.00379957329 2.38273131e-07
vn -0.999992728 -0.00379933883 -1.12297954e-07
vn -0.999992788 -0.00379919261 -2.45322951e-07
vn -0.999992788 -0.00379931345 -1.26122245e-07
vn -0.999992788 -0.00379868876 7.17016064e-07
vn -0.999992788 -0.00379938306 1.62162578e-07
vn -0.999992788 -0.00379938306 1.62162578e-07
vn -0.999992788 -0.00379868876 7.17016064e-07
vn -0.999992847 -0.00379878515 6.18605611e-07
vn -0.999992788 -0.00379938306 1.62162578e-07
vn -0.999992847 -0.00379878515 6.18605611e-07
vn -0.999992788 -0.00379929435 1.26201499e-07
vn -0.999992728 -0.00379990623 4.32527429e-07
vn -0.999992788 -0.0038005067 1.19658353e-06
vn -0.999992728 -0.00379982288 3.94279056e-07
vn -0.999992788 -0.00380034628 -1.52781774e-06
vn -0.999992847 -0.00379919447 4.7192907e-07
vn -0.999992788 -0.003799567 -4.09969886e-07
vn -0.999992847 -0.00379999983 -7.78008314e-07
vn -0.999992728 -0.00379949063 -6.14686257e-08
vn -0.999992788 -0.003799567 -4.09969886e-07
vn -0.999992788 -0.003799567 -4.09969886e-07
vn -0.999992728 -0.00379949063 -6.14686257e-08
vn -0.999992788 -0.00379963988 -2.31345439e-07
vn -0.999992788 -0.00379957329 2.38273131e-07
vn -0.999992728 -0.00380027341 1.02285151e-06
vn -0.999992788 -0.00380104757 1.89977379e-06
vn -0.999992788 -0.00379938306 1.62162578e-07
vn -0.999992847 -0.00379888644 9.5479561e-07
vn -0.999992728 -0.00380113767 -2.54580732e-06
vn -0.999992788 -0.00379629945 -5.30261786e-06
vn -0.999992788 -0.00379768969 -1.91541722e-06
vn -0.999992788 -0.00380058028 1.43826821e-06
vn -0.999992728 -0.00380197633 4.95723316e-06
vn -0.999992847 -0.00379563845 -7.67565689e-06
vn -0.999992788 -0.00379665405 -5.84089139e-06
vn -0.999992907 -0.00379692437 5.70854581e-06
vn -0.999992788 -0.00380034628 -1.52781774e-06
vn -0.999992788 -0.003799567 -4.09969886e-07
vn -0.999992788 -0.003799567 -4.09969886e-07
vn -0.999992847 -0.00379919447 4.7192907e-07
vn -0.999992847 -0.00379999983 -7.78008314e-07
vn -0.999992788 -0.00379957329 2.38273131e-07
vn -0.999992728 -0.00379900425 -7.6453307e-07
vn -0.999992788 -0.00380096398 2.71356544e-06
vn -0.999992728 -0.00379990623 4.32527429e-07
vn -0.999992728 -0.00380010018 5.33279206e-07
vn -0.999992788 -0.00379768969 -1.91541722e-06
vn -0.999992788 -0.00379768969 -1.91541722e-06
vn -0.999992788 -0.00379629945 -5.30261786e-06
vn -0.999992728 -0.00380197633 4.95723316e-06
vn -0.999992728 -0.00380197633 4.95723316e-06
vn -0.999992788 -0.00379665405 -5.84089139e-06
vn -0.999992788 -0.00379768969 -1.91541722e-06
vn -0.999992788 -0.003799567 -4.09969886e-07
vn -0.999992788 -0.00379963988 -2.31345439e-07
vn -0.999992847 -0.00379964942 -2.52639893e-07
vn -0.999992788 -0.00379957329 2.38273131e-07
vn -0.999992788 -0.00379919261 -2.45322951e-07
vn -0.999992728 -0.00380027341 1.02285151e-06
vn -0.999992788 -0.00379768969 -1.91541722e-06
vn -0.999992728 -0.00380010018 5.33279206e-07
vn -0.999992788 -0.00379914325 -5.08435505e-07
vn -0.999992788 -0.00379768969 -1.91541722e-06
vn -0.999992788 -0.00379914325 -5.08435505e-07
vn -0.999992847 -0.00379885151 -8.14353882e-07
vn -0.999992788 -0.00379665405 -5.84089139e-06
vn -0.999992847 -0.00379563845 -7.67565689e-06
vn -0.999992788 -0.00380399032 9.49771402e-06
vn -0.999992907 -0.00379692437 5.70854581e-06
vn -0.999992788 -0.003799567 -4.09969886e-07
vn -0.999992788 -0.00380051928 -3.69753957e-06
vn -0.999992788 -0.00379938306 1.62162578e-07
vn -0.999992788 -0.00379957003 -2.36789631e-07
vn -0.999992728 -0.00379899121 1.4300216e-06
vn -0.999992788 -0.00379957329 2.38273131e-07
vn -0.999992788 -0.00380104757 1.89977379e-06
vn -0.999992728 -0.0037981018 -2.28087583e-06
vn -0.999992788 -0.00379957329 2.38273131e-07
vn -0.999992728 -0.0037981018 -2.28087583e-06
vn -0.999992728 -0.00379900425 -7.6453307e-07
vn -0.999992788 -0.00379957329 2.38273131e-07
vn -0.999992788 -0.00380096398 2.71356544e-06
vn -0.999992788 -0.00379870343 -1.99873898e-06
vn -0.999992788 -0.00379938306 1.62162578e-07
vn -0.999992788 -0.00379769062 6.29186161e-06
vn -0.999992788 -0.00379957003 -2.36789631e-07
vn -0.999992788 -0.00379941636 3.90234504e-07
vn -0.999992728 -0.00380075793 -2.59527405e-06
vn -0.999992788 -0.00379938306 1.62162578e-07
vn -0.999992788 -0.00380103919 -4.22055473e-06
vn -0.999992907 -0.00379692437 5.70854581e-06
vn -0.999992728 -0.0038063908 -1.35679375e-05
vn -0.999992788 -0.00379938306 1.62162578e-07
vn -0.999992728 -0.00379899121 1.4300216e-06
vn -0.999992788 -0.00379941636 3.90234504e-07
vn -0.999992907 -0.00379692437 5.70854581e-06
vn -0.999992788 -0.00379639957 5.5816472e-06
vn -0.999992728 -0.0038063908 -1.35679375e-05
vn -0.999992788 -0.00380033278 1.9481281e-06
vn -0.999992788 -0.00379870343 -1.99873898e-06
vn -0.999992788 -0.00379801798 -2.93313383e-06
vn -0.999992788 -0.00380033278 1.9481281e-06
vn -0.999992788 -0.00379801798 -2.93313383e-06
vn -0.999992728 -0.00380020915 2.41400744e-06
vn -0.999992788 -0.00380033278 1.9481281e-06
vn -0.999992788 -0.00379957329 2.38273131e-07
vn -0.999992788 -0.00379870343 -1.99873898e-06
vn -0.999992788 -0.00379769062 6.29186161e-06
vn -0.999992788 -0.00379938306 1.62162578e-07
vn -0.999992728 -0.00379865989 2.18472451e-06
vn -0.999992788 -0.00379938306 1.62162578e-07
vn -0.999992728 -0.00380113767 -2.54580732e-06
vn -0.999992788 -0.00379931345 -1.26122245e-07
vn -0.999992788 -0.00379768969 -1.91541722e-06
vn -0.999992847 -0.00379885151 -8.14353882e-07
vn -0.999992788 -0.00380058028 1.43826821e-06
vn -0.999992788 -0.00380051928 -3.69753957e-06
vn -0.999992788 -0.00379639957 5.5816472e-06
vn -0.999992907 -0.00379692437 5.70854581e-06
vn -0.999992788 -0.00379769062 6.29186161e-06
vn -0.999992728 -0.00379865989 2.18472451e-06
vn -0.999992788 -0.00380169647 -7.73375541e-06
vn -0.999992788 -0.00379938306 1.62162578e-07
vn -0.999992728 -0.00380075793 -2.59527405e-06
vn -0.999992847 -0.00379888644 9.5479561e-07
vn -0.999992788 -0.00379356556 1.1031243e-05
vn -0.999992728 -0.0038063908 -1.35679375e-05
vn -0.999992728 -0.0037984224 -3.26426829e-07
vn -0.999992728 -0.0038063908 -1.35679375e-05
vn -0.999992788 -0.00379356556 1.1031243e-05
vn -0.999992788 -0.00380103919 -4.22055473e-06
vn -0.999992788 -0.00380033278 1.9481281e-06
vn -0.999992788 -0.00379496557 -1.36135641e-05
vn -0.999992788 -0.0037980359 -2.13110093e-06
vn -0.999992788 -0.00380033278 1.9481281e-06
vn -0.999992728 -0.00380020915 2.41400744e-06
vn -0.999992788 -0.00379496557 -1.36135641e-05
g 
usemtl default
f 1/1/1 2/1/2 3/1/3
f 3/1/4 2/1/5 4/1/6
f 3/1/7 4/1/8 5/1/9
f 3/1/10 5/1/11 6/1/12
f 6/1/13 5/1/14 7/1/15
f 6/1/16 7/1/17 8/1/18
f 8/1/19 7/1/20 9/1/21
f 8/1/22 9/1/23 10/1/24
f 2/1/25 1/1/26 13/1/27
f 13/1/28 1/1/29 14/1/30
f 13/1/31 14/1/32 15/1/33
f 15/1/34 14/1/35 16/1/36
f 15/1/37 16/1/38 17/1/39
f 17/1/40 16/1/41 18/1/42
f 17/1/43 18/1/44 19/1/45
f 19/1/46 18/1/47 20/1/48
f 19/1/49 20/1/50 21/1/51
f 21/1/52 20/1/53 22/1/54
f 21/1/55 22/1/56 23/1/57
f 21/1/58 23/1/59 24/1/60
f 24/1/61 23/1/62 25/1/63
f 24/1/64 25/1/65 26/1/66
f 26/1/67 25/1/68 27/1/69
f 27/1/70 25/1/71 28/1/72
f 27/1/73 28/1/74 12/1/75
f 12/1/76 28/1/77 11/1/78
f 29/1/79 12/1/80 30/1/81
f 30/1/82 12/1/83 11/1/84
f 31/1/85 32/1/86 33/1/87
f 33/1/88 32/1/89 34/1/90
f 33/1/91 34/1/92 35/1/93
f 35/1/94 34/1/95 36/1/96
f 35/1/97 36/1/98 37/1/99
f 35/1/100 37/1/101 38/1/102
f 38/1/103 37/1/104 30/1/105
f 30/1/106 37/1/107 29/1/108
f 32/1/109 31/1/110 41/1/111
f 41/1/112 31/1/113 42/1/114
f 41/1/115 42/1/116 43/1/117
f 43/1/118 42/1/119 44/1/120
f 44/1/121 42/1/122 45/1/123
f 44/1/124 45/1/125 46/1/126
f 44/1/127 46/1/128 47/1/129
f 47/1/130 46/1/131 48/1/132
f 47/1/133 48/1/134 49/1/135
f 49/1/136 48/1/137 50/1/138
f 49/1/139 50/1/140 51/1/141
f 51/1/142 50/1/143 52/1/144
f 51/1/145 52/1/146 53/1/147
f 53/1/148 52/1/149 54/1/150
f 53/1/151 54/1/152 55/1/153
f 55/1/154 54/1/155 56/1/156
f 55/1/157 56/1/158 57/1/159
f 57/1/160 56/1/161 39/1/162
f 57/1/163 39/1/164 40/1/165
f 58/1/166 40/1/167 59/1/168
f 59/1/169 40/1/170 39/1/171
f 60/1/172 61/1/173 62/1/174
f 62/1/175 61/1/176 63/1/177
f 62/1/178 63/1/179 64/1/180
f 64/1/181 63/1/182 65/1/183
f 64/1/184 65/1/185 66/1/186
f 66/1/187 65/1/188 67/1/189
f 66/1/190 67/1/191 58/1/192
f 66/1/193 58/1/194 59/1/195
f 61/1/196 60/1/197 70/1/198
f 70/1/199 60/1/200 71/1/201
f 70/1/202 71/1/203 72/1/204
f 72/1/205 71/1/206 73/1/207
f 72/1/208 73/1/209 74/1/210
f 74/1/211 73/1/212 75/1/213
f 74/1/214 75/1/215 76/1/216
f 76/1/217 75/1/218 77/1/219
f 77/1/220 75/1/221 78/1/222
f 77/1/223 78/1/224 79/1/225
f 79/1/226 78/1/227 80/1/228
f 79/1/229 80/1/230 81/1/231
f 81/1/232 80/1/233 82/1/234
f 81/1/235 82/1/236 83/1/237
f 83/1/238 82/1/239 84/1/240
f 83/1/241 84/1/242 85/1/243
f 83/1/244 85/1/245 86/1/246
f 86/1/247 85/1/248 87/1/249
f 86/1/250 87/1/251 88/1/252
f 88/1/253 87/1/254 69/1/255
f 69/1/256 87/1/257 68/1/258
f 89/1/259 69/1/260 90/1/261
f 90/1/262 69/1/263 68/1/264
f 91/1/265 92/1/266 93/1/267
f 91/1/268 93/1/269 94/1/270
f 94/1/271 93/1/272 95/1/273
f 94/1/274 95/1/275 96/1/276
f 96/1/277 95/1/278 97/1/279
f 96/1/280 97/1/281 98/1/282
f 98/1/283 97/1/284 89/1/285
f 98/1/286 89/1/287 90/1/288
f 92/1/289 91/1/290 101/1/291
f 101/1/292 91/1/293 102/1/294
f 101/1/295 102/1/296 103/1/297
f 103/1/298 102/1/299 104/1/300
f 103/1/301 104/1/302 105/1/303
f 105/1/304 104/1/305 106/1/306
f 105/1/307 106/1/308 107/1/309
f 105/1/310 107/1/311 108/1/312
f 108/1/313 107/1/314 109/1/315
f 108/1/316 109/1/317 110/1/318
f 110/1/319 109/1/320 111/1/321
f 111/1/322 109/1/323 112/1/324
f 111/1/325 112/1/326 113/1/327
f 113/1/328 112/1/329 114/1/330
f 113/1/331 114/1/332 115/1/333
f 115/1/334 114/1/335 116/1/336
f 115/1/337 116/1/338 117/1/339
f 117/1/340 116/1/341 99/1/342
f 117/1/343 99/1/344 100/1/345
f 9/1/346 100/1/347 10/1/348
f 10/1/349 100/1/350 99/1/351
f 89/1/352 100/1/353 69/1/354
f 29/1/355 40/1/356 12/1/357
f 12/1/358 2/1/359 13/1/360
f 29/1/361 55/1/362 57/1/363
f 29/1/364 57/1/365 40/1/366
f 58/1/367 69/1/368 100/1/369
f 58/1/370 100/1/371 40/1/372
f 40/1/373 100/1/374 9/1/375
f 40/1/376 9/1/377 12/1/378
f 12/1/379 7/1/380 5/1/381
f 12/1/382 5/1/383 4/1/384
f 69/1/385 58/1/386 67/1/387
f 100/1/388 89/1/389 117/1/390
f 9/1/391 7/1/392 12/1/393
f 69/1/394 61/1/395 70/1/396
f 47/1/397 49/1/398 29/1/399
f 29/1/400 49/1/401 51/1/402
f 29/1/403 53/1/404 55/1/405
f 65/1/406 63/1/407 69/1/408
f 63/1/409 61/1/410 69/1/411
f 69/1/412 72/1/413 74/1/414
f 115/1/415 117/1/416 108/1/417
f 12/1/418 15/1/419 17/1/420
f 29/1/421 44/1/422 47/1/423
f 29/1/424 51/1/425 53/1/426
f 69/1/427 67/1/428 65/1/429
f 117/1/430 89/1/431 97/1/432
f 117/1/433 97/1/434 95/1/435
f 95/1/436 93/1/437 117/1/438
f 92/1/439 101/1/440 117/1/441
f 117/1/442 101/1/443 103/1/444
f 113/1/445 108/1/446 111/1/447
f 12/1/448 21/1/449 24/1/450
f 44/1/451 29/1/452 37/1/453
f 37/1/454 43/1/455 44/1/456
f 88/1/457 69/1/458 76/1/459
f 93/1/460 92/1/461 117/1/462
f 117/1/463 103/1/464 105/1/465
f 117/1/466 105/1/467 108/1/468
f 12/1/469 17/1/470 19/1/471
f 69/1/472 70/1/473 72/1/474
f 12/1/475 19/1/476 21/1/477
f 24/1/478 26/1/479 27/1/480
f 34/1/481 37/1/482 36/1/483
f 32/1/484 41/1/485 37/1/486
f 41/1/487 43/1/488 37/1/489
f 69/1/490 74/1/491 76/1/492
f 88/1/493 76/1/494 77/1/495
f 86/1/496 88/1/497 79/1/498
f 108/1/499 113/1/500 115/1/501
f 12/1/502 4/1/503 2/1/504
f 13/1/505 15/1/506 12/1/507
f 24/1/508 27/1/509 12/1/510
f 34/1/511 32/1/512 37/1/513
f 77/1/514 79/1/515 88/1/516
f 110/1/517 111/1/518 108/1/519
f 83/1/520 86/1/521 79/1/522
f 83/1/523 79/1/524 81/1/525
f 11/1/526 10/1/527 30/1/528
f 90/1/529 99/1/530 116/1/531
f 99/1/532 59/1/533 10/1/534
f 10/1/535 59/1/536 39/1/537
f 10/1/538 39/1/539 30/1/540
f 96/1/541 98/1/542 116/1/543
f 66/1/544 59/1/545 68/1/546
f 68/1/547 59/1/548 90/1/549
f 90/1/550 59/1/551 99/1/552
f 30/1/553 39/1/554 56/1/555
f 3/1/556 6/1/557 11/1/558
f 11/1/559 6/1/560 8/1/561
f 11/1/562 8/1/563 10/1/564
f 116/1/565 98/1/566 90/1/567
f 73/1/568 71/1/569 68/1/570
f 60/1/571 62/1/572 68/1/573
f 68/1/574 62/1/575 64/1/576
f 30/1/577 54/1/578 52/1/579
f 11/1/580 14/1/581 1/1/582
f 106/1/583 96/1/584 107/1/585
f 104/1/586 102/1/587 94/1/588
f 75/1/589 73/1/590 68/1/591
f 68/1/592 71/1/593 60/1/594
f 30/1/595 48/1/596 46/1/597
f 116/1/598 114/1/599 96/1/600
f 96/1/601 106/1/602 104/1/603
f 104/1/604 94/1/605 96/1/606
f 68/1/607 64/1/608 66/1/609
f 30/1/610 56/1/611 54/1/612
f 96/1/613 114/1/614 112/1/615
f 96/1/616 112/1/617 109/1/618
f 94/1/619 102/1/620 91/1/621
f 75/1/622 68/1/623 87/1/624
f 11/1/625 22/1/626 20/1/627
f 30/1/628 52/1/629 50/1/630
f 30/1/631 50/1/632 48/1/633
f 30/1/634 46/1/635 45/1/636
f 11/1/637 23/1/638 22/1/639
f 18/1/640 16/1/641 11/1/642
f 78/1/643 75/1/644 84/1/645
f 11/1/646 20/1/647 18/1/648
f 75/1/649 85/1/650 84/1/651
f 38/1/652 45/1/653 42/1/654
f 38/1/655 42/1/656 31/1/657
f 38/1/658 30/1/659 45/1/660
f 23/1/661 11/1/662 28/1/663
f 11/1/664 1/1/665 3/1/666
f 96/1/667 109/1/668 107/1/669
f 87/1/670 85/1/671 75/1/672
f 23/1/673 28/1/674 25/1/675
f 11/1/676 16/1/677 14/1/678
f 80/1/679 84/1/680 82/1/681
f 84/1/682 80/1/683 78/1/684
f 38/1/685 33/1/686 35/1/687
f 38/1/688 31/1/689 33/1/690
