# File exported by Houdini 21.0.440 (www.sidefx.com)
# 1113 points
# 6666 vertices
# 2222 primitives
# Bounds: [-0.0438125916, -0.00161439355, -0.0383770615] to [0.039504651, 0.0946698636, 0.0446481928]
g 
v -0.0329838842 -0.000602286425 -0.0023036818
v -0.0308535546 -0.000501720875 -0.00882034656
v -0.0357216895 0.00209470373 0.00208930182
v -0.0310842488 -0.00151705963 0.0014232964
v -0.0301793795 0.000758770737 -0.0144494297
v -0.0271626208 -0.00102250837 -0.0147313057
v -0.0298919454 -0.00161439355 -0.00453049317
v -0.0271058362 -0.00161222054 -0.0103909485
v -0.0254675709 -0.000296654965 -0.0187408011
v -0.0222359356 -0.00158297864 -0.0177248251
v -0.0218172669 -0.00117679022 -0.0131348716
v -0.0268537477 -0.00112904026 0.000640372338
v -0.0190403443 -0.000590228359 -0.0232497118
v -0.017611891 -0.00138055487 -0.0213599913
v -0.00521084201 -0.0011389401 0.00700916722
v -0.0121404827 -0.00115305337 -0.0214449987
v -0.0117900604 -0.00103375339 -0.0254580006
v -0.0101967566 0.000526265474 -0.0286970381
v 0.00115825178 -0.0011447717 -0.0220375657
v -0.00270730909 -0.000573692203 -0.0282639787
v -0.000530036283 -0.00127005519 -0.0256091002
v -0.0340904891 0.000608870527 0.00693761697
v -0.0308853928 -0.00137698138 0.0073443763
v -0.031086782 -0.000830794394 0.012049838
v -0.0274614412 -0.00159432902 0.0157420076
v -0.0318434611 0.0018598903 0.0166746993
v -0.0278926287 -0.000125815641 0.0205274615
v -0.0216875486 -0.00113391783 0.0160329454
v -0.0231530052 -0.001586247 0.022185348
v -0.0209328327 -7.6032069e-05 0.0279509388
v -0.019424431 -0.00129108981 0.0254559536
v -0.015017014 -0.00148375845 0.0279037263
v -0.0199583769 0.00124824489 0.0298579168
v -0.00441783527 -0.00113373704 0.0272492655
v -0.0119692702 -0.00122816185 0.0301898513
v -0.015012688 0.000645180698 0.0318222977
v -0.00729351351 -0.00018356707 0.0331342183
v -0.00603960594 -0.00101646327 0.0316304043
v -0.000746838166 -0.000591783144 0.0328944288
v -0.0363410115 0.00415376015 -0.00507267285
v -0.0367712639 0.00748231402 -0.0079381112
v -0.0376693569 0.00705396291 -0.00307650678
v -0.0359451845 0.015006274 -0.0114787146
v -0.0345379561 0.00751933735 -0.0136937276
v -0.0383428186 0.0145283015 -0.00184857892
v -0.037428312 0.0192526542 -0.00706440862
v -0.0383104831 0.00915366504 0.00131848548
v -0.0358405225 0.0286300667 -0.0115196779
v -0.0383835435 0.022511119 0.000946374261
v -0.0381578319 0.0391303599 -0.00184776611
v -0.0374065004 0.0380299315 -0.00642670784
v -0.0362329371 0.0443178602 -0.0102108195
v -0.0382429659 0.0351157002 0.00377588556
v -0.0378750786 0.0530909933 -0.00185612391
v -0.037270207 0.0557905994 -0.00636582216
v -0.0359616876 0.0573339351 -0.0105017638
v -0.0381981321 0.0526286662 0.00266507245
v -0.037763413 0.0654211789 -0.00308469287
v -0.0360589363 0.0701458007 -0.0101079093
v -0.0300113466 0.0028897298 -0.0176580027
v -0.0334861316 0.00232540513 -0.0104293944
v -0.0345443264 0.00119746407 -0.0045046052
v -0.032131657 0.00274327141 -0.00192686007
v -0.033012908 0.00552476849 -0.00685175369
v -0.0306687485 0.00710937055 -0.0194307156
v -0.0326130167 0.00851061661 -0.0108830379
v -0.0346847735 0.00850280933 -0.0039202529
v -0.0340480953 0.00508764619 0.000948666304
v -0.0338893272 0.0150224138 -0.015960535
v -0.0307179056 0.0123823024 -0.0203981716
v -0.0345819481 0.0162758548 -0.00599860447
v -0.0319265127 0.0161352996 -0.0132214203
v -0.0350911431 0.00792607758 0.00306678121
v -0.0354611985 0.0141536351 0.000526470481
v -0.0335564949 0.0218673255 -0.00918474793
v -0.0341346934 0.022785956 -0.0150577035
v -0.02977526 0.0187281538 -0.0216084607
v -0.0352635384 0.0250848643 -0.00108324841
v -0.0310773924 0.0248670876 -0.0194759555
v -0.0308329705 0.0297151618 -0.0148342317
v -0.0338619724 0.0309758689 -0.0157103445
v -0.0328910276 0.0334733538 -0.0106318947
v -0.0339983888 0.0368259624 -0.00743381167
v -0.0352244601 0.0328013115 0.000800486712
v -0.0289795287 0.0309954546 -0.0220432002
v -0.0323054567 0.0375204459 -0.0175693035
v -0.0340698585 0.0414506197 -0.0149906054
v -0.0347336791 0.0425372906 -0.00414486555
v -0.0351939574 0.0465202518 0.00212703273
v -0.0315372646 0.045860067 -0.0132897543
v -0.033450257 0.051580064 -0.0159601085
v -0.0303354971 0.0494557135 -0.0202006679
v -0.0336587392 0.0495730154 -0.00846359134
v -0.0348047689 0.0561725348 -0.00243577454
v -0.0320843086 0.0540504977 -0.0118801286
v -0.034274511 0.0632341504 -0.00546325836
v -0.0351848789 0.0598790124 0.00176767271
v -0.0323085487 0.0638219789 -0.0176572502
v -0.0345348082 0.0639076158 -0.0137802428
v -0.0325524434 0.0646406412 -0.010807422
v -0.0291504785 0.0638587475 -0.0217066221
v -0.0298257787 0.00313692633 -0.0104771834
v -0.0278333072 0.00192231906 -0.00964334235
v -0.0308566093 0.00202591042 -0.000438241404
v -0.0266808253 0.00629200833 -0.0236250423
v -0.0292744096 0.00949923228 -0.0169040561
v -0.0295005981 0.00530756405 -0.0143243857
v -0.0263846908 0.00301609235 -0.0162023883
v -0.0263649225 0.00986037869 -0.0249989685
v -0.0264670085 0.0188019201 -0.020852631
v -0.0300655849 0.0239044838 -0.0156628471
v -0.0257192813 0.028902391 -0.0211769156
v -0.0292551257 0.0393757075 -0.0214230511
v -0.0291452017 0.0401843861 -0.0167069342
v -0.0264834985 0.0476269871 -0.0243263561
v -0.026739426 0.058655262 -0.0238545947
v -0.0287929606 0.0533004589 -0.0172382165
v -0.0299759917 0.0620655678 -0.0157462154
v -0.027255537 0.0664224252 -0.0192728955
v -0.0236964431 0.00391466171 -0.0251791477
v -0.0226062741 0.00148450746 -0.0237882119
v -0.0218757186 0.00301111676 -0.0208574347
v -0.0210600551 0.00197005924 -0.0191463176
v 0.00295489095 0.00189739221 -0.0118943518
v -0.0216989014 0.00763605628 -0.0282188822
v -0.0250855219 0.00927409716 -0.0219117627
v -0.0251787305 0.0054451949 -0.019951446
v -0.0260339137 0.017555451 -0.0255846065
v -0.0215865318 0.0138289407 -0.0290431436
v -0.0220254995 0.0200330131 -0.0249123778
v -0.0251506157 0.0276479851 -0.0257617049
v -0.0209824629 0.0236357916 -0.0291480217
v -0.0242633522 0.0355229564 -0.0264887083
v -0.0244461149 0.0390637852 -0.0220634099
v -0.0242646039 0.0412832722 -0.0260318872
v -0.0256892648 0.0473866388 -0.0209287778
v -0.020693345 0.0498356968 -0.0249591973
v -0.0232388899 0.0564590208 -0.0228855666
v -0.0252976678 0.0638992637 -0.0213197358
v -0.0238965116 0.066091463 -0.0264498014
v -0.017238196 0.00164882955 -0.0272939242
v -0.0198842734 0.00661960803 -0.0253393278
v -0.0214652214 0.0136421835 -0.0253687631
v -0.0157062616 0.0270897225 -0.0315636173
v -0.0198734012 0.0274125524 -0.0260314681
v -0.0191178136 0.0343963765 -0.0300354101
v -0.0214434899 0.0354822315 -0.0248206053
v -0.0209603943 0.0465238839 -0.0284569375
v -0.0182417594 0.0386901721 -0.0268711336
v -0.0206248313 0.0563856587 -0.0284137018
v -0.0179393664 0.0610510074 -0.0299664494
v -0.0208775122 0.0654072911 -0.0247773025
v -0.0151329888 0.00356605533 -0.0301010776
v -0.0168289132 0.0034156898 -0.0246117041
v -0.0143352952 0.0021477351 -0.0237622987
v -0.0160560552 0.00861448329 -0.0314981155
v -0.0160696972 0.0117072603 -0.0284593571
v -0.0150900837 0.00766601507 -0.0282716583
v -0.0150604527 0.0159779787 -0.0323235691
v -0.0161565635 0.0184172522 -0.0284622125
v -0.0152520761 0.0264920481 -0.0284516662
v -0.0165283475 0.0434426516 -0.0309824552
v -0.0139390985 0.0374712646 -0.0321427993
v -0.0157858711 0.0480394475 -0.0278302059
v -0.0162171163 0.0606094971 -0.0274629947
v -0.0123746879 0.00402877573 -0.0273786094
v -0.00867653452 0.00193860359 -0.024763152
v -0.0114639355 0.00712519139 -0.0328970142
v -0.0104069458 0.0066724061 -0.0297685564
v -0.00991836935 0.0112419138 -0.0307596307
v -0.0118752206 0.0193551444 -0.0333205909
v -0.0107620396 0.0181247108 -0.0305138174
v -0.00869490672 0.0253529493 -0.0338267013
v -0.0131191295 0.0424365699 -0.029107362
v -0.0107436562 0.0308912136 -0.0299532581
v -0.00961561874 0.0387060456 -0.0302859005
v -0.0102066332 0.0495450608 -0.0329471827
v -0.0131927291 0.0591671355 -0.0318789855
v -0.0115676196 0.0594442263 -0.0291939061
v -0.0149030462 0.0713569075 -0.0308964327
v -0.00866945926 0.00315660122 -0.0317680985
v -0.00528280251 0.00509394705 -0.0298226234
v -0.00632383488 0.00290485704 -0.0275659971
v -0.00559686311 0.00749267545 -0.0340217091
v -0.00789979938 0.0118760299 -0.0343832374
v -0.0056371754 0.0086975554 -0.0311393216
v -0.00679374393 0.0255049225 -0.0310503636
v -0.00692380266 0.0411550663 -0.0339613855
v -0.00723844394 0.0527821928 -0.0303188916
v -0.00767180137 0.0615717582 -0.0332573652
v -0.00549249211 0.0619174205 -0.0305109229
v -0.00394026702 0.00283628982 -0.0321092643
v 0.00312674162 0.00191078638 -0.0234619305
v -0.000121628516 0.00390987052 -0.0289681554
v -0.00177656556 0.0132266972 -0.0348527469
v -0.00400214968 0.0137647642 -0.0317642018
v -0.00506405439 0.0244797654 -0.0343425833
v -0.00218683667 0.0231065638 -0.0315334387
v -0.00131666905 0.0279276185 -0.03440772
v -0.00391009916 0.0428097397 -0.031145772
v -0.00133071933 0.0482541285 -0.0340281278
v -0.0033418329 0.0542931557 -0.03366502
v -0.00332343415 0.0548910052 -0.0305884425
v -0.000547903008 0.0610557944 -0.0336288586
v -0.00634180615 0.0704591498 -0.0297979433
v 0.00351118622 0.00291290414 -0.031687513
v 0.00344839203 0.000756100286 -0.0296747778
v -0.000522823946 0.00238038017 -0.0268689226
v 0.0018754967 0.00607626 -0.0335009359
v 0.00239840499 0.00630175974 -0.0302220415
v 0.00264526648 0.0105332974 -0.0312842391
v 0.00196344196 0.0191758443 -0.034508083
v 0.00254066358 0.0281964727 -0.0309167933
v 1.13105034e-05 0.0369426459 -0.0342086516
v 0.00230349111 0.0437851436 -0.0307690836
v 0.0014394155 0.0551822744 -0.0304511916
v 0.00109507237 0.0638139173 -0.030313408
v -0.0399037041 0.0853769183 -0.00367815699
v -0.0427223742 0.0909984037 -0.00532632228
v -0.0407420248 0.0859954059 0.00285459543
v -0.0379958451 0.0894491374 -0.0189603493
v -0.0415993705 0.0921263918 -0.0104648704
v -0.0380343944 0.0866690874 -0.0129005518
v -0.0384206399 0.0844266936 -0.00815696362
v -0.0438125916 0.093419984 0.000100354911
v -0.0435750559 0.0909412727 0.00322162779
v -0.0398798324 0.0908044428 -0.000473100226
v -0.0396016501 0.0927149281 -0.0158554967
v -0.0393297523 0.09414085 -0.0146478442
v -0.0410269834 0.0943390206 -0.00913563091
v -0.0387453102 0.0944739655 -0.01324738
v -0.0429598801 0.0937611386 -0.00466282945
v -0.0407246165 0.0941787511 -0.00395758636
v -0.03896413 0.094024241 -0.009877773
v -0.0422875658 0.0946368724 -0.00157682528
v -0.0415126123 0.0944443122 0.00179889472
v -0.038998004 0.0907088146 -0.00542886043
v -0.0370816886 0.0739833862 -0.00714191049
v -0.0380810723 0.074327223 -0.00148110033
v -0.0357232578 0.0766841546 -0.0127548371
v -0.0375112668 0.0797536373 -0.00824371539
v -0.0384962931 0.0764975548 0.00252465368
v -0.039244853 0.0822155327 -5.74101505e-05
v -0.0357146002 0.0829255059 -0.0152662452
v -0.036270272 0.0827141404 0.000479354931
v -0.0341135673 0.0865443945 -0.0142501611
v -0.035955172 0.085193783 -0.0059100911
v -0.037768364 0.0869005769 0.0019045911
v -0.0358195752 0.091640614 -0.0283971988
v -0.0374006219 0.0905408785 -0.023164358
v -0.03734174 0.0929311737 -0.0216700193
v -0.0358434729 0.0886944309 -0.0274668355
v -0.0362847634 0.0909058824 -0.0144224139
v -0.036123693 0.093928054 -0.0202341285
v -0.0364675373 0.0938836932 -0.0159457438
v -0.0324656926 0.0711961389 -0.0172689278
v -0.0338264145 0.0725998208 -0.00721175037
v -0.0310580283 0.0722266808 -0.0137527697
v -0.0348102637 0.0742243156 -0.00282397703
v -0.0315733328 0.0745873749 -0.0189782027
v -0.0332895145 0.0776846707 -0.0109431082
v -0.0351807773 0.0714005604 0.00336780632
v -0.0339598507 0.0835884362 -0.0209427401
v -0.0322398841 0.0794151574 -0.0202370286
v -0.0339090936 0.0825972408 -0.0110547831
v -0.0356168561 0.0777635053 0.00266752485
v -0.0308105685 0.0812516361 -0.0270674173
v -0.032366205 0.0845032111 -0.0289885662
v -0.0299940594 0.080402188 -0.0180685949
v -0.0341663323 0.088943556 -0.0325428359
v -0.0320314057 0.0887794793 -0.0344865024
v -0.0293500759 0.0838762522 -0.0254155863
v -0.0347238705 0.0908845291 -0.0321318656
v -0.0323425233 0.0904726014 -0.0348843671
v -0.0329463631 0.0925990343 -0.0329433568
v -0.0335908458 0.0919558778 -0.0282777417
v -0.031854596 0.0893462002 -0.029161213
v -0.0308544263 0.0916743129 -0.0326382481
v -0.0337721072 0.0901944041 -0.0228996407
v -0.0345694683 0.0927761048 -0.0220325198
v -0.0346939564 0.0925058201 -0.027997883
v -0.0270774513 0.0717471913 -0.024835214
v -0.0257123411 0.0710335672 -0.0217570011
v -0.029531613 0.076295048 -0.0238005947
v -0.027924845 0.0765057355 -0.0260110591
v -0.0258441549 0.074542813 -0.0224371534
v -0.0270306654 0.0802779868 -0.0292098727
v -0.0270935223 0.0783601031 -0.0230982248
v -0.0300470926 0.0860196874 -0.0272765048
v -0.029837871 0.0861018449 -0.0325622559
v -0.0273862444 0.0860585123 -0.0293257311
v -0.0268923379 0.0892535523 -0.0359723754
v -0.0287601314 0.09168908 -0.0356814303
v -0.0288926903 0.0919950902 -0.0336205922
v -0.0281122103 0.0923224911 -0.0348732993
v -0.0223300569 0.0763006285 -0.0288924072
v -0.0216515362 0.073941052 -0.0249454379
v -0.0229017735 0.0796827301 -0.0301259924
v -0.0261196494 0.0804045722 -0.0257638954
v -0.0232286509 0.085647732 -0.0335346572
v -0.022000771 0.0833282396 -0.0287622195
v -0.0205226392 0.07894741 -0.0270455722
v -0.0229177456 0.0906331837 -0.0365668088
v -0.0228886418 0.0924397185 -0.033861924
v -0.0155561622 0.0903884917 -0.0331340022
v -0.017126739 0.0857500061 -0.0303761177
v -0.0221660882 0.0924832821 -0.0362590849
v -0.0222506896 0.0932657793 -0.0349391215
v -0.0192478169 0.0732570961 -0.0293334909
v -0.0169627983 0.0832796767 -0.0327698439
v -0.0160612147 0.0863254741 -0.0342180543
v -0.0152707361 0.0900228173 -0.0364920422
v -0.0176315736 0.0934618711 -0.0359680317
v -0.0163162947 0.0718196481 -0.0271577276
v -0.0153270084 0.0784850344 -0.0284805819
v -0.0145534249 0.0784462318 -0.0319077969
v -0.0115818717 0.0919801891 -0.0372540317
v -0.0146596804 0.0930590034 -0.0341966003
v -0.014330497 0.0939153358 -0.0349622108
v -0.011213053 0.071156159 -0.028778078
v -0.00719487527 0.0685709342 -0.0329557694
v -0.00903480779 0.0735548884 -0.032548517
v -0.00714462344 0.0803521574 -0.0335259885
v -0.00914572086 0.0779676735 -0.0298928488
v -0.00953536667 0.0860501379 -0.0312370732
v -0.00761382887 0.0848907232 -0.0342338309
v -0.0126979938 0.0936718211 -0.036579255
v -0.0056048478 0.0823908746 -0.0306607597
v -0.00407020934 0.0908505917 -0.0345627889
v -0.00538212527 0.0943289995 -0.0366589762
v -0.00593132805 0.0938250199 -0.0375136286
v -0.00792348757 0.0937036499 -0.0350727662
v -0.00374075538 0.0712447688 -0.0329716355
v -0.00160548755 0.0710620955 -0.0298646148
v -0.00076534634 0.0781969428 -0.0333422273
v -0.000640750572 0.0847281814 -0.0343574025
v -0.000811921083 0.0861389935 -0.0316507034
v -0.00243577315 0.0903639644 -0.0378904119
v -0.000315149926 0.0925721154 -0.0383770615
v -0.00281241839 0.0938867629 -0.0355345234
v 0.00317854388 0.0723606795 -0.0325796306
v 0.000537752989 0.0771089718 -0.0300861299
v 0.000439944357 0.0834975094 -0.0308132693
v 0.00354096177 0.0906335562 -0.0340087861
v 0.00175969396 0.0943602994 -0.0355990753
v 0.00385745778 0.0945291445 -0.0368521065
v -0.0376650915 0.00601329422 0.00428757584
v -0.0377123691 0.00868106075 0.00852365419
v -0.0362146161 0.00529836165 0.0109407613
v -0.0363041051 0.0100391377 0.0143888798
v -0.0383464359 0.015142682 0.00593139371
v -0.0373242721 0.0130304443 0.0112233711
v -0.036044538 0.0207786057 0.0151158283
v -0.0374627933 0.0206385981 0.00982460193
v -0.0380628705 0.024688011 0.00392276701
v -0.0374682583 0.0304630958 0.00882654078
v -0.0353275873 0.0304525364 0.0167402998
v -0.037397027 0.0363917053 0.0110438196
v -0.0352752469 0.0371523611 0.0172236171
v -0.0379943363 0.0446222499 0.00706127798
v -0.036776185 0.0437668934 0.0129647134
v -0.0373872556 0.0536705442 0.0104672136
v -0.0356127694 0.0507073551 0.0160974544
v -0.038051568 0.0596793704 0.00550766895
v -0.0375114605 0.061434336 0.0084171351
v -0.0358042233 0.0599164106 0.0154332304
v -0.0381947905 0.0666694567 0.00266916817
v -0.0375124626 0.0669889823 0.0100561837
v -0.0351765938 0.0657670125 0.0172408409
v -0.0312867723 0.00249630632 0.00724553736
v -0.0341265686 0.002193138 0.0115977144
v -0.034388788 0.00627450179 0.0167647526
v -0.0312042963 0.0055710813 0.0217145197
v -0.0338525921 0.00628083013 0.00850072876
v -0.0325165913 0.00703977654 0.0136713674
v -0.0306554772 0.00326434127 0.0122232484
v -0.0333446488 0.0104753282 0.0205205027
v -0.0351449884 0.0158845391 0.00705116661
v -0.0342748985 0.0107978666 0.010888584
v -0.0313177891 0.00932910945 0.0178135075
v -0.0337975174 0.0189890619 0.0203425977
v -0.032994926 0.016221961 0.0148723815
v -0.0337102599 0.0239769556 0.0120649524
v -0.0310263727 0.0240376703 0.0190073419
v -0.0351238623 0.0230503306 0.00312578748
v -0.0347096473 0.0300528724 0.00647046044
v -0.0311853774 0.0209849905 0.0235314276
v -0.0337600671 0.0319815762 0.0117311412
v -0.0336975083 0.0362352543 0.0202935208
v -0.0320696682 0.0359578505 0.0223956779
v -0.0351057202 0.0375113003 0.00663283654
v -0.0334391668 0.0378584452 0.0137543185
v -0.0348466858 0.0475627594 0.00668435916
v -0.0343518853 0.046664983 0.0100029241
v -0.0334569849 0.0521353967 0.0130728791
v -0.0320815109 0.0503053032 0.0166309848
v -0.0335657336 0.0506867357 0.0206604172
v -0.0316675343 0.0515441857 0.0230856054
v -0.0349860266 0.0560570061 0.00619833171
v -0.0330203138 0.0650444627 0.0213087946
v -0.0342455395 0.0607973896 0.00930687226
v -0.0330091529 0.0644289479 0.0144587094
v -0.0304451324 0.0618199483 0.0247073509
v -0.0347524919 0.0673444644 0.00818855781
v -0.0310727209 0.0559416302 0.0187416207
v -0.0280029681 0.00195488846 0.0131601077
v -0.0271711443 0.0029092331 0.018623611
v -0.0285827126 0.00483775372 0.019091038
v -0.0265236311 0.00209786557 0.024647899
v -0.0280605908 0.00626649382 0.026163619
v -0.0280328058 0.0103166066 0.0223284867
v -0.0294258352 0.0118697155 0.0257700253
v -0.0283471514 0.0190626346 0.0221449509
v -0.0284270458 0.0243473183 0.0275660213
v -0.0309225619 0.0365091413 0.018939836
v -0.0287944656 0.0310678408 0.0215947088
v -0.0299743228 0.036390435 0.0255396329
v -0.0271830671 0.0329300947 0.0288072247
v -0.0259650275 0.0266190674 0.0257823113
v -0.0272008497 0.0405054502 0.0242458973
v -0.0258291848 0.0377842598 0.0300606154
v -0.029006131 0.0471447743 0.0214712489
v -0.0296788327 0.0533125401 0.0261649173
v -0.0268380549 0.0521700829 0.0248640776
v -0.0269411877 0.0497156158 0.0290558394
v -0.0292167366 0.0588312596 0.0212531779
v -0.027653791 0.0629291236 0.0283197463
v -0.0285840295 0.0676861703 0.0225953814
v -0.0286510289 0.0699057132 0.0272774156
v -0.023674963 0.00203875499 0.0205991827
v -0.0210158285 0.00288959383 0.0256777965
v -0.0236253534 0.00507523865 0.0300415587
v -0.0239604246 0.0080214804 0.026714392
v -0.0220259316 0.0052023055 0.0269663949
v -0.0264257044 0.0108801676 0.0290515311
v -0.0256978255 0.0137871224 0.0257000476
v -0.0218284074 0.0107322428 0.032622803
v -0.0214993693 0.0124948369 0.0292528998
v -0.0253957734 0.0204121526 0.0303076729
v -0.0223603826 0.0259994213 0.0289840605
v -0.0236403067 0.028824592 0.0318831764
v -0.0244775303 0.0401169918 0.0271822326
v -0.0229800232 0.0428177975 0.0324814916
v -0.0225490201 0.0477381125 0.0286841895
v -0.0198970549 0.0485009998 0.0340913013
v -0.023317311 0.0560476929 0.028186135
v -0.024392968 0.0563035384 0.0312300343
v -0.0253576282 0.0635310858 0.0263443179
v -0.0240074731 0.0673495755 0.0314163938
v -0.0185619984 0.00192362815 0.0252104513
v -0.017524844 0.00485819578 0.0337305032
v -0.0173929166 0.00751080364 0.0311728641
v -0.0193257444 0.0226135124 0.0344752297
v -0.0201406833 0.0368325189 0.0304761939
v -0.0165213607 0.0178417861 0.032386627
v -0.0204582363 0.0359921157 0.033854343
v -0.0199411158 0.0425948016 0.0308261197
v -0.0168761779 0.0491999947 0.0322235599
v -0.018179452 0.0557481311 0.0317378528
v -0.0188811198 0.0558720976 0.0348330289
v -0.0210201349 0.061700996 0.0333110839
v -0.0204766858 0.0637766868 0.0300407037
v -0.0161527898 0.00298648886 0.0290390216
v -0.0109507609 0.00198248983 0.028691316
v -0.0130047901 0.00667657144 0.0328829475
v -0.013685625 0.00789690018 0.0363699868
v -0.0168953538 0.0148586268 0.0354221165
v -0.0147294169 0.0355024524 0.0333103053
v -0.0130116548 0.0250318367 0.0341076367
v -0.0132664237 0.0355669484 0.0371453911
v -0.0152510721 0.0429883897 0.0366514064
v -0.0147294803 0.0428288393 0.0335313119
v -0.0126924133 0.0494422615 0.0372907631
v -0.0135334348 0.0550097935 0.0339331776
v -0.0131316595 0.054763563 0.0373292901
v -0.0163814276 0.061608322 0.03236752
v -0.0165349077 0.06226933 0.0356750935
v -0.0100599835 0.00259895832 0.0306608509
v -0.00749601563 0.00560560636 0.0372610725
v -0.0125700049 0.011250562 0.0338041633
v -0.00960571785 0.00875646155 0.0344237015
v -0.0123950616 0.0192442723 0.0373910479
v -0.00865674205 0.0332614407 0.0351937935
v -0.0117099164 0.0477898195 0.0344143957
v -0.0118770059 0.0615479052 0.0344067849
v -0.0110765789 0.0600223169 0.0378126986
v -0.0132808359 0.0680028647 0.0373725109
v 0.00267952774 0.00192953774 0.0301589053
v -0.00254296907 0.00266634207 0.0319472998
v -0.00366156595 0.00668483553 0.0347855575
v -0.00705932174 0.00976659823 0.0381690338
v -0.00819352549 0.0195263159 0.0351599567
v -0.00538385799 0.0113444636 0.0354026891
v -0.00451244647 0.0171251688 0.0386238694
v -0.00866541453 0.0291127302 0.0382556766
v -0.00696297223 0.0493780114 0.0355013646
v -0.00754016591 0.0474637784 0.0384726264
v -0.00480463449 0.0593849123 0.035823416
v -0.0125899641 0.0675839409 0.0344365165
v -0.00243955757 0.0115611758 0.0385640115
v -0.00184829987 0.0231710896 0.0356897302
v -0.00251406804 0.0308643226 0.0387945063
v -0.00322021637 0.0410990827 0.035824582
v -0.00469785929 0.0396352038 0.0387705415
v -0.00502251694 0.0603669807 0.0388847739
v 0.000407808315 0.00202727946 0.0354477018
v -0.0021000125 0.0048002284 0.0372374021
v 0.00367816328 0.00366059784 0.0325650834
v 0.00113305065 0.00885131024 0.0383210815
v 0.0019853781 0.0138937552 0.0353934653
v 0.00098480517 0.0232567657 0.0385970585
v 0.00129610859 0.0316326544 0.0355993658
v 0.000964299659 0.0424293391 0.038835343
v 0.00314341439 0.044101011 0.0355790667
v 0.000620819454 0.0526965335 0.0358025581
v -0.000281923567 0.0521932207 0.0388835035
v -0.00191503612 0.0674592853 0.0360927358
v -0.00200671703 0.0691062361 0.0391190313
v -0.03972321 0.0856490284 0.0113930963
v -0.0426387899 0.0912291333 0.0124704009
v -0.0408864208 0.0932964757 0.0069309501
v -0.0408655293 0.0913718939 0.0181916691
v -0.0436060764 0.0936494693 0.00448673265
v -0.0421243832 0.0942766741 0.00581746222
v -0.0429251827 0.0931086764 0.0113387881
v -0.040762946 0.0939557254 0.01117614
v -0.0421969779 0.0940270647 0.011517562
v -0.0409055129 0.0938617066 0.0166753177
v -0.0400382392 0.0938336998 0.0138934301
v -0.0379966795 0.0749265924 0.00735750468
v -0.0367984101 0.0730688125 0.0126380827
v -0.0389543697 0.0817323104 0.00732012279
v -0.0371710919 0.080478929 0.0145551078
v -0.0347826481 0.0747525692 0.018091565
v -0.0358611122 0.082873486 0.00803674478
v -0.0369992107 0.0847722664 0.0189516861
v -0.0335487649 0.0791550651 0.021488715
v -0.0377536193 0.0882340148 0.0102800634
v -0.0348471366 0.0822259709 0.0127790561
v -0.035905391 0.0876895636 0.016061699
v -0.0372283421 0.0892605558 0.0239353962
v -0.0383248813 0.0931758434 0.018218575
v -0.035593234 0.0906759501 0.0211209077
v -0.0366994813 0.0926694945 0.0265270639
v -0.0339714475 0.0906255245 0.0299200676
v -0.0381137021 0.0939289331 0.0201450847
v -0.039180465 0.0930962488 0.0218150821
v -0.0377250127 0.094165355 0.0226997491
v -0.0351021513 0.0937089175 0.0237890072
v -0.035250593 0.0941684619 0.0264390875
v -0.0309453867 0.0686033219 0.0187801104
v -0.0346160531 0.0755680576 0.00947990175
v -0.0322321765 0.073447682 0.0161450282
v -0.0327326842 0.0781451687 0.0162891056
v -0.0310891252 0.0736551285 0.0240598451
v -0.0335285552 0.0848962963 0.0184256732
v -0.0294989888 0.0811508074 0.0226995442
v -0.0335280001 0.0842966586 0.0244896244
v -0.0311181396 0.0871918947 0.024615569
v -0.0305713005 0.0847769678 0.028750537
v -0.0314941518 0.0904119462 0.0272492096
v -0.0329908095 0.0929813981 0.0313165449
v -0.0326098502 0.0940967798 0.0280953683
v -0.0315653607 0.0932194963 0.0284802653
v -0.0313486494 0.0940424725 0.0316189751
v -0.0294001922 0.0746001303 0.0211426895
v -0.0260759909 0.0745078549 0.0255548283
v -0.0287929587 0.0760861933 0.0274018571
v -0.0288450476 0.0807640329 0.0287213065
v -0.0276934691 0.0861822292 0.0278448015
v -0.0260785725 0.084631592 0.0328321233
v -0.0294199288 0.0911339968 0.0346723683
v -0.0253746156 0.0909542069 0.0333962217
v -0.0273736492 0.0936749354 0.0358819366
v -0.0274046306 0.0940602571 0.0336161628
v -0.0248904116 0.0933413282 0.0347990282
v -0.0245645586 0.0747105852 0.030973617
v -0.0261161048 0.080914028 0.0269993953
v -0.0225230046 0.0810423046 0.0301168542
v -0.0230035819 0.0811553597 0.0336782336
v -0.0230296012 0.0874429494 0.0326817892
v -0.0253236704 0.0907510743 0.0375047512
v -0.0224595666 0.0929684862 0.0392696224
v -0.0225471687 0.0939256623 0.0374913327
v -0.0185620375 0.0690992177 0.0350293405
v -0.0193160232 0.0685017034 0.0310674626
v -0.0210268255 0.0735820606 0.0297537278
v -0.0200359914 0.0752372742 0.033916492
v -0.018205788 0.0783803612 0.0319849588
v -0.0181824602 0.0851773843 0.0340738408
v -0.0209865142 0.0855093598 0.0366823263
v -0.0180278141 0.0905251876 0.0374990962
v -0.0169876833 0.0907470137 0.0419130474
v -0.0189306363 0.0939677581 0.0393379964
v -0.0175953023 0.0929873735 0.038805604
v -0.0148040084 0.0754659474 0.0332021825
v -0.014052406 0.0748818219 0.0368901826
v -0.0172137804 0.0813716128 0.036518123
v -0.0136051821 0.0831784382 0.0350331888
v -0.0150154391 0.0859575942 0.0395277478
v -0.0124284988 0.0937966183 0.0410589464
v -0.017629832 0.0936201364 0.0411083139
v -0.0134186288 0.0922297463 0.0432690568
v -0.0112633044 0.0758820251 0.034549091
v -0.0123110451 0.0815106258 0.0382670686
v -0.0118097793 0.0872893184 0.0375736803
v -0.010045249 0.0893670768 0.0430982634
v -0.0108536128 0.0909193307 0.0401393771
v -0.0123806745 0.093516469 0.0430251285
v -0.0108099207 0.093912974 0.0423468165
v -0.00697534997 0.0717820823 0.0356243216
v -0.00629077107 0.0718689114 0.0387963951
v -0.00790812541 0.0775810629 0.0386153907
v -0.00619434472 0.0775212348 0.0358184986
v -0.00735642435 0.0823865458 0.0395852029
v -0.00733818766 0.0844377056 0.0369888842
v -0.00685604103 0.0863938332 0.0415678769
v -0.00619760389 0.0915519521 0.044524882
v -0.0043186238 0.0928626657 0.0446481928
v -0.00770502957 0.0936208069 0.0434147939
v -0.00595431356 0.0932921097 0.0421112031
v 0.000419040589 0.0747777 0.0359153822
v -0.00167452265 0.076966241 0.0390955694
v -0.00379094575 0.0816330686 0.0367197767
v -0.00310794218 0.0863529518 0.0382762142
v -0.00185064611 0.0906884 0.0411186703
v -0.00232045446 0.0902516767 0.0444024466
v 0.00368509674 0.0619406514 0.0356313959
v -0.00040060727 0.079062745 0.0362473093
v -7.40794494e-05 0.0840684548 0.0405303799
v 0.000468417653 0.0875720009 0.0389294326
v 0.00109093462 0.0907796323 0.0444125421
v 0.00131939875 0.0934959278 0.0417325571
v -0.00210803025 0.0939510688 0.0427611358
v -0.00134735019 0.093848668 0.0438721702
v 0.00409136526 0.0929917768 0.0439622253
v 0.00959960278 -0.000689109147 -0.0258572381
v 0.0122197447 -0.00114203326 -0.021414673
v 0.00957257766 0.00103711418 -0.0283413641
v 0.0213897564 -0.00114519929 -0.00676779076
v 0.0173097998 -0.000448731153 -0.0215159059
v 0.0219585449 -0.000887635397 -0.015376729
v 0.0254571568 -0.000885766523 -0.00833237451
v 0.0287022982 0.00111532887 -0.00873170048
v 0.0281173624 -0.000825218798 -0.00174572039
v 0.0275593512 -0.0010601785 0.00627799332
v 0.0299220122 0.00045174628 -0.00192227971
v 0.00798688829 -0.00110304821 0.0301107597
v 0.00642864965 -9.7806791e-05 0.0328853019
v 0.01420746 -0.000542658032 0.0289276689
v 0.0207643583 -0.0010846795 0.0213395339
v 0.0196758751 -0.000332382013 0.0248880982
v 0.0244427733 -0.000512281724 0.0188586563
v 0.0267036427 -0.000811551232 0.012684999
v 0.0298633128 0.000482465373 0.00743019953
v 0.00803997274 0.00233218959 -0.0250316132
v 0.00814505573 0.00368797034 -0.0270499997
v 0.0079639405 0.00802804437 -0.0327860825
v 0.00566632254 0.01242211 -0.03390304
v 0.0026122753 0.019168891 -0.0313171595
v 0.00474797143 0.0277985483 -0.0335665345
v 0.00469782297 0.0427728184 -0.0334167741
v 0.00651433598 0.0378356166 -0.0299807303
v 0.00345718046 0.0538630038 -0.0332911573
v 0.00465658633 0.0647298396 -0.0328395739
v 0.0103545859 0.00501282886 -0.0309037101
v 0.00799093768 0.00671556359 -0.0289843511
v 0.00786202773 0.0129559077 -0.030108301
v 0.0102598676 0.0263135806 -0.0320745185
v 0.00856541563 0.0230620019 -0.0295856446
v 0.00886025 0.0432502776 -0.0323855802
v 0.00991374906 0.0394331403 -0.028826369
v 0.00679452205 0.0594219044 -0.0292603076
v 0.00800133497 0.0555942915 -0.0321516395
v 0.0137319854 0.00246371189 -0.0277056843
v 0.0151275042 0.00287315715 -0.0222758912
v 0.014232262 0.00201090309 -0.0202321392
v 0.0144980429 0.00579584623 -0.0255037192
v 0.0126953777 0.0116766086 -0.0315307267
v 0.0117812892 0.0103006298 -0.0284532141
v 0.0135402055 0.0172542855 -0.0276410114
v 0.0134324273 0.0171277113 -0.0310332477
v 0.0147071714 0.0309133399 -0.0264964607
v 0.0138375182 0.0408197269 -0.0270264577
v 0.0120098088 0.0532957874 -0.0308103394
v 0.0148948384 0.0411668345 -0.029913675
v 0.0107349884 0.0557940938 -0.0279568955
v 0.0106622512 0.0636280105 -0.0312252901
v 0.0103526386 0.0659484416 -0.0279688258
v 0.0194999166 0.00272823358 -0.0239096116
v 0.0163838752 0.00713294791 -0.0287300181
v 0.0170031246 0.0117529454 -0.0256483238
v 0.0187558047 0.0109460028 -0.0280401669
v 0.0167578012 0.0203418937 -0.0291682463
v 0.0151907345 0.0310927145 -0.029665947
v 0.0160110071 0.0477072261 -0.0253834799
v 0.0146414787 0.0576566681 -0.0259588137
v 0.0162697528 0.0549723171 -0.0286291856
v 0.0202940945 0.00371925766 -0.0188738387
v 0.0237424299 0.00127253635 -0.0178020019
v 0.0208911803 0.00213996274 -0.0146219935
v 0.0263294596 0.00195613643 -0.00199796795
v 0.0220114626 0.00474479049 -0.0235917941
v 0.0217863787 0.00620030286 -0.0198856648
v 0.0216269661 0.00990326889 -0.0216737483
v 0.0180468373 0.0213759635 -0.0244806018
v 0.0217216127 0.0270674452 -0.0252906494
v 0.0213314947 0.0311960019 -0.0214804821
v 0.0186808445 0.0321470052 -0.0274265446
v 0.0193195455 0.0410165861 -0.0230056681
v 0.0202986058 0.0450452343 -0.026032906
v 0.0214017294 0.054159034 -0.02058894
v 0.0164904408 0.0679461434 -0.0281082746
v 0.0215574689 0.0587241985 -0.0243587214
v 0.0186995585 0.0708443001 -0.0228150245
v 0.0205251873 0.0736358464 -0.0252636336
v 0.024151545 0.00356746465 -0.0132500352
v 0.0254084915 0.00224560592 -0.00695671607
v 0.0247972738 0.00827226602 -0.0224701818
v 0.0265905261 0.00636542542 -0.0136261592
v 0.0237765349 0.0118077667 -0.0239216257
v 0.0259023346 0.0083756689 -0.0162621588
v 0.0257561766 0.0143290311 -0.0170725454
v 0.0247279108 0.0225476418 -0.0226345882
v 0.0230892338 0.0223781168 -0.0199389439
v 0.0237777531 0.0395634882 -0.018826697
v 0.0237656087 0.0462067351 -0.0229109023
v 0.0258639101 0.0590394177 -0.0202140845
v 0.024950156 0.0535454117 -0.0159676615
v 0.022524219 0.0664967522 -0.0194315314
v 0.0246565901 0.0677276775 -0.0216105711
v 0.0282494761 0.0031445194 -0.0137049956
v 0.0275857188 0.00576710002 -0.0178488996
v 0.0280919988 0.00452353712 -0.00710532535
v 0.0286675673 0.00356503855 -0.000462656841
v 0.0285149626 0.00329981721 0.00504500931
v 0.0289544407 0.0101634692 -0.0177473705
v 0.0278631225 0.0111433947 -0.0135036828
v 0.0293156691 0.00934366509 -0.00968385953
v 0.0286127441 0.0160781778 -0.0183107276
v 0.0282325465 0.0177162848 -0.0129512846
v 0.0260127932 0.027971087 -0.0160307214
v 0.0277422331 0.0264492109 -0.0188650563
v 0.0284947287 0.0279189944 -0.0115431417
v 0.0264545511 0.0392856449 -0.0204099081
v 0.0278319791 0.043328546 -0.0125354966
v 0.0253586732 0.0441139154 -0.0164807383
v 0.0297475327 0.0389122218 -0.0156866647
v 0.0284605548 0.0456996895 -0.0172263756
v 0.0273518283 0.0535184629 -0.0120943626
v 0.0262485743 0.0536887646 -0.0195221677
v 0.0302890502 0.0521656871 -0.0132409483
v 0.028689146 0.0559039302 -0.0157935414
v 0.0263797231 0.0640360117 -0.0144773563
v 0.0277327131 0.0705223009 -0.017615838
v 0.0315436721 0.00499854237 -0.00859920681
v 0.0330604389 0.00513956603 -0.00231540529
v 0.0324184671 0.00340048084 0.00435946835
v 0.0299755801 0.0068876599 -0.0146939661
v 0.0331431404 0.00741687836 -0.00632248726
v 0.0319640785 0.00960563682 -0.0115078008
v 0.0306399632 0.00951818191 -0.00546523277
v 0.0303609427 0.00653515803 -0.00136825
v 0.0314697884 0.0163818561 -0.0131819528
v 0.031294331 0.0107731046 -0.001487753
v 0.0301518682 0.0182232875 -0.00769065786
v 0.0315537639 0.0166125335 0.00231475756
v 0.0306607615 0.0275811106 -0.00463033887
v 0.0299058594 0.0257716216 -0.015579612
v 0.0322517678 0.0301880483 -0.0102356328
v 0.0312671289 0.0329794511 0.000970956346
v 0.032084249 0.0402497873 -0.0103987129
v 0.02952368 0.0397961587 -0.00843989756
v 0.0306316186 0.0448018909 -0.00383613701
v 0.0313487127 0.0546907149 -0.01078369
v 0.0295431372 0.0546268784 -0.00704037724
v 0.030914193 0.057477504 0.000391136506
v 0.0293932818 0.0626146495 -0.0152041269
v 0.0282047559 0.0674961507 -0.0106501197
v 0.0299140792 0.0665010586 -0.00547885755
v 0.030797556 0.0666524172 -0.00142961508
v 0.0316447169 0.0663124993 -0.010263049
v 0.0334622301 0.0123201031 -0.00725251576
v 0.034348622 0.00898689497 4.91567735e-05
v 0.0345530659 0.0170154702 0.00185563718
v 0.0330039486 0.0206791032 -0.00862643402
v 0.0340595171 0.0199510343 -0.00390522857
v 0.0343353003 0.0287350584 0.000807941135
v 0.0336675011 0.0382637307 -0.00428759353
v 0.0341364518 0.0439783297 -0.000138685427
v 0.0332379937 0.0532094166 -0.00518366508
v 0.0338127501 0.060016863 -0.00105476181
v 0.0334153995 0.0678900778 -0.00391470874
v 0.0055834027 0.0716254488 -0.0291475113
v 0.0067214435 0.0779266208 -0.0323384218
v 0.0048874584 0.084270969 -0.0337489396
v 0.00550223701 0.0799765289 -0.0297753345
v 0.00516417343 0.0888266712 -0.036329668
v 0.00526066404 0.0936462656 -0.0375043526
v 0.0100804847 0.0712904111 -0.0311532188
v 0.01005679 0.0846858397 -0.0327807963
v 0.00611530989 0.0855904669 -0.0307700504
v 0.0101770498 0.0819846466 -0.0284840688
v 0.0110832062 0.08582028 -0.0294595733
v 0.0086245602 0.0900746658 -0.0327147134
v 0.00855677482 0.0919003263 -0.0369204134
v 0.0096317837 0.0939664021 -0.036379721
v 0.00764599256 0.0940767303 -0.0346729383
v 0.0119705517 0.0777346939 -0.0269611105
v 0.0141999433 0.0723769814 -0.0258073304
v 0.0120067829 0.0778676346 -0.0302965865
v 0.0168054793 0.0843233168 -0.0295363925
v 0.0135475323 0.0910784379 -0.0350143388
v 0.0159413125 0.0880410746 -0.0322419405
v 0.0150148477 0.0907193199 -0.0304247662
v 0.0120195942 0.0945595428 -0.0348397307
v 0.0118537992 0.0943145826 -0.0334272832
v 0.0171029735 0.0792911127 -0.0278150048
v 0.0171448234 0.0854859203 -0.0258953515
v 0.0191664044 0.0794448853 -0.022531841
v 0.0160551388 0.0939743072 -0.0311542619
v 0.016072344 0.0938456729 -0.0337851383
v 0.0157289952 0.0946122557 -0.0324769318
v 0.0191177968 0.0930899382 -0.0322270021
v 0.0218441989 0.084474422 -0.0259170718
v 0.0237748511 0.0790150464 -0.0224319082
v 0.022491172 0.0818258747 -0.0199175328
v 0.0215892121 0.0907025114 -0.0302463062
v 0.0219962504 0.0907020569 -0.0255577732
v 0.0200951062 0.0939953849 -0.0286721904
v 0.020501541 0.0945754051 -0.029921867
v 0.0239061359 0.075659126 -0.0174966529
v 0.0272595081 0.0794411972 -0.0184372533
v 0.026104847 0.079181768 -0.0147838891
v 0.0246222075 0.0832040608 -0.0226950347
v 0.0261653606 0.0849713311 -0.0168642495
v 0.0225210823 0.086398147 -0.0219622497
v 0.0238148812 0.0927148387 -0.0289845709
v 0.0258794893 0.0898170248 -0.0259934627
v 0.0234503299 0.0944724008 -0.0284726117
v 0.0242512245 0.0942706242 -0.0254557021
v 0.0278907306 0.0773935467 -0.0114680817
v 0.0275693387 0.0849285051 -0.0205035768
v 0.0289715044 0.0851456001 -0.0124045741
v 0.0295987837 0.0889535248 -0.0214766935
v 0.0278448444 0.0903170183 -0.019276578
v 0.0271627251 0.0941761732 -0.0223524775
v 0.0260847248 0.0945175067 -0.0261912141
v 0.0295512397 0.0930637568 -0.0234473124
v 0.0283452403 0.0944816172 -0.0237630866
v 0.0289120749 0.0944474787 -0.0204857253
v 0.0301173907 0.0756596029 -0.0135848336
v 0.0307753924 0.0759175122 -0.000405303173
v 0.0295954272 0.0751180872 -0.00669617532
v 0.032521043 0.075207144 -0.00743365753
v 0.0311853364 0.0814521685 -0.0129657183
v 0.0301951356 0.0795390457 -0.00564230327
v 0.0316585712 0.0825100318 0.00121465162
v 0.031963475 0.0850955918 -0.0139492126
v 0.0313889496 0.0852444172 -0.00582024548
v 0.0337158516 0.0883391052 -0.0144267445
v 0.0328661911 0.0864880383 -0.0012160918
v 0.0339962803 0.0920105353 -0.0169885624
v 0.0318036005 0.0907362178 -0.0130730355
v 0.034156885 0.0904759318 -0.00694746897
v 0.0307589658 0.094641529 -0.0201740842
v 0.0324695893 0.0942264423 -0.0190441925
v 0.0322809629 0.0943968743 -0.0153034907
v 0.0341048799 0.0718103796 0.00236358028
v 0.0339639187 0.0763448328 7.70577317e-05
v 0.033590734 0.08071284 -0.00587832881
v 0.0344542488 0.0845878646 -0.00631498592
v 0.0347835906 0.0821557119 0.00219216477
v 0.0359003246 0.0853313208 0.00208816491
v 0.0367790908 0.0886603445 -0.00687243976
v 0.0375569835 0.0922234356 -0.00911224913
v 0.0356019177 0.0904206336 0.00101759424
v 0.0366100855 0.0937754512 -0.000929185248
v 0.0349356011 0.0945535526 -0.013922276
v 0.0340726376 0.0942316502 -0.0114303781
v 0.0368704386 0.0940603763 -0.0104608294
v 0.0361452922 0.0945974886 -0.00894416869
v 0.0359182395 0.094008103 -0.00556484377
v 0.0381119512 0.0891519636 -0.00148640492
v 0.039504651 0.0922657624 0.00128638209
v 0.0376945846 0.0944812596 -0.00645171897
v 0.0387497433 0.0938849598 -0.00361504103
v 0.037654154 0.0946117863 -0.00112345791
v 0.0391581059 0.0940234512 0.00257834489
v 0.00413139351 0.00760061713 0.034483552
v 0.00552962814 0.00692022359 0.0373400599
v 0.0075605982 0.0101823909 0.0341851562
v 0.00566607248 0.028004596 0.03800923
v 0.0053572664 0.0332707688 0.0349851809
v 0.00712915929 0.0393039808 0.0379113927
v 0.00250828196 0.0618187524 0.0388275981
v 0.0208017677 0.00191367639 0.0193009898
v 0.0100016724 0.00269364659 0.0300210081
v 0.00813702215 0.00381430471 0.0354376286
v 0.0101139583 0.00667472463 0.0327142365
v 0.00938983355 0.0113570029 0.036940828
v 0.00720397476 0.0209183749 0.0344811305
v 0.00874241535 0.0365349613 0.0341771841
v 0.0112804389 0.0223367568 0.0363294184
v 0.00871363934 0.050650239 0.034224052
v 0.00864860229 0.052122958 0.0374998972
v 0.00589212403 0.0633484423 0.0382730663
v 0.00880341139 0.0666886941 0.0342234373
v 0.00979304966 0.0675701797 0.0371128805
v 0.0145298466 0.00197572005 0.0257524326
v 0.0136898067 0.00236452324 0.0323484577
v 0.0155902216 0.00504125003 0.0289780423
v 0.0117970062 0.00622095307 0.0352767408
v 0.0112435352 0.0174022876 0.0330093727
v 0.0157753266 0.012827524 0.0306235999
v 0.0135469213 0.0393034406 0.0321641937
v 0.0124563063 0.0411708318 0.0360070318
v 0.0128071783 0.0619112812 0.032583449
v 0.0175257698 0.00247147563 0.0249319933
v 0.0187617373 0.00995675474 0.0284459069
v 0.0164247733 0.00711185206 0.033138983
v 0.0155984797 0.0190420821 0.0343045928
v 0.0161132552 0.0252518412 0.0305378065
v 0.0172188133 0.0332036763 0.0334713571
v 0.0150878122 0.049076397 0.0347843319
v 0.0144531392 0.0541764535 0.0316062458
v 0.0172308404 0.0528886281 0.0297848191
v 0.0138221532 0.0636589602 0.0354435109
v 0.0163616631 0.0708894208 0.030428309
v 0.0171537176 0.0616436787 0.0335645527
v 0.0202913042 0.0019378548 0.0275935773
v 0.0217179265 0.00478801224 0.0235438142
v 0.0202524196 0.00695355702 0.026313087
v 0.0215711556 0.00432919804 0.0282767545
v 0.0194708351 0.0130123291 0.0318088531
v 0.0221545082 0.00755864521 0.0291050542
v 0.019419238 0.0195785612 0.0278619584
v 0.0209799558 0.0214793198 0.0305000637
v 0.0215695295 0.029765388 0.0262108352
v 0.0198214017 0.0399849229 0.0277620163
v 0.0219931062 0.0388358906 0.0298981182
v 0.0185089465 0.0483301394 0.032648325
v 0.0218789503 0.0497440659 0.0261117984
v 0.0223483611 0.0526421256 0.0297238845
v 0.0198721625 0.0633663833 0.0274437927
v 0.0259396899 0.00196034065 0.00674262829
v 0.0253396723 0.0023148742 0.0134054022
v 0.0245998763 0.00346508459 0.0181822889
v 0.0249837358 0.00184492767 0.0222010016
v 0.0254241955 0.00592319947 0.0196832791
v 0.0240620598 0.00995052885 0.0231826287
v 0.0265378114 0.00544850854 0.0234588105
v 0.0245591644 0.0107350545 0.027332047
v 0.0231633428 0.0180289727 0.02437732
v 0.0246936064 0.018973643 0.0272271819
v 0.0258930493 0.0213192087 0.0210837554
v 0.0231817998 0.028909836 0.0288983937
v 0.0240583662 0.0361268967 0.0234032255
v 0.0254059378 0.0545765683 0.0214577764
v 0.0230680592 0.058812011 0.0243077427
v 0.0217055306 0.0627188385 0.0299085025
v 0.0256421175 0.0666042566 0.0211189575
v 0.0217828266 0.0708228797 0.025555782
v 0.0226202719 0.069526352 0.0291243158
v 0.0271712299 0.00309498957 0.0114413202
v 0.0287211891 0.00267135235 0.0175249279
v 0.0290163942 0.0077989581 0.0141158402
v 0.0280470438 0.0102469083 0.0170781352
v 0.0292792097 0.0100447955 0.0210989732
v 0.0272871181 0.0149883218 0.0187780485
v 0.028661361 0.0234630201 0.0224752221
v 0.0282794628 0.025570659 0.016654985
v 0.0259408001 0.0386642106 0.0207708497
v 0.0261149984 0.0384336486 0.0256515294
v 0.0277605038 0.0403178409 0.017591482
v 0.0291833151 0.0345417187 0.0215105861
v 0.0284469165 0.0473683923 0.0223849006
v 0.0259518381 0.050032042 0.0260893032
v 0.0279053841 0.0483859964 0.0170024205
v 0.0278431959 0.0576761402 0.0166652147
v 0.0281797927 0.0629100502 0.0227068514
v 0.025644768 0.0623095855 0.0258278027
v 0.0281395949 0.0647528917 0.0164264515
v 0.0313795619 0.0031823935 0.0104814852
v 0.031524349 0.00560643617 0.0145351235
v 0.0309237875 0.00741605228 0.00368852681
v 0.0298560169 0.00646955147 0.00918058492
v 0.0308512617 0.0102498969 0.00832434837
v 0.030193748 0.00695935776 0.0184708871
v 0.0330432616 0.00978063978 0.0123974383
v 0.0312974043 0.0158724096 0.0175381601
v 0.0312092602 0.0241613537 0.00592299225
v 0.0295986962 0.0152062764 0.0132808369
v 0.0303968042 0.0266840179 0.00999579486
v 0.0316756256 0.0250653662 0.0162554607
v 0.0294606108 0.0345091484 0.0133739403
v 0.031057898 0.0400568619 0.00666211499
v 0.0334224068 0.0336765833 0.0106833549
v 0.031202279 0.0383612812 0.0176401213
v 0.0311443079 0.0480747409 0.00286795991
v 0.0305850022 0.0462230109 0.0184338372
v 0.0294980817 0.0549702384 0.0121849449
v 0.0305388998 0.0571831092 0.0078288028
v 0.0324304849 0.0481776707 0.0135056404
v 0.0307274032 0.057945136 0.0177215394
v 0.0309237447 0.0656914786 0.00614083651
v 0.0332196243 0.0574035086 0.0101492843
v 0.0298462436 0.0686468706 0.0111959279
v 0.0320428275 0.0673774779 0.0143674305
v 0.0304484256 0.0648722872 0.0188468713
v 0.0337582491 0.00705914432 0.00614913227
v 0.0343434289 0.0129602589 0.00595051562
v 0.0334277935 0.0176107157 0.0107877487
v 0.0342182443 0.0272441972 0.00543174986
v 0.0343335904 0.0403820984 0.00363709801
v 0.034065254 0.0446750224 0.00618154043
v 0.034000136 0.0552652143 0.00335343136
v 0.0341323167 0.0662636831 0.00385916
v 0.0337156877 0.0664034709 0.00820213929
v 0.00767023908 0.0749123842 0.0345440693
v 0.0044468455 0.0768382475 0.0385636836
v 0.00585191417 0.0809524804 0.035811808
v 0.00531698484 0.0824077055 0.0394610018
v 0.00628430722 0.0902054161 0.0398704521
v 0.00616223924 0.0908884481 0.0437497571
v 0.00366641767 0.0941871777 0.042344097
v 0.00980306324 0.0769259036 0.0370615236
v 0.00774261681 0.0837671384 0.0360110886
v 0.00746830879 0.0853965878 0.0403814092
v 0.00755265495 0.0938802063 0.04015949
v 0.0095902998 0.0940075368 0.0415807031
v 0.0135687571 0.0790174752 0.0323084891
v 0.0146321505 0.0792985409 0.0353430398
v 0.0144760143 0.0851312354 0.0338426344
v 0.0130394362 0.0839399472 0.0375637077
v 0.011154579 0.0880182236 0.0409515835
v 0.0136879459 0.0907068327 0.0376163386
v 0.0113218855 0.0915657505 0.042403046
v 0.0129990932 0.0937943682 0.0380674973
v 0.0151338195 0.0942413807 0.0389950164
v 0.0134843737 0.0934040993 0.0411664099
v 0.0160998516 0.0734612495 0.0341258906
v 0.0187555086 0.0805013031 0.02937649
v 0.0182534438 0.0847954229 0.035246361
v 0.0193985999 0.0904953107 0.034277983
v 0.0161783639 0.0905053243 0.0402845852
v 0.0175385699 0.0937629715 0.0357411765
v 0.017915424 0.0920613781 0.0395983122
v 0.019099256 0.070517309 0.0322111174
v 0.0194319636 0.0760860816 0.0278863814
v 0.0212240536 0.0768786073 0.0304514933
v 0.0235234406 0.0785047114 0.0238792449
v 0.0206657667 0.082509473 0.0324359015
v 0.0218520854 0.0855207369 0.0288130119
v 0.0228478964 0.0904762223 0.0363814607
v 0.0221570861 0.0942944735 0.0352872089
v 0.0217995439 0.0928714946 0.0371763408
v 0.0255798977 0.072401613 0.0257573128
v 0.0247617103 0.0863709152 0.0264801458
v 0.0266670045 0.0820884928 0.0213539507
v 0.0254411697 0.0815435126 0.0277669113
v 0.0258061513 0.0865370184 0.0307013094
v 0.0250333566 0.0906514898 0.0301434342
v 0.022116201 0.0939136967 0.0329572111
v 0.0256092995 0.0938844383 0.0308597852
v 0.026727682 0.0736365616 0.0189225785
v 0.0293795131 0.0792293549 0.0129583059
v 0.0258958228 0.0775940269 0.025613727
v 0.0289974678 0.0805023685 0.0227277298
v 0.0298526213 0.0834296793 0.0146976998
v 0.0301775821 0.0861055851 0.0248467438
v 0.0282195285 0.0876483172 0.0227893945
v 0.0304045938 0.0868665054 0.016898185
v 0.0307252686 0.0909001753 0.0233524051
v 0.0278913025 0.090461567 0.0322117582
v 0.0264324825 0.0929354578 0.0337751098
v 0.0289652217 0.0937394723 0.0273710005
v 0.0284471661 0.0943404511 0.0298266727
v 0.0284474883 0.0940465778 0.0311426371
v 0.0310516879 0.0716824979 0.00283479597
v 0.029453421 0.0748273656 0.0203127265
v 0.0311016049 0.0724715218 0.0162041709
v 0.0293951277 0.0747791827 0.0119855171
v 0.0307508484 0.0762102827 0.00647944026
v 0.0309730321 0.0807013139 0.00778337847
v 0.0315368585 0.0800725445 0.0167087596
v 0.0323490165 0.0854377523 0.0064911847
v 0.0321436562 0.0863094777 0.0102903536
v 0.0334174708 0.0853167549 0.016462408
v 0.0317172483 0.0852997452 0.0207520034
v 0.0321316645 0.0891170129 0.0259825587
v 0.0313345306 0.0919060707 0.0289737172
v 0.0319253542 0.0943011269 0.0245490745
v 0.0338706784 0.0938631222 0.0252918266
v 0.0337303095 0.0773993284 0.00761394249
v 0.0335054509 0.0809245706 0.0108540105
v 0.0348119214 0.0834264979 0.00761674531
v 0.0359377861 0.0863805637 0.0102109555
v 0.0353058241 0.0905661583 0.00961385667
v 0.0337131321 0.0902757794 0.0152352378
v 0.0360695086 0.0939814374 0.0126964869
v 0.0343355201 0.0939282104 0.0192081723
v 0.0363754444 0.0898965076 0.0181959607
v 0.0356964804 0.0924632922 0.0225616619
v 0.03691357 0.0939237401 0.00640041195
v 0.0368247814 0.0946138725 0.0151210092
v 0.0348872021 0.0946698636 0.0212998819
v 0.0359498598 0.0941448212 0.0212667026
v 0.0385189056 0.0894115493 0.00794450473
v 0.0386305228 0.0935555175 0.0133524947
v 0.0378733166 0.0944734737 0.00667090109
v 0.0390375592 0.0937530994 0.00828599371
v 0.0372761302 0.0939910486 0.0171717778
g 
f 62 1 3
f 2 8 7
f 2 5 6
f 2 7 1
f 1 7 4
f 10 6 9
f 6 10 8
f 8 2 6
f 8 12 7
f 8 11 12
f 10 9 13
f 11 10 14
f 13 14 10
f 17 14 13
f 11 14 16
f 11 15 12
f 18 17 13
f 17 16 14
f 15 11 16
f 15 16 19
f 20 21 17
f 17 21 16
f 19 16 21
f 4 23 1
f 22 1 23
f 24 22 23
f 7 12 4
f 4 12 23
f 25 24 23
f 12 28 23
f 24 27 26
f 25 27 24
f 25 23 28
f 27 25 29
f 25 28 29
f 28 12 15
f 29 30 27
f 30 29 31
f 31 29 28
f 30 31 32
f 35 30 32
f 34 31 28
f 32 31 34
f 36 30 35
f 35 32 34
f 35 38 37
f 38 35 34
f 34 28 15
f 39 38 648
f 38 39 37
f 42 41 40
f 40 347 42
f 41 45 46
f 45 41 42
f 42 47 45
f 46 43 41
f 48 43 46
f 50 46 45
f 50 45 49
f 50 51 46
f 51 48 46
f 48 51 52
f 50 49 53
f 52 55 56
f 50 54 51
f 55 51 54
f 52 51 55
f 58 55 54
f 59 56 55
f 58 54 57
f 5 61 60
f 61 62 40
f 62 61 2
f 2 1 62
f 62 3 40
f 44 60 61
f 41 61 40
f 44 61 41
f 63 64 68
f 68 64 67
f 69 65 44
f 69 70 65
f 43 44 41
f 67 66 71
f 66 67 64
f 73 67 74
f 43 69 44
f 75 71 72
f 72 71 66
f 74 67 71
f 69 77 70
f 69 43 76
f 74 71 78
f 69 76 77
f 79 77 76
f 48 76 43
f 75 72 80
f 81 79 76
f 81 76 48
f 82 75 80
f 83 71 75
f 78 71 83
f 75 82 83
f 86 85 81
f 87 86 81
f 78 88 84
f 88 78 83
f 48 52 87
f 87 81 48
f 84 88 89
f 83 82 90
f 92 87 91
f 93 83 90
f 93 88 83
f 89 88 94
f 56 91 52
f 91 87 52
f 93 90 95
f 94 88 93
f 99 98 91
f 96 94 93
f 91 56 99
f 100 93 95
f 93 100 96
f 9 5 60
f 6 5 9
f 61 5 2
f 64 63 102
f 102 63 104
f 102 104 103
f 65 105 60
f 44 65 60
f 107 106 66
f 107 102 108
f 107 64 102
f 64 107 66
f 65 70 109
f 105 65 109
f 72 66 106
f 70 77 128
f 110 72 106
f 111 72 110
f 80 72 111
f 77 79 85
f 80 111 112
f 81 85 79
f 113 85 86
f 90 80 114
f 80 90 82
f 92 86 87
f 92 113 86
f 113 92 115
f 116 115 92
f 117 90 114
f 101 92 91
f 117 95 90
f 118 95 117
f 116 92 101
f 91 98 101
f 95 118 100
f 120 121 60
f 9 60 121
f 103 108 102
f 103 123 108
f 120 60 105
f 107 108 127
f 106 107 127
f 127 126 106
f 127 108 122
f 109 125 105
f 110 106 126
f 109 128 129
f 109 70 128
f 112 111 110
f 77 85 128
f 85 131 128
f 131 85 133
f 112 114 80
f 112 134 114
f 113 133 85
f 133 113 135
f 113 115 135
f 136 114 134
f 114 136 117
f 138 136 137
f 138 117 136
f 117 139 118
f 117 138 139
f 119 118 139
f 141 121 120
f 121 13 9
f 122 108 123
f 103 124 123
f 125 120 105
f 127 142 126
f 127 122 142
f 125 109 129
f 142 143 126
f 143 110 126
f 160 130 143
f 130 110 143
f 131 132 128
f 129 128 132
f 130 112 110
f 130 145 112
f 146 132 133
f 132 131 133
f 147 112 145
f 112 147 134
f 149 134 147
f 133 135 148
f 148 146 133
f 136 134 137
f 148 135 115
f 137 134 149
f 148 115 150
f 115 116 150
f 140 150 116
f 138 165 152
f 138 152 139
f 141 13 121
f 122 123 155
f 122 155 154
f 120 125 153
f 156 153 125
f 153 141 120
f 122 154 142
f 125 129 156
f 156 129 159
f 143 142 157
f 157 142 158
f 160 143 157
f 159 129 132
f 159 132 144
f 145 130 160
f 160 161 145
f 146 144 132
f 145 149 147
f 149 145 161
f 162 146 148
f 150 151 148
f 162 148 151
f 149 164 137
f 137 165 138
f 165 137 164
f 18 141 153
f 141 18 13
f 166 154 155
f 123 167 155
f 167 123 124
f 168 153 156
f 166 169 158
f 154 166 142
f 158 142 166
f 159 168 156
f 157 158 169
f 169 170 157
f 172 160 157
f 144 171 159
f 161 160 172
f 163 173 144
f 144 146 163
f 149 161 174
f 161 175 174
f 146 162 163
f 174 175 176
f 149 174 164
f 177 163 162
f 151 178 162
f 177 162 178
f 164 174 179
f 179 165 164
f 180 178 151
f 18 153 181
f 17 18 20
f 166 155 167
f 167 183 166
f 181 168 184
f 168 181 153
f 182 169 166
f 168 159 185
f 185 184 168
f 170 169 186
f 171 185 159
f 157 170 172
f 173 171 144
f 175 161 172
f 172 187 175
f 173 163 188
f 163 177 188
f 176 189 174
f 177 178 190
f 179 174 189
f 191 179 189
f 18 181 192
f 20 18 192
f 166 183 182
f 167 208 183
f 184 192 181
f 186 169 182
f 182 183 194
f 185 195 184
f 196 170 186
f 185 171 173
f 173 197 185
f 197 195 185
f 170 187 172
f 196 187 170
f 196 198 187
f 197 173 188
f 175 187 176
f 176 187 200
f 189 176 200
f 188 177 202
f 200 203 189
f 202 177 190
f 191 189 203
f 192 207 20
f 194 183 208
f 207 192 206
f 193 208 167
f 124 193 167
f 184 209 192
f 186 182 210
f 195 209 184
f 186 211 196
f 186 210 211
f 196 211 198
f 195 197 199
f 199 212 195
f 215 198 213
f 188 199 197
f 198 200 187
f 215 200 198
f 214 199 201
f 188 201 199
f 202 201 188
f 216 200 215
f 204 201 202
f 200 216 203
f 190 204 202
f 191 203 216
f 216 217 191
f 219 224 218
f 222 223 219
f 228 221 222
f 223 224 219
f 225 219 226
f 218 226 219
f 226 218 220
f 222 229 228
f 230 222 232
f 222 230 229
f 232 222 219
f 232 235 230
f 233 230 235
f 234 230 233
f 219 225 232
f 232 225 235
f 235 236 233
f 236 227 233
f 237 233 227
f 58 59 55
f 238 59 58
f 239 238 58
f 59 238 240
f 241 238 239
f 240 241 244
f 240 238 241
f 239 242 243
f 239 243 241
f 244 224 223
f 241 224 244
f 243 218 224
f 243 224 241
f 243 220 218
f 244 223 221
f 245 247 248
f 251 249 250
f 250 252 221
f 228 250 221
f 222 221 223
f 237 253 234
f 253 247 246
f 237 247 253
f 227 248 247
f 247 237 227
f 251 228 229
f 228 251 250
f 251 229 254
f 231 254 229
f 255 234 253
f 234 255 231
f 231 255 254
f 230 231 229
f 230 234 231
f 233 237 234
f 59 99 56
f 256 99 59
f 98 99 256
f 257 96 100
f 100 258 257
f 96 257 259
f 259 94 96
f 256 59 240
f 260 256 240
f 258 261 257
f 257 261 259
f 244 260 240
f 265 259 261
f 262 259 266
f 263 268 264
f 268 267 264
f 264 244 263
f 260 244 264
f 265 261 269
f 246 265 269
f 265 245 259
f 247 245 265
f 268 252 270
f 268 270 271
f 252 268 221
f 263 221 268
f 244 221 263
f 246 272 279
f 246 269 272
f 265 246 247
f 273 274 270
f 274 271 270
f 274 273 275
f 274 275 293
f 252 250 249
f 252 249 273
f 270 252 273
f 273 249 275
f 276 280 279
f 277 276 279
f 277 279 272
f 280 253 279
f 279 253 246
f 275 249 281
f 278 275 281
f 281 276 278
f 251 281 249
f 280 281 254
f 280 276 281
f 254 281 251
f 253 280 255
f 280 254 255
f 98 256 101
f 258 100 118
f 101 256 282
f 256 260 282
f 118 119 283
f 283 258 118
f 260 264 284
f 282 260 284
f 286 258 283
f 285 284 267
f 267 284 264
f 288 269 286
f 261 258 286
f 269 261 286
f 285 267 268
f 268 287 285
f 269 288 272
f 268 290 287
f 271 274 292
f 292 274 293
f 278 276 277
f 277 289 278
f 278 289 291
f 272 289 277
f 293 275 295
f 275 294 295
f 278 294 275
f 116 101 282
f 116 282 140
f 283 119 139
f 283 139 152
f 284 285 282
f 296 282 285
f 283 297 286
f 296 287 298
f 287 296 285
f 299 288 286
f 299 286 302
f 299 301 291
f 272 291 289
f 288 299 272
f 291 272 299
f 299 302 301
f 290 271 292
f 292 300 290
f 290 300 287
f 306 291 301
f 293 303 292
f 304 294 305
f 291 294 278
f 306 294 291
f 295 294 308
f 308 294 304
f 295 307 293
f 307 295 308
f 140 151 150
f 151 140 309
f 282 309 140
f 297 283 152
f 296 309 282
f 286 297 302
f 300 298 287
f 310 298 300
f 298 310 296
f 303 293 307
f 294 306 305
f 303 312 292
f 300 292 312
f 308 313 307
f 309 180 151
f 152 314 297
f 152 165 314
f 314 315 297
f 296 316 309
f 315 302 297
f 302 306 301
f 316 296 310
f 315 306 302
f 311 310 300
f 311 300 312
f 303 307 317
f 312 303 317
f 305 318 304
f 317 307 313
f 313 308 319
f 304 319 308
f 319 304 318
f 165 179 320
f 180 190 178
f 320 314 165
f 180 309 316
f 315 314 320
f 322 180 316
f 322 316 323
f 320 324 315
f 310 323 316
f 315 325 306
f 325 315 324
f 311 326 310
f 327 313 319
f 327 317 313
f 179 191 320
f 191 205 320
f 180 321 190
f 322 321 180
f 310 326 323
f 311 312 326
f 306 325 305
f 329 305 325
f 327 331 317
f 330 331 327
f 332 318 305
f 318 332 319
f 319 330 327
f 332 305 329
f 330 319 332
f 321 204 190
f 334 205 191
f 322 333 321
f 322 323 335
f 322 335 333
f 324 320 205
f 205 334 324
f 334 342 324
f 323 326 336
f 325 324 328
f 325 328 337
f 338 312 317
f 326 312 338
f 317 331 339
f 339 338 317
f 340 332 329
f 332 340 330
f 204 321 333
f 334 191 217
f 333 335 341
f 324 342 328
f 342 343 328
f 336 326 338
f 329 325 337
f 337 328 343
f 337 344 329
f 330 345 331
f 339 331 346
f 340 345 330
f 345 346 331
f 42 347 47
f 3 347 40
f 347 348 47
f 22 347 3
f 349 348 347
f 349 350 348
f 347 22 349
f 47 348 351
f 352 348 350
f 47 351 45
f 351 49 45
f 348 352 351
f 350 353 352
f 351 352 354
f 352 353 354
f 49 351 355
f 351 354 355
f 49 355 53
f 355 354 356
f 356 354 353
f 355 356 53
f 353 357 356
f 356 358 53
f 358 356 357
f 357 359 358
f 53 358 360
f 361 358 359
f 50 53 57
f 53 360 57
f 358 361 360
f 50 57 54
f 360 361 362
f 360 362 57
f 363 362 361
f 364 57 362
f 362 365 364
f 362 366 365
f 366 362 363
f 367 57 364
f 57 367 58
f 368 364 365
f 368 365 366
f 3 1 22
f 370 63 68
f 22 371 349
f 22 24 371
f 67 73 68
f 73 374 68
f 68 374 370
f 375 374 379
f 376 374 375
f 371 372 349
f 350 349 372
f 26 372 371
f 26 373 372
f 378 73 74
f 374 73 379
f 379 73 378
f 379 380 375
f 381 350 377
f 372 377 350
f 377 372 373
f 379 382 380
f 353 350 381
f 74 78 378
f 378 382 379
f 378 78 385
f 378 385 383
f 386 383 385
f 383 382 378
f 353 381 357
f 385 78 84
f 385 84 386
f 384 383 388
f 383 386 388
f 381 389 357
f 389 381 390
f 386 84 391
f 391 388 386
f 392 388 391
f 392 384 388
f 359 357 389
f 84 89 391
f 394 392 391
f 391 393 394
f 391 89 393
f 392 394 395
f 392 395 396
f 361 359 363
f 359 389 363
f 389 390 397
f 397 390 398
f 397 363 389
f 97 399 89
f 89 94 97
f 393 89 399
f 394 393 399
f 399 395 394
f 395 399 401
f 395 401 402
f 395 402 396
f 397 366 363
f 400 366 397
f 369 366 400
f 403 397 398
f 397 403 400
f 399 97 401
f 63 370 104
f 104 370 406
f 370 374 376
f 376 406 370
f 24 26 371
f 407 376 408
f 407 406 376
f 26 27 373
f 27 409 373
f 376 375 408
f 375 380 408
f 410 373 409
f 412 377 373
f 408 380 411
f 412 373 410
f 384 380 382
f 381 377 412
f 387 381 412
f 384 411 380
f 411 384 413
f 414 412 435
f 414 387 412
f 383 384 382
f 413 384 416
f 417 387 414
f 415 416 384
f 387 417 390
f 418 417 414
f 392 415 384
f 419 416 420
f 418 421 417
f 396 415 392
f 398 390 417
f 422 416 415
f 422 420 416
f 405 415 396
f 415 405 422
f 423 398 417
f 425 417 421
f 417 425 423
f 422 405 426
f 424 422 426
f 402 405 396
f 398 423 403
f 427 423 425
f 423 427 403
f 403 427 429
f 103 104 406
f 407 430 406
f 430 407 431
f 27 30 409
f 409 30 432
f 431 407 434
f 408 434 407
f 409 432 410
f 433 434 408
f 435 410 432
f 433 408 411
f 412 410 435
f 433 411 436
f 437 435 432
f 413 436 411
f 435 437 439
f 419 436 413
f 439 414 435
f 413 416 419
f 441 414 439
f 418 414 441
f 441 421 418
f 420 442 419
f 442 440 419
f 424 420 422
f 424 442 420
f 424 444 442
f 421 443 425
f 443 445 425
f 424 446 444
f 445 447 425
f 448 446 424
f 426 448 424
f 425 447 427
f 426 428 448
f 449 427 447
f 103 406 124
f 450 124 406
f 430 450 406
f 430 431 450
f 30 33 432
f 451 432 33
f 433 452 434
f 438 433 436
f 438 452 433
f 438 436 440
f 437 453 439
f 419 440 436
f 439 453 441
f 453 456 441
f 441 456 421
f 421 456 443
f 440 442 454
f 442 457 454
f 444 457 442
f 445 460 447
f 459 444 446
f 462 459 446
f 461 447 460
f 449 447 461
f 446 448 462
f 450 431 463
f 463 464 450
f 30 36 33
f 451 33 36
f 434 463 431
f 452 463 434
f 432 451 437
f 451 466 437
f 440 455 438
f 438 455 452
f 467 453 437
f 468 469 455
f 454 455 440
f 455 454 468
f 456 453 470
f 456 470 471
f 456 471 443
f 468 454 472
f 457 472 454
f 444 458 457
f 445 443 471
f 473 445 471
f 458 444 459
f 475 445 473
f 445 475 460
f 462 476 459
f 460 477 461
f 463 478 464
f 37 36 35
f 452 465 463
f 463 465 478
f 451 36 479
f 451 479 466
f 466 467 437
f 452 480 465
f 480 452 455
f 481 465 480
f 482 467 466
f 469 480 455
f 467 482 453
f 470 453 482
f 483 469 468
f 458 472 457
f 458 484 472
f 458 459 474
f 474 484 458
f 459 485 474
f 476 485 459
f 460 475 477
f 487 477 486
f 475 486 477
f 450 488 124
f 464 488 450
f 464 478 489
f 36 37 479
f 481 490 465
f 491 466 479
f 481 480 469
f 481 469 492
f 481 492 493
f 482 466 491
f 492 469 483
f 495 482 494
f 470 482 495
f 468 472 484
f 484 483 468
f 496 483 484
f 495 497 470
f 497 471 470
f 471 497 473
f 485 496 474
f 474 496 484
f 473 497 475
f 497 486 475
f 37 507 479
f 490 478 465
f 490 481 493
f 489 478 490
f 491 500 494
f 491 494 482
f 501 493 492
f 494 502 495
f 483 501 492
f 483 503 501
f 504 495 502
f 496 503 483
f 495 504 497
f 485 498 496
f 498 485 499
f 505 486 497
f 489 488 464
f 506 37 39
f 506 507 37
f 489 490 508
f 479 509 491
f 507 509 479
f 490 493 510
f 500 491 509
f 493 501 510
f 500 511 494
f 494 511 502
f 503 512 501
f 502 513 504
f 514 512 503
f 503 515 514
f 497 504 516
f 516 504 513
f 498 515 496
f 497 516 505
f 518 505 516
f 220 519 226
f 226 519 520
f 225 226 523
f 235 225 523
f 236 235 523
f 523 524 236
f 525 527 523
f 527 524 523
f 236 524 521
f 521 524 526
f 521 227 236
f 226 520 523
f 525 523 520
f 526 524 527
f 522 525 520
f 525 528 527
f 526 527 528
f 528 529 526
f 522 528 525
f 528 522 547
f 364 368 367
f 530 367 368
f 366 369 368
f 242 58 367
f 58 242 239
f 367 530 242
f 368 531 530
f 531 368 369
f 242 530 532
f 530 533 532
f 531 533 530
f 531 534 533
f 242 532 243
f 266 245 535
f 535 245 248
f 533 519 532
f 519 533 536
f 532 519 243
f 243 519 220
f 538 535 248
f 519 536 520
f 248 227 521
f 248 521 538
f 521 526 538
f 526 542 538
f 538 542 540
f 522 520 536
f 522 536 541
f 541 544 522
f 541 545 544
f 529 542 526
f 529 528 542
f 546 542 528
f 546 528 548
f 548 528 547
f 522 544 547
f 548 547 544
f 543 542 549
f 548 544 550
f 97 262 404
f 401 97 404
f 401 404 402
f 402 551 405
f 94 262 97
f 259 262 94
f 552 402 404
f 534 531 369
f 369 400 534
f 404 262 552
f 262 266 552
f 402 552 553
f 554 553 552
f 400 555 534
f 535 552 266
f 539 552 535
f 539 554 552
f 537 533 534
f 534 555 537
f 266 259 245
f 554 539 556
f 537 536 533
f 554 556 557
f 537 558 536
f 558 537 569
f 535 538 539
f 539 538 540
f 540 556 539
f 536 558 541
f 556 559 557
f 545 558 560
f 542 556 540
f 543 556 542
f 549 561 543
f 556 543 559
f 558 545 541
f 561 559 543
f 546 549 542
f 548 549 546
f 549 548 550
f 544 562 550
f 549 550 563
f 563 564 549
f 561 549 564
f 565 563 550
f 545 562 544
f 562 565 550
f 551 426 405
f 551 428 426
f 403 429 400
f 553 551 402
f 566 428 551
f 555 400 429
f 566 551 553
f 428 566 567
f 555 429 568
f 557 566 553
f 557 553 554
f 557 567 566
f 537 555 568
f 537 568 569
f 569 560 558
f 569 571 560
f 559 570 557
f 561 570 559
f 560 572 545
f 571 572 560
f 564 573 561
f 545 572 562
f 565 575 563
f 564 563 575
f 575 576 564
f 573 564 576
f 562 572 574
f 562 574 565
f 567 448 428
f 429 427 449
f 449 577 429
f 557 578 567
f 579 567 578
f 568 577 569
f 580 569 577
f 557 570 578
f 580 571 569
f 570 581 578
f 579 578 581
f 591 571 580
f 582 571 591
f 570 561 573
f 573 581 570
f 572 571 582
f 575 565 574
f 575 574 584
f 584 576 575
f 574 572 582
f 582 583 574
f 583 584 574
f 585 449 461
f 587 586 448
f 462 448 586
f 588 449 585
f 448 567 587
f 588 577 449
f 579 587 567
f 579 589 587
f 579 581 590
f 573 592 581
f 593 583 582
f 593 582 591
f 576 592 573
f 576 584 594
f 592 576 595
f 594 595 576
f 594 584 583
f 586 476 462
f 461 477 585
f 477 487 585
f 586 499 476
f 586 587 596
f 596 499 586
f 589 596 587
f 585 597 588
f 598 588 597
f 590 589 579
f 588 598 580
f 590 599 589
f 580 598 591
f 600 591 598
f 591 600 593
f 581 592 590
f 592 595 601
f 583 602 594
f 593 602 583
f 593 603 602
f 499 485 476
f 585 487 597
f 597 605 598
f 599 596 589
f 598 605 600
f 599 590 606
f 606 590 592
f 606 592 608
f 600 607 593
f 617 607 600
f 601 608 592
f 601 595 594
f 602 601 594
f 603 609 602
f 609 601 602
f 601 609 610
f 499 604 611
f 597 487 613
f 613 487 612
f 614 611 604
f 597 613 605
f 613 615 605
f 599 604 596
f 614 604 616
f 599 616 604
f 616 599 606
f 617 600 605
f 603 593 607
f 603 607 618
f 609 620 610
f 619 603 618
f 603 619 609
f 601 610 621
f 619 620 609
f 499 611 498
f 611 517 498
f 612 486 505
f 486 612 487
f 518 612 505
f 517 611 622
f 614 622 611
f 612 623 613
f 614 616 624
f 625 616 606
f 617 605 615
f 608 625 606
f 607 627 618
f 608 626 625
f 626 608 621
f 627 607 617
f 608 601 621
f 621 610 620
f 620 634 621
f 517 515 498
f 518 623 612
f 622 614 629
f 614 624 629
f 623 630 613
f 613 630 615
f 624 616 625
f 617 615 630
f 627 617 630
f 626 631 625
f 626 621 633
f 627 619 618
f 627 632 619
f 634 620 635
f 634 633 621
f 619 635 620
f 636 619 632
f 636 635 619
f 637 20 207
f 637 21 20
f 21 637 638
f 21 638 19
f 19 640 15
f 638 637 641
f 638 640 19
f 638 642 640
f 642 638 641
f 642 643 640
f 643 642 644
f 645 643 644
f 643 645 640
f 648 38 34
f 648 649 39
f 15 648 34
f 649 648 650
f 651 650 648
f 15 651 648
f 651 652 650
f 640 646 15
f 651 15 646
f 651 653 652
f 651 654 653
f 646 654 651
f 655 654 646
f 656 208 193
f 208 657 194
f 192 209 206
f 194 210 182
f 210 667 211
f 209 195 659
f 658 209 659
f 212 659 195
f 211 660 198
f 213 198 660
f 212 199 661
f 214 661 199
f 661 214 662
f 664 214 201
f 664 662 214
f 204 664 201
f 665 664 204
f 206 639 207
f 657 208 656
f 209 658 206
f 657 210 194
f 658 666 206
f 657 667 210
f 680 211 667
f 668 211 680
f 211 668 660
f 668 670 660
f 659 212 661
f 659 661 669
f 660 670 213
f 663 213 670
f 661 662 671
f 663 215 213
f 673 215 663
f 673 663 672
f 662 664 674
f 674 671 662
f 215 673 216
f 674 664 665
f 217 216 673
f 666 639 206
f 666 675 639
f 207 639 637
f 657 656 676
f 677 656 193
f 657 678 667
f 659 679 658
f 669 679 659
f 670 668 681
f 668 680 681
f 669 682 679
f 670 672 663
f 683 672 670
f 669 661 671
f 671 686 669
f 672 684 687
f 671 674 685
f 672 687 673
f 685 674 688
f 687 689 673
f 637 639 641
f 641 639 675
f 690 641 675
f 677 676 656
f 124 677 193
f 658 691 666
f 666 691 675
f 676 678 657
f 691 658 679
f 679 693 691
f 678 680 667
f 692 680 678
f 679 682 694
f 680 692 681
f 681 692 706
f 694 682 695
f 683 670 681
f 683 681 706
f 695 682 669
f 686 695 669
f 684 672 683
f 697 684 696
f 685 686 671
f 686 685 698
f 687 684 697
f 688 698 685
f 687 697 689
f 700 641 690
f 701 676 677
f 701 699 676
f 677 124 702
f 702 701 677
f 691 703 675
f 690 675 703
f 676 699 678
f 678 699 704
f 678 705 692
f 706 692 705
f 707 693 694
f 709 707 694
f 709 694 695
f 706 710 683
f 695 686 709
f 710 684 683
f 711 709 686
f 711 686 698
f 696 684 710
f 710 712 696
f 696 712 697
f 698 713 714
f 715 697 712
f 703 700 690
f 642 641 700
f 701 717 699
f 678 704 705
f 699 720 704
f 693 703 691
f 703 693 719
f 693 721 719
f 707 721 693
f 707 724 721
f 705 725 706
f 705 723 725
f 708 706 725
f 706 708 710
f 726 708 725
f 711 707 709
f 711 727 707
f 708 726 710
f 710 726 712
f 712 726 747
f 727 711 728
f 711 698 714
f 714 728 711
f 730 715 712
f 731 728 714
f 714 713 716
f 700 703 733
f 733 732 700
f 700 644 642
f 732 644 700
f 717 701 718
f 718 734 717
f 734 718 735
f 718 702 735
f 703 719 733
f 720 722 704
f 737 733 719
f 717 720 699
f 734 720 717
f 719 721 737
f 722 705 704
f 705 722 723
f 722 738 723
f 721 724 740
f 737 721 740
f 723 738 741
f 742 723 741
f 723 742 725
f 724 743 740
f 744 742 741
f 707 745 724
f 724 745 743
f 726 725 742
f 746 742 744
f 745 707 727
f 726 742 747
f 747 742 746
f 749 748 745
f 750 747 746
f 729 712 747
f 751 745 727
f 751 749 745
f 747 750 729
f 728 751 727
f 729 754 712
f 753 751 728
f 750 754 729
f 750 776 754
f 712 754 730
f 732 756 644
f 644 647 645
f 647 644 757
f 756 757 644
f 702 736 735
f 647 757 758
f 759 732 733
f 720 739 722
f 739 720 734
f 732 759 756
f 761 756 759
f 734 762 739
f 735 763 734
f 763 762 734
f 737 759 733
f 739 738 722
f 759 737 761
f 761 737 764
f 762 763 765
f 737 740 764
f 739 741 738
f 766 741 739
f 739 762 766
f 766 762 768
f 765 768 762
f 765 767 768
f 769 764 740
f 769 740 743
f 770 764 769
f 744 741 766
f 771 768 767
f 768 744 766
f 745 769 743
f 769 745 748
f 769 748 770
f 770 748 772
f 773 744 768
f 773 746 744
f 768 774 773
f 774 768 771
f 748 749 752
f 775 772 748
f 773 774 776
f 751 752 749
f 752 751 753
f 748 752 775
f 750 746 776
f 773 776 746
f 777 774 1000
f 776 774 777
f 752 753 778
f 778 775 752
f 779 754 776
f 780 776 777
f 753 728 778
f 778 782 775
f 780 779 776
f 781 780 777
f 756 761 760
f 757 756 760
f 760 784 757
f 783 784 760
f 783 760 761
f 764 783 761
f 786 783 764
f 787 783 786
f 787 784 783
f 784 787 785
f 770 786 764
f 785 787 788
f 770 787 786
f 770 789 787
f 787 789 788
f 772 789 770
f 788 789 790
f 789 791 790
f 789 772 791
f 772 775 791
f 792 790 791
f 782 791 775
f 793 791 782
f 793 792 791
f 204 333 341
f 341 665 204
f 794 334 217
f 342 334 794
f 335 795 341
f 795 335 796
f 323 796 335
f 342 797 343
f 338 798 336
f 798 796 336
f 343 802 337
f 797 802 343
f 339 346 799
f 345 340 329
f 345 329 344
f 794 217 673
f 665 341 800
f 794 797 342
f 795 796 801
f 802 797 803
f 802 805 337
f 802 804 805
f 339 798 338
f 798 339 806
f 337 805 344
f 799 806 339
f 346 807 799
f 346 345 808
f 808 345 344
f 344 805 808
f 688 665 800
f 800 341 795
f 689 809 794
f 800 795 811
f 809 689 810
f 794 809 797
f 803 797 809
f 795 801 811
f 811 801 812
f 798 801 796
f 813 814 801
f 802 803 804
f 798 806 813
f 798 813 801
f 807 806 799
f 816 807 808
f 808 807 346
f 808 805 817
f 808 817 816
f 817 805 815
f 713 688 800
f 698 688 713
f 810 689 697
f 713 800 811
f 810 820 809
f 812 818 811
f 809 819 803
f 819 804 803
f 819 809 820
f 812 801 814
f 804 815 805
f 815 804 819
f 807 813 806
f 815 821 817
f 813 807 822
f 816 822 807
f 823 817 821
f 816 817 823
f 816 823 822
f 813 822 824
f 715 810 697
f 713 818 716
f 715 820 810
f 812 825 818
f 825 826 818
f 820 827 819
f 828 813 824
f 829 815 819
f 813 828 814
f 828 812 814
f 823 831 822
f 815 830 821
f 821 831 823
f 831 821 830
f 824 822 831
f 716 731 714
f 716 818 826
f 820 715 730
f 716 826 731
f 730 832 820
f 832 827 820
f 832 834 827
f 825 835 826
f 828 825 812
f 827 837 819
f 827 836 837
f 829 819 837
f 825 828 839
f 838 828 824
f 824 831 840
f 838 824 840
f 830 815 829
f 841 830 829
f 840 830 841
f 830 840 831
f 731 755 728
f 730 754 832
f 731 826 755
f 754 842 832
f 779 842 754
f 755 826 833
f 834 832 842
f 835 833 826
f 833 835 843
f 836 827 834
f 836 834 844
f 825 843 835
f 837 836 846
f 839 843 825
f 838 839 828
f 839 838 849
f 845 839 849
f 846 829 837
f 838 840 848
f 841 848 840
f 848 849 838
f 848 841 847
f 847 850 848
f 850 849 848
f 829 846 841
f 847 841 846
f 755 778 728
f 755 852 778
f 778 852 782
f 854 779 780
f 779 854 842
f 855 782 852
f 854 780 781
f 853 854 781
f 833 852 755
f 852 856 855
f 856 871 855
f 854 857 842
f 854 853 857
f 858 857 853
f 833 856 852
f 843 856 833
f 856 843 859
f 842 844 834
f 842 857 844
f 860 857 858
f 843 861 859
f 845 861 843
f 860 844 857
f 839 845 843
f 849 863 845
f 836 844 846
f 864 846 844
f 868 846 864
f 844 865 864
f 860 865 844
f 851 850 847
f 851 866 850
f 849 850 866
f 866 867 849
f 851 847 846
f 846 868 851
f 868 866 851
f 793 782 855
f 793 869 792
f 870 869 793
f 870 793 855
f 870 855 871
f 856 872 871
f 872 856 859
f 871 872 874
f 874 873 871
f 859 861 872
f 875 872 861
f 858 862 860
f 845 863 861
f 863 876 861
f 860 862 865
f 862 877 865
f 849 867 863
f 868 867 866
f 868 879 867
f 879 863 867
f 868 864 880
f 880 879 868
f 876 879 881
f 863 879 876
f 864 865 880
f 880 865 883
f 880 882 879
f 883 882 880
f 883 865 878
f 877 878 865
f 884 874 872
f 876 875 861
f 876 884 875
f 872 875 884
f 885 884 876
f 882 881 879
f 876 881 886
f 883 886 882
f 886 881 882
f 876 886 887
f 886 888 887
f 885 876 887
f 883 878 888
f 883 888 886
f 887 888 889
f 889 885 887
f 508 488 489
f 39 649 506
f 508 490 890
f 507 506 891
f 507 891 509
f 510 890 490
f 511 500 509
f 511 509 893
f 501 512 510
f 511 893 502
f 512 514 894
f 502 893 513
f 513 893 895
f 516 513 895
f 517 628 515
f 488 897 124
f 898 488 508
f 649 899 506
f 890 900 508
f 508 900 898
f 899 891 506
f 890 510 892
f 900 890 892
f 891 901 509
f 510 902 892
f 901 893 509
f 512 902 510
f 894 902 512
f 894 903 902
f 514 903 894
f 905 903 514
f 514 515 628
f 628 905 514
f 896 516 906
f 906 907 896
f 906 909 907
f 897 488 910
f 488 898 910
f 899 649 911
f 913 899 911
f 898 900 912
f 899 913 891
f 900 892 914
f 900 914 915
f 901 891 913
f 914 892 902
f 901 904 893
f 903 914 902
f 914 903 916
f 904 895 893
f 906 895 917
f 903 905 916
f 905 918 916
f 905 628 908
f 905 908 918
f 898 919 910
f 649 650 911
f 912 919 898
f 913 911 921
f 900 915 920
f 900 920 912
f 901 913 921
f 921 922 901
f 915 914 923
f 922 904 901
f 917 904 922
f 916 923 914
f 922 924 917
f 917 895 904
f 924 925 917
f 916 926 927
f 918 926 916
f 906 917 925
f 925 928 906
f 906 928 909
f 926 918 929
f 650 931 911
f 650 652 931
f 931 921 911
f 919 912 932
f 912 920 933
f 921 935 922
f 936 935 921
f 937 920 915
f 915 923 937
f 938 922 935
f 937 923 939
f 938 957 924
f 924 922 938
f 916 940 923
f 923 940 939
f 924 941 942
f 927 940 916
f 942 925 924
f 927 943 940
f 927 945 943
f 930 928 925
f 930 925 942
f 942 944 930
f 929 927 926
f 945 927 929
f 702 124 946
f 897 946 124
f 897 910 919
f 897 919 948
f 932 948 919
f 652 653 931
f 653 949 931
f 934 931 949
f 949 952 934
f 950 948 932
f 950 932 951
f 932 933 951
f 934 952 936
f 934 936 921
f 920 951 933
f 935 936 953
f 951 920 954
f 920 937 954
f 955 935 953
f 935 955 938
f 939 954 937
f 957 938 955
f 939 958 954
f 924 957 941
f 940 958 939
f 943 958 940
f 944 942 941
f 960 959 943
f 945 960 943
f 944 961 930
f 963 962 960
f 963 960 945
f 964 961 982
f 736 702 946
f 946 965 736
f 947 946 897
f 947 965 946
f 948 965 947
f 948 947 897
f 949 653 966
f 966 653 654
f 949 966 952
f 965 948 967
f 948 950 967
f 950 968 967
f 936 952 953
f 952 969 953
f 950 951 968
f 970 968 951
f 951 954 956
f 956 970 951
f 971 953 969
f 953 971 955
f 970 956 972
f 956 954 958
f 973 972 956
f 956 958 973
f 955 971 957
f 957 971 974
f 972 973 975
f 971 976 974
f 974 976 977
f 941 957 974
f 958 943 973
f 978 941 974
f 975 973 979
f 973 943 959
f 979 973 959
f 978 974 977
f 941 978 944
f 977 981 978
f 961 944 978
f 980 979 959
f 982 961 978
f 982 978 981
f 980 959 962
f 980 962 983
f 959 960 962
f 645 647 655
f 655 646 645
f 647 758 655
f 655 984 966
f 758 984 655
f 654 655 966
f 984 985 966
f 986 735 736
f 735 986 763
f 736 987 986
f 965 987 736
f 965 967 987
f 966 985 989
f 989 952 966
f 952 989 969
f 763 986 765
f 767 765 986
f 988 986 987
f 986 988 767
f 987 967 988
f 993 988 967
f 989 990 969
f 991 969 990
f 990 989 985
f 988 992 767
f 992 988 993
f 968 993 967
f 993 968 970
f 969 991 971
f 994 992 993
f 972 994 993
f 972 993 970
f 992 771 767
f 996 994 972
f 971 991 995
f 992 994 997
f 971 995 976
f 997 771 992
f 996 972 975
f 976 995 999
f 999 995 998
f 1000 771 997
f 997 994 996
f 996 975 979
f 977 976 999
f 1001 977 999
f 774 771 1000
f 1002 997 996
f 997 1002 1003
f 996 979 1002
f 1004 1001 999
f 1000 997 1003
f 1000 1003 777
f 1005 1001 1004
f 1005 977 1001
f 1006 777 1003
f 980 1002 979
f 1007 1005 1004
f 977 1005 981
f 1006 781 777
f 1008 1003 1002
f 1008 1006 1003
f 980 983 1002
f 1007 1009 1005
f 1010 1005 1009
f 981 1005 1010
f 758 757 1011
f 784 1011 757
f 985 984 758
f 758 1011 985
f 985 1011 990
f 784 785 1012
f 1012 1011 784
f 990 1011 1012
f 1012 1013 990
f 990 1013 991
f 995 991 1013
f 1012 1014 1013
f 1012 785 1014
f 995 1013 998
f 788 1014 785
f 998 1013 1014
f 1014 788 1015
f 788 790 1015
f 998 1014 1015
f 998 1015 1016
f 1004 999 998
f 790 792 1017
f 1017 1015 790
f 1007 1004 998
f 1007 998 1016
f 1016 1017 1007
f 1017 1016 1015
f 1018 1017 792
f 1019 1007 1017
f 1019 1017 1018
f 896 518 516
f 628 517 622
f 518 896 623
f 896 1021 623
f 1022 622 629
f 624 1022 629
f 1023 623 1021
f 1023 630 623
f 625 1022 624
f 1022 625 631
f 1023 1029 630
f 633 1024 626
f 627 630 632
f 630 1025 632
f 626 1024 631
f 634 635 633
f 635 1026 633
f 636 1026 635
f 632 1025 636
f 908 628 1020
f 628 622 1020
f 1021 896 907
f 907 909 1021
f 909 1027 1021
f 1020 622 1022
f 1021 1027 1023
f 631 1028 1022
f 1024 1028 631
f 630 1029 1025
f 1025 1029 1036
f 1030 1024 633
f 1026 1030 633
f 1031 1026 636
f 1030 1026 1031
f 636 1025 1038
f 1038 1041 636
f 636 1041 1031
f 1020 918 908
f 1020 1032 918
f 1020 1022 1032
f 1032 1022 1028
f 1035 1023 1027
f 1027 1033 1035
f 1023 1035 1029
f 1028 1024 1034
f 1034 1024 1037
f 1038 1025 1036
f 1030 1037 1024
f 1037 1030 1039
f 1039 1030 1040
f 1031 1040 1030
f 1042 928 930
f 1042 909 928
f 918 1032 929
f 1042 1027 909
f 1033 1027 1042
f 1032 1028 1034
f 1044 1035 1033
f 1029 1035 1036
f 1035 1046 1036
f 1036 1046 1038
f 1046 1048 1038
f 1037 1039 1047
f 1031 1041 1040
f 1038 1048 1041
f 930 1049 1042
f 1049 930 961
f 963 945 929
f 963 929 1050
f 1049 1051 1042
f 929 1032 1043
f 1043 1050 929
f 1042 1053 1033
f 1042 1051 1053
f 1034 1043 1032
f 1043 1034 1054
f 1044 1033 1053
f 1037 1045 1034
f 1045 1054 1034
f 1045 1037 1047
f 1044 1055 1046
f 1048 1046 1055
f 1047 1039 1040
f 1041 1048 1057
f 1040 1056 1047
f 1056 1040 1041
f 964 1049 961
f 1049 964 1051
f 1051 964 1058
f 1050 1052 963
f 1043 1052 1050
f 1052 1043 1054
f 1060 1052 1054
f 1051 1061 1053
f 1053 1062 1044
f 1063 1054 1045
f 1064 1063 1045
f 1062 1055 1044
f 1057 1048 1055
f 1064 1065 1063
f 1056 1064 1047
f 1047 1064 1045
f 1065 1064 1056
f 1057 1056 1041
f 1066 983 962
f 962 963 1066
f 1081 1058 981
f 964 982 1058
f 1058 982 981
f 1052 1066 963
f 1068 1058 1081
f 1066 1060 1067
f 1060 1066 1052
f 1058 1068 1051
f 1061 1068 1069
f 1068 1061 1051
f 1067 1060 1070
f 1059 1060 1054
f 1059 1072 1060
f 1062 1053 1061
f 1061 1071 1062
f 1059 1074 1072
f 1059 1063 1074
f 1059 1054 1063
f 1076 1055 1075
f 1055 1076 1057
f 1062 1075 1055
f 1065 1078 1077
f 1065 1077 1063
f 1056 1057 1076
f 1056 1076 1079
f 1056 1078 1065
f 1079 1078 1056
f 1080 781 1006
f 1002 983 1008
f 1082 1081 1010
f 1010 1009 1082
f 1006 1008 1084
f 1066 1008 983
f 1083 1008 1066
f 1081 981 1010
f 781 1080 853
f 1084 1080 1006
f 1008 1083 1084
f 1083 1066 1067
f 858 853 1080
f 1080 1084 858
f 1067 1084 1083
f 1084 1067 1085
f 1086 1081 1082
f 1069 1068 1081
f 1081 1086 1069
f 1084 1085 858
f 1085 1087 858
f 1067 1070 1085
f 1085 1070 1088
f 1088 1087 1085
f 1070 1060 1073
f 1069 1086 1089
f 1069 1089 1090
f 1061 1069 1071
f 1070 1073 1088
f 1072 1073 1060
f 1069 1090 1071
f 1074 1073 1072
f 1074 1063 1077
f 1062 1091 1075
f 1091 1062 1071
f 1092 1075 1091
f 1093 1077 1078
f 1077 1093 1074
f 1093 1078 1094
f 1076 1075 1092
f 1092 1079 1076
f 1092 1094 1079
f 1079 1094 1078
f 869 1018 792
f 1007 1019 1009
f 1019 1018 1095
f 1018 869 1095
f 1009 1019 1095
f 1009 1095 1082
f 870 871 873
f 869 870 1095
f 1086 1095 1096
f 1082 1095 1086
f 873 1095 870
f 1095 873 1097
f 1097 1096 1095
f 1096 1097 1089
f 1086 1096 1089
f 858 1087 862
f 1087 1088 877
f 874 1098 1097
f 1089 1097 1098
f 1089 1071 1090
f 877 862 1087
f 1099 877 1088
f 1100 1099 1088
f 1073 1100 1088
f 1074 1100 1073
f 1071 1103 1091
f 1103 1071 1089
f 1103 1104 1091
f 1091 1104 1092
f 1099 1101 1105
f 1100 1101 1099
f 1102 1101 1100
f 1101 1102 1106
f 1102 1100 1074
f 1107 1106 1102
f 1106 1107 1108
f 1093 1102 1074
f 1093 1107 1102
f 1093 1094 1107
f 1107 1094 1108
f 1108 1094 1104
f 1094 1092 1104
f 1109 1098 874
f 1098 1103 1089
f 884 1109 874
f 885 1109 884
f 1109 885 1112
f 1109 1103 1098
f 1109 1112 1110
f 1103 1109 1110
f 1105 878 877
f 888 878 1111
f 1111 878 1105
f 1111 889 888
f 1105 877 1099
f 1111 1112 889
f 885 889 1112
f 1105 1101 1111
f 1111 1110 1112
f 1101 1106 1111
f 1106 1110 1111
f 1106 1113 1110
f 1104 1103 1113
f 1108 1113 1106
f 1103 1110 1113
f 1108 1104 1113
f 1046 1035 1044
f 674 665 688
f 718 701 702
f 679 694 693
f 933 932 912
f 387 390 381
f 673 689 794
f 811 818 713
f 568 429 577
f 577 588 580
f 640 645 646
f 873 874 1097
f 516 895 906
f 323 336 796
f 604 499 596
f 290 268 271
f 931 934 921
f 503 496 515
f 10 11 8
