# File exported by Houdini 21.0.440 (www.sidefx.com)
# 798 points
# 4646 vertices
# 1515 primitives
# Bounds: [-0.00303044799, -0.00227087177, 0.00597265735] to [0.0272294339, 0.069880411, 0.0266972985]
g 
v 0.0216658004 0.0134711936 0.023395719
v 0.0214942843 0.00913338456 0.0215550475
v 0.0219113138 0.0159203876 0.0179010369
v 0.0217432119 0.0127460277 0.0176458005
v 0.0209933445 0.00781827699 0.0233747531
v 0.0209306329 0.0136517687 0.0242887475
v 0.0221095812 0.0161098689 0.0227121115
v 0.0199767184 0.0113272639 0.0242784601
v 0.0204799268 0.0212548859 0.0247391108
v 0.0189467762 0.0179005563 0.0244491566
v 0.0216586608 0.0226204693 0.0245387722
v 0.0189609602 0.0107510937 0.024058681
v 0.0177328009 0.0156025141 0.0241079181
v 0.0176612306 0.0128694847 0.0230652001
v 0.0175641514 0.0109974984 0.0236341674
v 0.0169354863 0.016126452 0.0231479425
v 0.0183381923 0.0191648491 0.0239629578
v 0.0180187188 0.0126071246 0.0199814215
v 0.0173955187 0.0112486882 0.019848885
v 0.0172800794 0.0118040415 0.0224626921
v 0.0168925337 0.015190606 0.0222605821
v 0.0114435647 0.00896440912 0.0194612723
v 0.0119724246 0.0118965302 0.0208073854
v 0.0115766069 0.00951089151 0.022914825
v 0.022364527 0.0198087078 0.0161798075
v 0.0225475244 0.0206501223 0.00895444024
v 0.0221950598 0.0157204475 0.0105965184
v 0.0223148167 0.019826686 0.0226857197
v 0.022279894 0.0231175814 0.0240316819
v 0.0189725664 0.0222071148 0.0243271273
v 0.0217791721 0.0306442138 0.0252053458
v 0.019674778 0.0290312078 0.0249948818
v 0.0180269722 0.0264896359 0.0245139282
v 0.0180883165 0.0232421234 0.0229750145
v 0.0183879863 0.0295445435 0.0159975961
v 0.0177348834 0.0267242994 0.0167302694
v 0.0185960233 0.0296524353 0.0194524825
v 0.0178293549 0.0263875145 0.0204527844
v 0.0176759791 0.0269760732 0.0234676655
v 0.0184765272 0.029626729 0.0234992187
v 0.0182476975 0.0226297583 0.0146286376
v 0.0176712163 0.0219729468 0.0141532589
v 0.0177884568 0.0192322247 0.0221743193
v 0.017651407 0.0190876573 0.0184874684
v 0.017174283 0.0169362221 0.0188052393
v 0.0176609792 0.020080613 0.0220676698
v 0.0178087205 0.0249459762 0.0155558484
v 0.018286474 0.023697868 0.0189924464
v 0.0180308726 0.0223913193 0.0182644054
v 0.0178637914 0.0117483772 0.0175716672
v 0.0173358973 0.0148875397 0.0187847912
v 0.017415883 0.0192146767 0.0140063353
v 0.0177858584 0.0222881734 0.0110884663
v 0.0181854237 0.0233785622 0.00949796103
v 0.0166545976 0.0204033833 0.0162334722
v 0.0175618865 0.0151099591 0.0131905451
v 0.0163944978 0.0202109646 0.0113662817
v 0.0159890167 0.022363821 0.0115446625
v 0.0159101617 0.0222213324 0.0167910717
v 0.0165687166 0.0205459092 0.0214745607
v 0.0170813818 0.0204824507 0.00999534037
v 0.0147002731 0.0203545988 0.0163286701
v 0.013550669 0.0201182272 0.0102070384
v 0.0134822307 0.0220995005 0.0164444
v 0.0136236204 0.0204054639 0.0218663346
v 0.0172446817 0.0209724288 0.0224836841
v 0.0133176604 0.0221820008 0.0116731105
v 0.0134857716 0.0217948984 0.0139913848
v 0.0122668296 0.0206809472 0.0223813988
v 0.0123707401 0.0214187838 0.0220587254
v 0.0135368789 0.019393377 0.0147350458
v 0.0127112158 0.0196065307 0.0214982666
v 0.01315594 0.0226591546 0.0205969177
v 0.0177351069 0.0229921881 0.0204031672
v 0.0147494562 0.0149949091 0.017002536
v 0.0137274824 0.0168984588 0.0172152724
v 0.0142289251 0.0163207818 0.0137853986
v 0.0153066311 0.0144396815 0.0142342281
v 0.0134592615 0.0182884634 0.0156258997
v 0.0140327346 0.0207281578 0.00959384348
v 0.0123123433 0.0182661489 0.0212174021
v 0.0126859695 0.0222401507 0.0150245847
v 0.0161293894 0.023148289 0.0185151268
v 0.0116899936 0.0232190266 0.0205678623
v 0.0129460599 0.0156664196 0.021272853
v 0.0128124496 0.0134870112 0.0221165847
v 0.0137916682 0.0127860634 0.0200539045
v 0.0114879068 0.0173095036 0.0223954637
v 0.0123045631 0.0232725646 0.0116188275
v 0.0130793452 0.0229128059 0.0176641028
v 0.0112303877 0.0159317255 0.0212570354
v 0.0125417896 0.0116785187 0.0221387502
v 0.0119459787 0.0225397833 0.0103091355
v 0.0110398978 0.0205985028 0.0228763875
v 0.0119788507 0.0249013677 0.016613178
v 0.0106332395 0.0255300216 0.0198473558
v 0.0110221859 0.0223309975 0.0222939793
v 0.0119961323 0.0135414153 0.0164294317
v 0.0109031275 0.0177647974 0.0170831736
v 0.0101813041 0.0196000505 0.0199946668
v 0.00930034555 0.0239976477 0.0224445369
v 0.0108726611 0.02717923 0.0158553217
v 0.00996201672 0.0264018122 0.0221507847
v 0.010284909 0.0287410449 0.0157102756
v 0.00929203909 0.0272071641 0.0230209995
v 0.0112796696 0.0160984136 0.0123985428
v 0.00852729287 0.0257463157 0.0208255984
v 0.0100062815 0.0292421747 0.0218438078
v 0.0102326078 0.0293612927 0.016551923
v 0.00881314371 0.0257795956 0.014149949
v 0.0100930175 0.0200352613 0.0107109714
v 0.00950669218 0.0230249278 0.017412249
v 0.00862383656 0.0256219991 0.011152314
v 0.0215381179 0.0113369981 0.0154375006
v 0.0216254275 0.01220976 0.00824512262
v 0.0224559177 0.0190766919 0.00847397186
v 0.0219256543 0.0113468263 0.00920251478
v 0.0215155706 0.00776753668 0.0104679931
v 0.021081239 0.0128427651 0.00766199129
v 0.0212567747 0.00688674813 0.0182401612
v 0.0218715165 0.0199818593 0.00747129833
v 0.0214622151 0.00481800176 0.00960627943
v 0.0209536273 0.00492588477 0.00814243872
v 0.0209858473 0.00190271984 0.0131931975
v 0.0210519284 0.00510211894 0.0156204011
v 0.0195382498 0.00997310691 0.00765441218
v 0.0212819204 0.0214497242 0.00725995423
v 0.0200347416 0.0204921048 0.00740454765
v 0.0177498665 0.016818868 0.00808922853
v 0.0186414514 0.0109091029 0.0080654202
v 0.0179519989 0.0114626288 0.0137611087
v 0.0173540469 0.0103232544 0.0186448563
v 0.0175052714 0.0110510979 0.0122860642
v 0.0178182516 0.0116621023 0.00876858272
v 0.0179020427 0.012408955 0.00935392268
v 0.0171704125 0.0163235348 0.00893085264
v 0.0171224494 0.0116528552 0.0100773918
v 0.0171046909 0.0159765426 0.0104329772
v 0.0173871201 0.0196636301 0.00977825373
v 0.0176226106 0.00983743835 0.00801541004
v 0.0163612738 0.00422314508 0.0084750168
v 0.0155518586 0.01083491 0.0118703302
v 0.0145240333 0.0111317644 0.0132953115
v 0.0147527605 0.0104077682 0.0188515801
v 0.014677546 0.0118948221 0.0102089774
v 0.0122986045 0.00975842308 0.00829788949
v 0.0134151131 0.00437780563 0.00833300874
v 0.0139443297 0.0119957607 0.0145896208
v 0.0142629975 0.0131279621 0.0112616895
v 0.0144581599 0.0147629092 0.0117002828
v 0.0141189499 0.0126954848 0.0149252713
v 0.0143084265 0.0117825093 0.0193486717
v 0.0147823887 0.0133227529 0.0169996843
v 0.0130137429 0.0131093133 0.00988313276
v 0.0132264933 0.0182502568 0.0110961171
v 0.0124142524 0.0199644677 0.00934038498
v 0.0113391848 0.00915331487 0.008759927
v 0.0126581835 0.00401259167 0.00889320113
v 0.0115696993 0.00931293704 0.0159372408
v 0.0129304091 0.00379241235 0.0129370159
v 0.0131448591 0.0028396782 0.0172444228
v 0.0116740968 0.00917437114 0.0127980588
v 0.0120601729 0.0122299446 0.0111882044
v 0.0118622081 0.0111461272 0.0101410281
v 0.0116587738 0.0162965674 0.0100804856
v 0.0132627403 0.0112811401 0.00919857807
v 0.0111826109 0.00888988283 0.0100961784
v 0.00963325426 0.0235405844 0.00970675144
v 0.0262159295 0.0603480786 0.0205253139
v 0.0264601577 0.0608990267 0.0250886437
v 0.0268201809 0.0649431497 0.0214910004
v 0.0261575021 0.05794774 0.0246171858
v 0.0257104989 0.0560996309 0.0253645759
v 0.0259450749 0.0615162253 0.0262783375
v 0.0268708691 0.0647756681 0.024308119
v 0.0267799348 0.0652384534 0.0167412497
v 0.0269342456 0.0684958547 0.0152165145
v 0.0268111564 0.0691935495 0.0197011661
v 0.0265089907 0.0624814071 0.0149400653
v 0.0257399399 0.0556985922 0.0214187037
v 0.0262053516 0.0608356073 0.0143553177
v 0.0260537602 0.0586363301 0.0136785265
v 0.0257608276 0.0568848625 0.0128237251
v 0.0253819358 0.0513891391 0.0238931905
v 0.0252889991 0.0520312712 0.0207246728
v 0.0250704866 0.0519461669 0.0253405496
v 0.0241581537 0.0546847917 0.0261412635
v 0.0248646997 0.0616545901 0.026520716
v 0.025030965 0.0492421165 0.0190680847
v 0.0255741403 0.0537774786 0.0139127132
v 0.0257328413 0.0564577132 0.00808776077
v 0.0250653438 0.047509104 0.0245274287
v 0.0239402875 0.0460659415 0.0256845895
v 0.0227079596 0.0585416853 0.0263392348
v 0.0228513572 0.0635625869 0.0264146291
v 0.0217196792 0.0520819686 0.0257911794
v 0.0211758167 0.0560848676 0.0260557234
v 0.0224018265 0.0475651547 0.0258900635
v 0.0205104314 0.0569192544 0.025759168
v 0.0213100314 0.0601589009 0.0253593046
v 0.0209111199 0.053104002 0.0251578689
v 0.0210617315 0.0596376732 0.0208419207
v 0.0209743846 0.0607364923 0.0220539346
v 0.0205517914 0.0611522049 0.0184004158
v 0.0208939742 0.0611652471 0.0242236312
v 0.0214656703 0.0641965047 0.0232568663
v 0.0214647036 0.0634466782 0.0190696027
v 0.0209030993 0.0630856901 0.0227798745
v 0.0211655907 0.0627489835 0.0177594945
v 0.0208632853 0.0604701303 0.0176896509
v 0.019971285 0.0574783832 0.0161821339
v 0.0203572158 0.0536306798 0.0235882439
v 0.0196343623 0.0517735295 0.0237616282
v 0.020179268 0.0572788268 0.0244854782
v 0.0204784125 0.0574022233 0.0195814744
v 0.0206044875 0.0624686442 0.0177787542
v 0.0192935038 0.0633901432 0.0194736049
v 0.0204225071 0.0540036969 0.0201681964
v 0.0199353434 0.05353247 0.0188424792
v 0.0199877676 0.054031983 0.0165513288
v 0.0205419194 0.0600227192 0.0139276581
v 0.0200603213 0.0607073419 0.0138920816
v 0.0194339249 0.0613008402 0.0195569582
v 0.0195205603 0.061312519 0.0240605623
v 0.0188553352 0.0633202717 0.0226052944
v 0.0206331629 0.0620586351 0.0244780388
v 0.0267934613 0.0677056015 0.0113654016
v 0.0265178178 0.0696705729 0.0204788502
v 0.0265396368 0.0643072203 0.00709893322
v 0.0269825421 0.067202203 0.00753125455
v 0.0261428412 0.0698269978 0.0117986863
v 0.025857199 0.0697488412 0.00773049239
v 0.0262983777 0.0612740442 0.0082852887
v 0.0254726447 0.055047214 0.00733296806
v 0.0249986351 0.0565970279 0.00647379598
v 0.0262004826 0.0675472319 0.00597265735
v 0.0241800006 0.0610431917 0.00605332851
v 0.0248415116 0.0694915354 0.00658098888
v 0.0227570292 0.0688836426 0.00608554622
v 0.0225655753 0.0621868111 0.00626054639
v 0.0222000107 0.0667416081 0.00598971639
v 0.0225192327 0.0698159114 0.00701526925
v 0.0215153303 0.0634798706 0.00676452881
v 0.0215973072 0.066365242 0.0190306585
v 0.0220146105 0.0690688714 0.01554868
v 0.0224303268 0.0695981905 0.0185620803
v 0.0218669083 0.0694941282 0.00734933885
v 0.0212437902 0.0678119138 0.00695591839
v 0.021376323 0.0671658665 0.0118211498
v 0.0212276988 0.0660427883 0.0162641127
v 0.0207768902 0.0622164495 0.00779208401
v 0.0208707973 0.0601374097 0.00762883481
v 0.0211860836 0.0636187047 0.0122479368
v 0.021037057 0.0643920079 0.00871522073
v 0.0207894724 0.0629367754 0.0126465997
v 0.0206592623 0.0608382262 0.0082290601
v 0.0202068351 0.0563652888 0.0116618099
v 0.0228308905 0.0257338956 0.00804346241
v 0.0224856213 0.029298136 0.00727918558
v 0.0191190634 0.0223911628 0.00798472948
v 0.0176137965 0.0214290135 0.00982384104
v 0.0187531356 0.0263064057 0.00769927865
v 0.010847236 0.0219749101 0.00941320229
v 0.0246661101 0.0449349433 0.024309773
v 0.0246418305 0.0443038344 0.020343136
v 0.0207853187 0.042535238 0.025407562
v 0.0199698526 0.0471881703 0.0255193431
v 0.0206528902 0.0505109504 0.0251750145
v 0.0199036691 0.0433548279 0.0245087016
v 0.019210605 0.0466607846 0.0238291323
v 0.0201941431 0.0507238433 0.0239112265
v 0.00881169736 0.0596099943 0.0125971539
v 0.00820715539 0.0599047542 0.00912030227
v 0.0056272517 0.0599205419 0.0139388535
v 0.0102870623 0.0595600754 0.0154887289
v 0.00684201159 0.060509637 0.00798758864
v 0.00534009049 0.0612269081 0.00898979325
v 0.00729217846 0.0615386888 0.0174964797
v 0.00618779566 0.0624821596 0.0113782985
v 0.00890067313 0.062214639 0.0128487172
v 0.00376905128 0.0621647537 0.0157317594
v 0.00516509172 0.0604764931 0.00935188867
v 0.00307452912 0.0606045984 0.00903710444
v 0.00298880949 0.0616922341 0.00945726782
v 0.00849384535 0.0625586584 0.00992441736
v 0.00342427683 0.0601227097 0.00965292659
v 0.00362622156 0.0597353242 0.0152441375
v 0.00295836688 0.0587739646 0.0168262906
v 0.00275186286 0.0623821132 0.010757695
v 0.00304172747 0.0624319464 0.0138826603
v 0.00285518216 0.0571827367 0.00896103214
v 0.00245741359 0.0562034622 0.00834856182
v 0.00446755486 0.0527394526 0.0101120593
v 0.0028982542 0.0585586242 0.0096296072
v 0.00358796655 0.0557989702 0.011311233
v 0.00308177434 0.0528353751 0.00843870547
v 0.00175636262 0.0605539866 0.00813360512
v 0.00312730926 0.0570427664 0.0151148262
v 0.00153502438 0.0624132492 0.00856093038
v 0.00210849335 0.062947005 0.0129857557
v 0.00178114593 0.0632502288 0.00985217281
v 0.00178313663 0.064042896 0.0148412362
v 0.000666276377 0.0672147498 0.0119175408
v 0.000103744816 0.0674135759 0.00812682882
v 0.000749483355 0.0670581013 0.00896584056
v 0.000884916459 0.0664178953 0.0181190018
v 0.00154678721 0.0640511587 0.0186729487
v 0.000812689832 0.0579869673 0.00864679553
v 0.00122876652 0.0581190772 0.00824287999
v 0.00105250347 0.0554440282 0.00950730406
v 0.000776527799 0.0686671212 0.00855549704
v 0.00112802302 0.0694201589 0.00675457297
v -0.000614955905 0.0687341392 0.00708387839
v 0.000744113233 0.069416523 0.0139594488
v 0.000651828886 0.0682722256 0.0174846277
v -0.000631050032 0.0626178533 0.00929660257
v 0.000308363378 0.0596688725 0.0130676497
v -0.0010567205 0.067349717 0.00812020246
v 0.000252044876 0.0600852221 0.0184055008
v -0.000725846156 0.0641225427 0.0191406887
v -0.0009718191 0.0649444088 0.0137109812
v -0.00270611933 0.0693501607 0.0064272075
v -0.0019612594 0.0680281147 0.0129955383
v -0.0017112589 0.0675852448 0.0193802435
v -0.00180165772 0.0671151578 0.00951685384
v -0.00303044799 0.0692902952 0.0100513976
v -0.00250676414 0.0693606511 0.0149015626
v 0.0083250599 0.0366612263 0.0135585181
v 0.0102032032 0.0336639695 0.0155958049
v 0.00872634724 0.034847036 0.0109122349
v 0.008115042 0.0388492011 0.0108728269
v 0.00807051081 0.039725814 0.00954384729
v 0.00772362854 0.039030537 0.0155187044
v 0.00777199352 0.0395090245 0.0172706675
v 0.00895021111 0.0398157053 0.0108320257
v 0.00742821163 0.0383378156 0.0183234904
v 0.00880283024 0.0357281342 0.0174901187
v 0.00862816814 0.033739768 0.0197036657
v 0.00739242509 0.0383311547 0.0224475451
v 0.00833283644 0.033874657 0.0218131822
v 0.00700469268 0.0392091833 0.0235502291
v 0.00924890116 0.0401085578 0.0202583671
v 0.00783028826 0.0332234688 0.0231704284
v 0.00762548484 0.0393990055 0.0226153564
v 0.00629568519 0.0396597236 0.0240395851
v 0.00801585801 0.0285504777 0.0177025571
v 0.00486862613 0.0430565141 0.0239665266
v 0.00768709695 0.0314849876 0.0232318938
v 0.00672518648 0.0450248532 0.0177378356
v 0.00658193417 0.0342925116 0.0171241388
v 0.00614298554 0.0348297283 0.0210099295
v 0.00716896355 0.0317449793 0.0226104073
v 0.00465504639 0.0416907035 0.0231404528
v 0.00542362314 0.0466826297 0.0201958977
v 0.00561747141 0.0456837527 0.0229923017
v 0.00651645241 0.0433426909 0.0207539164
v 0.00609078864 0.0360830873 0.0129532851
v 0.00563484337 0.0382831842 0.0169384684
v 0.00424600067 0.0426047966 0.0221819263
v 0.00489377137 0.0480683893 0.0234120525
v 0.00548009621 0.0487882346 0.0145941293
v 0.0060031279 0.0462717637 0.0157010462
v 0.00663480535 0.0331266932 0.0110013839
v 0.00507871062 0.0391399749 0.0104153063
v 0.00450081518 0.0434861518 0.0170552041
v 0.00475019682 0.0421508737 0.0187715236
v 0.00369347632 0.0466113612 0.0133139482
v 0.0034675519 0.0474348441 0.0184301194
v 0.00282070856 0.0488052182 0.0229694806
v 0.0203577206 0.0365838818 0.00711919181
v 0.0225214045 0.0367476344 0.00697970483
v 0.0189868156 0.0371702537 0.00746373367
v 0.020197263 0.0413026363 0.00755337533
v 0.023201827 0.0447665378 0.00673127268
v 0.0220688861 0.046587728 0.00669138413
v 0.0199103337 0.0469889641 0.00706791366
v 0.0197817422 0.0427889489 0.0082702022
v 0.0187530071 0.0336084254 0.0089782821
v 0.0193750896 0.0397224799 0.0134789087
v 0.0191700216 0.0401803814 0.00886544306
v 0.0185789634 0.0373412073 0.00859762449
v 0.0190244149 0.0324990675 0.00818932708
v 0.0141024832 0.0402537473 0.00895991549
v 0.0175615884 0.0410880037 0.0090553686
v 0.0150865195 0.0411985815 0.00859677978
v 0.0111951344 0.0410342589 0.00854940061
v 0.0214333441 0.0507944301 0.00677000126
v 0.0203962158 0.0509281382 0.00762371067
v 0.0203479845 0.053365007 0.00838412624
v 0.0200005677 0.0530616753 0.0108172726
v 0.0194737799 0.0528162234 0.0143670766
v 0.0179764945 0.05292321 0.0131524205
v 0.0200783554 0.0569790006 0.00791381206
v 0.0198774096 0.0496916622 0.016464645
v 0.0196201876 0.0503558069 0.0154634453
v 0.019488208 0.0475101769 0.0201519728
v 0.0190086979 0.0511199832 0.0185424127
v 0.0201887134 0.0495358743 0.0215385444
v 0.0199424941 0.0504034609 0.00907883327
v 0.0194016509 0.0473169386 0.00797882024
v 0.0199813619 0.0495606773 0.0115396576
v 0.0194183793 0.0473621413 0.0114047257
v 0.0190916713 0.0506327376 0.0130251395
v 0.0190013014 0.0513067953 0.00889908988
v 0.0189792514 0.0462562256 0.0155407181
v 0.0193033814 0.0519866534 0.00843079947
v 0.0183914993 0.0508694574 0.0114388457
v 0.0141677437 0.0529029332 0.00995793287
v 0.0194371454 0.0456157811 0.0198723581
v 0.0195543356 0.0434873551 0.0101062329
v 0.0194607396 0.0435563289 0.0145139555
v 0.0190206766 0.0428068712 0.010791772
v 0.0185778774 0.0419633128 0.00913421996
v 0.0192220844 0.0433071889 0.0170884989
v 0.0177700818 0.0433178134 0.0187561419
v 0.0184382796 0.0528770722 0.0165793058
v 0.0186500531 0.040732827 0.00900704693
v 0.0171062164 0.0427751057 0.0131860925
v 0.0171093829 0.0428534821 0.0171593092
v 0.0155791827 0.050608851 0.00826775748
v 0.0145150283 0.0524212532 0.00880349521
v 0.0146546029 0.051291097 0.00786781032
v 0.0160679184 0.0505182855 0.0151159838
v 0.0178163163 0.0409460962 0.015064449
v 0.0192601886 0.0405647643 0.017169429
v 0.0145391859 0.0427859388 0.0101736123
v 0.0156627353 0.0503517911 0.0201770905
v 0.0136083029 0.0401530899 0.0124250893
v 0.0145183858 0.0505919158 0.0117629776
v 0.013112477 0.0527377985 0.0118762385
v 0.0119977901 0.0526255071 0.0137162749
v 0.0138283521 0.0399888046 0.015736632
v 0.0143233016 0.0424169041 0.00942083169
v 0.0142025398 0.0421588495 0.0148530249
v 0.0126749584 0.05020044 0.00878729671
v 0.0111007132 0.0499797352 0.0119606424
v 0.0114164958 0.0496601053 0.0146679534
v 0.0107719321 0.0497122705 0.0190649424
v 0.0110547245 0.0522000566 0.0152185308
v 0.00962278713 0.0502243899 0.00870903675
v 0.010344781 0.0424323492 0.0123980958
v 0.0103152683 0.0406636409 0.00922058057
v 0.0100364704 0.0401992835 0.0104072196
v 0.0090342341 0.0498029068 0.0153971277
v 0.00843487773 0.0518695414 0.0161239021
v 0.0104931146 0.0415314287 0.00924258213
v 0.00893776491 0.0519640185 0.0094803432
v 0.00830216333 0.0524919368 0.010919855
v 0.00985772908 0.0400926694 0.0141154313
v 0.00809968077 0.0423187129 0.010549305
v 0.010378168 0.0421059951 0.0153875723
v 0.00686960714 0.0499085151 0.0131129967
v 0.00803513825 0.0408790782 0.00904412288
v 0.00798122305 0.0419643298 0.013620154
v 0.00750919292 0.0500113182 0.0183578692
v 0.00792317558 0.05050027 0.00932794809
v 0.0054248753 0.0523121245 0.0130120199
v 0.0062254481 0.0518380702 0.0145981256
v 0.0236634538 0.0333464593 0.022941744
v 0.0231746286 0.0294995159 0.023732055
v 0.0231823064 0.0323648266 0.0246662889
v 0.0234006718 0.0378924832 0.0251889601
v 0.0228999294 0.0256219711 0.0223058332
v 0.0233748406 0.0317598581 0.0185381919
v 0.0234003328 0.0313090123 0.0156502333
v 0.0238637514 0.0355099775 0.0169344302
v 0.019650612 0.0328713171 0.024833357
v 0.0221920647 0.0372741818 0.0254431311
v 0.0191369634 0.036895331 0.0251791347
v 0.0195997916 0.0398531742 0.0194362141
v 0.0191021059 0.0407489948 0.0237727594
v 0.0187776946 0.0376589075 0.0197878685
v 0.0193577204 0.0398508683 0.0240153205
v 0.0186294895 0.0371695496 0.0241682697
v 0.0201654136 0.0391094051 0.0251210127
v 0.0188691635 0.0376249924 0.0137465727
v 0.0187302865 0.0328313075 0.021691611
v 0.0189484078 0.0335724726 0.0182655174
v 0.018962957 0.0335715897 0.0236224197
v 0.0185932796 0.0330517702 0.0196020734
v 0.0185159426 0.0357990451 0.0203529876
v 0.0185664929 0.0319669284 0.0231053121
v 0.017970195 0.0409476347 0.0227785949
v 0.0192953907 0.0429210775 0.0221286118
v 0.0186139289 0.0416899994 0.023638472
v 0.0196908098 0.0418173932 0.024462821
v 0.0176133253 0.0412741378 0.0236593392
v 0.0162168872 0.0433058701 0.0219193231
v 0.0182402059 0.0305655189 0.0231765267
v 0.0186110456 0.0355015211 0.0153037636
v 0.0167959873 0.030762136 0.0173425581
v 0.0169648807 0.0308067072 0.0229218267
v 0.0162148308 0.0332554094 0.0213402361
v 0.0166661572 0.0335489772 0.0184145868
v 0.0143834483 0.0322948918 0.0225281157
v 0.0140263066 0.0397335403 0.0226558484
v 0.0136795817 0.0426861122 0.0230711568
v 0.0129868081 0.0430911221 0.0222393591
v 0.0177913606 0.0305976402 0.0159433652
v 0.0141442474 0.0300966799 0.0223926008
v 0.0146909226 0.0402114466 0.0197783094
v 0.0142370332 0.0401424319 0.0238953345
v 0.0140235387 0.0411500297 0.0241711978
v 0.0142926732 0.0327761881 0.0201985054
v 0.0146010704 0.0323547237 0.017424101
v 0.0129238851 0.0328357182 0.0208216738
v 0.0142734339 0.0308651328 0.0233266242
v 0.0119267497 0.0399926044 0.0183095876
v 0.00933264103 0.0402303077 0.0237010252
v 0.012974943 0.0423789173 0.0203113258
v 0.0147799794 0.0423390791 0.0183313377
v 0.0116985003 0.0301962811 0.0224511027
v 0.00741334306 0.040765442 0.0238618907
v 0.00878848415 0.0424579196 0.0221010577
v 0.0114889285 0.0300965793 0.0151500134
v 0.010541182 0.0325442404 0.0215344131
v 0.00951431133 0.0320543274 0.0225097537
v 0.0108556459 0.0423419699 0.0184576679
v 0.00768556306 0.0417331569 0.0233356524
v 0.0105987536 0.0327678174 0.0180333257
v 0.007689266 0.0421249419 0.0157718007
v 0.00967997592 0.0425449945 0.0187376626
v 0.00914731342 0.0338929035 0.0191620998
v 0.00779233268 0.0428224504 0.0180063974
v 0.00684883026 0.0427080765 0.0225766469
v 0.0272294339 0.0673269555 0.02402726
v 0.0269226264 0.0672029555 0.0261370987
v 0.0265411139 0.0686718673 0.0260075219
v 0.0266986676 0.0693568811 0.0243603848
v 0.0259449966 0.0679081455 0.0266972985
v 0.0223178547 0.068026945 0.0264298692
v 0.0219084229 0.0626614839 0.025241429
v 0.0212911163 0.0668760687 0.0255906843
v 0.0226109046 0.0698132813 0.024907358
v 0.0217197016 0.069080174 0.0252798777
v 0.0226104874 0.0697525665 0.0223211404
v 0.0252449159 0.0697560608 0.025988631
v 0.0214242339 0.0669364333 0.0221900474
v 0.0243019629 0.0419928916 0.0200198535
v 0.0246522594 0.0455494337 0.0136637175
v 0.0242724176 0.0404156223 0.0242630001
v 0.0243173409 0.0410546772 0.0170742404
v 0.024468679 0.0437379107 0.00799289625
v 0.0239134207 0.0373195894 0.0185527056
v 0.0240679905 0.0371925756 0.0236648712
v 0.02593394 0.069880411 0.0210192408
v 0.00687762583 0.0431614853 0.0108249569
v 0.00641302625 0.0501036793 0.00953008328
v 0.00564564113 0.052269876 0.0103519838
v 0.00655311067 0.0426040031 0.00953687821
v 0.00554505223 0.049277097 0.00993653014
v 0.00591051765 0.0496906601 0.02364159
v 0.00714132749 0.0442985855 0.0149633633
v 0.00580079854 0.046874892 0.0109381005
v 0.00793351978 0.0510775298 0.00916597899
v 0.00416422961 0.0504783168 0.00835842453
v 0.00520130852 0.0491054207 0.0235610083
v 0.00672629429 0.0398802012 0.00865498092
v 0.00496958289 0.0457537584 0.00868076552
v 0.00476867007 0.0484864563 0.00878477097
v 0.00732476544 0.0318743885 0.00945808366
v 0.00429728208 0.0435950123 0.00917042326
v 0.00599673344 0.0382378921 0.00888947863
v 0.00320875994 0.0495241098 0.00856302027
v 0.00409308262 0.0527462587 0.00923163444
v 0.00410591904 0.0545299314 0.0138647463
v 0.00277855969 0.048505187 0.010201185
v 0.00294087012 0.0489520729 0.00892971829
v 0.00190396316 0.0531624779 0.0123765953
v 0.00169375062 0.0544756837 0.0183708891
v 0.0232076515 0.0314210095 0.00793583039
v 0.0209695492 0.0289910249 0.00715651223
v 0.0192530658 0.0296627637 0.00783735514
v 0.017925337 0.0266515836 0.00855216291
v 0.0185986422 0.0334746428 0.0134233721
v 0.0181753729 0.0328701586 0.0109823262
v 0.0183993485 0.0325642489 0.0163032394
v 0.0186018068 0.0299244039 0.00909400079
v 0.0180473011 0.0265427846 0.01204048
v 0.0180813111 0.0305834692 0.0102201169
v 0.0177263599 0.0314600058 0.00912150089
v 0.0170119274 0.0308806356 0.00978981983
v 0.0176978428 0.0329099149 0.0112664914
v 0.0148543455 0.0304638278 0.0132062119
v 0.0148144923 0.0303424597 0.0107492069
v 0.0143193481 0.0324033611 0.0101745566
v 0.016338123 0.0324005783 0.0146169132
v 0.0133206807 0.0325653963 0.0119201606
v 0.0146098565 0.0312346742 0.00907072704
v 0.0109888343 0.0312890336 0.0096087791
v 0.0133621069 0.0305103529 0.00976028387
v 0.0136376237 0.0321303755 0.0142791215
v 0.0170657001 0.0326480754 0.0172839053
v 0.0113217132 0.0301871207 0.0104336441
v 0.0110086892 0.030569423 0.00957232341
v 0.0103312498 0.0325790346 0.0111947069
v 0.0107822632 0.031992767 0.0160866939
v 0.010349609 0.0297940709 0.022644626
v 0.0121212825 0.0247882623 0.0142136673
v 0.0106691374 0.0269448906 0.010918729
v 0.0104027512 0.0291142575 0.00990130939
v 0.0103286915 0.024954509 0.00956623349
v 0.00920112617 0.028382808 0.00908358023
v 0.00945553277 0.0331508331 0.010994507
v 0.0214283485 0.0540755093 0.0066473349
v 0.0205579456 0.0570139624 0.00667505525
v 0.0227670278 0.0249336883 0.0118217282
v 0.0253418088 0.0532780066 0.011159122
v 0.0248089712 0.0498761572 0.00728003262
v 0.0250895917 0.0492126644 0.0127847092
v 0.0211944357 0.00440630969 0.0220081098
v 0.0203544144 -0.00150479004 0.0225579944
v 0.0207363591 -0.000605895242 0.0168345943
v 0.0209866669 -0.000606548681 0.00943614077
v 0.0207755994 -0.000890075346 0.0214486569
v 0.0195459928 -0.00134358823 0.0233326759
v 0.0180197768 -0.00128934847 0.0234817453
v 0.0198598616 -0.00204251055 0.0221314095
v 0.0203480665 -0.00175904774 0.0126119489
v 0.0190570224 -0.00217065471 0.015640704
v 0.0198911391 -0.00201461301 0.0087938318
v 0.0182063151 -0.00227087177 0.0223108381
v 0.0165195074 0.00497987121 0.0235923193
v 0.01293399 0.00896750297 0.0237734318
v 0.0152890282 0.0111268284 0.0198828336
v 0.0145685291 0.0115852151 0.0217853654
v 0.0172184166 -0.00204536784 0.017203398
v 0.0154787973 -0.00112445175 0.0175076555
v 0.0164683927 -0.00195535482 0.0222964175
v 0.0149990814 -0.00117456296 0.0218320955
v 0.0152987326 -0.000510764599 0.0233134553
v 0.0142558077 0.000401680416 0.0170014165
v 0.0137277963 0.000493218773 0.022008298
v 0.013580705 0.0018341844 0.0230269153
v 0.0146935219 -0.000134146525 0.0124640064
v 0.0132554546 0.00152505247 0.0103618344
v 0.0122089908 0.00493660104 0.0218118783
v 0.0113370121 0.00830082595 0.0215285663
v 0.0118587604 0.00792640168 0.0232728962
v 0.00501497043 0.0624243654 0.0220006146
v 0.0101645812 0.0628387481 0.0228219107
v 0.00454315636 0.0622121654 0.0192865208
v 0.00772221992 0.0618661046 0.0204634331
v 0.00790184736 0.062426731 0.0239374693
v 0.00344372843 0.0619593225 0.0233276077
v 0.00869316608 0.0613853969 0.0249456465
v 0.00435228972 0.0604176149 0.0247514881
v 0.00279947324 0.0608900189 0.024710482
v 0.00358329248 0.060156446 0.024846293
v 0.00418255478 0.0622798987 0.0186008289
v 0.0023431161 0.0621751398 0.023477409
v 0.00174822926 0.0627353638 0.0241667349
v 0.00179118162 0.0630246475 0.020726813
v 0.00191989332 0.0590606257 0.0251925755
v 0.000168351311 0.0624595098 0.0250183158
v -0.000482506526 0.0679629296 0.02567113
v 0.000249982724 0.0678077042 0.0251012221
v 0.000519107969 0.0679512024 0.0241066422
v 0.000906670757 0.0694142282 0.0250282083
v 0.00305380253 0.0518807471 0.0246201307
v 0.00144479738 0.0562042594 0.0243837647
v -0.000205673146 0.0620312281 0.0240114406
v 0.000762504002 0.0694200769 0.0209725257
v -0.000832856167 0.0641230345 0.0229504406
v -0.00156691589 0.0680361465 0.02491818
v -0.00200001965 0.0682236403 0.02307483
v -0.00285595353 0.069354631 0.0249789134
v 0.0199524555 -0.00093871064 0.00800407398
v 0.0187740568 -0.000978346681 0.00780712767
v 0.0155109959 -4.67884056e-05 0.00802431814
v 0.0141488072 -9.05491252e-05 0.00853618607
v 0.0179797299 -0.00218181661 0.0116502065
v 0.0164778437 -0.00162757596 0.0126121044
v 0.0178739969 -0.00193455652 0.00838386081
v 0.015884012 -0.00155467982 0.00907370821
v 0.0230513345 0.028691262 0.0154339653
v 0.0228548534 0.0254930202 0.0161530506
v 0.0225562751 0.021216929 0.0227645766
v 0.00754416315 0.0341162868 0.00901785772
v 0.00759989955 0.0371806361 0.00932680536
v 0.0248918254 0.047468245 0.00862710457
v 0.0243587922 0.0418510698 0.00769805769
v 0.0238098353 0.0435326956 0.00696531264
v 0.0239116661 0.0369586013 0.0104917353
v 0.0234639775 0.0314521864 0.00907903258
v 0.0238594245 0.0358126573 0.00822939072
v 0.0156187369 0.0500939079 0.0238447972
v 0.0190521143 0.0512291864 0.0234072413
v 0.0159279313 0.0510341041 0.0245859623
v 0.0118793361 0.0496265963 0.0232224576
v 0.0163210891 0.0525743403 0.0237527024
v 0.0107815238 0.0513274632 0.0247168783
v 0.0113654276 0.052570954 0.0238253959
v 0.0109278299 0.0501167811 0.0244830921
v 0.00763800088 0.0515981689 0.023803059
v 0.00783895515 0.050023973 0.0235871319
v 0.00653669192 0.0503598973 0.0241943561
v 0.00570778269 0.0521837063 0.0224215798
v 0.00409828825 0.049305398 0.0246085636
v 0.0183749814 0.0311822761 0.0235473961
v 0.0107162641 0.0309166219 0.023073066
v 0.00891885906 0.030166978 0.0235209819
v 0.00857313909 0.0339847431 0.00978003163
v 0.00965510588 0.0311628133 0.00935335457
v 0.0145803411 0.0629442036 0.0238277093
v 0.0156424642 0.0620081238 0.024783846
v 0.01674271 0.0632846281 0.0224497579
v 0.0169919189 0.0610910505 0.0247871839
v 0.0112096276 0.0604522005 0.0250237212
v 0.0118645113 0.0598147102 0.0240761433
v 0.00799798407 0.0596847385 0.0243982747
v 0.0195123777 0.0611226968 0.00977820437
v 0.0187378395 0.0609056987 0.0149687817
v 0.0188347138 0.0629912317 0.0148078194
v 0.0189833436 0.0628730133 0.0174401626
v 0.0197136309 0.0616765842 0.00823312625
v 0.0150428796 0.0603827983 0.0115687074
v 0.014749228 0.0627815351 0.0108870342
v 0.0180395581 0.0624296144 0.0192973875
v 0.0169692822 0.0623773597 0.00820856448
v 0.0169007797 0.0613484867 0.00779590104
v 0.0202885736 0.0631898269 0.00968102831
v 0.016000269 0.0605683587 0.00826967414
v 0.0125581482 0.0627396256 0.012819319
v 0.0135536287 0.0603377745 0.00876236521
v 0.0117609315 0.0611450337 0.00777142216
v 0.0147205656 0.0599737018 0.0157749131
v 0.0158044603 0.060260132 0.0200838242
v 0.017413171 0.0632640347 0.00968893897
v 0.0134700583 0.0625075102 0.0149735482
v 0.0117976172 0.0619782396 0.0182740279
v 0.0122126127 0.0623216033 0.00851804297
v 0.0130112804 0.0630032048 0.00973690394
v 0.00824521203 0.0621660165 0.00893563032
v 0.02361474 0.038393233 0.00743983826
v 0.0190178808 0.0532341078 0.0186448693
v 0.019381281 0.0525520965 0.0227384679
v 0.0170788486 0.0533457063 0.0226166733
v 0.0170281064 0.0604707412 0.0236856379
v 0.0167632811 0.0523288026 0.018710006
v 0.0130341882 0.0520496853 0.0184006672
v 0.0131981736 0.0523143858 0.0209430251
v 0.0174724311 0.0531791784 0.0196386091
v 0.0158087593 0.053168945 0.0218434427
v 0.0113711255 0.0528304838 0.0230346955
v 0.010647268 0.0597144254 0.0202727281
v 0.0145990187 0.0625282601 0.0212990474
v 0.00965760276 0.0518779047 0.0186279211
v 0.00848016329 0.0526877716 0.0207102522
v 0.0071040513 0.0526169725 0.0189145189
v 0.00787046738 0.0596047789 0.0185403861
v 0.00540499249 0.0600480251 0.021250546
v 0.00455423724 0.0523098558 0.0230663437
v 0.00514608342 0.0451878011 0.0241126604
v 0.00594837638 0.0433983691 0.0233296379
v 0.00304590887 0.0502668731 0.0244920198
v 0.00223125424 0.0520361811 0.0200178362
v 0.00122518849 0.0556888506 0.0227690712
v 0.00408988027 0.0616746619 0.0182223637
v 0.00355623453 0.0597934686 0.0202190802
v 0.00340512884 0.0596704669 0.0240350403
v 0.00335671077 0.0552720502 0.0189235508
v 0.00392460357 0.0532999672 0.0230859891
v 0.00299187144 0.0567691885 0.0236983541
v 0.00279847579 0.058865115 0.0241713692
v 0.00385615998 0.0542723462 0.0178308282
v 0.00400029775 0.0522672087 0.0238013305
v 0.00134061801 0.0554813258 0.0159811806
v 0.00266824965 0.0626436546 0.0183116533
v -0.0012470216 0.0693394542 0.0264937207
v -0.00213513081 0.0686987266 0.00794033241
v 0.0136886621 0.0119290035 0.0216284581
v 0.0178312566 0.0220365394 0.0227866843
v 0.0139952404 0.0148694301 0.0187177174
v 0.0134632597 0.0152818598 0.0190279428
v 0.0134702539 0.0218075421 0.0103679486
v 0.0094420705 0.050870508 0.0083790645
v 0.00956653804 0.0332258306 0.0197457056
v 0.0100489808 0.0323446803 0.0160868634
v 0.00990904029 0.0328014307 0.0139302872
v 0.00493831327 0.0529539883 0.0181275476
v 0.0028143574 0.0621892251 0.0192625858
v 0.00502146035 0.053764578 0.0161473323
v 0.0129967807 0.0103980992 0.0232666954
v 0.0143089546 0.0138265798 0.0194737408
v 0.0137299532 0.013757918 0.0180895086
v 0.0171937663 0.0223228596 0.0215783082
v 0.0188627411 0.0632219389 0.02041368
v 0.0185517222 0.0633794144 0.019373538
v 0.0184157044 0.032623291 0.0181207191
v 0.0163936578 0.0430617891 0.0182785038
v 0.0124185374 0.0328732803 0.0182205942
v 0.0100391461 0.0329235233 0.0168090947
v 0.00527965464 0.0520683154 0.0154144214
v 0.00550212292 0.0519467145 0.0162812695
v 0.00351191033 0.0615749173 0.0186507292
v 0.00312557258 0.0617095679 0.0179954264
v 0.00327671086 0.0615575872 0.01662823
g 
f 1 2 4 3
f 5 1 6
f 5 2 1
f 5 6 8
f 8 6 9
f 8 9 10
f 9 6 11
f 13 12 8
f 13 14 12
f 8 10 13
f 10 17 13
f 18 19 20
f 18 20 14
f 16 14 13
f 16 21 14
f 22 24 23
f 3 27 26
f 3 26 25
f 1 11 6
f 1 7 28
f 11 1 29
f 9 30 10
f 30 17 10
f 30 9 33
f 9 32 33
f 33 34 30
f 35 36 38 37
f 33 39 34
f 37 39 40
f 37 38 39
f 13 17 16
f 43 45 16
f 43 44 45
f 17 43 16
f 17 46 43
f 47 41 48
f 47 48 38
f 47 38 36
f 48 34 39 38
f 50 18 51
f 18 14 51
f 44 52 45
f 44 46 52
f 42 41 53
f 46 44 43
f 51 45 56
f 51 56 50
f 56 45 52
f 55 52 46
f 52 55 57
f 58 42 53
f 51 14 21
f 21 45 51
f 21 16 45
f 42 59 49
f 55 46 60
f 57 61 52
f 57 62 63
f 42 64 59
f 55 60 62
f 60 65 62
f 65 60 66
f 57 55 62
f 58 67 68 42
f 69 66 70
f 69 65 66
f 62 72 71
f 75 78 77 76
f 77 79 76
f 62 71 63
f 79 81 76
f 71 72 79
f 72 81 79
f 68 64 42
f 64 68 82
f 62 65 72
f 74 83 73
f 68 67 82
f 85 86 87
f 81 88 86 85
f 81 72 69
f 73 84 70
f 88 92 86
f 88 91 92
f 82 67 89
f 81 69 88
f 88 69 94
f 95 96 84
f 84 97 70
f 98 23 91
f 23 92 91
f 100 99 91
f 91 99 98
f 94 101 88
f 95 102 96
f 103 84 96
f 102 104 96
f 84 103 97
f 97 103 105
f 91 107 100
f 91 101 107
f 101 91 88
f 101 94 105
f 105 94 97
f 96 104 103
f 104 109 108
f 110 111 106
f 106 99 112 110
f 110 113 111
f 107 112 100
f 100 112 99
f 27 115 116
f 115 27 117
f 27 4 114
f 27 3 4
f 116 26 27
f 118 115 117
f 114 117 27
f 117 114 120
f 115 119 116
f 116 119 121
f 122 123 115
f 122 115 118
f 124 122 118
f 124 118 125
f 125 118 117
f 117 120 125
f 119 126 127
f 126 128 127
f 126 129 128
f 126 130 129
f 131 133 132
f 134 135 130
f 130 135 136
f 130 136 129
f 135 137 133 131
f 135 56 138
f 135 138 136
f 131 50 56
f 129 136 139
f 136 138 139
f 56 52 139
f 139 52 61
f 135 134 137
f 142 133 137
f 142 132 133
f 142 144 132
f 142 143 144
f 138 56 139
f 137 145 142
f 141 146 140
f 141 147 146
f 143 148 144
f 148 149 151
f 77 78 150
f 154 155 150
f 154 156 155
f 147 158 157
f 147 157 146
f 159 160 161
f 160 159 162
f 163 154 164
f 163 162 159 23
f 106 165 163
f 165 154 163
f 154 166 164
f 163 98 106
f 163 23 98
f 98 99 106
f 23 159 22
f 158 167 157
f 160 162 167
f 163 164 167 162
f 106 111 165
f 111 168 165
f 169 171 170
f 170 174 173 172
f 170 171 175
f 171 176 177
f 171 177 178
f 169 179 176
f 172 173 180
f 172 180 169
f 172 169 170
f 169 180 181
f 169 176 171
f 182 180 183
f 184 185 180
f 184 180 173
f 182 181 180
f 181 179 169
f 186 184 173
f 186 173 174
f 174 188 187
f 189 190 185
f 185 190 183
f 185 183 180
f 184 192 189 185
f 186 174 187
f 186 187 193
f 194 187 188
f 188 195 194
f 194 197 196 187
f 196 198 187
f 194 199 197
f 194 200 199
f 196 197 201
f 197 199 201
f 202 200 203
f 203 205 204
f 206 207 209 208
f 201 212 213
f 201 199 214 212
f 202 210 215
f 202 203 210
f 202 215 214
f 203 204 210
f 214 200 202
f 214 199 200
f 209 216 208
f 216 217 208
f 218 220 219
f 212 219 213
f 212 218 219
f 218 214 215
f 218 212 214
f 215 211 220 218
f 210 211 215
f 210 221 211
f 221 210 204 222
f 204 205 224 223
f 225 226 208
f 208 217 225
f 177 176 227
f 230 179 229
f 179 230 176
f 176 230 227
f 230 231 227
f 230 232 231
f 177 227 231
f 177 231 178
f 231 228 178
f 233 181 182
f 233 234 229
f 234 235 229
f 181 233 229
f 229 236 230
f 229 179 181
f 236 238 232
f 238 236 239
f 182 183 233
f 235 236 229
f 236 235 237
f 237 240 241
f 237 241 236
f 241 239 236
f 241 240 243
f 239 242 238
f 244 246 245
f 239 248 247
f 239 247 242
f 247 248 249
f 245 249 250
f 249 245 247
f 245 246 247
f 244 245 250
f 243 240 252 251
f 243 248 241
f 241 248 239
f 248 254 249
f 253 255 209
f 216 209 255
f 253 209 250
f 253 250 249
f 207 250 209
f 250 207 244
f 252 257 221
f 252 221 256
f 243 254 248
f 221 222 256
f 249 254 253
f 116 121 258 26
f 258 121 127
f 127 259 258
f 121 119 127
f 127 128 259
f 128 129 260
f 260 261 54
f 128 260 262
f 80 57 63
f 57 80 61
f 165 168 263 154
f 263 156 154
f 192 184 186
f 264 192 193
f 189 192 264
f 192 186 193
f 198 193 187
f 267 266 198
f 198 196 267
f 267 196 268
f 201 268 196
f 266 267 269
f 267 268 271 270
f 272 274 273
f 278 280 279
f 279 281 278
f 273 282 276
f 273 274 282
f 277 284 285
f 274 287 286
f 277 283 284
f 289 290 281
f 289 281 279
f 291 294 293
f 293 294 295
f 297 291 292
f 294 286 288
f 294 298 295
f 284 283 297
f 289 300 290
f 289 301 300
f 289 284 301
f 302 300 303
f 299 297 304
f 299 284 297
f 301 299 305
f 301 303 300
f 301 305 303
f 303 306 302
f 306 307 302
f 309 297 292
f 309 292 296
f 304 305 299
f 311 305 304
f 305 311 303
f 311 312 303
f 303 312 314
f 315 303 314
f 308 310 316
f 309 308 316
f 310 317 316
f 297 309 304
f 309 318 304
f 309 316 318
f 313 312 311
f 311 304 313
f 317 321 316
f 318 313 304
f 313 322 312
f 321 324 323
f 317 320 321
f 321 320 324
f 318 316 325
f 316 321 325
f 321 323 325
f 323 326 325
f 323 327 326
f 331 334 333
f 331 335 334
f 328 336 329
f 328 331 333
f 336 337 329
f 337 336 338
f 338 339 340
f 339 341 340
f 334 335 342
f 333 334 336
f 340 341 343
f 338 336 339
f 339 336 334 344
f 341 345 343
f 334 342 344
f 331 328 330
f 328 333 336
f 345 347 348
f 350 110 346
f 350 346 351
f 351 352 353
f 352 348 353
f 348 347 353
f 354 355 356
f 350 358 357
f 350 351 358
f 358 351 359
f 359 351 353
f 354 362 361 360
f 357 364 363
f 357 358 365
f 365 358 366
f 358 359 366
f 359 365 366
f 369 368 365 359
f 370 372 373
f 371 370 374
f 370 375 374
f 370 373 375
f 376 375 373
f 376 373 377
f 378 381 372
f 378 372 382
f 383 385 384
f 376 387 375
f 376 388 387
f 391 390 392
f 389 257 393
f 394 271 395
f 395 271 397
f 394 396 398
f 388 400 399
f 388 376 400
f 399 403 404
f 401 402 394
f 394 402 405
f 399 401 394
f 389 406 390
f 394 395 399
f 399 395 403
f 405 396 394
f 396 405 409
f 395 397 403
f 410 400 377
f 410 402 400
f 377 400 376
f 410 413 412
f 410 412 411
f 410 411 402
f 412 414 411
f 400 402 399
f 399 402 401
f 411 405 402
f 405 411 409
f 390 406 408
f 390 408 392
f 392 416 391
f 380 379 417
f 412 418 414
f 418 419 414
f 403 407 404
f 408 406 421
f 406 422 421
f 403 423 407
f 403 397 423
f 424 384 417
f 424 417 425
f 412 426 418
f 404 407 420
f 384 424 428 383
f 420 422 404
f 422 406 404
f 423 429 407
f 392 408 430
f 431 392 430
f 424 432 428
f 426 413 433
f 426 434 418
f 434 419 418
f 429 435 407
f 420 407 435
f 423 436 429
f 423 427 437
f 437 427 438
f 386 433 385
f 420 440 422
f 420 435 440
f 423 437 436
f 426 441 434
f 383 442 386
f 383 443 442
f 383 428 443
f 435 429 436
f 426 433 446
f 436 440 435
f 408 421 447
f 437 438 444
f 431 430 448
f 443 428 449
f 446 450 426
f 450 441 426
f 441 451 434
f 436 452 440
f 436 437 444 452
f 408 448 430
f 408 447 448
f 454 451 441
f 438 455 444
f 443 335 332 442
f 443 449 335
f 335 331 332
f 441 450 454
f 440 452 456
f 444 455 452
f 431 448 457
f 431 457 458 439
f 460 459 461
f 460 461 29
f 460 29 463
f 460 465 464
f 460 463 465
f 464 466 459 460
f 461 462 11
f 462 31 11
f 11 29 461
f 31 462 468
f 31 469 467
f 468 469 31
f 9 31 32
f 470 425 379
f 425 471 424
f 472 473 470
f 425 470 473 471
f 469 468 475
f 473 472 474
f 411 269 409
f 469 475 473
f 469 473 474
f 409 269 270
f 409 270 396
f 379 425 417
f 477 479 478
f 479 477 482
f 478 479 481
f 379 476 472
f 479 482 467
f 470 379 472
f 479 474 481
f 481 474 472
f 479 467 469 474
f 471 483 424
f 485 486 484
f 476 490 472
f 485 484 487
f 491 489 492
f 477 480 493
f 493 480 494
f 477 493 482
f 493 495 482
f 484 488 498 497
f 491 499 489
f 424 483 501
f 424 501 432
f 483 496 501
f 483 502 496
f 483 487 502
f 487 503 502
f 487 484 497 503
f 491 492 500
f 493 504 506
f 495 493 506
f 432 501 508
f 496 508 501
f 502 509 496
f 488 511 510
f 488 510 498
f 502 503 513 509
f 498 514 497
f 500 512 515
f 495 506 516
f 516 517 495
f 432 508 428
f 503 497 513
f 508 342 449
f 342 508 496
f 496 509 342
f 451 510 434
f 451 518 510
f 513 497 519
f 497 514 519
f 506 520 516
f 518 451 454 521
f 518 521 522
f 428 508 449
f 449 342 335
f 337 523 329
f 514 522 524 525
f 175 526 527
f 526 175 171 178
f 527 526 529 528
f 526 228 529
f 527 170 175
f 527 174 170
f 174 527 530
f 174 530 188
f 188 530 531 195
f 195 533 532
f 195 531 533
f 534 535 537
f 532 533 206
f 206 208 532
f 538 535 536
f 538 533 535
f 533 531 535
f 535 534 536
f 206 244 207
f 538 244 206
f 538 206 533
f 539 540 265
f 265 264 541
f 265 189 264
f 541 264 193 462
f 542 544 543
f 539 542 540
f 545 461 459
f 545 459 544
f 545 542 541
f 545 544 542
f 545 462 461
f 545 541 462
f 542 539 541
f 539 265 541
f 466 543 544
f 466 544 459
f 462 193 468
f 193 198 468
f 468 266 475
f 266 468 198
f 526 178 228
f 246 538 536
f 246 244 538
f 453 446 442
f 453 442 332
f 446 453 450
f 454 547 521
f 456 452 548
f 457 448 549
f 450 550 547
f 450 547 454
f 455 552 452
f 553 547 554
f 553 554 362
f 456 548 556 555
f 552 548 452
f 552 557 551 548
f 550 558 559
f 550 560 554 547
f 550 559 560
f 554 560 551
f 551 361 554
f 362 554 361
f 549 556 293
f 549 555 556
f 549 447 555
f 549 448 447
f 361 551 557
f 364 562 561
f 561 562 563
f 562 564 563
f 563 564 558
f 558 564 559
f 559 556 560
f 551 560 548
f 556 548 560
f 293 457 549
f 295 566 293
f 562 364 567
f 364 357 367
f 357 365 367
f 367 567 364
f 367 365 368
f 556 296 565
f 556 565 293
f 565 291 293
f 295 298 566
f 562 567 568
f 562 568 564
f 564 556 559
f 567 367 569
f 565 296 292 291
f 367 368 570
f 568 310 564
f 568 567 310
f 564 296 556
f 564 309 296
f 367 570 569
f 564 308 309
f 564 310 308
f 567 569 310
f 569 317 310
f 259 571 258
f 572 371 259
f 572 370 371
f 128 572 259
f 572 573 370
f 370 573 382
f 572 262 573
f 370 382 372
f 262 572 128
f 573 262 574
f 575 378 576
f 378 575 381
f 478 575 577
f 575 478 490
f 381 490 476
f 476 379 380 381
f 573 574 578
f 578 574 579
f 579 35 578
f 578 35 580
f 579 36 35
f 382 576 378
f 382 581 576
f 580 35 499
f 580 499 582
f 583 575 576
f 575 490 381
f 262 260 574
f 53 41 54
f 574 54 579
f 54 41 579
f 41 47 579
f 579 47 36
f 499 491 582
f 582 491 584
f 582 584 585
f 583 576 586
f 583 587 577
f 491 500 584
f 587 583 588
f 589 590 586
f 586 581 589
f 500 591 584
f 592 587 588
f 592 593 587
f 592 505 593
f 589 581 582 591
f 585 584 591
f 591 590 589
f 586 588 583
f 591 594 595
f 591 515 594
f 588 586 596
f 591 500 515
f 588 597 592
f 515 512 598
f 515 598 109
f 599 89 600
f 597 588 596
f 600 102 599
f 102 95 599
f 594 109 601
f 594 515 109
f 263 602 93
f 93 602 89
f 602 600 89
f 600 104 102
f 600 601 104
f 601 109 104
f 601 595 594
f 602 263 603
f 602 601 600
f 602 603 601
f 605 389 606
f 606 393 252
f 606 252 240
f 393 257 252
f 389 393 606
f 26 258 607
f 190 191 183
f 191 233 183
f 191 234 233
f 234 610 609
f 234 609 235
f 235 374 237
f 374 375 237
f 237 606 240
f 605 606 237
f 605 387 388
f 237 387 605
f 2 114 4
f 611 120 2
f 120 114 2
f 611 5 612
f 611 2 5
f 613 124 125
f 124 614 122
f 615 613 125
f 615 125 611
f 125 120 611
f 612 615 611
f 612 5 616
f 5 8 616
f 617 616 8
f 617 8 12
f 618 613 615 612
f 620 621 619 618
f 620 618 622
f 12 623 617
f 623 12 624
f 19 132 144 625
f 19 625 626
f 19 626 20
f 627 622 629
f 627 620 622
f 629 630 628 627
f 622 617 629
f 630 629 631
f 617 631 629
f 628 630 633 632
f 633 630 631
f 633 631 634
f 634 631 624
f 632 635 628
f 632 160 635
f 632 161 160
f 635 160 636
f 632 633 161
f 161 22 159
f 633 637 161
f 637 22 161
f 637 638 22
f 634 639 637
f 634 637 633
f 636 160 167
f 637 639 638
f 638 24 22
f 111 113 168
f 640 643 642
f 640 641 643
f 641 640 645 644
f 646 644 645
f 647 646 648
f 640 642 650
f 646 645 648
f 645 640 651
f 645 651 648
f 651 653 652
f 648 651 652
f 654 649 648
f 654 648 652
f 657 656 654 652
f 652 653 306 658
f 652 658 657
f 654 655 660
f 655 661 660
f 655 662 661
f 307 306 653
f 654 656 655
f 306 315 658
f 659 657 658
f 662 664 319
f 655 665 662
f 655 656 665
f 664 320 319
f 666 320 664
f 662 665 664
f 664 665 666
f 324 320 666
f 665 667 666
f 112 346 110
f 346 112 107
f 351 346 107
f 614 123 122
f 123 668 119
f 668 669 126
f 668 126 119
f 126 669 141
f 670 141 669
f 126 141 140
f 141 670 147
f 670 671 147
f 147 671 158
f 158 636 167
f 158 671 636
f 619 614 613 618
f 619 621 614
f 614 124 613
f 627 672 620
f 673 672 627
f 672 621 620
f 627 628 673
f 674 675 671
f 674 671 670 669
f 673 675 672
f 675 674 672
f 673 635 675
f 628 635 673
f 675 635 671
f 671 635 636
f 659 658 663
f 306 303 315
f 315 314 663
f 663 658 315
f 323 324 327
f 667 324 666
f 463 676 465
f 677 678 28
f 678 677 463
f 29 678 463
f 463 677 676
f 1 3 25 7
f 25 607 28
f 7 25 28
f 607 677 28
f 1 28 29
f 29 28 678
f 9 11 31
f 563 558 679
f 608 191 190
f 189 610 608
f 234 608 610
f 234 191 608
f 540 610 265
f 610 189 265
f 608 190 189
f 542 543 681
f 542 681 540
f 540 681 610
f 681 609 610
f 681 543 609
f 682 683 543
f 543 683 609
f 683 374 235 609
f 375 387 237
f 676 685 465
f 465 685 686
f 686 684 465
f 686 685 571
f 686 571 259
f 464 465 684
f 464 684 466
f 685 677 258
f 685 258 571
f 677 685 676
f 25 26 607
f 258 677 607
f 270 269 267
f 396 270 398
f 270 271 398
f 687 427 688
f 687 688 213
f 213 689 687
f 691 692 689
f 691 693 692
f 687 694 690
f 687 689 694
f 689 692 694
f 690 427 687
f 690 438 427
f 692 693 695
f 438 690 696
f 690 694 696
f 694 697 696
f 694 692 697
f 695 693 698
f 692 695 697
f 696 697 552
f 697 699 552
f 467 32 31
f 467 700 32
f 33 32 40
f 37 40 489
f 33 40 39
f 492 700 507
f 492 489 700
f 492 507 500
f 507 700 495
f 495 700 482
f 500 507 512
f 507 495 701
f 701 495 517
f 598 108 109
f 103 108 105
f 108 103 104
f 108 598 105
f 105 702 348
f 352 101 348
f 352 107 101
f 348 101 105
f 107 352 351
f 348 702 343
f 168 603 263
f 603 168 561
f 604 704 703
f 703 330 604
f 703 680 330
f 113 561 168
f 603 704 601
f 357 113 110
f 113 357 363
f 679 703 704
f 679 704 603
f 703 679 680
f 330 680 331
f 113 363 561
f 561 679 603
f 679 561 563
f 679 558 680
f 357 110 350
f 363 364 561
f 225 705 706 226
f 705 225 707
f 708 226 706
f 705 707 641
f 706 709 708
f 709 706 646
f 706 705 646
f 641 644 705
f 709 711 710
f 646 705 644
f 647 711 709
f 709 646 647
f 256 222 712
f 712 222 713
f 255 714 216
f 216 714 715
f 712 716 256
f 713 717 712
f 222 204 713
f 715 714 719
f 720 716 721
f 720 722 716
f 712 717 723
f 714 718 724
f 716 712 723
f 716 723 721
f 721 726 720
f 713 727 717
f 727 713 728
f 720 729 722
f 714 730 731 719
f 720 726 732
f 732 733 729 720
f 723 717 725
f 729 733 718
f 724 730 714
f 721 723 726
f 285 718 733
f 285 280 718
f 726 276 734 732
f 726 723 276
f 725 717 272 273
f 725 273 276 723
f 727 275 272 717
f 724 280 730
f 724 718 280
f 730 280 278
f 730 278 731
f 543 466 682
f 686 735 684
f 684 735 682
f 466 684 682
f 735 371 683 682
f 683 371 374
f 686 259 735
f 259 371 735
f 389 390 220
f 389 220 257
f 220 390 219
f 257 220 211
f 398 271 394
f 257 211 221
f 736 738 737
f 736 737 219
f 204 223 713
f 223 728 713
f 223 739 728
f 223 224 739
f 739 224 708
f 708 224 226
f 738 691 737
f 397 427 423
f 427 397 688
f 691 213 737
f 708 709 710 739
f 416 392 431
f 416 431 740
f 740 431 439
f 740 439 741
f 740 741 742
f 738 744 745
f 728 739 710
f 742 744 740
f 738 745 693
f 738 693 691
f 728 710 746
f 641 707 747
f 744 742 745
f 727 746 275
f 727 728 746
f 747 719 731
f 742 741 748
f 741 445 748
f 746 710 711
f 747 731 643
f 747 643 641
f 439 445 741
f 748 745 742
f 745 748 749
f 749 748 750
f 275 746 751
f 746 711 751
f 745 698 693
f 745 749 698
f 275 751 272
f 731 278 643
f 749 750 698
f 438 696 455
f 455 696 552
f 272 751 274
f 751 752 274
f 752 711 647
f 711 752 751
f 695 753 697
f 695 698 753
f 754 755 355
f 354 360 355
f 754 355 360 699
f 754 699 347
f 369 359 353
f 369 353 347 756
f 756 699 660
f 661 369 756
f 661 756 660
f 369 661 758
f 643 278 759 642
f 752 647 649
f 557 360 361
f 274 752 287
f 752 760 287
f 760 752 761
f 762 764 763
f 760 765 288
f 763 764 654
f 298 294 288
f 298 762 566
f 762 298 764
f 762 763 766
f 298 288 765 764
f 287 760 288
f 660 767 654
f 368 757 570
f 757 368 369
f 369 758 757
f 569 570 768
f 570 319 768
f 758 570 757
f 661 662 758
f 569 768 319
f 319 317 569
f 319 570 758
f 662 319 758
f 320 317 319
f 247 246 242
f 228 546 529
f 18 50 19
f 131 56 135
f 534 546 536
f 534 537 546
f 529 546 537
f 546 242 536
f 228 231 546
f 238 242 232
f 232 242 231
f 302 290 300
f 302 281 290
f 302 769 281
f 326 322 771
f 547 553 521
f 667 770 663
f 770 659 663
f 667 663 327
f 546 231 242
f 624 12 15
f 86 772 87
f 30 34 773
f 48 49 74
f 34 48 74
f 34 74 773
f 73 83 90
f 76 774 75
f 64 90 59
f 95 90 82
f 95 84 90
f 65 69 72
f 115 123 119
f 145 137 134
f 145 134 166
f 143 145 149 148
f 143 142 145
f 151 149 78 153
f 77 155 79
f 146 166 130 140
f 149 154 150
f 150 155 77
f 63 71 155
f 219 737 213
f 236 232 230
f 260 129 261
f 80 261 61
f 58 53 776
f 80 776 261
f 261 776 53
f 734 276 277
f 734 277 285
f 276 282 277
f 284 289 279 285
f 274 286 282
f 283 277 282
f 283 282 286
f 286 287 288
f 294 283 286
f 291 283 294
f 322 313 771
f 345 341 509
f 345 509 513
f 348 343 345
f 349 553 362
f 354 349 362
f 410 377 413
f 412 413 426
f 475 266 486
f 478 480 477
f 472 490 481
f 484 414 415
f 484 415 488
f 505 504 494
f 516 778 517
f 516 520 778
f 514 525 519
f 530 527 528
f 531 537 535
f 194 195 200
f 266 269 486
f 331 680 332
f 293 566 457
f 575 583 577
f 499 35 37 489
f 586 576 581
f 591 582 585
f 67 776 89
f 597 596 779
f 596 604 780
f 596 780 779
f 604 590 704
f 604 596 590
f 638 639 24
f 648 649 647
f 665 656 770
f 665 770 667
f 32 700 40
f 467 482 700
f 512 507 701
f 517 702 701
f 702 517 343
f 716 722 251
f 271 688 397
f 715 217 216
f 689 213 691
f 738 736 744
f 754 347 755
f 557 552 699
f 697 753 767
f 781 698 750
f 781 753 698
f 752 649 761
f 763 654 767
f 651 782 653
f 640 650 782 651
f 762 766 566
f 78 75 153
f 327 663 314
f 15 14 20
f 15 12 14
f 15 20 626 784
f 15 784 624
f 772 86 92
f 152 87 772
f 152 785 87
f 152 153 785
f 772 626 625 152
f 87 774 786
f 87 785 774
f 625 144 152
f 92 24 784
f 772 92 626
f 92 784 626
f 784 24 624
f 24 639 624
f 24 92 23
f 773 787 66
f 773 17 30
f 66 787 70
f 66 46 17 773
f 66 60 46
f 74 787 773
f 74 49 83
f 49 41 42
f 48 41 49
f 70 787 73
f 73 787 74
f 59 83 49
f 59 90 83
f 785 75 774
f 785 153 75
f 786 774 775
f 775 81 85
f 775 76 81
f 774 76 775
f 775 85 87 786
f 82 90 64
f 90 84 73
f 69 70 94
f 79 155 71
f 82 599 95
f 82 89 599
f 94 70 97
f 132 50 131
f 50 132 19
f 126 140 130
f 134 130 166
f 150 78 149
f 153 152 148 151
f 152 144 148
f 145 154 149
f 145 166 154
f 166 146 157 164
f 167 164 157
f 217 788 225
f 788 217 789
f 788 789 719
f 715 789 217
f 715 719 789
f 225 788 707
f 722 254 243 251
f 722 253 254
f 253 722 255
f 722 714 255
f 729 714 722
f 260 54 574
f 261 129 139
f 54 261 53
f 61 261 139
f 156 80 63
f 776 80 93
f 776 93 89
f 80 156 263 93
f 156 63 155
f 279 280 285
f 283 291 297
f 284 299 301
f 322 326 327
f 327 312 322
f 314 312 327
f 318 325 326
f 318 326 771
f 313 318 771
f 338 523 337
f 523 338 340
f 523 340 778
f 344 509 341
f 341 339 344
f 342 509 344
f 524 521 553
f 524 522 521
f 524 553 349
f 349 356 524
f 356 755 525 524
f 356 349 354
f 356 355 755
f 417 373 380
f 417 377 373
f 417 413 377
f 417 384 413
f 380 373 372 381
f 386 442 446
f 386 446 433
f 383 386 385
f 388 399 404 406
f 388 389 605
f 389 388 406
f 413 385 433
f 413 384 385
f 391 219 390
f 555 777 440 456
f 555 447 777
f 484 269 414
f 486 269 484
f 471 473 475 486
f 471 486 485
f 485 487 471
f 414 269 411
f 487 483 471
f 478 790 480
f 478 577 790
f 481 490 478
f 790 577 593
f 577 587 593
f 480 790 494
f 494 504 493
f 494 790 593
f 415 419 791
f 415 414 419
f 791 419 511
f 791 511 488
f 494 593 505
f 419 434 511
f 415 791 488
f 511 434 510
f 506 504 792
f 506 792 520
f 510 518 498
f 498 518 514
f 792 504 505
f 792 505 597 520
f 520 597 779 793
f 518 522 514
f 523 778 793 329
f 793 779 329
f 778 520 793
f 517 778 343
f 778 340 343
f 537 530 528
f 537 528 529
f 537 531 530
f 205 200 226
f 200 195 226
f 205 203 200
f 226 224 205
f 226 195 532
f 226 532 208
f 246 536 242
f 440 777 422
f 777 447 421 422
f 453 558 550
f 550 450 453
f 794 783 445
f 458 457 794
f 457 566 794
f 445 439 458
f 458 794 445
f 566 783 794
f 581 382 578
f 578 580 581
f 578 382 573
f 581 580 582
f 597 505 592
f 776 67 58
f 329 779 780
f 601 704 595
f 595 704 590
f 591 595 590
f 590 596 586
f 329 780 330
f 329 330 328
f 330 780 604
f 622 618 616 617
f 616 618 612
f 624 639 634
f 617 623 631
f 623 624 631
f 770 656 657 659
f 674 669 668 621
f 674 621 672
f 621 668 614
f 614 668 123
f 327 324 667
f 332 558 453
f 332 680 558
f 489 40 700
f 702 598 701
f 598 702 105
f 701 598 512
f 716 251 256
f 251 252 256
f 729 718 714
f 285 733 732 734
f 271 213 688
f 271 268 201 213
f 736 391 416
f 736 219 391
f 736 416 740
f 736 740 743
f 788 719 747
f 736 743 744
f 788 747 707
f 743 740 744
f 748 445 795
f 748 795 750
f 445 783 795
f 783 766 795
f 755 519 525
f 755 513 519
f 755 347 513
f 345 513 347
f 756 347 699
f 699 360 557
f 699 697 660
f 750 795 781
f 795 766 781
f 759 650 642
f 650 769 796
f 769 650 759
f 769 759 797
f 766 753 781
f 753 766 763
f 783 566 766
f 767 753 763
f 660 697 767
f 759 278 281
f 281 798 759
f 769 798 281
f 796 759 798
f 796 798 797
f 796 782 650
f 797 782 796
f 759 796 782
f 797 759 782
f 782 796 769
f 769 307 782
f 307 653 782
f 769 797 798
f 307 769 302
f 765 654 764
f 761 649 654 765
f 760 761 765
