$MeshFormat
2.2 0 8
$EndMeshFormat
$Nodes
225
1 0.009952830150723457 0.01150000002235174 0.008294637314975262
2 0.01011270843446255 0.01100193057209253 0.02298260666429996
3 0.01328065618872643 0.001229570596478879 0.02264135144650936
4 0.01342079322785139 0.0008909552125260234 0.008642814122140408
5 0.01682208478450775 -0.002075342927128077 0.0216724369674921
6 0.01703910157084465 -0.002133385976776481 0.008526083081960678
7 0.01640808582305908 0.0112152211368084 0.008059944957494736
8 0.01634250208735466 0.01150000002235174 0.02300000004470348
9 0.01966062933206558 -0.002707399893552065 0.009429600089788437
10 0.01966102048754692 -0.002703116275370121 0.01700755394995213
11 0.0200194213539362 0.001232382492162287 0.01635934226214886
12 0.02052852883934975 0.002727700164541602 0.008356332778930664
13 0.01999431848526001 -0.002213292522355914 0.02252111956477165
14 0.02021344006061554 0.00336288008838892 0.0201249998062849
15 0.02023404091596603 -0.002751010004431009 0.01403816975653172
16 0.02023404091596603 -0.002751010004431009 0.01863816939294338
17 0.02052036486566067 0.005644445307552814 0.01782499998807907
18 0.02008084580302238 0.04628698155283928 0.01523232366889715
19 0.02049094997346401 7.009026739979163e-05 0.01571053825318813
20 0.01994374953210354 0.0004014800069853663 0.0201249998062849
21 0.02033770084381104 0.00472733611240983 0.01229510270059109
22 0.0206562839448452 0.00188550993334502 0.01812748424708843
23 0.02016447298228741 0.001874359440989792 0.01403816975653172
24 0.0201900452375412 0.008055339567363262 0.008170288987457752
25 0.02074056677520275 0.009151027537882328 0.01244453247636557
26 0.02077661268413067 0.003206779947504401 0.01082061883062124
27 0.02075622789561749 0.002982928184792399 0.01585415937006474
28 0.02094863541424274 0.01143577322363853 0.01201870571821928
29 0.02112126536667347 0.006991321686655283 0.02284255251288414
30 0.02083349600434303 0.0101714339107275 0.01491461973637342
31 0.02102617546916008 0.00594719871878624 0.009724940173327923
32 0.02107588388025761 0.01283305138349533 0.02270923927426338
33 0.02109360694885254 0.006687641609460115 0.01291747204959393
34 0.02117072977125645 0.01387453451752663 0.01780818589031696
35 0.02134456112980843 0.009443263523280621 0.01024235412478447
36 0.02129321731626987 0.01521950028836727 0.01607592776417732
37 0.02146807126700878 0.01079953461885452 0.01221844740211964
38 0.02083927392959595 0.01023488584905863 0.01945090480148792
39 0.02139630354940891 0.0163514856249094 0.01936735212802887
40 0.02156032249331474 0.01815251260995865 0.008119327947497368
41 0.02162646874785423 0.01253880094736814 0.01526113785803318
42 0.02169420942664146 0.01328263990581036 0.0201249998062849
43 0.02178665436804295 0.02063781209290028 0.01657858304679394
44 0.02174158953130245 0.02014297060668468 0.007748180069029331
45 0.02175354957580566 0.02027430012822151 0.02330641075968742
46 0.02181126177310944 0.01456798519939184 0.01252451166510582
47 0.02185758948326111 0.01507673040032387 0.01747846975922585
48 0.02192790061235428 0.06656885892152786 0.006126950029283762
49 0.02192790061235428 0.06656885892152786 0.0245628897100687
50 0.02210698649287224 0.01781523041427135 0.01590695045888424
51 0.02191253565251827 0.01781407929956913 0.01085358206182718
52 0.02247882075607777 0.02189828082919121 0.007686879951506853
53 0.0223564300686121 0.02055434882640839 0.01324176415801048
54 0.02231249585747719 0.02250475436449051 0.01467164885252714
55 0.0224656593054533 0.02175370417535305 0.01978671737015247
56 0.02208361774682999 0.02389867976307869 0.01151943113654852
57 0.02278523147106171 0.0252628643065691 0.01648203283548355
58 0.02282511256635189 0.03073154203593731 0.023671580478549
59 0.0230533741414547 0.03454723954200745 0.01944106258451939
60 0.02300290577113628 0.03082306496798992 0.010924999602139
61 0.02316781505942345 0.02946380898356438 0.01793740689754486
62 0.0232929028570652 0.03608357161283493 0.02385848201811314
63 0.02340911887586117 0.03845357522368431 0.01053325366228819
64 0.02345230989158154 0.0389278344810009 0.01507705822587013
65 0.02363179437816143 0.03455864265561104 0.01383036561310291
66 0.02371425554156303 0.04180417954921722 0.01736070029437542
67 0.02378988824784756 0.04263466969132423 0.01127470377832651
68 0.02405750937759876 0.03923327475786209 0.0176292359828949
69 0.02402323111891747 0.03885689005255699 0.01356214284896851
70 0.02405489981174469 0.03920466080307961 0.007082529831677675
71 0.02409938164055347 0.03969304263591766 0.0217975452542305
72 0.02420824393630028 0.04088841378688812 0.01045242697000504
73 0.02423941902816296 0.04123078286647797 0.01528581976890564
74 0.02463685534894466 0.0455949492752552 0.0241906214505434
75 0.01965842954814434 0.04164854064583778 0.007226696703583002
76 0.02442343160510063 0.04325136542320251 0.01315607596188784
77 0.02436704561114311 0.04263222962617874 0.01832730509340763
78 0.02396816946566105 0.04459226876497269 0.01552500016987324
79 0.02381745167076588 0.04106013476848602 0.02403226494789124
80 0.02475865557789803 0.0469323918223381 0.007100831251591444
81 0.02477688528597355 0.04713255539536476 0.01805794611573219
82 0.02097831852734089 0.05614183098077774 0.02066950872540474
83 0.02507647685706615 0.05676228925585747 0.01217377558350563
84 0.02529745548963547 0.05601879209280014 0.01782499998807907
85 0.01194092910736799 0.00530648697167635 0.01704268157482147
86 0.02568085864186287 0.06656885892152786 0.02166152559220791
87 0.02567131444811821 0.06329401582479477 0.02151194959878922
88 0.02579294517636299 0.05828957259654999 0.007022152189165354
89 0.009952830150723457 0.01150000002235174 0.01594947464764118
90 0.01697494275867939 0.002322801854461432 0.01874295249581337
91 0.02596955001354218 0.06656885892152786 0.006126950029283762
92 0.02596955001354218 0.06656885892152786 0.024923050776124
93 0.0258359257131815 0.05991621315479279 0.02175519056618214
94 0.02555751241743565 0.06204440072178841 0.01464934833347797
95 0.02611389569938183 0.06656885892152786 0.01438809279352427
96 0.02621838450431824 0.06296119093894958 0.01087932102382183
97 0.02609950862824917 0.06317629665136337 0.02480457350611687
98 0.02642115205526352 0.06518766283988953 0.01782037690281868
99 0.01790369860827923 0.02238042280077934 0.02337995357811451
100 0.01747395657002926 0.01720096543431282 0.02319908328354359
101 0.01931924372911453 0.03792405873537064 0.01383049506694078
102 0.01798059977591038 0.023224838078022 0.0210175309330225
103 0.0174280796200037 0.01715780794620514 0.01326773222535849
104 0.02489106543362141 0.05403979867696762 0.02448552660644054
105 0.02020000107586384 0.04759535193443298 0.02426047995686531
106 0.02086716145277023 0.05492123961448669 0.0165068581700325
107 0.01767352782189846 0.01985298283398151 0.01880458556115627
108 0.02476667426526546 0.05105732753872871 0.01743583753705025
109 0.01356240268796682 0.0006388694746419787 0.01566857285797596
110 0.01791667379438877 0.008014298975467682 0.01166944950819016
111 0.02033247426152229 0.02756396122276783 0.02045716345310211
112 0.01920172199606895 0.03663359954953194 0.007631330750882626
113 0.02519452944397926 0.05171855539083481 0.02110680378973484
114 0.01691282913088799 0.01150000002235174 0.01501959934830666
115 0.0248723067343235 0.05143848061561584 0.0132250003516674
116 0.0166860930621624 -0.002035601530224085 0.01374026574194431
117 0.01552257966250181 0.005872821900993586 0.01483095251023769
118 0.02297984063625336 0.03373978286981583 0.007601261138916016
119 0.01828767172992229 0.02659669332206249 0.02323047630488873
120 0.02137875929474831 0.06053894013166428 0.01144707482308149
121 0.01940437406301498 0.03885885328054428 0.02348020300269127
122 0.02249595336616039 0.05092428997159004 0.01591477170586586
123 0.0210270956158638 0.05667740479111671 0.006472367793321609
124 0.02142678573727608 0.06106629222631454 0.01792635396122932
125 0.01879440620541573 0.03216097876429558 0.01224217005074024
126 0.02291104942560196 0.02664436958730221 0.007521150168031454
127 0.01866975426673889 0.03029335103929043 0.007393721025437117
128 0.02048982679843903 0.002004338894039392 0.02266840264201164
129 0.02192790061235428 0.06656885892152786 0.01384987216442823
130 0.02065926045179367 0.05263835191726685 0.01108920853585005
131 0.01777314953505993 0.02094690501689911 0.01488207280635834
132 0.01823079958558083 0.02597222663462162 0.01562640257179737
133 0.01872390694916248 0.03138686344027519 0.01834376342594624
134 0.02126587927341461 0.05929943174123764 0.02439936436712742
135 0.01774301566183567 0.01735483855009079 0.007845544256269932
136 0.02469182200729847 0.04738634824752808 0.01282919570803642
137 0.02043572254478931 0.0501837469637394 0.01908984407782555
138 0.02018057741224766 0.02414751797914505 0.01815434917807579
139 0.01976780593395233 0.0428495891392231 0.01887697353959084
140 0.01886980421841145 0.03298890963196754 0.02375041134655476
141 0.0198001004755497 0.0432041771709919 0.02410713583230972
142 0.02474760077893734 0.05016488209366798 0.02435020729899406
143 0.01681956090033054 0.01150000002235174 0.01902654953300953
144 0.01650871522724628 0.006486271042376757 0.02282491698861122
145 0.02278653346002102 0.05336736515164375 0.01964789442718029
146 0.01738366484642029 0.004826264921575785 0.008283053524792194
147 0.02519170194864273 0.05247824266552925 0.007140041328966618
148 0.01902216486632824 0.03466193377971649 0.01603858917951584
149 0.02241137623786926 0.04839570820331573 0.01350198034197092
150 0.0216126125305891 0.06310678273439407 0.02449163608253002
151 0.02155848406255245 0.06251243501901627 0.0217478983104229
152 0.02004203386604786 0.04586078971624374 0.01045497227460146
153 0.02012353762984276 0.04675575345754623 0.01908357441425323
154 0.0220844428986311 0.04192104935646057 0.01491755340248346
155 0.01957493834197521 0.0407317616045475 0.01658516936004162
156 0.01971717365086079 0.04229360073804855 0.0136560220271349
157 0.0218601431697607 0.04105452448129654 0.02135828882455826
158 0.02296116761863232 0.02751993946731091 0.02071447670459747
159 0.02491625212132931 0.04866286739706993 0.01506480854004622
160 0.0185285396873951 0.008301269263029099 0.01581600122153759
161 0.01727012358605862 0.01542334072291851 0.01940722391009331
162 0.0173136293888092 0.00187758554238826 0.01290219277143478
163 0.02418526634573936 0.04332045465707779 0.007123881485313177
164 0.02281719446182251 0.02561383694410324 0.02294746972620487
165 0.01931534521281719 0.03788126260042191 0.01884694024920464
166 0.01714987307786942 0.01410290598869324 0.01069005019962788
167 0.01576205529272556 -0.001597300753928721 0.01824206300079823
168 0.02140873670578003 0.01648801192641258 0.0230055283755064
169 0.01828555762767792 -0.0004660802660509944 0.01830371841788292
170 0.02005536481738091 0.02030538022518158 0.01303937193006277
171 0.02188237756490707 0.06606899201869965 0.0192425511777401
172 0.02565154992043972 0.06656885892152786 0.01807412505149841
173 0.02158859558403492 0.04028068855404854 0.01592864841222763
174 0.01773113757371902 0.02048558928072453 0.01100435201078653
175 0.02245375700294971 0.04806022346019745 0.02209200337529182
176 0.02340498380362988 0.0320681519806385 0.0156343337148428
177 0.02258821204304695 0.04746009409427643 0.01009942218661308
178 0.01803817972540855 0.02385711297392845 0.007618479430675507
179 0.02109997905790806 0.01309762336313725 0.007994209416210651
180 0.02031095139682293 0.04881367087364197 0.00674697570502758
181 0.02452320046722889 0.04513761773705482 0.0101678529754281
182 0.02500963024795055 0.05887648463249207 0.02465442009270191
183 0.02165885269641876 0.01289439853280783 0.01018583867698908
184 0.0206140074878931 0.05214143544435501 0.02429373562335968
185 0.02369962818920612 0.06142380833625793 0.02474337816238403
186 0.02479159086942673 0.04927260428667068 0.009840972721576691
187 0.02218396216630936 0.04471384361386299 0.006890145130455494
188 0.02182857319712639 0.04030917212367058 0.01777053251862526
189 0.01901724562048912 0.005832212511450052 0.01467188633978367
190 0.02178790420293808 0.04441004991531372 0.02192307077348232
191 0.02026409469544888 0.02293482236564159 0.01517983060330153
192 0.02158299647271633 0.03862236812710762 0.01654892228543758
193 0.02166199870407581 0.04016129672527313 0.01222129911184311
194 0.02243720181286335 0.02778124995529652 0.01257245801389217
195 0.02436845190823078 0.04448739811778069 0.02127297781407833
196 0.0234035961329937 0.06505131721496582 0.0221029706299305
197 0.02390503510832787 0.06347955763339996 0.02329394966363907
198 0.0196427945047617 0.01603116281330585 0.0101163899526
199 0.02388456650078297 0.06656885892152786 0.01620613224804401
200 0.02320015616714954 0.03615901991724968 0.01661014370620251
201 0.02466045506298542 0.04677391797304153 0.02049647271633148
202 0.01824362762272358 0.003112074453383684 0.01565931364893913
203 0.02264613844454288 0.02373551577329636 0.01813599653542042
204 0.02218669094145298 0.02503048256039619 0.02003300003707409
205 0.01768402755260468 0.0003133275895379484 0.01063477154821157
206 0.02178174071013927 0.04338337108492851 0.01278980914503336
207 0.01820260845124722 -0.002380737103521824 0.01950234733521938
208 0.02273425459861755 0.04549885168671608 0.01248866133391857
209 0.02007588930428028 0.02021212130784988 0.009661342017352581
210 0.02229363285005093 0.01986478269100189 0.008550369180738926
211 0.01897632889449596 0.01088130660355091 0.01037526503205299
212 0.02227284945547581 0.02108030766248703 0.010356186889112
213 0.02172390557825565 0.01536920946091413 0.009657504968345165
214 0.02056042850017548 0.007172971963882446 0.01073118206113577
215 0.02364157140254974 0.04100603610277176 0.01304931007325649
216 0.01802043803036213 -4.28687890234869e-05 0.01575192809104919
217 0.02591745927929878 0.06282676756381989 0.01783136464655399
218 0.02181876264512539 0.01939469017088413 0.01944001019001007
219 0.02012673020362854 -0.000759313756134361 0.01749875582754612
220 0.02430469542741776 0.04194754734635353 0.02109586074948311
221 0.02596844173967838 0.0649716854095459 0.02307688817381859
222 0.02352331392467022 0.03745437413454056 0.01297618448734283
223 0.02361642383038998 0.04072993621230125 0.01922035031020641
224 0.02433089353144169 0.04540525376796722 0.01889957673847675
225 0.02384663559496403 0.036917794495821 0.01456770673394203
$EndNodes
$Elements
648
1 4 2 0 1 146 24 214 31
2 4 2 0 1 96 88 120 48
3 4 2 0 1 36 107 50 103
4 4 2 0 1 63 193 112 101
5 4 2 0 1 162 109 202 117
6 4 2 0 1 161 39 168 42
7 4 2 0 1 30 114 41 28
8 4 2 0 1 72 215 76 67
9 4 2 0 1 97 221 49 92
10 4 2 0 1 94 84 217 124
11 4 2 0 1 22 11 202 27
12 4 2 0 1 34 39 47 36
13 4 2 0 1 194 125 127 178
14 4 2 0 1 73 215 154 76
15 4 2 0 1 206 215 67 76
16 4 2 0 1 26 31 12 146
17 4 2 0 1 120 48 129 96
18 4 2 0 1 4 109 162 117
19 4 2 0 1 117 85 4 109
20 4 2 0 1 96 88 48 91
21 4 2 0 1 109 3 90 85
22 4 2 0 1 3 144 90 85
23 4 2 0 1 137 106 122 130
24 4 2 0 1 137 130 122 18
25 4 2 0 1 202 90 11 22
26 4 2 0 1 34 39 42 47
27 4 2 0 1 11 20 22 90
28 4 2 0 1 18 206 156 152
29 4 2 0 1 45 99 107 100
30 4 2 0 1 194 132 125 178
31 4 2 0 1 56 132 194 178
32 4 2 0 1 15 19 216 10
33 4 2 0 1 161 168 32 42
34 4 2 0 1 90 3 20 128
35 4 2 0 1 27 189 202 17
36 4 2 0 1 20 16 13 207
37 4 2 0 1 89 144 117 143
38 4 2 0 1 38 41 30 114
39 4 2 0 1 160 117 17 144
40 4 2 0 1 128 13 3 20
41 4 2 0 1 90 144 17 117
42 4 2 0 1 85 144 117 89
43 4 2 0 1 90 144 117 85
44 4 2 0 1 160 117 144 143
45 4 2 0 1 45 102 107 99
46 4 2 0 1 132 138 102 107
47 4 2 0 1 138 55 102 107
48 4 2 0 1 45 107 102 55
49 4 2 0 1 27 21 202 189
50 4 2 0 1 117 21 202 162
51 4 2 0 1 186 180 80 177
52 4 2 0 1 117 85 1 4
53 4 2 0 1 15 23 162 216
54 4 2 0 1 144 85 3 2
55 4 2 0 1 12 146 6 205
56 4 2 0 1 168 107 45 39
57 4 2 0 1 37 25 33 30
58 4 2 0 1 15 162 116 216
59 4 2 0 1 20 5 3 90
60 4 2 0 1 116 109 167 216
61 4 2 0 1 90 20 14 128
62 4 2 0 1 133 140 59 165
63 4 2 0 1 152 187 75 180
64 4 2 0 1 9 6 205 12
65 4 2 0 1 23 162 26 205
66 4 2 0 1 5 167 3 90
67 4 2 0 1 167 109 3 90
68 4 2 0 1 156 193 101 75
69 4 2 0 1 193 101 75 112
70 4 2 0 1 30 41 37 28
71 4 2 0 1 107 100 168 45
72 4 2 0 1 39 47 36 50
73 4 2 0 1 89 143 117 114
74 4 2 0 1 132 61 111 138
75 4 2 0 1 132 111 61 133
76 4 2 0 1 23 21 26 162
77 4 2 0 1 58 111 133 61
78 4 2 0 1 27 21 23 202
79 4 2 0 1 114 117 160 143
80 4 2 0 1 58 111 158 164
81 4 2 0 1 61 204 111 138
82 4 2 0 1 158 111 204 164
83 4 2 0 1 110 25 214 35
84 4 2 0 1 143 114 38 160
85 4 2 0 1 184 105 137 175
86 4 2 0 1 35 25 37 28
87 4 2 0 1 138 191 107 132
88 4 2 0 1 211 25 35 28
89 4 2 0 1 194 176 133 61
90 4 2 0 1 194 133 125 132
91 4 2 0 1 209 40 198 135
92 4 2 0 1 132 61 194 133
93 4 2 0 1 194 176 125 133
94 4 2 0 1 170 174 209 103
95 4 2 0 1 135 103 198 209
96 4 2 0 1 1 7 89 110
97 4 2 0 1 89 7 114 110
98 4 2 0 1 84 106 83 115
99 4 2 0 1 51 46 50 103
100 4 2 0 1 34 47 41 36
101 4 2 0 1 161 39 42 34
102 4 2 0 1 115 149 186 136
103 4 2 0 1 78 154 76 73
104 4 2 0 1 125 118 127 112
105 4 2 0 1 122 130 115 149
106 4 2 0 1 159 122 108 115
107 4 2 0 1 159 122 115 149
108 4 2 0 1 122 106 115 130
109 4 2 0 1 108 122 84 115
110 4 2 0 1 122 106 84 115
111 4 2 0 1 116 162 109 216
112 4 2 0 1 121 157 165 139
113 4 2 0 1 50 107 131 103
114 4 2 0 1 143 42 161 32
115 4 2 0 1 191 107 132 131
116 4 2 0 1 8 144 143 38
117 4 2 0 1 89 8 144 143
118 4 2 0 1 61 57 138 132
119 4 2 0 1 132 111 119 102
120 4 2 0 1 170 131 174 103
121 4 2 0 1 89 1 117 85
122 4 2 0 1 1 110 89 117
123 4 2 0 1 142 105 175 74
124 4 2 0 1 109 90 202 117
125 4 2 0 1 109 90 117 85
126 4 2 0 1 50 107 218 43
127 4 2 0 1 50 36 39 107
128 4 2 0 1 79 190 141 105
129 4 2 0 1 90 17 202 117
130 4 2 0 1 72 187 163 75
131 4 2 0 1 123 48 120 88
132 4 2 0 1 120 88 83 123
133 4 2 0 1 123 180 147 130
134 4 2 0 1 120 88 96 83
135 4 2 0 1 214 35 24 110
136 4 2 0 1 84 124 94 83
137 4 2 0 1 186 177 80 181
138 4 2 0 1 204 55 102 138
139 4 2 0 1 124 120 94 83
140 4 2 0 1 78 149 136 208
141 4 2 0 1 78 208 136 76
142 4 2 0 1 41 114 38 34
143 4 2 0 1 191 57 132 138
144 4 2 0 1 82 145 184 137
145 4 2 0 1 106 137 145 82
146 4 2 0 1 82 84 93 104
147 4 2 0 1 145 137 108 113
148 4 2 0 1 38 114 30 160
149 4 2 0 1 82 84 104 145
150 4 2 0 1 25 114 160 30
151 4 2 0 1 104 145 84 113
152 4 2 0 1 60 126 127 118
153 4 2 0 1 176 133 61 59
154 4 2 0 1 116 4 109 162
155 4 2 0 1 32 8 38 29
156 4 2 0 1 29 144 8 38
157 4 2 0 1 36 103 50 46
158 4 2 0 1 106 130 83 115
159 4 2 0 1 60 194 125 127
160 4 2 0 1 130 180 177 152
161 4 2 0 1 151 150 197 49
162 4 2 0 1 117 146 4 1
163 4 2 0 1 1 110 117 146
164 4 2 0 1 213 179 183 198
165 4 2 0 1 117 110 21 146
166 4 2 0 1 135 103 209 174
167 4 2 0 1 117 146 21 162
168 4 2 0 1 60 194 127 126
169 4 2 0 1 117 146 162 4
170 4 2 0 1 84 124 83 106
171 4 2 0 1 46 114 28 41
172 4 2 0 1 124 120 83 106
173 4 2 0 1 124 106 84 82
174 4 2 0 1 114 36 46 103
175 4 2 0 1 184 137 145 113
176 4 2 0 1 101 155 154 156
177 4 2 0 1 154 101 173 155
178 4 2 0 1 155 165 101 192
179 4 2 0 1 50 103 170 51
180 4 2 0 1 123 147 83 130
181 4 2 0 1 130 147 83 115
182 4 2 0 1 59 140 62 121
183 4 2 0 1 147 88 123 83
184 4 2 0 1 165 140 59 121
185 4 2 0 1 45 119 102 99
186 4 2 0 1 107 103 36 161
187 4 2 0 1 39 107 36 161
188 4 2 0 1 132 119 111 133
189 4 2 0 1 132 138 111 102
190 4 2 0 1 89 144 8 2
191 4 2 0 1 148 133 59 165
192 4 2 0 1 89 85 144 2
193 4 2 0 1 58 111 61 158
194 4 2 0 1 61 111 204 158
195 4 2 0 1 148 133 176 59
196 4 2 0 1 120 123 83 130
197 4 2 0 1 130 180 147 186
198 4 2 0 1 135 174 209 178
199 4 2 0 1 135 209 44 178
200 4 2 0 1 114 25 160 110
201 4 2 0 1 117 110 189 21
202 4 2 0 1 160 117 114 110
203 4 2 0 1 28 114 211 25
204 4 2 0 1 58 119 133 111
205 4 2 0 1 162 4 146 205
206 4 2 0 1 168 161 107 39
207 4 2 0 1 161 100 168 107
208 4 2 0 1 182 82 93 104
209 4 2 0 1 106 145 84 82
210 4 2 0 1 84 145 108 113
211 4 2 0 1 108 145 84 122
212 4 2 0 1 130 177 186 149
213 4 2 0 1 58 119 111 164
214 4 2 0 1 145 106 84 122
215 4 2 0 1 105 141 153 190
216 4 2 0 1 171 217 199 98
217 4 2 0 1 199 217 94 98
218 4 2 0 1 171 217 98 196
219 4 2 0 1 101 148 200 165
220 4 2 0 1 184 137 113 175
221 4 2 0 1 134 124 93 82
222 4 2 0 1 103 114 166 46
223 4 2 0 1 18 81 78 149
224 4 2 0 1 122 130 149 18
225 4 2 0 1 81 122 149 18
226 4 2 0 1 130 152 149 18
227 4 2 0 1 78 18 149 208
228 4 2 0 1 208 149 136 177
229 4 2 0 1 124 84 93 82
230 4 2 0 1 87 196 124 151
231 4 2 0 1 175 153 105 137
232 4 2 0 1 124 87 217 196
233 4 2 0 1 30 28 37 25
234 4 2 0 1 139 77 66 78
235 4 2 0 1 133 119 58 140
236 4 2 0 1 114 28 30 25
237 4 2 0 1 171 124 199 217
238 4 2 0 1 96 120 94 129
239 4 2 0 1 129 124 120 94
240 4 2 0 1 171 124 129 199
241 4 2 0 1 154 173 66 155
242 4 2 0 1 155 165 192 188
243 4 2 0 1 173 155 192 188
244 4 2 0 1 197 196 221 87
245 4 2 0 1 82 145 104 184
246 4 2 0 1 104 184 145 113
247 4 2 0 1 104 184 113 142
248 4 2 0 1 130 152 177 149
249 4 2 0 1 179 135 7 166
250 4 2 0 1 176 148 125 133
251 4 2 0 1 60 118 127 125
252 4 2 0 1 63 193 75 112
253 4 2 0 1 63 193 72 75
254 4 2 0 1 206 154 215 76
255 4 2 0 1 193 156 101 154
256 4 2 0 1 1 7 110 146
257 4 2 0 1 24 7 146 110
258 4 2 0 1 215 206 193 154
259 4 2 0 1 156 139 154 18
260 4 2 0 1 96 48 129 95
261 4 2 0 1 34 114 143 161
262 4 2 0 1 129 199 94 95
263 4 2 0 1 108 137 145 122
264 4 2 0 1 137 106 145 122
265 4 2 0 1 157 223 59 165
266 4 2 0 1 157 223 165 139
267 4 2 0 1 200 148 59 165
268 4 2 0 1 200 148 65 176
269 4 2 0 1 149 81 78 159
270 4 2 0 1 78 149 159 136
271 4 2 0 1 143 160 38 144
272 4 2 0 1 38 160 30 17
273 4 2 0 1 17 160 189 117
274 4 2 0 1 93 185 197 151
275 4 2 0 1 151 185 197 150
276 4 2 0 1 36 114 161 103
277 4 2 0 1 206 67 75 152
278 4 2 0 1 206 67 193 75
279 4 2 0 1 152 67 75 187
280 4 2 0 1 72 193 67 75
281 4 2 0 1 67 187 72 75
282 4 2 0 1 120 130 83 106
283 4 2 0 1 30 160 33 17
284 4 2 0 1 155 188 173 66
285 4 2 0 1 188 68 66 223
286 4 2 0 1 139 223 188 66
287 4 2 0 1 173 68 66 188
288 4 2 0 1 139 188 155 66
289 4 2 0 1 94 96 83 120
290 4 2 0 1 189 110 33 21
291 4 2 0 1 17 160 33 189
292 4 2 0 1 33 189 160 110
293 4 2 0 1 89 110 114 117
294 4 2 0 1 96 48 95 91
295 4 2 0 1 169 216 90 11
296 4 2 0 1 216 11 169 219
297 4 2 0 1 100 161 168 32
298 4 2 0 1 72 163 70 75
299 4 2 0 1 5 167 90 169
300 4 2 0 1 167 169 207 10
301 4 2 0 1 20 5 90 169
302 4 2 0 1 207 10 169 16
303 4 2 0 1 207 20 16 169
304 4 2 0 1 186 180 147 80
305 4 2 0 1 50 131 170 103
306 4 2 0 1 64 192 200 68
307 4 2 0 1 64 101 200 192
308 4 2 0 1 101 192 64 173
309 4 2 0 1 64 68 173 192
310 4 2 0 1 32 100 161 8
311 4 2 0 1 90 14 22 17
312 4 2 0 1 58 140 62 59
313 4 2 0 1 90 144 14 17
314 4 2 0 1 183 166 211 28
315 4 2 0 1 211 114 28 166
316 4 2 0 1 81 137 122 18
317 4 2 0 1 81 18 153 137
318 4 2 0 1 81 137 108 122
319 4 2 0 1 201 137 153 175
320 4 2 0 1 108 137 81 113
321 4 2 0 1 3 13 5 20
322 4 2 0 1 113 137 201 175
323 4 2 0 1 134 82 93 182
324 4 2 0 1 193 154 101 64
325 4 2 0 1 81 78 224 153
326 4 2 0 1 153 77 139 78
327 4 2 0 1 155 139 154 156
328 4 2 0 1 101 173 64 154
329 4 2 0 1 201 175 153 195
330 4 2 0 1 142 175 113 201
331 4 2 0 1 74 190 105 175
332 4 2 0 1 39 218 107 45
333 4 2 0 1 74 190 79 105
334 4 2 0 1 223 165 68 59
335 4 2 0 1 146 31 12 24
336 4 2 0 1 151 124 93 134
337 4 2 0 1 87 124 93 151
338 4 2 0 1 86 49 171 196
339 4 2 0 1 221 196 86 87
340 4 2 0 1 221 49 86 196
341 4 2 0 1 144 160 38 17
342 4 2 0 1 144 29 17 38
343 4 2 0 1 14 29 17 144
344 4 2 0 1 81 122 108 159
345 4 2 0 1 81 122 159 149
346 4 2 0 1 178 209 44 52
347 4 2 0 1 136 177 181 208
348 4 2 0 1 162 23 15 205
349 4 2 0 1 20 169 90 11
350 4 2 0 1 196 217 98 87
351 4 2 0 1 22 20 14 90
352 4 2 0 1 187 177 152 181
353 4 2 0 1 187 80 177 181
354 4 2 0 1 130 180 186 177
355 4 2 0 1 130 186 115 149
356 4 2 0 1 149 186 136 177
357 4 2 0 1 180 177 152 187
358 4 2 0 1 197 150 97 49
359 4 2 0 1 97 197 221 87
360 4 2 0 1 93 185 97 197
361 4 2 0 1 197 185 97 150
362 4 2 0 1 93 197 97 87
363 4 2 0 1 97 49 221 197
364 4 2 0 1 35 179 24 211
365 4 2 0 1 24 179 7 211
366 4 2 0 1 39 161 36 34
367 4 2 0 1 60 176 125 194
368 4 2 0 1 56 53 191 170
369 4 2 0 1 58 61 133 59
370 4 2 0 1 133 58 59 140
371 4 2 0 1 204 102 55 45
372 4 2 0 1 191 131 132 174
373 4 2 0 1 191 174 56 170
374 4 2 0 1 110 211 24 7
375 4 2 0 1 178 56 132 174
376 4 2 0 1 74 195 79 190
377 4 2 0 1 40 135 179 198
378 4 2 0 1 132 56 191 174
379 4 2 0 1 40 179 213 198
380 4 2 0 1 184 82 182 104
381 4 2 0 1 134 82 182 184
382 4 2 0 1 35 183 211 28
383 4 2 0 1 60 65 125 176
384 4 2 0 1 141 121 139 157
385 4 2 0 1 56 52 209 178
386 4 2 0 1 126 178 52 56
387 4 2 0 1 209 212 52 56
388 4 2 0 1 84 93 217 124
389 4 2 0 1 93 87 217 124
390 4 2 0 1 157 77 223 139
391 4 2 0 1 157 220 71 223
392 4 2 0 1 223 77 66 139
393 4 2 0 1 162 146 26 205
394 4 2 0 1 190 157 139 77
395 4 2 0 1 190 139 153 77
396 4 2 0 1 197 151 196 87
397 4 2 0 1 54 191 203 57
398 4 2 0 1 138 43 107 191
399 4 2 0 1 43 107 191 131
400 4 2 0 1 203 57 191 138
401 4 2 0 1 43 131 191 170
402 4 2 0 1 197 49 196 151
403 4 2 0 1 139 78 66 154
404 4 2 0 1 172 171 199 98
405 4 2 0 1 81 18 78 153
406 4 2 0 1 153 78 139 18
407 4 2 0 1 183 46 166 28
408 4 2 0 1 166 114 28 46
409 4 2 0 1 38 42 143 32
410 4 2 0 1 34 114 38 143
411 4 2 0 1 8 143 32 38
412 4 2 0 1 38 143 42 34
413 4 2 0 1 153 141 139 190
414 4 2 0 1 222 101 118 65
415 4 2 0 1 63 101 112 118
416 4 2 0 1 211 25 110 35
417 4 2 0 1 114 25 110 211
418 4 2 0 1 135 103 166 198
419 4 2 0 1 183 179 166 198
420 4 2 0 1 169 10 219 16
421 4 2 0 1 169 20 16 219
422 4 2 0 1 214 110 146 21
423 4 2 0 1 31 214 146 21
424 4 2 0 1 21 26 162 146
425 4 2 0 1 21 26 146 31
426 4 2 0 1 159 149 115 136
427 4 2 0 1 8 161 32 143
428 4 2 0 1 143 161 42 34
429 4 2 0 1 156 206 193 75
430 4 2 0 1 67 215 193 72
431 4 2 0 1 206 156 193 154
432 4 2 0 1 67 206 193 215
433 4 2 0 1 204 102 111 138
434 4 2 0 1 63 101 118 222
435 4 2 0 1 164 119 102 45
436 4 2 0 1 204 102 45 164
437 4 2 0 1 25 160 33 30
438 4 2 0 1 160 25 33 110
439 4 2 0 1 189 117 160 110
440 4 2 0 1 157 79 220 195
441 4 2 0 1 54 56 191 57
442 4 2 0 1 194 132 56 57
443 4 2 0 1 128 144 14 90
444 4 2 0 1 3 128 90 144
445 4 2 0 1 57 132 56 191
446 4 2 0 1 128 29 14 144
447 4 2 0 1 27 33 189 17
448 4 2 0 1 27 21 189 33
449 4 2 0 1 157 79 71 220
450 4 2 0 1 203 204 138 55
451 4 2 0 1 216 15 10 116
452 4 2 0 1 116 216 167 10
453 4 2 0 1 81 137 153 201
454 4 2 0 1 113 137 81 201
455 4 2 0 1 224 201 153 195
456 4 2 0 1 93 182 97 185
457 4 2 0 1 86 196 98 87
458 4 2 0 1 142 175 201 74
459 4 2 0 1 86 171 172 98
460 4 2 0 1 86 171 98 196
461 4 2 0 1 36 114 41 34
462 4 2 0 1 34 114 161 36
463 4 2 0 1 67 187 181 72
464 4 2 0 1 81 201 153 224
465 4 2 0 1 194 178 127 126
466 4 2 0 1 56 178 194 126
467 4 2 0 1 72 187 181 163
468 4 2 0 1 51 213 46 198
469 4 2 0 1 198 103 46 51
470 4 2 0 1 213 198 183 46
471 4 2 0 1 198 103 166 46
472 4 2 0 1 183 198 166 46
473 4 2 0 1 192 68 173 188
474 4 2 0 1 64 68 73 173
475 4 2 0 1 73 64 173 154
476 4 2 0 1 72 70 63 75
477 4 2 0 1 75 70 63 112
478 4 2 0 1 118 63 70 112
479 4 2 0 1 44 40 209 135
480 4 2 0 1 210 52 209 212
481 4 2 0 1 44 210 52 209
482 4 2 0 1 43 107 131 50
483 4 2 0 1 43 131 170 50
484 4 2 0 1 170 53 43 50
485 4 2 0 1 40 210 209 212
486 4 2 0 1 44 40 210 209
487 4 2 0 1 130 147 115 186
488 4 2 0 1 43 218 55 107
489 4 2 0 1 43 138 107 55
490 4 2 0 1 43 203 138 55
491 4 2 0 1 199 124 94 217
492 4 2 0 1 199 124 129 94
493 4 2 0 1 172 199 95 98
494 4 2 0 1 162 216 202 109
495 4 2 0 1 216 90 202 109
496 4 2 0 1 184 175 113 142
497 4 2 0 1 195 175 190 74
498 4 2 0 1 201 175 195 74
499 4 2 0 1 200 165 59 68
500 4 2 0 1 114 41 46 36
501 4 2 0 1 27 202 22 17
502 4 2 0 1 202 21 23 162
503 4 2 0 1 90 17 22 202
504 4 2 0 1 216 90 11 202
505 4 2 0 1 50 170 53 51
506 4 2 0 1 26 146 12 205
507 4 2 0 1 9 12 205 26
508 4 2 0 1 78 206 76 154
509 4 2 0 1 139 78 154 18
510 4 2 0 1 23 9 205 26
511 4 2 0 1 23 205 9 15
512 4 2 0 1 152 181 177 208
513 4 2 0 1 111 164 119 102
514 4 2 0 1 111 102 204 164
515 4 2 0 1 205 162 4 116
516 4 2 0 1 205 15 162 116
517 4 2 0 1 116 205 15 9
518 4 2 0 1 116 6 205 9
519 4 2 0 1 179 135 166 198
520 4 2 0 1 190 141 139 157
521 4 2 0 1 60 65 118 125
522 4 2 0 1 170 212 56 53
523 4 2 0 1 178 56 174 209
524 4 2 0 1 199 98 94 95
525 4 2 0 1 95 96 94 129
526 4 2 0 1 205 4 146 6
527 4 2 0 1 6 205 4 116
528 4 2 0 1 170 131 191 174
529 4 2 0 1 56 209 170 174
530 4 2 0 1 152 177 149 208
531 4 2 0 1 208 78 206 76
532 4 2 0 1 152 206 156 75
533 4 2 0 1 206 18 156 154
534 4 2 0 1 208 206 18 152
535 4 2 0 1 192 165 200 68
536 4 2 0 1 192 101 200 165
537 4 2 0 1 101 155 192 173
538 4 2 0 1 167 169 5 207
539 4 2 0 1 93 151 197 87
540 4 2 0 1 93 134 185 151
541 4 2 0 1 76 67 208 181
542 4 2 0 1 136 208 181 76
543 4 2 0 1 76 67 206 208
544 4 2 0 1 197 49 221 196
545 4 2 0 1 151 134 185 150
546 4 2 0 1 65 148 125 176
547 4 2 0 1 216 109 167 90
548 4 2 0 1 24 110 35 211
549 4 2 0 1 211 114 7 110
550 4 2 0 1 183 166 179 211
551 4 2 0 1 7 114 211 166
552 4 2 0 1 35 183 179 211
553 4 2 0 1 136 177 186 181
554 4 2 0 1 165 68 188 223
555 4 2 0 1 139 223 165 188
556 4 2 0 1 55 218 45 107
557 4 2 0 1 152 208 206 67
558 4 2 0 1 187 181 152 67
559 4 2 0 1 152 181 208 67
560 4 2 0 1 200 148 176 59
561 4 2 0 1 157 62 71 79
562 4 2 0 1 59 62 71 157
563 4 2 0 1 121 157 59 165
564 4 2 0 1 79 141 157 121
565 4 2 0 1 121 79 62 157
566 4 2 0 1 157 223 71 59
567 4 2 0 1 121 157 62 59
568 4 2 0 1 51 40 213 198
569 4 2 0 1 51 40 198 209
570 4 2 0 1 209 103 198 51
571 4 2 0 1 118 101 125 65
572 4 2 0 1 118 101 112 125
573 4 2 0 1 179 166 7 211
574 4 2 0 1 194 132 57 61
575 4 2 0 1 202 23 216 162
576 4 2 0 1 171 124 217 196
577 4 2 0 1 171 124 196 151
578 4 2 0 1 225 65 200 101
579 4 2 0 1 101 148 65 200
580 4 2 0 1 65 101 125 148
581 4 2 0 1 170 209 51 103
582 4 2 0 1 212 53 170 51
583 4 2 0 1 212 209 51 170
584 4 2 0 1 40 212 209 51
585 4 2 0 1 18 149 208 152
586 4 2 0 1 78 18 206 154
587 4 2 0 1 18 78 206 208
588 4 2 0 1 214 35 31 24
589 4 2 0 1 21 110 33 214
590 4 2 0 1 215 154 193 64
591 4 2 0 1 146 24 110 214
592 4 2 0 1 195 77 157 190
593 4 2 0 1 195 77 190 153
594 4 2 0 1 190 153 105 175
595 4 2 0 1 195 175 153 190
596 4 2 0 1 169 167 90 216
597 4 2 0 1 167 216 169 10
598 4 2 0 1 11 19 219 216
599 4 2 0 1 180 80 177 187
600 4 2 0 1 203 43 138 191
601 4 2 0 1 11 23 19 216
602 4 2 0 1 15 23 216 19
603 4 2 0 1 20 207 13 5
604 4 2 0 1 5 20 207 169
605 4 2 0 1 79 190 157 141
606 4 2 0 1 195 157 79 190
607 4 2 0 1 196 49 171 151
608 4 2 0 1 193 69 215 64
609 4 2 0 1 54 191 43 203
610 4 2 0 1 181 187 80 163
611 4 2 0 1 50 107 39 218
612 4 2 0 1 93 182 185 134
613 4 2 0 1 11 202 23 216
614 4 2 0 1 202 27 11 23
615 4 2 0 1 169 20 219 11
616 4 2 0 1 57 61 138 204
617 4 2 0 1 78 154 73 66
618 4 2 0 1 184 105 175 142
619 4 2 0 1 221 86 49 92
620 4 2 0 1 64 69 222 193
621 4 2 0 1 101 222 225 65
622 4 2 0 1 193 64 101 222
623 4 2 0 1 72 215 193 63
624 4 2 0 1 53 191 43 54
625 4 2 0 1 53 56 191 54
626 4 2 0 1 191 53 43 170
627 4 2 0 1 56 212 170 209
628 4 2 0 1 202 117 17 189
629 4 2 0 1 189 21 202 117
630 4 2 0 1 216 219 169 10
631 4 2 0 1 219 19 10 216
632 4 2 0 1 173 68 73 66
633 4 2 0 1 154 155 66 139
634 4 2 0 1 192 68 188 165
635 4 2 0 1 139 165 155 188
636 4 2 0 1 73 173 66 154
637 4 2 0 1 73 64 154 215
638 4 2 0 1 224 153 77 195
639 4 2 0 1 224 78 77 153
640 4 2 0 1 157 77 220 223
641 4 2 0 1 220 195 77 157
642 4 2 0 1 57 204 138 203
643 4 2 0 1 64 225 200 101
644 4 2 0 1 101 222 64 225
645 4 2 0 1 110 25 33 214
646 4 2 0 1 63 69 215 193
647 4 2 0 1 193 69 222 63
648 4 2 0 1 63 193 101 222
$EndElements
