$MeshFormat
2.2 0 8
$EndMeshFormat
$Nodes
391
1 -0.003095380030572414 0.07071922719478607 0.007707019802182913
2 -0.003095380030572414 0.07071922719478607 0.02276980318129063
3 -0.000574679987039417 0.06784422695636749 0.00780742010101676
4 -0.000574679987039417 0.06784422695636749 0.02324257977306843
5 0.001791880000382662 0.05864423140883446 0.008128689602017403
6 0.001791880000382662 0.05864423140883446 0.02292131073772907
7 0.002087699947878718 0.05749423056840897 0.008168850094079971
8 0.002087699947878718 0.05749423056840897 0.0228811502456665
9 0.004306340124458075 0.04886922985315323 0.008470039814710617
10 0.004306340124458075 0.04886922985315323 0.02257996052503586
11 0.004602159839123487 0.04771922901272774 0.008510200306773186
12 0.004602159839123487 0.04771922901272774 0.02253980003297329
13 0.01130617782473564 0.05691942200064659 0.02286107838153839
14 0.006890847347676754 0.05921905487775803 0.02284838445484638
15 0.006820810027420521 0.039094228297472 0.008811390027403831
16 0.006714910734444857 0.03950591012835503 0.02213616482913494
17 0.0071166199631989 0.03794423118233681 0.008851549588143826
18 0.0071166199631989 0.03794423118233681 0.02219844982028008
19 0.01102322246879339 0.04714444279670715 0.02251972816884518
20 0.009768004529178143 0.04944399744272232 0.02260003238916397
21 0.009335270151495934 0.02931923046708107 0.009152740240097046
22 0.009335270151495934 0.02931923046708107 0.02189726009964943
23 0.009631089866161346 0.02816922962665558 0.00919289980083704
24 0.01333926990628242 0.03966828063130379 0.02208251506090164
25 0.01173167768865824 0.02000316046178341 0.009659470990300179
26 0.01184973027557135 0.01954423077404499 0.02155590988695621
27 0.01213782280683517 0.01150000002235174 0.0212750006467104
28 0.01198887266218662 0.01207906939089298 0.009754777885973454
29 0.01272505521774292 0.01839408092200756 0.009839825332164764
30 0.01214554999023676 0.0183942299336195 0.02151574939489365
31 0.01152041368186474 0.05691945925354958 0.008188921958208084
32 0.01391898188740015 0.01150000002235174 0.01089542359113693
33 0.01391898281872272 0.01150000002235174 0.02010597474873066
34 0.0153511893004179 0.02010290510952473 0.02074424363672733
35 0.01535049267113209 0.01994555443525314 0.009480074979364872
36 0.01386616285890341 0.02759460918605328 0.01799041777849197
37 0.01557592675089836 0.01782680675387383 0.01601638831198215
38 0.01598555408418179 0.01782632060348988 0.009956163354218006
39 0.01754068024456501 0.0183942299336195 0.02145048417150974
40 0.01761573553085327 0.01921839080750942 0.009505469352006912
41 0.01764540933072567 0.01954423077404499 0.01741433329880238
42 0.01684289984405041 0.02759457379579544 0.009625829756259918
43 0.01647426746785641 0.02989264950156212 0.021282859146595
44 0.01708573848009109 0.03966820985078812 0.009126210585236549
45 0.01843087933957577 0.02816922962665558 0.02185709960758686
46 0.01853561028838158 0.02931923046708107 0.009152740240097046
47 0.01248334534466267 0.04944400116801262 0.008687132969498634
48 0.01821008883416653 0.04714435711503029 0.008530275896191597
49 0.01862304657697678 0.04944400116801262 0.02260003238916397
50 0.01786136068403721 0.03743284195661545 0.02197370864450932
51 0.01932108029723167 0.03794423118233681 0.008851549588143826
52 0.01942580938339233 0.039094228297472 0.02146100252866745
53 0.01766907796263695 0.05921905487775803 0.008742325939238071
54 0.01902637630701065 0.05691932141780853 0.008474443107843399
55 0.02021127939224243 0.04771922901272774 0.02253980003297329
56 0.02031601034104824 0.04886922985315323 0.008797922171652317
57 0.02118363976478577 0.05839641019701958 0.00824703648686409
58 0.021206209436059 0.05864423140883446 0.02292131073772907
59 0.02366003952920437 0.06656885892152786 0.01014403719455004
60 0.02366003580391407 0.06656885892152786 0.0195402018725872
61 0.02377617917954922 0.0678442195057869 0.00780742010101676
62 0.02377617917954922 0.0678442195057869 0.02324257977306843
63 0.02539216913282871 0.06656885892152786 0.008354624733328819
64 0.02539216913282871 0.06656885892152786 0.02319804579019547
65 0.02577014081180096 0.07071922719478607 0.007707019802182913
66 0.02577014081180096 0.07071922719478607 0.02303497493267059
67 0.009660102427005768 0.02805642038583755 0.02185316197574139
68 0.0001713163655949757 0.05801988393068314 0.02289949171245098
69 0.003094226354733109 0.04665707051753998 0.02213064022362232
70 0.007423597387969494 0.02982661500573158 0.009135020896792412
71 0.007046167738735676 0.03129386529326439 0.01773307286202908
72 0.01144170388579369 0.07071922719478607 0.02334298007190228
73 0.01159286126494408 0.07071922719478607 0.007707019802182913
74 0.01150331925600767 0.06784422695636749 0.0151682747527957
75 0.01125883683562279 0.01491707284003496 0.01788213290274143
76 0.00823631975799799 0.03359140083193779 0.01670194417238235
77 0.01982316188514233 0.05707171931862831 0.0228663943707943
78 0.006276636850088835 0.03428541868925095 0.02159188687801361
79 0.01067505683749914 0.02411079220473766 0.01545596309006214
80 0.01160074956715107 0.06784422695636749 0.00780742010101676
81 0.01160074956715107 0.06784422695636749 0.02324257977306843
82 0.01419552508741617 0.04944400116801262 0.02260003238916397
83 0.008691518567502499 0.02489754371345043 0.018113162368536
84 0.00934397429227829 0.02236111462116241 0.02126111462712288
85 0.01862297207117081 0.04944400116801262 0.01676581799983978
86 0.01139586698263884 0.07071922719478607 0.01613864488899708
87 0.02577014081180096 0.07071922719478607 0.01631729491055012
88 0.01003129221498966 0.01968916691839695 0.01541020441800356
89 0.01207581162452698 0.04944399744272232 0.01884800754487514
90 0.01926468871533871 0.07071922719478607 0.007848423905670643
91 0.003002276411280036 0.07071922719478607 0.007838939316570759
92 0.004236974287778139 0.0704711526632309 0.02310271002352238
93 0.004732053726911545 0.06784422695636749 0.01172650046646595
94 0.004895806778222322 0.06784422695636749 0.01964306831359863
95 0.01895968243479729 0.0678442195057869 0.01172883156687021
96 0.01847472041845322 0.0678442195057869 0.01939594931900501
97 0.019621966406703 0.07071922719478607 0.02313574962317944
98 0.001911852858029306 0.05125356838107109 0.008524932898581028
99 0.006176674738526344 0.034674022346735 0.01729142293334007
100 0.01731193624436855 0.04714448004961014 0.01585264317691326
101 0.01137249357998371 0.05921905487775803 0.01499457657337189
102 -0.001196716446429491 0.06333815306425095 0.01551086828112602
103 0.001659272238612175 0.05223546922206879 0.01633494719862938
104 0.0111493868753314 0.04714443907141685 0.01430654712021351
105 0.01556466985493898 0.05699557065963745 0.02286373637616634
106 0.006820810027420521 0.039094228297472 0.01552500016987324
107 0.0071166199631989 0.03794423118233681 0.01552499923855066
108 0.009592179208993912 0.02139623649418354 0.009429415687918663
109 0.01859121955931187 0.03768853843212128 0.01541262958198786
110 0.008151261135935783 0.0569194108247757 0.01468934584408998
111 -0.001227204804308712 0.06345668435096741 0.007960633374750614
112 0.003260070690885186 0.04601234942674637 0.01597396098077297
113 0.01034100726246834 0.02540941350162029 0.01188536919653416
114 0.006408895831555128 0.03377127647399902 0.009120251052081585
115 0.007082814816385508 0.05921905860304832 0.01198152452707291
116 0.01135423127561808 0.05921905860304832 0.008717910386621952
117 0.02576888166368008 0.07070541381835938 0.01197431888431311
118 0.0122096324339509 0.05921905487775803 0.01884319260716438
119 0.0184966865926981 0.02889182791113853 0.0157718863338232
120 0.009228003211319447 0.0297362320125103 0.0153985908254981
121 0.01942580938339233 0.039094228297472 0.01441903226077557
122 0.008699666708707809 0.02486587874591351 0.01274413056671619
123 0.01725326292216778 0.05878793820738792 0.0229263287037611
124 0.008780607953667641 0.031475480645895 0.01226357277482748
125 0.009645596146583557 0.02811282500624657 0.01552303042262793
126 0.007647633086889982 0.03587991744279861 0.01232277974486351
127 0.01438361778855324 0.04944399744272232 0.01509598363190889
128 -0.001200412749312818 0.06335252523422241 0.02308573015034199
129 0.01656888239085674 0.0298924632370472 0.01543296966701746
130 0.01324998028576374 0.02950839512050152 0.01520929206162691
131 0.0141076510772109 0.05691934004426003 0.01511387433856726
132 0.01810901798307896 0.07071922719478607 0.0153247881680727
133 0.003945402335375547 0.07071922719478607 0.01585901714861393
134 0.01684569008648396 0.02759511768817902 0.0163878072053194
135 0.005357767920941114 0.0378575287759304 0.01612416096031666
136 0.004739717114716768 0.04026021063327789 0.02174710668623447
137 0.007727265357971191 0.0286460854113102 0.01752676069736481
138 0.0109962671995163 0.04714434966444969 0.01836857572197914
139 0.01333903055638075 0.03736953809857368 0.01584486104547977
140 0.001687056734226644 0.05212744325399399 0.02240090817213058
141 0.01359715778380632 0.03737038001418114 0.009285232052206993
142 0.01330031640827656 0.05893164500594139 0.02293134666979313
143 0.005033828783780336 0.06784422695636749 0.00780742010101676
144 0.005888534709811211 0.06784422695636749 0.02324257977306843
145 0.01678149960935116 0.0678442195057869 0.00780742010101676
146 0.01754175685346127 0.06789024174213409 0.02324418723583221
147 0.004958050325512886 0.06784422695636749 0.01565312035381794
148 0.01768846437335014 0.0678442195057869 0.01552500016987324
149 0.00819485355168581 0.03375259786844254 0.01268234755843878
150 -0.002980011282488704 0.07027073204517365 0.01534197572618723
151 0.02366003580391407 0.06656885892152786 0.01596615649759769
152 -0.000574679987039417 0.06784422695636749 0.01552500016987324
153 0.02377617917954922 0.0678442195057869 0.01491632778197527
154 0.02539216913282871 0.06656885892152786 0.01545472349971533
155 0.01805885322391987 0.04714442789554596 0.01274167746305466
156 0.01184973027557135 0.01954423077404499 0.01552500016987324
157 0.0006085999775677919 0.06324423104524612 0.01922315545380116
158 0.0006802943535149097 0.0629655197262764 0.01207510754466057
159 0.01214554999023676 0.0183942299336195 0.01552500016987324
160 0.01238639559596777 0.03966823592782021 0.01602663658559322
161 0.01846349239349365 0.05921905487775803 0.01497515384107828
162 0.01064846199005842 0.0172899067401886 0.02147718891501427
163 0.01427909266203642 0.04714446887373924 0.01943741366267204
164 0.005493421107530594 0.03733019158244133 0.008950085379183292
165 0.01757948845624924 0.0188203826546669 0.01549272984266281
166 0.001791880000382662 0.05864423140883446 0.01552500016987324
167 0.02115626819431782 0.05809584632515907 0.01511053182184696
168 0.0001713201927486807 0.05801988765597343 0.01552499085664749
169 0.0119612030684948 0.02859167382121086 0.0128660649061203
170 0.002087699947878718 0.05749423056840897 0.01552500016987324
171 0.01938465051352978 0.05691945552825928 0.01634144969284534
172 0.01167649403214455 0.02960590645670891 0.01252828538417816
173 0.005323823075741529 0.03798949718475342 0.01271828543394804
174 0.01516800932586193 0.019949646666646 0.0147619815543294
175 0.0102002564817667 0.02595657482743263 0.01861378364264965
176 0.007714906241744757 0.02869413234293461 0.02178767323493958
177 0.003197019919753075 0.0531817302107811 0.0118469251319766
178 0.003217665245756507 0.05310147255659103 0.01873224973678589
179 0.01200606115162373 0.01201223768293858 0.01573048532009125
180 0.01638535410165787 0.05921905487775803 0.0179599691182375
181 0.02025265246629715 0.04817352816462517 0.0147552601993084
182 0.004306340124458075 0.04886922985315323 0.01552500016987324
183 0.0112696997821331 0.0471445731818676 0.008530267514288425
184 0.004602159839123487 0.04771922901272774 0.01552500016987324
185 0.01297774817794561 0.01515905372798443 0.01838097348809242
186 0.01222581695765257 0.03966835886240005 0.008976592682301998
187 0.000402792968088761 0.05712005123496056 0.008181912824511528
188 0.00443020835518837 0.04146343842148781 0.009252900257706642
189 0.003412029007449746 0.04542161896824837 0.009292285889387131
190 0.005992521531879902 0.03538992628455162 0.01302887219935656
191 0.01323611661791801 0.014154645614326 0.01320410612970591
192 0.006904109846800566 0.03184611722826958 0.01345156598836184
193 0.005711485166102648 0.04340672865509987 0.01888180524110794
194 0.01536575239151716 0.03736961260437965 0.01929395645856857
195 0.01786463521420956 0.04714459180831909 0.01982924714684486
196 0.0223038662225008 0.07071922719478607 0.01947201788425446
197 0.01308732759207487 0.0569193996489048 0.01151825208216906
198 0.005969887133687735 0.04240218922495842 0.0116290021687746
199 0.01111007202416658 0.02241966314613819 0.01219040621072054
200 0.007924078032374382 0.07071922719478607 0.01990501955151558
201 0.007343413308262825 0.07071922719478607 0.0116845965385437
202 0.02220569923520088 0.07071922719478607 0.01566434651613235
203 -0.001768702873960137 0.06556175649166107 0.01191126741468906
204 0.01134897116571665 0.02149093896150589 0.01868341490626335
205 0.01303280424326658 0.03736956417560577 0.02217838168144226
206 0.0129274008795619 0.01535477954894304 0.01527207251638174
207 0.01545080728828907 0.07071922719478607 0.0198430810123682
208 0.001066469587385654 0.0545399971306324 0.01215435937047005
209 0.01879578270018101 0.05893164500594139 0.02044063992798328
210 0.02207858301699162 0.07071922719478607 0.01170243602246046
211 -0.0001077787528629415 0.07071922719478607 0.01188943721354008
212 0.007063631899654865 0.05921905487775803 0.01543089468032122
213 0.01131141930818558 0.01471266895532608 0.01295083947479725
214 0.008200772106647491 0.04944400116801262 0.01302036549896002
215 0.01389344967901707 0.01159925758838654 0.0159279853105545
216 0.01502597238868475 0.07071922719478607 0.01126455143094063
217 0.009860356338322163 0.02035367488861084 0.0188935361802578
218 0.0106591684743762 0.01724830083549023 0.01228116918355227
219 0.01326399203389883 0.02759544737637043 0.00951656885445118
220 0.01454391051083803 0.0569193996489048 0.01008683070540428
221 0.005914540961384773 0.05691937357187271 0.01904232054948807
222 0.008675850927829742 0.03188272193074226 0.01945433765649796
223 0.01300954911857843 0.0150354290381074 0.02112727984786034
224 0.004248890094459057 0.04216830432415009 0.01773597486317158
225 0.02040942758321762 0.0678442195057869 0.00780742010101676
226 0.006820810027420521 0.039094228297472 0.01216819509863853
227 -0.0004520397342275828 0.07071922719478607 0.019630316644907
228 0.007802398409694433 0.02835401333868504 0.01346967928111553
229 0.006820810027420521 0.039094228297472 0.01888180524110794
230 0.002831886755302548 0.04767692089080811 0.01250272803008556
231 0.0008875149069353938 0.05523568391799927 0.01917219161987305
232 0.008640379644930363 0.02509636618196964 0.009300203993916512
233 0.003409223398193717 0.04543252289295197 0.01256033405661583
234 0.007458982523530722 0.03794423118233681 0.01193012576550245
235 0.0071166199631989 0.03794423118233681 0.01886172406375408
236 0.01492762006819248 0.04714437574148178 0.01207662001252174
237 0.00934827234596014 0.02234441041946411 0.01661429740488529
238 0.007908823899924755 0.04714444652199745 0.01819812133908272
239 0.01008003950119019 0.03938125446438789 0.02216056175529957
240 0.01900106109678745 0.05691951513290405 0.02017775736749172
241 0.006895898841321468 0.05720684304833412 0.008178886026144028
242 -0.002148304833099246 0.06703746318817139 0.01934877224266529
243 0.00996003020554781 0.01996620558202267 0.01228307466953993
244 0.006274652667343616 0.05921905860304832 0.008402392268180847
245 0.01825526729226112 0.05921905487775803 0.01227193418890238
246 0.01431202422827482 0.05691943690180779 0.02043935097754002
247 0.01684424094855785 0.02759483456611633 0.0128735238686204
248 0.01614728569984436 0.03736942261457443 0.01247536670416594
249 0.009570133872330189 0.04944399744272232 0.01720546744763851
250 0.0004452158755157143 0.06387938559055328 0.007945874705910683
251 0.0006766175501979887 0.0629798099398613 0.02307271212339401
252 0.008545946329832077 0.02546345628798008 0.02144008129835129
253 0.007812690921127796 0.0474318340420723 0.02252976410090923
254 0.009437249973416328 0.02199851348996162 0.01408663205802441
255 0.01468658726662397 0.05806925520300865 0.008465624414384365
256 0.01298330724239349 0.039668258279562 0.01890506967902184
257 -0.00059444026555866 0.06099680066108704 0.01925148628652096
258 0.01046903990209103 0.03737077116966248 0.01215550024062395
259 0.006443201564252377 0.05691933259367943 0.02257946133613586
260 0.01039190590381622 0.03966835886240005 0.01229072548449039
261 0.01585603319108486 0.04717171937227249 0.02252067998051643
262 0.01401771884411573 0.02989258244633675 0.009531570598483086
263 0.01850942708551884 0.02903173118829727 0.01232882961630821
264 0.009244250133633614 0.02967306971549988 0.01233695913106203
265 0.009335270151495934 0.02931923046708107 0.01871113106608391
266 0.00452140299603343 0.05893164500594139 0.01917123608291149
267 0.007908804342150688 0.04714459553360939 0.01192584168165922
268 0.02027858234941959 0.04845824837684631 0.01193831488490105
269 0.009718339890241623 0.02783004194498062 0.01267328392714262
270 0.009652849286794662 0.02808462269604206 0.01868809573352337
271 0.01002994831651449 0.03940515965223312 0.01885500550270081
272 0.00662075774744153 0.04886922985315323 0.01916900649666786
273 0.005119480192661285 0.05720682069659233 0.01142909843474627
274 0.005701315123587847 0.04344626516103745 0.008659414947032928
275 0.005697370041161776 0.04326147586107254 0.02238413318991661
276 0.008225944824516773 0.03363173082470894 0.02204785495996475
277 0.003197019919753075 0.0531817302107811 0.008319444954395294
278 0.003352368017658591 0.05257781222462654 0.02270946651697159
279 0.01072262693196535 0.02392586134374142 0.00998327974230051
280 0.005547915119677782 0.04404260590672493 0.01482321415096521
281 0.008120900020003319 0.0271158404648304 0.01082869339734316
282 0.01221112441271544 0.05691936239600182 0.01845638081431389
283 0.01078467629849911 0.02368464507162571 0.02149615623056889
284 0.01508419495075941 0.05921905487775803 0.01227400358766317
285 0.01404958125203848 0.02759481407701969 0.02164237387478352
286 0.01559120509773493 0.02979507111012936 0.01221257727593184
287 0.008943825960159302 0.05921905487775803 0.01901940442621708
288 0.01046553254127502 0.01800104789435863 0.01791738532483578
289 0.005508176982402802 0.03727281466126442 0.02166949771344662
290 0.003971257247030735 0.04324760660529137 0.02182471565902233
291 0.01082811318337917 0.02351577766239643 0.01864071004092693
292 0.01590974442660809 0.03966828808188438 0.01788600161671638
293 0.01556579582393169 0.03945085778832436 0.01224631816148758
294 0.01040578633546829 0.03736983612179756 0.01903712935745716
295 0.01016773469746113 0.03794423118233681 0.008851549588143826
296 0.02102511748671532 0.0678442195057869 0.01532565709203482
297 0.0156770758330822 0.0178271159529686 0.01275493204593658
298 0.003438681596890092 0.04531799629330635 0.01921417750418186
299 0.01809571124613285 0.04944399744272232 0.01218373235315084
300 0.005804390646517277 0.03612128272652626 0.01918199099600315
301 0.010050761513412 0.03760599717497826 0.01585008762776852
302 0.01184973027557135 0.01954423077404499 0.01250954531133175
303 0.0117882015183568 0.01978342607617378 0.0186535120010376
304 0.01094103697687387 0.01615254208445549 0.009612529538571835
305 0.01255757734179497 0.02964176423847675 0.01854177936911583
306 0.01214554999023676 0.0183942299336195 0.01252962462604046
307 0.01214554999023676 0.0183942299336195 0.01852037385106087
308 0.01755377091467381 0.0185379795730114 0.01846640557050705
309 0.01759774796664715 0.01902087219059467 0.01282295025885105
310 0.01604330725967884 0.05691938102245331 0.008188925683498383
311 0.004524863325059414 0.04109545797109604 0.01381948124617338
312 0.01671184971928596 0.04944399744272232 0.008922679349780083
313 0.01406278368085623 0.04714445024728775 0.01543696876615286
314 0.009724077768623829 0.0393812321126461 0.01562631316483021
315 0.004900178406387568 0.03963642194867134 0.01124704442918301
316 0.01951306872069836 0.0569193996489048 0.01288636215031147
317 0.01344914082437754 0.02759510837495327 0.013127401471138
318 0.01862300932407379 0.04944400116801262 0.01968292519450188
319 0.008252469822764397 0.04915661364793777 0.008649157360196114
320 0.0156541857868433 0.01782689243555069 0.01902624033391476
321 0.007715460378676653 0.03561623767018318 0.019212881103158
322 0.01371143106371164 0.02939888834953308 0.01236993912607431
323 0.01168184913694859 0.02788212709128857 0.01121465489268303
324 0.006997252814471722 0.03148401901125908 0.02161375992000103
325 0.009986273013055325 0.03765689209103584 0.02218841575086117
326 0.005210042931139469 0.04535608366131783 0.02062454074621201
327 0.002488125581294298 0.04901329427957535 0.01884869113564491
328 0.01176313310861588 0.02782551385462284 0.01992178894579411
329 0.02539223805069923 0.06656961888074875 0.01253536809235811
330 0.02542245760560036 0.06690144538879395 0.01804099977016449
331 -0.000574679987039417 0.06784422695636749 0.01166621036827564
332 -0.000574679987039417 0.06784422695636749 0.01938378997147083
333 0.02377617917954922 0.0678442195057869 0.01121258735656738
334 0.02377617917954922 0.0678442195057869 0.01938378997147083
335 0.01294716447591782 0.03736953809857368 0.01935377903282642
336 0.01502614095807076 0.01981293596327305 0.01756512001156807
337 0.004955227952450514 0.039422407746315 0.01885015517473221
338 0.02072984538972378 0.05749399960041046 0.01919705793261528
339 0.01275650784373283 0.02980144321918488 0.02181340381503105
340 0.02054843679070473 0.05775988101959229 0.01185383088886738
341 0.02366003766655922 0.06656885892152786 0.01294285804033279
342 0.02064385637640953 0.05878793820738792 0.01921813748776913
343 0.01993781700730324 0.05891561135649681 0.01168440748006105
344 0.006266147363930941 0.04125047847628593 0.02056020684540272
345 0.02023588679730892 0.04798943176865578 0.01827307976782322
346 0.001791880000382662 0.05864423140883446 0.01922315545380116
347 0.001791880000382662 0.05864423140883446 0.01182684488594532
348 0.006158649921417236 0.0382399894297123 0.01896574534475803
349 0.007037172093987465 0.04915661364793777 0.02258999645709991
350 0.0001713220990495756 0.05801988765597343 0.01183774136006832
351 0.0001713182718958706 0.05801988765597343 0.01921224221587181
352 0.002087699947878718 0.05749423056840897 0.0192030742764473
353 0.002087699947878718 0.05749423056840897 0.0118469251319766
354 0.01072313822805882 0.0169996116310358 0.01429269462823868
355 0.01303226593881845 0.01494711451232433 0.01021483633667231
356 0.01311092544347048 0.03765691816806793 0.01241436880081892
357 0.01029376871883869 0.01866880059242249 0.01028454676270485
358 0.008039887994527817 0.02743076346814632 0.01957725547254086
359 0.004306340124458075 0.04886922985315323 0.01199751999229193
360 0.004127574618905783 0.0495641827583313 0.01894501969218254
361 0.004602159839123487 0.04771922901272774 0.01201760023832321
362 0.004602159839123487 0.04771922901272774 0.01903240010142326
363 0.01512101851403713 0.0569194033741951 0.01769080944359303
364 0.00936548039317131 0.03938129544258118 0.008972549811005592
365 0.01172490697354078 0.01681743189692497 0.01129032764583826
366 0.008754262700676918 0.03880629315972328 0.01057113707065582
367 0.007866454310715199 0.03502925112843513 0.01436281949281693
368 0.00927615724503994 0.02262476831674576 0.01157889422029257
369 0.006707011722028255 0.03261233121156693 0.01923185773193836
370 0.007228572852909565 0.03058476001024246 0.01557472534477711
371 0.008188692852854729 0.02685228921473026 0.01573415286839008
372 0.007400424219667912 0.02991668321192265 0.01947085000574589
373 0.01167649403214455 0.02960590645670891 0.009342155419290066
374 0.007728657219558954 0.03556493669748306 0.01631315238773823
375 0.01168460957705975 0.03953671827912331 0.02046876028180122
376 0.01773634552955627 0.04944399744272232 0.01494720671325922
377 0.01109056361019611 0.02883340604603291 0.02026342786848545
378 0.01932312361896038 0.05921905860304832 0.01735683716833591
379 0.01537051517516375 0.04944399744272232 0.01710973121225834
380 0.007892654277384281 0.03492739796638489 0.009472325444221497
381 0.01022302825003862 0.02586806006729603 0.009802903048694134
382 0.006245950236916542 0.04132899641990662 0.01785942167043686
383 0.01185484230518341 0.0278256181627512 0.02174776792526245
384 0.006063550245016813 0.03511380031704903 0.01516962610185146
385 0.008680240251123905 0.03794423118233681 0.01394637860357761
386 0.01653610356152058 0.04944400116801262 0.0206913910806179
387 0.009981702081859112 0.02680621854960918 0.01079132966697216
388 0.01649829931557178 0.01982356794178486 0.01907928846776485
389 0.01982169039547443 0.04823243245482445 0.02068958431482315
390 0.01248708460479975 0.02946059033274651 0.0109509015455842
391 0.01050588209182024 0.02946256846189499 0.0140266427770257
$EndNodes
$Elements
946
1 4 2 0 1 114 192 124 149
2 4 2 0 1 327 182 360 362
3 4 2 0 1 42 286 262 219
4 4 2 0 1 361 182 214 359
5 4 2 0 1 184 112 230 233
6 4 2 0 1 371 122 79 254
7 4 2 0 1 47 104 127 214
8 4 2 0 1 162 217 26 288
9 4 2 0 1 351 170 346 352
10 4 2 0 1 47 104 214 183
11 4 2 0 1 22 372 176 324
12 4 2 0 1 75 185 162 27
13 4 2 0 1 346 352 170 266
14 4 2 0 1 179 185 75 27
15 4 2 0 1 351 166 346 170
16 4 2 0 1 133 147 94 152
17 4 2 0 1 328 305 339 285
18 4 2 0 1 305 339 377 328
19 4 2 0 1 74 201 133 86
20 4 2 0 1 133 200 94 74
21 4 2 0 1 361 233 189 198
22 4 2 0 1 176 358 67 252
23 4 2 0 1 163 379 89 82
24 4 2 0 1 163 313 138 89
25 4 2 0 1 89 104 138 249
26 4 2 0 1 74 86 133 200
27 4 2 0 1 74 86 207 132
28 4 2 0 1 276 321 222 78
29 4 2 0 1 321 135 300 348
30 4 2 0 1 216 90 132 95
31 4 2 0 1 93 201 91 133
32 4 2 0 1 296 202 153 210
33 4 2 0 1 174 37 165 41
34 4 2 0 1 97 132 96 207
35 4 2 0 1 119 263 247 129
36 4 2 0 1 285 43 45 36
37 4 2 0 1 330 334 64 66
38 4 2 0 1 308 37 336 41
39 4 2 0 1 296 202 196 153
40 4 2 0 1 201 73 74 80
41 4 2 0 1 72 86 81 200
42 4 2 0 1 333 65 329 63
43 4 2 0 1 313 104 127 236
44 4 2 0 1 139 292 109 293
45 4 2 0 1 163 19 20 138
46 4 2 0 1 163 138 20 89
47 4 2 0 1 89 138 20 249
48 4 2 0 1 238 20 19 138
49 4 2 0 1 138 238 20 249
50 4 2 0 1 227 92 94 133
51 4 2 0 1 143 73 201 80
52 4 2 0 1 133 93 152 211
53 4 2 0 1 143 201 91 93
54 4 2 0 1 133 200 92 94
55 4 2 0 1 72 200 81 144
56 4 2 0 1 74 132 95 216
57 4 2 0 1 216 90 95 145
58 4 2 0 1 74 132 207 96
59 4 2 0 1 207 97 146 96
60 4 2 0 1 232 279 113 122
61 4 2 0 1 333 65 117 329
62 4 2 0 1 210 65 117 333
63 4 2 0 1 180 101 282 118
64 4 2 0 1 282 287 118 101
65 4 2 0 1 103 230 177 182
66 4 2 0 1 297 38 306 35
67 4 2 0 1 209 180 240 123
68 4 2 0 1 120 124 264 228
69 4 2 0 1 126 164 380 114
70 4 2 0 1 370 124 120 228
71 4 2 0 1 107 173 126 190
72 4 2 0 1 180 118 282 142
73 4 2 0 1 178 103 182 327
74 4 2 0 1 305 125 120 130
75 4 2 0 1 185 27 223 162
76 4 2 0 1 292 139 160 293
77 4 2 0 1 331 152 203 158
78 4 2 0 1 84 291 283 204
79 4 2 0 1 176 265 67 358
80 4 2 0 1 221 287 13 282
81 4 2 0 1 179 33 215 185
82 4 2 0 1 22 265 176 372
83 4 2 0 1 265 358 176 372
84 4 2 0 1 204 237 79 156
85 4 2 0 1 31 110 115 241
86 4 2 0 1 31 115 116 241
87 4 2 0 1 110 166 115 273
88 4 2 0 1 120 228 269 125
89 4 2 0 1 120 125 269 391
90 4 2 0 1 264 269 391 120
91 4 2 0 1 219 317 322 323
92 4 2 0 1 130 36 125 317
93 4 2 0 1 130 36 305 125
94 4 2 0 1 370 192 124 228
95 4 2 0 1 355 32 191 28
96 4 2 0 1 355 213 365 304
97 4 2 0 1 170 266 166 346
98 4 2 0 1 221 287 282 110
99 4 2 0 1 240 105 123 246
100 4 2 0 1 219 322 262 390
101 4 2 0 1 355 28 191 213
102 4 2 0 1 95 90 132 210
103 4 2 0 1 28 191 213 179
104 4 2 0 1 179 32 191 215
105 4 2 0 1 152 157 242 102
106 4 2 0 1 299 155 268 181
107 4 2 0 1 155 236 299 48
108 4 2 0 1 230 189 98 9
109 4 2 0 1 97 132 196 96
110 4 2 0 1 129 36 130 317
111 4 2 0 1 288 185 162 75
112 4 2 0 1 120 125 391 130
113 4 2 0 1 130 169 317 125
114 4 2 0 1 48 236 312 47
115 4 2 0 1 317 169 269 125
116 4 2 0 1 135 107 190 173
117 4 2 0 1 135 311 106 173
118 4 2 0 1 285 305 43 36
119 4 2 0 1 158 350 102 203
120 4 2 0 1 158 350 203 111
121 4 2 0 1 92 200 144 94
122 4 2 0 1 129 247 134 317
123 4 2 0 1 247 129 134 119
124 4 2 0 1 123 180 240 246
125 4 2 0 1 282 131 110 101
126 4 2 0 1 110 266 212 166
127 4 2 0 1 211 93 91 133
128 4 2 0 1 280 112 311 224
129 4 2 0 1 74 216 86 132
130 4 2 0 1 21 380 70 124
131 4 2 0 1 292 194 139 109
132 4 2 0 1 292 194 256 139
133 4 2 0 1 122 368 199 254
134 4 2 0 1 136 289 337 344
135 4 2 0 1 305 36 270 125
136 4 2 0 1 133 74 94 147
137 4 2 0 1 133 74 147 93
138 4 2 0 1 74 132 96 148
139 4 2 0 1 74 132 148 95
140 4 2 0 1 163 82 89 20
141 4 2 0 1 261 163 20 82
142 4 2 0 1 129 317 134 36
143 4 2 0 1 294 139 160 256
144 4 2 0 1 272 362 360 182
145 4 2 0 1 152 133 150 227
146 4 2 0 1 102 242 152 150
147 4 2 0 1 157 332 152 242
148 4 2 0 1 227 133 94 152
149 4 2 0 1 311 188 198 315
150 4 2 0 1 83 175 252 291
151 4 2 0 1 252 175 283 291
152 4 2 0 1 303 336 307 156
153 4 2 0 1 149 190 192 384
154 4 2 0 1 242 227 150 2
155 4 2 0 1 166 257 157 102
156 4 2 0 1 292 139 256 160
157 4 2 0 1 157 257 242 102
158 4 2 0 1 6 251 157 128
159 4 2 0 1 149 190 384 367
160 4 2 0 1 334 153 330 151
161 4 2 0 1 5 158 250 111
162 4 2 0 1 102 150 152 203
163 4 2 0 1 329 153 341 151
164 4 2 0 1 31 110 197 115
165 4 2 0 1 131 197 110 101
166 4 2 0 1 133 147 152 93
167 4 2 0 1 203 150 331 1
168 4 2 0 1 331 211 1 150
169 4 2 0 1 110 166 212 115
170 4 2 0 1 165 37 308 41
171 4 2 0 1 292 50 194 109
172 4 2 0 1 292 50 24 194
173 4 2 0 1 205 24 50 194
174 4 2 0 1 213 179 206 354
175 4 2 0 1 126 173 234 164
176 4 2 0 1 197 116 115 101
177 4 2 0 1 350 187 5 7
178 4 2 0 1 197 220 284 316
179 4 2 0 1 166 157 158 102
180 4 2 0 1 158 157 152 102
181 4 2 0 1 174 159 156 302
182 4 2 0 1 350 187 7 208
183 4 2 0 1 237 254 156 88
184 4 2 0 1 266 170 166 110
185 4 2 0 1 170 110 266 221
186 4 2 0 1 351 168 166 170
187 4 2 0 1 257 168 102 166
188 4 2 0 1 231 168 170 103
189 4 2 0 1 198 189 274 188
190 4 2 0 1 110 166 273 170
191 4 2 0 1 108 25 199 243
192 4 2 0 1 254 302 156 88
193 4 2 0 1 142 13 287 282
194 4 2 0 1 128 4 242 2
195 4 2 0 1 286 219 317 322
196 4 2 0 1 168 350 102 166
197 4 2 0 1 279 25 199 108
198 4 2 0 1 362 298 112 193
199 4 2 0 1 166 350 102 158
200 4 2 0 1 93 201 133 74
201 4 2 0 1 177 98 277 9
202 4 2 0 1 153 202 196 87
203 4 2 0 1 202 210 87 153
204 4 2 0 1 170 103 208 177
205 4 2 0 1 231 103 170 178
206 4 2 0 1 140 103 178 327
207 4 2 0 1 103 230 208 177
208 4 2 0 1 363 180 282 246
209 4 2 0 1 230 98 208 177
210 4 2 0 1 213 191 306 206
211 4 2 0 1 9 189 11 361
212 4 2 0 1 193 224 112 280
213 4 2 0 1 112 184 182 362
214 4 2 0 1 178 103 177 182
215 4 2 0 1 178 103 170 177
216 4 2 0 1 231 103 178 140
217 4 2 0 1 278 140 178 10
218 4 2 0 1 179 185 215 206
219 4 2 0 1 213 191 206 179
220 4 2 0 1 380 114 70 124
221 4 2 0 1 190 135 384 107
222 4 2 0 1 271 301 160 294
223 4 2 0 1 152 133 211 150
224 4 2 0 1 292 109 293 121
225 4 2 0 1 354 206 185 179
226 4 2 0 1 37 41 174 336
227 4 2 0 1 370 120 371 228
228 4 2 0 1 120 228 125 371
229 4 2 0 1 310 220 316 53
230 4 2 0 1 48 236 47 183
231 4 2 0 1 236 104 127 47
232 4 2 0 1 236 104 47 183
233 4 2 0 1 337 135 106 348
234 4 2 0 1 299 155 48 268
235 4 2 0 1 280 311 198 106
236 4 2 0 1 299 268 48 56
237 4 2 0 1 297 37 165 174
238 4 2 0 1 238 184 214 267
239 4 2 0 1 361 189 11 274
240 4 2 0 1 66 196 62 97
241 4 2 0 1 279 368 199 122
242 4 2 0 1 207 86 81 72
243 4 2 0 1 207 81 146 72
244 4 2 0 1 74 207 81 96
245 4 2 0 1 81 207 146 96
246 4 2 0 1 84 217 26 162
247 4 2 0 1 204 26 84 217
248 4 2 0 1 200 81 94 74
249 4 2 0 1 74 86 200 81
250 4 2 0 1 200 81 144 94
251 4 2 0 1 92 72 144 200
252 4 2 0 1 74 73 201 86
253 4 2 0 1 143 73 91 201
254 4 2 0 1 143 80 201 93
255 4 2 0 1 93 80 201 74
256 4 2 0 1 25 108 357 243
257 4 2 0 1 197 116 284 220
258 4 2 0 1 310 255 220 53
259 4 2 0 1 220 255 284 53
260 4 2 0 1 203 150 152 331
261 4 2 0 1 276 222 324 78
262 4 2 0 1 181 376 299 100
263 4 2 0 1 74 86 81 207
264 4 2 0 1 97 207 146 72
265 4 2 0 1 39 320 30 34
266 4 2 0 1 126 107 234 173
267 4 2 0 1 106 226 173 311
268 4 2 0 1 260 366 234 226
269 4 2 0 1 88 159 156 288
270 4 2 0 1 344 224 193 382
271 4 2 0 1 337 348 229 344
272 4 2 0 1 261 19 20 163
273 4 2 0 1 168 208 170 103
274 4 2 0 1 361 184 233 280
275 4 2 0 1 280 112 233 311
276 4 2 0 1 230 184 233 361
277 4 2 0 1 173 164 126 190
278 4 2 0 1 258 260 366 234
279 4 2 0 1 18 235 321 348
280 4 2 0 1 90 65 210 61
281 4 2 0 1 198 315 226 311
282 4 2 0 1 3 91 1 331
283 4 2 0 1 152 211 331 150
284 4 2 0 1 104 238 214 267
285 4 2 0 1 110 287 101 212
286 4 2 0 1 110 212 101 115
287 4 2 0 1 29 35 302 306
288 4 2 0 1 73 216 74 80
289 4 2 0 1 73 216 80 145
290 4 2 0 1 74 216 95 80
291 4 2 0 1 80 216 95 145
292 4 2 0 1 104 214 183 267
293 4 2 0 1 312 236 127 47
294 4 2 0 1 299 236 127 312
295 4 2 0 1 122 199 79 254
296 4 2 0 1 279 199 113 122
297 4 2 0 1 148 132 96 296
298 4 2 0 1 96 132 196 296
299 4 2 0 1 96 196 334 296
300 4 2 0 1 179 33 185 27
301 4 2 0 1 97 196 62 96
302 4 2 0 1 146 97 62 96
303 4 2 0 1 73 90 216 145
304 4 2 0 1 96 196 62 334
305 4 2 0 1 74 73 86 216
306 4 2 0 1 259 14 13 221
307 4 2 0 1 170 221 266 352
308 4 2 0 1 243 302 254 88
309 4 2 0 1 302 243 354 88
310 4 2 0 1 245 316 284 53
311 4 2 0 1 336 159 307 156
312 4 2 0 1 246 13 105 142
313 4 2 0 1 282 13 246 142
314 4 2 0 1 364 295 186 260
315 4 2 0 1 265 176 67 22
316 4 2 0 1 306 213 354 218
317 4 2 0 1 208 98 7 177
318 4 2 0 1 170 208 353 177
319 4 2 0 1 241 110 115 273
320 4 2 0 1 241 115 116 244
321 4 2 0 1 103 230 182 327
322 4 2 0 1 193 298 112 224
323 4 2 0 1 136 290 344 224
324 4 2 0 1 325 239 375 271
325 4 2 0 1 272 20 253 238
326 4 2 0 1 2 92 4 227
327 4 2 0 1 152 227 150 242
328 4 2 0 1 242 227 332 152
329 4 2 0 1 237 254 79 156
330 4 2 0 1 327 230 182 112
331 4 2 0 1 351 231 170 352
332 4 2 0 1 68 140 231 8
333 4 2 0 1 351 168 170 231
334 4 2 0 1 137 371 175 83
335 4 2 0 1 137 125 265 270
336 4 2 0 1 120 137 125 265
337 4 2 0 1 129 134 43 36
338 4 2 0 1 134 129 43 119
339 4 2 0 1 305 129 43 36
340 4 2 0 1 355 191 306 213
341 4 2 0 1 310 31 220 255
342 4 2 0 1 220 116 284 255
343 4 2 0 1 100 236 127 299
344 4 2 0 1 271 160 256 294
345 4 2 0 1 179 185 354 75
346 4 2 0 1 194 139 335 256
347 4 2 0 1 5 350 158 111
348 4 2 0 1 350 187 111 5
349 4 2 0 1 48 56 312 299
350 4 2 0 1 199 302 156 254
351 4 2 0 1 222 265 22 372
352 4 2 0 1 253 20 19 238
353 4 2 0 1 238 362 272 182
354 4 2 0 1 238 362 182 184
355 4 2 0 1 291 83 79 237
356 4 2 0 1 237 204 291 84
357 4 2 0 1 281 113 269 122
358 4 2 0 1 281 228 122 269
359 4 2 0 1 317 169 323 269
360 4 2 0 1 137 270 358 175
361 4 2 0 1 305 328 377 270
362 4 2 0 1 137 175 358 83
363 4 2 0 1 265 377 270 305
364 4 2 0 1 241 115 244 5
365 4 2 0 1 95 90 210 225
366 4 2 0 1 145 90 95 225
367 4 2 0 1 255 284 53 116
368 4 2 0 1 185 33 223 27
369 4 2 0 1 248 139 109 293
370 4 2 0 1 248 293 356 139
371 4 2 0 1 127 104 249 214
372 4 2 0 1 250 158 3 111
373 4 2 0 1 251 4 157 128
374 4 2 0 1 141 51 44 293
375 4 2 0 1 51 293 121 44
376 4 2 0 1 121 109 293 51
377 4 2 0 1 248 293 109 51
378 4 2 0 1 248 51 141 293
379 4 2 0 1 303 156 307 288
380 4 2 0 1 162 307 26 30
381 4 2 0 1 288 159 156 307
382 4 2 0 1 113 199 79 122
383 4 2 0 1 195 386 163 261
384 4 2 0 1 195 163 386 379
385 4 2 0 1 195 163 379 100
386 4 2 0 1 23 70 232 281
387 4 2 0 1 352 231 170 178
388 4 2 0 1 211 93 152 331
389 4 2 0 1 3 93 91 331
390 4 2 0 1 3 143 91 93
391 4 2 0 1 346 351 257 166
392 4 2 0 1 6 68 128 257
393 4 2 0 1 166 346 157 257
394 4 2 0 1 157 6 128 257
395 4 2 0 1 247 129 263 286
396 4 2 0 1 129 286 317 130
397 4 2 0 1 247 129 286 317
398 4 2 0 1 227 92 4 94
399 4 2 0 1 92 144 4 94
400 4 2 0 1 225 90 210 61
401 4 2 0 1 227 94 332 152
402 4 2 0 1 225 210 333 61
403 4 2 0 1 273 166 115 347
404 4 2 0 1 166 170 353 273
405 4 2 0 1 273 166 347 353
406 4 2 0 1 5 273 7 241
407 4 2 0 1 241 273 115 5
408 4 2 0 1 351 168 257 166
409 4 2 0 1 354 185 288 75
410 4 2 0 1 141 260 295 258
411 4 2 0 1 258 260 234 385
412 4 2 0 1 8 14 259 221
413 4 2 0 1 295 141 186 260
414 4 2 0 1 337 300 135 348
415 4 2 0 1 217 204 303 156
416 4 2 0 1 303 26 217 288
417 4 2 0 1 83 175 291 79
418 4 2 0 1 110 287 212 266
419 4 2 0 1 52 50 24 292
420 4 2 0 1 184 182 214 361
421 4 2 0 1 183 214 47 319
422 4 2 0 1 267 184 214 361
423 4 2 0 1 267 214 183 319
424 4 2 0 1 6 8 266 14
425 4 2 0 1 266 110 287 221
426 4 2 0 1 266 221 14 8
427 4 2 0 1 148 132 296 95
428 4 2 0 1 95 132 296 210
429 4 2 0 1 95 210 296 333
430 4 2 0 1 309 297 165 174
431 4 2 0 1 26 34 30 307
432 4 2 0 1 294 335 256 375
433 4 2 0 1 26 307 162 288
434 4 2 0 1 286 262 219 322
435 4 2 0 1 140 69 327 10
436 4 2 0 1 348 106 107 135
437 4 2 0 1 325 294 271 375
438 4 2 0 1 295 260 366 258
439 4 2 0 1 104 238 138 249
440 4 2 0 1 249 238 20 272
441 4 2 0 1 253 349 20 272
442 4 2 0 1 8 231 178 140
443 4 2 0 1 8 140 178 278
444 4 2 0 1 8 231 352 178
445 4 2 0 1 280 233 361 198
446 4 2 0 1 362 326 298 193
447 4 2 0 1 177 98 7 277
448 4 2 0 1 193 290 298 224
449 4 2 0 1 69 298 327 362
450 4 2 0 1 232 368 279 122
451 4 2 0 1 321 300 289 348
452 4 2 0 1 369 300 78 321
453 4 2 0 1 301 260 314 160
454 4 2 0 1 301 260 258 385
455 4 2 0 1 301 271 160 314
456 4 2 0 1 199 25 302 243
457 4 2 0 1 26 34 307 303
458 4 2 0 1 26 303 307 288
459 4 2 0 1 217 204 26 303
460 4 2 0 1 282 287 142 118
461 4 2 0 1 287 282 110 101
462 4 2 0 1 100 376 299 127
463 4 2 0 1 292 194 24 256
464 4 2 0 1 205 24 194 335
465 4 2 0 1 271 294 256 375
466 4 2 0 1 194 335 24 256
467 4 2 0 1 124 192 370 76
468 4 2 0 1 120 137 71 370
469 4 2 0 1 299 100 155 181
470 4 2 0 1 370 384 71 76
471 4 2 0 1 48 236 299 312
472 4 2 0 1 100 236 299 155
473 4 2 0 1 131 197 284 316
474 4 2 0 1 142 13 14 287
475 4 2 0 1 64 334 62 66
476 4 2 0 1 87 154 330 153
477 4 2 0 1 330 153 154 151
478 4 2 0 1 333 61 65 63
479 4 2 0 1 151 153 154 329
480 4 2 0 1 365 213 306 218
481 4 2 0 1 193 224 280 382
482 4 2 0 1 111 203 3 1
483 4 2 0 1 3 331 1 203
484 4 2 0 1 91 211 1 331
485 4 2 0 1 52 109 292 121
486 4 2 0 1 52 50 292 109
487 4 2 0 1 179 191 206 215
488 4 2 0 1 28 32 191 179
489 4 2 0 1 186 141 44 293
490 4 2 0 1 388 320 39 34
491 4 2 0 1 40 297 309 174
492 4 2 0 1 42 263 46 286
493 4 2 0 1 221 14 13 287
494 4 2 0 1 266 287 14 221
495 4 2 0 1 333 210 65 61
496 4 2 0 1 62 334 196 66
497 4 2 0 1 296 132 202 210
498 4 2 0 1 296 132 196 202
499 4 2 0 1 180 101 131 282
500 4 2 0 1 308 336 388 41
501 4 2 0 1 100 313 127 236
502 4 2 0 1 379 313 127 100
503 4 2 0 1 193 326 298 290
504 4 2 0 1 290 275 193 326
505 4 2 0 1 58 209 77 123
506 4 2 0 1 345 318 85 195
507 4 2 0 1 261 386 163 82
508 4 2 0 1 222 372 22 324
509 4 2 0 1 265 125 120 305
510 4 2 0 1 265 270 125 305
511 4 2 0 1 315 188 15 164
512 4 2 0 1 88 159 288 354
513 4 2 0 1 129 36 305 130
514 4 2 0 1 306 297 35 174
515 4 2 0 1 320 37 307 336
516 4 2 0 1 158 152 203 102
517 4 2 0 1 158 203 3 111
518 4 2 0 1 308 37 320 336
519 4 2 0 1 316 310 53 54
520 4 2 0 1 130 322 317 169
521 4 2 0 1 286 322 317 130
522 4 2 0 1 280 311 106 224
523 4 2 0 1 106 224 311 135
524 4 2 0 1 160 260 139 301
525 4 2 0 1 139 294 160 301
526 4 2 0 1 99 107 384 135
527 4 2 0 1 126 380 149 114
528 4 2 0 1 219 390 262 373
529 4 2 0 1 323 172 23 269
530 4 2 0 1 323 219 373 390
531 4 2 0 1 222 369 324 78
532 4 2 0 1 197 31 115 116
533 4 2 0 1 197 31 116 220
534 4 2 0 1 220 31 116 255
535 4 2 0 1 157 4 242 128
536 4 2 0 1 181 345 85 100
537 4 2 0 1 2 227 4 242
538 4 2 0 1 43 134 45 36
539 4 2 0 1 301 260 385 314
540 4 2 0 1 134 43 45 119
541 4 2 0 1 12 69 362 326
542 4 2 0 1 275 290 193 344
543 4 2 0 1 224 344 193 290
544 4 2 0 1 359 230 361 182
545 4 2 0 1 230 233 189 361
546 4 2 0 1 172 169 322 130
547 4 2 0 1 158 331 3 203
548 4 2 0 1 344 348 229 16
549 4 2 0 1 344 289 348 16
550 4 2 0 1 136 344 275 16
551 4 2 0 1 198 188 15 315
552 4 2 0 1 281 232 113 122
553 4 2 0 1 62 334 64 60
554 4 2 0 1 198 315 15 226
555 4 2 0 1 63 61 59 333
556 4 2 0 1 379 313 89 127
557 4 2 0 1 386 163 82 379
558 4 2 0 1 127 104 89 249
559 4 2 0 1 305 285 328 36
560 4 2 0 1 305 36 328 270
561 4 2 0 1 11 361 319 9
562 4 2 0 1 374 107 99 321
563 4 2 0 1 153 117 87 329
564 4 2 0 1 210 117 87 153
565 4 2 0 1 197 101 284 116
566 4 2 0 1 110 101 197 115
567 4 2 0 1 131 197 101 284
568 4 2 0 1 180 131 101 284
569 4 2 0 1 195 386 318 379
570 4 2 0 1 183 267 319 11
571 4 2 0 1 361 214 319 9
572 4 2 0 1 42 247 263 286
573 4 2 0 1 42 247 286 317
574 4 2 0 1 294 139 256 335
575 4 2 0 1 322 219 323 390
576 4 2 0 1 42 317 286 219
577 4 2 0 1 211 93 331 91
578 4 2 0 1 157 4 332 242
579 4 2 0 1 242 227 4 332
580 4 2 0 1 227 94 4 332
581 4 2 0 1 329 63 59 333
582 4 2 0 1 95 210 333 225
583 4 2 0 1 64 334 330 60
584 4 2 0 1 83 175 358 252
585 4 2 0 1 168 350 166 170
586 4 2 0 1 168 350 170 208
587 4 2 0 1 170 350 166 353
588 4 2 0 1 353 350 166 347
589 4 2 0 1 170 350 353 208
590 4 2 0 1 68 351 6 8
591 4 2 0 1 68 231 351 8
592 4 2 0 1 184 193 112 280
593 4 2 0 1 184 362 112 193
594 4 2 0 1 337 224 382 106
595 4 2 0 1 382 224 280 106
596 4 2 0 1 166 350 158 347
597 4 2 0 1 6 68 257 351
598 4 2 0 1 240 209 338 378
599 4 2 0 1 329 333 59 341
600 4 2 0 1 54 343 340 57
601 4 2 0 1 356 260 258 139
602 4 2 0 1 351 346 6 8
603 4 2 0 1 6 8 346 266
604 4 2 0 1 139 260 258 301
605 4 2 0 1 260 293 160 139
606 4 2 0 1 5 347 7 273
607 4 2 0 1 347 350 5 7
608 4 2 0 1 178 327 182 360
609 4 2 0 1 140 327 178 10
610 4 2 0 1 349 12 10 272
611 4 2 0 1 339 305 43 285
612 4 2 0 1 230 359 177 182
613 4 2 0 1 182 184 230 361
614 4 2 0 1 182 112 230 184
615 4 2 0 1 302 354 159 88
616 4 2 0 1 6 351 257 346
617 4 2 0 1 346 6 157 257
618 4 2 0 1 55 49 195 261
619 4 2 0 1 273 347 115 5
620 4 2 0 1 389 318 345 195
621 4 2 0 1 347 350 158 5
622 4 2 0 1 76 149 124 192
623 4 2 0 1 321 348 289 18
624 4 2 0 1 316 343 340 54
625 4 2 0 1 12 272 253 238
626 4 2 0 1 253 12 349 272
627 4 2 0 1 238 12 272 362
628 4 2 0 1 198 189 361 274
629 4 2 0 1 313 104 138 89
630 4 2 0 1 351 352 346 8
631 4 2 0 1 346 8 352 266
632 4 2 0 1 352 221 266 8
633 4 2 0 1 351 231 352 8
634 4 2 0 1 353 208 7 177
635 4 2 0 1 347 353 7 273
636 4 2 0 1 313 104 89 127
637 4 2 0 1 353 350 347 7
638 4 2 0 1 353 350 7 208
639 4 2 0 1 359 98 177 9
640 4 2 0 1 359 230 98 9
641 4 2 0 1 230 98 177 359
642 4 2 0 1 302 35 174 306
643 4 2 0 1 337 289 348 344
644 4 2 0 1 136 289 344 16
645 4 2 0 1 337 348 106 229
646 4 2 0 1 136 290 275 344
647 4 2 0 1 198 189 188 311
648 4 2 0 1 280 233 198 311
649 4 2 0 1 198 233 189 311
650 4 2 0 1 246 105 123 142
651 4 2 0 1 123 180 246 142
652 4 2 0 1 246 180 282 142
653 4 2 0 1 213 218 365 304
654 4 2 0 1 365 355 306 213
655 4 2 0 1 321 369 222 78
656 4 2 0 1 141 260 258 356
657 4 2 0 1 356 293 260 139
658 4 2 0 1 76 71 222 369
659 4 2 0 1 99 321 369 76
660 4 2 0 1 99 300 369 321
661 4 2 0 1 321 76 222 369
662 4 2 0 1 87 329 154 153
663 4 2 0 1 153 333 117 329
664 4 2 0 1 173 226 315 311
665 4 2 0 1 137 265 358 270
666 4 2 0 1 208 187 7 98
667 4 2 0 1 320 336 307 34
668 4 2 0 1 388 336 320 34
669 4 2 0 1 157 257 128 242
670 4 2 0 1 11 361 267 319
671 4 2 0 1 267 361 214 319
672 4 2 0 1 9 230 189 361
673 4 2 0 1 69 362 10 12
674 4 2 0 1 272 12 10 362
675 4 2 0 1 316 220 284 53
676 4 2 0 1 361 359 214 9
677 4 2 0 1 9 230 361 359
678 4 2 0 1 327 362 360 10
679 4 2 0 1 272 362 10 360
680 4 2 0 1 178 327 360 10
681 4 2 0 1 342 338 209 378
682 4 2 0 1 363 131 180 171
683 4 2 0 1 363 180 131 282
684 4 2 0 1 184 112 233 280
685 4 2 0 1 358 270 67 175
686 4 2 0 1 265 270 67 358
687 4 2 0 1 240 180 378 171
688 4 2 0 1 69 327 10 362
689 4 2 0 1 362 112 327 182
690 4 2 0 1 298 112 327 362
691 4 2 0 1 306 35 38 29
692 4 2 0 1 366 295 364 260
693 4 2 0 1 186 141 293 260
694 4 2 0 1 248 293 141 356
695 4 2 0 1 356 293 141 260
696 4 2 0 1 296 196 334 153
697 4 2 0 1 153 196 334 87
698 4 2 0 1 355 365 29 304
699 4 2 0 1 29 365 306 302
700 4 2 0 1 365 302 29 304
701 4 2 0 1 29 355 306 365
702 4 2 0 1 84 83 291 237
703 4 2 0 1 83 291 252 84
704 4 2 0 1 252 291 283 84
705 4 2 0 1 296 210 153 333
706 4 2 0 1 210 333 117 153
707 4 2 0 1 99 374 321 76
708 4 2 0 1 190 107 384 367
709 4 2 0 1 367 107 384 374
710 4 2 0 1 99 135 300 321
711 4 2 0 1 124 114 70 192
712 4 2 0 1 172 21 23 264
713 4 2 0 1 21 124 70 264
714 4 2 0 1 264 21 23 70
715 4 2 0 1 330 153 334 87
716 4 2 0 1 330 334 66 87
717 4 2 0 1 334 196 66 87
718 4 2 0 1 15 17 366 234
719 4 2 0 1 295 15 17 366
720 4 2 0 1 295 366 234 258
721 4 2 0 1 171 161 167 316
722 4 2 0 1 316 245 167 343
723 4 2 0 1 316 343 167 340
724 4 2 0 1 249 182 214 238
725 4 2 0 1 214 238 182 184
726 4 2 0 1 249 238 214 104
727 4 2 0 1 249 238 272 182
728 4 2 0 1 234 17 380 164
729 4 2 0 1 234 17 164 15
730 4 2 0 1 172 264 23 269
731 4 2 0 1 281 264 228 269
732 4 2 0 1 23 70 281 264
733 4 2 0 1 15 295 364 366
734 4 2 0 1 297 38 35 40
735 4 2 0 1 35 297 40 174
736 4 2 0 1 264 124 70 228
737 4 2 0 1 264 70 281 228
738 4 2 0 1 107 126 367 190
739 4 2 0 1 126 149 367 190
740 4 2 0 1 368 108 199 243
741 4 2 0 1 279 108 199 368
742 4 2 0 1 232 108 279 368
743 4 2 0 1 70 228 124 192
744 4 2 0 1 289 300 337 348
745 4 2 0 1 213 306 354 206
746 4 2 0 1 381 279 113 232
747 4 2 0 1 23 387 269 281
748 4 2 0 1 381 232 113 281
749 4 2 0 1 23 264 281 269
750 4 2 0 1 126 164 114 190
751 4 2 0 1 114 190 192 149
752 4 2 0 1 126 114 149 190
753 4 2 0 1 106 234 385 107
754 4 2 0 1 106 385 314 107
755 4 2 0 1 301 385 107 314
756 4 2 0 1 289 18 348 16
757 4 2 0 1 83 371 79 237
758 4 2 0 1 175 371 125 79
759 4 2 0 1 106 260 314 385
760 4 2 0 1 25 357 302 243
761 4 2 0 1 362 69 298 326
762 4 2 0 1 326 69 298 290
763 4 2 0 1 290 275 326 69
764 4 2 0 1 325 239 205 375
765 4 2 0 1 294 335 375 205
766 4 2 0 1 325 294 375 205
767 4 2 0 1 375 24 205 335
768 4 2 0 1 239 24 205 375
769 4 2 0 1 291 237 79 204
770 4 2 0 1 84 237 204 217
771 4 2 0 1 171 131 284 316
772 4 2 0 1 171 131 180 284
773 4 2 0 1 378 180 161 171
774 4 2 0 1 106 311 198 226
775 4 2 0 1 371 125 137 175
776 4 2 0 1 254 368 199 243
777 4 2 0 1 235 294 301 271
778 4 2 0 1 222 71 372 369
779 4 2 0 1 222 137 372 71
780 4 2 0 1 321 300 78 289
781 4 2 0 1 321 289 78 18
782 4 2 0 1 373 21 23 172
783 4 2 0 1 219 323 373 23
784 4 2 0 1 323 373 23 172
785 4 2 0 1 240 180 363 246
786 4 2 0 1 302 159 156 88
787 4 2 0 1 16 348 229 271
788 4 2 0 1 16 271 239 18
789 4 2 0 1 16 348 271 18
790 4 2 0 1 348 235 271 18
791 4 2 0 1 18 239 325 271
792 4 2 0 1 18 271 294 235
793 4 2 0 1 18 294 271 325
794 4 2 0 1 378 161 167 171
795 4 2 0 1 384 374 99 76
796 4 2 0 1 149 384 192 76
797 4 2 0 1 149 367 384 76
798 4 2 0 1 367 374 384 76
799 4 2 0 1 237 371 79 254
800 4 2 0 1 106 107 271 348
801 4 2 0 1 107 314 106 271
802 4 2 0 1 301 271 314 107
803 4 2 0 1 348 107 271 235
804 4 2 0 1 235 271 301 107
805 4 2 0 1 229 348 106 271
806 4 2 0 1 295 366 17 234
807 4 2 0 1 375 335 256 24
808 4 2 0 1 181 85 376 100
809 4 2 0 1 100 379 376 127
810 4 2 0 1 12 69 326 275
811 4 2 0 1 348 107 321 135
812 4 2 0 1 321 107 99 135
813 4 2 0 1 235 107 321 348
814 4 2 0 1 42 286 46 262
815 4 2 0 1 306 354 159 302
816 4 2 0 1 354 306 159 206
817 4 2 0 1 209 240 77 123
818 4 2 0 1 240 105 77 123
819 4 2 0 1 76 120 222 71
820 4 2 0 1 76 124 120 370
821 4 2 0 1 76 120 71 370
822 4 2 0 1 30 320 307 34
823 4 2 0 1 100 85 376 379
824 4 2 0 1 383 328 339 285
825 4 2 0 1 377 339 383 328
826 4 2 0 1 22 67 265 377
827 4 2 0 1 377 328 67 270
828 4 2 0 1 265 67 270 377
829 4 2 0 1 377 339 22 67
830 4 2 0 1 135 106 107 173
831 4 2 0 1 185 223 30 162
832 4 2 0 1 162 307 30 185
833 4 2 0 1 288 307 162 185
834 4 2 0 1 354 159 288 185
835 4 2 0 1 354 159 185 206
836 4 2 0 1 288 159 307 185
837 4 2 0 1 379 163 313 100
838 4 2 0 1 163 379 313 89
839 4 2 0 1 209 240 180 378
840 4 2 0 1 198 188 274 15
841 4 2 0 1 18 321 276 78
842 4 2 0 1 276 222 22 324
843 4 2 0 1 23 381 387 281
844 4 2 0 1 23 232 381 281
845 4 2 0 1 344 224 382 337
846 4 2 0 1 67 377 339 383
847 4 2 0 1 377 383 67 328
848 4 2 0 1 84 204 283 26
849 4 2 0 1 252 175 67 283
850 4 2 0 1 358 175 67 252
851 4 2 0 1 269 113 125 122
852 4 2 0 1 371 228 125 122
853 4 2 0 1 269 228 122 125
854 4 2 0 1 371 122 125 79
855 4 2 0 1 113 79 125 122
856 4 2 0 1 379 195 100 85
857 4 2 0 1 245 316 53 343
858 4 2 0 1 343 54 53 57
859 4 2 0 1 343 316 53 54
860 4 2 0 1 370 192 384 76
861 4 2 0 1 384 107 99 374
862 4 2 0 1 224 135 106 337
863 4 2 0 1 382 337 229 344
864 4 2 0 1 224 136 337 344
865 4 2 0 1 382 337 106 229
866 4 2 0 1 329 333 341 153
867 4 2 0 1 120 137 222 71
868 4 2 0 1 120 265 222 137
869 4 2 0 1 28 213 355 304
870 4 2 0 1 345 195 85 100
871 4 2 0 1 334 151 330 60
872 4 2 0 1 379 195 85 318
873 4 2 0 1 338 378 167 171
874 4 2 0 1 342 378 167 338
875 4 2 0 1 195 49 386 261
876 4 2 0 1 261 49 386 82
877 4 2 0 1 306 218 354 302
878 4 2 0 1 365 218 306 302
879 4 2 0 1 264 228 269 120
880 4 2 0 1 391 169 269 172
881 4 2 0 1 264 269 172 391
882 4 2 0 1 161 316 284 245
883 4 2 0 1 161 171 284 316
884 4 2 0 1 171 180 161 284
885 4 2 0 1 336 37 307 159
886 4 2 0 1 336 37 159 174
887 4 2 0 1 387 113 269 281
888 4 2 0 1 387 381 113 281
889 4 2 0 1 323 169 172 269
890 4 2 0 1 234 380 126 164
891 4 2 0 1 380 114 124 149
892 4 2 0 1 306 37 297 174
893 4 2 0 1 174 37 159 306
894 4 2 0 1 240 378 338 171
895 4 2 0 1 316 161 167 245
896 4 2 0 1 79 199 156 254
897 4 2 0 1 243 302 199 254
898 4 2 0 1 55 49 389 195
899 4 2 0 1 391 169 172 130
900 4 2 0 1 389 49 318 195
901 4 2 0 1 195 49 318 386
902 4 2 0 1 77 209 58 338
903 4 2 0 1 338 209 58 342
904 4 2 0 1 222 369 372 324
905 4 2 0 1 222 265 372 137
906 4 2 0 1 265 137 358 372
907 4 2 0 1 370 120 137 371
908 4 2 0 1 120 371 125 137
909 4 2 0 1 390 172 323 169
910 4 2 0 1 34 336 307 303
911 4 2 0 1 302 357 304 218
912 4 2 0 1 302 357 218 243
913 4 2 0 1 240 363 180 171
914 4 2 0 1 88 237 217 156
915 4 2 0 1 88 217 288 156
916 4 2 0 1 303 288 217 156
917 4 2 0 1 237 204 217 156
918 4 2 0 1 130 169 125 391
919 4 2 0 1 125 169 269 391
920 4 2 0 1 172 169 390 322
921 4 2 0 1 322 323 317 169
922 4 2 0 1 323 390 373 172
923 4 2 0 1 322 390 323 169
924 4 2 0 1 137 125 270 175
925 4 2 0 1 83 371 175 79
926 4 2 0 1 77 240 209 338
927 4 2 0 1 71 384 99 76
928 4 2 0 1 71 99 369 76
929 4 2 0 1 174 306 159 302
930 4 2 0 1 25 35 302 29
931 4 2 0 1 226 15 234 173
932 4 2 0 1 173 15 164 315
933 4 2 0 1 173 15 315 226
934 4 2 0 1 336 159 156 174
935 4 2 0 1 164 173 234 15
936 4 2 0 1 365 218 302 304
937 4 2 0 1 308 320 39 388
938 4 2 0 1 308 336 320 388
939 4 2 0 1 25 357 304 302
940 4 2 0 1 302 25 29 304
941 4 2 0 1 366 15 234 226
942 4 2 0 1 302 243 218 354
943 4 2 0 1 106 226 234 173
944 4 2 0 1 260 226 234 106
945 4 2 0 1 106 234 260 385
946 4 2 0 1 107 106 234 173
$EndElements
