v 0.056073479652404785 1.5180087280273438 -0.06834495067596436
v -0.012355898618698121 1.5221836853027344 -0.08545880317687989
v 0.1496462345123291 1.4742771911621093 -0.07051347255706787
v -0.07333310127258301 1.5012149047851562 -0.046747140884399414
v -0.14681241989135743 1.4752362060546875 -0.06397151947021484
v -0.07174581050872803 1.4738735961914062 -0.013080304861068726
v -0.009056615233421326 1.4648243713378906 0.015562491416931152
v 0.05986895084381104 1.4724057006835938 -0.004101036190986633
v 0.16334993362426758 0.9560225677490235 -0.0948460578918457
v -0.021181488037109376 1.008691635131836 -0.1951460838317871
v 0.17769184112548828 0.8824504089355469 -0.0510365629196167
v 0.08806687355041504 0.8828856658935547 -0.17530298233032227
v -0.17799837112426758 0.8826221466064453 -0.036354405879974364
v -0.030335545539855957 0.8839137268066406 -0.1989361000061035
v -0.12209964752197267 0.8801683044433594 -0.13053311347961427
v -0.05733523845672608 1.0977021026611329 -0.17071502685546874
v -0.004942227303981781 0.8867132568359375 0.07311936855316162
v 0.14625112533569337 0.8876971435546875 0.04632192611694336
v 0.021356847286224365 1.0364070892333985 0.07275460243225097
v -0.1568984031677246 0.9855233001708985 -0.03667404890060425
v -0.1637968063354492 1.2951394653320312 -6.4330518944188955e-06
v 0.17005197525024415 1.3072360229492188 0.007221291661262512
v -0.17556854248046874 1.347342987060547 0.013598246574401856
v -0.15865693092346192 1.164205322265625 -0.05786338806152344
v -0.09107149124145508 1.284777069091797 0.06745758056640626
v -0.1952665138244629 1.4172003173828125 -0.0031528720259666443
v 0.20908056259155275 1.4416207885742187 -0.02596975564956665
v -0.20560121536254883 1.4525205993652344 -0.04892426013946533
v 0.050969080924987795 1.3800601196289062 0.041717662811279296
v 0.17746667861938478 1.3949867248535157 0.005212187767028809
v -0.16991376876831055 1.259080276489258 -0.05293895721435547
v 0.15306902885437013 1.130229721069336 -0.04692456722259521
v 0.08752302169799805 1.2757788848876954 0.06892498016357422
v -0.11694013595581054 1.1371812438964843 0.0180612051486969
v 0.1649612045288086 1.2827626037597657 -0.011185322999954225
v 0.14486542701721192 1.2070307159423828 0.006335327029228211
v 0.10456949234008789 1.10944580078125 0.06728110313415528
v 0.1540683650970459 0.9705719757080078 -0.007411612868309021
v 0.13248562812805176 1.023180923461914 0.046359829902648926
v 0.16600360870361328 1.2696662902832032 -0.07337093353271484
v -0.15317049980163575 0.8872142791748047 0.03776399850845337
v -0.10786490440368653 1.0589432525634765 0.06594398498535156
v 0.12192319869995118 1.1207965087890626 0.005382892489433288
v -0.12292792320251465 1.0827115631103517 0.04302323341369629
v -0.23220830917358398 1.2169879150390626 -0.06494648456573486
v -0.32949737548828123 1.2622308349609375 -0.030831542015075684
v -0.30569154739379883 1.2447351837158203 -0.10242578506469727
v -0.2573630523681641 1.2224003601074218 0.014814683198928834
v -0.16395553588867187 1.3116542053222657 -0.10371472358703614
v -0.2560888290405273 1.3740879821777343 -0.03256139516830445
v -0.2428883934020996 1.3597879028320312 -0.0977585792541504
v -0.2606739616394043 1.3752835083007813 -0.06583023071289062
v -0.1918285369873047 1.362479248046875 -0.11096989631652832
v -0.18198486328125 1.4194862365722656 -0.1219225788116455
v 0.23208810806274416 1.2191964721679687 -0.058499503135681155
v 0.2443004035949707 1.3959353637695313 -0.07380460739135743
v 0.32019935607910155 1.259576416015625 -0.020824215412139892
v 0.26484561920166017 1.2249247741699218 0.015024102926254272
v 0.31387327194213865 1.2521794891357423 -0.09577507972717285
v 0.18876607894897462 1.432854461669922 -0.10099446296691894
v 0.2284688377380371 1.2917788696289063 -0.1104209041595459
v 0.28352296829223633 1.326129150390625 -0.04587862491607666
v 0.2574781799316406 1.2189557647705078 -0.0953413486480713
v 0.2007486915588379 1.385670166015625 -0.1147358226776123
v 0.15139988899230958 0.9952227783203125 -0.08254865646362305
v -0.10139811515808106 1.452650146484375 -0.1392947769165039
v -0.09157002449035645 1.3618333435058594 -0.17300695419311524
v -0.15189866065979005 1.0364710235595704 -0.11749138832092286
v 0.09276149749755859 1.46782470703125 -0.12586212158203125
v 0.12445002555847168 1.1420496368408204 -0.09921637535095215
v 0.09345287322998047 1.3980149841308593 -0.1657383155822754
v 0.048508214950561526 0.8821926879882813 -0.18071016311645507
v -0.10422325134277344 1.0803807830810548 -0.1623816680908203
v -0.14067049980163573 1.0599832916259766 -0.08525760650634766
v -0.014584752321243287 1.1489830017089844 -0.1852119255065918
v -0.15352189064025878 1.238116226196289 -0.11497971534729004
v -0.11845439910888672 1.2298473358154298 -0.1309067440032959
v 0.09642749786376953 1.3308297729492187 -0.17568632125854491
v 0.16065675735473633 1.2822120666503907 -0.12546279907226562
v -0.15293697357177735 1.3378961181640625 -0.14580585479736327
v 0.14148510932922365 1.069715576171875 -0.139002742767334
v 0.018669090270996093 1.2360277557373047 -0.16836973190307616
v 0.1170715618133545 1.198064956665039 -0.16612638473510744
v 0.08480839729309082 1.1608455657958985 -0.18026700973510743
v -0.10251808166503906 1.2694931030273438 -0.1773342514038086
f 8 1 3
f 72 10 14
f 16 15 14
f 41 42 17
f 29 33 25
f 37 18 19
f 32 35 40
f 8 29 7
f 4 26 5
f 6 25 23
f 18 39 38
f 20 24 34
f 41 13 44
f 43 36 32
f 13 20 44
f 34 25 44
f 47 45 49
f 21 31 45
f 53 54 51
f 51 54 52
f 47 52 50
f 58 30 27
f 57 62 59
f 38 65 9
f 68 13 15
f 68 74 20
f 12 84 72
f 64 79 40
f 28 54 66
f 14 10 16
f 82 72 84
f 71 56 60
f 53 80 54
f 66 69 2
f 71 78 79
f 31 24 49
f 80 49 76
f 80 77 67
f 75 72 82
f 78 71 82
f 16 85 73
f 78 84 83
f 75 82 67
f 16 75 67
f 85 67 77
f 73 85 68
f 12 81 84
f 4 5 2
f 38 9 11
f 24 21 34
f 18 38 11
f 27 30 3
f 65 38 32
f 30 8 3
f 5 26 28
f 4 6 26
f 6 23 26
f 22 33 30
f 30 29 8
f 24 31 21
f 35 32 36
f 33 29 30
f 7 25 6
f 7 29 25
f 37 39 18
f 43 32 38
f 38 39 43
f 19 18 17
f 35 33 22
f 41 44 42
f 21 25 34
f 42 19 17
f 25 42 44
f 36 33 35
f 43 37 33
f 36 43 33
f 37 43 39
f 33 37 19
f 21 23 25
f 25 33 19
f 25 19 42
f 34 44 20
f 28 26 50
f 21 48 23
f 23 48 26
f 54 28 52
f 50 26 46
f 50 52 28
f 21 45 48
f 45 31 49
f 52 47 51
f 50 46 47
f 46 26 48
f 53 51 49
f 49 51 47
f 56 27 60
f 61 59 56
f 56 64 61
f 63 40 55
f 55 40 35
f 22 55 35
f 58 22 30
f 62 27 56
f 40 61 64
f 27 57 58
f 63 61 40
f 61 63 59
f 27 62 57
f 56 59 62
f 55 22 58
f 69 1 2
f 73 15 16
f 66 2 5
f 75 10 72
f 68 20 13
f 12 11 9
f 60 3 69
f 65 32 70
f 64 56 71
f 74 24 20
f 28 66 5
f 3 1 69
f 60 69 71
f 79 70 32
f 27 3 60
f 80 53 49
f 9 65 81
f 79 32 40
f 77 76 24
f 71 69 66
f 79 64 71
f 81 12 9
f 70 79 78
f 74 77 24
f 73 68 15
f 76 49 24
f 85 74 68
f 80 67 54
f 71 66 67
f 70 78 83
f 83 81 70
f 70 81 65
f 82 71 67
f 75 16 10
f 84 78 82
f 80 76 77
f 85 77 74
f 67 85 16
f 54 67 66
f 84 81 83
