v 5.000000000000e-01 0.000000000000e+00 5.000000000000e-01
v 2.500000000000e-01 0.000000000000e+00 5.000000000000e-01
v 0.000000000000e+00 0.000000000000e+00 5.000000000000e-01
v 5.000000000000e-01 0.000000000000e+00 -5.000000000000e-01
v -2.500000000000e-01 0.000000000000e+00 5.000000000000e-01
v 5.000000000000e-01 0.000000000000e+00 2.500000000000e-01
v 2.500000000000e-01 0.000000000000e+00 -2.500000000000e-01
v 5.000000000000e-01 0.000000000000e+00 -2.500000000000e-01
v 2.500000000000e-01 0.000000000000e+00 2.500000000000e-01
v 0.000000000000e+00 0.000000000000e+00 2.500000000000e-01
v 2.500000000000e-01 0.000000000000e+00 0.000000000000e+00
v 5.000000000000e-01 0.000000000000e+00 0.000000000000e+00
v 0.000000000000e+00 0.000000000000e+00 0.000000000000e+00
v -5.000000000000e-01 0.000000000000e+00 5.000000000000e-01
v -2.500000000000e-01 0.000000000000e+00 2.500000000000e-01
v -5.000000000000e-01 0.000000000000e+00 2.500000000000e-01
v -5.000000000000e-01 0.000000000000e+00 -5.000000000000e-01
v -2.500000000000e-01 0.000000000000e+00 0.000000000000e+00
v -5.000000000000e-01 0.000000000000e+00 0.000000000000e+00
v 0.000000000000e+00 0.000000000000e+00 -2.500000000000e-01
v -2.500000000000e-01 0.000000000000e+00 -2.500000000000e-01
v -5.000000000000e-01 0.000000000000e+00 -2.500000000000e-01
v 2.500000000000e-01 0.000000000000e+00 -5.000000000000e-01
v 0.000000000000e+00 0.000000000000e+00 -5.000000000000e-01
v -2.500000000000e-01 0.000000000000e+00 -5.000000000000e-01
f 17 22 25
f 25 22 21
f 25 21 24
f 24 21 20
f 24 20 23
f 23 20 7
f 23 7 4
f 4 7 8
f 22 19 21
f 21 19 18
f 21 18 20
f 20 18 13
f 20 13 7
f 7 13 11
f 7 11 8
f 8 11 12
f 19 16 18
f 18 16 15
f 18 15 13
f 13 15 10
f 13 10 11
f 11 10 9
f 11 9 12
f 12 9 6
f 16 14 15
f 15 14 5
f 15 5 10
f 10 5 3
f 10 3 9
f 9 3 2
f 9 2 6
f 6 2 1
