v 5.000000000000e-02 0.000000000000e+00 5.000000000000e-01
v 2.000000000000e-01 0.000000000000e+00 4.500000000000e-01
v 1.500000000000e-01 0.000000000000e+00 4.500000000000e-01
v 1.000000000000e-01 0.000000000000e+00 4.500000000000e-01
v 5.000000000000e-02 0.000000000000e+00 4.500000000000e-01
v 2.500000000000e-01 0.000000000000e+00 4.000000000000e-01
v 2.000000000000e-01 0.000000000000e+00 4.000000000000e-01
v 1.500000000000e-01 0.000000000000e+00 4.000000000000e-01
v 1.000000000000e-01 0.000000000000e+00 5.000000000000e-01
v 1.500000000000e-01 0.000000000000e+00 5.000000000000e-01
v 2.000000000000e-01 0.000000000000e+00 5.000000000000e-01
v 1.000000000000e-01 0.000000000000e+00 4.000000000000e-01
v 5.000000000000e-02 0.000000000000e+00 4.000000000000e-01
v 2.500000000000e-01 0.000000000000e+00 3.500000000000e-01
v 5.000000000000e-01 0.000000000000e+00 5.000000000000e-01
v 4.000000000000e-01 0.000000000000e+00 4.000000000000e-01
v 4.500000000000e-01 0.000000000000e+00 4.000000000000e-01
v 5.000000000000e-01 0.000000000000e+00 4.000000000000e-01
v 5.000000000000e-01 0.000000000000e+00 3.500000000000e-01
v 4.500000000000e-01 0.000000000000e+00 3.500000000000e-01
v 5.000000000000e-01 0.000000000000e+00 3.000000000000e-01
v 3.500000000000e-01 0.000000000000e+00 4.500000000000e-01
v 4.000000000000e-01 0.000000000000e+00 4.500000000000e-01
v 4.500000000000e-01 0.000000000000e+00 4.500000000000e-01
v 5.000000000000e-01 0.000000000000e+00 4.500000000000e-01
v 4.500000000000e-01 0.000000000000e+00 5.000000000000e-01
v 4.000000000000e-01 0.000000000000e+00 5.000000000000e-01
v 3.500000000000e-01 0.000000000000e+00 5.000000000000e-01
v 3.500000000000e-01 0.000000000000e+00 3.500000000000e-01
v 3.000000000000e-01 0.000000000000e+00 5.000000000000e-01
v 3.000000000000e-01 0.000000000000e+00 3.000000000000e-01
v 3.500000000000e-01 0.000000000000e+00 3.000000000000e-01
v 4.000000000000e-01 0.000000000000e+00 3.000000000000e-01
v 4.500000000000e-01 0.000000000000e+00 3.000000000000e-01
v 4.000000000000e-01 0.000000000000e+00 3.500000000000e-01
v 2.500000000000e-01 0.000000000000e+00 5.000000000000e-01
v 3.000000000000e-01 0.000000000000e+00 3.500000000000e-01
v 3.000000000000e-01 0.000000000000e+00 4.500000000000e-01
v 2.500000000000e-01 0.000000000000e+00 4.500000000000e-01
v 3.500000000000e-01 0.000000000000e+00 4.000000000000e-01
v 5.000000000000e-01 0.000000000000e+00 2.500000000000e-01
v 4.500000000000e-01 0.000000000000e+00 2.500000000000e-01
v 3.000000000000e-01 0.000000000000e+00 4.000000000000e-01
v 2.500000000000e-01 0.000000000000e+00 1.500000000000e-01
v 2.000000000000e-01 0.000000000000e+00 1.500000000000e-01
v 1.000000000000e-01 0.000000000000e+00 3.500000000000e-01
v 1.500000000000e-01 0.000000000000e+00 3.500000000000e-01
v 2.000000000000e-01 0.000000000000e+00 3.500000000000e-01
v 2.500000000000e-01 0.000000000000e+00 2.000000000000e-01
v 2.000000000000e-01 0.000000000000e+00 2.000000000000e-01
v 1.500000000000e-01 0.000000000000e+00 2.500000000000e-01
v 2.000000000000e-01 0.000000000000e+00 2.500000000000e-01
v 2.500000000000e-01 0.000000000000e+00 2.500000000000e-01
v 1.500000000000e-01 0.000000000000e+00 2.000000000000e-01
v 2.500000000000e-01 0.000000000000e+00 3.000000000000e-01
v 2.000000000000e-01 0.000000000000e+00 3.000000000000e-01
v 1.500000000000e-01 0.000000000000e+00 3.000000000000e-01
v 1.000000000000e-01 0.000000000000e+00 3.000000000000e-01
v 2.500000000000e-01 0.000000000000e+00 -5.000000000000e-02
v 3.000000000000e-01 0.000000000000e+00 -5.000000000000e-02
v 1.500000000000e-01 0.000000000000e+00 0.000000000000e+00
v 1.500000000000e-01 0.000000000000e+00 1.500000000000e-01
v 2.000000000000e-01 0.000000000000e+00 -5.000000000000e-02
v 3.000000000000e-01 0.000000000000e+00 0.000000000000e+00
v 2.000000000000e-01 0.000000000000e+00 5.000000000000e-02
v 1.500000000000e-01 0.000000000000e+00 5.000000000000e-02
v 2.000000000000e-01 0.000000000000e+00 0.000000000000e+00
v 1.500000000000e-01 0.000000000000e+00 1.000000000000e-01
v 2.000000000000e-01 0.000000000000e+00 1.000000000000e-01
v 2.500000000000e-01 0.000000000000e+00 1.000000000000e-01
v 2.500000000000e-01 0.000000000000e+00 5.000000000000e-02
v 3.000000000000e-01 0.000000000000e+00 5.000000000000e-02
v 2.500000000000e-01 0.000000000000e+00 0.000000000000e+00
v 4.000000000000e-01 0.000000000000e+00 2.500000000000e-01
v 3.500000000000e-01 0.000000000000e+00 2.500000000000e-01
v 3.000000000000e-01 0.000000000000e+00 2.500000000000e-01
v 5.000000000000e-01 0.000000000000e+00 1.500000000000e-01
v 3.000000000000e-01 0.000000000000e+00 1.500000000000e-01
v 4.500000000000e-01 0.000000000000e+00 1.500000000000e-01
v 4.000000000000e-01 0.000000000000e+00 1.500000000000e-01
v 3.500000000000e-01 0.000000000000e+00 1.500000000000e-01
v 3.000000000000e-01 0.000000000000e+00 2.000000000000e-01
v 3.500000000000e-01 0.000000000000e+00 2.000000000000e-01
v 4.000000000000e-01 0.000000000000e+00 2.000000000000e-01
v 4.500000000000e-01 0.000000000000e+00 2.000000000000e-01
v 4.500000000000e-01 0.000000000000e+00 1.000000000000e-01
v 5.000000000000e-01 0.000000000000e+00 1.000000000000e-01
v 5.000000000000e-01 0.000000000000e+00 2.000000000000e-01
v 4.000000000000e-01 0.000000000000e+00 -5.000000000000e-02
v 4.000000000000e-01 0.000000000000e+00 5.000000000000e-02
v 4.500000000000e-01 0.000000000000e+00 5.000000000000e-02
v 5.000000000000e-01 0.000000000000e+00 5.000000000000e-02
v 4.000000000000e-01 0.000000000000e+00 0.000000000000e+00
v 3.500000000000e-01 0.000000000000e+00 0.000000000000e+00
v 3.500000000000e-01 0.000000000000e+00 5.000000000000e-02
v 3.500000000000e-01 0.000000000000e+00 -5.000000000000e-02
v 5.000000000000e-01 0.000000000000e+00 -5.000000000000e-02
v 4.500000000000e-01 0.000000000000e+00 0.000000000000e+00
v 3.000000000000e-01 0.000000000000e+00 1.000000000000e-01
v 3.500000000000e-01 0.000000000000e+00 1.000000000000e-01
v 5.000000000000e-01 0.000000000000e+00 0.000000000000e+00
v 4.000000000000e-01 0.000000000000e+00 1.000000000000e-01
v 4.500000000000e-01 0.000000000000e+00 -5.000000000000e-02
v -4.000000000000e-01 0.000000000000e+00 3.000000000000e-01
v -5.000000000000e-01 0.000000000000e+00 3.500000000000e-01
v -4.500000000000e-01 0.000000000000e+00 3.500000000000e-01
v -4.500000000000e-01 0.000000000000e+00 2.000000000000e-01
v -4.000000000000e-01 0.000000000000e+00 2.000000000000e-01
v -3.500000000000e-01 0.000000000000e+00 2.000000000000e-01
v -5.000000000000e-01 0.000000000000e+00 2.500000000000e-01
v -3.500000000000e-01 0.000000000000e+00 1.500000000000e-01
v -4.500000000000e-01 0.000000000000e+00 3.000000000000e-01
v -5.000000000000e-01 0.000000000000e+00 3.000000000000e-01
v -4.000000000000e-01 0.000000000000e+00 1.500000000000e-01
v -5.000000000000e-01 0.000000000000e+00 4.000000000000e-01
v -3.500000000000e-01 0.000000000000e+00 2.500000000000e-01
v -4.000000000000e-01 0.000000000000e+00 2.500000000000e-01
v -4.500000000000e-01 0.000000000000e+00 2.500000000000e-01
v -2.000000000000e-01 0.000000000000e+00 1.500000000000e-01
v -3.000000000000e-01 0.000000000000e+00 1.500000000000e-01
v -2.500000000000e-01 0.000000000000e+00 1.500000000000e-01
v -2.000000000000e-01 0.000000000000e+00 1.000000000000e-01
v -2.500000000000e-01 0.000000000000e+00 1.000000000000e-01
v -1.500000000000e-01 0.000000000000e+00 1.500000000000e-01
v -1.500000000000e-01 0.000000000000e+00 2.500000000000e-01
v -2.500000000000e-01 0.000000000000e+00 2.500000000000e-01
v -3.000000000000e-01 0.000000000000e+00 2.500000000000e-01
v -2.000000000000e-01 0.000000000000e+00 2.500000000000e-01
v -1.500000000000e-01 0.000000000000e+00 2.000000000000e-01
v -2.000000000000e-01 0.000000000000e+00 2.000000000000e-01
v -2.500000000000e-01 0.000000000000e+00 2.000000000000e-01
v -3.000000000000e-01 0.000000000000e+00 2.000000000000e-01
v -2.500000000000e-01 0.000000000000e+00 3.500000000000e-01
v -1.500000000000e-01 0.000000000000e+00 3.000000000000e-01
v -2.500000000000e-01 0.000000000000e+00 3.000000000000e-01
v -3.000000000000e-01 0.000000000000e+00 4.500000000000e-01
v -2.500000000000e-01 0.000000000000e+00 4.500000000000e-01
v -2.000000000000e-01 0.000000000000e+00 4.000000000000e-01
v -2.500000000000e-01 0.000000000000e+00 4.000000000000e-01
v -3.000000000000e-01 0.000000000000e+00 4.000000000000e-01
v -2.000000000000e-01 0.000000000000e+00 3.000000000000e-01
v -2.000000000000e-01 0.000000000000e+00 4.500000000000e-01
v -2.500000000000e-01 0.000000000000e+00 5.000000000000e-01
v -1.500000000000e-01 0.000000000000e+00 3.500000000000e-01
v -2.000000000000e-01 0.000000000000e+00 3.500000000000e-01
v -3.000000000000e-01 0.000000000000e+00 5.000000000000e-01
v -3.500000000000e-01 0.000000000000e+00 5.000000000000e-01
v -5.000000000000e-01 0.000000000000e+00 5.000000000000e-01
v -3.500000000000e-01 0.000000000000e+00 4.000000000000e-01
v -4.000000000000e-01 0.000000000000e+00 5.000000000000e-01
v -4.500000000000e-01 0.000000000000e+00 5.000000000000e-01
v -3.500000000000e-01 0.000000000000e+00 4.500000000000e-01
v -4.000000000000e-01 0.000000000000e+00 4.500000000000e-01
v -4.500000000000e-01 0.000000000000e+00 4.500000000000e-01
v -5.000000000000e-01 0.000000000000e+00 4.500000000000e-01
v -4.000000000000e-01 0.000000000000e+00 4.000000000000e-01
v -4.500000000000e-01 0.000000000000e+00 4.000000000000e-01
v -3.500000000000e-01 0.000000000000e+00 3.000000000000e-01
v -3.000000000000e-01 0.000000000000e+00 3.500000000000e-01
v -3.500000000000e-01 0.000000000000e+00 3.500000000000e-01
v -4.000000000000e-01 0.000000000000e+00 3.500000000000e-01
v -3.000000000000e-01 0.000000000000e+00 3.000000000000e-01
v -1.000000000000e-01 0.000000000000e+00 2.500000000000e-01
v 5.000000000000e-02 0.000000000000e+00 1.000000000000e-01
v -5.000000000000e-02 0.000000000000e+00 2.000000000000e-01
v -1.000000000000e-01 0.000000000000e+00 2.000000000000e-01
v 0.000000000000e+00 0.000000000000e+00 1.500000000000e-01
v -5.000000000000e-02 0.000000000000e+00 1.500000000000e-01
v 0.000000000000e+00 0.000000000000e+00 5.000000000000e-02
v -5.000000000000e-02 0.000000000000e+00 2.500000000000e-01
v -1.000000000000e-01 0.000000000000e+00 3.000000000000e-01
v -1.000000000000e-01 0.000000000000e+00 1.500000000000e-01
v 0.000000000000e+00 0.000000000000e+00 1.000000000000e-01
v -5.000000000000e-02 0.000000000000e+00 1.000000000000e-01
v 1.000000000000e-01 0.000000000000e+00 5.000000000000e-02
v 5.000000000000e-02 0.000000000000e+00 5.000000000000e-02
v -5.000000000000e-02 0.000000000000e+00 0.000000000000e+00
v 1.500000000000e-01 0.000000000000e+00 -5.000000000000e-02
v 1.000000000000e-01 0.000000000000e+00 -5.000000000000e-02
v 0.000000000000e+00 0.000000000000e+00 0.000000000000e+00
v 5.000000000000e-02 0.000000000000e+00 -5.000000000000e-02
v 0.000000000000e+00 0.000000000000e+00 -5.000000000000e-02
v -5.000000000000e-02 0.000000000000e+00 -5.000000000000e-02
v -1.000000000000e-01 0.000000000000e+00 0.000000000000e+00
v 5.000000000000e-02 0.000000000000e+00 0.000000000000e+00
v 1.000000000000e-01 0.000000000000e+00 0.000000000000e+00
v -1.000000000000e-01 0.000000000000e+00 1.000000000000e-01
v -1.500000000000e-01 0.000000000000e+00 1.000000000000e-01
v -1.500000000000e-01 0.000000000000e+00 5.000000000000e-02
v -1.000000000000e-01 0.000000000000e+00 5.000000000000e-02
v -5.000000000000e-02 0.000000000000e+00 5.000000000000e-02
v 5.000000000000e-02 0.000000000000e+00 2.500000000000e-01
v -5.000000000000e-02 0.000000000000e+00 3.500000000000e-01
v 0.000000000000e+00 0.000000000000e+00 3.500000000000e-01
v 5.000000000000e-02 0.000000000000e+00 3.500000000000e-01
v 1.000000000000e-01 0.000000000000e+00 1.500000000000e-01
v 5.000000000000e-02 0.000000000000e+00 1.500000000000e-01
v 0.000000000000e+00 0.000000000000e+00 2.000000000000e-01
v 5.000000000000e-02 0.000000000000e+00 2.000000000000e-01
v 1.000000000000e-01 0.000000000000e+00 2.000000000000e-01
v 1.000000000000e-01 0.000000000000e+00 1.000000000000e-01
v 0.000000000000e+00 0.000000000000e+00 2.500000000000e-01
v 1.000000000000e-01 0.000000000000e+00 2.500000000000e-01
v 0.000000000000e+00 0.000000000000e+00 3.000000000000e-01
v -5.000000000000e-02 0.000000000000e+00 3.000000000000e-01
v 5.000000000000e-02 0.000000000000e+00 3.000000000000e-01
v 0.000000000000e+00 0.000000000000e+00 5.000000000000e-01
v -1.000000000000e-01 0.000000000000e+00 4.000000000000e-01
v -5.000000000000e-02 0.000000000000e+00 4.000000000000e-01
v 0.000000000000e+00 0.000000000000e+00 4.000000000000e-01
v 0.000000000000e+00 0.000000000000e+00 4.500000000000e-01
v -1.500000000000e-01 0.000000000000e+00 4.000000000000e-01
v -5.000000000000e-02 0.000000000000e+00 4.500000000000e-01
v -1.000000000000e-01 0.000000000000e+00 4.500000000000e-01
v -1.500000000000e-01 0.000000000000e+00 4.500000000000e-01
v -2.000000000000e-01 0.000000000000e+00 5.000000000000e-01
v -1.500000000000e-01 0.000000000000e+00 5.000000000000e-01
v -1.000000000000e-01 0.000000000000e+00 3.500000000000e-01
v -1.000000000000e-01 0.000000000000e+00 5.000000000000e-01
v -5.000000000000e-02 0.000000000000e+00 5.000000000000e-01
v 4.500000000000e-01 0.000000000000e+00 -4.500000000000e-01
v 5.000000000000e-01 0.000000000000e+00 -4.500000000000e-01
v 4.000000000000e-01 0.000000000000e+00 -4.500000000000e-01
v 3.500000000000e-01 0.000000000000e+00 -4.000000000000e-01
v 4.500000000000e-01 0.000000000000e+00 -5.000000000000e-01
v 4.500000000000e-01 0.000000000000e+00 -3.500000000000e-01
v 5.000000000000e-01 0.000000000000e+00 -5.000000000000e-01
v 5.000000000000e-01 0.000000000000e+00 -3.500000000000e-01
v 4.000000000000e-01 0.000000000000e+00 -5.000000000000e-01
v 4.000000000000e-01 0.000000000000e+00 -4.000000000000e-01
v 4.000000000000e-01 0.000000000000e+00 -3.500000000000e-01
v 3.500000000000e-01 0.000000000000e+00 -3.500000000000e-01
v 4.500000000000e-01 0.000000000000e+00 -4.000000000000e-01
v 5.000000000000e-01 0.000000000000e+00 -4.000000000000e-01
v 2.500000000000e-01 0.000000000000e+00 -1.500000000000e-01
v 2.500000000000e-01 0.000000000000e+00 -2.000000000000e-01
v 3.000000000000e-01 0.000000000000e+00 -2.000000000000e-01
v 3.500000000000e-01 0.000000000000e+00 -2.000000000000e-01
v 3.000000000000e-01 0.000000000000e+00 -3.000000000000e-01
v 4.000000000000e-01 0.000000000000e+00 -3.000000000000e-01
v 3.500000000000e-01 0.000000000000e+00 -3.000000000000e-01
v 3.000000000000e-01 0.000000000000e+00 -1.000000000000e-01
v 3.000000000000e-01 0.000000000000e+00 -1.500000000000e-01
v 2.500000000000e-01 0.000000000000e+00 -1.000000000000e-01
v 2.000000000000e-01 0.000000000000e+00 -1.000000000000e-01
v 3.500000000000e-01 0.000000000000e+00 -1.500000000000e-01
v 2.500000000000e-01 0.000000000000e+00 -2.500000000000e-01
v 3.000000000000e-01 0.000000000000e+00 -2.500000000000e-01
v 3.500000000000e-01 0.000000000000e+00 -2.500000000000e-01
v 4.000000000000e-01 0.000000000000e+00 -1.000000000000e-01
v 3.500000000000e-01 0.000000000000e+00 -1.000000000000e-01
v 5.000000000000e-01 0.000000000000e+00 -3.000000000000e-01
v 4.500000000000e-01 0.000000000000e+00 -3.000000000000e-01
v 4.000000000000e-01 0.000000000000e+00 -2.000000000000e-01
v 4.500000000000e-01 0.000000000000e+00 -2.000000000000e-01
v 5.000000000000e-01 0.000000000000e+00 -1.000000000000e-01
v 5.000000000000e-01 0.000000000000e+00 -2.000000000000e-01
v 4.000000000000e-01 0.000000000000e+00 -2.500000000000e-01
v 5.000000000000e-01 0.000000000000e+00 -1.500000000000e-01
v 4.500000000000e-01 0.000000000000e+00 -2.500000000000e-01
v 4.500000000000e-01 0.000000000000e+00 -1.000000000000e-01
v 5.000000000000e-01 0.000000000000e+00 -2.500000000000e-01
v 4.000000000000e-01 0.000000000000e+00 -1.500000000000e-01
v 4.500000000000e-01 0.000000000000e+00 -1.500000000000e-01
v 1.500000000000e-01 0.000000000000e+00 -4.000000000000e-01
v 0.000000000000e+00 0.000000000000e+00 -3.500000000000e-01
v 1.000000000000e-01 0.000000000000e+00 -4.000000000000e-01
v 5.000000000000e-02 0.000000000000e+00 -4.000000000000e-01
v 0.000000000000e+00 0.000000000000e+00 -4.000000000000e-01
v 5.000000000000e-02 0.000000000000e+00 -5.000000000000e-01
v 1.000000000000e-01 0.000000000000e+00 -5.000000000000e-01
v 1.500000000000e-01 0.000000000000e+00 -5.000000000000e-01
v 0.000000000000e+00 0.000000000000e+00 -5.000000000000e-01
v 1.500000000000e-01 0.000000000000e+00 -4.500000000000e-01
v 1.000000000000e-01 0.000000000000e+00 -4.500000000000e-01
v 5.000000000000e-02 0.000000000000e+00 -4.500000000000e-01
v 0.000000000000e+00 0.000000000000e+00 -4.500000000000e-01
v 1.000000000000e-01 0.000000000000e+00 -3.500000000000e-01
v 5.000000000000e-02 0.000000000000e+00 -3.500000000000e-01
v 3.000000000000e-01 0.000000000000e+00 -4.000000000000e-01
v 2.500000000000e-01 0.000000000000e+00 -4.000000000000e-01
v 1.500000000000e-01 0.000000000000e+00 -3.500000000000e-01
v 2.000000000000e-01 0.000000000000e+00 -4.000000000000e-01
v 3.500000000000e-01 0.000000000000e+00 -4.500000000000e-01
v 3.000000000000e-01 0.000000000000e+00 -4.500000000000e-01
v 2.500000000000e-01 0.000000000000e+00 -4.500000000000e-01
v 2.000000000000e-01 0.000000000000e+00 -4.500000000000e-01
v 3.500000000000e-01 0.000000000000e+00 -5.000000000000e-01
v 3.000000000000e-01 0.000000000000e+00 -5.000000000000e-01
v 2.500000000000e-01 0.000000000000e+00 -5.000000000000e-01
v 2.000000000000e-01 0.000000000000e+00 -5.000000000000e-01
v 3.000000000000e-01 0.000000000000e+00 -3.500000000000e-01
v 2.500000000000e-01 0.000000000000e+00 -3.500000000000e-01
v 2.000000000000e-01 0.000000000000e+00 -3.500000000000e-01
v 2.500000000000e-01 0.000000000000e+00 -3.000000000000e-01
v 2.000000000000e-01 0.000000000000e+00 -3.000000000000e-01
v 1.500000000000e-01 0.000000000000e+00 -3.000000000000e-01
v 2.000000000000e-01 0.000000000000e+00 -2.000000000000e-01
v 1.500000000000e-01 0.000000000000e+00 -1.000000000000e-01
v 1.500000000000e-01 0.000000000000e+00 -2.000000000000e-01
v 1.000000000000e-01 0.000000000000e+00 -2.000000000000e-01
v 1.000000000000e-01 0.000000000000e+00 -1.500000000000e-01
v 1.500000000000e-01 0.000000000000e+00 -1.500000000000e-01
v 2.000000000000e-01 0.000000000000e+00 -1.500000000000e-01
v 2.000000000000e-01 0.000000000000e+00 -2.500000000000e-01
v 1.500000000000e-01 0.000000000000e+00 -2.500000000000e-01
v 5.000000000000e-02 0.000000000000e+00 -1.000000000000e-01
v 1.000000000000e-01 0.000000000000e+00 -1.000000000000e-01
v 0.000000000000e+00 0.000000000000e+00 -1.000000000000e-01
v -5.000000000000e-02 0.000000000000e+00 -1.000000000000e-01
v 0.000000000000e+00 0.000000000000e+00 -3.000000000000e-01
v 5.000000000000e-02 0.000000000000e+00 -3.000000000000e-01
v 1.000000000000e-01 0.000000000000e+00 -3.000000000000e-01
v 5.000000000000e-02 0.000000000000e+00 -1.500000000000e-01
v 5.000000000000e-02 0.000000000000e+00 -2.500000000000e-01
v 0.000000000000e+00 0.000000000000e+00 -1.500000000000e-01
v -5.000000000000e-02 0.000000000000e+00 -1.500000000000e-01
v 1.000000000000e-01 0.000000000000e+00 -2.500000000000e-01
v 0.000000000000e+00 0.000000000000e+00 -2.000000000000e-01
v -5.000000000000e-02 0.000000000000e+00 -2.000000000000e-01
v -5.000000000000e-02 0.000000000000e+00 -2.500000000000e-01
v 0.000000000000e+00 0.000000000000e+00 -2.500000000000e-01
v 5.000000000000e-02 0.000000000000e+00 -2.000000000000e-01
v -3.500000000000e-01 0.000000000000e+00 -2.500000000000e-01
v -3.500000000000e-01 0.000000000000e+00 -5.000000000000e-01
v -3.000000000000e-01 0.000000000000e+00 -5.000000000000e-01
v -3.500000000000e-01 0.000000000000e+00 -4.500000000000e-01
v -4.000000000000e-01 0.000000000000e+00 -3.000000000000e-01
v -3.500000000000e-01 0.000000000000e+00 -3.000000000000e-01
v -3.000000000000e-01 0.000000000000e+00 -3.000000000000e-01
v -3.000000000000e-01 0.000000000000e+00 -4.500000000000e-01
v -3.000000000000e-01 0.000000000000e+00 -3.500000000000e-01
v -3.500000000000e-01 0.000000000000e+00 -3.500000000000e-01
v -2.500000000000e-01 0.000000000000e+00 -5.000000000000e-01
v -4.500000000000e-01 0.000000000000e+00 -2.500000000000e-01
v -3.000000000000e-01 0.000000000000e+00 -4.000000000000e-01
v -3.500000000000e-01 0.000000000000e+00 -4.000000000000e-01
v -4.000000000000e-01 0.000000000000e+00 -2.500000000000e-01
v -4.000000000000e-01 0.000000000000e+00 -5.000000000000e-01
v -4.500000000000e-01 0.000000000000e+00 -4.000000000000e-01
v -5.000000000000e-01 0.000000000000e+00 -4.500000000000e-01
v -4.500000000000e-01 0.000000000000e+00 -4.500000000000e-01
v -4.000000000000e-01 0.000000000000e+00 -4.500000000000e-01
v -4.000000000000e-01 0.000000000000e+00 -3.500000000000e-01
v -4.500000000000e-01 0.000000000000e+00 -3.500000000000e-01
v -5.000000000000e-01 0.000000000000e+00 -3.500000000000e-01
v -4.500000000000e-01 0.000000000000e+00 -5.000000000000e-01
v -4.000000000000e-01 0.000000000000e+00 -4.000000000000e-01
v -5.000000000000e-01 0.000000000000e+00 -4.000000000000e-01
v -4.500000000000e-01 0.000000000000e+00 -3.000000000000e-01
v -5.000000000000e-01 0.000000000000e+00 -3.000000000000e-01
v -5.000000000000e-01 0.000000000000e+00 -5.000000000000e-01
v -5.000000000000e-01 0.000000000000e+00 -2.500000000000e-01
v -2.000000000000e-01 0.000000000000e+00 -5.000000000000e-01
v -5.000000000000e-02 0.000000000000e+00 -4.500000000000e-01
v -1.500000000000e-01 0.000000000000e+00 -5.000000000000e-01
v -1.000000000000e-01 0.000000000000e+00 -5.000000000000e-01
v -5.000000000000e-02 0.000000000000e+00 -5.000000000000e-01
v -5.000000000000e-02 0.000000000000e+00 -4.000000000000e-01
v -1.000000000000e-01 0.000000000000e+00 -4.000000000000e-01
v -1.500000000000e-01 0.000000000000e+00 -4.000000000000e-01
v -2.000000000000e-01 0.000000000000e+00 -4.000000000000e-01
v -2.500000000000e-01 0.000000000000e+00 -4.000000000000e-01
v -2.500000000000e-01 0.000000000000e+00 -4.500000000000e-01
v -2.000000000000e-01 0.000000000000e+00 -4.500000000000e-01
v -1.500000000000e-01 0.000000000000e+00 -4.500000000000e-01
v -1.000000000000e-01 0.000000000000e+00 -4.500000000000e-01
v -2.500000000000e-01 0.000000000000e+00 -3.000000000000e-01
v -2.500000000000e-01 0.000000000000e+00 -3.500000000000e-01
v -2.000000000000e-01 0.000000000000e+00 -3.000000000000e-01
v -1.500000000000e-01 0.000000000000e+00 -3.000000000000e-01
v -1.000000000000e-01 0.000000000000e+00 -3.000000000000e-01
v -5.000000000000e-02 0.000000000000e+00 -3.000000000000e-01
v -3.000000000000e-01 0.000000000000e+00 -2.500000000000e-01
v -2.000000000000e-01 0.000000000000e+00 -3.500000000000e-01
v -1.500000000000e-01 0.000000000000e+00 -3.500000000000e-01
v -1.000000000000e-01 0.000000000000e+00 -3.500000000000e-01
v -2.500000000000e-01 0.000000000000e+00 -2.500000000000e-01
v -2.000000000000e-01 0.000000000000e+00 -2.500000000000e-01
v -1.500000000000e-01 0.000000000000e+00 -2.500000000000e-01
v -1.000000000000e-01 0.000000000000e+00 -2.500000000000e-01
v -5.000000000000e-02 0.000000000000e+00 -3.500000000000e-01
v -2.000000000000e-01 0.000000000000e+00 5.000000000000e-02
v -3.500000000000e-01 0.000000000000e+00 1.000000000000e-01
v -3.000000000000e-01 0.000000000000e+00 1.000000000000e-01
v -2.500000000000e-01 0.000000000000e+00 0.000000000000e+00
v -2.500000000000e-01 0.000000000000e+00 5.000000000000e-02
v -3.000000000000e-01 0.000000000000e+00 5.000000000000e-02
v -3.500000000000e-01 0.000000000000e+00 5.000000000000e-02
v -1.000000000000e-01 0.000000000000e+00 -1.000000000000e-01
v -1.500000000000e-01 0.000000000000e+00 0.000000000000e+00
v -2.000000000000e-01 0.000000000000e+00 0.000000000000e+00
v -3.000000000000e-01 0.000000000000e+00 0.000000000000e+00
v -1.000000000000e-01 0.000000000000e+00 -5.000000000000e-02
v -1.500000000000e-01 0.000000000000e+00 -5.000000000000e-02
v -2.000000000000e-01 0.000000000000e+00 -5.000000000000e-02
v -2.000000000000e-01 0.000000000000e+00 -1.500000000000e-01
v -3.000000000000e-01 0.000000000000e+00 -5.000000000000e-02
v -3.000000000000e-01 0.000000000000e+00 -1.000000000000e-01
v -2.500000000000e-01 0.000000000000e+00 -1.000000000000e-01
v -2.000000000000e-01 0.000000000000e+00 -1.000000000000e-01
v -1.500000000000e-01 0.000000000000e+00 -1.000000000000e-01
v -2.500000000000e-01 0.000000000000e+00 -5.000000000000e-02
v -1.500000000000e-01 0.000000000000e+00 -1.500000000000e-01
v -1.000000000000e-01 0.000000000000e+00 -1.500000000000e-01
v -2.500000000000e-01 0.000000000000e+00 -2.000000000000e-01
v -2.000000000000e-01 0.000000000000e+00 -2.000000000000e-01
v -1.500000000000e-01 0.000000000000e+00 -2.000000000000e-01
v -1.000000000000e-01 0.000000000000e+00 -2.000000000000e-01
v -2.500000000000e-01 0.000000000000e+00 -1.500000000000e-01
v -3.000000000000e-01 0.000000000000e+00 -1.500000000000e-01
v -4.000000000000e-01 0.000000000000e+00 -5.000000000000e-02
v -3.500000000000e-01 0.000000000000e+00 -5.000000000000e-02
v -5.000000000000e-01 0.000000000000e+00 2.000000000000e-01
v -4.500000000000e-01 0.000000000000e+00 0.000000000000e+00
v -4.000000000000e-01 0.000000000000e+00 0.000000000000e+00
v -3.500000000000e-01 0.000000000000e+00 0.000000000000e+00
v -4.500000000000e-01 0.000000000000e+00 1.500000000000e-01
v -5.000000000000e-01 0.000000000000e+00 1.500000000000e-01
v -4.500000000000e-01 0.000000000000e+00 1.000000000000e-01
v -5.000000000000e-01 0.000000000000e+00 1.000000000000e-01
v -4.000000000000e-01 0.000000000000e+00 5.000000000000e-02
v -4.500000000000e-01 0.000000000000e+00 5.000000000000e-02
v -5.000000000000e-01 0.000000000000e+00 5.000000000000e-02
v -3.500000000000e-01 0.000000000000e+00 -1.000000000000e-01
v -4.000000000000e-01 0.000000000000e+00 1.000000000000e-01
v -5.000000000000e-01 0.000000000000e+00 -1.500000000000e-01
v -4.000000000000e-01 0.000000000000e+00 -1.500000000000e-01
v -3.500000000000e-01 0.000000000000e+00 -1.500000000000e-01
v -5.000000000000e-01 0.000000000000e+00 -2.000000000000e-01
v -4.500000000000e-01 0.000000000000e+00 -2.000000000000e-01
v -4.000000000000e-01 0.000000000000e+00 -2.000000000000e-01
v -3.500000000000e-01 0.000000000000e+00 -2.000000000000e-01
v -3.000000000000e-01 0.000000000000e+00 -2.000000000000e-01
v -5.000000000000e-01 0.000000000000e+00 -1.000000000000e-01
v -4.500000000000e-01 0.000000000000e+00 -1.500000000000e-01
v -4.500000000000e-01 0.000000000000e+00 -5.000000000000e-02
v -5.000000000000e-01 0.000000000000e+00 -5.000000000000e-02
v -5.000000000000e-01 0.000000000000e+00 0.000000000000e+00
v -4.500000000000e-01 0.000000000000e+00 -1.000000000000e-01
v -4.000000000000e-01 0.000000000000e+00 -1.000000000000e-01
f 352 341 347
f 347 341 342
f 347 342 339
f 339 342 343
f 339 343 325
f 325 343 327
f 325 327 326
f 326 327 331
f 326 331 334
f 334 331 364
f 334 364 354
f 354 364 365
f 354 365 356
f 356 365 366
f 356 366 357
f 357 366 367
f 357 367 358
f 358 367 355
f 358 355 273
f 273 355 277
f 273 277 270
f 270 277 276
f 270 276 271
f 271 276 275
f 271 275 272
f 272 275 274
f 272 274 291
f 291 274 287
f 291 287 290
f 290 287 286
f 290 286 289
f 289 286 285
f 289 285 288
f 288 285 284
f 288 284 229
f 229 284 223
f 229 223 225
f 225 223 221
f 225 221 227
f 227 221 222
f 341 349 342
f 342 349 340
f 342 340 343
f 343 340 348
f 343 348 327
f 327 348 337
f 327 337 331
f 331 337 336
f 331 336 364
f 364 336 363
f 364 363 365
f 365 363 362
f 365 362 366
f 366 362 361
f 366 361 367
f 367 361 360
f 367 360 355
f 355 360 359
f 355 359 277
f 277 359 269
f 277 269 276
f 276 269 268
f 276 268 275
f 275 268 267
f 275 267 274
f 274 267 265
f 274 265 287
f 287 265 283
f 287 283 286
f 286 283 281
f 286 281 285
f 285 281 280
f 285 280 284
f 284 280 224
f 284 224 223
f 223 224 230
f 223 230 221
f 221 230 233
f 221 233 222
f 222 233 234
f 349 346 340
f 340 346 345
f 340 345 348
f 348 345 344
f 348 344 337
f 337 344 333
f 337 333 336
f 336 333 332
f 336 332 363
f 363 332 369
f 363 369 362
f 362 369 375
f 362 375 361
f 361 375 376
f 361 376 360
f 360 376 377
f 360 377 359
f 359 377 382
f 359 382 269
f 269 382 266
f 269 266 268
f 268 266 279
f 268 279 267
f 267 279 278
f 267 278 265
f 265 278 282
f 265 282 283
f 283 282 294
f 283 294 281
f 281 294 293
f 281 293 280
f 280 293 292
f 280 292 224
f 224 292 232
f 224 232 230
f 230 232 231
f 230 231 233
f 233 231 226
f 233 226 234
f 234 226 228
f 346 351 345
f 345 351 350
f 345 350 344
f 344 350 328
f 344 328 333
f 333 328 329
f 333 329 332
f 332 329 330
f 332 330 369
f 369 330 368
f 369 368 375
f 375 368 370
f 375 370 376
f 376 370 371
f 376 371 377
f 377 371 372
f 377 372 382
f 382 372 373
f 382 373 266
f 266 373 311
f 266 311 279
f 279 311 312
f 279 312 278
f 278 312 313
f 278 313 282
f 282 313 297
f 282 297 294
f 294 297 296
f 294 296 293
f 293 296 295
f 293 295 292
f 292 295 239
f 292 239 232
f 232 239 241
f 232 241 231
f 231 241 240
f 231 240 226
f 226 240 253
f 226 253 228
f 228 253 252
f 351 353 350
f 350 353 335
f 350 335 328
f 328 335 338
f 328 338 329
f 329 338 324
f 329 324 330
f 330 324 374
f 330 374 368
f 368 374 378
f 368 378 370
f 370 378 379
f 370 379 371
f 371 379 380
f 371 380 372
f 372 380 381
f 372 381 373
f 373 381 321
f 373 321 311
f 311 321 322
f 311 322 312
f 312 322 315
f 312 315 313
f 313 315 318
f 313 318 297
f 297 318 306
f 297 306 296
f 296 306 305
f 296 305 295
f 295 305 247
f 295 247 239
f 239 247 248
f 239 248 241
f 241 248 249
f 241 249 240
f 240 249 258
f 240 258 253
f 253 258 260
f 253 260 252
f 252 260 262
f 353 430 335
f 335 430 431
f 335 431 338
f 338 431 432
f 338 432 324
f 324 432 433
f 324 433 374
f 374 433 434
f 374 434 378
f 378 434 406
f 378 406 379
f 379 406 407
f 379 407 380
f 380 407 408
f 380 408 381
f 381 408 409
f 381 409 321
f 321 409 320
f 321 320 322
f 322 320 319
f 322 319 315
f 315 319 323
f 315 323 318
f 318 323 301
f 318 301 306
f 306 301 300
f 306 300 305
f 305 300 298
f 305 298 247
f 247 298 236
f 247 236 248
f 248 236 237
f 248 237 249
f 249 237 238
f 249 238 258
f 258 238 254
f 258 254 260
f 260 254 255
f 260 255 262
f 262 255 257
f 430 427 431
f 431 427 436
f 431 436 432
f 432 436 428
f 432 428 433
f 433 428 429
f 433 429 434
f 434 429 411
f 434 411 406
f 406 411 410
f 406 410 407
f 407 410 397
f 407 397 408
f 408 397 404
f 408 404 409
f 409 404 405
f 409 405 320
f 320 405 317
f 320 317 319
f 319 317 316
f 319 316 323
f 323 316 314
f 323 314 301
f 301 314 302
f 301 302 300
f 300 302 303
f 300 303 298
f 298 303 304
f 298 304 236
f 236 304 235
f 236 235 237
f 237 235 243
f 237 243 238
f 238 243 246
f 238 246 254
f 254 246 263
f 254 263 255
f 255 263 264
f 255 264 257
f 257 264 259
f 427 435 436
f 436 435 440
f 436 440 428
f 428 440 441
f 428 441 429
f 429 441 425
f 429 425 411
f 411 425 399
f 411 399 410
f 410 399 400
f 410 400 397
f 397 400 401
f 397 401 404
f 404 401 402
f 404 402 405
f 405 402 390
f 405 390 317
f 317 390 310
f 317 310 316
f 316 310 309
f 316 309 314
f 314 309 307
f 314 307 302
f 302 307 308
f 302 308 303
f 303 308 299
f 303 299 304
f 304 299 245
f 304 245 235
f 235 245 244
f 235 244 243
f 243 244 242
f 243 242 246
f 246 242 251
f 246 251 263
f 263 251 250
f 263 250 264
f 264 250 261
f 264 261 259
f 259 261 256
f 435 438 440
f 440 438 437
f 440 437 441
f 441 437 412
f 441 412 425
f 425 412 413
f 425 413 399
f 399 413 398
f 399 398 400
f 400 398 403
f 400 403 401
f 401 403 396
f 401 396 402
f 402 396 395
f 402 395 390
f 390 395 394
f 390 394 310
f 310 394 183
f 310 183 309
f 309 183 182
f 309 182 307
f 307 182 181
f 307 181 308
f 308 181 179
f 308 179 299
f 299 179 178
f 299 178 245
f 245 178 63
f 245 63 244
f 244 63 59
f 244 59 242
f 242 59 60
f 242 60 251
f 251 60 96
f 251 96 250
f 250 96 89
f 250 89 261
f 261 89 103
f 261 103 256
f 256 103 97
f 438 439 437
f 437 439 415
f 437 415 412
f 412 415 416
f 412 416 413
f 413 416 417
f 413 417 398
f 398 417 393
f 398 393 403
f 403 393 386
f 403 386 396
f 396 386 392
f 396 392 395
f 395 392 391
f 395 391 394
f 394 391 184
f 394 184 183
f 183 184 177
f 183 177 182
f 182 177 180
f 182 180 181
f 181 180 185
f 181 185 179
f 179 185 186
f 179 186 178
f 178 186 61
f 178 61 63
f 63 61 67
f 63 67 59
f 59 67 73
f 59 73 60
f 60 73 64
f 60 64 96
f 96 64 94
f 96 94 89
f 89 94 93
f 89 93 103
f 103 93 98
f 103 98 97
f 97 98 101
f 439 424 415
f 415 424 423
f 415 423 416
f 416 423 422
f 416 422 417
f 417 422 389
f 417 389 393
f 393 389 388
f 393 388 386
f 386 388 387
f 386 387 392
f 392 387 383
f 392 383 391
f 391 383 189
f 391 189 184
f 184 189 190
f 184 190 177
f 177 190 191
f 177 191 180
f 180 191 169
f 180 169 185
f 185 169 176
f 185 176 186
f 186 176 175
f 186 175 61
f 61 175 66
f 61 66 67
f 67 66 65
f 67 65 73
f 73 65 71
f 73 71 64
f 64 71 72
f 64 72 94
f 94 72 95
f 94 95 93
f 93 95 90
f 93 90 98
f 98 90 91
f 98 91 101
f 101 91 92
f 424 421 423
f 423 421 420
f 423 420 422
f 422 420 426
f 422 426 389
f 389 426 384
f 389 384 388
f 388 384 385
f 388 385 387
f 387 385 123
f 387 123 383
f 383 123 122
f 383 122 189
f 189 122 188
f 189 188 190
f 190 188 187
f 190 187 191
f 191 187 174
f 191 174 169
f 169 174 173
f 169 173 176
f 176 173 164
f 176 164 175
f 175 164 201
f 175 201 66
f 66 201 68
f 66 68 65
f 65 68 69
f 65 69 71
f 71 69 70
f 71 70 72
f 72 70 99
f 72 99 95
f 95 99 100
f 95 100 90
f 90 100 102
f 90 102 91
f 91 102 86
f 91 86 92
f 92 86 87
f 421 419 420
f 420 419 418
f 420 418 426
f 426 418 114
f 426 114 384
f 384 114 111
f 384 111 385
f 385 111 120
f 385 120 123
f 123 120 121
f 123 121 122
f 122 121 119
f 122 119 188
f 188 119 124
f 188 124 187
f 187 124 172
f 187 172 174
f 174 172 168
f 174 168 173
f 173 168 167
f 173 167 164
f 164 167 197
f 164 197 201
f 201 197 196
f 201 196 68
f 68 196 62
f 68 62 69
f 69 62 45
f 69 45 70
f 70 45 44
f 70 44 99
f 99 44 78
f 99 78 100
f 100 78 81
f 100 81 102
f 102 81 80
f 102 80 86
f 86 80 79
f 86 79 87
f 87 79 77
f 419 414 418
f 418 414 107
f 418 107 114
f 114 107 108
f 114 108 111
f 111 108 109
f 111 109 120
f 120 109 132
f 120 132 121
f 121 132 131
f 121 131 119
f 119 131 130
f 119 130 124
f 124 130 129
f 124 129 172
f 172 129 166
f 172 166 168
f 168 166 165
f 168 165 167
f 167 165 198
f 167 198 197
f 197 198 199
f 197 199 196
f 196 199 200
f 196 200 62
f 62 200 54
f 62 54 45
f 45 54 50
f 45 50 44
f 44 50 49
f 44 49 78
f 78 49 82
f 78 82 81
f 81 82 83
f 81 83 80
f 80 83 84
f 80 84 79
f 79 84 85
f 79 85 77
f 77 85 88
f 414 110 107
f 107 110 118
f 107 118 108
f 108 118 117
f 108 117 109
f 109 117 116
f 109 116 132
f 132 116 127
f 132 127 131
f 131 127 126
f 131 126 130
f 130 126 128
f 130 128 129
f 129 128 125
f 129 125 166
f 166 125 163
f 166 163 165
f 165 163 170
f 165 170 198
f 198 170 202
f 198 202 199
f 199 202 192
f 199 192 200
f 200 192 203
f 200 203 54
f 54 203 51
f 54 51 50
f 50 51 52
f 50 52 49
f 49 52 53
f 49 53 82
f 82 53 76
f 82 76 83
f 83 76 75
f 83 75 84
f 84 75 74
f 84 74 85
f 85 74 42
f 85 42 88
f 88 42 41
f 110 113 118
f 118 113 112
f 118 112 117
f 117 112 104
f 117 104 116
f 116 104 158
f 116 158 127
f 127 158 162
f 127 162 126
f 126 162 135
f 126 135 128
f 128 135 141
f 128 141 125
f 125 141 134
f 125 134 163
f 163 134 171
f 163 171 170
f 170 171 205
f 170 205 202
f 202 205 204
f 202 204 192
f 192 204 206
f 192 206 203
f 203 206 58
f 203 58 51
f 51 58 57
f 51 57 52
f 52 57 56
f 52 56 53
f 53 56 55
f 53 55 76
f 76 55 31
f 76 31 75
f 75 31 32
f 75 32 74
f 74 32 33
f 74 33 42
f 42 33 34
f 42 34 41
f 41 34 21
f 113 105 112
f 112 105 106
f 112 106 104
f 104 106 161
f 104 161 158
f 158 161 160
f 158 160 162
f 162 160 159
f 162 159 135
f 135 159 133
f 135 133 141
f 141 133 145
f 141 145 134
f 134 145 144
f 134 144 171
f 171 144 218
f 171 218 205
f 205 218 193
f 205 193 204
f 204 193 194
f 204 194 206
f 206 194 195
f 206 195 58
f 58 195 46
f 58 46 57
f 57 46 47
f 57 47 56
f 56 47 48
f 56 48 55
f 55 48 14
f 55 14 31
f 31 14 37
f 31 37 32
f 32 37 29
f 32 29 33
f 33 29 35
f 33 35 34
f 34 35 20
f 34 20 21
f 21 20 19
f 105 115 106
f 106 115 157
f 106 157 161
f 161 157 156
f 161 156 160
f 160 156 149
f 160 149 159
f 159 149 140
f 159 140 133
f 133 140 139
f 133 139 145
f 145 139 138
f 145 138 144
f 144 138 212
f 144 212 218
f 218 212 208
f 218 208 193
f 193 208 209
f 193 209 194
f 194 209 210
f 194 210 195
f 195 210 13
f 195 13 46
f 46 13 12
f 46 12 47
f 47 12 8
f 47 8 48
f 48 8 7
f 48 7 14
f 14 7 6
f 14 6 37
f 37 6 43
f 37 43 29
f 29 43 40
f 29 40 35
f 35 40 16
f 35 16 20
f 20 16 17
f 20 17 19
f 19 17 18
f 115 155 157
f 157 155 154
f 157 154 156
f 156 154 153
f 156 153 149
f 149 153 152
f 149 152 140
f 140 152 136
f 140 136 139
f 139 136 137
f 139 137 138
f 138 137 142
f 138 142 212
f 212 142 215
f 212 215 208
f 208 215 214
f 208 214 209
f 209 214 213
f 209 213 210
f 210 213 211
f 210 211 13
f 13 211 5
f 13 5 12
f 12 5 4
f 12 4 8
f 8 4 3
f 8 3 7
f 7 3 2
f 7 2 6
f 6 2 39
f 6 39 43
f 43 39 38
f 43 38 40
f 40 38 22
f 40 22 16
f 16 22 23
f 16 23 17
f 17 23 24
f 17 24 18
f 18 24 25
f 155 148 154
f 154 148 151
f 154 151 153
f 153 151 150
f 153 150 152
f 152 150 147
f 152 147 136
f 136 147 146
f 136 146 137
f 137 146 143
f 137 143 142
f 142 143 216
f 142 216 215
f 215 216 217
f 215 217 214
f 214 217 219
f 214 219 213
f 213 219 220
f 213 220 211
f 211 220 207
f 211 207 5
f 5 207 1
f 5 1 4
f 4 1 9
f 4 9 3
f 3 9 10
f 3 10 2
f 2 10 11
f 2 11 39
f 39 11 36
f 39 36 38
f 38 36 30
f 38 30 22
f 22 30 28
f 22 28 23
f 23 28 27
f 23 27 24
f 24 27 26
f 24 26 25
f 25 26 15
