v 6.666670000000e-02 0.000000000000e+00 -2.000000000000e-01
v 1.666670000000e-01 0.000000000000e+00 -2.000000000000e-01
v 2.000000000000e-01 0.000000000000e+00 -2.000000000000e-01
v 1.333330000000e-01 0.000000000000e+00 -2.666670000000e-01
v 1.666670000000e-01 0.000000000000e+00 -2.666670000000e-01
v 1.333330000000e-01 0.000000000000e+00 -2.000000000000e-01
v 1.000000000000e-01 0.000000000000e+00 -2.000000000000e-01
v 6.666670000000e-02 0.000000000000e+00 -1.666670000000e-01
v 1.000000000000e-01 0.000000000000e+00 -1.666670000000e-01
v 1.333330000000e-01 0.000000000000e+00 -1.666670000000e-01
v 1.666670000000e-01 0.000000000000e+00 -1.666670000000e-01
v 1.000000000000e-01 0.000000000000e+00 -2.333330000000e-01
v 1.333330000000e-01 0.000000000000e+00 -2.333330000000e-01
v 1.666670000000e-01 0.000000000000e+00 -2.333330000000e-01
v 6.666670000000e-02 0.000000000000e+00 -1.333330000000e-01
v 2.333330000000e-01 0.000000000000e+00 -2.333330000000e-01
v 2.333330000000e-01 0.000000000000e+00 -2.666670000000e-01
v 2.000000000000e-01 0.000000000000e+00 -2.666670000000e-01
v 2.333330000000e-01 0.000000000000e+00 -3.000000000000e-01
v 2.000000000000e-01 0.000000000000e+00 -3.000000000000e-01
v 1.666670000000e-01 0.000000000000e+00 -3.000000000000e-01
v 2.000000000000e-01 0.000000000000e+00 -2.333330000000e-01
v 1.666670000000e-01 0.000000000000e+00 -4.000000000000e-01
v 1.333330000000e-01 0.000000000000e+00 -3.333330000000e-01
v 1.666670000000e-01 0.000000000000e+00 -3.333330000000e-01
v 2.000000000000e-01 0.000000000000e+00 -3.333330000000e-01
v 1.333330000000e-01 0.000000000000e+00 -3.000000000000e-01
v 1.666670000000e-01 0.000000000000e+00 -3.666670000000e-01
v 2.000000000000e-01 0.000000000000e+00 -3.666670000000e-01
v 2.333330000000e-01 0.000000000000e+00 -3.666670000000e-01
v 2.333330000000e-01 0.000000000000e+00 -3.333330000000e-01
v 2.000000000000e-01 0.000000000000e+00 -4.333330000000e-01
v 2.000000000000e-01 0.000000000000e+00 -4.666670000000e-01
v 2.333330000000e-01 0.000000000000e+00 -4.666670000000e-01
v 2.666670000000e-01 0.000000000000e+00 -4.666670000000e-01
v 3.000000000000e-01 0.000000000000e+00 -4.666670000000e-01
v 2.666670000000e-01 0.000000000000e+00 -3.666670000000e-01
v 3.000000000000e-01 0.000000000000e+00 -4.000000000000e-01
v 2.666670000000e-01 0.000000000000e+00 -4.000000000000e-01
v 2.333330000000e-01 0.000000000000e+00 -4.333330000000e-01
v 2.666670000000e-01 0.000000000000e+00 -4.333330000000e-01
v 3.000000000000e-01 0.000000000000e+00 -4.333330000000e-01
v 2.333330000000e-01 0.000000000000e+00 -4.000000000000e-01
v 2.000000000000e-01 0.000000000000e+00 -4.000000000000e-01
v 2.333330000000e-01 0.000000000000e+00 -5.000000000000e-01
v 3.000000000000e-01 0.000000000000e+00 -5.000000000000e-01
v 2.666670000000e-01 0.000000000000e+00 -5.000000000000e-01
v 3.000000000000e-01 0.000000000000e+00 -3.666670000000e-01
v 3.333330000000e-01 0.000000000000e+00 -4.000000000000e-01
v 3.666670000000e-01 0.000000000000e+00 -4.000000000000e-01
v 4.000000000000e-01 0.000000000000e+00 -4.000000000000e-01
v 4.000000000000e-01 0.000000000000e+00 -5.000000000000e-01
v 3.666670000000e-01 0.000000000000e+00 -5.000000000000e-01
v 3.333330000000e-01 0.000000000000e+00 -5.000000000000e-01
v 3.333330000000e-01 0.000000000000e+00 -4.333330000000e-01
v 3.666670000000e-01 0.000000000000e+00 -4.333330000000e-01
v 4.000000000000e-01 0.000000000000e+00 -4.333330000000e-01
v 3.333330000000e-01 0.000000000000e+00 -3.666670000000e-01
v 4.000000000000e-01 0.000000000000e+00 -4.666670000000e-01
v 3.666670000000e-01 0.000000000000e+00 -4.666670000000e-01
v 3.333330000000e-01 0.000000000000e+00 -4.666670000000e-01
v 3.666670000000e-01 0.000000000000e+00 -3.666670000000e-01
v 4.333330000000e-01 0.000000000000e+00 -4.666670000000e-01
v 4.333330000000e-01 0.000000000000e+00 -5.000000000000e-01
v 4.666670000000e-01 0.000000000000e+00 -5.000000000000e-01
v 5.000000000000e-01 0.000000000000e+00 -5.000000000000e-01
v 5.000000000000e-01 0.000000000000e+00 -3.666670000000e-01
v 4.333330000000e-01 0.000000000000e+00 -4.000000000000e-01
v 4.666670000000e-01 0.000000000000e+00 -4.000000000000e-01
v 5.000000000000e-01 0.000000000000e+00 -4.000000000000e-01
v 4.666670000000e-01 0.000000000000e+00 -3.666670000000e-01
v 4.333330000000e-01 0.000000000000e+00 -3.666670000000e-01
v 4.000000000000e-01 0.000000000000e+00 -3.666670000000e-01
v 4.333330000000e-01 0.000000000000e+00 -4.333330000000e-01
v 4.666670000000e-01 0.000000000000e+00 -4.333330000000e-01
v 5.000000000000e-01 0.000000000000e+00 -4.333330000000e-01
v 5.000000000000e-01 0.000000000000e+00 -4.666670000000e-01
v 4.666670000000e-01 0.000000000000e+00 -4.666670000000e-01
v 4.000000000000e-01 0.000000000000e+00 -3.000000000000e-01
v 4.333330000000e-01 0.000000000000e+00 -3.000000000000e-01
v 4.666670000000e-01 0.000000000000e+00 -3.000000000000e-01
v 4.000000000000e-01 0.000000000000e+00 -2.666670000000e-01
v 5.000000000000e-01 0.000000000000e+00 -3.000000000000e-01
v 4.333330000000e-01 0.000000000000e+00 -2.666670000000e-01
v 4.000000000000e-01 0.000000000000e+00 -2.333330000000e-01
v 4.333330000000e-01 0.000000000000e+00 -2.333330000000e-01
v 4.666670000000e-01 0.000000000000e+00 -2.333330000000e-01
v 5.000000000000e-01 0.000000000000e+00 -2.333330000000e-01
v 4.000000000000e-01 0.000000000000e+00 -3.333330000000e-01
v 4.333330000000e-01 0.000000000000e+00 -3.333330000000e-01
v 4.666670000000e-01 0.000000000000e+00 -3.333330000000e-01
v 5.000000000000e-01 0.000000000000e+00 -3.333330000000e-01
v 5.000000000000e-01 0.000000000000e+00 -2.666670000000e-01
v 4.666670000000e-01 0.000000000000e+00 -2.666670000000e-01
v 3.666670000000e-01 0.000000000000e+00 -3.333330000000e-01
v 3.333330000000e-01 0.000000000000e+00 -3.333330000000e-01
v 2.666670000000e-01 0.000000000000e+00 -3.000000000000e-01
v 3.000000000000e-01 0.000000000000e+00 -3.000000000000e-01
v 3.333330000000e-01 0.000000000000e+00 -3.000000000000e-01
v 3.666670000000e-01 0.000000000000e+00 -3.000000000000e-01
v 3.333330000000e-01 0.000000000000e+00 -2.333330000000e-01
v 3.000000000000e-01 0.000000000000e+00 -3.333330000000e-01
v 2.666670000000e-01 0.000000000000e+00 -3.333330000000e-01
v 2.666670000000e-01 0.000000000000e+00 -2.333330000000e-01
v 3.000000000000e-01 0.000000000000e+00 -2.333330000000e-01
v 3.666670000000e-01 0.000000000000e+00 -2.333330000000e-01
v 3.666670000000e-01 0.000000000000e+00 -2.666670000000e-01
v 3.333330000000e-01 0.000000000000e+00 -2.666670000000e-01
v 3.000000000000e-01 0.000000000000e+00 -2.666670000000e-01
v 2.666670000000e-01 0.000000000000e+00 -2.666670000000e-01
v 1.000000000000e-01 0.000000000000e+00 -1.000000000000e-01
v 6.666670000000e-02 0.000000000000e+00 -1.000000000000e-01
v 6.666670000000e-02 0.000000000000e+00 -3.333330000000e-02
v 1.000000000000e-01 0.000000000000e+00 -3.333330000000e-02
v 1.333330000000e-01 0.000000000000e+00 -3.333330000000e-02
v 3.333330000000e-02 0.000000000000e+00 -3.333330000000e-02
v 1.000000000000e-01 0.000000000000e+00 -6.666670000000e-02
v 1.333330000000e-01 0.000000000000e+00 -6.666670000000e-02
v 6.666670000000e-02 0.000000000000e+00 -6.666670000000e-02
v 6.666670000000e-02 0.000000000000e+00 0.000000000000e+00
v 1.000000000000e-01 0.000000000000e+00 -1.333330000000e-01
v 1.333330000000e-01 0.000000000000e+00 -1.333330000000e-01
v 0.000000000000e+00 0.000000000000e+00 0.000000000000e+00
v 3.333330000000e-02 0.000000000000e+00 0.000000000000e+00
v 1.333330000000e-01 0.000000000000e+00 -1.000000000000e-01
v 2.333330000000e-01 0.000000000000e+00 -1.666670000000e-01
v 1.666670000000e-01 0.000000000000e+00 -1.000000000000e-01
v 1.666670000000e-01 0.000000000000e+00 -3.333330000000e-02
v 2.000000000000e-01 0.000000000000e+00 -3.333330000000e-02
v 2.333330000000e-01 0.000000000000e+00 -3.333330000000e-02
v 2.333330000000e-01 0.000000000000e+00 -1.333330000000e-01
v 2.000000000000e-01 0.000000000000e+00 -1.333330000000e-01
v 2.000000000000e-01 0.000000000000e+00 -1.666670000000e-01
v 2.000000000000e-01 0.000000000000e+00 -1.000000000000e-01
v 1.666670000000e-01 0.000000000000e+00 -6.666670000000e-02
v 2.000000000000e-01 0.000000000000e+00 -6.666670000000e-02
v 2.333330000000e-01 0.000000000000e+00 -6.666670000000e-02
v 2.333330000000e-01 0.000000000000e+00 -1.000000000000e-01
v 1.666670000000e-01 0.000000000000e+00 -1.333330000000e-01
v 2.333330000000e-01 0.000000000000e+00 -2.000000000000e-01
v 6.666670000000e-02 0.000000000000e+00 1.000000000000e-01
v 3.333330000000e-02 0.000000000000e+00 1.000000000000e-01
v 0.000000000000e+00 0.000000000000e+00 1.000000000000e-01
v -3.333330000000e-02 0.000000000000e+00 1.000000000000e-01
v 0.000000000000e+00 0.000000000000e+00 3.333330000000e-02
v 6.666670000000e-02 0.000000000000e+00 6.666670000000e-02
v -3.333330000000e-02 0.000000000000e+00 1.333330000000e-01
v 0.000000000000e+00 0.000000000000e+00 1.333330000000e-01
v 3.333330000000e-02 0.000000000000e+00 6.666670000000e-02
v 0.000000000000e+00 0.000000000000e+00 6.666670000000e-02
v 3.333330000000e-02 0.000000000000e+00 3.333330000000e-02
v 1.000000000000e-01 0.000000000000e+00 3.333330000000e-02
v 6.666670000000e-02 0.000000000000e+00 3.333330000000e-02
v 1.000000000000e-01 0.000000000000e+00 0.000000000000e+00
v 1.333330000000e-01 0.000000000000e+00 0.000000000000e+00
v 2.333330000000e-01 0.000000000000e+00 6.666670000000e-02
v 1.333330000000e-01 0.000000000000e+00 6.666670000000e-02
v 1.666670000000e-01 0.000000000000e+00 6.666670000000e-02
v 2.333330000000e-01 0.000000000000e+00 0.000000000000e+00
v 2.000000000000e-01 0.000000000000e+00 0.000000000000e+00
v 1.666670000000e-01 0.000000000000e+00 0.000000000000e+00
v 2.000000000000e-01 0.000000000000e+00 6.666670000000e-02
v 1.333330000000e-01 0.000000000000e+00 3.333330000000e-02
v 1.666670000000e-01 0.000000000000e+00 3.333330000000e-02
v 2.000000000000e-01 0.000000000000e+00 3.333330000000e-02
v 2.333330000000e-01 0.000000000000e+00 3.333330000000e-02
v 1.000000000000e-01 0.000000000000e+00 6.666670000000e-02
v 1.000000000000e-01 0.000000000000e+00 1.000000000000e-01
v 1.333330000000e-01 0.000000000000e+00 1.000000000000e-01
v 1.666670000000e-01 0.000000000000e+00 1.000000000000e-01
v 2.000000000000e-01 0.000000000000e+00 1.000000000000e-01
v 3.666670000000e-01 0.000000000000e+00 0.000000000000e+00
v 4.000000000000e-01 0.000000000000e+00 0.000000000000e+00
v 4.666670000000e-01 0.000000000000e+00 -3.333330000000e-02
v 4.333330000000e-01 0.000000000000e+00 -3.333330000000e-02
v 4.000000000000e-01 0.000000000000e+00 -3.333330000000e-02
v 3.666670000000e-01 0.000000000000e+00 -3.333330000000e-02
v 4.333330000000e-01 0.000000000000e+00 0.000000000000e+00
v 4.000000000000e-01 0.000000000000e+00 3.333330000000e-02
v 5.000000000000e-01 0.000000000000e+00 -6.666670000000e-02
v 4.666670000000e-01 0.000000000000e+00 -6.666670000000e-02
v 4.333330000000e-01 0.000000000000e+00 -6.666670000000e-02
v 4.000000000000e-01 0.000000000000e+00 -6.666670000000e-02
v 5.000000000000e-01 0.000000000000e+00 -1.000000000000e-01
v 3.666670000000e-01 0.000000000000e+00 -6.666670000000e-02
v 3.666670000000e-01 0.000000000000e+00 3.333330000000e-02
v 3.333330000000e-01 0.000000000000e+00 6.666670000000e-02
v 2.666670000000e-01 0.000000000000e+00 3.333330000000e-02
v 3.000000000000e-01 0.000000000000e+00 0.000000000000e+00
v 3.000000000000e-01 0.000000000000e+00 3.333330000000e-02
v 3.333330000000e-01 0.000000000000e+00 0.000000000000e+00
v 2.666670000000e-01 0.000000000000e+00 0.000000000000e+00
v 3.333330000000e-01 0.000000000000e+00 -3.333330000000e-02
v 3.000000000000e-01 0.000000000000e+00 -3.333330000000e-02
v 2.666670000000e-01 0.000000000000e+00 -3.333330000000e-02
v 3.333330000000e-01 0.000000000000e+00 -6.666670000000e-02
v 3.000000000000e-01 0.000000000000e+00 -6.666670000000e-02
v 3.000000000000e-01 0.000000000000e+00 6.666670000000e-02
v 2.666670000000e-01 0.000000000000e+00 6.666670000000e-02
v 3.333330000000e-01 0.000000000000e+00 3.333330000000e-02
v 3.000000000000e-01 0.000000000000e+00 1.000000000000e-01
v 2.333330000000e-01 0.000000000000e+00 1.000000000000e-01
v 2.666670000000e-01 0.000000000000e+00 1.000000000000e-01
v 3.666670000000e-01 0.000000000000e+00 -1.666670000000e-01
v 3.333330000000e-01 0.000000000000e+00 -1.666670000000e-01
v 3.000000000000e-01 0.000000000000e+00 -1.666670000000e-01
v 2.666670000000e-01 0.000000000000e+00 -1.666670000000e-01
v 2.666670000000e-01 0.000000000000e+00 -1.333330000000e-01
v 3.000000000000e-01 0.000000000000e+00 -1.333330000000e-01
v 3.333330000000e-01 0.000000000000e+00 -1.333330000000e-01
v 2.666670000000e-01 0.000000000000e+00 -1.000000000000e-01
v 4.000000000000e-01 0.000000000000e+00 -2.000000000000e-01
v 3.666670000000e-01 0.000000000000e+00 -2.000000000000e-01
v 3.333330000000e-01 0.000000000000e+00 -2.000000000000e-01
v 3.000000000000e-01 0.000000000000e+00 -2.000000000000e-01
v 2.666670000000e-01 0.000000000000e+00 -2.000000000000e-01
v 3.000000000000e-01 0.000000000000e+00 -1.000000000000e-01
v 3.333330000000e-01 0.000000000000e+00 -1.000000000000e-01
v 2.666670000000e-01 0.000000000000e+00 -6.666670000000e-02
v 4.000000000000e-01 0.000000000000e+00 -1.666670000000e-01
v 3.666670000000e-01 0.000000000000e+00 -1.333330000000e-01
v 4.000000000000e-01 0.000000000000e+00 -1.333330000000e-01
v 4.666670000000e-01 0.000000000000e+00 -1.666670000000e-01
v 4.333330000000e-01 0.000000000000e+00 -1.333330000000e-01
v 4.666670000000e-01 0.000000000000e+00 -1.333330000000e-01
v 5.000000000000e-01 0.000000000000e+00 -1.333330000000e-01
v 5.000000000000e-01 0.000000000000e+00 -2.000000000000e-01
v 4.666670000000e-01 0.000000000000e+00 -2.000000000000e-01
v 4.333330000000e-01 0.000000000000e+00 -1.666670000000e-01
v 4.333330000000e-01 0.000000000000e+00 -2.000000000000e-01
v 3.666670000000e-01 0.000000000000e+00 -1.000000000000e-01
v 4.000000000000e-01 0.000000000000e+00 -1.000000000000e-01
v 4.333330000000e-01 0.000000000000e+00 -1.000000000000e-01
v 4.666670000000e-01 0.000000000000e+00 -1.000000000000e-01
v 5.000000000000e-01 0.000000000000e+00 -1.666670000000e-01
v 4.333330000000e-01 0.000000000000e+00 6.666670000000e-02
v 5.000000000000e-01 0.000000000000e+00 1.333330000000e-01
v 4.666670000000e-01 0.000000000000e+00 0.000000000000e+00
v 4.666670000000e-01 0.000000000000e+00 6.666670000000e-02
v 5.000000000000e-01 0.000000000000e+00 6.666670000000e-02
v 4.666670000000e-01 0.000000000000e+00 1.333330000000e-01
v 4.333330000000e-01 0.000000000000e+00 1.333330000000e-01
v 4.333330000000e-01 0.000000000000e+00 1.000000000000e-01
v 4.666670000000e-01 0.000000000000e+00 1.000000000000e-01
v 4.333330000000e-01 0.000000000000e+00 3.333330000000e-02
v 5.000000000000e-01 0.000000000000e+00 0.000000000000e+00
v 4.666670000000e-01 0.000000000000e+00 3.333330000000e-02
v 5.000000000000e-01 0.000000000000e+00 3.333330000000e-02
v 5.000000000000e-01 0.000000000000e+00 1.000000000000e-01
v 5.000000000000e-01 0.000000000000e+00 -3.333330000000e-02
v 2.666670000000e-01 0.000000000000e+00 2.666670000000e-01
v 3.333330000000e-01 0.000000000000e+00 2.333330000000e-01
v 3.666670000000e-01 0.000000000000e+00 2.333330000000e-01
v 4.000000000000e-01 0.000000000000e+00 2.333330000000e-01
v 4.333330000000e-01 0.000000000000e+00 2.333330000000e-01
v 3.000000000000e-01 0.000000000000e+00 2.666670000000e-01
v 4.333330000000e-01 0.000000000000e+00 1.666670000000e-01
v 3.333330000000e-01 0.000000000000e+00 2.666670000000e-01
v 4.666670000000e-01 0.000000000000e+00 1.666670000000e-01
v 4.000000000000e-01 0.000000000000e+00 2.666670000000e-01
v 3.666670000000e-01 0.000000000000e+00 2.666670000000e-01
v 3.000000000000e-01 0.000000000000e+00 2.333330000000e-01
v 5.000000000000e-01 0.000000000000e+00 1.666670000000e-01
v 4.000000000000e-01 0.000000000000e+00 2.000000000000e-01
v 4.333330000000e-01 0.000000000000e+00 2.000000000000e-01
v 4.666670000000e-01 0.000000000000e+00 2.000000000000e-01
v 3.666670000000e-01 0.000000000000e+00 2.000000000000e-01
v 3.666670000000e-01 0.000000000000e+00 1.333330000000e-01
v 4.000000000000e-01 0.000000000000e+00 1.333330000000e-01
v 4.000000000000e-01 0.000000000000e+00 6.666670000000e-02
v 3.333330000000e-01 0.000000000000e+00 1.333330000000e-01
v 3.000000000000e-01 0.000000000000e+00 1.333330000000e-01
v 4.000000000000e-01 0.000000000000e+00 1.000000000000e-01
v 3.666670000000e-01 0.000000000000e+00 1.000000000000e-01
v 3.000000000000e-01 0.000000000000e+00 1.666670000000e-01
v 3.333330000000e-01 0.000000000000e+00 1.666670000000e-01
v 3.666670000000e-01 0.000000000000e+00 1.666670000000e-01
v 4.000000000000e-01 0.000000000000e+00 1.666670000000e-01
v 3.333330000000e-01 0.000000000000e+00 1.000000000000e-01
v 3.000000000000e-01 0.000000000000e+00 2.000000000000e-01
v 3.333330000000e-01 0.000000000000e+00 2.000000000000e-01
v 3.666670000000e-01 0.000000000000e+00 6.666670000000e-02
v 5.000000000000e-01 0.000000000000e+00 3.000000000000e-01
v 4.333330000000e-01 0.000000000000e+00 3.666670000000e-01
v 5.000000000000e-01 0.000000000000e+00 3.333330000000e-01
v 4.666670000000e-01 0.000000000000e+00 3.333330000000e-01
v 4.000000000000e-01 0.000000000000e+00 3.000000000000e-01
v 4.333330000000e-01 0.000000000000e+00 3.000000000000e-01
v 4.666670000000e-01 0.000000000000e+00 3.000000000000e-01
v 4.333330000000e-01 0.000000000000e+00 3.333330000000e-01
v 4.000000000000e-01 0.000000000000e+00 3.333330000000e-01
v 4.000000000000e-01 0.000000000000e+00 3.666670000000e-01
v 5.000000000000e-01 0.000000000000e+00 2.666670000000e-01
v 4.666670000000e-01 0.000000000000e+00 2.666670000000e-01
v 4.333330000000e-01 0.000000000000e+00 2.666670000000e-01
v 5.000000000000e-01 0.000000000000e+00 2.333330000000e-01
v 4.666670000000e-01 0.000000000000e+00 2.333330000000e-01
v 5.000000000000e-01 0.000000000000e+00 2.000000000000e-01
v 3.000000000000e-01 0.000000000000e+00 3.333330000000e-01
v 3.333330000000e-01 0.000000000000e+00 3.333330000000e-01
v 3.666670000000e-01 0.000000000000e+00 3.333330000000e-01
v 3.000000000000e-01 0.000000000000e+00 3.000000000000e-01
v 3.333330000000e-01 0.000000000000e+00 3.000000000000e-01
v 3.666670000000e-01 0.000000000000e+00 3.000000000000e-01
v 2.666670000000e-01 0.000000000000e+00 3.666670000000e-01
v 3.000000000000e-01 0.000000000000e+00 3.666670000000e-01
v 3.333330000000e-01 0.000000000000e+00 3.666670000000e-01
v 2.666670000000e-01 0.000000000000e+00 3.000000000000e-01
v 2.666670000000e-01 0.000000000000e+00 4.333330000000e-01
v 3.666670000000e-01 0.000000000000e+00 3.666670000000e-01
v 2.666670000000e-01 0.000000000000e+00 4.000000000000e-01
v 3.000000000000e-01 0.000000000000e+00 4.000000000000e-01
v 2.666670000000e-01 0.000000000000e+00 3.333330000000e-01
v 2.333330000000e-01 0.000000000000e+00 5.000000000000e-01
v 3.666670000000e-01 0.000000000000e+00 4.000000000000e-01
v 2.666670000000e-01 0.000000000000e+00 5.000000000000e-01
v 3.000000000000e-01 0.000000000000e+00 5.000000000000e-01
v 3.333330000000e-01 0.000000000000e+00 5.000000000000e-01
v 3.666670000000e-01 0.000000000000e+00 5.000000000000e-01
v 3.333330000000e-01 0.000000000000e+00 4.666670000000e-01
v 3.333330000000e-01 0.000000000000e+00 4.000000000000e-01
v 4.000000000000e-01 0.000000000000e+00 4.000000000000e-01
v 3.000000000000e-01 0.000000000000e+00 4.333330000000e-01
v 3.333330000000e-01 0.000000000000e+00 4.333330000000e-01
v 3.666670000000e-01 0.000000000000e+00 4.333330000000e-01
v 4.000000000000e-01 0.000000000000e+00 4.333330000000e-01
v 3.666670000000e-01 0.000000000000e+00 4.666670000000e-01
v 3.000000000000e-01 0.000000000000e+00 4.666670000000e-01
v 2.666670000000e-01 0.000000000000e+00 4.666670000000e-01
v 5.000000000000e-01 0.000000000000e+00 3.666670000000e-01
v 4.666670000000e-01 0.000000000000e+00 5.000000000000e-01
v 4.333330000000e-01 0.000000000000e+00 5.000000000000e-01
v 4.000000000000e-01 0.000000000000e+00 5.000000000000e-01
v 5.000000000000e-01 0.000000000000e+00 5.000000000000e-01
v 4.333330000000e-01 0.000000000000e+00 4.000000000000e-01
v 4.666670000000e-01 0.000000000000e+00 4.000000000000e-01
v 5.000000000000e-01 0.000000000000e+00 4.000000000000e-01
v 4.333330000000e-01 0.000000000000e+00 4.666670000000e-01
v 4.666670000000e-01 0.000000000000e+00 3.666670000000e-01
v 5.000000000000e-01 0.000000000000e+00 4.333330000000e-01
v 4.666670000000e-01 0.000000000000e+00 4.333330000000e-01
v 4.000000000000e-01 0.000000000000e+00 4.666670000000e-01
v 4.333330000000e-01 0.000000000000e+00 4.333330000000e-01
v 5.000000000000e-01 0.000000000000e+00 4.666670000000e-01
v 4.666670000000e-01 0.000000000000e+00 4.666670000000e-01
v -6.666670000000e-02 0.000000000000e+00 2.333330000000e-01
v 3.333330000000e-02 0.000000000000e+00 2.666670000000e-01
v 0.000000000000e+00 0.000000000000e+00 2.666670000000e-01
v -3.333330000000e-02 0.000000000000e+00 2.666670000000e-01
v -6.666670000000e-02 0.000000000000e+00 2.666670000000e-01
v -1.000000000000e-01 0.000000000000e+00 2.666670000000e-01
v -1.000000000000e-01 0.000000000000e+00 3.000000000000e-01
v -6.666670000000e-02 0.000000000000e+00 3.000000000000e-01
v -3.333330000000e-02 0.000000000000e+00 3.000000000000e-01
v 0.000000000000e+00 0.000000000000e+00 3.000000000000e-01
v 3.333330000000e-02 0.000000000000e+00 3.000000000000e-01
v 3.333330000000e-02 0.000000000000e+00 3.333330000000e-01
v 0.000000000000e+00 0.000000000000e+00 3.333330000000e-01
v -3.333330000000e-02 0.000000000000e+00 3.333330000000e-01
v -1.000000000000e-01 0.000000000000e+00 3.333330000000e-01
v -6.666670000000e-02 0.000000000000e+00 3.333330000000e-01
v 3.333330000000e-02 0.000000000000e+00 1.333330000000e-01
v 3.333330000000e-02 0.000000000000e+00 2.333330000000e-01
v -3.333330000000e-02 0.000000000000e+00 2.333330000000e-01
v 3.333330000000e-02 0.000000000000e+00 1.666670000000e-01
v 0.000000000000e+00 0.000000000000e+00 1.666670000000e-01
v -3.333330000000e-02 0.000000000000e+00 1.666670000000e-01
v 6.666670000000e-02 0.000000000000e+00 1.666670000000e-01
v 1.000000000000e-01 0.000000000000e+00 1.666670000000e-01
v 1.000000000000e-01 0.000000000000e+00 1.333330000000e-01
v 6.666670000000e-02 0.000000000000e+00 1.333330000000e-01
v 6.666670000000e-02 0.000000000000e+00 2.000000000000e-01
v 3.333330000000e-02 0.000000000000e+00 2.000000000000e-01
v 0.000000000000e+00 0.000000000000e+00 2.000000000000e-01
v -3.333330000000e-02 0.000000000000e+00 2.000000000000e-01
v -6.666670000000e-02 0.000000000000e+00 2.000000000000e-01
v 0.000000000000e+00 0.000000000000e+00 2.333330000000e-01
v 1.333330000000e-01 0.000000000000e+00 2.000000000000e-01
v 1.333330000000e-01 0.000000000000e+00 2.666670000000e-01
v 1.333330000000e-01 0.000000000000e+00 2.333330000000e-01
v 1.000000000000e-01 0.000000000000e+00 2.000000000000e-01
v 6.666670000000e-02 0.000000000000e+00 2.666670000000e-01
v 1.000000000000e-01 0.000000000000e+00 2.666670000000e-01
v 2.000000000000e-01 0.000000000000e+00 1.333330000000e-01
v 1.666670000000e-01 0.000000000000e+00 1.333330000000e-01
v 1.333330000000e-01 0.000000000000e+00 1.333330000000e-01
v 6.666670000000e-02 0.000000000000e+00 2.333330000000e-01
v 6.666670000000e-02 0.000000000000e+00 3.000000000000e-01
v 1.000000000000e-01 0.000000000000e+00 3.000000000000e-01
v 1.333330000000e-01 0.000000000000e+00 3.000000000000e-01
v 1.333330000000e-01 0.000000000000e+00 1.666670000000e-01
v 1.666670000000e-01 0.000000000000e+00 1.666670000000e-01
v 1.000000000000e-01 0.000000000000e+00 2.333330000000e-01
v 2.666670000000e-01 0.000000000000e+00 1.666670000000e-01
v 2.000000000000e-01 0.000000000000e+00 1.666670000000e-01
v 2.333330000000e-01 0.000000000000e+00 1.666670000000e-01
v 1.666670000000e-01 0.000000000000e+00 2.666670000000e-01
v 2.666670000000e-01 0.000000000000e+00 1.333330000000e-01
v 1.666670000000e-01 0.000000000000e+00 2.333330000000e-01
v 2.000000000000e-01 0.000000000000e+00 2.333330000000e-01
v 2.333330000000e-01 0.000000000000e+00 2.333330000000e-01
v 2.666670000000e-01 0.000000000000e+00 2.333330000000e-01
v 2.666670000000e-01 0.000000000000e+00 2.000000000000e-01
v 2.333330000000e-01 0.000000000000e+00 2.000000000000e-01
v 2.000000000000e-01 0.000000000000e+00 2.000000000000e-01
v 2.333330000000e-01 0.000000000000e+00 1.333330000000e-01
v 2.000000000000e-01 0.000000000000e+00 2.666670000000e-01
v 1.666670000000e-01 0.000000000000e+00 2.000000000000e-01
v 2.333330000000e-01 0.000000000000e+00 2.666670000000e-01
v 2.333330000000e-01 0.000000000000e+00 4.333330000000e-01
v 1.000000000000e-01 0.000000000000e+00 4.333330000000e-01
v 1.333330000000e-01 0.000000000000e+00 4.333330000000e-01
v 1.666670000000e-01 0.000000000000e+00 4.333330000000e-01
v 2.000000000000e-01 0.000000000000e+00 4.333330000000e-01
v 1.333330000000e-01 0.000000000000e+00 4.666670000000e-01
v 1.666670000000e-01 0.000000000000e+00 5.000000000000e-01
v 2.000000000000e-01 0.000000000000e+00 5.000000000000e-01
v 2.333330000000e-01 0.000000000000e+00 4.666670000000e-01
v 2.000000000000e-01 0.000000000000e+00 4.666670000000e-01
v 1.666670000000e-01 0.000000000000e+00 4.666670000000e-01
v 1.000000000000e-01 0.000000000000e+00 4.666670000000e-01
v 6.666670000000e-02 0.000000000000e+00 4.666670000000e-01
v 1.333330000000e-01 0.000000000000e+00 5.000000000000e-01
v 1.000000000000e-01 0.000000000000e+00 5.000000000000e-01
v 6.666670000000e-02 0.000000000000e+00 5.000000000000e-01
v 2.333330000000e-01 0.000000000000e+00 4.000000000000e-01
v 2.000000000000e-01 0.000000000000e+00 4.000000000000e-01
v 1.333330000000e-01 0.000000000000e+00 4.000000000000e-01
v 1.666670000000e-01 0.000000000000e+00 4.000000000000e-01
v 1.666670000000e-01 0.000000000000e+00 3.000000000000e-01
v 2.000000000000e-01 0.000000000000e+00 3.000000000000e-01
v 2.333330000000e-01 0.000000000000e+00 3.000000000000e-01
v 1.333330000000e-01 0.000000000000e+00 3.333330000000e-01
v 1.666670000000e-01 0.000000000000e+00 3.333330000000e-01
v 2.333330000000e-01 0.000000000000e+00 3.666670000000e-01
v 2.000000000000e-01 0.000000000000e+00 3.666670000000e-01
v 1.666670000000e-01 0.000000000000e+00 3.666670000000e-01
v 1.333330000000e-01 0.000000000000e+00 3.666670000000e-01
v 2.000000000000e-01 0.000000000000e+00 3.333330000000e-01
v 2.333330000000e-01 0.000000000000e+00 3.333330000000e-01
v 1.000000000000e-01 0.000000000000e+00 3.333330000000e-01
v 1.000000000000e-01 0.000000000000e+00 4.000000000000e-01
v 6.666670000000e-02 0.000000000000e+00 4.000000000000e-01
v 3.333330000000e-02 0.000000000000e+00 4.000000000000e-01
v 0.000000000000e+00 0.000000000000e+00 4.000000000000e-01
v 6.666670000000e-02 0.000000000000e+00 3.333330000000e-01
v 0.000000000000e+00 0.000000000000e+00 4.666670000000e-01
v 1.000000000000e-01 0.000000000000e+00 3.666670000000e-01
v 6.666670000000e-02 0.000000000000e+00 3.666670000000e-01
v 3.333330000000e-02 0.000000000000e+00 3.666670000000e-01
v 0.000000000000e+00 0.000000000000e+00 5.000000000000e-01
v 6.666670000000e-02 0.000000000000e+00 4.333330000000e-01
v 3.333330000000e-02 0.000000000000e+00 5.000000000000e-01
v 3.333330000000e-02 0.000000000000e+00 4.333330000000e-01
v 0.000000000000e+00 0.000000000000e+00 4.333330000000e-01
v 3.333330000000e-02 0.000000000000e+00 4.666670000000e-01
v -3.333330000000e-02 0.000000000000e+00 3.666670000000e-01
v -1.000000000000e-01 0.000000000000e+00 5.000000000000e-01
v -6.666670000000e-02 0.000000000000e+00 5.000000000000e-01
v -3.333330000000e-02 0.000000000000e+00 5.000000000000e-01
v -1.000000000000e-01 0.000000000000e+00 3.666670000000e-01
v -6.666670000000e-02 0.000000000000e+00 3.666670000000e-01
v -6.666670000000e-02 0.000000000000e+00 4.666670000000e-01
v -3.333330000000e-02 0.000000000000e+00 4.666670000000e-01
v -1.000000000000e-01 0.000000000000e+00 4.666670000000e-01
v -3.333330000000e-02 0.000000000000e+00 4.000000000000e-01
v 0.000000000000e+00 0.000000000000e+00 3.666670000000e-01
v -3.333330000000e-02 0.000000000000e+00 4.333330000000e-01
v -6.666670000000e-02 0.000000000000e+00 4.333330000000e-01
v -1.000000000000e-01 0.000000000000e+00 4.333330000000e-01
v -6.666670000000e-02 0.000000000000e+00 4.000000000000e-01
v -1.000000000000e-01 0.000000000000e+00 4.000000000000e-01
v 0.000000000000e+00 0.000000000000e+00 -2.666670000000e-01
v 1.000000000000e-01 0.000000000000e+00 -3.000000000000e-01
v 3.333330000000e-02 0.000000000000e+00 -3.333330000000e-01
v 0.000000000000e+00 0.000000000000e+00 -3.000000000000e-01
v 0.000000000000e+00 0.000000000000e+00 -2.000000000000e-01
v 6.666670000000e-02 0.000000000000e+00 -2.333330000000e-01
v 3.333330000000e-02 0.000000000000e+00 -2.333330000000e-01
v 0.000000000000e+00 0.000000000000e+00 -2.333330000000e-01
v 3.333330000000e-02 0.000000000000e+00 -3.000000000000e-01
v 6.666670000000e-02 0.000000000000e+00 -3.000000000000e-01
v 6.666670000000e-02 0.000000000000e+00 -2.666670000000e-01
v 3.333330000000e-02 0.000000000000e+00 -2.000000000000e-01
v 6.666670000000e-02 0.000000000000e+00 -3.333330000000e-01
v 1.000000000000e-01 0.000000000000e+00 -3.333330000000e-01
v 1.000000000000e-01 0.000000000000e+00 -2.666670000000e-01
v 3.333330000000e-02 0.000000000000e+00 -2.666670000000e-01
v -2.000000000000e-01 0.000000000000e+00 -2.000000000000e-01
v -1.333330000000e-01 0.000000000000e+00 -2.333330000000e-01
v -1.666670000000e-01 0.000000000000e+00 -2.333330000000e-01
v -2.333330000000e-01 0.000000000000e+00 -1.333330000000e-01
v -2.000000000000e-01 0.000000000000e+00 -1.333330000000e-01
v -1.333330000000e-01 0.000000000000e+00 -2.000000000000e-01
v -1.666670000000e-01 0.000000000000e+00 -2.000000000000e-01
v -2.000000000000e-01 0.000000000000e+00 -2.333330000000e-01
v -2.333330000000e-01 0.000000000000e+00 -2.333330000000e-01
v -2.333330000000e-01 0.000000000000e+00 -1.666670000000e-01
v -2.333330000000e-01 0.000000000000e+00 -2.000000000000e-01
v -2.000000000000e-01 0.000000000000e+00 -1.666670000000e-01
v -1.666670000000e-01 0.000000000000e+00 -1.666670000000e-01
v -2.000000000000e-01 0.000000000000e+00 -2.666670000000e-01
v -1.666670000000e-01 0.000000000000e+00 -2.666670000000e-01
v -1.333330000000e-01 0.000000000000e+00 -2.666670000000e-01
v -1.000000000000e-01 0.000000000000e+00 -2.000000000000e-01
v -3.333330000000e-02 0.000000000000e+00 -3.000000000000e-01
v -6.666670000000e-02 0.000000000000e+00 -2.000000000000e-01
v -1.333330000000e-01 0.000000000000e+00 -1.333330000000e-01
v -1.000000000000e-01 0.000000000000e+00 -2.333330000000e-01
v -1.333330000000e-01 0.000000000000e+00 -1.666670000000e-01
v -1.000000000000e-01 0.000000000000e+00 -1.666670000000e-01
v -6.666670000000e-02 0.000000000000e+00 -1.666670000000e-01
v -3.333330000000e-02 0.000000000000e+00 -1.666670000000e-01
v -3.333330000000e-02 0.000000000000e+00 -2.666670000000e-01
v -6.666670000000e-02 0.000000000000e+00 -2.666670000000e-01
v -3.333330000000e-02 0.000000000000e+00 -2.333330000000e-01
v -6.666670000000e-02 0.000000000000e+00 -2.333330000000e-01
v -1.000000000000e-01 0.000000000000e+00 -1.333330000000e-01
v -6.666670000000e-02 0.000000000000e+00 -1.333330000000e-01
v -3.333330000000e-02 0.000000000000e+00 -2.000000000000e-01
v -1.000000000000e-01 0.000000000000e+00 -3.000000000000e-01
v -6.666670000000e-02 0.000000000000e+00 -4.000000000000e-01
v -1.666670000000e-01 0.000000000000e+00 -3.666670000000e-01
v -6.666670000000e-02 0.000000000000e+00 -3.666670000000e-01
v -1.000000000000e-01 0.000000000000e+00 -3.666670000000e-01
v -1.000000000000e-01 0.000000000000e+00 -4.000000000000e-01
v -1.333330000000e-01 0.000000000000e+00 -3.666670000000e-01
v -6.666670000000e-02 0.000000000000e+00 -3.333330000000e-01
v -1.000000000000e-01 0.000000000000e+00 -3.333330000000e-01
v -1.333330000000e-01 0.000000000000e+00 -3.333330000000e-01
v -1.666670000000e-01 0.000000000000e+00 -3.333330000000e-01
v -1.333330000000e-01 0.000000000000e+00 -4.000000000000e-01
v -1.000000000000e-01 0.000000000000e+00 -2.666670000000e-01
v -6.666670000000e-02 0.000000000000e+00 -3.000000000000e-01
v -1.333330000000e-01 0.000000000000e+00 -3.000000000000e-01
v -1.666670000000e-01 0.000000000000e+00 -3.000000000000e-01
v -1.666670000000e-01 0.000000000000e+00 -4.666670000000e-01
v 0.000000000000e+00 0.000000000000e+00 -5.000000000000e-01
v -3.333330000000e-02 0.000000000000e+00 -5.000000000000e-01
v -6.666670000000e-02 0.000000000000e+00 -5.000000000000e-01
v -1.333330000000e-01 0.000000000000e+00 -4.666670000000e-01
v -1.000000000000e-01 0.000000000000e+00 -4.666670000000e-01
v -6.666670000000e-02 0.000000000000e+00 -4.666670000000e-01
v -3.333330000000e-02 0.000000000000e+00 -4.666670000000e-01
v -1.000000000000e-01 0.000000000000e+00 -5.000000000000e-01
v -1.333330000000e-01 0.000000000000e+00 -5.000000000000e-01
v -1.666670000000e-01 0.000000000000e+00 -4.000000000000e-01
v -6.666670000000e-02 0.000000000000e+00 -4.333330000000e-01
v -1.000000000000e-01 0.000000000000e+00 -4.333330000000e-01
v -1.666670000000e-01 0.000000000000e+00 -4.333330000000e-01
v -3.333330000000e-02 0.000000000000e+00 -4.333330000000e-01
v -1.333330000000e-01 0.000000000000e+00 -4.333330000000e-01
v 3.333330000000e-02 0.000000000000e+00 -5.000000000000e-01
v 0.000000000000e+00 0.000000000000e+00 -3.333330000000e-01
v 0.000000000000e+00 0.000000000000e+00 -4.333330000000e-01
v 3.333330000000e-02 0.000000000000e+00 -4.333330000000e-01
v 6.666670000000e-02 0.000000000000e+00 -4.333330000000e-01
v 0.000000000000e+00 0.000000000000e+00 -4.666670000000e-01
v 3.333330000000e-02 0.000000000000e+00 -4.666670000000e-01
v 6.666670000000e-02 0.000000000000e+00 -4.666670000000e-01
v -3.333330000000e-02 0.000000000000e+00 -3.666670000000e-01
v 0.000000000000e+00 0.000000000000e+00 -3.666670000000e-01
v 3.333330000000e-02 0.000000000000e+00 -3.666670000000e-01
v -3.333330000000e-02 0.000000000000e+00 -4.000000000000e-01
v 0.000000000000e+00 0.000000000000e+00 -4.000000000000e-01
v 3.333330000000e-02 0.000000000000e+00 -4.000000000000e-01
v 6.666670000000e-02 0.000000000000e+00 -5.000000000000e-01
v -3.333330000000e-02 0.000000000000e+00 -3.333330000000e-01
v 6.666670000000e-02 0.000000000000e+00 -4.000000000000e-01
v 6.666670000000e-02 0.000000000000e+00 -3.666670000000e-01
v 1.000000000000e-01 0.000000000000e+00 -3.666670000000e-01
v 1.333330000000e-01 0.000000000000e+00 -4.000000000000e-01
v 1.333330000000e-01 0.000000000000e+00 -3.666670000000e-01
v 1.000000000000e-01 0.000000000000e+00 -4.000000000000e-01
v 1.000000000000e-01 0.000000000000e+00 -4.666670000000e-01
v 1.000000000000e-01 0.000000000000e+00 -5.000000000000e-01
v 1.333330000000e-01 0.000000000000e+00 -5.000000000000e-01
v 1.666670000000e-01 0.000000000000e+00 -5.000000000000e-01
v 2.000000000000e-01 0.000000000000e+00 -5.000000000000e-01
v 1.666670000000e-01 0.000000000000e+00 -4.333330000000e-01
v 1.333330000000e-01 0.000000000000e+00 -4.333330000000e-01
v 1.000000000000e-01 0.000000000000e+00 -4.333330000000e-01
v 1.666670000000e-01 0.000000000000e+00 -4.666670000000e-01
v 1.333330000000e-01 0.000000000000e+00 -4.666670000000e-01
v -3.666670000000e-01 0.000000000000e+00 -4.666670000000e-01
v -5.000000000000e-01 0.000000000000e+00 -4.666670000000e-01
v -4.666670000000e-01 0.000000000000e+00 -4.666670000000e-01
v -4.333330000000e-01 0.000000000000e+00 -4.666670000000e-01
v -4.000000000000e-01 0.000000000000e+00 -4.666670000000e-01
v -5.000000000000e-01 0.000000000000e+00 -5.000000000000e-01
v -5.000000000000e-01 0.000000000000e+00 -4.333330000000e-01
v -4.666670000000e-01 0.000000000000e+00 -4.333330000000e-01
v -4.333330000000e-01 0.000000000000e+00 -4.333330000000e-01
v -4.000000000000e-01 0.000000000000e+00 -4.333330000000e-01
v -3.666670000000e-01 0.000000000000e+00 -4.333330000000e-01
v -4.666670000000e-01 0.000000000000e+00 -5.000000000000e-01
v -4.333330000000e-01 0.000000000000e+00 -5.000000000000e-01
v -4.000000000000e-01 0.000000000000e+00 -5.000000000000e-01
v -3.666670000000e-01 0.000000000000e+00 -5.000000000000e-01
v -5.000000000000e-01 0.000000000000e+00 -3.333330000000e-01
v -4.333330000000e-01 0.000000000000e+00 -3.666670000000e-01
v -4.000000000000e-01 0.000000000000e+00 -3.666670000000e-01
v -5.000000000000e-01 0.000000000000e+00 -4.000000000000e-01
v -4.333330000000e-01 0.000000000000e+00 -3.000000000000e-01
v -4.666670000000e-01 0.000000000000e+00 -3.000000000000e-01
v -5.000000000000e-01 0.000000000000e+00 -3.000000000000e-01
v -4.666670000000e-01 0.000000000000e+00 -3.666670000000e-01
v -3.666670000000e-01 0.000000000000e+00 -4.000000000000e-01
v -4.000000000000e-01 0.000000000000e+00 -4.000000000000e-01
v -5.000000000000e-01 0.000000000000e+00 -3.666670000000e-01
v -4.333330000000e-01 0.000000000000e+00 -4.000000000000e-01
v -4.000000000000e-01 0.000000000000e+00 -3.333330000000e-01
v -4.333330000000e-01 0.000000000000e+00 -3.333330000000e-01
v -4.666670000000e-01 0.000000000000e+00 -3.333330000000e-01
v -4.666670000000e-01 0.000000000000e+00 -4.000000000000e-01
v -2.666670000000e-01 0.000000000000e+00 -4.000000000000e-01
v -2.333330000000e-01 0.000000000000e+00 -4.000000000000e-01
v -2.000000000000e-01 0.000000000000e+00 -4.000000000000e-01
v -3.000000000000e-01 0.000000000000e+00 -4.000000000000e-01
v -3.333330000000e-01 0.000000000000e+00 -4.000000000000e-01
v -2.333330000000e-01 0.000000000000e+00 -3.666670000000e-01
v -3.666670000000e-01 0.000000000000e+00 -3.333330000000e-01
v -2.000000000000e-01 0.000000000000e+00 -4.333330000000e-01
v -2.666670000000e-01 0.000000000000e+00 -3.333330000000e-01
v -3.000000000000e-01 0.000000000000e+00 -3.333330000000e-01
v -3.333330000000e-01 0.000000000000e+00 -3.333330000000e-01
v -2.666670000000e-01 0.000000000000e+00 -3.666670000000e-01
v -3.000000000000e-01 0.000000000000e+00 -3.666670000000e-01
v -3.333330000000e-01 0.000000000000e+00 -3.666670000000e-01
v -3.666670000000e-01 0.000000000000e+00 -3.666670000000e-01
v -3.000000000000e-01 0.000000000000e+00 -4.333330000000e-01
v -1.666670000000e-01 0.000000000000e+00 -5.000000000000e-01
v -2.000000000000e-01 0.000000000000e+00 -4.666670000000e-01
v -2.333330000000e-01 0.000000000000e+00 -4.666670000000e-01
v -2.666670000000e-01 0.000000000000e+00 -4.333330000000e-01
v -2.666670000000e-01 0.000000000000e+00 -4.666670000000e-01
v -3.000000000000e-01 0.000000000000e+00 -4.666670000000e-01
v -3.333330000000e-01 0.000000000000e+00 -4.666670000000e-01
v -2.000000000000e-01 0.000000000000e+00 -5.000000000000e-01
v -2.333330000000e-01 0.000000000000e+00 -4.333330000000e-01
v -2.333330000000e-01 0.000000000000e+00 -5.000000000000e-01
v -2.666670000000e-01 0.000000000000e+00 -5.000000000000e-01
v -3.000000000000e-01 0.000000000000e+00 -5.000000000000e-01
v -3.333330000000e-01 0.000000000000e+00 -5.000000000000e-01
v -3.333330000000e-01 0.000000000000e+00 -4.333330000000e-01
v -4.000000000000e-01 0.000000000000e+00 -1.666670000000e-01
v -4.333330000000e-01 0.000000000000e+00 -1.666670000000e-01
v -4.666670000000e-01 0.000000000000e+00 -1.666670000000e-01
v -4.000000000000e-01 0.000000000000e+00 -1.000000000000e-01
v -4.333330000000e-01 0.000000000000e+00 -1.000000000000e-01
v -4.666670000000e-01 0.000000000000e+00 -1.000000000000e-01
v -5.000000000000e-01 0.000000000000e+00 -1.000000000000e-01
v -5.000000000000e-01 0.000000000000e+00 -1.333330000000e-01
v -4.666670000000e-01 0.000000000000e+00 -1.333330000000e-01
v -4.333330000000e-01 0.000000000000e+00 -1.333330000000e-01
v -4.000000000000e-01 0.000000000000e+00 -1.333330000000e-01
v -5.000000000000e-01 0.000000000000e+00 -6.666670000000e-02
v -4.666670000000e-01 0.000000000000e+00 -6.666670000000e-02
v -4.333330000000e-01 0.000000000000e+00 -6.666670000000e-02
v -4.000000000000e-01 0.000000000000e+00 -6.666670000000e-02
v -5.000000000000e-01 0.000000000000e+00 -1.666670000000e-01
v -5.000000000000e-01 0.000000000000e+00 -2.666670000000e-01
v -4.666670000000e-01 0.000000000000e+00 -2.333330000000e-01
v -4.333330000000e-01 0.000000000000e+00 -2.333330000000e-01
v -4.000000000000e-01 0.000000000000e+00 -2.333330000000e-01
v -3.666670000000e-01 0.000000000000e+00 -2.333330000000e-01
v -5.000000000000e-01 0.000000000000e+00 -2.333330000000e-01
v -5.000000000000e-01 0.000000000000e+00 -2.000000000000e-01
v -4.666670000000e-01 0.000000000000e+00 -2.000000000000e-01
v -4.333330000000e-01 0.000000000000e+00 -2.000000000000e-01
v -4.000000000000e-01 0.000000000000e+00 -2.000000000000e-01
v -4.666670000000e-01 0.000000000000e+00 -2.666670000000e-01
v -4.333330000000e-01 0.000000000000e+00 -2.666670000000e-01
v -4.000000000000e-01 0.000000000000e+00 -3.000000000000e-01
v -3.666670000000e-01 0.000000000000e+00 -3.000000000000e-01
v -3.666670000000e-01 0.000000000000e+00 -2.666670000000e-01
v -4.000000000000e-01 0.000000000000e+00 -2.666670000000e-01
v -3.000000000000e-01 0.000000000000e+00 -2.333330000000e-01
v -3.333330000000e-01 0.000000000000e+00 -2.333330000000e-01
v -2.666670000000e-01 0.000000000000e+00 -3.000000000000e-01
v -2.333330000000e-01 0.000000000000e+00 -3.333330000000e-01
v -3.333330000000e-01 0.000000000000e+00 -3.000000000000e-01
v -3.000000000000e-01 0.000000000000e+00 -3.000000000000e-01
v -2.333330000000e-01 0.000000000000e+00 -3.000000000000e-01
v -2.000000000000e-01 0.000000000000e+00 -3.000000000000e-01
v -2.000000000000e-01 0.000000000000e+00 -3.333330000000e-01
v -3.666670000000e-01 0.000000000000e+00 -2.000000000000e-01
v -2.000000000000e-01 0.000000000000e+00 -3.666670000000e-01
v -2.333330000000e-01 0.000000000000e+00 -2.666670000000e-01
v -2.666670000000e-01 0.000000000000e+00 -2.666670000000e-01
v -3.000000000000e-01 0.000000000000e+00 -2.666670000000e-01
v -3.333330000000e-01 0.000000000000e+00 -2.666670000000e-01
v -2.666670000000e-01 0.000000000000e+00 -2.333330000000e-01
v -3.333330000000e-01 0.000000000000e+00 -1.333330000000e-01
v -3.666670000000e-01 0.000000000000e+00 -1.333330000000e-01
v -3.333330000000e-01 0.000000000000e+00 -2.000000000000e-01
v -3.000000000000e-01 0.000000000000e+00 -2.000000000000e-01
v -2.666670000000e-01 0.000000000000e+00 -2.000000000000e-01
v -3.333330000000e-01 0.000000000000e+00 -6.666670000000e-02
v -3.666670000000e-01 0.000000000000e+00 -6.666670000000e-02
v -3.666670000000e-01 0.000000000000e+00 -1.666670000000e-01
v -3.333330000000e-01 0.000000000000e+00 -1.666670000000e-01
v -3.000000000000e-01 0.000000000000e+00 -1.666670000000e-01
v -3.000000000000e-01 0.000000000000e+00 -1.000000000000e-01
v -3.333330000000e-01 0.000000000000e+00 -1.000000000000e-01
v -2.666670000000e-01 0.000000000000e+00 -1.666670000000e-01
v -3.666670000000e-01 0.000000000000e+00 -1.000000000000e-01
v -3.000000000000e-01 0.000000000000e+00 -1.333330000000e-01
v -2.666670000000e-01 0.000000000000e+00 -1.333330000000e-01
v -1.000000000000e-01 0.000000000000e+00 -3.333330000000e-02
v -1.333330000000e-01 0.000000000000e+00 -3.333330000000e-02
v -1.666670000000e-01 0.000000000000e+00 -3.333330000000e-02
v -2.000000000000e-01 0.000000000000e+00 -3.333330000000e-02
v -6.666670000000e-02 0.000000000000e+00 -6.666670000000e-02
v -1.000000000000e-01 0.000000000000e+00 -6.666670000000e-02
v -1.333330000000e-01 0.000000000000e+00 -6.666670000000e-02
v -1.666670000000e-01 0.000000000000e+00 -6.666670000000e-02
v -2.000000000000e-01 0.000000000000e+00 -6.666670000000e-02
v -1.666670000000e-01 0.000000000000e+00 -1.333330000000e-01
v -2.000000000000e-01 0.000000000000e+00 -1.000000000000e-01
v -1.666670000000e-01 0.000000000000e+00 -1.000000000000e-01
v -6.666670000000e-02 0.000000000000e+00 -1.000000000000e-01
v -1.000000000000e-01 0.000000000000e+00 -1.000000000000e-01
v -1.333330000000e-01 0.000000000000e+00 -1.000000000000e-01
v 0.000000000000e+00 0.000000000000e+00 -1.333330000000e-01
v -3.333330000000e-02 0.000000000000e+00 0.000000000000e+00
v -6.666670000000e-02 0.000000000000e+00 0.000000000000e+00
v -3.333330000000e-02 0.000000000000e+00 -1.333330000000e-01
v 0.000000000000e+00 0.000000000000e+00 -3.333330000000e-02
v -3.333330000000e-02 0.000000000000e+00 -3.333330000000e-02
v -6.666670000000e-02 0.000000000000e+00 -3.333330000000e-02
v 0.000000000000e+00 0.000000000000e+00 -1.666670000000e-01
v 3.333330000000e-02 0.000000000000e+00 -6.666670000000e-02
v 0.000000000000e+00 0.000000000000e+00 -6.666670000000e-02
v -3.333330000000e-02 0.000000000000e+00 -6.666670000000e-02
v -3.333330000000e-02 0.000000000000e+00 -1.000000000000e-01
v 0.000000000000e+00 0.000000000000e+00 -1.000000000000e-01
v 3.333330000000e-02 0.000000000000e+00 -1.000000000000e-01
v 3.333330000000e-02 0.000000000000e+00 -1.666670000000e-01
v 3.333330000000e-02 0.000000000000e+00 -1.333330000000e-01
v -2.333330000000e-01 0.000000000000e+00 1.333330000000e-01
v -2.000000000000e-01 0.000000000000e+00 1.000000000000e-01
v -2.333330000000e-01 0.000000000000e+00 1.000000000000e-01
v -1.666670000000e-01 0.000000000000e+00 6.666670000000e-02
v -2.000000000000e-01 0.000000000000e+00 6.666670000000e-02
v -1.333330000000e-01 0.000000000000e+00 0.000000000000e+00
v -2.333330000000e-01 0.000000000000e+00 6.666670000000e-02
v -1.333330000000e-01 0.000000000000e+00 3.333330000000e-02
v -2.000000000000e-01 0.000000000000e+00 3.333330000000e-02
v -1.666670000000e-01 0.000000000000e+00 3.333330000000e-02
v -2.333330000000e-01 0.000000000000e+00 3.333330000000e-02
v -1.000000000000e-01 0.000000000000e+00 0.000000000000e+00
v -1.666670000000e-01 0.000000000000e+00 0.000000000000e+00
v -2.333330000000e-01 0.000000000000e+00 0.000000000000e+00
v -2.000000000000e-01 0.000000000000e+00 0.000000000000e+00
v -6.666670000000e-02 0.000000000000e+00 1.000000000000e-01
v -1.000000000000e-01 0.000000000000e+00 1.000000000000e-01
v -1.000000000000e-01 0.000000000000e+00 3.333330000000e-02
v -1.333330000000e-01 0.000000000000e+00 1.000000000000e-01
v -1.666670000000e-01 0.000000000000e+00 1.000000000000e-01
v -3.333330000000e-02 0.000000000000e+00 6.666670000000e-02
v -6.666670000000e-02 0.000000000000e+00 6.666670000000e-02
v -1.000000000000e-01 0.000000000000e+00 6.666670000000e-02
v -1.333330000000e-01 0.000000000000e+00 6.666670000000e-02
v -3.333330000000e-02 0.000000000000e+00 3.333330000000e-02
v -6.666670000000e-02 0.000000000000e+00 3.333330000000e-02
v -6.666670000000e-02 0.000000000000e+00 1.333330000000e-01
v -2.000000000000e-01 0.000000000000e+00 1.333330000000e-01
v -1.000000000000e-01 0.000000000000e+00 1.333330000000e-01
v -1.333330000000e-01 0.000000000000e+00 1.333330000000e-01
v -1.666670000000e-01 0.000000000000e+00 1.333330000000e-01
v -4.666670000000e-01 0.000000000000e+00 2.000000000000e-01
v -3.666670000000e-01 0.000000000000e+00 6.666670000000e-02
v -4.000000000000e-01 0.000000000000e+00 6.666670000000e-02
v -4.666670000000e-01 0.000000000000e+00 1.666670000000e-01
v -5.000000000000e-01 0.000000000000e+00 1.666670000000e-01
v -5.000000000000e-01 0.000000000000e+00 1.000000000000e-01
v -4.666670000000e-01 0.000000000000e+00 1.000000000000e-01
v -4.333330000000e-01 0.000000000000e+00 1.000000000000e-01
v -4.000000000000e-01 0.000000000000e+00 1.000000000000e-01
v -4.333330000000e-01 0.000000000000e+00 1.666670000000e-01
v -4.000000000000e-01 0.000000000000e+00 1.666670000000e-01
v -4.000000000000e-01 0.000000000000e+00 1.333330000000e-01
v -4.333330000000e-01 0.000000000000e+00 1.333330000000e-01
v -4.666670000000e-01 0.000000000000e+00 1.333330000000e-01
v -5.000000000000e-01 0.000000000000e+00 1.333330000000e-01
v -5.000000000000e-01 0.000000000000e+00 2.000000000000e-01
v -4.333330000000e-01 0.000000000000e+00 -3.333330000000e-02
v -4.666670000000e-01 0.000000000000e+00 6.666670000000e-02
v -5.000000000000e-01 0.000000000000e+00 6.666670000000e-02
v -4.333330000000e-01 0.000000000000e+00 6.666670000000e-02
v -4.000000000000e-01 0.000000000000e+00 3.333330000000e-02
v -5.000000000000e-01 0.000000000000e+00 -3.333330000000e-02
v -4.666670000000e-01 0.000000000000e+00 -3.333330000000e-02
v -4.333330000000e-01 0.000000000000e+00 3.333330000000e-02
v -4.666670000000e-01 0.000000000000e+00 3.333330000000e-02
v -5.000000000000e-01 0.000000000000e+00 3.333330000000e-02
v -4.000000000000e-01 0.000000000000e+00 -3.333330000000e-02
v -3.666670000000e-01 0.000000000000e+00 -3.333330000000e-02
v -5.000000000000e-01 0.000000000000e+00 0.000000000000e+00
v -4.666670000000e-01 0.000000000000e+00 0.000000000000e+00
v -4.333330000000e-01 0.000000000000e+00 0.000000000000e+00
v -4.000000000000e-01 0.000000000000e+00 0.000000000000e+00
v -3.000000000000e-01 0.000000000000e+00 6.666670000000e-02
v -3.666670000000e-01 0.000000000000e+00 1.333330000000e-01
v -3.333330000000e-01 0.000000000000e+00 6.666670000000e-02
v -2.666670000000e-01 0.000000000000e+00 3.333330000000e-02
v -3.000000000000e-01 0.000000000000e+00 3.333330000000e-02
v -3.666670000000e-01 0.000000000000e+00 1.666670000000e-01
v -3.333330000000e-01 0.000000000000e+00 1.666670000000e-01
v -3.000000000000e-01 0.000000000000e+00 1.666670000000e-01
v -3.333330000000e-01 0.000000000000e+00 1.333330000000e-01
v -3.000000000000e-01 0.000000000000e+00 1.333330000000e-01
v -2.666670000000e-01 0.000000000000e+00 1.333330000000e-01
v -2.666670000000e-01 0.000000000000e+00 1.000000000000e-01
v -3.000000000000e-01 0.000000000000e+00 1.000000000000e-01
v -3.333330000000e-01 0.000000000000e+00 1.000000000000e-01
v -3.666670000000e-01 0.000000000000e+00 1.000000000000e-01
v -2.666670000000e-01 0.000000000000e+00 6.666670000000e-02
v -2.333330000000e-01 0.000000000000e+00 -3.333330000000e-02
v -3.333330000000e-01 0.000000000000e+00 3.333330000000e-02
v -3.333330000000e-01 0.000000000000e+00 -3.333330000000e-02
v -3.000000000000e-01 0.000000000000e+00 -3.333330000000e-02
v -2.666670000000e-01 0.000000000000e+00 -3.333330000000e-02
v -3.666670000000e-01 0.000000000000e+00 3.333330000000e-02
v -3.666670000000e-01 0.000000000000e+00 0.000000000000e+00
v -3.333330000000e-01 0.000000000000e+00 0.000000000000e+00
v -3.000000000000e-01 0.000000000000e+00 0.000000000000e+00
v -2.666670000000e-01 0.000000000000e+00 0.000000000000e+00
v -2.666670000000e-01 0.000000000000e+00 -1.000000000000e-01
v -2.333330000000e-01 0.000000000000e+00 -1.000000000000e-01
v -2.333330000000e-01 0.000000000000e+00 -6.666670000000e-02
v -3.000000000000e-01 0.000000000000e+00 -6.666670000000e-02
v -2.666670000000e-01 0.000000000000e+00 -6.666670000000e-02
v -4.666670000000e-01 0.000000000000e+00 4.666670000000e-01
v -4.333330000000e-01 0.000000000000e+00 5.000000000000e-01
v -5.000000000000e-01 0.000000000000e+00 4.333330000000e-01
v -4.666670000000e-01 0.000000000000e+00 5.000000000000e-01
v -5.000000000000e-01 0.000000000000e+00 5.000000000000e-01
v -4.666670000000e-01 0.000000000000e+00 4.333330000000e-01
v -4.333330000000e-01 0.000000000000e+00 4.333330000000e-01
v -4.333330000000e-01 0.000000000000e+00 3.666670000000e-01
v -5.000000000000e-01 0.000000000000e+00 3.666670000000e-01
v -4.333330000000e-01 0.000000000000e+00 4.666670000000e-01
v -5.000000000000e-01 0.000000000000e+00 4.666670000000e-01
v -5.000000000000e-01 0.000000000000e+00 4.000000000000e-01
v -4.666670000000e-01 0.000000000000e+00 4.000000000000e-01
v -4.333330000000e-01 0.000000000000e+00 4.000000000000e-01
v -4.666670000000e-01 0.000000000000e+00 3.666670000000e-01
v -4.000000000000e-01 0.000000000000e+00 4.333330000000e-01
v -3.666670000000e-01 0.000000000000e+00 4.333330000000e-01
v -3.000000000000e-01 0.000000000000e+00 3.666670000000e-01
v -3.333330000000e-01 0.000000000000e+00 4.666670000000e-01
v -3.666670000000e-01 0.000000000000e+00 4.666670000000e-01
v -3.000000000000e-01 0.000000000000e+00 3.333330000000e-01
v -4.000000000000e-01 0.000000000000e+00 4.666670000000e-01
v -4.000000000000e-01 0.000000000000e+00 5.000000000000e-01
v -3.666670000000e-01 0.000000000000e+00 5.000000000000e-01
v -3.333330000000e-01 0.000000000000e+00 4.333330000000e-01
v -3.333330000000e-01 0.000000000000e+00 3.666670000000e-01
v -3.666670000000e-01 0.000000000000e+00 3.666670000000e-01
v -4.000000000000e-01 0.000000000000e+00 4.000000000000e-01
v -3.666670000000e-01 0.000000000000e+00 4.000000000000e-01
v -3.333330000000e-01 0.000000000000e+00 4.000000000000e-01
v -4.000000000000e-01 0.000000000000e+00 3.666670000000e-01
v -5.000000000000e-01 0.000000000000e+00 3.333330000000e-01
v -4.666670000000e-01 0.000000000000e+00 3.333330000000e-01
v -4.333330000000e-01 0.000000000000e+00 3.333330000000e-01
v -4.333330000000e-01 0.000000000000e+00 2.000000000000e-01
v -4.000000000000e-01 0.000000000000e+00 2.000000000000e-01
v -4.333330000000e-01 0.000000000000e+00 3.000000000000e-01
v -4.000000000000e-01 0.000000000000e+00 2.333330000000e-01
v -4.333330000000e-01 0.000000000000e+00 2.333330000000e-01
v -5.000000000000e-01 0.000000000000e+00 2.333330000000e-01
v -5.000000000000e-01 0.000000000000e+00 2.666670000000e-01
v -5.000000000000e-01 0.000000000000e+00 3.000000000000e-01
v -4.666670000000e-01 0.000000000000e+00 2.666670000000e-01
v -4.333330000000e-01 0.000000000000e+00 2.666670000000e-01
v -4.000000000000e-01 0.000000000000e+00 2.666670000000e-01
v -4.666670000000e-01 0.000000000000e+00 2.333330000000e-01
v -4.666670000000e-01 0.000000000000e+00 3.000000000000e-01
v -3.666670000000e-01 0.000000000000e+00 2.666670000000e-01
v -3.666670000000e-01 0.000000000000e+00 2.333330000000e-01
v -3.000000000000e-01 0.000000000000e+00 2.333330000000e-01
v -3.333330000000e-01 0.000000000000e+00 2.333330000000e-01
v -4.000000000000e-01 0.000000000000e+00 3.000000000000e-01
v -3.666670000000e-01 0.000000000000e+00 3.000000000000e-01
v -3.333330000000e-01 0.000000000000e+00 3.000000000000e-01
v -3.000000000000e-01 0.000000000000e+00 3.000000000000e-01
v -3.666670000000e-01 0.000000000000e+00 2.000000000000e-01
v -3.333330000000e-01 0.000000000000e+00 2.000000000000e-01
v -3.000000000000e-01 0.000000000000e+00 2.000000000000e-01
v -3.333330000000e-01 0.000000000000e+00 2.666670000000e-01
v -3.000000000000e-01 0.000000000000e+00 2.666670000000e-01
v -4.000000000000e-01 0.000000000000e+00 3.333330000000e-01
v -3.333330000000e-01 0.000000000000e+00 3.333330000000e-01
v -3.666670000000e-01 0.000000000000e+00 3.333330000000e-01
v -2.333330000000e-01 0.000000000000e+00 4.333330000000e-01
v -2.000000000000e-01 0.000000000000e+00 3.666670000000e-01
v -2.333330000000e-01 0.000000000000e+00 3.666670000000e-01
v -3.333330000000e-01 0.000000000000e+00 5.000000000000e-01
v -2.000000000000e-01 0.000000000000e+00 4.000000000000e-01
v -3.000000000000e-01 0.000000000000e+00 5.000000000000e-01
v -2.333330000000e-01 0.000000000000e+00 4.000000000000e-01
v -2.666670000000e-01 0.000000000000e+00 5.000000000000e-01
v -2.666670000000e-01 0.000000000000e+00 4.000000000000e-01
v -3.000000000000e-01 0.000000000000e+00 4.333330000000e-01
v -2.666670000000e-01 0.000000000000e+00 4.333330000000e-01
v -3.000000000000e-01 0.000000000000e+00 4.000000000000e-01
v -2.666670000000e-01 0.000000000000e+00 3.666670000000e-01
v -2.333330000000e-01 0.000000000000e+00 4.666670000000e-01
v -2.666670000000e-01 0.000000000000e+00 4.666670000000e-01
v -3.000000000000e-01 0.000000000000e+00 4.666670000000e-01
v -1.666670000000e-01 0.000000000000e+00 5.000000000000e-01
v -1.666670000000e-01 0.000000000000e+00 3.666670000000e-01
v -1.333330000000e-01 0.000000000000e+00 3.666670000000e-01
v -1.333330000000e-01 0.000000000000e+00 3.333330000000e-01
v -1.666670000000e-01 0.000000000000e+00 3.333330000000e-01
v -1.333330000000e-01 0.000000000000e+00 4.000000000000e-01
v -1.666670000000e-01 0.000000000000e+00 4.000000000000e-01
v -1.333330000000e-01 0.000000000000e+00 5.000000000000e-01
v -2.000000000000e-01 0.000000000000e+00 4.666670000000e-01
v -1.333330000000e-01 0.000000000000e+00 4.333330000000e-01
v -2.333330000000e-01 0.000000000000e+00 5.000000000000e-01
v -2.000000000000e-01 0.000000000000e+00 5.000000000000e-01
v -2.000000000000e-01 0.000000000000e+00 4.333330000000e-01
v -1.666670000000e-01 0.000000000000e+00 4.333330000000e-01
v -1.333330000000e-01 0.000000000000e+00 4.666670000000e-01
v -1.666670000000e-01 0.000000000000e+00 4.666670000000e-01
v -2.333330000000e-01 0.000000000000e+00 2.000000000000e-01
v -2.000000000000e-01 0.000000000000e+00 2.000000000000e-01
v -2.333330000000e-01 0.000000000000e+00 3.333330000000e-01
v -2.666670000000e-01 0.000000000000e+00 2.333330000000e-01
v -2.666670000000e-01 0.000000000000e+00 2.000000000000e-01
v -2.666670000000e-01 0.000000000000e+00 3.333330000000e-01
v -2.666670000000e-01 0.000000000000e+00 1.666670000000e-01
v -2.666670000000e-01 0.000000000000e+00 2.666670000000e-01
v -2.333330000000e-01 0.000000000000e+00 3.000000000000e-01
v -2.666670000000e-01 0.000000000000e+00 3.000000000000e-01
v -2.333330000000e-01 0.000000000000e+00 2.666670000000e-01
v -2.333330000000e-01 0.000000000000e+00 1.666670000000e-01
v -2.000000000000e-01 0.000000000000e+00 1.666670000000e-01
v -1.666670000000e-01 0.000000000000e+00 1.666670000000e-01
v -2.000000000000e-01 0.000000000000e+00 2.333330000000e-01
v -2.333330000000e-01 0.000000000000e+00 2.333330000000e-01
v -1.333330000000e-01 0.000000000000e+00 2.333330000000e-01
v -1.666670000000e-01 0.000000000000e+00 2.333330000000e-01
v -1.000000000000e-01 0.000000000000e+00 2.000000000000e-01
v -1.333330000000e-01 0.000000000000e+00 2.000000000000e-01
v -1.666670000000e-01 0.000000000000e+00 2.000000000000e-01
v -2.000000000000e-01 0.000000000000e+00 2.666670000000e-01
v -1.666670000000e-01 0.000000000000e+00 2.666670000000e-01
v -1.333330000000e-01 0.000000000000e+00 2.666670000000e-01
v -1.000000000000e-01 0.000000000000e+00 2.333330000000e-01
v -2.000000000000e-01 0.000000000000e+00 3.000000000000e-01
v -1.666670000000e-01 0.000000000000e+00 3.000000000000e-01
v -1.333330000000e-01 0.000000000000e+00 3.000000000000e-01
v -6.666670000000e-02 0.000000000000e+00 1.666670000000e-01
v -1.000000000000e-01 0.000000000000e+00 1.666670000000e-01
v -1.333330000000e-01 0.000000000000e+00 1.666670000000e-01
v -2.000000000000e-01 0.000000000000e+00 3.333330000000e-01
f 590 586 596
f 596 586 587
f 596 587 597
f 597 587 588
f 597 588 598
f 598 588 589
f 598 589 599
f 599 589 585
f 599 585 644
f 644 585 638
f 644 638 643
f 643 638 637
f 643 637 642
f 642 637 636
f 642 636 641
f 641 636 634
f 641 634 639
f 639 634 633
f 639 633 632
f 632 633 537
f 632 537 546
f 546 537 541
f 546 541 545
f 545 541 542
f 545 542 540
f 540 542 543
f 540 543 539
f 539 543 544
f 539 544 538
f 538 544 558
f 538 558 553
f 553 558 559
f 553 559 567
f 567 559 560
f 567 560 576
f 576 560 575
f 576 575 577
f 577 575 584
f 577 584 578
f 578 584 583
f 578 583 579
f 579 583 33
f 579 33 45
f 45 33 34
f 45 34 47
f 47 34 35
f 47 35 46
f 46 35 36
f 46 36 54
f 54 36 61
f 54 61 53
f 53 61 60
f 53 60 52
f 52 60 59
f 52 59 64
f 64 59 63
f 64 63 65
f 65 63 78
f 65 78 66
f 66 78 77
f 586 591 587
f 587 591 592
f 587 592 588
f 588 592 593
f 588 593 589
f 589 593 594
f 589 594 585
f 585 594 595
f 585 595 638
f 638 595 645
f 638 645 637
f 637 645 631
f 637 631 636
f 636 631 635
f 636 635 634
f 634 635 640
f 634 640 633
f 633 640 623
f 633 623 537
f 537 623 550
f 537 550 541
f 541 550 552
f 541 552 542
f 542 552 549
f 542 549 543
f 543 549 548
f 543 548 544
f 544 548 551
f 544 551 558
f 558 551 555
f 558 555 559
f 559 555 556
f 559 556 560
f 560 556 557
f 560 557 575
f 575 557 582
f 575 582 584
f 584 582 581
f 584 581 583
f 583 581 580
f 583 580 33
f 33 580 32
f 33 32 34
f 34 32 40
f 34 40 35
f 35 40 41
f 35 41 36
f 36 41 42
f 36 42 61
f 61 42 55
f 61 55 60
f 60 55 56
f 60 56 59
f 59 56 57
f 59 57 63
f 63 57 74
f 63 74 78
f 78 74 75
f 78 75 77
f 77 75 76
f 591 603 592
f 592 603 615
f 592 615 593
f 593 615 611
f 593 611 594
f 594 611 609
f 594 609 595
f 595 609 608
f 595 608 645
f 645 608 620
f 645 620 631
f 631 620 619
f 631 619 635
f 635 619 616
f 635 616 640
f 640 616 617
f 640 617 623
f 623 617 618
f 623 618 550
f 550 618 547
f 550 547 552
f 552 547 532
f 552 532 549
f 549 532 526
f 549 526 548
f 548 526 522
f 548 522 551
f 551 522 564
f 551 564 555
f 555 564 565
f 555 565 556
f 556 565 566
f 556 566 557
f 557 566 569
f 557 569 582
f 582 569 574
f 582 574 581
f 581 574 572
f 581 572 580
f 580 572 23
f 580 23 32
f 32 23 44
f 32 44 40
f 40 44 43
f 40 43 41
f 41 43 39
f 41 39 42
f 42 39 38
f 42 38 55
f 55 38 49
f 55 49 56
f 56 49 50
f 56 50 57
f 57 50 51
f 57 51 74
f 74 51 68
f 74 68 75
f 75 68 69
f 75 69 76
f 76 69 70
f 603 610 615
f 615 610 607
f 615 607 611
f 611 607 601
f 611 601 609
f 609 601 602
f 609 602 608
f 608 602 630
f 608 630 620
f 620 630 629
f 620 629 619
f 619 629 628
f 619 628 616
f 616 628 627
f 616 627 617
f 617 627 621
f 617 621 618
f 618 621 688
f 618 688 547
f 547 688 523
f 547 523 532
f 532 523 527
f 532 527 526
f 526 527 525
f 526 525 522
f 522 525 524
f 522 524 564
f 564 524 561
f 564 561 565
f 565 561 562
f 565 562 566
f 566 562 563
f 566 563 569
f 569 563 570
f 569 570 574
f 574 570 571
f 574 571 572
f 572 571 573
f 572 573 23
f 23 573 28
f 23 28 44
f 44 28 29
f 44 29 43
f 43 29 30
f 43 30 39
f 39 30 37
f 39 37 38
f 38 37 48
f 38 48 49
f 49 48 58
f 49 58 50
f 50 58 62
f 50 62 51
f 51 62 73
f 51 73 68
f 68 73 72
f 68 72 69
f 69 72 71
f 69 71 70
f 70 71 67
f 610 600 607
f 607 600 614
f 607 614 601
f 601 614 613
f 601 613 602
f 602 613 612
f 602 612 630
f 630 612 622
f 630 622 629
f 629 622 626
f 629 626 628
f 628 626 625
f 628 625 627
f 627 625 624
f 627 624 621
f 621 624 681
f 621 681 688
f 688 681 686
f 688 686 523
f 523 686 531
f 523 531 527
f 527 531 530
f 527 530 525
f 525 530 529
f 525 529 524
f 524 529 528
f 524 528 561
f 561 528 568
f 561 568 562
f 562 568 554
f 562 554 563
f 563 554 475
f 563 475 570
f 570 475 485
f 570 485 571
f 571 485 486
f 571 486 573
f 573 486 24
f 573 24 28
f 28 24 25
f 28 25 29
f 29 25 26
f 29 26 30
f 30 26 31
f 30 31 37
f 37 31 103
f 37 103 48
f 48 103 102
f 48 102 58
f 58 102 96
f 58 96 62
f 62 96 95
f 62 95 73
f 73 95 89
f 73 89 72
f 72 89 90
f 72 90 71
f 71 90 91
f 71 91 67
f 67 91 92
f 600 606 614
f 614 606 605
f 614 605 613
f 613 605 604
f 613 604 612
f 612 604 674
f 612 674 622
f 622 674 675
f 622 675 626
f 626 675 682
f 626 682 625
f 625 682 683
f 625 683 624
f 624 683 680
f 624 680 681
f 681 680 684
f 681 684 686
f 686 684 685
f 686 685 531
f 531 685 536
f 531 536 530
f 530 536 535
f 530 535 529
f 529 535 521
f 529 521 528
f 528 521 534
f 528 534 568
f 568 534 506
f 568 506 554
f 554 506 476
f 554 476 475
f 475 476 481
f 475 481 485
f 485 481 482
f 485 482 486
f 486 482 474
f 486 474 24
f 24 474 27
f 24 27 25
f 25 27 21
f 25 21 26
f 26 21 20
f 26 20 31
f 31 20 19
f 31 19 103
f 103 19 97
f 103 97 102
f 102 97 98
f 102 98 96
f 96 98 99
f 96 99 95
f 95 99 100
f 95 100 89
f 89 100 79
f 89 79 90
f 90 79 80
f 90 80 91
f 91 80 81
f 91 81 92
f 92 81 83
f 606 662 605
f 605 662 672
f 605 672 604
f 604 672 673
f 604 673 674
f 674 673 677
f 674 677 675
f 675 677 676
f 675 676 682
f 682 676 692
f 682 692 683
f 683 692 691
f 683 691 680
f 680 691 690
f 680 690 684
f 684 690 689
f 684 689 685
f 685 689 502
f 685 502 536
f 536 502 503
f 536 503 535
f 535 503 504
f 535 504 521
f 521 504 533
f 521 533 534
f 534 533 515
f 534 515 506
f 506 515 514
f 506 514 476
f 476 514 473
f 476 473 481
f 481 473 488
f 481 488 482
f 482 488 483
f 482 483 474
f 474 483 487
f 474 487 27
f 27 487 4
f 27 4 21
f 21 4 5
f 21 5 20
f 20 5 18
f 20 18 19
f 19 18 17
f 19 17 97
f 97 17 110
f 97 110 98
f 98 110 109
f 98 109 99
f 99 109 108
f 99 108 100
f 100 108 107
f 100 107 79
f 79 107 82
f 79 82 80
f 80 82 84
f 80 84 81
f 81 84 94
f 81 94 83
f 83 94 93
f 662 667 672
f 672 667 663
f 672 663 673
f 673 663 664
f 673 664 677
f 677 664 665
f 677 665 676
f 676 665 666
f 676 666 692
f 692 666 679
f 692 679 691
f 691 679 678
f 691 678 690
f 690 678 693
f 690 693 689
f 689 693 497
f 689 497 502
f 502 497 496
f 502 496 503
f 503 496 491
f 503 491 504
f 504 491 490
f 504 490 533
f 533 490 509
f 533 509 515
f 515 509 517
f 515 517 514
f 514 517 516
f 514 516 473
f 473 516 480
f 473 480 488
f 488 480 479
f 488 479 483
f 483 479 478
f 483 478 487
f 487 478 12
f 487 12 4
f 4 12 13
f 4 13 5
f 5 13 14
f 5 14 18
f 18 14 22
f 18 22 17
f 17 22 16
f 17 16 110
f 110 16 104
f 110 104 109
f 109 104 105
f 109 105 108
f 108 105 101
f 108 101 107
f 107 101 106
f 107 106 82
f 82 106 85
f 82 85 84
f 84 85 86
f 84 86 94
f 94 86 87
f 94 87 93
f 93 87 88
f 667 668 663
f 663 668 669
f 663 669 664
f 664 669 670
f 664 670 665
f 665 670 671
f 665 671 666
f 666 671 687
f 666 687 679
f 679 687 696
f 679 696 678
f 678 696 697
f 678 697 693
f 693 697 698
f 693 698 497
f 497 698 499
f 497 499 496
f 496 499 489
f 496 489 491
f 491 489 495
f 491 495 490
f 490 495 494
f 490 494 509
f 509 494 505
f 509 505 517
f 517 505 507
f 517 507 516
f 516 507 520
f 516 520 480
f 480 520 477
f 480 477 479
f 479 477 484
f 479 484 478
f 478 484 1
f 478 1 12
f 12 1 7
f 12 7 13
f 13 7 6
f 13 6 14
f 14 6 2
f 14 2 22
f 22 2 3
f 22 3 16
f 16 3 140
f 16 140 104
f 104 140 216
f 104 216 105
f 105 216 215
f 105 215 101
f 101 215 214
f 101 214 106
f 106 214 213
f 106 213 85
f 85 213 212
f 85 212 86
f 86 212 230
f 86 230 87
f 87 230 228
f 87 228 88
f 88 228 227
f 668 661 669
f 669 661 648
f 669 648 670
f 670 648 647
f 670 647 671
f 671 647 646
f 671 646 687
f 687 646 701
f 687 701 696
f 696 701 702
f 696 702 697
f 697 702 703
f 697 703 698
f 698 703 706
f 698 706 499
f 499 706 498
f 499 498 489
f 489 498 500
f 489 500 495
f 495 500 501
f 495 501 494
f 494 501 510
f 494 510 505
f 505 510 511
f 505 511 507
f 507 511 512
f 507 512 520
f 520 512 513
f 520 513 477
f 477 513 732
f 477 732 484
f 484 732 739
f 484 739 1
f 1 739 8
f 1 8 7
f 7 8 9
f 7 9 6
f 6 9 10
f 6 10 2
f 2 10 11
f 2 11 3
f 3 11 133
f 3 133 140
f 140 133 126
f 140 126 216
f 216 126 207
f 216 207 215
f 215 207 206
f 215 206 214
f 214 206 205
f 214 205 213
f 213 205 204
f 213 204 212
f 212 204 220
f 212 220 230
f 230 220 229
f 230 229 228
f 228 229 223
f 228 223 227
f 227 223 235
f 661 653 648
f 648 653 654
f 648 654 647
f 647 654 655
f 647 655 646
f 646 655 656
f 646 656 701
f 701 656 695
f 701 695 702
f 702 695 694
f 702 694 703
f 703 694 708
f 703 708 706
f 706 708 709
f 706 709 498
f 498 709 492
f 498 492 500
f 500 492 493
f 500 493 501
f 501 493 719
f 501 719 510
f 510 719 508
f 510 508 511
f 511 508 518
f 511 518 512
f 512 518 519
f 512 519 513
f 513 519 728
f 513 728 732
f 732 728 725
f 732 725 739
f 739 725 740
f 739 740 8
f 8 740 15
f 8 15 9
f 9 15 121
f 9 121 10
f 10 121 122
f 10 122 11
f 11 122 139
f 11 139 133
f 133 139 132
f 133 132 126
f 126 132 131
f 126 131 207
f 207 131 208
f 207 208 206
f 206 208 209
f 206 209 205
f 205 209 210
f 205 210 204
f 204 210 221
f 204 221 220
f 220 221 222
f 220 222 229
f 229 222 224
f 229 224 223
f 223 224 225
f 223 225 235
f 235 225 226
f 653 652 654
f 654 652 651
f 654 651 655
f 655 651 650
f 655 650 656
f 656 650 649
f 656 649 695
f 695 649 707
f 695 707 694
f 694 707 705
f 694 705 708
f 708 705 704
f 708 704 709
f 709 704 830
f 709 830 492
f 492 830 831
f 492 831 493
f 493 831 720
f 493 720 719
f 719 720 721
f 719 721 508
f 508 721 724
f 508 724 518
f 518 724 723
f 518 723 519
f 519 723 722
f 519 722 728
f 728 722 736
f 728 736 725
f 725 736 737
f 725 737 740
f 740 737 738
f 740 738 15
f 15 738 112
f 15 112 121
f 121 112 111
f 121 111 122
f 122 111 125
f 122 125 139
f 139 125 127
f 139 127 132
f 132 127 134
f 132 134 131
f 131 134 138
f 131 138 208
f 208 138 211
f 208 211 209
f 209 211 217
f 209 217 210
f 210 217 218
f 210 218 221
f 221 218 231
f 221 231 222
f 222 231 232
f 222 232 224
f 224 232 233
f 224 233 225
f 225 233 234
f 225 234 226
f 226 234 184
f 652 657 651
f 651 657 658
f 651 658 650
f 650 658 659
f 650 659 649
f 649 659 660
f 649 660 707
f 707 660 700
f 707 700 705
f 705 700 699
f 705 699 704
f 704 699 833
f 704 833 830
f 830 833 834
f 830 834 831
f 831 834 832
f 831 832 720
f 720 832 718
f 720 718 721
f 721 718 717
f 721 717 724
f 724 717 716
f 724 716 723
f 723 716 715
f 723 715 722
f 722 715 714
f 722 714 736
f 736 714 735
f 736 735 737
f 737 735 734
f 737 734 738
f 738 734 733
f 738 733 112
f 112 733 119
f 112 119 111
f 111 119 117
f 111 117 125
f 125 117 118
f 125 118 127
f 127 118 135
f 127 135 134
f 134 135 136
f 134 136 138
f 138 136 137
f 138 137 211
f 211 137 219
f 211 219 217
f 217 219 197
f 217 197 218
f 218 197 196
f 218 196 231
f 231 196 185
f 231 185 232
f 232 185 183
f 232 183 233
f 233 183 182
f 233 182 234
f 234 182 181
f 234 181 184
f 184 181 180
f 657 793 658
f 658 793 794
f 658 794 659
f 659 794 788
f 659 788 660
f 660 788 798
f 660 798 700
f 700 798 799
f 700 799 699
f 699 799 822
f 699 822 833
f 833 822 823
f 833 823 834
f 834 823 824
f 834 824 832
f 832 824 820
f 832 820 718
f 718 820 713
f 718 713 717
f 717 713 712
f 717 712 716
f 716 712 711
f 716 711 715
f 715 711 710
f 715 710 714
f 714 710 731
f 714 731 735
f 735 731 730
f 735 730 734
f 734 730 729
f 734 729 733
f 733 729 116
f 733 116 119
f 119 116 113
f 119 113 117
f 117 113 114
f 117 114 118
f 118 114 115
f 118 115 135
f 135 115 128
f 135 128 136
f 136 128 129
f 136 129 137
f 137 129 130
f 137 130 219
f 219 130 195
f 219 195 197
f 197 195 194
f 197 194 196
f 196 194 193
f 196 193 185
f 185 193 177
f 185 177 183
f 183 177 176
f 183 176 182
f 182 176 175
f 182 175 181
f 181 175 174
f 181 174 180
f 180 174 250
f 793 800 794
f 794 800 801
f 794 801 788
f 788 801 802
f 788 802 798
f 798 802 803
f 798 803 799
f 799 803 826
f 799 826 822
f 822 826 827
f 822 827 823
f 823 827 828
f 823 828 824
f 824 828 829
f 824 829 820
f 820 829 754
f 820 754 713
f 713 754 755
f 713 755 712
f 712 755 753
f 712 753 711
f 711 753 746
f 711 746 710
f 710 746 752
f 710 752 731
f 731 752 727
f 731 727 730
f 730 727 726
f 730 726 729
f 729 726 123
f 729 123 116
f 116 123 124
f 116 124 113
f 113 124 120
f 113 120 114
f 114 120 154
f 114 154 115
f 115 154 155
f 115 155 128
f 128 155 161
f 128 161 129
f 129 161 160
f 129 160 130
f 130 160 159
f 130 159 195
f 195 159 192
f 195 192 194
f 194 192 189
f 194 189 193
f 193 189 191
f 193 191 177
f 177 191 172
f 177 172 176
f 176 172 173
f 176 173 175
f 175 173 178
f 175 178 174
f 174 178 238
f 174 238 250
f 250 238 246
f 800 797 801
f 801 797 796
f 801 796 802
f 802 796 795
f 802 795 803
f 803 795 792
f 803 792 826
f 826 792 825
f 826 825 827
f 827 825 821
f 827 821 828
f 828 821 808
f 828 808 829
f 829 808 807
f 829 807 754
f 754 807 751
f 754 751 755
f 755 751 749
f 755 749 753
f 753 749 750
f 753 750 746
f 746 750 748
f 746 748 752
f 752 748 758
f 752 758 727
f 727 758 766
f 727 766 726
f 726 766 765
f 726 765 123
f 123 765 145
f 123 145 124
f 124 145 151
f 124 151 120
f 120 151 153
f 120 153 154
f 154 153 152
f 154 152 155
f 155 152 163
f 155 163 161
f 161 163 164
f 161 164 160
f 160 164 165
f 160 165 159
f 159 165 166
f 159 166 192
f 192 166 188
f 192 188 189
f 189 188 190
f 189 190 191
f 191 190 200
f 191 200 172
f 172 200 186
f 172 186 173
f 173 186 179
f 173 179 178
f 178 179 245
f 178 245 238
f 238 245 247
f 238 247 246
f 246 247 248
f 797 790 796
f 796 790 789
f 796 789 795
f 795 789 791
f 795 791 792
f 792 791 774
f 792 774 825
f 825 774 773
f 825 773 821
f 821 773 806
f 821 806 808
f 808 806 804
f 808 804 807
f 807 804 819
f 807 819 751
f 751 819 747
f 751 747 749
f 749 747 745
f 749 745 750
f 750 745 744
f 750 744 748
f 748 744 764
f 748 764 758
f 758 764 763
f 758 763 766
f 766 763 762
f 766 762 765
f 765 762 761
f 765 761 145
f 145 761 150
f 145 150 151
f 151 150 149
f 151 149 153
f 153 149 146
f 153 146 152
f 152 146 167
f 152 167 163
f 163 167 157
f 163 157 164
f 164 157 158
f 164 158 165
f 165 158 162
f 165 162 166
f 166 162 156
f 166 156 188
f 188 156 199
f 188 199 190
f 190 199 198
f 190 198 200
f 200 198 187
f 200 187 186
f 186 187 282
f 186 282 179
f 179 282 270
f 179 270 245
f 245 270 236
f 245 236 247
f 247 236 239
f 247 239 248
f 248 239 240
f 790 777 789
f 789 777 778
f 789 778 791
f 791 778 779
f 791 779 774
f 774 779 780
f 774 780 773
f 773 780 818
f 773 818 806
f 806 818 817
f 806 817 804
f 804 817 816
f 804 816 819
f 819 816 815
f 819 815 747
f 747 815 743
f 747 743 745
f 745 743 742
f 745 742 744
f 744 742 760
f 744 760 764
f 764 760 759
f 764 759 763
f 763 759 757
f 763 757 762
f 762 757 756
f 762 756 761
f 761 756 144
f 761 144 150
f 150 144 143
f 150 143 149
f 149 143 142
f 149 142 146
f 146 142 141
f 146 141 167
f 167 141 168
f 167 168 157
f 157 168 169
f 157 169 158
f 158 169 170
f 158 170 162
f 162 170 171
f 162 171 156
f 156 171 202
f 156 202 199
f 199 202 203
f 199 203 198
f 198 203 201
f 198 201 187
f 187 201 279
f 187 279 282
f 282 279 274
f 282 274 270
f 270 274 273
f 270 273 236
f 236 273 243
f 236 243 239
f 239 243 244
f 239 244 240
f 240 244 249
f 777 786 778
f 778 786 785
f 778 785 779
f 779 785 784
f 779 784 780
f 780 784 783
f 780 783 818
f 818 783 805
f 818 805 817
f 817 805 812
f 817 812 816
f 816 812 813
f 816 813 815
f 815 813 814
f 815 814 743
f 743 814 741
f 743 741 742
f 742 741 768
f 742 768 760
f 760 768 771
f 760 771 759
f 759 771 770
f 759 770 757
f 757 770 769
f 757 769 756
f 756 769 767
f 756 767 144
f 144 767 147
f 144 147 143
f 143 147 148
f 143 148 142
f 142 148 362
f 142 362 141
f 141 362 371
f 141 371 168
f 168 371 370
f 168 370 169
f 169 370 386
f 169 386 170
f 170 386 385
f 170 385 171
f 171 385 384
f 171 384 202
f 202 384 406
f 202 406 203
f 203 406 398
f 203 398 201
f 201 398 272
f 201 272 279
f 279 272 271
f 279 271 274
f 274 271 268
f 274 268 273
f 273 268 269
f 273 269 243
f 243 269 242
f 243 242 244
f 244 242 241
f 244 241 249
f 249 241 237
f 786 776 785
f 785 776 775
f 785 775 784
f 784 775 781
f 784 781 783
f 783 781 782
f 783 782 805
f 805 782 809
f 805 809 812
f 812 809 810
f 812 810 813
f 813 810 811
f 813 811 814
f 814 811 936
f 814 936 741
f 741 936 941
f 741 941 768
f 768 941 942
f 768 942 771
f 771 942 943
f 771 943 770
f 770 943 960
f 770 960 769
f 769 960 959
f 769 959 767
f 767 959 958
f 767 958 147
f 147 958 367
f 147 367 148
f 148 367 366
f 148 366 362
f 362 366 365
f 362 365 371
f 371 365 368
f 371 368 370
f 370 368 369
f 370 369 386
f 386 369 391
f 386 391 385
f 385 391 392
f 385 392 384
f 384 392 395
f 384 395 406
f 406 395 396
f 406 396 398
f 398 396 394
f 398 394 272
f 272 394 275
f 272 275 271
f 271 275 276
f 271 276 268
f 268 276 277
f 268 277 269
f 269 277 278
f 269 278 242
f 242 278 257
f 242 257 241
f 241 257 259
f 241 259 237
f 237 259 263
f 776 787 775
f 775 787 772
f 775 772 781
f 781 772 869
f 781 869 782
f 782 869 870
f 782 870 809
f 809 870 890
f 809 890 810
f 810 890 891
f 810 891 811
f 811 891 892
f 811 892 936
f 936 892 934
f 936 934 941
f 941 934 930
f 941 930 942
f 942 930 931
f 942 931 943
f 943 931 950
f 943 950 960
f 960 950 949
f 960 949 959
f 959 949 948
f 959 948 958
f 958 948 376
f 958 376 367
f 367 376 375
f 367 375 366
f 366 375 374
f 366 374 365
f 365 374 373
f 365 373 368
f 368 373 372
f 368 372 369
f 369 372 381
f 369 381 391
f 391 381 378
f 391 378 392
f 392 378 408
f 392 408 395
f 395 408 405
f 395 405 396
f 396 405 404
f 396 404 394
f 394 404 403
f 394 403 275
f 275 403 280
f 275 280 276
f 276 280 281
f 276 281 277
f 277 281 267
f 277 267 278
f 278 267 264
f 278 264 257
f 257 264 265
f 257 265 259
f 259 265 266
f 259 266 263
f 263 266 298
f 787 874 772
f 772 874 880
f 772 880 869
f 869 880 873
f 869 873 870
f 870 873 872
f 870 872 890
f 890 872 883
f 890 883 891
f 891 883 885
f 891 885 892
f 892 885 884
f 892 884 934
f 934 884 933
f 934 933 930
f 930 933 945
f 930 945 931
f 931 945 944
f 931 944 950
f 950 944 947
f 950 947 949
f 949 947 946
f 949 946 948
f 948 946 954
f 948 954 376
f 376 954 346
f 376 346 375
f 375 346 364
f 375 364 374
f 374 364 377
f 374 377 373
f 373 377 363
f 373 363 372
f 372 363 387
f 372 387 381
f 381 387 393
f 381 393 378
f 378 393 380
f 378 380 408
f 408 380 399
f 408 399 405
f 405 399 400
f 405 400 404
f 404 400 401
f 404 401 403
f 403 401 402
f 403 402 280
f 280 402 262
f 280 262 281
f 281 262 252
f 281 252 267
f 267 252 253
f 267 253 264
f 264 253 254
f 264 254 265
f 265 254 255
f 265 255 266
f 266 255 297
f 266 297 298
f 298 297 296
f 874 875 880
f 880 875 877
f 880 877 873
f 873 877 878
f 873 878 872
f 872 878 879
f 872 879 883
f 883 879 882
f 883 882 885
f 885 882 893
f 885 893 884
f 884 893 894
f 884 894 933
f 933 894 937
f 933 937 945
f 945 937 940
f 945 940 944
f 944 940 951
f 944 951 947
f 947 951 952
f 947 952 946
f 946 952 953
f 946 953 954
f 954 953 351
f 954 351 346
f 346 351 350
f 346 350 364
f 364 350 349
f 364 349 377
f 377 349 348
f 377 348 363
f 363 348 347
f 363 347 387
f 387 347 382
f 387 382 393
f 393 382 383
f 393 383 380
f 380 383 379
f 380 379 399
f 399 379 397
f 399 397 400
f 400 397 407
f 400 407 401
f 401 407 409
f 401 409 402
f 402 409 251
f 402 251 262
f 262 251 256
f 262 256 252
f 252 256 258
f 252 258 253
f 253 258 261
f 253 261 254
f 254 261 260
f 254 260 255
f 255 260 295
f 255 295 297
f 297 295 294
f 297 294 296
f 296 294 293
f 875 876 877
f 877 876 881
f 877 881 878
f 878 881 871
f 878 871 879
f 879 871 886
f 879 886 882
f 882 886 887
f 882 887 893
f 893 887 888
f 893 888 894
f 894 888 889
f 894 889 937
f 937 889 939
f 937 939 940
f 940 939 938
f 940 938 951
f 951 938 955
f 951 955 952
f 952 955 956
f 952 956 953
f 953 956 957
f 953 957 351
f 351 957 352
f 351 352 350
f 350 352 353
f 350 353 349
f 349 353 354
f 349 354 348
f 348 354 355
f 348 355 347
f 347 355 356
f 347 356 382
f 382 356 388
f 382 388 383
f 383 388 389
f 383 389 379
f 379 389 390
f 379 390 397
f 397 390 430
f 397 430 407
f 407 430 431
f 407 431 409
f 409 431 432
f 409 432 251
f 251 432 308
f 251 308 256
f 256 308 302
f 256 302 258
f 258 302 303
f 258 303 261
f 261 303 304
f 261 304 260
f 260 304 287
f 260 287 295
f 295 287 288
f 295 288 294
f 294 288 289
f 294 289 293
f 293 289 283
f 876 866 881
f 881 866 867
f 881 867 871
f 871 867 868
f 871 868 886
f 886 868 895
f 886 895 887
f 887 895 897
f 887 897 888
f 888 897 896
f 888 896 889
f 889 896 855
f 889 855 939
f 939 855 935
f 939 935 938
f 938 935 932
f 938 932 955
f 955 932 961
f 955 961 956
f 956 961 918
f 956 918 957
f 957 918 917
f 957 917 352
f 352 917 360
f 352 360 353
f 353 360 361
f 353 361 354
f 354 361 359
f 354 359 355
f 355 359 358
f 355 358 356
f 356 358 357
f 356 357 388
f 388 357 446
f 388 446 389
f 389 446 441
f 389 441 390
f 390 441 433
f 390 433 430
f 430 433 434
f 430 434 431
f 431 434 439
f 431 439 432
f 432 439 440
f 432 440 308
f 308 440 313
f 308 313 302
f 302 313 299
f 302 299 303
f 303 299 300
f 303 300 304
f 304 300 301
f 304 301 287
f 287 301 291
f 287 291 288
f 288 291 290
f 288 290 289
f 289 290 286
f 289 286 283
f 283 286 285
f 866 843 867
f 867 843 849
f 867 849 868
f 868 849 842
f 868 842 895
f 895 842 865
f 895 865 897
f 897 865 861
f 897 861 896
f 896 861 860
f 896 860 855
f 855 860 852
f 855 852 935
f 935 852 910
f 935 910 932
f 932 910 900
f 932 900 961
f 961 900 899
f 961 899 918
f 918 899 915
f 918 915 917
f 917 915 916
f 917 916 360
f 360 916 461
f 360 461 361
f 361 461 462
f 361 462 359
f 359 462 457
f 359 457 358
f 358 457 467
f 358 467 357
f 357 467 450
f 357 450 446
f 446 450 449
f 446 449 441
f 441 449 448
f 441 448 433
f 433 448 438
f 433 438 434
f 434 438 437
f 434 437 439
f 439 437 436
f 439 436 440
f 440 436 435
f 440 435 313
f 313 435 305
f 313 305 299
f 299 305 306
f 299 306 300
f 300 306 307
f 300 307 301
f 301 307 310
f 301 310 291
f 291 310 292
f 291 292 290
f 290 292 284
f 290 284 286
f 286 284 339
f 286 339 285
f 285 339 330
f 843 846 849
f 849 846 847
f 849 847 842
f 842 847 848
f 842 848 865
f 865 848 862
f 865 862 861
f 861 862 863
f 861 863 860
f 860 863 864
f 860 864 852
f 852 864 909
f 852 909 910
f 910 909 906
f 910 906 900
f 900 906 904
f 900 904 899
f 899 904 902
f 899 902 915
f 915 902 920
f 915 920 916
f 916 920 919
f 916 919 461
f 461 919 472
f 461 472 462
f 462 472 471
f 462 471 457
f 457 471 466
f 457 466 467
f 467 466 445
f 467 445 450
f 450 445 444
f 450 444 449
f 449 444 443
f 449 443 448
f 448 443 442
f 448 442 438
f 438 442 428
f 438 428 437
f 437 428 429
f 437 429 436
f 436 429 427
f 436 427 435
f 435 427 426
f 435 426 305
f 305 426 311
f 305 311 306
f 306 311 312
f 306 312 307
f 307 312 321
f 307 321 310
f 310 321 315
f 310 315 292
f 292 315 322
f 292 322 284
f 284 322 335
f 284 335 339
f 339 335 336
f 339 336 330
f 330 336 337
f 846 837 847
f 847 837 840
f 847 840 848
f 848 840 841
f 848 841 862
f 862 841 850
f 862 850 863
f 863 850 851
f 863 851 864
f 864 851 859
f 864 859 909
f 909 859 907
f 909 907 906
f 906 907 908
f 906 908 904
f 904 908 898
f 904 898 902
f 902 898 926
f 902 926 920
f 920 926 927
f 920 927 919
f 919 927 923
f 919 923 472
f 472 923 470
f 472 470 471
f 471 470 469
f 471 469 466
f 466 469 468
f 466 468 445
f 445 468 455
f 445 455 444
f 444 455 454
f 444 454 443
f 443 454 452
f 443 452 442
f 442 452 411
f 442 411 428
f 428 411 412
f 428 412 429
f 429 412 413
f 429 413 427
f 427 413 414
f 427 414 426
f 426 414 410
f 426 410 311
f 311 410 309
f 311 309 312
f 312 309 323
f 312 323 321
f 321 323 324
f 321 324 315
f 315 324 325
f 315 325 322
f 322 325 326
f 322 326 335
f 335 326 343
f 335 343 336
f 336 343 341
f 336 341 337
f 337 341 340
f 837 845 840
f 840 845 835
f 840 835 841
f 841 835 844
f 841 844 850
f 850 844 856
f 850 856 851
f 851 856 854
f 851 854 859
f 859 854 853
f 859 853 907
f 907 853 913
f 907 913 908
f 908 913 912
f 908 912 898
f 898 912 911
f 898 911 926
f 926 911 922
f 926 922 927
f 927 922 929
f 927 929 923
f 923 929 928
f 923 928 470
f 470 928 465
f 470 465 469
f 469 465 463
f 469 463 468
f 468 463 464
f 468 464 455
f 455 464 447
f 455 447 454
f 454 447 456
f 454 456 452
f 452 456 422
f 452 422 411
f 411 422 421
f 411 421 412
f 412 421 415
f 412 415 413
f 413 415 420
f 413 420 414
f 414 420 419
f 414 419 410
f 410 419 418
f 410 418 309
f 309 418 329
f 309 329 323
f 323 329 328
f 323 328 324
f 324 328 320
f 324 320 325
f 325 320 327
f 325 327 326
f 326 327 342
f 326 342 343
f 343 342 338
f 343 338 341
f 341 338 345
f 341 345 340
f 340 345 344
f 845 839 835
f 835 839 838
f 835 838 844
f 844 838 836
f 844 836 856
f 856 836 857
f 856 857 854
f 854 857 858
f 854 858 853
f 853 858 901
f 853 901 913
f 913 901 903
f 913 903 912
f 912 903 905
f 912 905 911
f 911 905 924
f 911 924 922
f 922 924 925
f 922 925 929
f 929 925 914
f 929 914 928
f 928 914 921
f 928 921 465
f 465 921 458
f 465 458 463
f 463 458 459
f 463 459 464
f 464 459 460
f 464 460 447
f 447 460 451
f 447 451 456
f 456 451 453
f 456 453 422
f 422 453 425
f 422 425 421
f 421 425 424
f 421 424 415
f 415 424 423
f 415 423 420
f 420 423 416
f 420 416 419
f 419 416 417
f 419 417 418
f 418 417 314
f 418 314 329
f 329 314 316
f 329 316 328
f 328 316 317
f 328 317 320
f 320 317 318
f 320 318 327
f 327 318 319
f 327 319 342
f 342 319 333
f 342 333 338
f 338 333 332
f 338 332 345
f 345 332 331
f 345 331 344
f 344 331 334
