v -2.000000000000e-01 0.000000000000e+00 -2.000000000000e-01
v 1.000000000000e-01 0.000000000000e+00 -4.000000000000e-01
v 0.000000000000e+00 0.000000000000e+00 -4.000000000000e-01
v -1.000000000000e-01 0.000000000000e+00 -4.000000000000e-01
v 0.000000000000e+00 0.000000000000e+00 -3.000000000000e-01
v 1.000000000000e-01 0.000000000000e+00 -3.000000000000e-01
v -1.000000000000e-01 0.000000000000e+00 -3.000000000000e-01
v -2.000000000000e-01 0.000000000000e+00 -3.000000000000e-01
v -1.000000000000e-01 0.000000000000e+00 -2.000000000000e-01
v 2.000000000000e-01 0.000000000000e+00 -5.000000000000e-01
v 1.000000000000e-01 0.000000000000e+00 -5.000000000000e-01
v 0.000000000000e+00 0.000000000000e+00 -5.000000000000e-01
v -1.000000000000e-01 0.000000000000e+00 -5.000000000000e-01
v 0.000000000000e+00 0.000000000000e+00 -2.000000000000e-01
v 1.000000000000e-01 0.000000000000e+00 -2.000000000000e-01
v -4.000000000000e-01 0.000000000000e+00 -2.000000000000e-01
v -3.000000000000e-01 0.000000000000e+00 -3.000000000000e-01
v -4.000000000000e-01 0.000000000000e+00 -3.000000000000e-01
v -5.000000000000e-01 0.000000000000e+00 -2.000000000000e-01
v -4.000000000000e-01 0.000000000000e+00 -5.000000000000e-01
v -3.000000000000e-01 0.000000000000e+00 -2.000000000000e-01
v -5.000000000000e-01 0.000000000000e+00 -1.000000000000e-01
v -5.000000000000e-01 0.000000000000e+00 -3.000000000000e-01
v -3.000000000000e-01 0.000000000000e+00 -5.000000000000e-01
v -2.000000000000e-01 0.000000000000e+00 -5.000000000000e-01
v -5.000000000000e-01 0.000000000000e+00 -5.000000000000e-01
v -5.000000000000e-01 0.000000000000e+00 -4.000000000000e-01
v -4.000000000000e-01 0.000000000000e+00 -4.000000000000e-01
v -3.000000000000e-01 0.000000000000e+00 -4.000000000000e-01
v -2.000000000000e-01 0.000000000000e+00 -4.000000000000e-01
v -4.000000000000e-01 0.000000000000e+00 1.000000000000e-01
v 0.000000000000e+00 0.000000000000e+00 -1.000000000000e-01
v -1.000000000000e-01 0.000000000000e+00 -1.000000000000e-01
v -2.000000000000e-01 0.000000000000e+00 -1.000000000000e-01
v -3.000000000000e-01 0.000000000000e+00 -1.000000000000e-01
v -4.000000000000e-01 0.000000000000e+00 -1.000000000000e-01
v -5.000000000000e-01 0.000000000000e+00 0.000000000000e+00
v -4.000000000000e-01 0.000000000000e+00 0.000000000000e+00
v -3.000000000000e-01 0.000000000000e+00 0.000000000000e+00
v -2.000000000000e-01 0.000000000000e+00 0.000000000000e+00
v -1.000000000000e-01 0.000000000000e+00 0.000000000000e+00
v -5.000000000000e-01 0.000000000000e+00 2.000000000000e-01
v -2.000000000000e-01 0.000000000000e+00 1.000000000000e-01
v -3.000000000000e-01 0.000000000000e+00 1.000000000000e-01
v -5.000000000000e-01 0.000000000000e+00 1.000000000000e-01
v -4.000000000000e-01 0.000000000000e+00 5.000000000000e-01
v -5.000000000000e-01 0.000000000000e+00 3.000000000000e-01
v -2.000000000000e-01 0.000000000000e+00 2.000000000000e-01
v -3.000000000000e-01 0.000000000000e+00 2.000000000000e-01
v -4.000000000000e-01 0.000000000000e+00 2.000000000000e-01
v -4.000000000000e-01 0.000000000000e+00 3.000000000000e-01
v -3.000000000000e-01 0.000000000000e+00 3.000000000000e-01
v -3.000000000000e-01 0.000000000000e+00 5.000000000000e-01
v -5.000000000000e-01 0.000000000000e+00 4.000000000000e-01
v -4.000000000000e-01 0.000000000000e+00 4.000000000000e-01
v -3.000000000000e-01 0.000000000000e+00 4.000000000000e-01
v -2.000000000000e-01 0.000000000000e+00 4.000000000000e-01
v -2.000000000000e-01 0.000000000000e+00 5.000000000000e-01
v -2.000000000000e-01 0.000000000000e+00 3.000000000000e-01
v -5.000000000000e-01 0.000000000000e+00 5.000000000000e-01
v 4.000000000000e-01 0.000000000000e+00 2.000000000000e-01
v 4.000000000000e-01 0.000000000000e+00 1.000000000000e-01
v 5.000000000000e-01 0.000000000000e+00 1.000000000000e-01
v 2.000000000000e-01 0.000000000000e+00 5.000000000000e-01
v 5.000000000000e-01 0.000000000000e+00 4.000000000000e-01
v 4.000000000000e-01 0.000000000000e+00 4.000000000000e-01
v 3.000000000000e-01 0.000000000000e+00 4.000000000000e-01
v 3.000000000000e-01 0.000000000000e+00 5.000000000000e-01
v 5.000000000000e-01 0.000000000000e+00 2.000000000000e-01
v 4.000000000000e-01 0.000000000000e+00 5.000000000000e-01
v 5.000000000000e-01 0.000000000000e+00 5.000000000000e-01
v 5.000000000000e-01 0.000000000000e+00 3.000000000000e-01
v 4.000000000000e-01 0.000000000000e+00 3.000000000000e-01
v 5.000000000000e-01 0.000000000000e+00 0.000000000000e+00
v 4.000000000000e-01 0.000000000000e+00 0.000000000000e+00
v 5.000000000000e-01 0.000000000000e+00 -1.000000000000e-01
v 3.000000000000e-01 0.000000000000e+00 1.000000000000e-01
v -1.000000000000e-01 0.000000000000e+00 4.000000000000e-01
v 0.000000000000e+00 0.000000000000e+00 4.000000000000e-01
v 1.000000000000e-01 0.000000000000e+00 4.000000000000e-01
v 2.000000000000e-01 0.000000000000e+00 4.000000000000e-01
v 3.000000000000e-01 0.000000000000e+00 3.000000000000e-01
v 2.000000000000e-01 0.000000000000e+00 3.000000000000e-01
v 1.000000000000e-01 0.000000000000e+00 3.000000000000e-01
v 0.000000000000e+00 0.000000000000e+00 3.000000000000e-01
v 3.000000000000e-01 0.000000000000e+00 2.000000000000e-01
v 2.000000000000e-01 0.000000000000e+00 2.000000000000e-01
v 1.000000000000e-01 0.000000000000e+00 5.000000000000e-01
v 1.000000000000e-01 0.000000000000e+00 2.000000000000e-01
v -1.000000000000e-01 0.000000000000e+00 5.000000000000e-01
v 0.000000000000e+00 0.000000000000e+00 5.000000000000e-01
v 3.000000000000e-01 0.000000000000e+00 -5.000000000000e-01
v 4.000000000000e-01 0.000000000000e+00 -5.000000000000e-01
v 5.000000000000e-01 0.000000000000e+00 -5.000000000000e-01
v 2.000000000000e-01 0.000000000000e+00 -4.000000000000e-01
v 5.000000000000e-01 0.000000000000e+00 -3.000000000000e-01
v 4.000000000000e-01 0.000000000000e+00 -3.000000000000e-01
v 3.000000000000e-01 0.000000000000e+00 -3.000000000000e-01
v 2.000000000000e-01 0.000000000000e+00 -3.000000000000e-01
v 5.000000000000e-01 0.000000000000e+00 -4.000000000000e-01
v 4.000000000000e-01 0.000000000000e+00 -4.000000000000e-01
v 3.000000000000e-01 0.000000000000e+00 -4.000000000000e-01
v 3.000000000000e-01 0.000000000000e+00 -2.000000000000e-01
v 4.000000000000e-01 0.000000000000e+00 -2.000000000000e-01
v 5.000000000000e-01 0.000000000000e+00 -2.000000000000e-01
v 2.000000000000e-01 0.000000000000e+00 -2.000000000000e-01
v 2.000000000000e-01 0.000000000000e+00 1.000000000000e-01
v 1.000000000000e-01 0.000000000000e+00 1.000000000000e-01
v 0.000000000000e+00 0.000000000000e+00 1.000000000000e-01
v -1.000000000000e-01 0.000000000000e+00 1.000000000000e-01
v 3.000000000000e-01 0.000000000000e+00 0.000000000000e+00
v -1.000000000000e-01 0.000000000000e+00 2.000000000000e-01
v 0.000000000000e+00 0.000000000000e+00 2.000000000000e-01
v 2.000000000000e-01 0.000000000000e+00 0.000000000000e+00
v 1.000000000000e-01 0.000000000000e+00 0.000000000000e+00
v 0.000000000000e+00 0.000000000000e+00 0.000000000000e+00
v 4.000000000000e-01 0.000000000000e+00 -1.000000000000e-01
v 3.000000000000e-01 0.000000000000e+00 -1.000000000000e-01
v -1.000000000000e-01 0.000000000000e+00 3.000000000000e-01
v 2.000000000000e-01 0.000000000000e+00 -1.000000000000e-01
v 1.000000000000e-01 0.000000000000e+00 -1.000000000000e-01
f 26 27 20
f 20 27 28
f 20 28 24
f 24 28 29
f 24 29 25
f 25 29 30
f 25 30 13
f 13 30 4
f 13 4 12
f 12 4 3
f 12 3 11
f 11 3 2
f 11 2 10
f 10 2 95
f 10 95 92
f 92 95 102
f 92 102 93
f 93 102 101
f 93 101 94
f 94 101 100
f 27 23 28
f 28 23 18
f 28 18 29
f 29 18 17
f 29 17 30
f 30 17 8
f 30 8 4
f 4 8 7
f 4 7 3
f 3 7 5
f 3 5 2
f 2 5 6
f 2 6 95
f 95 6 99
f 95 99 102
f 102 99 98
f 102 98 101
f 101 98 97
f 101 97 100
f 100 97 96
f 23 19 18
f 18 19 16
f 18 16 17
f 17 16 21
f 17 21 8
f 8 21 1
f 8 1 7
f 7 1 9
f 7 9 5
f 5 9 14
f 5 14 6
f 6 14 15
f 6 15 99
f 99 15 106
f 99 106 98
f 98 106 103
f 98 103 97
f 97 103 104
f 97 104 96
f 96 104 105
f 19 22 16
f 16 22 36
f 16 36 21
f 21 36 35
f 21 35 1
f 1 35 34
f 1 34 9
f 9 34 33
f 9 33 14
f 14 33 32
f 14 32 15
f 15 32 121
f 15 121 106
f 106 121 120
f 106 120 103
f 103 120 118
f 103 118 104
f 104 118 117
f 104 117 105
f 105 117 76
f 22 37 36
f 36 37 38
f 36 38 35
f 35 38 39
f 35 39 34
f 34 39 40
f 34 40 33
f 33 40 41
f 33 41 32
f 32 41 116
f 32 116 121
f 121 116 115
f 121 115 120
f 120 115 114
f 120 114 118
f 118 114 111
f 118 111 117
f 117 111 75
f 117 75 76
f 76 75 74
f 37 45 38
f 38 45 31
f 38 31 39
f 39 31 44
f 39 44 40
f 40 44 43
f 40 43 41
f 41 43 110
f 41 110 116
f 116 110 109
f 116 109 115
f 115 109 108
f 115 108 114
f 114 108 107
f 114 107 111
f 111 107 77
f 111 77 75
f 75 77 62
f 75 62 74
f 74 62 63
f 45 42 31
f 31 42 50
f 31 50 44
f 44 50 49
f 44 49 43
f 43 49 48
f 43 48 110
f 110 48 112
f 110 112 109
f 109 112 113
f 109 113 108
f 108 113 89
f 108 89 107
f 107 89 87
f 107 87 77
f 77 87 86
f 77 86 62
f 62 86 61
f 62 61 63
f 63 61 69
f 42 47 50
f 50 47 51
f 50 51 49
f 49 51 52
f 49 52 48
f 48 52 59
f 48 59 112
f 112 59 119
f 112 119 113
f 113 119 85
f 113 85 89
f 89 85 84
f 89 84 87
f 87 84 83
f 87 83 86
f 86 83 82
f 86 82 61
f 61 82 73
f 61 73 69
f 69 73 72
f 47 54 51
f 51 54 55
f 51 55 52
f 52 55 56
f 52 56 59
f 59 56 57
f 59 57 119
f 119 57 78
f 119 78 85
f 85 78 79
f 85 79 84
f 84 79 80
f 84 80 83
f 83 80 81
f 83 81 82
f 82 81 67
f 82 67 73
f 73 67 66
f 73 66 72
f 72 66 65
f 54 60 55
f 55 60 46
f 55 46 56
f 56 46 53
f 56 53 57
f 57 53 58
f 57 58 78
f 78 58 90
f 78 90 79
f 79 90 91
f 79 91 80
f 80 91 88
f 80 88 81
f 81 88 64
f 81 64 67
f 67 64 68
f 67 68 66
f 66 68 70
f 66 70 65
f 65 70 71
