v 1.666670000000e-01 0.000000000000e+00 -3.666670000000e-01
v 3.000000000000e-01 0.000000000000e+00 -4.333330000000e-01
v 2.333330000000e-01 0.000000000000e+00 -2.333330000000e-01
v 1.666670000000e-01 0.000000000000e+00 -2.333330000000e-01
v 1.000000000000e-01 0.000000000000e+00 -2.333330000000e-01
v 2.333330000000e-01 0.000000000000e+00 -3.666670000000e-01
v 3.000000000000e-01 0.000000000000e+00 -3.666670000000e-01
v 2.333330000000e-01 0.000000000000e+00 -4.333330000000e-01
v 1.666670000000e-01 0.000000000000e+00 -5.000000000000e-01
v 2.333330000000e-01 0.000000000000e+00 -5.000000000000e-01
v 3.000000000000e-01 0.000000000000e+00 -5.000000000000e-01
v 1.666670000000e-01 0.000000000000e+00 -4.333330000000e-01
v 2.333330000000e-01 0.000000000000e+00 -3.000000000000e-01
v 1.666670000000e-01 0.000000000000e+00 -3.000000000000e-01
v 3.000000000000e-01 0.000000000000e+00 -3.000000000000e-01
v 5.000000000000e-01 0.000000000000e+00 -5.000000000000e-01
v 5.000000000000e-01 0.000000000000e+00 -4.333330000000e-01
v 4.333330000000e-01 0.000000000000e+00 -4.333330000000e-01
v 5.000000000000e-01 0.000000000000e+00 -3.666670000000e-01
v 3.666670000000e-01 0.000000000000e+00 -4.333330000000e-01
v 3.666670000000e-01 0.000000000000e+00 -3.000000000000e-01
v 4.333330000000e-01 0.000000000000e+00 -3.000000000000e-01
v 5.000000000000e-01 0.000000000000e+00 -3.000000000000e-01
v 4.333330000000e-01 0.000000000000e+00 -3.666670000000e-01
v 4.333330000000e-01 0.000000000000e+00 -5.000000000000e-01
v 3.666670000000e-01 0.000000000000e+00 -5.000000000000e-01
v 3.666670000000e-01 0.000000000000e+00 -3.666670000000e-01
v 3.000000000000e-01 0.000000000000e+00 -2.333330000000e-01
v 1.666670000000e-01 0.000000000000e+00 -3.333330000000e-02
v 1.000000000000e-01 0.000000000000e+00 -1.666670000000e-01
v 1.000000000000e-01 0.000000000000e+00 -3.333330000000e-02
v 3.333330000000e-02 0.000000000000e+00 -3.333330000000e-02
v 2.333330000000e-01 0.000000000000e+00 -1.000000000000e-01
v 1.666670000000e-01 0.000000000000e+00 -1.000000000000e-01
v 1.000000000000e-01 0.000000000000e+00 -1.000000000000e-01
v 3.333330000000e-02 0.000000000000e+00 -1.000000000000e-01
v 2.333330000000e-01 0.000000000000e+00 -1.666670000000e-01
v 1.666670000000e-01 0.000000000000e+00 -1.666670000000e-01
v 3.333330000000e-02 0.000000000000e+00 1.000000000000e-01
v 1.000000000000e-01 0.000000000000e+00 1.000000000000e-01
v 3.333330000000e-02 0.000000000000e+00 3.333330000000e-02
v 1.000000000000e-01 0.000000000000e+00 3.333330000000e-02
v 1.666670000000e-01 0.000000000000e+00 3.333330000000e-02
v 4.333330000000e-01 0.000000000000e+00 -2.333330000000e-01
v 3.666670000000e-01 0.000000000000e+00 -3.333330000000e-02
v 2.333330000000e-01 0.000000000000e+00 3.333330000000e-02
v 3.000000000000e-01 0.000000000000e+00 -1.000000000000e-01
v 3.666670000000e-01 0.000000000000e+00 -1.000000000000e-01
v 4.333330000000e-01 0.000000000000e+00 -1.000000000000e-01
v 3.666670000000e-01 0.000000000000e+00 -2.333330000000e-01
v 5.000000000000e-01 0.000000000000e+00 -2.333330000000e-01
v 5.000000000000e-01 0.000000000000e+00 -1.666670000000e-01
v 4.333330000000e-01 0.000000000000e+00 -1.666670000000e-01
v 3.666670000000e-01 0.000000000000e+00 -1.666670000000e-01
v 3.000000000000e-01 0.000000000000e+00 -1.666670000000e-01
v 2.333330000000e-01 0.000000000000e+00 -3.333330000000e-02
v 3.000000000000e-01 0.000000000000e+00 -3.333330000000e-02
v -1.000000000000e-01 0.000000000000e+00 3.000000000000e-01
v 3.333330000000e-02 0.000000000000e+00 1.666670000000e-01
v -3.333330000000e-02 0.000000000000e+00 2.333330000000e-01
v 1.000000000000e-01 0.000000000000e+00 1.666670000000e-01
v 3.333330000000e-02 0.000000000000e+00 2.333330000000e-01
v 1.000000000000e-01 0.000000000000e+00 2.333330000000e-01
v 1.666670000000e-01 0.000000000000e+00 1.000000000000e-01
v 1.666670000000e-01 0.000000000000e+00 1.666670000000e-01
v 1.666670000000e-01 0.000000000000e+00 2.333330000000e-01
v 1.000000000000e-01 0.000000000000e+00 3.000000000000e-01
v 3.333330000000e-02 0.000000000000e+00 3.000000000000e-01
v -3.333330000000e-02 0.000000000000e+00 3.000000000000e-01
v -1.000000000000e-01 0.000000000000e+00 3.666670000000e-01
v -3.333330000000e-02 0.000000000000e+00 3.666670000000e-01
v 1.000000000000e-01 0.000000000000e+00 5.000000000000e-01
v 1.666670000000e-01 0.000000000000e+00 3.000000000000e-01
v -1.666670000000e-01 0.000000000000e+00 5.000000000000e-01
v -1.000000000000e-01 0.000000000000e+00 5.000000000000e-01
v 1.666670000000e-01 0.000000000000e+00 4.333330000000e-01
v 1.000000000000e-01 0.000000000000e+00 4.333330000000e-01
v 3.333330000000e-02 0.000000000000e+00 3.666670000000e-01
v 1.000000000000e-01 0.000000000000e+00 3.666670000000e-01
v 1.666670000000e-01 0.000000000000e+00 3.666670000000e-01
v -3.333330000000e-02 0.000000000000e+00 5.000000000000e-01
v 3.333330000000e-02 0.000000000000e+00 4.333330000000e-01
v -3.333330000000e-02 0.000000000000e+00 4.333330000000e-01
v -1.000000000000e-01 0.000000000000e+00 4.333330000000e-01
v 3.333330000000e-02 0.000000000000e+00 5.000000000000e-01
v 5.000000000000e-01 0.000000000000e+00 3.666670000000e-01
v 4.333330000000e-01 0.000000000000e+00 3.666670000000e-01
v 5.000000000000e-01 0.000000000000e+00 3.000000000000e-01
v 5.000000000000e-01 0.000000000000e+00 5.000000000000e-01
v 5.000000000000e-01 0.000000000000e+00 4.333330000000e-01
v 2.333330000000e-01 0.000000000000e+00 5.000000000000e-01
v 1.666670000000e-01 0.000000000000e+00 5.000000000000e-01
v 3.000000000000e-01 0.000000000000e+00 5.000000000000e-01
v 4.333330000000e-01 0.000000000000e+00 4.333330000000e-01
v 2.333330000000e-01 0.000000000000e+00 4.333330000000e-01
v 3.666670000000e-01 0.000000000000e+00 5.000000000000e-01
v 4.333330000000e-01 0.000000000000e+00 5.000000000000e-01
v 3.666670000000e-01 0.000000000000e+00 4.333330000000e-01
v 3.000000000000e-01 0.000000000000e+00 4.333330000000e-01
v 5.000000000000e-01 0.000000000000e+00 -3.333330000000e-02
v 4.333330000000e-01 0.000000000000e+00 -3.333330000000e-02
v 3.000000000000e-01 0.000000000000e+00 3.333330000000e-02
v 3.666670000000e-01 0.000000000000e+00 3.333330000000e-02
v 4.333330000000e-01 0.000000000000e+00 3.333330000000e-02
v 5.000000000000e-01 0.000000000000e+00 3.333330000000e-02
v 5.000000000000e-01 0.000000000000e+00 -1.000000000000e-01
v 2.333330000000e-01 0.000000000000e+00 2.333330000000e-01
v 2.333330000000e-01 0.000000000000e+00 1.666670000000e-01
v 3.000000000000e-01 0.000000000000e+00 1.666670000000e-01
v 2.333330000000e-01 0.000000000000e+00 1.000000000000e-01
v 3.000000000000e-01 0.000000000000e+00 1.000000000000e-01
v 3.666670000000e-01 0.000000000000e+00 1.000000000000e-01
v 4.333330000000e-01 0.000000000000e+00 1.000000000000e-01
v 5.000000000000e-01 0.000000000000e+00 1.000000000000e-01
v 3.666670000000e-01 0.000000000000e+00 3.000000000000e-01
v 4.333330000000e-01 0.000000000000e+00 3.000000000000e-01
v 3.000000000000e-01 0.000000000000e+00 3.000000000000e-01
v 2.333330000000e-01 0.000000000000e+00 3.000000000000e-01
v 3.666670000000e-01 0.000000000000e+00 1.666670000000e-01
v 4.333330000000e-01 0.000000000000e+00 1.666670000000e-01
v 5.000000000000e-01 0.000000000000e+00 1.666670000000e-01
v 5.000000000000e-01 0.000000000000e+00 2.333330000000e-01
v 4.333330000000e-01 0.000000000000e+00 2.333330000000e-01
v 3.666670000000e-01 0.000000000000e+00 2.333330000000e-01
v 3.000000000000e-01 0.000000000000e+00 2.333330000000e-01
v 3.666670000000e-01 0.000000000000e+00 3.666670000000e-01
v 3.000000000000e-01 0.000000000000e+00 3.666670000000e-01
v 2.333330000000e-01 0.000000000000e+00 3.666670000000e-01
v -3.333330000000e-02 0.000000000000e+00 -3.666670000000e-01
v 3.333330000000e-02 0.000000000000e+00 -2.333330000000e-01
v -3.333330000000e-02 0.000000000000e+00 -2.333330000000e-01
v -3.333330000000e-02 0.000000000000e+00 -5.000000000000e-01
v 3.333330000000e-02 0.000000000000e+00 -5.000000000000e-01
v 1.000000000000e-01 0.000000000000e+00 -5.000000000000e-01
v 1.000000000000e-01 0.000000000000e+00 -3.000000000000e-01
v 3.333330000000e-02 0.000000000000e+00 -3.000000000000e-01
v -3.333330000000e-02 0.000000000000e+00 -3.000000000000e-01
v -3.333330000000e-02 0.000000000000e+00 -4.333330000000e-01
v 3.333330000000e-02 0.000000000000e+00 -4.333330000000e-01
v 1.000000000000e-01 0.000000000000e+00 -4.333330000000e-01
v 3.333330000000e-02 0.000000000000e+00 -3.666670000000e-01
v 1.000000000000e-01 0.000000000000e+00 -3.666670000000e-01
v -1.000000000000e-01 0.000000000000e+00 -4.333330000000e-01
v -1.666670000000e-01 0.000000000000e+00 -1.666670000000e-01
v -2.333330000000e-01 0.000000000000e+00 -1.666670000000e-01
v -1.000000000000e-01 0.000000000000e+00 -3.666670000000e-01
v -1.666670000000e-01 0.000000000000e+00 -5.000000000000e-01
v -1.000000000000e-01 0.000000000000e+00 -5.000000000000e-01
v -1.000000000000e-01 0.000000000000e+00 -2.333330000000e-01
v -1.666670000000e-01 0.000000000000e+00 -2.333330000000e-01
v -2.333330000000e-01 0.000000000000e+00 -2.333330000000e-01
v -1.666670000000e-01 0.000000000000e+00 -3.666670000000e-01
v -1.666670000000e-01 0.000000000000e+00 -3.000000000000e-01
v -1.000000000000e-01 0.000000000000e+00 -3.000000000000e-01
v -2.333330000000e-01 0.000000000000e+00 -3.666670000000e-01
v -1.666670000000e-01 0.000000000000e+00 -4.333330000000e-01
v -2.333330000000e-01 0.000000000000e+00 -3.000000000000e-01
v -3.666670000000e-01 0.000000000000e+00 -2.333330000000e-01
v -3.000000000000e-01 0.000000000000e+00 -1.666670000000e-01
v -3.666670000000e-01 0.000000000000e+00 -1.666670000000e-01
v -5.000000000000e-01 0.000000000000e+00 -1.000000000000e-01
v -4.333330000000e-01 0.000000000000e+00 -1.666670000000e-01
v -5.000000000000e-01 0.000000000000e+00 -1.666670000000e-01
v -3.000000000000e-01 0.000000000000e+00 -3.000000000000e-01
v -3.666670000000e-01 0.000000000000e+00 -3.000000000000e-01
v -4.333330000000e-01 0.000000000000e+00 -3.000000000000e-01
v -5.000000000000e-01 0.000000000000e+00 -2.333330000000e-01
v -3.000000000000e-01 0.000000000000e+00 -2.333330000000e-01
v -4.333330000000e-01 0.000000000000e+00 -2.333330000000e-01
v -5.000000000000e-01 0.000000000000e+00 -3.000000000000e-01
v -4.333330000000e-01 0.000000000000e+00 -5.000000000000e-01
v -5.000000000000e-01 0.000000000000e+00 -5.000000000000e-01
v -3.000000000000e-01 0.000000000000e+00 -3.666670000000e-01
v -3.666670000000e-01 0.000000000000e+00 -3.666670000000e-01
v -4.333330000000e-01 0.000000000000e+00 -3.666670000000e-01
v -5.000000000000e-01 0.000000000000e+00 -3.666670000000e-01
v -2.333330000000e-01 0.000000000000e+00 -4.333330000000e-01
v -3.000000000000e-01 0.000000000000e+00 -4.333330000000e-01
v -3.666670000000e-01 0.000000000000e+00 -4.333330000000e-01
v -4.333330000000e-01 0.000000000000e+00 -4.333330000000e-01
v -5.000000000000e-01 0.000000000000e+00 -4.333330000000e-01
v -2.333330000000e-01 0.000000000000e+00 -5.000000000000e-01
v -3.000000000000e-01 0.000000000000e+00 -5.000000000000e-01
v -3.666670000000e-01 0.000000000000e+00 -5.000000000000e-01
v -1.666670000000e-01 0.000000000000e+00 3.666670000000e-01
v -2.333330000000e-01 0.000000000000e+00 3.666670000000e-01
v -4.333330000000e-01 0.000000000000e+00 4.333330000000e-01
v -3.666670000000e-01 0.000000000000e+00 4.333330000000e-01
v -3.000000000000e-01 0.000000000000e+00 4.333330000000e-01
v -3.000000000000e-01 0.000000000000e+00 3.666670000000e-01
v -2.333330000000e-01 0.000000000000e+00 4.333330000000e-01
v -1.666670000000e-01 0.000000000000e+00 4.333330000000e-01
v -5.000000000000e-01 0.000000000000e+00 5.000000000000e-01
v -4.333330000000e-01 0.000000000000e+00 5.000000000000e-01
v -3.666670000000e-01 0.000000000000e+00 5.000000000000e-01
v -3.000000000000e-01 0.000000000000e+00 5.000000000000e-01
v -2.333330000000e-01 0.000000000000e+00 5.000000000000e-01
v -1.666670000000e-01 0.000000000000e+00 3.000000000000e-01
v -2.333330000000e-01 0.000000000000e+00 3.000000000000e-01
v -4.333330000000e-01 0.000000000000e+00 3.666670000000e-01
v -5.000000000000e-01 0.000000000000e+00 4.333330000000e-01
v -3.666670000000e-01 0.000000000000e+00 3.000000000000e-01
v -4.333330000000e-01 0.000000000000e+00 3.000000000000e-01
v -5.000000000000e-01 0.000000000000e+00 3.000000000000e-01
v -3.000000000000e-01 0.000000000000e+00 3.000000000000e-01
v -3.666670000000e-01 0.000000000000e+00 3.666670000000e-01
v -5.000000000000e-01 0.000000000000e+00 3.666670000000e-01
v -3.666670000000e-01 0.000000000000e+00 1.666670000000e-01
v -3.000000000000e-01 0.000000000000e+00 2.333330000000e-01
v -3.666670000000e-01 0.000000000000e+00 2.333330000000e-01
v -4.333330000000e-01 0.000000000000e+00 2.333330000000e-01
v -5.000000000000e-01 0.000000000000e+00 2.333330000000e-01
v -3.000000000000e-01 0.000000000000e+00 1.666670000000e-01
v -4.333330000000e-01 0.000000000000e+00 -1.000000000000e-01
v -5.000000000000e-01 0.000000000000e+00 1.666670000000e-01
v -4.333330000000e-01 0.000000000000e+00 1.000000000000e-01
v -4.333330000000e-01 0.000000000000e+00 1.666670000000e-01
v -3.666670000000e-01 0.000000000000e+00 -1.000000000000e-01
v -3.000000000000e-01 0.000000000000e+00 -1.000000000000e-01
v -3.666670000000e-01 0.000000000000e+00 1.000000000000e-01
v -5.000000000000e-01 0.000000000000e+00 -3.333330000000e-02
v -4.333330000000e-01 0.000000000000e+00 -3.333330000000e-02
v -3.666670000000e-01 0.000000000000e+00 -3.333330000000e-02
v -5.000000000000e-01 0.000000000000e+00 1.000000000000e-01
v -4.333330000000e-01 0.000000000000e+00 3.333330000000e-02
v -5.000000000000e-01 0.000000000000e+00 3.333330000000e-02
v -3.666670000000e-01 0.000000000000e+00 3.333330000000e-02
v -2.333330000000e-01 0.000000000000e+00 2.333330000000e-01
v -1.000000000000e-01 0.000000000000e+00 1.000000000000e-01
v -3.333330000000e-02 0.000000000000e+00 1.000000000000e-01
v -1.000000000000e-01 0.000000000000e+00 2.333330000000e-01
v -1.666670000000e-01 0.000000000000e+00 2.333330000000e-01
v -2.333330000000e-01 0.000000000000e+00 1.000000000000e-01
v -1.666670000000e-01 0.000000000000e+00 3.333330000000e-02
v -1.000000000000e-01 0.000000000000e+00 3.333330000000e-02
v -3.333330000000e-02 0.000000000000e+00 3.333330000000e-02
v -2.333330000000e-01 0.000000000000e+00 1.666670000000e-01
v -1.666670000000e-01 0.000000000000e+00 1.666670000000e-01
v -1.000000000000e-01 0.000000000000e+00 1.666670000000e-01
v -3.333330000000e-02 0.000000000000e+00 1.666670000000e-01
v -3.333330000000e-02 0.000000000000e+00 -3.333330000000e-02
v -1.666670000000e-01 0.000000000000e+00 1.000000000000e-01
v -1.666670000000e-01 0.000000000000e+00 -1.000000000000e-01
v -3.333330000000e-02 0.000000000000e+00 -1.000000000000e-01
v -1.000000000000e-01 0.000000000000e+00 -1.000000000000e-01
v -3.000000000000e-01 0.000000000000e+00 -3.333330000000e-02
v -2.333330000000e-01 0.000000000000e+00 -3.333330000000e-02
v -1.666670000000e-01 0.000000000000e+00 -3.333330000000e-02
v -1.000000000000e-01 0.000000000000e+00 -3.333330000000e-02
v -3.000000000000e-01 0.000000000000e+00 1.000000000000e-01
v -2.333330000000e-01 0.000000000000e+00 3.333330000000e-02
v -2.333330000000e-01 0.000000000000e+00 -1.000000000000e-01
v -3.000000000000e-01 0.000000000000e+00 3.333330000000e-02
v 3.333330000000e-02 0.000000000000e+00 -1.666670000000e-01
v -3.333330000000e-02 0.000000000000e+00 -1.666670000000e-01
v -1.000000000000e-01 0.000000000000e+00 -1.666670000000e-01
f 172 181 171
f 171 181 180
f 171 180 184
f 184 180 179
f 184 179 183
f 183 179 178
f 183 178 182
f 182 178 177
f 182 177 147
f 147 177 156
f 147 156 148
f 148 156 143
f 148 143 132
f 132 143 138
f 132 138 133
f 133 138 139
f 133 139 134
f 134 139 140
f 134 140 9
f 9 140 12
f 9 12 10
f 10 12 8
f 10 8 11
f 11 8 2
f 11 2 26
f 26 2 20
f 26 20 25
f 25 20 18
f 25 18 16
f 16 18 17
f 181 176 180
f 180 176 175
f 180 175 179
f 179 175 174
f 179 174 178
f 178 174 173
f 178 173 177
f 177 173 155
f 177 155 156
f 156 155 152
f 156 152 143
f 143 152 146
f 143 146 138
f 138 146 129
f 138 129 139
f 139 129 141
f 139 141 140
f 140 141 142
f 140 142 12
f 12 142 1
f 12 1 8
f 8 1 6
f 8 6 2
f 2 6 7
f 2 7 20
f 20 7 27
f 20 27 18
f 18 27 24
f 18 24 17
f 17 24 19
f 176 170 175
f 175 170 166
f 175 166 174
f 174 166 165
f 174 165 173
f 173 165 164
f 173 164 155
f 155 164 157
f 155 157 152
f 152 157 153
f 152 153 146
f 146 153 154
f 146 154 129
f 129 154 137
f 129 137 141
f 141 137 136
f 141 136 142
f 142 136 135
f 142 135 1
f 1 135 14
f 1 14 6
f 6 14 13
f 6 13 7
f 7 13 15
f 7 15 27
f 27 15 21
f 27 21 24
f 24 21 22
f 24 22 19
f 19 22 23
f 170 167 166
f 166 167 169
f 166 169 165
f 165 169 158
f 165 158 164
f 164 158 168
f 164 168 157
f 157 168 151
f 157 151 153
f 153 151 150
f 153 150 154
f 154 150 149
f 154 149 137
f 137 149 131
f 137 131 136
f 136 131 130
f 136 130 135
f 135 130 5
f 135 5 14
f 14 5 4
f 14 4 13
f 13 4 3
f 13 3 15
f 15 3 28
f 15 28 21
f 21 28 50
f 21 50 22
f 22 50 44
f 22 44 23
f 23 44 51
f 167 163 169
f 169 163 162
f 169 162 158
f 158 162 160
f 158 160 168
f 168 160 159
f 168 159 151
f 151 159 145
f 151 145 150
f 150 145 144
f 150 144 149
f 149 144 256
f 149 256 131
f 131 256 255
f 131 255 130
f 130 255 254
f 130 254 5
f 5 254 30
f 5 30 4
f 4 30 38
f 4 38 3
f 3 38 37
f 3 37 28
f 28 37 55
f 28 55 50
f 50 55 54
f 50 54 44
f 44 54 53
f 44 53 51
f 51 53 52
f 163 161 162
f 162 161 214
f 162 214 160
f 160 214 218
f 160 218 159
f 159 218 219
f 159 219 145
f 145 219 252
f 145 252 144
f 144 252 243
f 144 243 256
f 256 243 245
f 256 245 255
f 255 245 244
f 255 244 254
f 254 244 36
f 254 36 30
f 30 36 35
f 30 35 38
f 38 35 34
f 38 34 37
f 37 34 33
f 37 33 55
f 55 33 47
f 55 47 54
f 54 47 48
f 54 48 53
f 53 48 49
f 53 49 52
f 52 49 106
f 161 221 214
f 214 221 222
f 214 222 218
f 218 222 223
f 218 223 219
f 219 223 246
f 219 246 252
f 252 246 247
f 252 247 243
f 243 247 248
f 243 248 245
f 245 248 249
f 245 249 244
f 244 249 241
f 244 241 36
f 36 241 32
f 36 32 35
f 35 32 31
f 35 31 34
f 34 31 29
f 34 29 33
f 33 29 56
f 33 56 47
f 47 56 57
f 47 57 48
f 48 57 45
f 48 45 49
f 49 45 101
f 49 101 106
f 106 101 100
f 221 226 222
f 222 226 225
f 222 225 223
f 223 225 227
f 223 227 246
f 246 227 253
f 246 253 247
f 247 253 251
f 247 251 248
f 248 251 234
f 248 234 249
f 249 234 235
f 249 235 241
f 241 235 236
f 241 236 32
f 32 236 41
f 32 41 31
f 31 41 42
f 31 42 29
f 29 42 43
f 29 43 56
f 56 43 46
f 56 46 57
f 57 46 102
f 57 102 45
f 45 102 103
f 45 103 101
f 101 103 104
f 101 104 100
f 100 104 105
f 226 224 225
f 225 224 216
f 225 216 227
f 227 216 220
f 227 220 253
f 253 220 250
f 253 250 251
f 251 250 233
f 251 233 234
f 234 233 242
f 234 242 235
f 235 242 229
f 235 229 236
f 236 229 230
f 236 230 41
f 41 230 39
f 41 39 42
f 42 39 40
f 42 40 43
f 43 40 64
f 43 64 46
f 46 64 110
f 46 110 102
f 102 110 111
f 102 111 103
f 103 111 112
f 103 112 104
f 104 112 113
f 104 113 105
f 105 113 114
f 224 215 216
f 216 215 217
f 216 217 220
f 220 217 208
f 220 208 250
f 250 208 213
f 250 213 233
f 233 213 237
f 233 237 242
f 242 237 238
f 242 238 229
f 229 238 239
f 229 239 230
f 230 239 240
f 230 240 39
f 39 240 59
f 39 59 40
f 40 59 61
f 40 61 64
f 64 61 65
f 64 65 110
f 110 65 108
f 110 108 111
f 111 108 109
f 111 109 112
f 112 109 119
f 112 119 113
f 113 119 120
f 113 120 114
f 114 120 121
f 215 212 217
f 217 212 211
f 217 211 208
f 208 211 210
f 208 210 213
f 213 210 209
f 213 209 237
f 237 209 228
f 237 228 238
f 238 228 232
f 238 232 239
f 239 232 231
f 239 231 240
f 240 231 60
f 240 60 59
f 59 60 62
f 59 62 61
f 61 62 63
f 61 63 65
f 65 63 66
f 65 66 108
f 108 66 107
f 108 107 109
f 109 107 125
f 109 125 119
f 119 125 124
f 119 124 120
f 120 124 123
f 120 123 121
f 121 123 122
f 212 204 211
f 211 204 203
f 211 203 210
f 210 203 202
f 210 202 209
f 209 202 205
f 209 205 228
f 228 205 199
f 228 199 232
f 232 199 198
f 232 198 231
f 231 198 58
f 231 58 60
f 60 58 69
f 60 69 62
f 62 69 68
f 62 68 63
f 63 68 67
f 63 67 66
f 66 67 73
f 66 73 107
f 107 73 118
f 107 118 125
f 125 118 117
f 125 117 124
f 124 117 115
f 124 115 123
f 123 115 116
f 123 116 122
f 122 116 88
f 204 207 203
f 203 207 200
f 203 200 202
f 202 200 206
f 202 206 205
f 205 206 190
f 205 190 199
f 199 190 186
f 199 186 198
f 198 186 185
f 198 185 58
f 58 185 70
f 58 70 69
f 69 70 71
f 69 71 68
f 68 71 78
f 68 78 67
f 67 78 79
f 67 79 73
f 73 79 80
f 73 80 118
f 118 80 128
f 118 128 117
f 117 128 127
f 117 127 115
f 115 127 126
f 115 126 116
f 116 126 87
f 116 87 88
f 88 87 86
f 207 201 200
f 200 201 187
f 200 187 206
f 206 187 188
f 206 188 190
f 190 188 189
f 190 189 186
f 186 189 191
f 186 191 185
f 185 191 192
f 185 192 70
f 70 192 84
f 70 84 71
f 71 84 83
f 71 83 78
f 78 83 82
f 78 82 79
f 79 82 77
f 79 77 80
f 80 77 76
f 80 76 128
f 128 76 95
f 128 95 127
f 127 95 99
f 127 99 126
f 126 99 98
f 126 98 87
f 87 98 94
f 87 94 86
f 86 94 90
f 201 193 187
f 187 193 194
f 187 194 188
f 188 194 195
f 188 195 189
f 189 195 196
f 189 196 191
f 191 196 197
f 191 197 192
f 192 197 74
f 192 74 84
f 84 74 75
f 84 75 83
f 83 75 81
f 83 81 82
f 82 81 85
f 82 85 77
f 77 85 72
f 77 72 76
f 76 72 92
f 76 92 95
f 95 92 91
f 95 91 99
f 99 91 93
f 99 93 98
f 98 93 96
f 98 96 94
f 94 96 97
f 94 97 90
f 90 97 89
