$MeshFormat
2.2 0 8
$EndMeshFormat
$Nodes
8
1 -2.000000000000e-01 5.000000000000e-01 -2.000000000000e-01
2 2.000000000000e-01 5.000000000000e-01 -2.000000000000e-01
3 2.000000000000e-01 5.000000000000e-01 2.000000000000e-01
4 -2.000000000000e-01 5.000000000000e-01 2.000000000000e-01
5 -2.000000000000e-01 1.000000000000e-01 -2.000000000000e-01
6 2.000000000000e-01 1.000000000000e-01 -2.000000000000e-01
7 2.000000000000e-01 1.000000000000e-01 2.000000000000e-01
8 -2.000000000000e-01 1.000000000000e-01 2.000000000000e-01
$Elements
5
1 4 0 1 8 5 6
2 4 0 8 1 4 3
3 4 0 3 6 7 8
4 4 0 6 3 2 1
5 4 0 8 3 6 1
