v 1.113800000000e-01 2.693200000000e-02 -2.354720000000e-01
v 1.185210000000e-01 5.024900000000e-02 -2.134400000000e-01
v 2.998100000000e-02 6.896900000000e-02 -2.412340000000e-01
v 8.470500000000e-02 2.806100000000e-02 -2.523440000000e-01
v 5.489700000000e-02 6.212500000000e-02 -2.363810000000e-01
v 6.517000000000e-02 5.250800000000e-02 -2.471830000000e-01
v 4.462400000000e-02 7.174300000000e-02 -2.255780000000e-01
v -5.209000000000e-03 8.543100000000e-02 -2.352840000000e-01
v 8.157300000000e-02 6.099600000000e-02 -2.195090000000e-01
v 5.966000000000e-02 2.374400000000e-02 -2.666250000000e-01
v 7.443200000000e-02 3.767900000000e-02 -2.415410000000e-01
v 1.038880000000e-01 7.610800000000e-02 -1.727760000000e-01
v 6.693900000000e-02 8.685500000000e-02 -1.788450000000e-01
v 1.970800000000e-02 7.858700000000e-02 -2.304310000000e-01
v 1.746570000000e-01 -1.338900000000e-02 -2.155970000000e-01
v 2.031440000000e-01 -2.966400000000e-02 -2.008280000000e-01
v 1.269370000000e-01 -4.877900000000e-02 -2.263240000000e-01
v 2.122150000000e-01 -2.340400000000e-02 -1.910600000000e-01
v 1.466850000000e-01 -4.932000000000e-02 -2.140490000000e-01
v 1.842390000000e-01 1.079700000000e-02 -2.268930000000e-01
v 1.807360000000e-01 2.679800000000e-02 -2.159060000000e-01
v 2.026300000000e-01 2.254200000000e-02 -2.171460000000e-01
v 1.562670000000e-01 -2.513500000000e-02 -2.253440000000e-01
v 1.749150000000e-01 -3.949200000000e-02 -2.074380000000e-01
v 1.658490000000e-01 -9.490000000000e-04 -2.366400000000e-01
v 1.395770000000e-01 -6.664500000000e-02 -1.908000000000e-01
v 2.028870000000e-01 -3.561000000000e-03 -2.089870000000e-01
v 1.991260000000e-01 3.854300000000e-02 -2.061590000000e-01
v 1.678060000000e-01 -5.681700000000e-02 -1.841900000000e-01
v 5.414900000000e-02 -5.019000000000e-03 -2.860670000000e-01
v 1.493850000000e-01 1.176100000000e-02 -2.350740000000e-01
v 7.919400000000e-02 -7.020000000000e-04 -2.717860000000e-01
v 1.350440000000e-01 1.333000000000e-03 -2.470720000000e-01
v 1.339530000000e-01 3.100500000000e-02 -2.242570000000e-01
v 1.725040000000e-01 3.315300000000e-02 -2.151230000000e-01
v 1.268120000000e-01 7.688000000000e-03 -2.462890000000e-01
v 8.066900000000e-02 -2.662900000000e-02 -2.623330000000e-01
v 1.042390000000e-01 3.615000000000e-03 -2.575040000000e-01
v 1.057140000000e-01 -2.231200000000e-02 -2.480520000000e-01
v 1.576170000000e-01 5.406000000000e-03 -2.358570000000e-01
v 1.365190000000e-01 -2.459400000000e-02 -2.376190000000e-01
v 1.198290000000e-01 -6.610400000000e-02 -2.030760000000e-01
v 9.577200000000e-02 -5.880700000000e-02 -2.342490000000e-01
v 6.925200000000e-02 -3.719800000000e-02 -2.579830000000e-01
v 1.071890000000e-01 -4.823800000000e-02 -2.385990000000e-01
v 1.884510000000e-01 6.940900000000e-02 -1.220120000000e-01
v 2.043170000000e-01 6.571000000000e-02 -1.455450000000e-01
v 1.049710000000e-01 1.050100000000e-01 -1.049340000000e-01
v 1.570720000000e-01 5.239700000000e-02 -2.043060000000e-01
v 1.403710000000e-01 9.346100000000e-02 -1.062270000000e-01
v 8.925400000000e-02 1.019660000000e-01 -1.321110000000e-01
v 6.654200000000e-02 1.171340000000e-01 -9.737700000000e-02
v 1.600530000000e-01 7.887000000000e-02 -1.346960000000e-01
v 1.663190000000e-01 7.598900000000e-02 -1.165880000000e-01
v 1.999700000000e-01 6.012700000000e-02 -1.703590000000e-01
v 1.821850000000e-01 7.229000000000e-02 -1.401210000000e-01
v 1.778380000000e-01 6.670700000000e-02 -1.649350000000e-01
v 1.392870000000e-01 6.456000000000e-02 -1.740680000000e-01
v 1.246530000000e-01 9.041800000000e-02 -1.334040000000e-01
v 8.888200000000e-02 1.156420000000e-01 -8.454800000000e-02
v 2.709960000000e-01 7.613000000000e-02 1.657000000000e-03
v 2.474120000000e-01 7.370700000000e-02 -3.778300000000e-02
v 2.678530000000e-01 6.039800000000e-02 -5.003700000000e-02
v 2.217910000000e-01 7.461900000000e-02 -4.841100000000e-02
v 2.140720000000e-01 6.849600000000e-02 -1.113840000000e-01
v 2.203700000000e-01 3.955400000000e-02 -1.770830000000e-01
v 2.238270000000e-01 7.128300000000e-02 -7.722300000000e-02
v 2.914380000000e-01 6.282200000000e-02 -1.059700000000e-02
v 1.982060000000e-01 7.219600000000e-02 -8.785100000000e-02
v 3.118800000000e-01 4.951300000000e-02 -2.285000000000e-02
v 1.956230000000e-01 5.454400000000e-02 -1.951720000000e-01
v 2.537510000000e-01 5.202900000000e-02 -1.090110000000e-01
v 2.784980000000e-01 3.703800000000e-02 -9.092200000000e-02
v 2.097250000000e-01 6.291400000000e-02 -1.361980000000e-01
v 2.214040000000e-01 6.169000000000e-03 7.370000000000e-04
v 1.926560000000e-01 5.873300000000e-02 -4.023400000000e-02
v 1.992130000000e-01 3.463600000000e-02 -2.945300000000e-02
v 1.770230000000e-01 6.310200000000e-02 -5.964200000000e-02
v 2.082890000000e-01 5.436400000000e-02 -2.082600000000e-02
v 2.247590000000e-01 6.545000000000e-03 9.836000000000e-03
v 2.182010000000e-01 3.064200000000e-02 -9.460000000000e-04
v 2.499380000000e-01 6.615800000000e-02 1.473300000000e-02
v 2.390260000000e-01 3.653900000000e-02 1.683400000000e-02
v 2.240090000000e-01 6.961600000000e-02 -2.899300000000e-02
v 2.604670000000e-01 7.114400000000e-02 8.195000000000e-03
v 2.134810000000e-01 6.463000000000e-02 -2.245500000000e-02
v 2.291140000000e-01 6.026100000000e-02 -3.046000000000e-03
v 2.281140000000e-01 6.920000000000e-03 1.893500000000e-02
v 2.148460000000e-01 3.026700000000e-02 -1.004400000000e-02
v 1.748040000000e-01 6.810500000000e-02 -7.906100000000e-02
v 1.712840000000e-01 5.776100000000e-02 -5.746400000000e-02
v 1.628810000000e-01 4.185700000000e-02 -4.442200000000e-02
v 1.206890000000e-01 1.080530000000e-01 -7.775700000000e-02
v 1.655440000000e-01 5.241900000000e-02 -5.528700000000e-02
v 1.529110000000e-01 5.575900000000e-02 -9.756000000000e-03
v 1.725850000000e-01 7.310900000000e-02 -9.847900000000e-02
v 1.466370000000e-01 9.058100000000e-02 -8.811800000000e-02
v 1.318150000000e-01 8.885700000000e-02 -2.642300000000e-02
v 1.046000000000e-01 1.186850000000e-01 -5.737100000000e-02
v 1.699520000000e-01 5.248000000000e-02 -5.203200000000e-02
v 1.690650000000e-01 6.276400000000e-02 -7.688300000000e-02
v 1.642130000000e-01 4.713800000000e-02 -4.985500000000e-02
v 1.542430000000e-01 6.104000000000e-02 -1.518800000000e-02
v 1.431170000000e-01 8.023600000000e-02 -6.652200000000e-02
v 1.502280000000e-01 -5.126000000000e-03 3.464900000000e-02
v 1.691170000000e-01 -1.367200000000e-02 -5.125200000000e-02
v 1.631070000000e-01 2.243000000000e-02 -3.918100000000e-02
v 1.593980000000e-01 1.354000000000e-02 -6.010000000000e-04
v 1.871870000000e-01 -9.463000000000e-03 -2.536500000000e-02
v 1.554630000000e-01 2.407700000000e-02 3.273700000000e-02
v 1.620240000000e-01 -5.656200000000e-02 -5.273700000000e-02
v 1.921420000000e-01 2.401300000000e-02 -2.184300000000e-02
v 1.626780000000e-01 -2.678000000000e-02 -4.333800000000e-02
v 1.535080000000e-01 -4.544600000000e-02 -8.088000000000e-03
v 1.923680000000e-01 4.586000000000e-03 -1.660100000000e-02
v 1.684620000000e-01 -4.345400000000e-02 -6.065100000000e-02
v 1.587430000000e-01 -1.624200000000e-02 -1.000000000000e-02
v 1.591720000000e-01 3.296700000000e-02 -5.843000000000e-03
v 1.633330000000e-01 3.003000000000e-03 -3.393900000000e-02
v 1.478410000000e-01 -7.618700000000e-02 -1.313020000000e-01
v 1.893550000000e-01 -5.533200000000e-02 -1.407670000000e-01
v 1.865920000000e-01 -5.239400000000e-02 -1.292350000000e-01
v 1.921170000000e-01 -5.827000000000e-02 -1.523000000000e-01
v 1.632130000000e-01 -6.840400000000e-02 -9.505100000000e-02
v 1.743080000000e-01 -5.447800000000e-02 -9.098600000000e-02
v 1.544390000000e-01 -6.245900000000e-02 -5.118200000000e-02
v 1.770700000000e-01 -5.741600000000e-02 -1.025180000000e-01
v 1.550330000000e-01 -6.838000000000e-02 -7.233900000000e-02
v 1.626180000000e-01 -6.248300000000e-02 -7.389400000000e-02
v 1.776650000000e-01 -6.333700000000e-02 -1.236750000000e-01
v 2.067010000000e-01 -3.770600000000e-02 -1.667960000000e-01
v 1.768770000000e-01 -5.055600000000e-02 -1.744230000000e-01
v 1.622930000000e-01 -7.112000000000e-02 -1.599260000000e-01
v 1.273550000000e-01 -7.737600000000e-02 -4.987600000000e-02
v 1.324680000000e-01 -8.397000000000e-02 -1.675520000000e-01
v 1.245490000000e-01 -8.986500000000e-02 -1.329180000000e-01
v 1.396610000000e-01 -7.616300000000e-02 -1.085900000000e-01
v 1.084120000000e-01 -7.667300000000e-02 -1.987260000000e-01
v 1.043970000000e-01 -1.057850000000e-01 -9.148400000000e-02
v 1.317410000000e-01 -8.205800000000e-02 -7.395500000000e-02
v 8.435500000000e-02 -6.937600000000e-02 -2.299000000000e-01
v 1.122430000000e-01 -9.107900000000e-02 -7.420500000000e-02
v 9.552500000000e-02 -9.884900000000e-02 -1.330800000000e-01
v 1.166290000000e-01 -9.576100000000e-02 -9.828300000000e-02
v 7.442100000000e-02 -1.019360000000e-01 -1.678760000000e-01
v 1.034440000000e-01 -9.295300000000e-02 -1.677140000000e-01
v 1.468530000000e-01 -6.835600000000e-02 -4.962700000000e-02
v 7.938800000000e-02 -8.565600000000e-02 -1.988880000000e-01
v 8.329200000000e-02 -1.088720000000e-01 -1.262800000000e-01
v 2.575860000000e-01 -1.495400000000e-02 -1.289150000000e-01
v 2.119570000000e-01 2.700000000000e-03 -1.992200000000e-01
v 2.327300000000e-01 -1.285800000000e-02 -1.707940000000e-01
v 2.483660000000e-01 -2.879000000000e-02 -1.224720000000e-01
v 2.061640000000e-01 -4.431900000000e-02 -1.383220000000e-01
v 2.089270000000e-01 -4.725700000000e-02 -1.498540000000e-01
v 2.257360000000e-01 -3.624500000000e-02 -1.474090000000e-01
v 2.349550000000e-01 -2.241000000000e-02 -1.538520000000e-01
v 2.235110000000e-01 -2.669400000000e-02 -1.643510000000e-01
v 2.238730000000e-01 2.355300000000e-02 -1.880700000000e-01
v 2.234020000000e-01 6.984000000000e-03 -1.887210000000e-01
v 2.212850000000e-01 -1.714300000000e-02 -1.812930000000e-01
v 2.446450000000e-01 7.995000000000e-03 -1.596440000000e-01
v 2.441740000000e-01 -8.574000000000e-03 -1.602960000000e-01
v 2.737140000000e-01 2.753500000000e-02 -1.094650000000e-01
v 2.961280000000e-01 -1.507400000000e-02 -6.190300000000e-02
v 2.762980000000e-01 -1.944000000000e-03 -9.586100000000e-02
v 3.014290000000e-01 4.317000000000e-03 -6.022900000000e-02
v 2.919550000000e-01 2.397700000000e-02 -7.706200000000e-02
v 2.628870000000e-01 4.437000000000e-03 -1.272420000000e-01
v 2.633570000000e-01 2.100500000000e-02 -1.265900000000e-01
v 2.451160000000e-01 2.456400000000e-02 -1.589930000000e-01
v 3.212600000000e-01 -8.814000000000e-03 -2.627100000000e-02
v 2.709970000000e-01 -2.133500000000e-02 -9.753400000000e-02
v 3.165700000000e-01 2.035000000000e-02 -2.456100000000e-02
v 2.815990000000e-01 1.744700000000e-02 -9.418700000000e-02
v 3.070960000000e-01 4.001000000000e-02 -4.139300000000e-02
v 3.117860000000e-01 1.084700000000e-02 -4.310400000000e-02
v 3.023120000000e-01 3.050700000000e-02 -5.993700000000e-02
v 2.335160000000e-01 -4.083300000000e-02 -9.903500000000e-02
v 3.037060000000e-01 -2.159300000000e-02 -3.607400000000e-02
v 2.868580000000e-01 -3.744100000000e-02 -2.491400000000e-02
v 2.637240000000e-01 -3.989700000000e-02 -4.826900000000e-02
v 2.714810000000e-01 -3.600400000000e-02 5.355000000000e-03
v 2.483470000000e-01 -3.846000000000e-02 -1.800000000000e-02
v 2.785750000000e-01 -2.785400000000e-02 -7.170600000000e-02
v 2.861530000000e-01 -3.437300000000e-02 -4.587700000000e-02
v 2.875640000000e-01 -4.051000000000e-02 -3.950000000000e-03
v 2.644300000000e-01 -4.296500000000e-02 -2.730500000000e-02
v 2.288420000000e-01 -4.690500000000e-02 -6.142800000000e-02
v 3.044120000000e-01 -2.466200000000e-02 -1.511000000000e-02
v 2.561460000000e-01 -3.337800000000e-02 -7.409800000000e-02
v 2.412960000000e-01 -4.542000000000e-02 -5.066100000000e-02
v 2.210620000000e-01 -4.231800000000e-02 -1.098020000000e-01
v 2.332200000000e-01 -2.671400000000e-02 -1.066000000000e-03
v 2.384010000000e-01 -1.266500000000e-02 7.698000000000e-03
v 1.956450000000e-01 -3.936800000000e-02 -7.038000000000e-02
v 2.137140000000e-01 -3.515900000000e-02 -4.449300000000e-02
v 1.929710000000e-01 -2.613800000000e-02 -4.267800000000e-02
v 2.358930000000e-01 -3.994400000000e-02 -2.876700000000e-02
v 1.807470000000e-01 -4.137000000000e-02 -9.890000000000e-02
v 2.014900000000e-01 -5.039200000000e-02 -1.007150000000e-01
v 2.162220000000e-01 -7.880000000000e-03 -8.027000000000e-03
v 2.417560000000e-01 -1.228900000000e-02 1.679700000000e-02
v 1.749010000000e-01 -3.034700000000e-02 -6.856500000000e-02
v 2.553980000000e-01 -3.149900000000e-02 1.466000000000e-02
v 2.163880000000e-01 -4.839000000000e-02 -7.219500000000e-02
v 2.110410000000e-01 -2.192900000000e-02 -1.679100000000e-02
v 1.446320000000e-01 3.297700000000e-02 1.158520000000e-01
v 1.552070000000e-01 1.542200000000e-02 1.181890000000e-01
v 1.489360000000e-01 4.604900000000e-02 6.223300000000e-02
v 1.551970000000e-01 2.325700000000e-02 6.614600000000e-02
v 1.431900000000e-01 3.781000000000e-03 6.170900000000e-02
v 1.431990000000e-01 -4.053000000000e-03 1.137510000000e-01
v 1.316250000000e-01 -2.256900000000e-02 1.226830000000e-01
v 1.554820000000e-01 8.408000000000e-03 1.368230000000e-01
v 1.492020000000e-01 4.686900000000e-02 2.882400000000e-02
v 1.246070000000e-01 -3.995800000000e-02 1.100520000000e-01
v 1.379550000000e-01 -2.542200000000e-02 6.362100000000e-02
v 1.238990000000e-01 -3.390300000000e-02 7.804900000000e-02
v 1.429240000000e-01 2.962000000000e-03 9.511800000000e-02
v 1.309160000000e-01 -1.651400000000e-02 9.068000000000e-02
v 1.549320000000e-01 2.243700000000e-02 9.955500000000e-02
v 1.449080000000e-01 2.596300000000e-02 1.344860000000e-01
v 1.738720000000e-01 3.413000000000e-02 3.474520000000e-01
v 1.443850000000e-01 -3.797700000000e-02 3.506310000000e-01
v 1.655100000000e-01 -1.537300000000e-02 2.919650000000e-01
v 1.549470000000e-01 -2.667500000000e-02 3.212980000000e-01
v 1.452500000000e-01 -5.984900000000e-02 1.928200000000e-01
v 1.625580000000e-01 2.296700000000e-02 2.928960000000e-01
v 1.497800000000e-01 -3.270000000000e-02 2.293280000000e-01
v 1.553800000000e-01 -3.761100000000e-02 2.423920000000e-01
v 1.696910000000e-01 9.379000000000e-03 3.197080000000e-01
v 1.543090000000e-01 -5.551000000000e-03 2.658370000000e-01
v 1.591280000000e-01 -1.924000000000e-03 3.490420000000e-01
v 1.528750000000e-01 1.814200000000e-02 2.527240000000e-01
v 1.569570000000e-01 2.787800000000e-02 2.798330000000e-01
v 1.599100000000e-01 -1.046200000000e-02 2.789010000000e-01
v 1.541740000000e-01 5.122000000000e-03 1.547220000000e-01
v 1.521540000000e-01 2.183500000000e-02 2.061160000000e-01
v 1.436000000000e-01 2.267600000000e-02 1.523850000000e-01
v 1.528670000000e-01 1.835000000000e-03 1.726210000000e-01
v 1.439080000000e-01 -1.010800000000e-02 1.457540000000e-01
v 1.426000000000e-01 -1.339500000000e-02 1.636540000000e-01
v 1.443760000000e-01 -4.263400000000e-02 2.018670000000e-01
v 1.435020000000e-01 -2.541900000000e-02 2.109150000000e-01
v 1.387920000000e-01 -4.423700000000e-02 1.737530000000e-01
v 1.379180000000e-01 -2.702200000000e-02 1.828000000000e-01
v 1.489060000000e-01 -1.548500000000e-02 2.383760000000e-01
v 1.481850000000e-01 -1.179200000000e-02 1.917680000000e-01
v 1.535880000000e-01 -1.858000000000e-03 2.192290000000e-01
v 1.323330000000e-01 -2.862500000000e-02 1.546860000000e-01
v 6.735200000000e-02 -1.150420000000e-01 3.019830000000e-01
v 1.479050000000e-01 -4.294800000000e-02 3.057880000000e-01
v 1.225350000000e-01 -7.772300000000e-02 3.057830000000e-01
v 9.088200000000e-02 -1.101130000000e-01 3.024190000000e-01
v 1.197720000000e-01 -8.030900000000e-02 2.575810000000e-01
v 8.811900000000e-02 -1.126990000000e-01 2.542170000000e-01
v 1.514250000000e-01 -4.791900000000e-02 2.609440000000e-01
v 7.011500000000e-02 -1.124560000000e-01 3.501850000000e-01
v 1.190150000000e-01 -7.275200000000e-02 3.506260000000e-01
v 1.483370000000e-01 -5.388400000000e-02 2.268820000000e-01
v 1.394370000000e-01 -6.763200000000e-02 2.157970000000e-01
v 1.077840000000e-01 -1.000220000000e-01 2.124340000000e-01
v 8.505900000000e-02 -1.145780000000e-01 1.872250000000e-01
v 9.364600000000e-02 -1.075270000000e-01 3.506210000000e-01
v 1.584670000000e-01 -3.164600000000e-02 2.764540000000e-01
v 1.328150000000e-01 -4.853400000000e-02 1.367780000000e-01
v 1.017290000000e-01 -1.055880000000e-01 9.098300000000e-02
v 1.332970000000e-01 -6.844300000000e-02 1.188690000000e-01
v 1.047250000000e-01 -1.019020000000e-01 1.454410000000e-01
v 1.363500000000e-01 -7.359800000000e-02 1.817350000000e-01
v 1.244540000000e-01 -9.103200000000e-02 1.161920000000e-01
v 1.191700000000e-01 -7.300500000000e-02 6.357700000000e-02
v 1.154990000000e-01 -1.011000000000e-01 3.361300000000e-02
v 8.200000000000e-02 -1.164580000000e-01 1.202320000000e-01
v 1.214590000000e-01 -9.471900000000e-02 6.173500000000e-02
v 1.392740000000e-01 -6.414600000000e-02 1.558440000000e-01
v 1.303730000000e-01 -7.789500000000e-02 1.447600000000e-01
v 1.250890000000e-01 -5.986800000000e-02 9.214400000000e-02
v 1.273780000000e-01 -8.158100000000e-02 9.030200000000e-02
v 1.274490000000e-01 -8.734600000000e-02 1.706500000000e-01
v 1.459230000000e-01 -5.134300000000e-02 -6.533000000000e-03
v 1.078560000000e-01 -8.639600000000e-02 -5.012600000000e-02
v 1.149900000000e-01 -5.773900000000e-02 4.158100000000e-02
v 1.104770000000e-01 -7.529100000000e-02 -1.619100000000e-02
v 1.113180000000e-01 -8.583400000000e-02 1.161700000000e-02
v 1.309370000000e-01 -4.281100000000e-02 5.099000000000e-02
v 1.172780000000e-01 -7.945200000000e-02 3.973900000000e-02
v 1.290460000000e-01 -4.925800000000e-02 2.715200000000e-02
v 1.044710000000e-01 -1.022330000000e-01 -4.727400000000e-02
v 1.061640000000e-01 -9.431500000000e-02 -4.870000000000e-02
v 1.087850000000e-01 -8.321000000000e-02 -1.476500000000e-02
v 1.264250000000e-01 -6.036300000000e-02 -6.782000000000e-03
v 1.130980000000e-01 -6.418600000000e-02 1.774300000000e-02
v 1.449930000000e-01 -3.432900000000e-02 3.656200000000e-02
v 1.168810000000e-01 -5.129200000000e-02 6.541800000000e-02
v 1.000100000000e-01 -1.011020000000e-01 -6.740500000000e-02
v 3.961600000000e-02 -1.085760000000e-01 -2.923300000000e-02
v 9.576900000000e-02 -1.119700000000e-01 6.286100000000e-02
v 1.008520000000e-01 -1.116450000000e-01 -3.959700000000e-02
v 1.070050000000e-01 -1.048570000000e-01 -2.089100000000e-02
v 4.727000000000e-02 -1.114030000000e-01 4.612000000000e-02
v 9.831800000000e-02 -1.090210000000e-01 -6.597900000000e-02
v 5.039400000000e-02 -1.087870000000e-01 -8.202600000000e-02
v 9.007400000000e-02 -1.114340000000e-01 1.319600000000e-02
v 7.630500000000e-02 -1.159220000000e-01 7.056600000000e-02
v 1.095390000000e-01 -1.074820000000e-01 5.491000000000e-03
v 9.216400000000e-02 -1.158090000000e-01 -8.468500000000e-02
v 7.061000000000e-02 -1.153870000000e-01 2.090000000000e-02
v 8.138700000000e-02 -1.155980000000e-01 -3.189200000000e-02
v 2.884000000000e-03 1.365040000000e-01 6.725500000000e-02
v 5.638300000000e-02 1.325300000000e-01 9.731700000000e-02
v -3.646000000000e-03 1.375430000000e-01 3.455610000000e-01
v 4.836600000000e-02 1.291350000000e-01 2.569410000000e-01
v 4.376700000000e-02 1.331020000000e-01 1.641530000000e-01
v 1.931700000000e-02 1.331050000000e-01 1.955160000000e-01
v -4.183800000000e-02 1.314630000000e-01 2.396900000000e-01
v -6.689000000000e-03 1.373090000000e-01 2.398260000000e-01
v 7.281600000000e-02 1.291320000000e-01 2.255780000000e-01
v 8.837300000000e-02 1.216800000000e-01 3.007620000000e-01
v 2.236000000000e-02 1.333390000000e-01 3.012510000000e-01
v -3.879500000000e-02 1.316970000000e-01 3.454260000000e-01
v -9.733000000000e-03 1.370760000000e-01 1.340900000000e-01
v 6.236700000000e-02 1.258840000000e-01 3.450720000000e-01
v 3.669000000000e-03 1.320370000000e-01 -3.564100000000e-02
v 8.325000000000e-03 1.138510000000e-01 -1.206970000000e-01
v 2.966500000000e-02 1.341160000000e-01 -3.111200000000e-02
v 1.550000000000e-02 1.359310000000e-01 4.200000000000e-04
v -7.256000000000e-02 1.188280000000e-01 -9.315900000000e-02
v -3.319100000000e-02 1.304090000000e-01 -6.569300000000e-02
v -1.938400000000e-02 1.123340000000e-01 -1.244440000000e-01
v -7.353500000000e-02 8.220800000000e-02 -1.830440000000e-01
v -8.161000000000e-03 1.281420000000e-01 -7.170200000000e-02
v -8.689800000000e-02 1.049810000000e-01 -1.266350000000e-01
v -4.752900000000e-02 1.165610000000e-01 -9.916900000000e-02
v 1.783400000000e-02 1.302220000000e-01 -6.717300000000e-02
v -2.136100000000e-02 1.343030000000e-01 -2.963200000000e-02
v -5.875200000000e-02 1.007540000000e-01 -1.519100000000e-01
v -9.587000000000e-03 7.923000000000e-02 -2.187910000000e-01
v -6.017300000000e-02 5.943600000000e-02 -2.394540000000e-01
v 1.751900000000e-02 7.548700000000e-02 -2.221850000000e-01
v -3.060600000000e-02 9.652700000000e-02 -1.771850000000e-01
v -7.398000000000e-03 8.233000000000e-02 -2.270380000000e-01
v -3.488000000000e-02 6.933300000000e-02 -2.291220000000e-01
v -3.269100000000e-02 7.243300000000e-02 -2.373690000000e-01
v -4.538900000000e-02 7.798100000000e-02 -2.083200000000e-01
v -2.009600000000e-02 8.787900000000e-02 -1.979880000000e-01
v 7.612000000000e-03 8.939500000000e-02 -1.942420000000e-01
v 3.471700000000e-02 8.565200000000e-02 -1.976350000000e-01
v -2.898000000000e-03 9.804300000000e-02 -1.734390000000e-01
v 5.703200000000e-02 1.007630000000e-01 -1.509020000000e-01
v 3.432000000000e-02 1.159310000000e-01 -1.161680000000e-01
v 2.481000000000e-02 9.956000000000e-02 -1.696930000000e-01
v 1.157260000000e-01 9.948900000000e-02 -6.037000000000e-03
v 1.235080000000e-01 6.285900000000e-02 1.073190000000e-01
v 1.084210000000e-01 9.353700000000e-02 4.237000000000e-02
v 1.278120000000e-01 7.593100000000e-02 5.370000000000e-02
v 1.032320000000e-01 1.138680000000e-01 2.871600000000e-02
v 9.633500000000e-02 1.170960000000e-01 -1.736600000000e-02
v 1.074930000000e-01 1.025310000000e-01 6.883400000000e-02
v 1.343330000000e-01 4.351700000000e-02 1.321490000000e-01
v 1.041600000000e-01 1.048740000000e-01 2.252000000000e-03
v 1.235510000000e-01 8.726800000000e-02 1.358200000000e-02
v 1.126830000000e-01 8.220000000000e-02 8.248900000000e-02
v 1.429410000000e-01 6.966100000000e-02 2.491100000000e-02
v 1.386370000000e-01 5.658900000000e-02 7.853000000000e-02
v 1.023040000000e-01 1.228620000000e-01 5.518000000000e-02
v 8.434300000000e-02 1.335420000000e-01 4.977300000000e-02
v 9.978500000000e-02 1.259960000000e-01 1.246970000000e-01
v 4.382900000000e-02 1.323010000000e-01 -6.264300000000e-02
v 1.086430000000e-01 1.198030000000e-01 8.857500000000e-02
v 9.726600000000e-02 1.291290000000e-01 1.942150000000e-01
v 9.540700000000e-02 1.260900000000e-01 9.098000000000e-03
v 8.851000000000e-02 1.293180000000e-01 -3.698500000000e-02
v 1.061240000000e-01 1.229370000000e-01 1.580920000000e-01
v 7.054800000000e-02 1.307150000000e-01 6.578600000000e-02
v 6.617000000000e-02 1.308100000000e-01 -4.981400000000e-02
v 6.408600000000e-02 1.329220000000e-01 -6.435000000000e-03
v 9.080500000000e-02 1.313360000000e-01 1.219940000000e-01
v 8.642700000000e-02 1.314300000000e-01 6.394000000000e-03
v 9.332400000000e-02 1.282020000000e-01 5.247700000000e-02
v 1.128230000000e-01 1.216770000000e-01 2.693980000000e-01
v 1.138320000000e-01 9.947200000000e-02 1.022290000000e-01
v 1.149810000000e-01 1.167440000000e-01 1.219690000000e-01
v 1.240480000000e-01 9.154300000000e-02 1.497280000000e-01
v 1.354140000000e-01 1.008860000000e-01 2.169660000000e-01
v 1.416180000000e-01 1.041160000000e-01 3.443020000000e-01
v 1.312690000000e-01 1.113270000000e-01 2.490290000000e-01
v 1.451350000000e-01 9.744700000000e-02 2.804940000000e-01
v 1.231250000000e-01 1.140350000000e-01 1.854990000000e-01
v 1.251980000000e-01 1.088150000000e-01 1.694680000000e-01
v 1.333420000000e-01 1.061060000000e-01 2.329980000000e-01
v 1.142670000000e-01 1.202280000000e-01 2.216220000000e-01
v 1.430620000000e-01 1.026680000000e-01 2.965250000000e-01
v 1.298240000000e-01 1.127750000000e-01 2.968060000000e-01
v 1.548550000000e-01 9.400900000000e-02 3.440210000000e-01
v 1.283800000000e-01 1.142240000000e-01 3.445820000000e-01
v 1.475100000000e-01 8.109600000000e-02 2.553970000000e-01
v 1.572300000000e-01 7.765700000000e-02 3.189250000000e-01
v 1.555230000000e-01 5.157100000000e-02 2.667200000000e-01
v 1.369630000000e-01 8.591800000000e-02 2.179910000000e-01
v 1.643630000000e-01 6.406900000000e-02 3.457370000000e-01
v 1.667380000000e-01 4.771800000000e-02 3.206400000000e-01
v 1.385120000000e-01 7.095000000000e-02 2.190160000000e-01
v 1.428870000000e-01 4.267600000000e-02 1.858800000000e-01
v 1.514410000000e-01 4.183500000000e-02 2.396120000000e-01
v 1.255970000000e-01 7.657500000000e-02 1.507520000000e-01
v 1.596050000000e-01 6.130600000000e-02 2.938280000000e-01
v 1.449760000000e-01 5.639300000000e-02 2.293140000000e-01
v 1.364220000000e-01 5.723400000000e-02 1.755830000000e-01
v 1.490580000000e-01 6.612800000000e-02 2.564220000000e-01
v -2.303730000000e-01 4.967700000000e-02 -1.444310000000e-01
v -3.248140000000e-01 2.936900000000e-02 -2.582700000000e-02
v -2.398010000000e-01 3.595600000000e-02 -1.649710000000e-01
v -2.585090000000e-01 4.497000000000e-02 -1.189780000000e-01
v -2.236630000000e-01 2.517900000000e-02 -1.927750000000e-01
v -2.490800000000e-01 5.869100000000e-02 -9.843800000000e-02
v -2.773730000000e-01 6.407600000000e-02 -3.591500000000e-02
v -2.987670000000e-01 6.143600000000e-02 -1.099400000000e-02
v -3.034200000000e-01 3.200900000000e-02 -5.074800000000e-02
v -2.986110000000e-01 5.134400000000e-02 -4.806300000000e-02
v -2.232330000000e-01 8.552000000000e-03 -1.992810000000e-01
v -2.393710000000e-01 1.933000000000e-02 -1.714770000000e-01
v -2.772170000000e-01 5.398400000000e-02 -7.298400000000e-02
v -2.752530000000e-01 3.833200000000e-02 -9.524800000000e-02
v -2.565460000000e-01 2.931800000000e-02 -1.412420000000e-01
v -3.200050000000e-01 4.870400000000e-02 -2.314100000000e-02
v -1.978040000000e-01 7.387500000000e-02 -6.466700000000e-02
v -2.487400000000e-01 7.439700000000e-02 -1.685800000000e-02
v -2.492370000000e-01 6.878300000000e-02 -6.136900000000e-02
v -1.399690000000e-01 9.779100000000e-02 -7.138400000000e-02
v -1.983010000000e-01 6.826200000000e-02 -1.091780000000e-01
v -1.716660000000e-01 7.610600000000e-02 -1.110360000000e-01
v -2.265940000000e-01 7.364700000000e-02 -4.665500000000e-02
v -1.272860000000e-01 9.203400000000e-02 -1.271210000000e-01
v -1.943090000000e-01 7.124300000000e-02 -1.257500000000e-01
v -2.209440000000e-01 6.339800000000e-02 -1.238910000000e-01
v -1.756580000000e-01 7.312500000000e-02 -9.446400000000e-02
v -1.359770000000e-01 1.007720000000e-01 -8.795600000000e-02
v -2.775300000000e-01 7.416800000000e-02 1.154000000000e-03
v -1.676740000000e-01 7.908700000000e-02 -1.276080000000e-01
v -2.176130000000e-01 4.856700000000e-02 -1.761020000000e-01
v -1.353410000000e-01 3.887800000000e-02 -2.282520000000e-01
v -1.046730000000e-01 8.235100000000e-02 -1.619340000000e-01
v -2.014750000000e-01 3.779000000000e-02 -2.039050000000e-01
v -1.723800000000e-01 3.503000000000e-02 -2.139890000000e-01
v -1.815490000000e-01 7.013300000000e-02 -1.574200000000e-01
v -1.450610000000e-01 6.940400000000e-02 -1.624200000000e-01
v -6.771500000000e-02 3.800700000000e-02 -2.543640000000e-01
v -1.589360000000e-01 6.045000000000e-02 -1.922330000000e-01
v -1.224490000000e-01 5.972200000000e-02 -1.972330000000e-01
v -1.954240000000e-01 6.117800000000e-02 -1.872310000000e-01
v -9.885300000000e-02 3.815000000000e-02 -2.332530000000e-01
v -9.131100000000e-02 5.957900000000e-02 -2.183440000000e-01
v -7.525700000000e-02 1.657900000000e-02 -2.692730000000e-01
v -2.081840000000e-01 6.228800000000e-02 -1.555610000000e-01
v -1.494790000000e-01 -6.621000000000e-03 -2.414580000000e-01
v -9.015900000000e-02 -1.035100000000e-02 -2.670250000000e-01
v -1.016400000000e-01 2.099000000000e-03 -2.588820000000e-01
v -6.377600000000e-02 4.128000000000e-03 -2.774160000000e-01
v -9.158500000000e-02 -3.256400000000e-02 -2.542500000000e-01
v -4.940200000000e-02 -2.439600000000e-02 -2.737760000000e-01
v -2.626400000000e-02 -1.581800000000e-02 -2.896990000000e-01
v -1.601350000000e-01 4.010000000000e-03 -2.375860000000e-01
v -1.122960000000e-01 1.273000000000e-02 -2.550100000000e-01
v -1.386790000000e-01 -1.749000000000e-03 -2.446190000000e-01
v -1.294500000000e-01 -3.459400000000e-02 -2.357160000000e-01
v -5.229400000000e-02 -8.322000000000e-03 -2.855580000000e-01
v -1.280230000000e-01 -1.238000000000e-02 -2.484910000000e-01
v -1.493350000000e-01 8.882000000000e-03 -2.407470000000e-01
v -1.826990000000e-01 -4.711400000000e-02 -1.952780000000e-01
v -1.567880000000e-01 -5.196100000000e-02 -2.091100000000e-01
v -1.892300000000e-01 6.770000000000e-03 -2.275020000000e-01
v -2.056940000000e-01 -1.679200000000e-02 -1.995860000000e-01
v -1.692010000000e-01 -2.120300000000e-02 -2.217600000000e-01
v -1.951120000000e-01 -1.635600000000e-02 -2.079290000000e-01
v -1.509050000000e-01 -2.883500000000e-02 -2.286830000000e-01
v -1.932800000000e-01 -4.754900000000e-02 -1.869360000000e-01
v -1.308770000000e-01 -5.680700000000e-02 -2.229410000000e-01
v -2.038620000000e-01 -4.798500000000e-02 -1.785940000000e-01
v -1.784300000000e-01 1.164200000000e-02 -2.306630000000e-01
v -1.709340000000e-01 -8.620000000000e-04 -2.344250000000e-01
v -2.075250000000e-01 1.440100000000e-02 -2.205790000000e-01
v -1.563110000000e-01 -6.290200000000e-02 -1.921350000000e-01
v -1.668930000000e-01 -6.333800000000e-02 -1.837930000000e-01
v -2.350000000000e-04 -2.331400000000e-02 -2.938390000000e-01
v 3.138500000000e-02 -4.856300000000e-02 -2.560430000000e-01
v -1.212300000000e-02 -8.975300000000e-02 -1.831320000000e-01
v -7.563000000000e-03 -4.451700000000e-02 -2.590180000000e-01
v -2.337300000000e-02 -3.189200000000e-02 -2.779160000000e-01
v 1.557500000000e-02 -3.593800000000e-02 -2.749410000000e-01
v 4.276700000000e-02 -2.679100000000e-02 -2.710550000000e-01
v 2.695700000000e-02 -1.416600000000e-02 -2.899530000000e-01
v 1.134400000000e-02 -6.444400000000e-02 -2.337120000000e-01
v -2.760400000000e-02 -6.039700000000e-02 -2.366870000000e-01
v 3.286200000000e-02 -9.113000000000e-02 -1.896280000000e-01
v 5.787000000000e-02 -5.897000000000e-02 -2.429710000000e-01
v -4.651100000000e-02 -4.047000000000e-02 -2.619940000000e-01
v 3.782900000000e-02 -7.485000000000e-02 -2.206400000000e-01
v -8.696000000000e-03 -8.032400000000e-02 -2.113810000000e-01
v -1.018150000000e-01 -7.075700000000e-02 -2.162980000000e-01
v -1.112350000000e-01 -1.010920000000e-01 -1.398950000000e-01
v -1.299240000000e-01 -7.869100000000e-02 -1.889920000000e-01
v -7.275300000000e-02 -8.470600000000e-02 -2.096550000000e-01
v -8.869400000000e-02 -4.863900000000e-02 -2.424670000000e-01
v -5.963200000000e-02 -6.258800000000e-02 -2.358240000000e-01
v -4.072500000000e-02 -8.251500000000e-02 -2.105180000000e-01
v -7.055300000000e-02 -9.774200000000e-02 -1.689120000000e-01
v -1.304000000000e-01 -6.774900000000e-02 -2.059660000000e-01
v -1.013390000000e-01 -8.169800000000e-02 -1.993230000000e-01
v -1.423920000000e-01 -8.058500000000e-02 -1.474730000000e-01
v -4.415100000000e-02 -9.194400000000e-02 -1.822700000000e-01
v -9.199400000000e-02 -9.289900000000e-02 -1.747750000000e-01
v -1.205790000000e-01 -8.989100000000e-02 -1.644430000000e-01
v -1.330480000000e-01 -9.178600000000e-02 -1.229250000000e-01
v -1.621220000000e-01 -2.831000000000e-03 3.613600000000e-02
v -1.565960000000e-01 -4.563100000000e-02 -4.205000000000e-02
v -1.677760000000e-01 -3.295900000000e-02 -5.827000000000e-02
v -1.639980000000e-01 -1.207900000000e-02 -3.775500000000e-02
v -1.592920000000e-01 -3.374600000000e-02 -1.851000000000e-03
v -1.581120000000e-01 -3.189800000000e-02 -1.336100000000e-02
v -1.661500000000e-01 1.479100000000e-02 -1.072000000000e-03
v -1.609430000000e-01 -9.820000000000e-04 2.462600000000e-02
v -1.582480000000e-01 -1.286800000000e-02 -1.557400000000e-02
v -1.597630000000e-01 8.660000000000e-04 1.311600000000e-02
v -1.655140000000e-01 1.655000000000e-03 -9.066000000000e-03
v -1.567320000000e-01 -2.660200000000e-02 -4.426300000000e-02
v -1.750420000000e-01 -1.843700000000e-02 -5.176300000000e-02
v -1.649700000000e-01 1.663900000000e-02 -1.258200000000e-02
v -1.712650000000e-01 2.444000000000e-03 -3.124800000000e-02
v -2.340370000000e-01 6.837300000000e-02 -8.282000000000e-03
v -2.253030000000e-01 -5.455000000000e-03 -4.503000000000e-03
v -2.385100000000e-01 -6.052000000000e-03 7.548000000000e-03
v -2.547010000000e-01 -2.271700000000e-02 1.817700000000e-02
v -2.282880000000e-01 -2.152400000000e-02 -5.925000000000e-03
v -2.414940000000e-01 -2.212000000000e-02 6.126000000000e-03
v -2.257350000000e-01 4.183600000000e-02 -6.803000000000e-03
v -2.398230000000e-01 3.558300000000e-02 1.978400000000e-02
v -2.431110000000e-01 -6.835000000000e-03 1.972000000000e-02
v -1.997760000000e-01 -9.540000000000e-03 -1.858600000000e-02
v -2.315210000000e-01 9.046000000000e-03 2.126400000000e-02
v -2.269200000000e-01 9.829000000000e-03 9.091000000000e-03
v -2.628270000000e-01 6.814400000000e-02 9.729000000000e-03
v -2.481250000000e-01 6.212100000000e-02 1.830500000000e-02
v -1.683520000000e-01 5.953700000000e-02 -6.183200000000e-02
v -1.363160000000e-01 9.099700000000e-02 -5.506800000000e-02
v -1.701770000000e-01 3.241300000000e-02 -3.828000000000e-02
v -2.211350000000e-01 4.261900000000e-02 -1.897500000000e-02
v -2.223190000000e-01 1.061300000000e-02 -3.081000000000e-03
v -1.692640000000e-01 4.597500000000e-02 -5.005600000000e-02
v -1.582480000000e-01 4.864800000000e-02 1.770000000000e-03
v -1.707210000000e-01 1.742800000000e-02 -3.476400000000e-02
v -1.573360000000e-01 6.221000000000e-02 -1.000500000000e-02
v -1.720050000000e-01 6.633100000000e-02 -7.814800000000e-02
v -2.199500000000e-01 7.462600000000e-02 -3.486900000000e-02
v -1.953350000000e-01 3.507500000000e-02 -3.245700000000e-02
v -1.962480000000e-01 2.151300000000e-02 -2.068100000000e-02
v -1.967920000000e-01 6.529000000000e-03 -1.716500000000e-02
v -1.941510000000e-01 6.708100000000e-02 -4.835100000000e-02
v -2.886460000000e-01 -4.207600000000e-02 -9.570000000000e-04
v -2.275980000000e-01 -4.107000000000e-02 -3.706700000000e-02
v -2.493300000000e-01 -4.205400000000e-02 -7.413300000000e-02
v -1.788200000000e-01 -3.931700000000e-02 -7.227800000000e-02
v -2.581220000000e-01 -4.157300000000e-02 -1.901200000000e-02
v -2.035540000000e-01 -3.042100000000e-02 -3.910100000000e-02
v -2.411490000000e-01 -3.189300000000e-02 -9.445000000000e-03
v -2.279430000000e-01 -3.129700000000e-02 -2.149600000000e-02
v -2.032090000000e-01 -4.019400000000e-02 -5.467200000000e-02
v -2.215420000000e-01 -4.484900000000e-02 -1.023350000000e-01
v -1.862870000000e-01 -4.348100000000e-02 -1.014080000000e-01
v -2.106750000000e-01 -4.435700000000e-02 -8.380200000000e-02
v -2.384640000000e-01 -4.156200000000e-02 -5.560000000000e-02
v -2.716740000000e-01 -3.239600000000e-02 8.610000000000e-03
v -2.689880000000e-01 -4.206500000000e-02 -3.754500000000e-02
v -1.627050000000e-01 -4.135700000000e-02 -7.493000000000e-02
v -1.617700000000e-01 -6.929700000000e-02 -1.057750000000e-01
v -1.375930000000e-01 -8.257700000000e-02 -8.319700000000e-02
v -1.383930000000e-01 -7.366800000000e-02 -5.013900000000e-02
v -1.556610000000e-01 -7.357100000000e-02 -7.289600000000e-02
v -1.793610000000e-01 -6.523300000000e-02 -1.422740000000e-01
v -1.743070000000e-01 -6.506200000000e-02 -1.182460000000e-01
v -1.564610000000e-01 -6.466100000000e-02 -3.983800000000e-02
v -1.988070000000e-01 -4.781500000000e-02 -1.545660000000e-01
v -1.737490000000e-01 -4.771500000000e-02 -8.893700000000e-02
v -1.625700000000e-01 -6.038700000000e-02 -7.271700000000e-02
v -1.937530000000e-01 -4.764400000000e-02 -1.305380000000e-01
v -1.686780000000e-01 -5.611300000000e-02 -1.055960000000e-01
v -1.548610000000e-01 -8.248000000000e-02 -1.059540000000e-01
v -1.812160000000e-01 -5.187900000000e-02 -1.180670000000e-01
v -2.846960000000e-01 -1.869200000000e-02 -8.119100000000e-02
v -3.016490000000e-01 -3.579900000000e-02 -8.904000000000e-03
v -3.221380000000e-01 -9.744000000000e-03 -2.268200000000e-02
v -3.014570000000e-01 1.635600000000e-02 -7.301300000000e-02
v -2.732900000000e-01 2.267900000000e-02 -1.175130000000e-01
v -2.816910000000e-01 -2.566100000000e-02 -5.547700000000e-02
v -2.946580000000e-01 -2.813800000000e-02 -5.238400000000e-02
v -2.839740000000e-01 -2.729000000000e-03 -8.494900000000e-02
v -2.561150000000e-01 1.269100000000e-02 -1.477470000000e-01
v -3.121400000000e-01 -9.052000000000e-03 -4.044900000000e-02
v -3.046550000000e-01 -2.882900000000e-02 -3.461800000000e-02
v -3.146520000000e-01 -2.952100000000e-02 -1.685100000000e-02
v -3.296230000000e-01 1.003300000000e-02 -2.851300000000e-02
v -2.740130000000e-01 6.716000000000e-03 -1.137550000000e-01
v -2.916520000000e-01 -3.510700000000e-02 -2.667100000000e-02
v -2.402300000000e-01 -1.090000000000e-02 -1.655890000000e-01
v -2.389410000000e-01 2.704000000000e-03 -1.779820000000e-01
v -2.176360000000e-01 -3.607400000000e-02 -1.418660000000e-01
v -2.233330000000e-01 -3.872000000000e-02 -1.254490000000e-01
v -2.472160000000e-01 -2.715000000000e-02 -1.367780000000e-01
v -2.415190000000e-01 -2.450500000000e-02 -1.531950000000e-01
v -2.747350000000e-01 -9.246000000000e-03 -1.099980000000e-01
v -2.620330000000e-01 -2.565000000000e-02 -9.206500000000e-02
v -2.226900000000e-01 -3.624500000000e-02 -1.658950000000e-01
v -2.511220000000e-01 -3.592500000000e-02 -9.724700000000e-02
v -2.638240000000e-01 -1.952100000000e-02 -1.151790000000e-01
v -2.568380000000e-01 -3.271000000000e-03 -1.439900000000e-01
v -2.581270000000e-01 -1.687500000000e-02 -1.315970000000e-01
v -2.214010000000e-01 -2.264100000000e-02 -1.782880000000e-01
v -2.529130000000e-01 -2.979600000000e-02 -1.203610000000e-01
v -1.051020000000e-01 1.113660000000e-01 2.868300000000e-02
v -7.898300000000e-02 1.310800000000e-01 6.057600000000e-02
v -1.001530000000e-01 1.263030000000e-01 -2.080500000000e-02
v -5.288000000000e-02 1.336130000000e-01 7.039300000000e-02
v -9.751800000000e-02 1.314020000000e-01 5.440800000000e-02
v -7.712500000000e-02 1.314120000000e-01 -2.649400000000e-02
v -9.558900000000e-02 1.137180000000e-01 -8.747000000000e-02
v -3.397700000000e-02 1.348750000000e-01 3.720400000000e-02
v -8.125100000000e-02 1.275660000000e-01 -5.399400000000e-02
v -1.042800000000e-01 1.224560000000e-01 -4.830500000000e-02
v -9.602700000000e-02 1.301500000000e-01 6.695000000000e-03
v -3.583500000000e-02 1.345430000000e-01 1.242730000000e-01
v -1.092280000000e-01 1.075200000000e-01 1.183000000000e-03
v -1.252990000000e-01 9.367000000000e-02 -3.242000000000e-03
v -5.822200000000e-02 1.326750000000e-01 -5.968300000000e-02
v -8.477900000000e-02 1.292940000000e-01 1.849160000000e-01
v -9.078100000000e-02 1.262150000000e-01 3.003330000000e-01
v -1.600120000000e-01 8.154100000000e-02 3.463010000000e-01
v -1.101880000000e-01 1.168490000000e-01 3.453080000000e-01
v -1.464330000000e-01 1.078470000000e-01 3.453250000000e-01
v -1.287920000000e-01 1.129640000000e-01 2.741090000000e-01
v -1.076190000000e-01 1.265780000000e-01 2.553760000000e-01
v -7.394300000000e-02 1.258510000000e-01 3.452900000000e-01
v -1.033140000000e-01 1.296160000000e-01 1.787480000000e-01
v -1.270260000000e-01 1.172130000000e-01 3.003500000000e-01
v -1.481990000000e-01 1.035990000000e-01 3.190840000000e-01
v -6.794000000000e-02 1.289300000000e-01 2.298730000000e-01
v -6.193800000000e-02 1.320100000000e-01 1.144560000000e-01
v -8.047300000000e-02 1.323320000000e-01 1.082880000000e-01
v -1.177970000000e-01 1.220370000000e-01 2.398730000000e-01
v -1.104400000000e-01 1.182490000000e-01 7.796300000000e-02
v -1.248520000000e-01 1.063490000000e-01 1.492300000000e-01
v -1.562880000000e-01 8.235100000000e-02 2.930330000000e-01
v -1.681020000000e-01 6.029300000000e-02 3.202500000000e-01
v -1.119300000000e-01 1.195010000000e-01 1.256750000000e-01
v -1.617780000000e-01 7.729300000000e-02 3.200590000000e-01
v -1.499640000000e-01 9.935100000000e-02 2.928420000000e-01
v -9.900800000000e-02 1.326540000000e-01 1.021200000000e-01
v -1.264130000000e-01 1.119220000000e-01 1.868000000000e-01
v -1.437320000000e-01 8.585000000000e-02 2.212270000000e-01
v -1.626120000000e-01 6.535200000000e-02 2.932240000000e-01
v -1.279750000000e-01 1.174960000000e-01 2.243700000000e-01
v -1.735910000000e-01 5.523500000000e-02 3.472760000000e-01
v -1.374080000000e-01 1.028500000000e-01 2.210360000000e-01
v -1.134910000000e-01 1.250750000000e-01 1.632450000000e-01
v -1.389700000000e-01 1.084230000000e-01 2.586060000000e-01
v -1.596040000000e-01 2.542000000000e-02 2.324210000000e-01
v -1.123450000000e-01 9.709200000000e-02 7.060800000000e-02
v -1.141760000000e-01 9.258300000000e-02 5.067100000000e-02
v -1.286630000000e-01 6.403500000000e-02 1.345200000000e-01
v -1.214200000000e-01 7.830900000000e-02 9.259600000000e-02
v -1.302480000000e-01 7.873300000000e-02 4.624600000000e-02
v -1.267580000000e-01 8.519200000000e-02 1.418750000000e-01
v -1.429790000000e-01 7.386500000000e-02 2.270850000000e-01
v -1.339150000000e-01 9.010700000000e-02 1.881580000000e-01
v -1.358210000000e-01 6.895000000000e-02 1.808030000000e-01
v -1.374910000000e-01 6.445900000000e-02 8.817100000000e-02
v -1.527960000000e-01 6.960800000000e-02 2.601550000000e-01
v -1.438470000000e-01 3.964700000000e-02 1.631130000000e-01
v -1.510050000000e-01 4.456200000000e-02 2.093960000000e-01
v -1.515780000000e-01 5.472200000000e-02 2.501110000000e-01
v -1.572990000000e-01 1.689600000000e-02 1.334060000000e-01
v -1.590310000000e-01 1.525900000000e-02 1.917060000000e-01
v -1.463190000000e-01 6.488300000000e-02 4.182100000000e-02
v -1.604760000000e-01 5.924000000000e-03 9.364600000000e-02
v -1.484520000000e-01 -5.047000000000e-03 1.624830000000e-01
v -1.491740000000e-01 -9.715000000000e-03 1.134530000000e-01
v -1.581650000000e-01 1.607800000000e-02 1.625560000000e-01
v -1.518090000000e-01 4.089000000000e-02 8.761400000000e-02
v -1.612990000000e-01 1.547000000000e-03 6.489100000000e-02
v -1.597540000000e-01 1.059200000000e-02 1.426760000000e-01
v -1.542210000000e-01 3.102600000000e-02 3.897900000000e-02
v -1.533980000000e-01 3.540400000000e-02 6.773400000000e-02
v -1.429810000000e-01 4.046500000000e-02 1.339630000000e-01
v -1.588880000000e-01 1.141000000000e-02 1.135260000000e-01
v -1.766850000000e-01 1.580200000000e-02 3.503270000000e-01
v -1.503550000000e-01 -2.570300000000e-02 3.510500000000e-01
v -1.751380000000e-01 3.551800000000e-02 3.488020000000e-01
v -1.691210000000e-01 -3.890000000000e-03 2.910690000000e-01
v -1.608670000000e-01 5.998000000000e-03 2.524730000000e-01
v -1.601760000000e-01 3.558000000000e-02 2.731360000000e-01
v -1.684310000000e-01 2.569100000000e-02 3.117320000000e-01
v -1.601920000000e-01 -3.618800000000e-02 2.450050000000e-01
v -1.615570000000e-01 -2.358300000000e-02 2.318100000000e-01
v -1.613940000000e-01 5.046600000000e-02 2.831800000000e-01
v -1.696490000000e-01 4.057700000000e-02 3.217760000000e-01
v -1.684390000000e-01 -1.019300000000e-02 2.976660000000e-01
v -1.421080000000e-01 -5.169800000000e-02 2.983890000000e-01
v -1.608750000000e-01 -2.988600000000e-02 2.384080000000e-01
v -1.403670000000e-01 -6.870800000000e-02 1.506230000000e-01
v -1.469630000000e-01 -5.888300000000e-02 1.941750000000e-01
v -1.469990000000e-01 -5.583700000000e-02 1.579020000000e-01
v -1.393190000000e-01 -6.806900000000e-02 1.184860000000e-01
v -1.347550000000e-01 -5.282800000000e-02 1.061660000000e-01
v -1.545110000000e-01 1.010100000000e-02 2.412460000000e-01
v -1.433590000000e-01 -2.036600000000e-02 1.713080000000e-01
v -1.552020000000e-01 -1.948000000000e-02 2.205830000000e-01
v -1.539390000000e-01 -5.900000000000e-05 2.005310000000e-01
v -1.488460000000e-01 -1.537800000000e-02 2.093560000000e-01
v -1.378730000000e-01 -2.535400000000e-02 1.332610000000e-01
v -1.542780000000e-01 -3.971000000000e-02 1.948560000000e-01
v -1.535960000000e-01 -4.601300000000e-02 2.014540000000e-01
v -1.424360000000e-01 -4.059500000000e-02 1.455810000000e-01
v -1.479230000000e-01 -3.560700000000e-02 1.836290000000e-01
v -1.326860000000e-01 -8.094000000000e-02 1.112070000000e-01
v -1.179600000000e-01 -9.261200000000e-02 8.515800000000e-02
v -7.780000000000e-02 -1.113110000000e-01 1.773500000000e-02
v -1.168850000000e-01 -9.643700000000e-02 4.022400000000e-02
v -1.032070000000e-01 -1.087460000000e-01 4.631200000000e-02
v -1.337350000000e-01 -8.157900000000e-02 1.433440000000e-01
v -1.042820000000e-01 -1.049210000000e-01 9.124600000000e-02
v -1.316380000000e-01 -8.030200000000e-02 7.907100000000e-02
v -1.288790000000e-01 -7.439300000000e-02 2.475590000000e-01
v -1.200290000000e-01 -8.740900000000e-02 1.775860000000e-01
v -1.053030000000e-01 -9.908100000000e-02 1.515370000000e-01
v -7.887600000000e-02 -1.074860000000e-01 6.266900000000e-02
v -1.190080000000e-01 -9.325000000000e-02 1.172950000000e-01
v -1.021310000000e-01 -1.125710000000e-01 1.378000000000e-03
v -5.346900000000e-02 -1.100510000000e-01 3.409200000000e-02
v -8.276100000000e-02 -1.129470000000e-01 -9.954600000000e-02
v -1.098800000000e-01 -8.916000000000e-02 -3.362700000000e-02
v -1.042030000000e-01 -1.081040000000e-01 -1.054090000000e-01
v -9.965100000000e-02 -1.138430000000e-01 -3.477300000000e-02
v -1.059350000000e-01 -1.078900000000e-01 -3.524000000000e-02
v -1.214570000000e-01 -7.293900000000e-02 -2.838500000000e-02
v -1.157800000000e-01 -9.188300000000e-02 -1.001680000000e-01
v -1.087480000000e-01 -9.889500000000e-02 -6.568200000000e-02
v -1.084150000000e-01 -1.066180000000e-01 9.110000000000e-04
v -8.524200000000e-02 -1.116750000000e-01 -6.339500000000e-02
v -1.203250000000e-01 -8.267400000000e-02 -6.044100000000e-02
v -6.835200000000e-02 -1.107790000000e-01 -1.281690000000e-01
v -1.231680000000e-01 -9.048300000000e-02 3.975800000000e-02
v -8.979400000000e-02 -1.059350000000e-01 -1.340320000000e-01
v -9.717100000000e-02 -1.151150000000e-01 -7.092400000000e-02
v -1.146990000000e-01 -1.006640000000e-01 4.450000000000e-04
v -1.433950000000e-01 -2.169400000000e-02 6.840800000000e-02
v -1.263140000000e-01 -4.931200000000e-02 4.317000000000e-02
v -1.289760000000e-01 -6.480700000000e-02 6.112000000000e-02
v -1.522460000000e-01 -3.864700000000e-02 2.971400000000e-02
v -1.225890000000e-01 -6.320400000000e-02 3.670000000000e-03
v -1.392800000000e-01 -4.398000000000e-02 3.644200000000e-02
v -1.244520000000e-01 -5.625800000000e-02 2.342000000000e-02
v -1.320940000000e-01 -3.733300000000e-02 8.821500000000e-02
v -1.374170000000e-01 -5.092500000000e-02 1.669200000000e-02
v -1.543530000000e-01 -5.165400000000e-02 -5.062000000000e-03
v -1.571840000000e-01 -2.073900000000e-02 3.292500000000e-02
v -1.563610000000e-01 -1.636100000000e-02 6.168000000000e-02
v -1.395250000000e-01 -6.393300000000e-02 -1.808400000000e-02
v -1.186440000000e-01 -8.193400000000e-02 2.057000000000e-03
v -1.205060000000e-01 -7.498800000000e-02 2.180700000000e-02
v -1.063230000000e-01 -9.324000000000e-02 2.118280000000e-01
v -7.110000000000e-02 -1.018890000000e-01 1.797270000000e-01
v -6.228500000000e-02 -1.059700000000e-01 1.069090000000e-01
v -1.240240000000e-01 -6.720700000000e-02 3.517730000000e-01
v -5.384700000000e-02 -1.129380000000e-01 1.733380000000e-01
v -5.705900000000e-02 -1.107590000000e-01 2.266890000000e-01
v -7.752300000000e-02 -9.753200000000e-02 2.864290000000e-01
v -7.989600000000e-02 -1.016450000000e-01 1.229600000000e-01
v -1.151730000000e-01 -8.022400000000e-02 2.818010000000e-01
v -9.192300000000e-02 -9.538600000000e-02 2.491290000000e-01
v -7.814200000000e-02 -1.014090000000e-01 3.499010000000e-01
v -5.489100000000e-02 -1.165710000000e-01 3.172290000000e-01
v -1.007730000000e-01 -8.236900000000e-02 3.191010000000e-01
v -8.871200000000e-02 -9.756400000000e-02 1.957770000000e-01
v -7.431200000000e-02 -9.971000000000e-02 2.330780000000e-01
v -1.184900000000e-02 -1.253970000000e-01 1.461970000000e-01
v 3.685000000000e-03 -1.248850000000e-01 2.370120000000e-01
v -9.687000000000e-03 -1.342370000000e-01 2.799110000000e-01
v -3.226000000000e-02 -1.356100000000e-01 3.480280000000e-01
v -2.988700000000e-02 -1.223770000000e-01 1.067280000000e-01
v -4.503200000000e-02 -1.170190000000e-01 1.005200000000e-01
v -2.422200000000e-02 -1.246920000000e-01 1.565730000000e-01
v -3.442700000000e-02 -1.297980000000e-01 2.574880000000e-01
v -2.314100000000e-02 -1.291120000000e-01 2.234300000000e-01
v -1.751400000000e-02 -1.230820000000e-01 9.635200000000e-02
v -3.659500000000e-02 -1.239860000000e-01 1.669490000000e-01
v 2.604000000000e-03 -1.204650000000e-01 1.701550000000e-01
v 1.844900000000e-02 -1.258110000000e-01 3.148300000000e-01
v 7.162000000000e-03 -1.264970000000e-01 3.488880000000e-01
v -2.097300000000e-02 -1.349240000000e-01 3.139700000000e-01
v -1.076800000000e-02 -1.298170000000e-01 2.130540000000e-01
v 6.429200000000e-02 -1.169210000000e-01 2.349900000000e-01
v 1.705700000000e-02 -1.155330000000e-01 1.941140000000e-01
v 5.296500000000e-02 -1.119380000000e-01 9.578600000000e-02
v 2.393000000000e-02 -1.074190000000e-01 7.133900000000e-02
v -2.693800000000e-02 -1.166690000000e-01 -4.324000000000e-03
v 2.049400000000e-02 -1.114760000000e-01 1.327260000000e-01
v 3.525700000000e-02 -1.124020000000e-01 2.105440000000e-01
v -2.317900000000e-02 -1.207670000000e-01 4.650700000000e-02
v -7.278000000000e-03 -1.112660000000e-01 -1.643000000000e-02
v 1.627600000000e-02 -1.045920000000e-01 -4.014000000000e-03
v 3.182100000000e-02 -1.164590000000e-01 2.719310000000e-01
v 3.750000000000e-04 -1.140930000000e-01 5.892300000000e-02
v -3.832400000000e-02 -1.154090000000e-01 4.030000000000e-02
v 4.658400000000e-02 -1.173850000000e-01 3.497490000000e-01
v -3.061000000000e-03 -1.181500000000e-01 1.203110000000e-01
v -1.103700000000e-02 -1.071680000000e-01 -6.726100000000e-02
v 2.327700000000e-02 -1.014200000000e-01 -1.394180000000e-01
v -2.312300000000e-02 -1.058760000000e-01 -1.050200000000e-01
v -1.554900000000e-02 -9.918100000000e-02 -1.548840000000e-01
v 4.884900000000e-02 -1.016780000000e-01 -1.536470000000e-01
v 3.864000000000e-03 -1.003010000000e-01 -1.471510000000e-01
v -4.208300000000e-02 -1.113110000000e-01 -1.053200000000e-02
v 8.623000000000e-03 -1.017650000000e-01 -7.936700000000e-02
v -3.069600000000e-02 -1.125700000000e-01 -5.515500000000e-02
v 2.943600000000e-02 -1.005590000000e-01 -1.613800000000e-01
v -4.195000000000e-02 -1.049800000000e-01 -1.415260000000e-01
v -4.952400000000e-02 -1.116750000000e-01 -9.166200000000e-02
v 1.595000000000e-02 -1.015920000000e-01 -1.093930000000e-01
v -6.091000000000e-02 -1.104150000000e-01 -4.703800000000e-02
v 4.152200000000e-02 -1.018510000000e-01 -1.236220000000e-01
v -3.463000000000e-03 -1.004730000000e-01 -1.171260000000e-01
f 6 10 4
f 10 30 32
f 4 32 38
f 10 32 4
f 7 14 5
f 14 8 3
f 5 3 6
f 14 3 5
f 6 4 5
f 4 38 11
f 5 11 7
f 4 11 5
f 224 232 234
f 232 226 227
f 234 227 225
f 232 227 234
f 814 797 798
f 797 787 799
f 798 799 788
f 797 799 798
f 776 782 781
f 782 773 780
f 781 780 788
f 782 780 781
f 656 645 655
f 645 639 637
f 655 637 662
f 645 637 655
f 639 644 638
f 644 641 636
f 638 636 642
f 644 636 638
f 353 352 326
f 352 370 336
f 326 336 333
f 352 336 326
f 681 694 688
f 694 684 692
f 688 692 683
f 694 692 688
f 372 382 319
f 382 397 320
f 319 320 314
f 382 320 319
f 110 118 108
f 118 92 107
f 108 107 119
f 118 107 108
f 31 34 36
f 34 2 1
f 36 1 38
f 34 1 36
f 7 349 341
f 349 353 348
f 341 348 339
f 349 348 341
f 334 329 626
f 329 634 628
f 626 628 629
f 329 628 626
f 364 385 383
f 385 386 391
f 383 391 384
f 385 391 383
f 455 443 465
f 443 452 446
f 465 446 470
f 443 446 465
f 683 551 553
f 551 547 550
f 553 550 545
f 551 550 553
f 53 58 57
f 58 2 49
f 57 49 71
f 58 49 57
f 660 704 677
f 704 700 680
f 677 680 673
f 704 680 677
f 51 351 13
f 351 353 349
f 13 349 7
f 351 349 13
f 656 655 652
f 655 662 653
f 652 653 660
f 655 653 652
f 451 444 448
f 444 334 435
f 448 435 441
f 444 435 448
f 353 350 348
f 350 342 347
f 348 347 339
f 350 347 348
f 396 389 399
f 389 386 398
f 399 398 408
f 389 398 399
f 406 409 405
f 409 404 410
f 405 410 361
f 409 410 405
f 682 690 687
f 690 684 694
f 687 694 681
f 690 694 687
f 682 687 678
f 687 681 693
f 678 693 669
f 687 693 678
f 656 652 663
f 652 660 659
f 663 659 651
f 652 659 663
f 361 366 208
f 366 365 210
f 208 210 222
f 366 210 208
f 386 392 391
f 392 388 390
f 391 390 384
f 392 390 391
f 51 60 52
f 60 374 377
f 52 377 370
f 60 377 52
f 370 377 378
f 377 374 380
f 378 380 368
f 377 380 378
f 673 679 675
f 679 682 678
f 675 678 669
f 679 678 675
f 364 355 407
f 355 361 410
f 407 410 404
f 355 410 407
f 660 677 659
f 677 673 674
f 659 674 651
f 677 674 659
f 642 636 646
f 636 641 635
f 646 635 647
f 636 635 646
f 374 359 373
f 359 362 358
f 373 358 367
f 359 358 373
f 368 379 378
f 379 372 376
f 378 376 370
f 379 376 378
f 634 329 330
f 329 334 335
f 330 335 333
f 329 335 330
f 668 620 670
f 620 630 667
f 670 667 669
f 620 667 670
f 669 667 672
f 667 630 650
f 672 650 651
f 667 650 672
f 630 620 622
f 620 668 632
f 622 632 629
f 620 632 622
f 630 622 625
f 622 629 628
f 625 628 634
f 622 628 625
f 647 648 621
f 648 657 624
f 621 624 630
f 648 624 621
f 657 664 654
f 664 661 658
f 654 658 651
f 664 658 654
f 601 591 600
f 591 560 604
f 600 604 596
f 591 604 600
f 560 573 564
f 573 534 566
f 564 566 561
f 573 566 564
f 545 550 556
f 550 547 557
f 556 557 549
f 550 557 556
f 424 417 418
f 417 437 430
f 418 430 440
f 417 430 418
f 414 426 423
f 426 594 598
f 423 598 606
f 426 598 423
f 563 568 565
f 568 561 567
f 565 567 535
f 568 567 565
f 586 583 607
f 583 480 613
f 607 613 610
f 583 613 607
f 438 428 434
f 428 555 429
f 434 429 440
f 428 429 434
f 563 570 568
f 570 586 571
f 568 571 561
f 570 571 568
f 610 613 605
f 613 480 618
f 605 618 606
f 613 618 605
f 611 612 615
f 612 562 614
f 615 614 619
f 612 614 615
f 596 590 597
f 590 611 603
f 597 603 594
f 590 603 597
f 78 91 90
f 91 94 101
f 90 101 96
f 91 101 90
f 47 46 56
f 46 96 54
f 56 54 53
f 46 54 56
f 78 86 76
f 86 82 87
f 76 87 79
f 86 87 76
f 67 65 74
f 65 47 55
f 74 55 71
f 65 55 74
f 156 154 193
f 154 122 201
f 193 201 206
f 154 201 193
f 67 63 62
f 63 70 68
f 62 68 61
f 63 68 62
f 173 166 150
f 166 175 169
f 150 169 163
f 166 169 150
f 178 176 164
f 176 70 73
f 164 73 171
f 176 73 164
f 178 168 177
f 168 175 167
f 177 167 172
f 168 167 177
f 187 190 181
f 190 172 180
f 181 180 186
f 190 180 181
f 75 80 195
f 80 88 203
f 195 203 205
f 80 203 195
f 408 236 229
f 236 233 237
f 229 237 226
f 236 237 229
f 702 706 707
f 706 695 696
f 707 696 773
f 706 696 707
f 222 220 209
f 220 221 213
f 209 213 215
f 220 213 209
f 225 227 253
f 227 226 266
f 253 266 258
f 227 266 253
f 703 716 699
f 716 718 714
f 699 714 700
f 716 714 699
f 563 528 518
f 528 530 519
f 518 519 527
f 528 519 518
f 471 476 478
f 476 483 474
f 478 474 480
f 476 474 478
f 233 250 248
f 250 241 249
f 248 249 245
f 250 249 248
f 257 264 252
f 264 275 801
f 252 801 814
f 264 801 252
f 695 706 698
f 706 702 708
f 698 708 703
f 706 708 698
f 503 485 511
f 485 480 580
f 511 580 588
f 485 580 511
f 258 256 254
f 256 257 255
f 254 255 265
f 256 255 254
f 498 505 506
f 505 479 501
f 506 501 504
f 505 501 506
f 110 105 212
f 105 295 218
f 212 218 221
f 105 218 212
f 587 589 584
f 589 586 570
f 584 570 563
f 589 570 584
f 122 125 200
f 125 111 116
f 200 116 204
f 125 116 200
f 483 476 475
f 476 471 472
f 475 472 479
f 476 472 475
f 110 212 211
f 212 221 220
f 211 220 222
f 212 220 211
f 684 766 689
f 766 758 765
f 689 765 516
f 766 765 689
f 719 685 715
f 685 682 717
f 715 717 718
f 685 717 715
f 776 775 784
f 775 795 774
f 784 774 771
f 775 774 784
f 788 792 781
f 792 795 775
f 781 775 776
f 792 775 781
f 787 793 799
f 793 795 792
f 799 792 788
f 793 792 799
f 804 807 803
f 807 814 801
f 803 801 275
f 807 801 803
f 516 765 520
f 765 758 764
f 520 764 582
f 765 764 520
f 245 249 247
f 249 241 243
f 247 243 251
f 249 243 247
f 135 132 29
f 132 161 18
f 29 18 16
f 132 18 29
f 111 125 127
f 125 122 121
f 127 121 123
f 125 121 127
f 135 137 120
f 137 147 128
f 120 128 124
f 137 128 120
f 586 581 583
f 581 588 580
f 583 580 480
f 581 580 583
f 500 499 494
f 499 141 497
f 494 497 487
f 499 497 494
f 45 43 42
f 43 141 138
f 42 138 135
f 43 138 42
f 135 136 137
f 136 144 140
f 137 140 147
f 136 140 137
f 530 526 519
f 526 525 524
f 519 524 527
f 526 524 519
f 228 246 277
f 246 251 267
f 277 267 269
f 246 267 277
f 718 723 715
f 723 711 722
f 715 722 719
f 723 722 715
f 588 576 579
f 576 587 585
f 579 585 582
f 576 585 579
f 144 142 140
f 142 283 134
f 140 134 147
f 142 134 140
f 144 136 143
f 136 135 146
f 143 146 145
f 136 146 143
f 588 577 515
f 577 749 745
f 515 745 502
f 577 745 515
f 787 786 800
f 786 802 796
f 800 796 785
f 786 796 800
f 802 811 806
f 811 814 807
f 806 807 804
f 811 807 806
f 817 820 821
f 820 145 825
f 821 825 819
f 820 825 821
f 750 739 748
f 739 753 742
f 748 742 737
f 739 742 748
f 817 828 820
f 828 823 830
f 820 830 145
f 828 830 820
f 308 149 304
f 149 145 830
f 304 830 823
f 149 830 304
f 283 142 297
f 142 144 139
f 297 139 308
f 142 139 297
f 738 726 735
f 726 737 728
f 735 728 730
f 726 728 735
f 308 310 300
f 310 309 305
f 300 305 307
f 310 305 300
f 824 816 818
f 816 823 831
f 818 831 819
f 816 831 818
f 738 822 829
f 822 824 827
f 829 827 750
f 822 827 829
f 758 760 763
f 760 756 761
f 763 761 759
f 760 761 763
f 754 743 768
f 743 753 740
f 768 740 759
f 743 740 768
f 754 747 743
f 747 737 742
f 743 742 753
f 747 742 743
f 731 751 757
f 751 754 769
f 757 769 756
f 751 769 757
f 759 761 768
f 761 756 769
f 768 769 754
f 761 769 768
f 753 741 746
f 741 502 745
f 746 745 749
f 741 745 746
f 730 725 736
f 725 731 724
f 736 724 729
f 725 724 736
f 257 263 264
f 263 281 270
f 264 270 275
f 263 270 264
f 275 306 803
f 306 309 302
f 803 302 804
f 306 302 803
f 455 459 460
f 459 469 458
f 460 458 468
f 459 458 460
f 486 463 490
f 463 468 462
f 490 462 498
f 463 462 490
f 8 14 343
f 14 7 341
f 343 341 339
f 14 341 343
f 339 344 343
f 344 340 345
f 343 345 8
f 344 345 343
f 814 259 252
f 259 265 255
f 252 255 257
f 259 255 252
f 408 229 403
f 229 226 232
f 403 232 224
f 229 232 403
f 681 688 693
f 688 683 676
f 693 676 669
f 688 676 693
f 525 526 529
f 526 530 552
f 529 552 547
f 526 552 529
f 340 454 449
f 454 451 453
f 449 453 455
f 454 453 449
f 396 399 402
f 399 408 403
f 402 403 224
f 399 403 402
f 71 49 35
f 49 2 34
f 35 34 31
f 49 34 35
f 233 235 250
f 235 406 239
f 250 239 241
f 235 239 250
f 2 9 1
f 9 7 11
f 1 11 38
f 9 11 1
f 525 529 523
f 529 547 522
f 523 522 516
f 529 522 523
f 71 35 21
f 35 31 40
f 21 40 25
f 35 40 21
f 340 344 346
f 344 339 347
f 346 347 342
f 344 347 346
f 470 446 481
f 446 452 445
f 481 445 483
f 446 445 481
f 53 57 56
f 57 71 55
f 56 55 47
f 57 55 56
f 365 103 95
f 103 94 102
f 95 102 92
f 103 102 95
f 455 453 443
f 453 451 450
f 443 450 452
f 453 450 443
f 451 448 450
f 448 441 447
f 450 447 452
f 448 447 450
f 96 97 54
f 97 93 50
f 54 50 53
f 97 50 54
f 662 697 653
f 697 695 705
f 653 705 660
f 697 705 653
f 2 12 9
f 12 51 13
f 9 13 7
f 12 13 9
f 51 12 59
f 12 2 58
f 59 58 53
f 12 58 59
f 516 522 691
f 522 547 551
f 691 551 683
f 522 551 691
f 92 118 95
f 118 110 216
f 95 216 365
f 118 216 95
f 408 411 400
f 411 404 409
f 400 409 406
f 411 409 400
f 370 352 52
f 352 353 351
f 52 351 51
f 352 351 52
f 93 48 50
f 48 51 59
f 50 59 53
f 48 59 50
f 438 433 431
f 433 441 439
f 431 439 629
f 433 439 431
f 700 704 701
f 704 660 705
f 701 705 695
f 704 705 701
f 684 689 692
f 689 516 691
f 692 691 683
f 689 691 692
f 334 444 332
f 444 451 454
f 332 454 340
f 444 454 332
f 700 666 680
f 666 682 679
f 680 679 673
f 666 679 680
f 661 649 665
f 649 641 640
f 665 640 656
f 649 640 665
f 388 394 395
f 394 396 387
f 395 387 397
f 394 387 395
f 408 400 236
f 400 406 235
f 236 235 233
f 400 235 236
f 110 211 216
f 211 222 210
f 216 210 365
f 211 210 216
f 342 338 346
f 338 334 332
f 346 332 340
f 338 332 346
f 342 350 331
f 350 353 326
f 331 326 333
f 350 326 331
f 388 392 394
f 392 386 389
f 394 389 396
f 392 389 394
f 372 393 382
f 393 388 395
f 382 395 397
f 393 395 382
f 404 411 401
f 411 408 398
f 401 398 386
f 411 398 401
f 361 240 405
f 240 241 239
f 405 239 406
f 240 239 405
f 361 223 240
f 223 215 238
f 240 238 241
f 223 238 240
f 361 208 223
f 208 222 209
f 223 209 215
f 208 209 223
f 404 401 407
f 401 386 385
f 407 385 364
f 401 385 407
f 334 338 335
f 338 342 331
f 335 331 333
f 338 331 335
f 718 717 714
f 717 682 666
f 714 666 700
f 717 666 714
f 639 645 644
f 645 656 640
f 644 640 641
f 645 640 644
f 314 320 321
f 320 397 324
f 321 324 313
f 320 324 321
f 365 366 357
f 366 361 355
f 357 355 364
f 366 355 357
f 328 325 327
f 325 333 336
f 327 336 370
f 325 336 327
f 51 48 60
f 48 93 99
f 60 99 374
f 48 99 60
f 94 104 101
f 104 93 97
f 101 97 96
f 104 97 101
f 314 321 316
f 321 313 318
f 316 318 323
f 321 318 316
f 656 663 665
f 663 651 658
f 665 658 661
f 663 658 665
f 367 369 381
f 369 372 379
f 381 379 368
f 369 379 381
f 683 633 671
f 633 629 632
f 671 632 668
f 633 632 671
f 668 670 671
f 670 669 676
f 671 676 683
f 670 676 671
f 642 317 322
f 317 323 318
f 322 318 313
f 317 318 322
f 647 631 646
f 631 323 317
f 646 317 642
f 631 317 646
f 630 624 650
f 624 657 654
f 650 654 651
f 624 654 650
f 372 369 375
f 369 367 371
f 375 371 384
f 369 371 375
f 372 319 315
f 319 314 316
f 315 316 323
f 319 316 315
f 365 98 103
f 98 93 104
f 103 104 94
f 98 104 103
f 93 98 99
f 98 365 354
f 99 354 374
f 98 354 99
f 364 360 356
f 360 367 358
f 356 358 362
f 360 358 356
f 365 363 354
f 363 362 359
f 354 359 374
f 363 359 354
f 368 380 381
f 380 374 373
f 381 373 367
f 380 373 381
f 365 357 363
f 357 364 356
f 363 356 362
f 357 356 363
f 367 360 371
f 360 364 383
f 371 383 384
f 360 383 371
f 372 375 393
f 375 384 390
f 393 390 388
f 375 390 393
f 370 376 327
f 376 372 312
f 327 312 328
f 376 312 327
f 328 312 311
f 312 372 315
f 311 315 323
f 312 315 311
f 545 554 546
f 554 438 431
f 546 431 629
f 554 431 546
f 629 439 626
f 439 441 435
f 626 435 334
f 439 435 626
f 683 553 633
f 553 545 546
f 633 546 629
f 553 546 633
f 634 337 627
f 337 328 311
f 627 311 323
f 337 311 627
f 630 623 621
f 623 323 631
f 621 631 647
f 623 631 621
f 328 337 325
f 337 634 330
f 325 330 333
f 337 330 325
f 634 627 625
f 627 323 623
f 625 623 630
f 627 623 625
f 657 648 643
f 648 647 635
f 643 635 641
f 648 635 643
f 669 672 675
f 672 651 674
f 675 674 673
f 672 674 675
f 657 643 664
f 643 641 649
f 664 649 661
f 643 649 664
f 549 532 533
f 532 535 536
f 533 536 534
f 532 536 533
f 549 533 542
f 533 534 539
f 542 539 541
f 533 539 542
f 602 592 599
f 592 601 600
f 599 600 596
f 592 600 599
f 440 429 543
f 429 555 531
f 543 531 544
f 429 531 543
f 427 413 421
f 413 602 420
f 421 420 424
f 413 420 421
f 541 538 537
f 538 544 531
f 537 531 555
f 538 531 537
f 530 558 552
f 558 549 557
f 552 557 547
f 558 557 552
f 483 445 416
f 445 452 442
f 416 442 414
f 445 442 416
f 437 436 432
f 436 441 433
f 432 433 438
f 436 433 432
f 452 447 456
f 447 441 436
f 456 436 437
f 447 436 456
f 541 537 542
f 537 555 548
f 542 548 549
f 537 548 542
f 545 559 554
f 559 555 428
f 554 428 438
f 559 428 554
f 438 434 432
f 434 440 430
f 432 430 437
f 434 430 432
f 535 532 540
f 532 549 558
f 540 558 530
f 532 558 540
f 480 474 618
f 474 483 422
f 618 422 606
f 474 422 618
f 594 425 593
f 425 424 420
f 593 420 602
f 425 420 593
f 414 423 416
f 423 606 422
f 416 422 483
f 423 422 416
f 424 425 415
f 425 594 426
f 415 426 414
f 425 426 415
f 545 556 559
f 556 549 548
f 559 548 555
f 556 548 559
f 452 456 442
f 456 437 412
f 442 412 414
f 456 412 442
f 610 617 609
f 617 611 615
f 609 615 619
f 617 615 609
f 611 616 603
f 616 606 598
f 603 598 594
f 616 598 603
f 535 540 565
f 540 530 528
f 565 528 563
f 540 528 565
f 611 595 612
f 595 560 574
f 612 574 562
f 595 574 612
f 594 593 597
f 593 602 599
f 597 599 596
f 593 599 597
f 562 569 614
f 569 586 608
f 614 608 619
f 569 608 614
f 427 421 419
f 421 424 418
f 419 418 440
f 421 418 419
f 611 617 616
f 617 610 605
f 616 605 606
f 617 605 616
f 561 566 567
f 566 534 536
f 567 536 535
f 566 536 567
f 586 569 571
f 569 562 572
f 571 572 561
f 569 572 571
f 596 604 590
f 604 560 595
f 590 595 611
f 604 595 590
f 561 572 564
f 572 562 574
f 564 574 560
f 572 574 564
f 414 412 415
f 412 437 417
f 415 417 424
f 412 417 415
f 586 607 608
f 607 610 609
f 608 609 619
f 607 609 608
f 71 28 66
f 28 22 159
f 66 159 171
f 28 159 66
f 92 102 100
f 102 94 91
f 100 91 78
f 102 91 100
f 75 77 89
f 77 78 76
f 89 76 79
f 77 76 89
f 161 151 18
f 151 22 27
f 18 27 16
f 151 27 18
f 192 182 191
f 182 186 185
f 191 185 173
f 182 185 191
f 173 153 191
f 153 156 179
f 191 179 192
f 153 179 191
f 207 109 202
f 109 119 115
f 202 115 75
f 109 115 202
f 75 115 112
f 115 119 107
f 112 107 92
f 115 107 112
f 78 77 100
f 77 75 112
f 100 112 92
f 77 112 100
f 204 106 198
f 106 119 109
f 198 109 207
f 106 109 198
f 67 69 65
f 69 96 46
f 65 46 47
f 69 46 65
f 61 85 84
f 85 82 86
f 84 86 78
f 85 86 84
f 61 64 62
f 64 96 69
f 62 69 67
f 64 69 62
f 61 84 64
f 84 78 90
f 64 90 96
f 84 90 64
f 175 170 169
f 170 171 162
f 169 162 163
f 170 162 169
f 161 131 158
f 131 123 155
f 158 155 156
f 131 155 158
f 22 160 159
f 160 163 162
f 159 162 171
f 160 162 159
f 206 189 193
f 189 192 179
f 193 179 156
f 189 179 193
f 173 150 153
f 150 163 157
f 153 157 156
f 150 157 153
f 204 196 200
f 196 206 201
f 200 201 122
f 196 201 200
f 163 152 157
f 152 161 158
f 157 158 156
f 152 158 157
f 22 151 160
f 151 161 152
f 160 152 163
f 151 152 160
f 171 73 66
f 73 70 72
f 66 72 71
f 73 72 66
f 71 72 74
f 72 70 63
f 74 63 67
f 72 63 74
f 122 154 121
f 154 156 155
f 121 155 123
f 154 155 121
f 207 197 198
f 197 206 196
f 198 196 204
f 197 196 198
f 192 184 188
f 184 205 183
f 188 183 187
f 184 183 188
f 186 180 185
f 180 172 165
f 185 165 173
f 180 165 185
f 192 188 182
f 188 187 181
f 182 181 186
f 188 181 182
f 171 170 164
f 170 175 168
f 164 168 178
f 170 168 164
f 206 199 189
f 199 205 184
f 189 184 192
f 199 184 189
f 206 197 199
f 197 207 194
f 199 194 205
f 197 194 199
f 173 165 166
f 165 172 167
f 166 167 175
f 165 167 166
f 172 174 177
f 174 70 176
f 177 176 178
f 174 176 177
f 75 89 80
f 89 79 81
f 80 81 88
f 89 81 80
f 88 81 83
f 81 79 87
f 83 87 82
f 81 87 83
f 205 194 195
f 194 207 202
f 195 202 75
f 194 202 195
f 141 44 497
f 44 30 492
f 497 492 487
f 44 492 497
f 770 778 779
f 778 773 782
f 779 782 776
f 778 782 779
f 486 490 491
f 490 498 489
f 491 489 487
f 490 489 491
f 482 464 473
f 464 470 481
f 473 481 483
f 464 481 473
f 470 466 465
f 466 469 459
f 465 459 455
f 466 459 465
f 582 764 767
f 764 758 763
f 767 763 759
f 764 763 767
f 479 461 467
f 461 468 458
f 467 458 469
f 461 458 467
f 468 461 462
f 461 479 505
f 462 505 498
f 461 505 462
f 802 786 811
f 786 787 797
f 811 797 814
f 786 797 811
f 19 24 15
f 24 16 27
f 15 27 22
f 24 27 15
f 703 699 698
f 699 700 701
f 698 701 695
f 699 701 698
f 265 260 254
f 260 225 253
f 254 253 258
f 260 253 254
f 482 457 464
f 457 469 466
f 464 466 470
f 457 466 464
f 25 40 33
f 40 31 36
f 33 36 38
f 40 36 33
f 25 20 21
f 20 22 28
f 21 28 71
f 20 28 21
f 479 472 509
f 472 471 484
f 509 484 503
f 472 484 509
f 487 492 491
f 492 30 493
f 491 493 486
f 492 493 491
f 498 506 495
f 506 504 507
f 495 507 500
f 506 507 495
f 19 23 17
f 23 25 41
f 17 41 45
f 23 41 17
f 295 114 282
f 114 111 126
f 282 126 147
f 114 126 282
f 251 242 214
f 242 215 213
f 214 213 221
f 242 213 214
f 123 131 133
f 131 161 132
f 133 132 135
f 131 132 133
f 719 686 685
f 686 684 690
f 685 690 682
f 686 690 685
f 482 477 457
f 477 479 467
f 457 467 469
f 477 467 457
f 483 475 473
f 475 479 477
f 473 477 482
f 475 477 473
f 498 495 489
f 495 500 494
f 489 494 487
f 495 494 489
f 25 33 41
f 33 38 39
f 41 39 45
f 33 39 41
f 38 32 39
f 32 30 37
f 39 37 45
f 32 37 39
f 19 17 26
f 17 45 42
f 26 42 135
f 17 42 26
f 111 114 117
f 114 295 105
f 117 105 110
f 114 105 117
f 22 20 15
f 20 25 23
f 15 23 19
f 20 23 15
f 245 244 248
f 244 228 230
f 248 230 233
f 244 230 248
f 241 238 243
f 238 215 242
f 243 242 251
f 238 242 243
f 221 219 214
f 219 296 217
f 214 217 251
f 219 217 214
f 124 129 130
f 129 111 127
f 130 127 123
f 129 127 130
f 480 485 478
f 485 503 484
f 478 484 471
f 485 484 478
f 588 581 576
f 581 586 589
f 576 589 587
f 581 589 576
f 504 501 510
f 501 479 509
f 510 509 503
f 501 509 510
f 30 44 37
f 44 141 43
f 37 43 45
f 44 43 37
f 226 237 231
f 237 233 230
f 231 230 228
f 237 230 231
f 111 117 113
f 117 110 108
f 113 108 119
f 117 108 113
f 756 760 755
f 760 758 766
f 755 766 684
f 760 766 755
f 258 266 261
f 266 226 231
f 261 231 228
f 266 231 261
f 281 262 271
f 262 258 261
f 271 261 228
f 262 261 271
f 251 246 247
f 246 228 244
f 247 244 245
f 246 244 247
f 16 24 29
f 24 19 26
f 29 26 135
f 24 26 29
f 587 575 585
f 575 527 517
f 585 517 582
f 575 517 585
f 145 148 496
f 148 141 499
f 496 499 500
f 148 499 496
f 141 148 138
f 148 145 146
f 138 146 135
f 148 146 138
f 124 130 120
f 130 123 133
f 120 133 135
f 130 133 120
f 281 263 262
f 263 257 256
f 262 256 258
f 263 256 262
f 295 282 293
f 282 147 134
f 293 134 283
f 282 134 293
f 294 285 292
f 285 283 291
f 292 291 290
f 285 291 292
f 111 129 126
f 129 124 128
f 126 128 147
f 129 128 126
f 516 520 523
f 520 582 521
f 523 521 525
f 520 521 523
f 719 762 686
f 762 756 755
f 686 755 684
f 762 755 686
f 228 277 271
f 277 269 278
f 271 278 281
f 277 278 271
f 711 709 712
f 709 729 724
f 712 724 731
f 709 724 712
f 563 518 584
f 518 527 575
f 584 575 587
f 518 575 584
f 770 733 778
f 733 729 732
f 778 732 773
f 733 732 778
f 770 779 783
f 779 776 784
f 783 784 771
f 779 784 783
f 787 800 793
f 800 785 791
f 793 791 795
f 800 791 793
f 204 116 106
f 116 111 113
f 106 113 119
f 116 113 106
f 582 517 521
f 517 527 524
f 521 524 525
f 517 524 521
f 221 218 219
f 218 295 287
f 219 287 296
f 218 287 219
f 731 713 712
f 713 719 722
f 712 722 711
f 713 722 712
f 718 716 723
f 716 703 720
f 723 720 711
f 716 720 723
f 711 720 721
f 720 703 708
f 721 708 702
f 720 708 721
f 702 710 721
f 710 729 709
f 721 709 711
f 710 709 721
f 729 710 732
f 710 702 707
f 732 707 773
f 710 707 732
f 588 515 511
f 515 502 514
f 511 514 503
f 515 514 511
f 819 488 512
f 488 500 507
f 512 507 504
f 488 507 512
f 145 496 825
f 496 500 488
f 825 488 819
f 496 488 825
f 295 289 287
f 289 294 284
f 287 284 296
f 289 284 287
f 295 293 289
f 293 283 285
f 289 285 294
f 293 285 289
f 730 736 734
f 736 729 733
f 734 733 770
f 736 733 734
f 307 274 286
f 274 276 288
f 286 288 294
f 274 288 286
f 294 292 286
f 292 290 301
f 286 301 307
f 292 301 286
f 294 288 284
f 288 276 273
f 284 273 296
f 288 273 284
f 276 280 273
f 280 269 279
f 273 279 296
f 280 279 273
f 738 777 772
f 777 770 783
f 772 783 771
f 777 783 772
f 785 794 791
f 794 808 789
f 791 789 795
f 794 789 791
f 308 303 297
f 303 290 291
f 297 291 283
f 303 291 297
f 145 149 143
f 149 308 139
f 143 139 144
f 149 139 143
f 296 279 217
f 279 269 267
f 217 267 251
f 279 267 217
f 823 828 831
f 828 817 821
f 831 821 819
f 828 821 831
f 738 735 777
f 735 730 734
f 777 734 770
f 735 734 777
f 804 812 806
f 812 808 815
f 806 815 802
f 812 815 806
f 802 815 796
f 815 808 794
f 796 794 785
f 815 794 796
f 808 813 789
f 813 738 790
f 789 790 795
f 813 790 789
f 738 772 790
f 772 771 774
f 790 774 795
f 772 774 790
f 309 310 298
f 310 308 304
f 298 304 823
f 310 304 298
f 823 810 298
f 810 804 302
f 298 302 309
f 810 302 298
f 750 827 826
f 827 824 818
f 826 818 819
f 827 818 826
f 823 809 810
f 809 808 812
f 810 812 804
f 809 812 810
f 308 300 303
f 300 307 301
f 303 301 290
f 300 301 303
f 307 305 299
f 305 309 306
f 299 306 275
f 305 306 299
f 738 813 822
f 813 808 805
f 822 805 824
f 813 805 822
f 823 816 809
f 816 824 805
f 809 805 808
f 816 805 809
f 582 767 578
f 767 759 744
f 578 744 749
f 767 744 578
f 588 579 577
f 579 582 578
f 577 578 749
f 579 578 577
f 759 740 744
f 740 753 746
f 744 746 749
f 740 746 744
f 731 757 713
f 757 756 762
f 713 762 719
f 757 762 713
f 750 748 829
f 748 737 726
f 829 726 738
f 748 726 829
f 750 752 739
f 752 502 741
f 739 741 753
f 752 741 739
f 504 508 512
f 508 750 826
f 512 826 819
f 508 826 512
f 754 751 747
f 751 731 727
f 747 727 737
f 751 727 747
f 731 725 727
f 725 730 728
f 727 728 737
f 725 728 727
f 750 508 752
f 508 504 513
f 752 513 502
f 508 513 752
f 503 514 510
f 514 502 513
f 510 513 504
f 514 513 510
f 281 278 272
f 278 269 280
f 272 280 276
f 278 280 272
f 275 270 268
f 270 281 272
f 268 272 276
f 270 272 268
f 276 274 268
f 274 307 299
f 268 299 275
f 274 299 268
