$MeshFormat
2.2 0 8
$EndMeshFormat
$Nodes
617
1 -3.548737615347e-02 8.263482153416e-02 9.784695692360e-03
2 -3.677220642567e-02 8.859419077635e-02 1.467296201736e-02
3 -3.860387578607e-02 7.253553718328e-02 5.784315988421e-03
4 -3.652563318610e-02 8.389244228601e-02 3.556842217222e-03
5 -3.698818013072e-02 8.004039525986e-02 1.482593454421e-02
6 -4.062132909894e-02 8.598586916924e-02 4.056817386299e-03
7 -3.882296755910e-02 8.044219017029e-02 6.458828691393e-03
8 -4.130973294377e-02 8.818519860506e-02 9.671435691416e-03
9 -3.904383629560e-02 9.383814036846e-02 1.883692666888e-02
10 -4.023374244571e-02 9.412623941898e-02 9.992964565754e-03
11 -3.912680596113e-02 8.138731867075e-02 -4.934582466376e-05
12 -4.081599786878e-02 9.078238159418e-02 1.734546385705e-02
13 -4.134664684534e-02 9.410701692104e-02 2.358767203987e-03
14 -3.851317614317e-02 8.873807638884e-02 5.012831185013e-03
15 -4.282076284289e-02 9.325274080038e-02 1.130531914532e-02
16 -1.907442510128e-02 9.032002836466e-02 4.055498912930e-02
17 -3.669948130846e-02 9.266949445009e-02 2.652706392109e-02
18 -2.201903238893e-02 8.457562327385e-02 3.191887214780e-02
19 -2.040057815611e-02 9.381514787674e-02 3.883256018162e-02
20 -2.403258904815e-02 7.919220626354e-02 3.239274770021e-02
21 -2.638056129217e-02 9.084987640381e-02 3.677395731211e-02
22 -1.893712207675e-02 6.995746493340e-02 3.118984028697e-02
23 -3.061512112617e-02 8.742983639240e-02 3.071874566376e-02
24 -3.092137165368e-02 8.601813763380e-02 2.403059974313e-02
25 -2.926969341934e-02 7.711732387543e-02 2.196573652327e-02
26 -3.027370758355e-02 7.558945566416e-02 2.537998557091e-02
27 -3.350217640400e-02 9.356171637774e-02 2.536483854055e-02
28 -3.478132560849e-02 8.555161207914e-02 2.379018999636e-02
29 -2.881359867752e-02 9.326972067356e-02 3.108518756926e-02
30 -3.117658011615e-02 9.335316717625e-02 3.261335939169e-02
31 -3.153968974948e-02 6.667114049196e-02 1.754910126328e-02
32 -2.766324765980e-02 6.299528479576e-02 2.830986119807e-02
33 -2.635343186557e-02 6.455732136965e-02 2.517115511000e-02
34 -3.248184919357e-02 4.752360284328e-02 2.200344577432e-02
35 -3.232207894325e-02 5.697653070092e-02 2.226444520056e-02
36 -3.078819066286e-02 5.615650489926e-02 1.912538148463e-02
37 -3.653164580464e-02 6.111214682460e-02 1.260622870177e-02
38 -3.043457120657e-02 4.849357530475e-02 1.959538087249e-02
39 -3.519814461470e-02 6.869988143444e-02 1.781665347517e-02
40 -3.473517671227e-02 6.975959986448e-02 8.317225612700e-03
41 -2.560708299279e-02 5.111151188612e-02 2.596575580537e-02
42 -2.680955454707e-02 5.093557760119e-02 2.913118526340e-02
43 -2.033017016947e-02 5.812769383192e-02 3.021994233131e-02
44 -3.461967781186e-02 3.584722429514e-02 8.511707186699e-03
45 -3.790033981204e-02 4.316673800349e-02 7.667830679566e-03
46 -3.447205200791e-02 3.108108229935e-02 1.864323206246e-02
47 -3.386412560940e-02 3.840093687177e-02 1.993307657540e-02
48 -3.063737973571e-02 4.070755466819e-02 1.931654848158e-02
49 -3.674756363034e-02 4.139005392790e-02 1.301047764719e-02
50 -3.712062910199e-02 3.426487371325e-02 1.136516034603e-02
51 -3.201250359416e-02 3.071293793619e-02 1.683731935918e-02
52 -2.600408717990e-02 3.966088965535e-02 2.990257926285e-02
53 -3.593730926514e-02 4.900150001049e-02 1.520908717066e-02
54 -3.354807943106e-02 4.250273108482e-02 1.133775990456e-02
55 -2.506374754012e-02 3.753051906824e-02 2.658987604082e-02
56 -3.255017474294e-02 4.939575865865e-02 1.387729402632e-02
57 -3.045282326639e-02 3.048060461879e-02 2.474840357900e-02
58 -3.762607648969e-02 3.226586058736e-02 -5.337843205780e-03
59 -3.758564218879e-02 5.308971926570e-02 8.654379285872e-03
60 -3.489868715405e-02 4.633836820722e-02 6.387572735548e-03
61 -3.510452434421e-02 4.062048345804e-02 2.697195741348e-04
62 -3.487421944737e-02 4.916445910931e-02 -1.592434593476e-03
63 -3.811689093709e-02 5.209992825985e-02 1.340185757726e-03
64 -3.569500148296e-02 4.410623013973e-02 -1.138120610267e-02
65 -3.459577634931e-02 3.188973292708e-02 -4.454646725208e-03
66 -3.696341812611e-02 5.109800025821e-02 -7.541215047240e-03
67 -3.733247518539e-02 4.233022406697e-02 -6.397535093129e-03
68 -3.222361207008e-02 4.324353113770e-02 -1.166405342519e-02
69 -3.427583351731e-02 3.650515526533e-02 -1.467686798424e-02
70 -3.456928580999e-02 5.667491629720e-02 8.015928789973e-03
71 -3.818976134062e-02 4.055835306644e-02 6.139795295894e-04
72 1.323534920812e-02 9.170958399773e-02 4.158910363913e-02
73 1.925371401012e-02 8.779046684504e-02 3.237296640873e-02
74 1.784586347640e-02 8.852719515562e-02 3.798678517342e-02
75 2.800881117582e-02 9.313418716192e-02 3.200366720557e-02
76 2.647517994046e-02 9.384703636169e-02 2.995962463319e-02
77 2.836387790740e-02 8.837260305882e-02 2.958354353905e-02
78 2.231060899794e-02 9.287855029106e-02 3.680114820600e-02
79 3.330187872052e-02 9.388236701488e-02 2.590547688305e-02
80 1.845033280551e-02 7.662389427423e-02 3.286134079099e-02
81 1.284907851368e-02 8.043829351664e-02 3.302274644375e-02
82 1.388547755778e-02 8.208224922419e-02 3.657164052129e-02
83 1.905135996640e-02 9.381277859211e-02 3.482114896178e-02
84 1.267131231725e-02 9.406246989965e-02 3.914933279157e-02
85 2.450637333095e-02 8.303298801184e-02 2.952548302710e-02
86 7.395412307233e-03 8.758359402418e-02 4.161508753896e-02
87 3.625053912401e-02 9.463046491146e-02 1.695225201547e-02
88 2.153990231454e-02 7.109030336142e-02 3.009012527764e-02
89 3.861787542701e-02 9.308592230082e-02 1.273966301233e-02
90 2.438878454268e-02 8.407030254602e-02 2.514935471117e-02
91 2.008184045553e-02 7.485942542553e-02 2.724307216704e-02
92 1.901602558792e-02 6.617733836174e-02 2.814937382936e-02
93 2.740512043238e-02 6.740296632051e-02 2.352535910904e-02
94 2.701546065509e-02 7.556788623333e-02 2.387589961290e-02
95 3.230329975486e-02 9.301233291626e-02 2.238881774247e-02
96 3.165037930012e-02 8.294054120779e-02 1.862547732890e-02
97 3.179445862770e-02 8.803434669971e-02 1.555438246578e-02
98 3.528117388487e-02 9.144575893879e-02 2.223260328174e-02
99 2.734730578959e-02 7.288058847189e-02 1.737310178578e-02
100 2.782224677503e-02 8.160599321127e-02 1.723154261708e-02
101 3.205700218678e-02 7.333128899336e-02 1.615910604596e-02
102 -7.720930967480e-03 9.068693220615e-02 4.396006837487e-02
103 -2.466303994879e-03 9.012762457132e-02 4.431129619479e-02
104 -1.425340957940e-02 7.869087159634e-02 3.725662827492e-02
105 -1.013107877225e-02 8.538599312305e-02 3.691439330578e-02
106 -1.267223269679e-03 9.018996357918e-02 4.035115987062e-02
107 -1.289965119213e-02 9.287311136723e-02 4.314709082246e-02
108 4.145712126046e-03 9.379532933235e-02 4.073733463883e-02
109 -7.262228522450e-03 8.721478283405e-02 4.203686490655e-02
110 -4.379888065159e-03 9.352819621563e-02 4.232534021139e-02
111 -7.161605637521e-03 9.334824234247e-02 4.351958259940e-02
112 -1.392913982272e-03 9.371650218964e-02 4.395049065351e-02
113 5.623749922961e-03 9.259071201086e-02 4.364543408155e-02
114 -1.053528301418e-02 9.364908933640e-02 4.136665165424e-02
115 -4.792235326022e-03 8.027698844671e-02 3.939925879240e-02
116 3.021639771760e-03 8.574648201466e-02 3.778170421720e-02
117 -8.032600395381e-03 4.357864707708e-02 3.836632892489e-02
118 -1.548117841594e-03 4.671042412519e-02 3.580508753657e-02
119 -8.391310460865e-03 7.365697622299e-02 3.526912629604e-02
120 -1.123370043933e-02 4.220124706626e-02 3.449441865087e-02
121 -9.459659457207e-03 5.666744709015e-02 3.493380174041e-02
122 -8.751315996051e-03 5.602770298719e-02 3.822707012296e-02
123 -1.828209497035e-02 4.877038300037e-02 3.135234490037e-02
124 -1.608433388174e-02 3.744627535343e-02 3.595301508904e-02
125 -3.540333593264e-03 5.141243711114e-02 3.836329281330e-02
126 -1.893834397197e-02 6.796663999557e-02 3.476629406214e-02
127 -1.837090216577e-02 5.726327002048e-02 3.501614928246e-02
128 -1.750259287655e-02 3.854757174850e-02 3.192918375134e-02
129 -1.872098259628e-02 4.430923610926e-02 3.476600721478e-02
130 -1.439152006060e-02 5.161067843437e-02 3.664002940059e-02
131 1.126717193983e-03 6.610708683729e-02 3.578323125839e-02
132 1.107128709555e-02 5.334665253758e-02 3.326027840376e-02
133 1.348458323628e-02 5.597241595387e-02 3.551549836993e-02
134 3.110007615760e-03 7.708140462637e-02 3.871731087565e-02
135 1.362365763634e-02 6.884120404720e-02 3.537045791745e-02
136 -8.092817850411e-03 6.686493754387e-02 3.841960057616e-02
137 8.370475843549e-03 6.209846585989e-02 3.754888102412e-02
138 9.325129911304e-03 6.868673861027e-02 3.395500034094e-02
139 2.169562270865e-03 5.641382187605e-02 3.866910561919e-02
140 3.313604393043e-04 5.569417029619e-02 3.584437817335e-02
141 1.482843793929e-02 6.146836280823e-02 3.136761859059e-02
142 3.853519447148e-03 6.728772073984e-02 3.862562403083e-02
143 9.007565677166e-03 6.096323207021e-02 3.412753716111e-02
144 1.593935117126e-02 6.303621083498e-02 3.424749523401e-02
145 1.220192760229e-03 7.479257881641e-02 3.576387092471e-02
146 7.198396138847e-03 9.386813640594e-02 -3.372590243816e-02
147 9.506565518677e-03 8.731429278851e-02 -3.081051632762e-02
148 6.344790104777e-03 7.922958582640e-02 -3.262810409069e-02
149 2.875930396840e-03 8.619352430105e-02 -3.134939074516e-02
150 -3.489571390674e-03 9.379839897156e-02 -3.750035166740e-02
151 3.554109251127e-03 9.014250338078e-02 -3.366419672966e-02
152 3.452709352132e-04 9.403039515018e-02 -3.727408498526e-02
153 4.380528349429e-03 9.398412704468e-02 -3.725847974420e-02
154 6.550169084221e-03 8.793044835329e-02 -3.546546027064e-02
155 -2.418198157102e-03 8.910015225410e-02 -3.345605358481e-02
156 8.836582303047e-03 9.229788929224e-02 -3.605486080050e-02
157 2.212246472482e-04 9.365184605122e-02 -3.539708629251e-02
158 8.365561370738e-04 8.670143783092e-02 -3.541759401560e-02
159 1.887774997158e-04 9.073325991631e-02 -3.766620531678e-02
160 3.733318531886e-03 8.063402026892e-02 -2.941824495792e-02
161 -7.734854705632e-03 8.948730677366e-02 -3.340461477637e-02
162 -1.264351233840e-02 9.367305785418e-02 -3.658677637577e-02
163 -1.203241292387e-02 8.497029542923e-02 -3.392220288515e-02
164 -1.123284175992e-02 8.977297693491e-02 -3.672496229410e-02
165 -5.146081093699e-03 8.540150523186e-02 -3.552483394742e-02
166 -1.079000718892e-02 8.813775330782e-02 -3.231602907181e-02
167 -5.474538542330e-03 9.028319269419e-02 -3.755933791399e-02
168 -8.917532861233e-03 8.762238174677e-02 -3.572289645672e-02
169 -3.207918489352e-03 8.524525165558e-02 -3.135786578059e-02
170 -1.144528482109e-02 9.198329597712e-02 -3.411548212171e-02
171 -7.793441414833e-03 8.521690964699e-02 -3.114422410727e-02
172 -8.209411054850e-03 9.339947253466e-02 -3.731246665120e-02
173 -6.615420803428e-03 9.295424073935e-02 -3.496250510216e-02
174 3.695758059621e-02 9.420175105333e-02 -1.889663981274e-03
175 3.354042023420e-02 8.796993643045e-02 6.545161362737e-03
176 3.912719711661e-02 9.307535737753e-02 -1.164329471067e-03
177 3.380438312888e-02 6.676339358091e-02 -6.225222605281e-04
178 3.062698058784e-02 7.525721937418e-02 -1.265459461138e-03
179 3.655076771975e-02 9.441764652729e-02 7.701235357672e-03
180 3.450429067016e-02 8.094656467438e-02 3.883816301823e-03
181 3.089090436697e-02 6.756769865751e-02 3.283774713054e-04
182 3.378783166409e-02 6.187443435192e-02 6.582166999578e-03
183 3.584930673242e-02 8.651278913021e-02 -5.043427459896e-03
184 3.185757249594e-02 8.516571670771e-02 -3.369801212102e-03
185 3.048203699291e-02 6.805557012558e-02 5.569257773459e-03
186 3.107865154743e-02 8.210765570402e-02 3.157998435199e-03
187 3.016785718501e-02 7.941593974829e-02 1.014220062643e-02
188 3.377430513501e-02 7.304945588112e-02 8.147676475346e-03
189 1.497557666153e-02 9.382970631123e-02 -3.164852783084e-02
190 1.944511011243e-02 8.571810275316e-02 -2.414098381996e-02
191 3.170028328896e-02 9.431392699480e-02 -1.613370701671e-02
192 3.256914392114e-02 9.354142844677e-02 -1.895757019520e-02
193 2.641445584595e-02 9.402459114790e-02 -2.605853416026e-02
194 2.752333320677e-02 9.423209726810e-02 -2.196766808629e-02
195 2.183755114675e-02 9.065125882626e-02 -3.000013343990e-02
196 2.896282263100e-02 8.769221603870e-02 -2.117175050080e-02
197 1.607234403491e-02 9.384567290545e-02 -3.378513827920e-02
198 2.116745896637e-02 9.374396502972e-02 -3.045085072517e-02
199 1.334462873638e-02 8.927362412214e-02 -3.405326977372e-02
200 2.142600901425e-02 9.428387135267e-02 -2.704096585512e-02
201 1.058680191636e-02 9.420994669199e-02 -3.573254495859e-02
202 3.623181581497e-02 9.056934714317e-02 -1.057067513466e-02
203 2.495964430273e-02 8.101899176836e-02 -2.163547277451e-02
204 3.280923515558e-02 8.983138948679e-02 -9.374594315886e-03
205 2.481276169419e-02 7.256875932217e-02 -2.128192409873e-02
206 2.767664007843e-02 6.480280309916e-02 -1.766323484480e-02
207 2.791756764054e-02 6.762290000916e-02 -1.126257609576e-02
208 2.655525505543e-02 8.260900527239e-02 -1.534683071077e-02
209 1.922836340964e-02 7.001740485430e-02 -2.234994247556e-02
210 3.130768984556e-02 7.937330752611e-02 -1.192754413933e-02
211 1.933610811830e-02 6.952944397926e-02 -2.607568539679e-02
212 1.756090670824e-02 7.839529961348e-02 -2.747176215053e-02
213 3.284467011690e-02 8.935938030481e-02 -1.664785295725e-02
214 3.598353266716e-02 9.447158873081e-02 -1.056858152151e-02
215 1.097516715527e-02 6.858032941818e-02 -3.083443082869e-02
216 3.164280578494e-02 6.668601930141e-02 -1.024377159774e-02
217 -3.758697211742e-02 7.812998443842e-02 -6.777668837458e-03
218 -2.660727500916e-02 6.615434587002e-02 -2.002547308803e-02
219 -3.633711859584e-02 7.004032284021e-02 -9.086186997592e-03
220 -3.388242796063e-02 7.948360592127e-02 -7.048195693642e-03
221 -3.816378116608e-02 6.383177638054e-02 3.289564047009e-03
222 -3.562637791038e-02 7.820794731379e-02 1.449770643376e-03
223 -3.473546355963e-02 6.193124875426e-02 -2.943409839645e-03
224 -3.868190944195e-02 7.233498245478e-02 -1.738522085361e-03
225 -3.770841285586e-02 6.137560680509e-02 -4.079726990312e-03
226 -3.490499034524e-02 7.284636795521e-02 -1.223549246788e-03
227 -3.147894516587e-02 7.232674956322e-02 -1.277894433588e-02
228 -3.356942534447e-02 6.373753398657e-02 -1.546459924430e-02
229 -3.533772006631e-02 5.645364150405e-02 -1.126922201365e-02
230 -3.139921277761e-02 6.445857882500e-02 -1.291976310313e-02
231 -3.100183047354e-02 6.879867613316e-02 -1.988495886326e-02
232 -4.190166294575e-02 8.974461257458e-02 -5.866368301213e-03
233 -3.964272141457e-02 9.072846174240e-02 -1.644520903938e-03
234 -4.070803523064e-02 8.571744710207e-02 -2.337199635804e-03
235 -3.856921941042e-02 8.277773857117e-02 -5.141174886376e-03
236 -3.460171818733e-02 8.425628393888e-02 -9.021912701428e-03
237 -3.717121481895e-02 8.939748257399e-02 -9.066151455045e-03
238 -3.890744224191e-02 8.573681116104e-02 -8.734432049096e-03
239 -4.300588369370e-02 9.324375540018e-02 -4.290056414902e-03
240 -4.117060080171e-02 9.407077729702e-02 -3.651381004602e-03
241 -3.929610177875e-02 9.416874498129e-02 -6.546464748681e-03
242 -4.092761501670e-02 9.076735377312e-02 -1.041608210653e-02
243 -3.727342188358e-02 9.235032647848e-02 -1.294029131532e-02
244 -4.374198243022e-02 9.274782240391e-02 8.855833439156e-04
245 -3.707095608115e-02 8.665609359741e-02 -3.568930318579e-03
246 -4.099455848336e-02 9.403453022242e-02 -9.661529213190e-03
247 -3.767392784357e-02 8.576512336731e-02 -1.472481805831e-02
248 -3.420103713870e-02 8.381199836731e-02 -2.063434757292e-02
249 -2.639309316874e-02 7.500300556421e-02 -2.170308679342e-02
250 -3.355155140162e-02 8.730176091194e-02 -1.775833219290e-02
251 -3.550143539906e-02 7.847981154919e-02 -1.385062001646e-02
252 -3.703241795301e-02 9.094937890768e-02 -2.394979447126e-02
253 -3.539164364338e-02 9.329961985350e-02 -2.252805233002e-02
254 -3.154897317290e-02 8.303163200617e-02 -2.844068966806e-02
255 -3.531929105520e-02 8.799631893635e-02 -1.271559204906e-02
256 -2.773486264050e-02 8.214041590691e-02 -2.558974176645e-02
257 -3.872887045145e-02 9.412288665771e-02 -1.555229164660e-02
258 -3.962852805853e-02 9.201533347368e-02 -1.555575337261e-02
259 -3.213247656822e-02 8.185647428036e-02 -1.447489485145e-02
260 -3.443630412221e-02 8.988342434168e-02 -3.234383463860e-02
261 -2.813268639147e-02 7.505142688751e-02 -2.503891102970e-02
262 -3.294636309147e-02 9.259903430939e-02 -3.294335678220e-02
263 -2.402141876519e-02 8.428147435188e-02 -3.248782083392e-02
264 -1.561781018972e-02 8.789113163948e-02 -3.172059357166e-02
265 -2.484502084553e-02 9.257359057665e-02 -3.536509349942e-02
266 -1.137676090002e-02 8.297877758741e-02 -2.975294180214e-02
267 -2.630506083369e-02 8.723869174719e-02 -3.067665919662e-02
268 -1.966095529497e-02 8.189877122641e-02 -2.841909416020e-02
269 -1.597588509321e-02 9.254217147827e-02 -3.397837653756e-02
270 -2.088614366949e-02 9.164964407682e-02 -3.357250615954e-02
271 -1.734311506152e-02 8.357015252113e-02 -3.365625441074e-02
272 -2.074242569506e-02 8.716113865376e-02 -3.098951466382e-02
273 -1.809334009886e-02 8.981877565384e-02 -3.630434721708e-02
274 -1.866298355162e-02 9.323928505182e-02 -3.603423386812e-02
275 -3.038402646780e-02 8.936308324337e-02 -3.508510068059e-02
276 -1.623342372477e-02 4.400302842259e-02 -2.763558365405e-02
277 -2.766169793904e-02 4.277921840549e-02 -2.302813902497e-02
278 -2.211328782141e-02 5.991514399648e-02 -2.374954707921e-02
279 -1.550883986056e-02 4.737288877368e-02 -3.126629069448e-02
280 -3.231067955494e-02 5.042015388608e-02 -1.750700548291e-02
281 -2.595875039697e-02 5.439183115959e-02 -2.453878149390e-02
282 -3.098778426647e-02 5.704345926642e-02 -1.383081544191e-02
283 -1.679592579603e-02 5.808729305863e-02 -3.049304708838e-02
284 -2.429141663015e-02 6.535682082176e-02 -2.611682191491e-02
285 -4.796440713108e-03 5.244942381978e-02 -3.057075850666e-02
286 -2.439730241895e-02 4.893283918500e-02 -2.196873538196e-02
287 -3.063427470624e-02 5.998432636261e-02 -1.973049528897e-02
288 -1.541209220886e-02 5.323624238372e-02 -2.788162045181e-02
289 -6.843782961369e-03 5.360556766391e-02 -3.332504257560e-02
290 -2.160017006099e-02 4.809389263391e-02 -2.793573215604e-02
291 -1.010133884847e-02 7.159762829542e-02 -3.221784904599e-02
292 -1.780657470226e-02 7.070484757423e-02 -2.643826045096e-02
293 1.111331488937e-02 7.691475749016e-02 -2.725455351174e-02
294 -1.770344749093e-02 7.616503536701e-02 -3.041292540729e-02
295 1.986727584153e-03 7.311528921127e-02 -2.963747084141e-02
296 -2.242783084512e-03 6.646446883678e-02 -3.327998146415e-02
297 -9.488823823631e-03 6.239555776119e-02 -3.189535811543e-02
298 -6.209027022123e-03 7.964332401752e-02 -3.023642115295e-02
299 -1.245296932757e-02 6.366740167141e-02 -2.867855876684e-02
300 -1.630077138543e-02 6.675516068935e-02 -3.046634234488e-02
301 -1.426270883530e-02 7.685124129057e-02 -2.824034355581e-02
302 -5.319482646883e-03 7.296802848577e-02 -2.985297329724e-02
303 -1.054119970649e-02 7.892503589392e-02 -3.226711973548e-02
304 -2.906940411776e-03 6.465060263872e-02 -3.030212037265e-02
305 -4.489509854466e-03 8.052854239941e-02 -3.352608159184e-02
306 2.952336706221e-02 5.024551413953e-03 2.579395892099e-03
307 2.717252261937e-02 -9.459861321375e-04 6.197655457072e-04
308 3.060290962458e-02 1.002763025463e-02 9.124799631536e-03
309 3.171848878264e-02 2.945627784356e-03 -5.456548533402e-04
310 3.084521368146e-02 2.230899874121e-03 9.406168013811e-03
311 2.602968364954e-02 2.334714168683e-03 3.471845760942e-03
312 3.128376603127e-02 1.104477886111e-02 -5.581099539995e-04
313 3.064294718206e-02 1.667129993439e-02 -5.162314046174e-03
314 2.931999228895e-02 6.051901262254e-03 -4.772111773491e-03
315 3.381332755089e-02 8.097969926894e-03 -2.387380227447e-03
316 2.619039081037e-02 2.568556927145e-03 1.142103318125e-02
317 3.279870748520e-02 1.159504055977e-02 -9.153963997960e-03
318 2.482575736940e-02 -9.881180012599e-04 1.380499731749e-02
319 3.369389474392e-02 7.505688350648e-03 6.833427120000e-03
320 3.439918160439e-02 1.578383333981e-02 1.941006048582e-04
321 2.936005964875e-02 2.763193100691e-02 2.107300981879e-02
322 3.000050224364e-02 1.752676628530e-02 1.992798410356e-02
323 2.941058203578e-02 1.925688982010e-02 1.358167827129e-02
324 2.708659507334e-02 3.914016485214e-02 1.876782253385e-02
325 2.080176770687e-02 1.913676387630e-03 1.930098980665e-02
326 2.529807202518e-02 4.593512043357e-03 1.814689487219e-02
327 2.441588230431e-02 1.854311302304e-02 2.285406179726e-02
328 2.717679738998e-02 8.353135548532e-03 1.771557703614e-02
329 1.674644835293e-02 1.942397654057e-02 2.995685860515e-02
330 2.720043994486e-02 1.922155357897e-02 2.396803535521e-02
331 2.526155300438e-02 1.063233707100e-02 2.640450373292e-02
332 3.044323250651e-02 8.198949508369e-03 1.810796931386e-02
333 2.724502794445e-02 2.141813980415e-03 1.900694891810e-02
334 2.658765949309e-02 2.991765551269e-02 1.969902403653e-02
335 2.245596610010e-02 6.306227762252e-03 2.337992563844e-02
336 3.141748160124e-02 5.235864594579e-02 1.606002077460e-02
337 2.828370407224e-02 5.686430633068e-02 2.258161082864e-02
338 2.107936888933e-02 4.673218727112e-02 2.655659615994e-02
339 2.792773768306e-02 4.858664795756e-02 2.315246872604e-02
340 2.035872824490e-02 5.546756461263e-02 2.721594646573e-02
341 2.635727077723e-02 6.222193315625e-02 2.044053189456e-02
342 3.346670418978e-02 5.162776261568e-02 9.137748740613e-03
343 2.072471007705e-02 5.888620764017e-02 3.082425147295e-02
344 2.455237507820e-02 5.263565480709e-02 2.742412686348e-02
345 2.071372419596e-02 4.727407172322e-02 3.094358369708e-02
346 2.740482054651e-02 4.030480235815e-02 2.387556247413e-02
347 3.195085376501e-02 4.411068558693e-02 1.512559037656e-02
348 2.922665141523e-02 4.694395512342e-02 1.337167527527e-02
349 2.627213485539e-02 5.019653216004e-02 1.995456963778e-02
350 3.182677552104e-02 6.329582631588e-02 1.475086808205e-02
351 2.965515293181e-02 5.559339001775e-02 1.153801847249e-02
352 2.926493622363e-02 4.276381433010e-02 -1.611823216081e-02
353 3.293070197105e-02 4.159642755985e-02 -7.004189305007e-03
354 3.178567066789e-02 5.514227226377e-02 -9.512402117252e-03
355 2.065246365964e-02 5.974746868014e-02 -2.504509501159e-02
356 3.091250173748e-02 4.778270423412e-02 6.019230931997e-03
357 3.090548142791e-02 5.874050036073e-02 6.159866461530e-04
358 2.874364703894e-02 5.423521623015e-02 -8.884464390576e-03
359 3.481633588672e-02 4.041840136051e-02 3.633734304458e-03
360 2.418015152216e-02 5.367856845260e-02 -1.697047427297e-02
361 2.896390110254e-02 4.155131056905e-02 -9.741803631186e-03
362 2.654753625393e-02 5.511633306742e-02 -1.908656954765e-02
363 3.076847828925e-02 4.890572279692e-02 -1.888388418593e-03
364 3.370772674680e-02 4.780130833387e-02 -2.629783004522e-03
365 3.118388727307e-02 3.909763693810e-02 1.349396654405e-03
366 3.397783264518e-02 5.461114645004e-02 1.785371685401e-03
367 3.392283618450e-02 3.189098089933e-02 7.215166930109e-03
368 3.071712329984e-02 2.998508140445e-02 -3.993984311819e-03
369 3.337708115578e-02 1.840129494667e-02 1.094165164977e-02
370 2.960886061192e-02 3.918039426208e-02 9.636275470257e-03
371 2.780384756625e-02 3.106999024749e-02 -1.275036111474e-02
372 3.141240403056e-02 2.252492867410e-02 2.582417102531e-03
373 3.163632377982e-02 3.493583202362e-02 -1.151991821826e-02
374 3.264084458351e-02 2.346129342914e-02 -9.500431828201e-03
375 3.388664498925e-02 3.358840197325e-02 -2.933031413704e-03
376 3.126039728522e-02 3.089677542448e-02 2.757112961262e-03
377 2.748125791550e-02 3.006134554744e-02 -1.914479024708e-02
378 2.959877625108e-02 2.324843220413e-02 -8.704203180969e-03
379 3.438886627555e-02 2.585225366056e-02 1.065655262209e-03
380 2.973077446222e-02 3.114413097501e-02 9.916287846863e-03
381 3.211178630590e-02 3.481144458055e-02 1.480325218290e-02
382 -9.186819195747e-03 3.141074627638e-02 3.505290672183e-02
383 -7.276486605406e-03 2.019766159356e-02 3.523727133870e-02
384 1.416447758675e-02 2.357569895685e-02 3.501694649458e-02
385 -1.096840761602e-02 2.565781585872e-02 3.771559894085e-02
386 -9.552451781929e-03 3.395941853523e-02 3.803175687790e-02
387 5.742645007558e-04 3.363679349422e-02 3.563752025366e-02
388 1.611706975382e-04 2.187245339155e-02 3.556828945875e-02
389 -1.684216433205e-03 3.137414529920e-02 3.873829543591e-02
390 1.318284077570e-03 1.429834496230e-02 3.541176393628e-02
391 -4.438089672476e-03 1.285919453949e-02 3.847035765648e-02
392 9.172614663839e-03 2.924385480583e-02 3.708722814918e-02
393 -3.942458890378e-03 2.334265410900e-02 3.867176920176e-02
394 2.541763940826e-03 2.266226708889e-02 3.836311772466e-02
395 7.996142841876e-03 1.572325453162e-02 3.729393333197e-02
396 8.520507253706e-03 2.265202440321e-02 3.404504060745e-02
397 1.995091512799e-02 3.559919446707e-02 2.759581059217e-02
398 1.569214090705e-02 2.891157008708e-02 3.078822791576e-02
399 2.132032439113e-02 2.731028199196e-02 2.636190131307e-02
400 1.998232118785e-02 3.819423168898e-02 3.142118826509e-02
401 5.151468794793e-03 3.693493455648e-02 3.817379102111e-02
402 1.146698743105e-02 4.365520179272e-02 3.639103844762e-02
403 1.605089753866e-02 4.548519104719e-02 3.049940615892e-02
404 6.262613460422e-03 4.679492861032e-02 3.481754660606e-02
405 1.097690314054e-02 3.696397319436e-02 3.323597460985e-02
406 1.503792591393e-02 3.301915898919e-02 3.408113867044e-02
407 1.040328573436e-02 3.579087182879e-02 3.671616688371e-02
408 4.364554304630e-03 4.052172228694e-02 3.526357561350e-02
409 9.256507619284e-04 4.370172694325e-02 3.882211819291e-02
410 2.057438343763e-02 2.490902319551e-02 3.084133751690e-02
411 2.491895481944e-02 3.272814303637e-02 2.694743126631e-02
412 1.081056799740e-02 8.104719221592e-03 3.250744566321e-02
413 1.131882239133e-02 -1.047597499564e-03 2.810712531209e-02
414 1.011523604393e-02 2.220464171842e-03 2.831446565688e-02
415 1.307860855013e-02 2.719461917877e-03 3.279744461179e-02
416 8.121270686388e-03 -1.107285846956e-03 2.159599587321e-02
417 1.093667373061e-02 6.726771127433e-03 3.563336282969e-02
418 1.976513676345e-02 4.207355901599e-03 2.930895611644e-02
419 1.671995781362e-02 2.193699823692e-03 2.453104220331e-02
420 1.791242696345e-02 -9.355082875118e-04 2.415530569851e-02
421 5.385381169617e-03 -2.568480558693e-04 3.266926109791e-02
422 3.136785468087e-03 5.473263561726e-03 3.352066129446e-02
423 1.127009373158e-02 2.300927648321e-03 1.879929006100e-02
424 1.694487035275e-02 1.387619506568e-02 3.325428068638e-02
425 3.158188192174e-03 2.471598098055e-03 2.060888707638e-02
426 1.657088100910e-02 6.760613527149e-03 2.886902168393e-02
427 -2.527669770643e-03 -6.291867466643e-04 3.179249912500e-02
428 -3.177304752171e-03 -1.131671946496e-03 2.132313512266e-02
429 -2.100012497976e-03 4.800228402019e-03 3.723740205169e-02
430 -2.235961519182e-02 -1.492972136475e-03 2.220745198429e-02
431 -1.672387123108e-02 -1.261832658201e-03 2.573110349476e-02
432 -1.139482762665e-02 7.048883941025e-03 3.669977933168e-02
433 -2.051949687302e-02 8.331588469446e-04 2.905008569360e-02
434 -1.707673445344e-02 2.749185776338e-03 2.640577778220e-02
435 -2.915554978244e-05 2.646302338690e-03 3.034092858434e-02
436 -1.341272331774e-02 -1.133965561166e-03 2.089703083038e-02
437 -1.135337166488e-02 -8.262554183602e-04 3.094506822526e-02
438 -6.872639991343e-03 2.424253849313e-03 2.092880755663e-02
439 -1.005998346955e-02 2.598958322778e-03 3.066085092723e-02
440 -3.661565948278e-03 6.684835534543e-03 3.478555753827e-02
441 -3.175649419427e-02 9.447119198740e-03 2.217743732035e-02
442 -2.541711553931e-02 1.844920031726e-02 3.019746579230e-02
443 -1.309878844768e-02 9.120408445597e-03 3.323796764016e-02
444 -2.651564031839e-02 2.511887997389e-02 2.494399622083e-02
445 -2.813084982336e-02 1.214280724525e-02 2.225085161626e-02
446 -3.378370776772e-02 2.137017436326e-02 2.033582143486e-02
447 -1.800310797989e-02 2.900586649776e-02 3.160171955824e-02
448 -1.873183809221e-02 2.945754304528e-02 3.469396010041e-02
449 -2.583838254213e-02 2.903230302036e-02 2.994454093277e-02
450 -1.818183436990e-02 1.677289232612e-02 3.135486319661e-02
451 -1.811326295137e-02 6.244010291994e-03 3.369526565075e-02
452 -2.576156333089e-02 6.958340294659e-03 2.855169959366e-02
453 -2.218155749142e-02 9.498585946858e-03 2.822252549231e-02
454 -1.575321704149e-02 1.634343154728e-02 3.592609241605e-02
455 -1.864424534142e-02 5.508837290108e-03 2.916289679706e-02
456 -3.661066526547e-03 -1.135271508247e-03 7.077252026647e-03
457 -9.108079597354e-03 2.086233580485e-03 4.284976515919e-03
458 1.199141610414e-02 -1.143101486377e-03 -2.575853606686e-03
459 -1.388939097524e-02 2.574481535703e-03 1.667373441160e-02
460 6.580565590411e-03 -1.112767960876e-03 1.070276647806e-02
461 1.683668792248e-02 -1.088591408916e-03 1.133821625262e-02
462 4.426609259099e-03 2.078878926113e-03 9.387168101966e-03
463 -1.455686055124e-03 -1.141353743151e-03 -4.027732182294e-03
464 -1.728295319481e-04 1.906553865410e-03 4.895188612863e-04
465 1.328401174396e-02 1.908543286845e-03 8.426976390183e-03
466 -2.760821487755e-03 1.913901534863e-03 1.043183915317e-02
467 2.892415737733e-03 -1.137346145697e-03 3.469831543043e-03
468 -1.151855941862e-02 -1.136688864790e-03 1.171116624027e-02
469 1.920374482870e-02 2.004539826885e-03 1.550114131533e-03
470 8.414262905717e-03 1.903961412609e-03 -2.670032554306e-04
471 -2.384030632675e-02 2.801747759804e-03 -1.830995641649e-02
472 -1.055545639247e-02 -1.151079195552e-03 1.778123987606e-05
473 -1.853126659989e-02 -1.356087275781e-03 -1.934061385691e-02
474 -1.265229284763e-02 -1.155346864834e-03 -8.626311086118e-03
475 -2.421144396067e-02 -1.594840781763e-03 -1.474978681654e-02
476 -1.715871877968e-02 -1.133860670961e-03 5.621476098895e-03
477 -2.291587553918e-02 1.427317969501e-03 -2.339828200638e-02
478 -1.642979495227e-02 2.136430004612e-03 -1.215280499309e-02
479 -1.832872629166e-02 2.349942456931e-03 -2.167879790068e-02
480 -2.241943031549e-02 2.237939042971e-03 3.670897800475e-03
481 -7.986461743712e-03 -1.129184849560e-03 -1.349333580583e-02
482 -5.431417841464e-03 1.911062514409e-03 -7.089943625033e-03
483 -1.931716501713e-02 -1.153057790361e-03 -4.047723952681e-03
484 -2.136771380901e-02 1.925053889863e-03 -4.515588749200e-03
485 -1.519264280796e-02 1.922651543282e-03 -3.142011817545e-03
486 -2.653240971267e-02 -1.232680398971e-03 -2.666669199243e-03
487 -3.134398534894e-02 1.529299840331e-02 -1.948569528759e-02
488 -3.007311373949e-02 2.554671280086e-02 -1.568904891610e-02
489 -3.560335189104e-02 2.341258712113e-02 -1.206707116216e-02
490 -3.589206933975e-02 1.042515039444e-02 -1.075435522944e-02
491 -3.277241438627e-02 3.937043249607e-03 -2.468792721629e-03
492 -3.494509309530e-02 3.887705737725e-03 -8.447288535535e-03
493 -3.151667118073e-02 5.371776875108e-03 -9.947992861271e-03
494 -3.001134656370e-02 2.889729803428e-03 -1.765800267458e-02
495 -2.736067771912e-02 5.636341404170e-03 -1.725288853049e-02
496 -2.783330716193e-02 1.922319061123e-03 -9.643342345953e-03
497 -3.143773600459e-02 -5.292980931699e-04 -7.033336907625e-03
498 -3.397852927446e-02 9.376976639032e-03 -6.488088984042e-03
499 -3.144590556622e-02 1.237986143678e-02 -1.351028773934e-02
500 -2.662250399590e-02 -1.434976817109e-03 1.477591414005e-02
501 -3.252065181732e-02 3.508762223646e-03 2.501062583178e-03
502 -3.139830008149e-02 8.128430694342e-03 1.665454357862e-02
503 -2.982590720057e-02 9.547633817419e-04 1.876144856215e-02
504 -3.030799701810e-02 2.552960533649e-03 9.968607686460e-03
505 -3.088539279997e-02 -1.376981381327e-03 7.344376295805e-03
506 -2.907065302134e-02 2.237639855593e-03 1.626326702535e-04
507 -3.521554172039e-02 1.708980533294e-03 -7.454177830368e-04
508 -1.931217499077e-02 2.411165507510e-03 9.761945344508e-03
509 -3.540885075927e-02 5.427471827716e-03 1.308196224272e-02
510 -3.623101487756e-02 3.752707038075e-03 5.007702391595e-03
511 -3.115687333047e-02 -1.383891562000e-03 -4.270322097000e-04
512 -2.409348636866e-02 2.899413462728e-03 2.215070463717e-02
513 -2.458540908992e-02 -1.130817341618e-03 5.387498997152e-03
514 -2.720074169338e-02 2.726186998188e-03 1.605965569615e-02
515 -3.831353411078e-02 2.103735506535e-02 -1.303090713918e-03
516 -3.812212124467e-02 1.037161983550e-02 4.744651727378e-03
517 -3.745421022177e-02 1.650509610772e-02 1.025219261646e-02
518 -3.783196210861e-02 7.905262522399e-03 -2.166844904423e-03
519 -3.459637612104e-02 1.346073299646e-02 1.670770347118e-02
520 -3.406852111220e-02 8.855774067342e-03 9.946021251380e-03
521 -3.821926936507e-02 3.199654817581e-02 3.566554747522e-03
522 -3.480993583798e-02 7.295887917280e-03 2.001135842875e-03
523 -3.482438996434e-02 1.681174151599e-02 -4.214706830680e-03
524 -3.712988644838e-02 2.636937610805e-02 1.049962453544e-02
525 -3.341898322105e-02 1.802470721304e-02 1.328102406114e-02
526 -3.481128439307e-02 2.424893714488e-02 5.209518596530e-03
527 -3.488705307245e-02 1.536262407899e-02 3.722931956872e-03
528 -1.379598025233e-02 1.422623079270e-02 -2.933710440993e-02
529 -2.050557360053e-02 2.120556309819e-02 -2.579526416957e-02
530 -2.351002208889e-02 9.791414253414e-03 -2.712351642549e-02
531 -2.283281460404e-02 2.001757733524e-02 -2.789195254445e-02
532 -1.815142668784e-02 1.608976162970e-02 -3.074647858739e-02
533 -2.215413749218e-02 8.350803516805e-03 -2.394222468138e-02
534 -1.992801949382e-02 3.635067492723e-02 -2.943020872772e-02
535 -2.497445419431e-02 3.720706328750e-02 -2.156816236675e-02
536 -2.898407168686e-02 2.945159934461e-02 -2.208910323679e-02
537 -2.902448613895e-05 1.134324166924e-02 -3.141521662474e-02
538 -1.245568506420e-02 9.363489225507e-03 -3.272510319948e-02
539 -1.502555795014e-02 7.492126896977e-03 -2.819763310254e-02
540 -4.660313483328e-03 1.297080423683e-02 -3.462343662977e-02
541 -2.654380165040e-02 1.570682227612e-02 -2.056661620736e-02
542 -1.638057455420e-02 2.612245734781e-03 -2.858293242753e-02
543 8.114850148559e-03 4.916463419795e-02 -2.912897802889e-02
544 1.637872681022e-02 5.101269856095e-02 -2.864450402558e-02
545 1.906881853938e-02 2.782432921231e-02 -2.724967710674e-02
546 1.032235450111e-03 5.137643963099e-02 -3.365610539913e-02
547 2.184738032520e-02 4.431700706482e-02 -2.467468194664e-02
548 1.278780959547e-02 3.032430261374e-02 -2.742773853242e-02
549 1.106179784983e-02 4.504762217402e-02 -3.141828253865e-02
550 1.527977921069e-02 3.857437893748e-02 -2.599356137216e-02
551 1.956035755575e-02 2.890983223915e-02 -2.303881943226e-02
552 1.708360947669e-02 5.197674036026e-02 -2.426390163600e-02
553 8.068615570664e-03 6.220340356231e-02 -2.878083288670e-02
554 1.431261561811e-02 3.445110842586e-02 -3.013680502772e-02
555 2.440088801086e-02 3.956363722682e-02 -1.795381493866e-02
556 9.632472880185e-03 5.689587071538e-02 -3.159742057323e-02
557 2.279747650027e-02 3.575446829200e-02 -2.406526915729e-02
558 -2.868076320738e-03 2.126665227115e-02 -3.449752926826e-02
559 -1.479862909764e-02 3.403882309794e-02 -2.851146645844e-02
560 -7.486486807466e-03 4.092998430133e-02 -3.058856353164e-02
561 -1.139739062637e-02 2.482917718589e-02 -2.997663058341e-02
562 -3.558117605280e-04 4.114954918623e-02 -3.412584215403e-02
563 -5.328711122274e-03 3.114175051451e-02 -3.113355673850e-02
564 6.518220994622e-03 3.074435517192e-02 -2.979821525514e-02
565 2.191489795223e-03 1.966289617121e-02 -3.443875536323e-02
566 -2.168407896534e-03 2.148373052478e-02 -3.154784440994e-02
567 5.512943025678e-03 3.603054583073e-02 -3.328884765506e-02
568 -1.263883057982e-02 2.359573729336e-02 -3.276339545846e-02
569 9.445857256651e-03 2.680023387074e-02 -3.229376673698e-02
570 1.632599974982e-03 4.037354514003e-02 -3.088691644371e-02
571 -8.559627458453e-03 4.049347341061e-02 -3.353414312005e-02
572 -1.075839041732e-03 2.956250123680e-02 -3.437161818147e-02
573 2.922342717648e-02 1.057818904519e-02 -9.980116039515e-03
574 2.268288284540e-02 1.898207515478e-02 -2.466944232583e-02
575 1.821288838983e-02 9.434798732400e-03 -2.400277741253e-02
576 1.810578256845e-02 1.985777728260e-02 -2.447020821273e-02
577 1.542133186013e-02 1.206455938518e-02 -2.995891124010e-02
578 2.838738262653e-02 1.602724939585e-02 -1.245485711843e-02
579 1.053454633802e-02 1.139854639769e-02 -2.897755056620e-02
580 1.116892136633e-02 2.076044492424e-02 -2.853412739933e-02
581 2.855255827308e-02 1.679522171617e-02 -1.834905333817e-02
582 2.896636538208e-02 7.349587976933e-03 -1.645100675523e-02
583 1.549528911710e-02 2.098022028804e-02 -2.981855347753e-02
584 9.376552887261e-03 1.714746654034e-02 -3.255179524422e-02
585 2.524992078543e-02 9.449688717723e-03 -1.717707328498e-02
586 2.394893765450e-02 8.830144070089e-03 -2.328250557184e-02
587 2.467020228505e-02 2.175076864660e-02 -1.801954023540e-02
588 2.535770274699e-02 4.692737478763e-03 -1.294649858028e-02
589 1.146330684423e-02 -8.217334980145e-04 -2.374925278127e-02
590 2.586897462606e-02 2.100871177390e-03 -4.477342125028e-03
591 1.356023829430e-02 5.384669639170e-03 -2.563377469778e-02
592 1.773307099938e-02 4.248704295605e-03 -2.612355537713e-02
593 2.257295325398e-02 2.209660131484e-03 -2.009955979884e-02
594 2.063202485442e-02 -9.723700932227e-04 -1.434990298003e-02
595 1.767092943192e-02 2.608768409118e-03 -1.903445459902e-02
596 2.028539963067e-02 5.666311830282e-03 -2.063633874059e-02
597 2.943142317235e-02 2.378250705078e-03 -9.195996448398e-03
598 9.182034991682e-03 -1.144280307926e-03 -1.205392833799e-02
599 2.456553466618e-02 -9.168107644655e-04 -7.378481794149e-03
600 2.176995202899e-02 2.354819793254e-03 -1.175589766353e-02
601 1.562324166298e-02 1.935055828653e-03 -7.427733391523e-03
602 5.159155931324e-03 1.912857289426e-03 -1.248918939382e-02
603 5.347070284188e-03 3.100112371612e-04 -2.849642746150e-02
604 -6.930486415513e-04 -1.266634208150e-03 -2.560691349208e-02
605 7.379011949524e-04 5.212840158492e-03 -2.966992370784e-02
606 -7.330349646509e-03 2.124574733898e-03 -1.661593653262e-02
607 -3.405855502933e-03 2.841784618795e-03 -3.207901492715e-02
608 8.951533585787e-03 2.254431601614e-03 -2.408287115395e-02
609 -4.599679261446e-03 2.159491879866e-03 -2.581603638828e-02
610 5.340244621038e-03 1.010012440383e-02 -3.357516974211e-02
611 -1.907442230731e-03 -1.203835010529e-03 -1.433107163757e-02
612 -7.875181734562e-03 8.561564609408e-03 -3.065493516624e-02
613 1.002770266496e-03 1.910914434120e-03 -1.960061490536e-02
614 -9.349261410534e-03 3.466816386208e-03 -2.747230418026e-02
615 6.797180045396e-03 7.285158149898e-03 -2.942294254899e-02
616 -1.091250590980e-02 -1.086363452487e-03 -2.438762225211e-02
617 8.854656480253e-03 4.357047379017e-03 -3.093670681119e-02
$Elements
1717
1 4 0 439 440 432 429
2 4 0 598 601 595 602
3 4 0 317 315 320 312
4 4 0 55 52 57 449
5 4 0 612 540 537 607
6 4 0 590 469 601 599
7 4 0 3 11 222 224
8 4 0 484 480 486 483
9 4 0 254 252 253 260
10 4 0 594 588 599 597
11 4 0 76 79 75 77
12 4 0 593 596 588 582
13 4 0 116 106 105 109
14 4 0 50 524 44 51
15 4 0 518 523 490 515
16 4 0 32 33 26 22
17 4 0 506 491 507 501
18 4 0 171 168 166 161
19 4 0 306 310 319 316
20 4 0 222 11 3 7
21 4 0 116 106 109 103
22 4 0 604 616 609 607
23 4 0 593 588 594 597
24 4 0 529 534 559 568
25 4 0 542 614 616 607
26 4 0 617 589 591 608
27 4 0 395 429 390 422
28 4 0 138 134 81 145
29 4 0 193 195 196 190
30 4 0 573 582 597 588
31 4 0 85 73 77 90
32 4 0 270 263 273 271
33 4 0 412 390 422 395
34 4 0 261 256 248 259
35 4 0 309 310 306 307
36 4 0 325 420 335 419
37 4 0 601 599 600 590
38 4 0 306 310 316 307
39 4 0 412 417 424 395
40 4 0 332 328 308 316
41 4 0 312 306 309 319
42 4 0 429 440 432 391
43 4 0 592 595 593 596
44 4 0 596 585 582 586
45 4 0 319 316 332 308
46 4 0 415 414 421 417
47 4 0 537 615 610 579
48 4 0 320 308 312 319
49 4 0 312 309 314 315
50 4 0 504 510 520 522
51 4 0 209 208 207 205
52 4 0 308 369 332 319
53 4 0 91 80 85 81
54 4 0 134 116 82 81
55 4 0 134 82 116 86
56 4 0 412 414 426 417
57 4 0 134 115 116 145
58 4 0 84 113 86 72
59 4 0 77 78 73 74
60 4 0 575 576 574 577
61 4 0 84 72 86 74
62 4 0 76 73 77 78
63 4 0 81 82 80 85
64 4 0 74 82 86 84
65 4 0 145 134 81 116
66 4 0 134 135 138 81
67 4 0 422 395 417 412
68 4 0 393 382 383 385
69 4 0 417 429 395 422
70 4 0 90 91 85 81
71 4 0 88 91 80 85
72 4 0 135 91 138 81
73 4 0 85 91 94 88
74 4 0 396 395 412 424
75 4 0 203 209 190 212
76 4 0 175 180 176 89
77 4 0 180 97 175 187
78 4 0 91 94 93 99
79 4 0 91 93 92 99
80 4 0 593 589 595 592
81 4 0 210 206 216 207
82 4 0 340 349 341 337
83 4 0 90 91 94 85
84 4 0 95 87 98 97
85 4 0 176 180 175 184
86 4 0 96 98 89 97
87 4 0 98 79 87 95
88 4 0 589 608 613 602
89 4 0 207 206 205 210
90 4 0 180 175 97 89
91 4 0 178 180 184 186
92 4 0 180 96 89 97
93 4 0 214 191 213 204
94 4 0 97 87 98 89
95 4 0 97 98 95 96
96 4 0 213 192 191 214
97 4 0 588 582 597 593
98 4 0 196 193 194 192
99 4 0 96 95 77 98
100 4 0 77 79 98 95
101 4 0 194 192 191 196
102 4 0 176 174 204 184
103 4 0 176 204 183 184
104 4 0 596 582 593 586
105 4 0 211 209 215 355
106 4 0 186 180 184 175
107 4 0 202 214 204 176
108 4 0 213 214 204 202
109 4 0 295 305 148 296
110 4 0 191 192 213 196
111 4 0 208 196 191 213
112 4 0 592 575 577 591
113 4 0 589 595 592 591
114 4 0 189 146 199 147
115 4 0 200 194 190 193
116 4 0 199 197 201 189
117 4 0 190 293 147 212
118 4 0 593 594 595 589
119 4 0 490 523 498 499
120 4 0 579 591 577 575
121 4 0 617 615 579 610
122 4 0 355 209 205 211
123 4 0 578 581 582 585
124 4 0 210 180 184 178
125 4 0 577 591 617 592
126 4 0 582 585 596 588
127 4 0 193 194 190 196
128 4 0 312 306 314 309
129 4 0 418 414 415 417
130 4 0 360 362 355 206
131 4 0 546 570 285 571
132 4 0 601 599 594 600
133 4 0 200 195 193 190
134 4 0 147 293 148 212
135 4 0 276 285 571 279
136 4 0 260 254 275 262
137 4 0 597 317 573 314
138 4 0 209 208 205 203
139 4 0 316 333 326 325
140 4 0 176 183 204 202
141 4 0 175 184 174 176
142 4 0 588 573 582 585
143 4 0 597 309 315 314
144 4 0 332 323 328 327
145 4 0 350 341 185 351
146 4 0 608 595 589 591
147 4 0 593 588 596 595
148 4 0 490 499 495 487
149 4 0 502 509 503 441
150 4 0 585 586 575 574
151 4 0 308 316 306 319
152 4 0 329 424 426 331
153 4 0 385 382 447 448
154 4 0 122 121 140 125
155 4 0 490 493 498 492
156 4 0 415 414 418 420
157 4 0 391 429 390 395
158 4 0 601 458 594 599
159 4 0 318 333 310 316
160 4 0 312 308 306 319
161 4 0 322 332 327 323
162 4 0 617 603 605 607
163 4 0 595 588 594 593
164 4 0 578 317 582 581
165 4 0 581 582 585 586
166 4 0 571 559 276 534
167 4 0 494 495 487 490
168 4 0 492 494 493 496
169 4 0 597 317 582 573
170 4 0 312 315 314 317
171 4 0 611 613 606 602
172 4 0 518 492 490 498
173 4 0 453 445 442 450
174 4 0 610 605 615 537
175 4 0 315 309 319 312
176 4 0 319 315 312 320
177 4 0 307 309 590 306
178 4 0 417 421 429 422
179 4 0 441 512 502 445
180 4 0 424 417 412 426
181 4 0 609 614 616 479
182 4 0 418 414 417 426
183 4 0 309 310 319 306
184 4 0 327 331 329 426
185 4 0 418 335 419 426
186 4 0 329 327 410 331
187 4 0 328 327 331 332
188 4 0 328 327 335 331
189 4 0 328 323 332 308
190 4 0 105 107 16 104
191 4 0 104 107 109 105
192 4 0 331 426 335 418
193 4 0 424 418 417 426
194 4 0 425 414 435 421
195 4 0 115 104 105 119
196 4 0 27 30 24 29
197 4 0 492 494 496 497
198 4 0 490 494 495 493
199 4 0 417 414 421 422
200 4 0 412 414 417 422
201 4 0 390 440 429 391
202 4 0 609 614 607 616
203 4 0 479 477 616 473
204 4 0 391 385 383 454
205 4 0 437 439 451 432
206 4 0 383 447 454 385
207 4 0 422 440 429 390
208 4 0 437 432 429 439
209 4 0 455 439 451 433
210 4 0 439 451 433 437
211 4 0 450 442 453 451
212 4 0 444 445 446 525
213 4 0 453 512 455 452
214 4 0 491 497 507 492
215 4 0 390 383 440 391
216 4 0 451 453 443 455
217 4 0 432 443 454 391
218 4 0 454 443 383 391
219 4 0 391 443 440 432
220 4 0 440 443 391 383
221 4 0 432 443 440 439
222 4 0 451 443 432 439
223 4 0 432 443 451 454
224 4 0 451 443 439 455
225 4 0 517 509 516 520
226 4 0 443 450 453 451
227 4 0 28 5 24 26
228 4 0 499 493 498 490
229 4 0 445 525 502 519
230 4 0 446 445 444 442
231 4 0 18 19 29 30
232 4 0 610 540 607 537
233 4 0 115 136 104 119
234 4 0 529 488 536 541
235 4 0 487 489 488 536
236 4 0 535 277 276 534
237 4 0 277 280 286 281
238 4 0 491 497 496 506
239 4 0 516 510 520 509
240 4 0 509 510 520 504
241 4 0 530 495 533 541
242 4 0 589 602 595 608
243 4 0 531 541 487 530
244 4 0 542 539 533 479
245 4 0 531 541 536 487
246 4 0 530 541 533 529
247 4 0 499 489 523 488
248 4 0 487 488 541 536
249 4 0 479 477 471 533
250 4 0 477 479 616 542
251 4 0 542 477 533 530
252 4 0 471 495 533 477
253 4 0 494 495 477 530
254 4 0 492 493 494 490
255 4 0 523 527 518 522
256 4 0 259 261 227 251
257 4 0 528 568 538 532
258 4 0 495 499 490 493
259 4 0 605 537 610 607
260 4 0 530 541 529 531
261 4 0 490 489 499 487
262 4 0 541 488 487 499
263 4 0 536 541 531 529
264 4 0 499 541 495 487
265 4 0 251 227 259 217
266 4 0 552 355 547 544
267 4 0 579 610 577 617
268 4 0 86 115 116 134
269 4 0 488 489 487 499
270 4 0 116 103 115 86
271 4 0 248 253 250 256
272 4 0 258 253 250 248
273 4 0 498 523 490 518
274 4 0 522 523 498 518
275 4 0 221 225 223 63
276 4 0 227 249 261 259
277 4 0 261 249 227 218
278 4 0 68 277 535 69
279 4 0 549 543 546 570
280 4 0 249 292 218 261
281 4 0 261 259 249 256
282 4 0 256 248 254 261
283 4 0 31 26 32 33
284 4 0 254 263 267 256
285 4 0 260 253 254 262
286 4 0 5 8 1 6
287 4 0 263 254 261 256
288 4 0 189 146 201 199
289 4 0 249 292 261 268
290 4 0 268 294 261 263
291 4 0 116 103 109 115
292 4 0 6 7 4 1
293 4 0 243 241 246 237
294 4 0 2 5 12 8
295 4 0 1 14 4 6
296 4 0 20 18 104 22
297 4 0 5 25 26 31
298 4 0 41 42 34 52
299 4 0 113 103 106 116
300 4 0 105 107 19 16
301 4 0 24 26 5 25
302 4 0 17 12 9 24
303 4 0 117 122 121 130
304 4 0 116 105 145 115
305 4 0 22 126 136 104
306 4 0 116 109 105 115
307 4 0 32 26 31 39
308 4 0 18 19 21 16
309 4 0 24 30 27 17
310 4 0 33 25 31 26
311 4 0 109 111 103 110
312 4 0 18 19 30 21
313 4 0 187 100 96 97
314 4 0 116 113 108 106
315 4 0 271 263 294 268
316 4 0 145 119 115 105
317 4 0 140 136 139 131
318 4 0 16 18 20 21
319 4 0 120 130 123 129
320 4 0 134 136 115 145
321 4 0 372 378 374 313
322 4 0 374 578 378 587
323 4 0 168 163 166 164
324 4 0 136 127 22 121
325 4 0 18 104 105 16
326 4 0 20 23 21 18
327 4 0 168 166 161 164
328 4 0 121 22 43 127
329 4 0 109 114 110 105
330 4 0 364 356 359 366
331 4 0 18 30 24 23
332 4 0 17 30 23 24
333 4 0 18 30 23 21
334 4 0 359 342 366 356
335 4 0 16 105 18 19
336 4 0 175 87 97 89
337 4 0 213 196 210 208
338 4 0 341 337 93 343
339 4 0 344 340 337 349
340 4 0 510 501 505 507
341 4 0 335 331 327 426
342 4 0 411 397 399 410
343 4 0 125 140 122 139
344 4 0 259 255 247 238
345 4 0 259 250 247 255
346 4 0 546 571 562 570
347 4 0 143 139 132 133
348 4 0 340 132 345 133
349 4 0 607 614 609 605
350 4 0 37 70 221 40
351 4 0 116 84 86 82
352 4 0 82 84 81 116
353 4 0 86 116 113 84
354 4 0 108 113 116 84
355 4 0 485 457 480 476
356 4 0 356 347 359 342
357 4 0 409 408 404 402
358 4 0 217 236 235 220
359 4 0 402 403 404 132
360 4 0 392 384 396 398
361 4 0 555 360 361 352
362 4 0 357 207 354 358
363 4 0 503 504 505 509
364 4 0 505 504 510 509
365 4 0 504 502 520 509
366 4 0 476 483 485 472
367 4 0 96 90 95 97
368 4 0 22 25 26 20
369 4 0 33 25 26 22
370 4 0 126 22 127 32
371 4 0 255 242 247 238
372 4 0 255 250 247 258
373 4 0 335 333 328 331
374 4 0 242 237 238 255
375 4 0 335 333 326 328
376 4 0 258 250 243 255
377 4 0 258 250 247 248
378 4 0 48 47 49 44
379 4 0 209 552 355 360
380 4 0 553 209 552 355
381 4 0 510 504 505 501
382 4 0 504 501 510 522
383 4 0 265 273 274 270
384 4 0 547 552 360 355
385 4 0 296 304 302 291
386 4 0 76 78 83 73
387 4 0 149 160 305 148
388 4 0 305 158 149 148
389 4 0 158 155 169 149
390 4 0 302 295 305 298
391 4 0 391 388 394 395
392 4 0 387 389 382 388
393 4 0 391 395 390 388
394 4 0 385 389 393 382
395 4 0 396 390 395 388
396 4 0 396 394 388 395
397 4 0 26 24 20 25
398 4 0 23 18 20 24
399 4 0 20 18 25 24
400 4 0 549 546 543 556
401 4 0 510 518 522 507
402 4 0 507 518 522 491
403 4 0 354 360 361 358
404 4 0 357 207 177 354
405 4 0 369 323 308 332
406 4 0 332 323 322 369
407 4 0 229 228 225 230
408 4 0 43 41 32 33
409 4 0 42 123 127 129
410 4 0 127 42 43 123
411 4 0 411 397 410 400
412 4 0 120 130 121 123
413 4 0 334 324 397 411
414 4 0 154 199 147 148
415 4 0 156 199 147 154
416 4 0 343 340 141 92
417 4 0 340 132 133 141
418 4 0 345 343 340 133
419 4 0 340 343 344 337
420 4 0 397 400 403 405
421 4 0 400 403 345 338
422 4 0 428 438 425 466
423 4 0 397 400 338 403
424 4 0 160 305 148 295
425 4 0 296 295 305 302
426 4 0 215 293 295 553
427 4 0 298 160 305 169
428 4 0 158 159 155 151
429 4 0 433 434 455 439
430 4 0 433 439 437 431
431 4 0 428 436 437 439
432 4 0 559 568 534 571
433 4 0 430 503 433 512
434 4 0 563 572 568 571
435 4 0 563 571 568 559
436 4 0 18 104 119 105
437 4 0 590 306 309 314
438 4 0 311 306 316 307
439 4 0 537 540 566 565
440 4 0 566 564 572 563
441 4 0 540 537 566 528
442 4 0 559 563 571 560
443 4 0 528 568 532 529
444 4 0 215 295 148 296
445 4 0 298 295 305 160
446 4 0 295 553 296 215
447 4 0 204 208 213 210
448 4 0 215 293 148 295
449 4 0 209 293 212 215
450 4 0 215 293 212 148
451 4 0 387 389 388 392
452 4 0 383 382 447 385
453 4 0 146 156 199 147
454 4 0 390 383 391 388
455 4 0 393 382 389 388
456 4 0 460 462 465 470
457 4 0 353 365 359 364
458 4 0 299 302 304 291
459 4 0 171 305 298 303
460 4 0 292 284 300 278
461 4 0 288 281 286 278
462 4 0 283 281 288 278
463 4 0 261 284 294 292
464 4 0 331 333 328 332
465 4 0 327 332 322 331
466 4 0 529 535 559 534
467 4 0 529 535 536 488
468 4 0 534 535 536 529
469 4 0 298 302 291 305
470 4 0 301 302 291 298
471 4 0 320 313 312 372
472 4 0 552 547 550 549
473 4 0 554 548 569 545
474 4 0 359 365 370 356
475 4 0 580 551 576 545
476 4 0 35 37 31 36
477 4 0 477 471 495 494
478 4 0 477 495 533 530
479 4 0 109 102 103 111
480 4 0 109 114 111 110
481 4 0 353 375 359 365
482 4 0 476 485 457 472
483 4 0 172 150 173 167
484 4 0 381 359 367 370
485 4 0 6 7 11 4
486 4 0 1 7 3 5
487 4 0 51 48 57 55
488 4 0 363 361 358 354
489 4 0 308 369 319 320
490 4 0 207 210 208 178
491 4 0 149 160 169 305
492 4 0 169 158 149 305
493 4 0 355 556 552 553
494 4 0 215 553 355 209
495 4 0 424 395 384 396
496 4 0 424 329 396 384
497 4 0 395 384 396 392
498 4 0 544 355 556 552
499 4 0 272 263 271 268
500 4 0 293 553 215 209
501 4 0 272 271 264 268
502 4 0 32 36 35 31
503 4 0 450 454 383 447
504 4 0 447 442 444 450
505 4 0 448 442 447 454
506 4 0 457 468 508 476
507 4 0 277 286 276 290
508 4 0 206 360 362 354
509 4 0 156 146 151 147
510 4 0 358 360 207 354
511 4 0 207 360 206 354
512 4 0 270 263 271 272
513 4 0 270 271 264 272
514 4 0 251 219 227 217
515 4 0 226 219 227 230
516 4 0 225 219 224 223
517 4 0 270 267 263 272
518 4 0 285 553 543 556
519 4 0 238 237 245 236
520 4 0 238 237 232 245
521 4 0 424 426 412 329
522 4 0 424 331 329 410
523 4 0 424 331 418 426
524 4 0 168 163 165 171
525 4 0 166 163 171 266
526 4 0 554 548 545 551
527 4 0 555 377 557 352
528 4 0 24 26 20 23
529 4 0 525 527 520 517
530 4 0 24 30 18 29
531 4 0 617 608 605 603
532 4 0 605 608 609 604
533 4 0 617 605 610 607
534 4 0 604 605 607 609
535 4 0 603 605 607 604
536 4 0 31 5 25 40
537 4 0 40 5 25 1
538 4 0 611 589 613 602
539 4 0 611 602 598 589
540 4 0 604 589 613 611
541 4 0 207 210 205 208
542 4 0 203 210 196 208
543 4 0 109 107 102 111
544 4 0 48 52 47 57
545 4 0 360 352 354 361
546 4 0 352 361 353 354
547 4 0 362 360 352 354
548 4 0 20 104 18 16
549 4 0 303 298 291 305
550 4 0 549 543 570 550
551 4 0 301 298 291 303
552 4 0 379 369 372 320
553 4 0 303 294 291 301
554 4 0 313 317 320 312
555 4 0 433 452 455 512
556 4 0 451 453 455 452
557 4 0 466 456 460 428
558 4 0 453 452 451 442
559 4 0 302 296 295 304
560 4 0 467 462 460 470
561 4 0 396 395 392 394
562 4 0 452 455 451 433
563 4 0 542 479 616 614
564 4 0 533 479 477 542
565 4 0 560 563 571 570
566 4 0 171 163 165 305
567 4 0 169 165 158 305
568 4 0 371 374 377 373
569 4 0 161 167 155 165
570 4 0 570 563 571 572
571 4 0 546 285 296 289
572 4 0 297 285 289 296
573 4 0 553 285 296 556
574 4 0 532 568 531 529
575 4 0 304 296 553 285
576 4 0 296 285 304 297
577 4 0 5 31 26 39
578 4 0 39 5 31 40
579 4 0 438 466 428 468
580 4 0 233 13 240 244
581 4 0 244 233 232 239
582 4 0 233 240 239 244
583 4 0 508 459 500 468
584 4 0 234 233 244 6
585 4 0 508 476 468 500
586 4 0 459 500 468 436
587 4 0 551 557 545 554
588 4 0 6 13 233 244
589 4 0 14 13 233 6
590 4 0 232 240 246 239
591 4 0 241 240 246 232
592 4 0 520 527 516 517
593 4 0 237 241 246 232
594 4 0 238 237 242 232
595 4 0 147 160 149 148
596 4 0 584 580 577 583
597 4 0 288 278 299 283
598 4 0 289 288 297 283
599 4 0 395 396 412 390
600 4 0 424 396 329 412
601 4 0 285 546 296 556
602 4 0 31 37 40 70
603 4 0 347 359 381 370
604 4 0 347 370 381 324
605 4 0 222 3 226 40
606 4 0 1 3 40 5
607 4 0 44 45 54 60
608 4 0 270 273 269 264
609 4 0 343 88 92 144
610 4 0 135 134 82 81
611 4 0 81 82 135 80
612 4 0 69 58 489 65
613 4 0 106 110 105 109
614 4 0 106 110 109 103
615 4 0 489 69 65 488
616 4 0 488 489 69 536
617 4 0 258 253 243 250
618 4 0 258 243 253 257
619 4 0 268 266 271 264
620 4 0 268 294 271 266
621 4 0 180 184 176 183
622 4 0 151 156 147 154
623 4 0 201 146 156 199
624 4 0 216 206 354 207
625 4 0 177 207 216 354
626 4 0 232 233 244 234
627 4 0 232 245 233 234
628 4 0 234 11 235 245
629 4 0 90 77 76 73
630 4 0 282 68 62 66
631 4 0 95 77 76 90
632 4 0 95 76 77 79
633 4 0 342 182 366 351
634 4 0 351 336 342 350
635 4 0 223 282 62 66
636 4 0 271 266 163 264
637 4 0 270 273 264 271
638 4 0 164 264 271 163
639 4 0 238 237 236 255
640 4 0 479 616 609 606
641 4 0 156 146 153 151
642 4 0 93 99 101 350
643 4 0 153 156 151 154
644 4 0 201 153 156 146
645 4 0 159 154 151 158
646 4 0 103 111 112 110
647 4 0 177 178 210 207
648 4 0 387 396 405 392
649 4 0 392 396 405 398
650 4 0 106 110 103 112
651 4 0 285 543 570 546
652 4 0 230 218 231 227
653 4 0 284 218 231 287
654 4 0 552 549 550 543
655 4 0 1 3 222 40
656 4 0 510 522 518 516
657 4 0 520 522 510 516
658 4 0 77 96 85 90
659 4 0 90 96 85 94
660 4 0 94 90 99 91
661 4 0 95 96 77 90
662 4 0 181 177 178 185
663 4 0 113 103 112 106
664 4 0 106 113 108 112
665 4 0 44 49 48 54
666 4 0 97 180 96 187
667 4 0 96 101 94 99
668 4 0 367 369 372 379
669 4 0 187 188 180 96
670 4 0 372 369 380 323
671 4 0 44 49 54 45
672 4 0 461 458 460 465
673 4 0 469 458 461 465
674 4 0 150 152 157 159
675 4 0 307 458 461 469
676 4 0 150 159 157 155
677 4 0 150 167 159 155
678 4 0 607 614 605 612
679 4 0 607 612 605 537
680 4 0 547 352 360 555
681 4 0 538 612 528 539
682 4 0 607 612 538 614
683 4 0 538 612 539 614
684 4 0 607 612 540 538
685 4 0 538 612 540 528
686 4 0 363 361 353 365
687 4 0 352 547 360 362
688 4 0 472 482 457 463
689 4 0 523 65 489 515
690 4 0 523 489 65 488
691 4 0 271 294 303 266
692 4 0 513 483 480 476
693 4 0 182 350 188 185
694 4 0 483 485 480 476
695 4 0 190 195 203 212
696 4 0 196 190 195 203
697 4 0 175 89 176 179
698 4 0 318 310 307 316
699 4 0 372 367 380 369
700 4 0 337 349 336 339
701 4 0 147 212 148 199
702 4 0 147 190 212 199
703 4 0 537 580 565 566
704 4 0 523 515 518 527
705 4 0 518 527 515 516
706 4 0 516 527 515 517
707 4 0 350 93 341 337
708 4 0 121 43 123 127
709 4 0 350 351 336 337
710 4 0 564 566 569 580
711 4 0 351 341 337 350
712 4 0 255 258 247 242
713 4 0 385 448 447 454
714 4 0 258 243 242 255
715 4 0 587 377 581 574
716 4 0 587 374 581 377
717 4 0 605 604 603 608
718 4 0 598 458 594 601
719 4 0 589 604 608 603
720 4 0 610 615 605 617
721 4 0 617 608 591 615
722 4 0 617 615 605 608
723 4 0 458 460 465 470
724 4 0 130 117 129 120
725 4 0 458 467 460 470
726 4 0 466 467 460 456
727 4 0 447 382 124 448
728 4 0 274 273 269 270
729 4 0 120 117 129 124
730 4 0 118 125 140 121
731 4 0 528 530 539 533
732 4 0 538 530 539 528
733 4 0 533 530 529 528
734 4 0 169 171 165 305
735 4 0 264 266 163 166
736 4 0 68 66 282 280
737 4 0 173 150 157 155
738 4 0 380 323 369 321
739 4 0 381 367 369 380
740 4 0 322 323 321 369
741 4 0 515 521 65 58
742 4 0 521 526 44 524
743 4 0 617 579 591 577
744 4 0 287 230 231 228
745 4 0 170 269 162 164
746 4 0 297 285 299 288
747 4 0 235 236 245 220
748 4 0 203 212 205 209
749 4 0 238 236 245 235
750 4 0 209 212 293 190
751 4 0 11 220 245 222
752 4 0 235 220 245 11
753 4 0 321 381 380 324
754 4 0 324 370 381 380
755 4 0 368 371 374 378
756 4 0 65 71 44 61
757 4 0 65 44 71 521
758 4 0 511 506 507 505
759 4 0 511 506 505 486
760 4 0 278 292 284 218
761 4 0 401 408 409 402
762 4 0 334 324 411 321
763 4 0 399 334 411 321
764 4 0 167 168 165 161
765 4 0 602 470 598 601
766 4 0 602 463 598 470
767 4 0 546 285 289 571
768 4 0 279 285 571 289
769 4 0 405 397 406 398
770 4 0 589 595 598 594
771 4 0 308 372 323 369
772 4 0 312 372 308 320
773 4 0 339 349 344 337
774 4 0 338 339 349 344
775 4 0 515 58 65 489
776 4 0 425 460 416 428
777 4 0 524 517 525 446
778 4 0 524 515 526 517
779 4 0 555 547 352 557
780 4 0 92 343 93 88
781 4 0 158 155 149 151
782 4 0 346 397 400 338
783 4 0 292 302 291 301
784 4 0 372 320 369 308
785 4 0 365 367 376 375
786 4 0 301 294 291 292
787 4 0 374 368 372 379
788 4 0 301 294 292 268
789 4 0 248 250 259 256
790 4 0 262 256 253 254
791 4 0 254 253 248 256
792 4 0 366 182 177 357
793 4 0 354 357 366 177
794 4 0 342 350 182 351
795 4 0 232 240 239 233
796 4 0 91 94 88 93
797 4 0 91 93 88 92
798 4 0 439 438 428 436
799 4 0 376 367 365 380
800 4 0 367 365 380 370
801 4 0 558 566 565 572
802 4 0 226 219 230 223
803 4 0 526 524 525 51
804 4 0 569 566 565 580
805 4 0 600 590 599 588
806 4 0 469 465 470 458
807 4 0 51 446 525 444
808 4 0 497 496 506 486
809 4 0 155 167 159 165
810 4 0 69 67 58 65
811 4 0 406 384 398 410
812 4 0 504 503 514 502
813 4 0 514 503 504 500
814 4 0 504 508 514 500
815 4 0 169 305 298 171
816 4 0 616 479 473 606
817 4 0 478 473 479 606
818 4 0 48 51 47 44
819 4 0 482 606 602 611
820 4 0 242 237 246 232
821 4 0 485 474 478 482
822 4 0 401 407 405 402
823 4 0 402 407 405 406
824 4 0 242 243 246 237
825 4 0 141 340 343 133
826 4 0 133 343 141 144
827 4 0 231 218 230 287
828 4 0 109 107 114 105
829 4 0 321 381 369 380
830 4 0 109 107 111 114
831 4 0 162 172 173 164
832 4 0 409 404 139 402
833 4 0 241 233 240 232
834 4 0 177 182 188 185
835 4 0 99 101 188 96
836 4 0 346 411 324 321
837 4 0 286 288 276 290
838 4 0 22 20 126 104
839 4 0 20 22 126 32
840 4 0 530 487 494 495
841 4 0 530 541 487 495
842 4 0 381 324 321 346
843 4 0 23 28 24 26
844 4 0 149 154 147 148
845 4 0 151 154 147 149
846 4 0 568 528 540 566
847 4 0 561 566 568 563
848 4 0 133 139 132 402
849 4 0 132 402 345 133
850 4 0 402 404 139 132
851 4 0 69 536 535 488
852 4 0 43 41 123 42
853 4 0 36 41 33 32
854 4 0 49 53 47 48
855 4 0 237 241 232 245
856 4 0 241 233 232 245
857 4 0 78 74 72 84
858 4 0 463 482 602 611
859 4 0 70 62 60 63
860 4 0 611 602 463 598
861 4 0 70 63 223 62
862 4 0 78 74 83 73
863 4 0 77 74 73 85
864 4 0 41 32 35 42
865 4 0 127 42 32 43
866 4 0 155 165 159 158
867 4 0 190 208 209 203
868 4 0 190 208 203 196
869 4 0 321 411 399 410
870 4 0 146 157 153 151
871 4 0 330 410 321 327
872 4 0 321 399 327 410
873 4 0 208 196 194 191
874 4 0 190 196 194 208
875 4 0 460 425 416 423
876 4 0 325 419 423 420
877 4 0 416 461 460 423
878 4 0 345 340 344 338
879 4 0 340 343 345 344
880 4 0 339 338 345 344
881 4 0 210 208 184 204
882 4 0 178 208 184 210
883 4 0 221 226 223 224
884 4 0 466 460 425 428
885 4 0 224 219 226 223
886 4 0 185 188 178 187
887 4 0 242 243 237 255
888 4 0 497 496 486 475
889 4 0 65 523 526 515
890 4 0 497 491 496 492
891 4 0 276 286 277 535
892 4 0 65 44 521 526
893 4 0 65 526 521 515
894 4 0 68 277 286 535
895 4 0 595 592 591 596
896 4 0 592 586 577 575
897 4 0 586 592 593 596
898 4 0 596 586 592 575
899 4 0 273 264 271 164
900 4 0 269 170 264 164
901 4 0 514 503 512 502
902 4 0 324 397 346 338
903 4 0 324 346 349 338
904 4 0 502 503 509 504
905 4 0 502 445 519 441
906 4 0 441 445 442 452
907 4 0 446 445 442 441
908 4 0 513 508 500 476
909 4 0 442 445 453 452
910 4 0 153 157 159 151
911 4 0 226 220 227 217
912 4 0 217 219 227 226
913 4 0 153 154 151 159
914 4 0 226 222 217 224
915 4 0 224 222 217 11
916 4 0 167 150 173 155
917 4 0 287 229 230 228
918 4 0 39 37 3 40
919 4 0 39 3 5 40
920 4 0 238 236 235 217
921 4 0 238 259 236 217
922 4 0 259 238 251 217
923 4 0 206 207 205 209
924 4 0 206 209 205 355
925 4 0 406 397 400 410
926 4 0 357 182 185 351
927 4 0 206 209 360 207
928 4 0 269 273 162 164
929 4 0 273 269 264 164
930 4 0 396 387 388 392
931 4 0 360 209 206 355
932 4 0 396 394 392 388
933 4 0 410 384 398 329
934 4 0 569 564 567 572
935 4 0 48 57 47 51
936 4 0 444 57 446 442
937 4 0 374 379 372 320
938 4 0 320 372 374 313
939 4 0 320 313 374 317
940 4 0 170 166 164 161
941 4 0 135 137 143 144
942 4 0 472 463 474 482
943 4 0 164 170 264 166
944 4 0 474 463 481 482
945 4 0 364 353 365 363
946 4 0 238 255 236 259
947 4 0 173 164 170 162
948 4 0 359 367 370 365
949 4 0 177 207 210 216
950 4 0 168 165 161 171
951 4 0 63 66 223 62
952 4 0 181 178 177 207
953 4 0 444 449 57 442
954 4 0 159 157 155 151
955 4 0 447 449 444 442
956 4 0 198 195 189 197
957 4 0 414 435 421 422
958 4 0 232 234 238 245
959 4 0 168 164 161 167
960 4 0 195 189 199 190
961 4 0 195 197 199 189
962 4 0 136 121 140 122
963 4 0 122 136 121 127
964 4 0 122 140 136 139
965 4 0 492 491 518 507
966 4 0 492 491 496 493
967 4 0 461 420 318 325
968 4 0 325 423 461 420
969 4 0 164 167 173 161
970 4 0 416 420 461 423
971 4 0 229 230 225 223
972 4 0 592 591 596 575
973 4 0 161 167 173 155
974 4 0 575 586 585 596
975 4 0 574 577 586 575
976 4 0 164 172 173 167
977 4 0 173 164 161 170
978 4 0 575 574 587 585
979 4 0 549 546 562 570
980 4 0 230 282 223 229
981 4 0 161 165 155 169
982 4 0 225 230 219 223
983 4 0 165 171 169 161
984 4 0 234 245 233 6
985 4 0 159 152 157 153
986 4 0 37 221 3 40
987 4 0 66 63 67 62
988 4 0 63 71 67 62
989 4 0 333 420 418 335
990 4 0 331 418 335 333
991 4 0 242 246 243 258
992 4 0 616 473 481 606
993 4 0 258 243 257 246
994 4 0 332 316 310 333
995 4 0 328 316 333 326
996 4 0 332 316 333 328
997 4 0 319 316 310 332
998 4 0 447 55 444 449
999 4 0 41 55 123 52
1000 4 0 48 52 34 47
1001 4 0 128 447 52 55
1002 4 0 449 448 442 447
1003 4 0 52 48 41 55
1004 4 0 425 414 421 416
1005 4 0 439 431 434 436
1006 4 0 439 438 436 434
1007 4 0 41 48 52 34
1008 4 0 32 41 35 36
1009 4 0 350 99 188 185
1010 4 0 350 99 101 188
1011 4 0 445 512 453 452
1012 4 0 441 512 503 502
1013 4 0 452 512 503 441
1014 4 0 431 439 434 433
1015 4 0 433 512 503 452
1016 4 0 447 52 55 449
1017 4 0 445 452 441 512
1018 4 0 52 448 449 447
1019 4 0 22 127 136 126
1020 4 0 12 2 15 9
1021 4 0 24 12 9 2
1022 4 0 2 15 9 10
1023 4 0 287 282 230 229
1024 4 0 31 32 36 33
1025 4 0 35 32 31 39
1026 4 0 573 314 588 597
1027 4 0 466 456 428 468
1028 4 0 333 316 318 325
1029 4 0 325 335 333 326
1030 4 0 466 468 438 459
1031 4 0 459 468 438 436
1032 4 0 333 318 420 325
1033 4 0 423 461 460 465
1034 4 0 325 333 335 420
1035 4 0 580 537 584 579
1036 4 0 277 276 534 290
1037 4 0 579 580 577 584
1038 4 0 463 464 470 602
1039 4 0 542 539 614 538
1040 4 0 458 463 470 598
1041 4 0 542 539 538 530
1042 4 0 601 470 598 458
1043 4 0 479 539 614 542
1044 4 0 542 539 530 533
1045 4 0 542 538 614 607
1046 4 0 355 215 556 553
1047 4 0 416 414 413 420
1048 4 0 335 420 418 419
1049 4 0 415 414 420 413
1050 4 0 67 62 61 68
1051 4 0 71 60 61 62
1052 4 0 562 571 572 570
1053 4 0 280 229 282 287
1054 4 0 567 562 572 570
1055 4 0 471 495 494 496
1056 4 0 494 495 493 496
1057 4 0 604 609 616 606
1058 4 0 611 616 606 604
1059 4 0 478 481 473 606
1060 4 0 399 334 397 411
1061 4 0 327 321 323 334
1062 4 0 53 70 37 36
1063 4 0 60 45 53 59
1064 4 0 525 520 519 517
1065 4 0 520 502 525 519
1066 4 0 502 509 519 520
1067 4 0 518 522 527 516
1068 4 0 516 522 527 520
1069 4 0 566 568 563 572
1070 4 0 291 302 296 305
1071 4 0 346 338 345 339
1072 4 0 483 478 485 474
1073 4 0 486 475 496 484
1074 4 0 483 478 484 485
1075 4 0 277 68 286 280
1076 4 0 286 282 280 68
1077 4 0 68 535 488 69
1078 4 0 548 550 551 554
1079 4 0 66 62 67 68
1080 4 0 63 45 71 60
1081 4 0 69 68 64 67
1082 4 0 554 564 548 550
1083 4 0 554 564 569 548
1084 4 0 41 42 35 34
1085 4 0 41 48 34 38
1086 4 0 569 564 554 567
1087 4 0 353 361 375 365
1088 4 0 365 361 375 368
1089 4 0 374 378 371 587
1090 4 0 525 524 526 517
1091 4 0 377 352 555 373
1092 4 0 292 284 294 300
1093 4 0 50 521 44 524
1094 4 0 576 577 575 580
1095 4 0 580 577 575 579
1096 4 0 574 576 575 587
1097 4 0 563 559 568 561
1098 4 0 587 574 581 585
1099 4 0 529 568 559 561
1100 4 0 447 454 442 450
1101 4 0 428 439 435 438
1102 4 0 545 551 576 574
1103 4 0 377 551 545 574
1104 4 0 587 374 377 371
1105 4 0 551 377 371 587
1106 4 0 550 547 554 549
1107 4 0 340 337 341 343
1108 4 0 210 208 203 205
1109 4 0 364 365 359 356
1110 4 0 357 363 358 354
1111 4 0 364 363 365 356
1112 4 0 290 283 288 279
1113 4 0 289 288 283 279
1114 4 0 288 285 279 289
1115 4 0 1 7 4 222
1116 4 0 227 259 217 220
1117 4 0 580 545 576 583
1118 4 0 583 569 580 545
1119 4 0 382 117 120 124
1120 4 0 482 463 481 611
1121 4 0 386 124 117 382
1122 4 0 482 602 464 463
1123 4 0 481 606 482 611
1124 4 0 52 123 42 129
1125 4 0 42 52 41 123
1126 4 0 53 34 47 48
1127 4 0 56 53 36 70
1128 4 0 48 53 38 56
1129 4 0 35 53 37 36
1130 4 0 71 60 44 61
1131 4 0 513 480 508 476
1132 4 0 405 397 400 406
1133 4 0 477 471 494 475
1134 4 0 497 494 496 475
1135 4 0 375 367 359 365
1136 4 0 372 368 374 378
1137 4 0 475 471 494 496
1138 4 0 375 368 374 379
1139 4 0 365 368 375 376
1140 4 0 475 471 473 477
1141 4 0 498 491 522 518
1142 4 0 491 498 492 518
1143 4 0 498 492 493 491
1144 4 0 589 602 598 595
1145 4 0 594 601 595 598
1146 4 0 123 128 52 55
1147 4 0 52 448 447 124
1148 4 0 128 52 129 123
1149 4 0 120 128 129 123
1150 4 0 217 259 236 220
1151 4 0 428 435 427 421
1152 4 0 435 427 421 422
1153 4 0 286 282 281 280
1154 4 0 278 282 281 286
1155 4 0 230 282 287 218
1156 4 0 555 373 371 377
1157 4 0 352 361 373 353
1158 4 0 555 373 361 371
1159 4 0 63 62 60 71
1160 4 0 354 357 363 366
1161 4 0 354 361 353 363
1162 4 0 354 353 364 363
1163 4 0 60 45 54 53
1164 4 0 54 60 53 56
1165 4 0 354 363 364 366
1166 4 0 53 59 37 70
1167 4 0 321 322 327 323
1168 4 0 71 44 45 521
1169 4 0 327 322 321 330
1170 4 0 261 268 256 249
1171 4 0 294 268 261 292
1172 4 0 281 283 288 290
1173 4 0 277 286 290 281
1174 4 0 286 288 290 281
1175 4 0 134 136 145 142
1176 4 0 137 143 131 138
1177 4 0 142 134 135 138
1178 4 0 334 321 380 324
1179 4 0 279 276 288 290
1180 4 0 140 131 121 136
1181 4 0 279 276 290 534
1182 4 0 115 119 145 136
1183 4 0 139 132 140 143
1184 4 0 91 135 80 81
1185 4 0 88 91 135 80
1186 4 0 443 454 383 450
1187 4 0 451 454 443 450
1188 4 0 276 560 571 285
1189 4 0 285 560 571 570
1190 4 0 6 13 244 8
1191 4 0 8 14 1 6
1192 4 0 15 13 8 244
1193 4 0 1 8 2 10
1194 4 0 10 8 2 15
1195 4 0 296 304 291 297
1196 4 0 297 299 304 291
1197 4 0 292 299 278 300
1198 4 0 506 501 505 504
1199 4 0 357 177 181 185
1200 4 0 357 181 177 207
1201 4 0 553 556 296 215
1202 4 0 578 573 585 582
1203 4 0 585 574 581 586
1204 4 0 3 222 226 224
1205 4 0 450 454 442 451
1206 4 0 416 425 414 423
1207 4 0 414 420 416 423
1208 4 0 385 448 386 382
1209 4 0 382 389 386 385
1210 4 0 373 374 375 368
1211 4 0 373 352 555 361
1212 4 0 617 615 591 579
1213 4 0 592 589 591 617
1214 4 0 617 608 603 589
1215 4 0 597 314 588 590
1216 4 0 317 314 597 315
1217 4 0 597 590 307 309
1218 4 0 599 590 307 597
1219 4 0 309 590 314 597
1220 4 0 600 599 594 588
1221 4 0 51 57 47 46
1222 4 0 446 51 57 444
1223 4 0 171 168 163 166
1224 4 0 142 136 131 139
1225 4 0 137 142 135 138
1226 4 0 137 138 131 142
1227 4 0 574 576 545 583
1228 4 0 551 576 574 587
1229 4 0 421 427 429 422
1230 4 0 475 473 471 478
1231 4 0 460 462 423 465
1232 4 0 266 298 303 171
1233 4 0 537 528 540 612
1234 4 0 529 568 561 528
1235 4 0 301 298 303 266
1236 4 0 528 568 540 538
1237 4 0 25 22 18 20
1238 4 0 32 22 43 33
1239 4 0 119 22 136 104
1240 4 0 104 22 18 119
1241 4 0 32 22 26 20
1242 4 0 127 22 43 32
1243 4 0 436 431 437 439
1244 4 0 410 399 327 329
1245 4 0 327 334 399 321
1246 4 0 566 558 568 572
1247 4 0 341 93 99 92
1248 4 0 350 99 341 93
1249 4 0 175 89 179 87
1250 4 0 463 456 467 464
1251 4 0 463 464 467 470
1252 4 0 458 463 467 470
1253 4 0 1 5 2 8
1254 4 0 6 5 7 1
1255 4 0 24 12 2 5
1256 4 0 183 210 204 202
1257 4 0 180 184 183 210
1258 4 0 142 138 145 134
1259 4 0 559 560 571 276
1260 4 0 512 430 503 500
1261 4 0 512 430 500 436
1262 4 0 459 500 436 512
1263 4 0 403 132 345 340
1264 4 0 403 402 345 132
1265 4 0 536 534 529 531
1266 4 0 568 534 531 529
1267 4 0 549 570 567 550
1268 4 0 554 550 549 567
1269 4 0 22 121 119 136
1270 4 0 45 60 63 59
1271 4 0 158 154 149 148
1272 4 0 151 154 149 158
1273 4 0 212 209 215 211
1274 4 0 211 209 205 212
1275 4 0 399 397 398 410
1276 4 0 384 396 398 329
1277 4 0 356 342 366 351
1278 4 0 366 351 357 356
1279 4 0 348 347 356 342
1280 4 0 336 342 347 348
1281 4 0 131 119 121 136
1282 4 0 119 131 145 136
1283 4 0 88 92 135 91
1284 4 0 135 92 138 91
1285 4 0 350 99 185 341
1286 4 0 338 400 346 345
1287 4 0 346 397 324 411
1288 4 0 313 378 374 578
1289 4 0 356 359 347 370
1290 4 0 334 321 323 380
1291 4 0 535 276 559 534
1292 4 0 521 71 65 58
1293 4 0 67 71 65 61
1294 4 0 58 71 65 67
1295 4 0 580 583 576 577
1296 4 0 574 576 583 577
1297 4 0 409 404 118 139
1298 4 0 139 404 140 132
1299 4 0 247 250 259 248
1300 4 0 401 392 405 407
1301 4 0 407 392 405 406
1302 4 0 234 235 238 245
1303 4 0 386 448 124 382
1304 4 0 329 399 398 410
1305 4 0 331 410 330 327
1306 4 0 327 322 330 331
1307 4 0 60 71 44 45
1308 4 0 484 485 480 483
1309 4 0 496 484 506 486
1310 4 0 475 484 486 483
1311 4 0 135 141 138 92
1312 4 0 311 316 469 307
1313 4 0 458 307 599 469
1314 4 0 469 307 599 590
1315 4 0 363 357 356 366
1316 4 0 364 363 356 366
1317 4 0 564 570 572 563
1318 4 0 341 343 93 92
1319 4 0 376 367 372 379
1320 4 0 372 367 376 380
1321 4 0 368 376 372 379
1322 4 0 376 368 375 379
1323 4 0 104 109 115 105
1324 4 0 63 225 223 66
1325 4 0 534 277 536 535
1326 4 0 69 536 277 535
1327 4 0 338 403 345 340
1328 4 0 340 338 349 344
1329 4 0 1 8 10 14
1330 4 0 13 8 10 15
1331 4 0 46 524 50 51
1332 4 0 51 57 46 446
1333 4 0 53 38 34 48
1334 4 0 520 509 519 517
1335 4 0 519 509 502 441
1336 4 0 254 248 253 252
1337 4 0 523 527 526 515
1338 4 0 466 464 467 456
1339 4 0 248 258 253 252
1340 4 0 275 254 267 262
1341 4 0 254 267 262 256
1342 4 0 262 270 267 265
1343 4 0 262 267 275 265
1344 4 0 69 64 68 280
1345 4 0 277 68 280 69
1346 4 0 292 261 284 218
1347 4 0 571 276 279 534
1348 4 0 476 457 468 472
1349 4 0 457 464 456 463
1350 4 0 528 566 568 561
1351 4 0 88 144 135 92
1352 4 0 135 144 141 92
1353 4 0 133 132 143 141
1354 4 0 144 141 133 143
1355 4 0 393 388 389 394
1356 4 0 478 606 482 481
1357 4 0 347 324 381 346
1358 4 0 569 580 545 548
1359 4 0 580 548 551 545
1360 4 0 569 564 580 548
1361 4 0 385 393 391 383
1362 4 0 391 383 393 388
1363 4 0 391 388 393 394
1364 4 0 142 136 145 131
1365 4 0 131 138 145 142
1366 4 0 528 532 538 530
1367 4 0 528 532 530 529
1368 4 0 530 532 531 529
1369 4 0 295 296 553 304
1370 4 0 51 524 525 446
1371 4 0 46 524 51 446
1372 4 0 557 550 555 547
1373 4 0 550 547 557 554
1374 4 0 272 267 263 268
1375 4 0 268 256 267 263
1376 4 0 265 275 273 263
1377 4 0 11 6 245 234
1378 4 0 69 68 67 65
1379 4 0 68 69 488 65
1380 4 0 67 61 65 68
1381 4 0 377 557 545 551
1382 4 0 555 550 557 551
1383 4 0 130 122 121 127
1384 4 0 130 127 123 129
1385 4 0 130 127 121 123
1386 4 0 266 303 163 171
1387 4 0 552 544 547 549
1388 4 0 549 556 543 552
1389 4 0 17 12 24 28
1390 4 0 23 17 24 28
1391 4 0 505 503 500 504
1392 4 0 12 5 24 28
1393 4 0 48 55 52 57
1394 4 0 51 55 57 444
1395 4 0 444 55 57 449
1396 4 0 543 546 285 556
1397 4 0 552 556 543 553
1398 4 0 549 544 556 552
1399 4 0 584 580 583 569
1400 4 0 540 566 565 558
1401 4 0 566 540 568 558
1402 4 0 45 521 44 50
1403 4 0 266 294 303 301
1404 4 0 271 303 163 266
1405 4 0 44 524 526 51
1406 4 0 265 263 273 270
1407 4 0 382 389 117 386
1408 4 0 261 251 231 227
1409 4 0 251 231 227 219
1410 4 0 288 285 289 297
1411 4 0 297 285 304 299
1412 4 0 283 299 297 300
1413 4 0 599 469 601 458
1414 4 0 588 590 599 597
1415 4 0 450 445 442 444
1416 4 0 594 600 595 601
1417 4 0 595 600 594 588
1418 4 0 587 551 377 574
1419 4 0 32 41 43 42
1420 4 0 428 425 435 421
1421 4 0 428 425 421 416
1422 4 0 276 285 279 288
1423 4 0 467 466 462 464
1424 4 0 467 466 460 462
1425 4 0 460 466 425 462
1426 4 0 428 435 425 438
1427 4 0 287 282 281 278
1428 4 0 387 408 409 401
1429 4 0 387 392 405 401
1430 4 0 34 53 35 36
1431 4 0 36 41 35 34
1432 4 0 41 38 34 36
1433 4 0 38 53 36 56
1434 4 0 53 36 34 38
1435 4 0 24 27 9 17
1436 4 0 66 229 225 223
1437 4 0 229 282 223 66
1438 4 0 280 66 282 229
1439 4 0 604 609 606 613
1440 4 0 604 608 609 613
1441 4 0 163 305 171 303
1442 4 0 164 166 264 163
1443 4 0 90 99 100 96
1444 4 0 100 90 96 97
1445 4 0 90 96 94 99
1446 4 0 307 461 316 469
1447 4 0 433 512 455 434
1448 4 0 434 430 512 436
1449 4 0 434 459 436 512
1450 4 0 430 434 512 433
1451 4 0 105 107 114 19
1452 4 0 11 217 220 222
1453 4 0 402 405 404 403
1454 4 0 52 124 128 129
1455 4 0 128 124 120 129
1456 4 0 76 75 78 77
1457 4 0 84 82 81 73
1458 4 0 85 81 73 90
1459 4 0 73 82 81 85
1460 4 0 73 74 84 82
1461 4 0 73 74 82 85
1462 4 0 169 155 158 165
1463 4 0 122 121 125 117
1464 4 0 118 117 125 121
1465 4 0 409 125 118 117
1466 4 0 472 474 485 482
1467 4 0 472 485 457 482
1468 4 0 466 464 456 457
1469 4 0 472 457 456 463
1470 4 0 373 361 375 353
1471 4 0 537 540 565 610
1472 4 0 537 580 584 565
1473 4 0 266 294 301 268
1474 4 0 121 117 130 120
1475 4 0 120 117 118 121
1476 4 0 100 96 99 187
1477 4 0 177 185 188 178
1478 4 0 99 187 188 185
1479 4 0 96 99 187 188
1480 4 0 424 384 410 329
1481 4 0 93 99 94 101
1482 4 0 128 382 120 124
1483 4 0 460 462 425 423
1484 4 0 368 373 374 371
1485 4 0 427 439 428 437
1486 4 0 427 439 437 429
1487 4 0 14 233 245 6
1488 4 0 8 13 14 6
1489 4 0 14 8 10 13
1490 4 0 590 306 311 307
1491 4 0 590 311 469 307
1492 4 0 483 475 478 474
1493 4 0 484 475 496 478
1494 4 0 579 537 584 610
1495 4 0 610 579 577 584
1496 4 0 537 584 610 565
1497 4 0 198 193 200 195
1498 4 0 343 92 141 144
1499 4 0 340 343 341 92
1500 4 0 521 515 526 524
1501 4 0 428 435 439 427
1502 4 0 435 440 427 422
1503 4 0 427 440 429 422
1504 4 0 283 284 278 300
1505 4 0 278 300 299 283
1506 4 0 469 470 601 458
1507 4 0 508 457 459 468
1508 4 0 387 120 117 118
1509 4 0 409 118 387 117
1510 4 0 382 387 120 117
1511 4 0 389 387 382 117
1512 4 0 389 387 117 409
1513 4 0 445 525 519 446
1514 4 0 519 445 446 441
1515 4 0 525 519 446 517
1516 4 0 178 180 186 187
1517 4 0 187 180 186 175
1518 4 0 461 325 318 316
1519 4 0 307 318 316 461
1520 4 0 582 317 578 573
1521 4 0 400 402 403 405
1522 4 0 400 402 345 403
1523 4 0 405 400 402 406
1524 4 0 60 59 53 70
1525 4 0 56 60 53 70
1526 4 0 59 60 63 70
1527 4 0 182 350 185 351
1528 4 0 182 185 177 357
1529 4 0 182 351 357 366
1530 4 0 86 103 113 116
1531 4 0 431 430 434 436
1532 4 0 430 431 434 433
1533 4 0 406 392 398 384
1534 4 0 398 397 406 410
1535 4 0 457 466 459 468
1536 4 0 466 457 456 468
1537 4 0 468 457 456 472
1538 4 0 373 375 361 368
1539 4 0 368 361 373 371
1540 4 0 143 138 137 135
1541 4 0 141 143 135 138
1542 4 0 144 137 143 133
1543 4 0 144 143 135 141
1544 4 0 475 471 496 478
1545 4 0 268 263 261 256
1546 4 0 419 414 423 420
1547 4 0 388 393 382 383
1548 4 0 137 139 143 133
1549 4 0 416 414 421 413
1550 4 0 415 414 413 421
1551 4 0 160 295 148 293
1552 4 0 24 1 5 2
1553 4 0 24 5 1 25
1554 4 0 512 503 514 500
1555 4 0 522 501 507 491
1556 4 0 497 506 507 511
1557 4 0 497 506 511 486
1558 4 0 389 394 388 392
1559 4 0 389 387 409 401
1560 4 0 389 392 387 401
1561 4 0 526 515 527 517
1562 4 0 478 474 475 473
1563 4 0 478 481 474 473
1564 4 0 59 70 221 37
1565 4 0 589 608 604 613
1566 4 0 604 613 606 611
1567 4 0 483 478 475 484
1568 4 0 299 302 291 292
1569 4 0 297 299 291 300
1570 4 0 231 218 261 227
1571 4 0 284 218 261 231
1572 4 0 204 191 213 208
1573 4 0 183 204 210 184
1574 4 0 213 204 210 202
1575 4 0 177 188 180 178
1576 4 0 180 178 210 177
1577 4 0 187 178 180 188
1578 4 0 587 578 585 581
1579 4 0 11 4 245 6
1580 4 0 4 14 245 6
1581 4 0 4 11 245 222
1582 4 0 128 382 124 447
1583 4 0 175 176 174 179
1584 4 0 381 370 367 380
1585 4 0 348 370 347 324
1586 4 0 40 221 223 70
1587 4 0 226 221 223 40
1588 4 0 467 462 470 464
1589 4 0 552 547 360 555
1590 4 0 550 552 555 547
1591 4 0 547 355 360 362
1592 4 0 457 482 464 463
1593 4 0 523 489 490 515
1594 4 0 490 489 523 499
1595 4 0 564 566 572 569
1596 4 0 572 566 565 569
1597 4 0 265 275 263 267
1598 4 0 267 254 275 263
1599 4 0 347 349 346 339
1600 4 0 339 349 336 347
1601 4 0 297 288 299 283
1602 4 0 45 50 44 49
1603 4 0 479 477 473 471
1604 4 0 471 479 478 473
1605 4 0 139 140 118 125
1606 4 0 118 404 140 139
1607 4 0 338 346 349 339
1608 4 0 226 222 220 217
1609 4 0 139 118 409 125
1610 4 0 139 140 131 143
1611 4 0 438 468 428 436
1612 4 0 438 459 436 434
1613 4 0 504 508 500 513
1614 4 0 500 513 505 504
1615 4 0 504 480 508 513
1616 4 0 505 506 504 513
1617 4 0 506 480 504 513
1618 4 0 7 11 4 222
1619 4 0 1 222 3 7
1620 4 0 278 284 281 287
1621 4 0 283 281 278 284
1622 4 0 506 486 480 513
1623 4 0 564 570 567 572
1624 4 0 567 570 564 550
1625 4 0 564 550 554 567
1626 4 0 465 325 461 316
1627 4 0 325 423 465 461
1628 4 0 54 49 48 53
1629 4 0 48 54 53 56
1630 4 0 139 143 131 137
1631 4 0 139 137 131 142
1632 4 0 217 220 235 11
1633 4 0 418 419 414 426
1634 4 0 419 420 418 414
1635 4 0 2 8 12 15
1636 4 0 551 550 557 554
1637 4 0 346 397 411 400
1638 4 0 483 474 485 472
1639 4 0 469 461 316 465
1640 4 0 35 37 39 31
1641 4 0 39 37 40 31
1642 4 0 36 37 31 70
1643 4 0 481 616 606 611
1644 4 0 52 447 128 124
1645 4 0 51 46 47 50
1646 4 0 49 50 44 47
1647 4 0 50 51 44 47
1648 4 0 265 267 263 270
1649 4 0 83 78 84 74
1650 4 0 83 74 84 73
1651 4 0 356 370 347 348
1652 4 0 317 374 578 313
1653 4 0 214 204 176 174
1654 4 0 274 273 162 269
1655 4 0 435 439 427 440
1656 4 0 427 439 429 440
1657 4 0 505 486 506 513
1658 4 0 406 392 405 398
1659 4 0 67 71 61 62
1660 4 0 261 248 251 259
1661 4 0 221 224 223 225
1662 4 0 40 3 226 221
1663 4 0 63 70 221 59
1664 4 0 259 247 251 238
1665 4 0 259 248 251 247
1666 4 0 200 190 189 195
1667 4 0 349 336 347 348
1668 4 0 337 351 336 349
1669 4 0 351 341 349 337
1670 4 0 70 221 223 63
1671 4 0 189 198 200 195
1672 4 0 514 508 512 500
1673 4 0 508 459 512 500
1674 4 0 480 457 508 476
1675 4 0 64 68 66 67
1676 4 0 64 66 68 280
1677 4 0 409 118 408 387
1678 4 0 409 404 408 118
1679 4 0 224 219 217 226
1680 4 0 231 230 227 219
1681 4 0 219 228 231 230
1682 4 0 225 228 219 230
1683 4 0 480 486 483 513
1684 4 0 474 481 478 482
1685 4 0 300 292 291 294
1686 4 0 299 292 291 300
1687 4 0 580 565 569 584
1688 4 0 287 282 280 281
1689 4 0 278 218 284 287
1690 4 0 287 218 282 278
1691 4 0 484 480 506 486
1692 4 0 54 49 53 45
1693 4 0 375 367 376 379
1694 4 0 351 348 356 342
1695 4 0 351 342 336 348
1696 4 0 349 351 336 348
1697 4 0 549 562 567 570
1698 4 0 408 405 404 402
1699 4 0 401 405 408 402
1700 4 0 387 405 408 401
1701 4 0 581 317 374 578
1702 4 0 578 587 374 581
1703 4 0 212 195 199 190
1704 4 0 190 199 147 189
1705 4 0 525 526 527 517
1706 4 0 147 293 160 148
1707 4 0 573 314 317 312
1708 4 0 573 317 313 312
1709 4 0 317 578 573 313
1710 4 0 497 491 507 506
1711 4 0 501 507 510 522
1712 4 0 506 507 505 501
1713 4 0 377 555 557 551
1714 4 0 551 371 377 555
1715 4 0 221 3 226 224
1716 4 0 349 348 347 324
1717 4 0 347 346 349 324
